<?xml version="1.0" encoding="UTF-8"?>
<svg id="Layer_1" xmlns="http://www.w3.org/2000/svg" viewBox="0 0 498.04 196.95">
  <path d="M423.52,11.32c-3.8-2.02-8.02-2.39-12.13-2.36-13.18.1-26.29-.86-39.42-1.7-11.71-.75-23.45-2.3-35.13-1.62-6.58.38-13.08-.01-19.62.2-2.03.06-4.13.65-6.05-.74-.46-.33-1.3-.23-1.95-.19-6.73.4-13.45,1.04-20.18,1.16-3.29.06-6.6.29-9.91.22-6.31-.13-12.76-.76-19.06.72-.44.1-.88.18-.91.65-.13,2.15-1.68,1.72-2.94,1.57-2.68-.31-5.34-1.45-8.04.02-.43.23-.98.03-1.41-.29-3.51-2.53-7.19-2.23-10.8-.41-2.11,1.07-4.21,1.51-6.5,1.14-2.07-.33-4.13-.5-6.2.04-.53.14-1.26.38-1.56-.32-1.03-2.38-3.14-1.26-4.81-1.55-.23-.04-.67.04-.69.14-.83,3.08-3.36,1.43-5.12,1.8-1.95.41-3.94.6-5.92.83-1.9.23-3.84.63-5.6-.48-1.35-.85-2.03.71-3.2.74-3.25.07-6.5.13-9.73-.23-3.74-.42-7.46-.71-11.17.17-2.33.55-4.6.35-6.9-.27-1.42-.38-2.87-.92-4.41-.49-1.7.47-3.4,1.56-5.11-.02-.18-.16-.72-.15-.95,0-2.65,1.74-5.03.59-7.54-.49-2.39-1.03-5.03-1.23-7.61-1.15-5.82.18-11.64.56-17.45.84-1.28.06-2.47.26-3.45,1.19-.73.69-1.67.79-2.58.45-2.57-.96-5.05-.47-7.58.24-2.12.59-4.34,1.5-6.42-.25-.19-.16-.71-.17-.91-.03-3.04,2.25-5.46-.53-8.16-.97-.31-.05-.67-.26-.57-.67.14-.59.69-.64,1.17-.76,4.52-1.18,9.13-1.87,13.76-2.42,15.12-1.79,30.3-2.93,45.52-3.65,13.14-.62,26.28-1.07,39.43-1.49C232.6-.26,269.51-.08,306.41.23c5.79.05,11.68-.17,17.34,1.67.61.2,1.46.36,1.97.1,3.87-1.99,7.68-.21,11.47.15,6.65.63,13.31.43,19.97.74,11.98.55,23.98.5,35.97.74,3.51.07,6.98-.4,10.44-.84,1.96-.25,3.68-.02,5.48,1.03,2.27,1.32,5.02.87,7.56,1.17,11.59,1.38,22.77,4.06,33,9.96,2.69,1.55,5.08,3.47,7.41,5.5,4.96,4.33,9.97,8.59,14.94,12.9,1.9,1.64,8.83,11.39,9.46,13.26.75,2.24,2.09,3.94,3.69,5.73,2.19,2.45,3.59,5.66,5.11,8.65,5.91,11.62,8.45,23.97,7.67,36.98-.37,6.24-2.27,12.39-2.35,18.53-.09,6.93-4.35,12.53-4.58,19.21-.02.56-.15,1.25-.49,1.65-3.24,3.78-4.24,8.88-7.51,12.63-.82.93-1.6,1.96-2.12,3.08-4.4,9.55-12.1,15.96-20.53,21.68-4.62,3.13-9.24,6.25-13.87,9.36-8.54,5.74-18.38,8.41-28.44,9.24-3.51.29-7.27,1.5-11.08.18-2.04-.7-4.4.85-6.76.98-6.17.32-12.33.24-18.49.31-17.49.2-34.99.18-52.48.63-35.24.9-70.47,1.01-105.71.92-2.52,0-4.98-.21-7.4-.95-1.61-.49-3.28-.86-4.9-.18-3.45,1.43-7.13,1.23-10.67,1.14-12.09-.28-24.14.86-36.23.51-12.96-.37-25.93-.24-38.89-.68-9.06-.31-18.15-.32-27.18-1.27-2.15-.23-4.32-.17-6.43.5-1.95.62-3.93.47-5.94.18-3.68-.53-7.16-2.21-11.02-1.84-.91.09-1.97-.42-2.81-.91-3.48-2.07-7.25-3.38-11.17-4.2-7.13-1.49-12.75-5.54-17.95-10.34-.88-.82-1.56-1.69-3.17-1.26-1.37.36-4.34-2.58-4.66-4.1-.05-.24-.06-.7-.09-.7-3.85-.08-2.84-5.06-6.09-5.96-1.73-.48-2.79-2.3-3.95-3.72-.69-.84-1.31-1.82-2.33-2.22-1.96-.78-3.5-1.7-3.73-4.15-.11-1.16-1.63-1.59-2.36-2.48-.99-1.22-2.53-1.9-1.42-4.31.76-1.66-1.63-3.2-3.22-4.23-.84-.54-1.76-.88-2.2-1.89-.42-.97-.8-1.81.41-2.56,1.23-.76,1.1-1.87.14-2.71-5.98-5.25-6.69-12.64-8.08-19.74-.67-3.41-1.18-6.94-1.42-10.31-.34-4.96-1.08-9.95-.54-15.03,1.33-12.4,4.63-24.17,10.24-35.3.04-.07.09-.15.1-.23.34-5.85,5.25-8.99,7.82-13.48,5.04-8.8,13.46-13.81,20.56-20.28,2.94-2.68,6.27-5.31,10.74-5.32.59,0,1.46-.41,1.71-.89.96-1.85,2.4-2.56,4.42-2.61,1.22-.03,1.02-1.8,2.21-2.16,3.01-.91,6.32-.45,9.17-2.08.33-.19.85.03,1.09.42.32.52.06.97-.35,1.3-.45.36-.97.66-1.42,1.02-.73.59-2.07.86-1.67,2.15.33,1.08,1.53,1.28,2.49,1.39,2.3.27,4.45.12,6.78-.81,4.57-1.83,9.52-2.36,14.44-2.45,2.37-.04,6.17,3.49,6.74,5.82.28,1.13-.1,1.81-1.24,1.98-7.13,1.05-14.04,3.47-21.34,3.51-.56,0-1.13.21-1.66.42-.46.18-.98.81-1.28.7-3.82-1.38-5.38,2.55-8.22,3.48-3.61,1.19-6.66,3.71-10.48,4.6-1.71.39-2.72,2.13-4.04,3.27-2.09,1.81-3.72,4.37-6.94,4.45-.51.01-.62.48-.77.86-1.76,4.24-6.03,6.67-7.86,10.88-.23.52-.99.88-1.58,1.15-2.05.96-3.29,2.41-3.54,4.74-.14,1.32-.91,2.48-1.53,3.67-3.23,6.2-6.87,12.25-8.01,19.29-.61,3.77-1.03,7.57-.63,11.43.27,2.61.41,5.29-.79,7.8-.1.2-.15.54-.05.7,2.21,3.21.83,6.8,1.06,10.21.11,1.62.36,3.03,1.43,4.38,1.7,2.15,1.98,4.9,2.61,7.48.84,3.48,1.43,7.02,2.62,10.4.36,1.02.6,2.18,1.24,2.98,5.35,6.69,8.4,14.96,15.27,20.67,8.29,6.9,17,12.89,27.22,16.42,2.27.78,3.8,2.62,6.19,3.24,1.24.32,2.43.84,3.75.81,4.17-.09,8.32.18,12.47.55,2.06.19,4.16.85,6.01,1.35,5.22,1.39,10.11-.49,15.14-.27,5.24.23,10.5-.04,15.75-.07,3.03-.02,5.99.28,8.68,1.86.58.34,1.25.76,1.86.25,2.99-2.55,6.31-1.17,9.51-.78,1.07.13,2.04.66,3.02-.24.38-.35.9-.39,1.41-.19,2.33.91,4.78.62,7.18.57,5.06-.11,10.01.52,15.21-.57,5.13-1.08,10.59-1.84,16.05-1.46,5.39.37,10.91-.47,16.21.32,3.62.54,7.06.11,10.58.19,7.16.16,14.32.35,21.48.48,1.24.02,2.49-.26,3.73-.21.99.04,2.59-1.1,2.67,1.29.03.78,1.2.45,1.59,0,.89-1.03,2.01-1.02,3.19-1.03,3.14,0,6.38-.7,9.31-.61,4.32.13,8.62-2.11,12.99-.09,1.32.61,3.12.24,4.7.24,18.92,0,37.84-.35,56.75.1,9.86.23,19.58-1.16,29.39-1.15,3.68,0,7.33,1.11,11.07.25,1.66-.38,3.56,2.29,4.11,1.45,1.24-1.92,2.73-.98,4.07-1.22,1.8-.32,3.68-.24,5.44-.69,4.34-1.1,8.54-.19,12.7.74,2.03.45,4-.12,5.84-.3,5.16-.5,10.64.73,15.46-2.23,1.07-.66,2.27-1.13,3.56-1,3.56.35,6.71-.92,9.8-2.42,1.58-.76,3.18-1.44,4.94-1.71,1.28-.19,2.28-.77,3.08-1.89,1.27-1.79,3.09-3,4.98-4.1,3.71-2.17,7.38-3.94,10.56-7.42,4.53-4.95,9.06-9.91,13.33-15.1,1.68-2.05,3.06-4.36,4.5-6.6.91-1.43,1.54-2.96.76-4.72-.28-.64-.22-1.37.26-1.89,2.89-3.13,3.13-7.23,4.06-11.07.38-1.56.05-3.41,2.01-4.24.4-.17.58-.78.17-1.04-1.66-1.06-.56-2.36-.37-3.56.12-.73.37-1.46.66-2.15,2.8-6.61,1.78-13.05-.14-19.74-1.33-4.61-2.85-9.29-2.89-14.25-.02-2.78-1.49-5.26-2.63-7.75-3.83-8.36-9.3-15.56-15.77-22.03-1.72-1.72-3.36-3.47-4.37-5.72-.78-1.72-2.32-2.59-3.97-3.23-2.3-.9-4.2-2.32-5.86-4.14-1.03-1.13-1.95-2.61-3.93-2.02-.23.07-.76-.19-.85-.41-1.13-3-4.11-3.13-6.46-4.08-8.26-3.35-16.87-5.55-25.64-7.08-1.22-.21-2.5-.34-3.72-.21-3.56.37-7.12.11-10.65.18-3.78.07-7.43-.27-11.11-.75-6.31-.82-12.63-.53-18.95-.18-7.4.41-14.82.23-22.23.51-12.4.48-24.82.5-37.23.71-2.17.04-4.25.64-6.36,1.02-3.12.55-6.38.5-9.58.42-7.66-.21-15.3-.81-22.97-.54-10.65.38-21.3.68-31.95,1.21-2.26.11-3.97-1.33-6.24-1.25-6.08.21-12.14.85-18.2.86-8.74.02-17.48-.35-26.22-.55-.66-.02-1.33-.14-1.99-.15-11.74-.2-23.49-.34-35.23-.63-2.75-.07-5.22.96-7.84,1.34-4.2.62-8.22-.06-12.19-1.58,2.65-1.55,5.62-1.58,8.47-2,20.77-3.07,41.69-2.62,62.58-2.47,7.91.05,15.82.44,23.73.38,14.9-.12,29.8-.73,44.68-1.52,12.55-.67,25.09-1.5,37.65-2,10.82-.43,21.64-1,32.46-.76,5.02.11,9.93.69,15.03-.03,9.67-1.36,19.46-.32,29.19-.11,13.49.29,26.97.67,40.45,1.02.66.02,1.32.15,1.98.22-.46,2.08,1.15,2.24,2.48,2.7,12.7,4.42,24.37,10.7,34.43,19.69,4.89,4.36,9.68,8.89,12.95,14.71,1.37,1.16,2.37,2.53,2.44,4.39.04,1.19.65,2.05,1.48,2.76,1.97,1.67,3.32,3.66,3.6,6.3.07.7.25,1.49,1.61,1.76-1.94-4.96-3.62-9.75-6.36-14.07-.66-1.04-1.7-1.23-2.84-1.11.15-.99.35-2.03-.25-2.91-4.29-6.35-7.59-13.6-15.34-16.84-1.2-.5-2.35-1.34-3.24-2.29-2.45-2.63-5.23-4.55-8.87-5.14-.78-.13-1.71-.54-2.17-1.14-3.13-4-8.29-4.4-12.19-7-.43-.29-.94-.39-1.42-.12-1.39.78-2.54.25-3.66-.62-.8-.62-1.68-1.09-2.74-1.03ZM479.4,141.46c-.84.32-1.25,1.06-1.69,1.77-4.24,6.84-9.49,12.84-15.32,18.37-6.07,5.76-13.23,10.1-19.76,15.26-4.48,3.55-10.04,4.79-15.6,5.46-3.49.42-6.93.83-10.17,2.27-2.86,1.27-5.93,1.45-8.98,1.87-4.9.68-9.72-2.11-14.58-.09-.14.06-.35.04-.49-.02-3.18-1.37-6.3-.95-9.44.21-.5.18-1.15,0-1.72-.07-3.14-.37-6.26-.94-9.41-1.1-8.5-.41-16.98.4-25.47.55-1.95.03-3.89.41-5.83.63,1.73.32,3.44.3,5.15.33,3.46.06,6.98-.2,10.36.36,2.23.37,4.35.77,6.62.54,3.93-.39,7.91-1.6,11.76.45.47.25,1,.21,1.44-.07,2.52-1.58,5.1-.91,7.73-.34,1.24.26,2.61,1.04,3.84.07,1.29-1.01,2.61-.74,4.03-.47,2.02.39,4.09,1.53,6.11.85,5.8-1.97,11.66-1.38,17.55-.89.68.06,1.46.15,1.89-.38,1.5-1.85,3.55-1.5,5.52-1.53,1.16-.02,2.63.31,3.35-.58,1.49-1.83,3.44-1.65,5.39-1.98,2.33-.41,4.97.25,6.96-1.48,2.19-1.91,4.45-3.4,7.5-3.55,1.31-.06,2.56-.85,3.54-1.75,3.12-2.87,6.35-5.64,9.43-8.55,2.94-2.78,6.18-5.1,8.5-8.86,3.64-5.91,7.99-11.45,11.77-17.35,1.39-1.54,1.6-4.09,4.07-4.75.24-.06.43-.71.47-1.1.23-2.33,1.53-4.19,2.54-6.19,1.57-3.11,3.83-6.16,3.95-9.63.21-5.88.74-11.73,1.13-17.59.12-1.83-.13-3.68,1.38-5.13.57-.55.46-1.25.1-1.85-2.38-3.92-1.8-8.7-3.8-12.78-.89-1.81-1.89-3.99-.61-6.22.14-.24-.11-.81-.33-1.13-1.86-2.74-3.17-5.78-4.64-8.96-.62,1.57.16,2.62.63,3.74,3.23,7.69,6.57,15.33,5.09,24.04-.5,2.95,1.21,5.66,1.12,8.62-.41,12.81-3.93,24.75-9.94,36-.5.94-1.18,1.84-1.12,3ZM331.83,186.9c-.2.08-.17.06-.13.05-.16-.02-.32-.06-.48-.07-9.01-.53-18.01-1.07-27.02-1.57-.81-.04-1.77-.03-2.43.36-2.69,1.61-5.4,1.27-8.22.53-2.03-.53-4.2-.91-6.15-.08-2.31.98-4.66,1.18-7.08,1.19-6.11.01-12.23,0-18.34,0,.75,1.41,1.72,1.27,2.59,1.21,2.9-.21,5.79-.57,8.69-.76,3.46-.23,7.01-1.01,10.33.54,1.57.73,3.04.99,4.54.33,2.82-1.24,5.65-1.1,8.55-.44.8.18,1.65.22,2.47.19,10.81-.47,21.62-.97,32.67-1.47ZM215.45,188.39c4.03-.79,9.26,2.22,14.62.49.36-.12.82.04,1.23.11,2.62.43,5.24.87,7.85,1.32,1.25.22,2.52.44,3.56-.49,1.54-1.38,3.31-1.62,5.12-.94,3.63,1.35,6.77.04,10.23-1.51-1.54-1.03-2.84-1.66-4.57-1.17-3.02.85-6.05.95-9.08-.07-1.12-.38-2.29-.42-3.37.25-.59.37-1.27.79-1.47-.33-.3-1.65-1.2-1.13-2.2-.75-1.24.47-2.51.86-3.8,1.18-6.38,1.55-12.9,1.82-18.13,1.92ZM204.86,188.57c-5.39-.45-10.73-1.15-16.04-2.07-1.03-.18-2.55-.38-2.64,1.03-.09,1.46,1.46,1,2.34,1.01,5.45.05,10.9.02,16.34.02ZM56.14,178.05c-4.42-4.13-10.37-5.91-14.9-9.92,4.4,4.16,9.42,7.37,14.9,9.92ZM38.07,165.48c-.83-1.86-1.18-3.15-2.94-3.96.53,1.73,1.5,2.56,2.94,3.96Z" fill="#853714"/>
</svg>