<?xml version="1.0" encoding="UTF-8"?>
<svg id="Layer_1" data-name="Layer 1" xmlns="http://www.w3.org/2000/svg" viewBox="0 0 167.59 170.83">
  <path d="M117.24,170.34H50.35c-14.66,0-26.59-12.36-26.59-27.56V46.51h-6.86c-5.45,0-9.86-4.42-9.86-9.86s4.41-9.86,9.86-9.86h31.94v-7.83C48.85,8.64,57.03.25,67.07.25h33.44c10.05,0,18.23,8.39,18.23,18.71v7.83h31.94c5.45,0,9.86,4.42,9.86,9.86s-4.41,9.86-9.86,9.86h-6.86v96.27c0,15.2-11.92,27.56-26.58,27.56ZM43.49,46.51v96.27c0,4.32,3.08,7.83,6.86,7.83h66.89c3.78,0,6.86-3.51,6.86-7.83V46.51H43.49ZM68.58,26.79h30.44v-6.81h-30.44v6.81Z"/>
</svg>