<?xml version="1.0" encoding="UTF-8"?>
<svg id="Layer_1" data-name="Layer 1" xmlns="http://www.w3.org/2000/svg" viewBox="0 0 167.59 170.83">
  <path d="M14.08,169.03c-3.11,0-6.13-1.23-8.38-3.47-2.8-2.81-4.02-6.83-3.23-10.72l8.33-41.2c.7-3.45,2.38-6.58,4.87-9.05L109.29,10.91h0c6.71-6.71,18.41-6.71,25.12,0l25.94,25.91c6.93,6.92,6.93,18.19.02,25.12l-93.65,93.7c-2.5,2.49-5.62,4.16-9.05,4.85l-41.26,8.31c-.78.16-1.56.23-2.34.23ZM32.92,123.75h0c-1.76,8.7,5.92,16.38,14.62,14.62h.03c2.4-.49,4.6-1.67,6.32-3.4l76.77-76.81c4.85-4.85,4.84-12.71,0-17.55h-.01c-4.85-4.85-12.7-4.85-17.55,0L36.31,117.43c-1.73,1.73-2.9,3.92-3.39,6.32ZM32.42,121.33l-.02.02.02-.02Z"/>
</svg>