<?xml version="1.0" encoding="UTF-8"?>
<svg id="Layer_1" data-name="Layer 1" xmlns="http://www.w3.org/2000/svg" viewBox="0 0 167.59 170.83">
  <path d="M52.08,167.78c4.34-.07,7.46-3.64,7.46-8.86l-.06.06v-35.25c0-5.16-3.12-8.86-7.46-8.86s-7.71,3.64-7.71,8.99v9.5c-1.47.06-2.36.25-3.31.25-9.88,0-19.83-.19-29.77,0-4.97.07-7.9,3.44-7.78,8.1.19,4.46,3.12,7.33,7.91,7.46h33.02v9.75c.06,5.29,3.25,8.99,7.71,8.86Z"/>
  <path d="M4.14,32.51c1.59,3.83,4.72,4.78,8.41,4.78h69.48c5.8,0,9.37-3.12,9.37-7.97-.06-4.78-3.63-7.78-9.31-7.78H11.99c-6.37,0-10.2,5.48-7.84,10.96Z"/>
  <path d="M76.18,103.65c.26,4.91,3.44,8.29,7.78,8.29s7.52-3.44,7.52-8.35v-35.95c0-5.16-3.25-8.67-7.65-8.67s-7.46,3.57-7.65,8.73v9.94h-20.59c-14.66,0-29.32-.06-43.99,0-5.74,0-9.12,4.53-7.78,9.88.96,3.76,3.82,5.61,8.86,5.61h63.43l.06.13c0,3.69-.13,7.07,0,10.39Z"/>
  <path d="M120.8,93.13h17.02c5.99,0,12.11.13,18.1,0,5.1-.07,8.35-3.38,8.22-7.97-.06-4.34-3.63-7.59-8.35-7.59h-34.74v.06c-5.29,0-8.48,3-8.54,7.65-.06,4.59,3.19,7.78,8.29,7.84Z"/>
  <path d="M84.27,149.04h35.44c11.86,0,23.65.13,35.51,0,1.91,0,4.14-.45,5.61-1.47,2.74-1.91,3.95-4.78,3-8.29-1.15-4.02-3.82-5.86-8.67-5.86h-69.93c-1.34,0-2.87.13-4.14.57-3.38,1.15-5.42,4.91-4.91,8.35.64,3.95,3.76,6.7,8.1,6.7Z"/>
  <path d="M120.23,55.65c4.33,0,7.39-3.31,7.59-8.22v-10.13c1.53-.06,2.55-.13,3.63-.13,8.29,0,16.57.13,24.86,0,4.46-.13,7.84-3.5,7.84-7.71,0-4.46-3.44-7.84-8.1-7.97h-28.3v-5.35c0-1.66.06-3.38,0-5.1-.32-5.04-3.38-8.1-7.9-7.97-4.33.19-7.27,3.19-7.27,8.1v36.27c.13,4.97,3.19,8.22,7.65,8.22Z"/>
</svg>