<?xml version="1.0" encoding="UTF-8"?>
<svg id="Layer_1" data-name="Layer 1" xmlns="http://www.w3.org/2000/svg" viewBox="0 0 167.59 170.83">
  <path d="M165.27,111.42c-.44,14.51-5.68,27.71-18.12,37.34-8.06,6.25-17.24,9.26-27.55,7.94-.75-.12-1.75.44-2.37.94-10.43,8.5-22.05,11.82-35.3,8.57-4.06-1-7.62-3.06-10.75-5.82-.56-.5-1.5-.88-2.19-.81-4.19.31-8.06-.44-11.62-2.75-.5-.31-1.5-.19-2.19-.06-4.44.88-8.81,2.25-13.31,2.69-10.56,1.13-19.55-2.81-26.55-10.57-13.49-14.82-17.55-31.96-11.12-51.23,3.56-10.63,8.75-20.26,17.93-27.08,4.87-3.63,10.18-6.63,15.49-9.51,5.44-2.94,10.75-5.94,15.12-10.32,7.18-7.19,10.68-16.07,11.43-26.08.25-3.63.31-7.26.37-10.88,0-3.57,1.94-6,5.37-6.63,6.62-1.25,13.31-2.44,19.93-3.63,4.12-.75,7.31,1.75,7.68,5.94.5,6.5,1.12,13.01,1.31,19.51.25,7.38,3.37,13.2,8.81,17.95,4.19,3.63,8.93,6.19,14.12,8.19,10.62,4.19,20.24,10.01,28.18,18.33,9.87,10.38,15.18,22.64,15.31,38.03v-.06ZM51.95,144.32s-.5-.5-.81-.75c-11.62-9.69-15.68-22.08-12.87-36.78,2.06-10.82,7.25-20.14,13.87-28.77.87-1.13,1.75-2.25,2.69-3.25,1.12-1.19,2.94-1.31,4.19-.31,1.31,1,1.56,2.81.62,4.32-.31.44-.69.88-1.06,1.31-4.37,5.32-8.12,11.07-10.87,17.45-3.12,7.26-4.87,14.7-3.69,22.64,1.5,10.01,7.43,16.89,15.81,22.02,1.31.81,2.44,2,3.5,3.13,1.31,1.5,2.81,2.13,4.75,1.63,2.37-.69,3.81-2.25,4.56-4.63,6.56-21.08,7.5-42.53,3.56-64.17-.44-2.31.44-3.88,2.37-4.25,1.94-.38,3.44.69,3.75,3.06.81,6.13,1.81,12.32,2.19,18.51,1.12,16.82-.87,33.27-6.06,49.35-1.31,4-1.19,4.69,2.37,7.07,1.44,1,3.12,1.75,4.75,2.31,4.44,1.38,8.87,1,13.24-.44,8.81-2.88,14.93-8.38,17.3-17.7,2.81-10.7,2.69-21.27-.19-31.9-3.19-11.51-9-21.45-16.74-30.4-1.5-1.75-1.5-3.63,0-4.88,1.44-1.25,3.31-.94,4.81.81,5.25,6,9.68,12.51,13.12,19.76,7.18,15.14,9.62,30.9,5.31,47.35-.62,2.44-1.44,4.75-2.37,7.69,2.31,0,4.44.25,6.43,0,9.62-1.38,16.56-6.82,21.3-15.07,8.12-14.14,5.81-32.9-5.5-45.47-7.12-7.94-16.06-13.26-25.86-17.14-5.25-2.06-10.18-4.63-14.62-8.13-7.68-5.94-13.31-13.26-14.93-23.14-.56-3.5-.69-7.13-.94-10.63-.19-2.5-.37-4.94-.56-7.57-2.94.5-5.56,1-8.31,1.5v2.13c-.75,9.13-1.19,18.33-2.31,27.4-.69,5.69-2.37,11.32-3.69,16.89-.5,2-2.25,2.88-3.94,2.31-1.75-.56-2.62-2.13-2.06-4.13.37-1.5.87-2.94,1.25-4.44.5-1.88.87-3.82,1.31-5.75-1.37,1.19-2.37,2.44-3.44,3.69-6.25,7.32-14.12,12.38-22.74,16.32-12.68,5.82-21.12,15.32-25.49,28.71-4.31,13.32-2.12,25.27,6.37,36.09,7.5,9.51,19.37,11.95,29.61,6.38v-.13Z"/>
</svg>