<?xml version="1.0" encoding="UTF-8"?>
<svg id="Layer_1" data-name="Layer 1" xmlns="http://www.w3.org/2000/svg" viewBox="0 0 167.59 170.83">
  <path d="M5.01,134.48c.36.18.72.36.72.9h-.9c0-.36.18-.54.18-.9ZM9.31,116.39c.9-.18.54,2.15,1.25,2.69.72-.36-.18-2.51-.54-2.69v-1.25c0-.36-.36-.72-.36-1.07-.18-1.25.18-2.51-.18-3.58-.18-.9-1.07-1.61-1.07-2.69-.54.18-.9.54-.72,1.25-.54-.36-.54-1.97-.9-2.51-.72-.18-1.07.18-1.25.72-1.25-1.43-.36-5.37-1.07-7.34-.72-.18-1.25.36-1.43,1.07,0,0,.18.36.18.54,0,0-.18,0-.18.18v1.61c-.18-.36-.54-.54-.72-.9-.18-.18,0-.54,0-.72s-1.07-1.07-.18-1.43c-.54-.54-.72-1.61-.72-2.51,0-.72.18-1.61.18-2.33,0-.36-.18-.9-.18-1.25,0,0-.18-.18-.18-.36,0-1.07-.18-2.15-.54-3.58-.36-.18.36-1.25-.18-1.79-.36-.18,0-2.87-.18-3.4-.36-1.43-.36-3.22-.36-5.01,0-2.69.18-5.55.18-8.06,0-4.83.54-10.56,1.43-14.68,0-.18,0-.54.18-.72h.18c.18-.54.18-1.43.36-1.97.18-1.25,0-2.69.54-3.58,0-.18.54-.36.54-.36.36-.9.36-1.79.72-3.22.54-1.79,1.43-3.4,1.97-5.37.18-.9.54-1.79.9-2.69,0-.18.36-.18.36-.36v-.36l.54-.18v-.54l.36-.18v-.36l.36-.18c.18-.18.18-.36.36-.54l.36-.18v-.54c.36-.36,1.07-.72,1.43-1.25v-.54c.36-.18,1.25-.54,1.61-1.07.18-.18,0-.54.18-.72l.36-.18v-.36c.18-.36.9-.54,1.07-.9,0-.18,0-.54.18-.72.36-.36,2.15-1.43,2.15-1.97,0-.36,1.07-1.07,1.43-1.43,1.25-1.43,2.69-2.87,4.3-3.94,1.79-1.07,4.3-1.79,7.34-2.69l4.66-1.43c.18,0,.9-.54,1.43-.54.72,0,1.97-.36,2.69-.72.18,0,.9-.18.9-.18v-.18h.72v-.18h.54v-.18h.54v-.18c.36-.18,2.33-.54,2.51-.54,1.07-.18,2.87,0,4.12-.18.54,0,.9-.36,1.43-.36h1.07c1.43,0,2.33.36,3.4.72.54.18,1.61,0,1.79.36.36.36,2.15.9,2.69,1.07.72.36,2.33.72,3.22,1.07h.36v.18c.36.18,1.07.18,1.25.36.54.36.9.9,1.43,1.43.18.18.36,0,.54.18,0,0,0,.54.18.54.18.18.72.18.9.36.18.18,0,.36.18.54.18.18.72.54.9.9.18.18,0,.54.18.72.54,1.07,1.61,1.97,1.97,3.04.18.9-.72.54-.54,1.43,0,.9.72,1.07,1.25,1.43,0,.72.36,1.07.36,1.79.18.54.72.9.54,1.79,0,.72-1.25,0-.9,1.07,0,.18-.18.54,0,.72h.36c.36.36.72,1.25,1.61,1.25,0,0-.18.54,0,.72l.36.36c.18.54,0,1.07.18,1.61.36,1.61,1.07,3.22,1.07,5.19v.9s.18,0,.18.18c0,1.25.36,3.22.54,4.3v1.43c0,.54.36.9.18,1.79,0,0-.36,0-.18.18.54.54,0,3.22.18,4.66v.54h.18c0,1.07-.18,1.97,0,3.22,0,.18.18.72.36,1.43,0,.54.36,1.97.36,2.87s0,1.79.18,2.51c.72,2.33.18,5.73.72,8.42.36,1.61.36,4.48.54,6.27,0,.36.36.36.18,1.07,0,0-.36.18-.18.36.36.18.36,1.07.36,2.15,0,1.43-.18,3.22-.18,3.94.18,1.97.18,4.3.18,6.45v5.37c0,1.61,0,3.22.18,4.66,0,1.25.36,2.51.36,4.3,0,0-.18,0-.18.18,0,0,.18.54.18.9,0,3.22-.9,5.37-1.61,7.88-.36,1.07-.36,2.51-.72,3.76-.18.36-.36.54-.36.9-.18.72-.18,1.61-.36,2.51-.54,1.79-.9,4.48-1.61,6.45-.18.36-.72,1.07-.9,1.43-.36.72-.54,1.79-.72,2.33-.54.36-.36,2.69-.72,3.58,0,.18-.36.36-.36.36v.72c0,.18-.54.18-.72.54-.18.18-.18.72-.36.9-.18.36-1.07.54-1.07,1.07s-.9,1.07-1.25,1.43v.36c-.54.54-1.61,1.43-2.33,1.97h-.54c-.36.36-.9.9-1.43.9-.36,0-.36.54-.72.54-.9,0-2.33.72-3.76.36-1.61-.36-3.22.54-4.48.72h-1.61l-3.22.54c-2.33.18-4.66.18-7.52.18-1.61,0-2.51.36-3.94.54-1.07.18-1.79,0-2.87,0,0,0-.18.18-.36.18-1.61,0-3.58.36-5.55.36-.72,0-1.61-.18-2.33-.18h-1.43c-.54,0-.9-.18-1.43-.18-2.69-.36-4.66,0-6.27-1.61-.18-.18-1.61-1.07-1.79-1.07-.72,0-1.43-1.25-1.97-1.79h-.54c-.72-.9-1.61-1.97-2.51-2.87.72-1.25-.9-1.97-1.07-3.04.18-.9.72.54,1.61.18,0-.54-.18-1.07-.54-1.25,0-.9.18.54.72.36.36-.9-.72-1.43-.72-1.97,0-.36-.9-.72-.9-1.25,0-.72-1.07-1.25-1.43-1.79v-.36c-1.07-.9-1.43-2.33-2.15-3.4,0-.18-.36-.18-.36-.36s.18-.72,0-.9c-1.43-1.43-1.25-5.19-1.79-7.34-.18-.54-.9-2.33-.36-3.04,1.43.9.18,4.66,1.61,5.73,0,1.25.54,1.97.72,3.04.18,0,.18-.36.18-.72,0-1.79-1.07-6.45-1.25-7.16,0-.18-.18-.36-.18-.54,0,0,.18,0,.18-.18,0,0-.18.18-.18-.72.9-.18.54,1.07,1.07,1.25-.54,1.07-.18,2.86.18,3.76,0,.36.72.18.9.54,0,.9.54,2.15,1.07,3.04.72,1.07.36,2.15,1.79,3.04.72,0,.36-.9.72-1.07,1.25.9,1.25,2.87,2.15,3.94v1.07c.54.9,1.25,1.61,1.79,2.51.36,0,.18-.36.18-.72,1.07,0,.9,2.15,2.15,1.79,0-.18.36-.18.36-.36.54.18.54.9,1.25.72,0-1.07-.18-1.07-1.07-.9-.18-.72-.54-1.07-1.43-1.07.36-1.07-.9-2.15-1.61-2.51,0-1.07-.72-1.25-1.07-2.15-.36-.54-1.07-.54-1.43-1.07-.18-.54-.36-1.43-.54-2.15,0-.54.18-.18.36-.18.36.18.54-.18.9-.18-.18-1.07-1.07-1.97-1.25-3.22-.72.18-.36.54-.36,1.07-1.43-.18-.72-1.97-1.43-2.69-.72-.18-.9.36-1.07.72-.9-.9-1.07-3.4-.72-4.83,1.25.36,0,2.51,1.79,2.69.9-.18,0-1.25,0-1.79.36-.36,0-1.43.54-1.61-1.43-1.43.36-2.15,0-3.76ZM12,131.08c.36,0,0,.54.54.54,0-.36-.36-1.07-.54-.54ZM7.16,130.9c-.36.54.54,1.79,1.25,2.15-.18-.72-.36-1.79-1.25-2.15ZM12.36,140.93c.18.18,1.25,1.61,1.61.72-.36-.54-.72-.9-1.25-1.25-.18-.9-.9-1.07-1.25-1.79-.18-1.07-.9-1.79-1.25-2.51-.36-.54-.9-.9-1.25-1.43h-.72c-.54.9.36,1.25.54,2.15,1.07.54,1.97,1.07,1.97,2.51.18,0,0,.36,0,.54.18,0,.72.18.72.36,0,0-.36,0-.18.18h.36c.18,0,.18.72.36.72s.36-.18.36-.18ZM51.93,75.21c.18-1.79.9-3.94.9-5.91,0-1.25-.36-3.04,0-4.12l.18-.36c0-.36-.18-.36-.18-.54v-1.97c-.18-1.43-.36-2.69-.36-4.12,0-2.87.18-5.73.36-8.42v-1.79c0-.18.18-.18.18-.18,0-.72-.18-1.79-.18-2.51-.18-.9-.54-1.61-.54-2.33-.18-1.43-.18-4.3-.9-5.01l-.18-.54c-.36-1.07-1.43-1.61-1.79-2.86-.18-.36-.54-.9-.9-1.25,0,0-.36-.18-.54-.18-.18-.18-.18-.54-.36-.72-.54-.54-1.61-.72-1.97-1.43-2.51,0-4.66-.9-7.16-.9-.54,0-1.07,0-1.61.18-.18.36-.54.54-.9.9-.54.54-1.97,3.22-2.69,3.22-.9,0-1.79,1.97-1.97,2.33-.18.18-.36.18-.54.36-.9,1.07-1.97,2.87-2.51,4.12l-.36.36c-.18.18,0,.54,0,.72,0,0-.72.36-.72.54-.9,1.43-.72,2.33-1.25,3.76-1.07,2.69-1.97,6.45-2.33,9.49,0,.18-.18.18-.18.18-.54,2.69-.72,4.48-.72,6.98,0,1.07.36,1.97.36,3.04v8.95l-.18.18c.18.18-.18.18-.18.18v3.58c0,1.07.54,2.33.54,3.4.18,1.43-.18,3.4-.36,4.48,0,.36-.18.54-.18.72,0,.72.18,1.25.18,1.79,0,.18-.18.18-.18.18,0,.18.18.36.18.36-.18.54.18,1.79.18,2.33,0,.18-.18.18-.18.18-.18,1.43-.18,3.22,0,4.3.18.72,0,1.07.18,1.43l.18.18c.72,2.33,1.07,5.91,1.25,8.6,0,0-.36,0-.36.18s.36.18.36.18c.36,2.15,0,5.37.72,6.8,1.79,3.4,2.51,6.98,4.48,10.03.18.36.18.54.36.9l.54.18c.18,0,0,.36,0,.36.54.72,1.79,1.61,2.51,1.97.54,0,0,.36.18.54h.72c.18,0-.36.54-.18.54.18.18.72,0,.9.18,1.07.54,2.15,1.79,3.4,1.97.72.18,1.43.18,2.15.18l4.3-.18c2.33-3.58,3.22-8.06,4.83-12,.89-2.33,1.07-5.19,1.43-7.7.36-2.33.36-4.66.36-6.8v-11.82c-.18-.9-.18-2.15-.18-3.22,0-1.43,0-2.69.36-3.4.18-.54-.18-.72-.18-.9,0-.54.54-.54.36-1.07-.36-1.25.18-3.58.36-4.66,0-.18-.18-.36-.18-.72,0-.18.18-.18.18-.54v-2.51c0-.18.18-.18.18-.18,0-.18-.18-.18-.18-.18ZM53.18,68.76c0-.36,0-.72-.18-.36,0,.36,0,.72.18.36ZM60.52,92.76c.72,0,.54-.9.18-1.61-.9-.18-.18.9-.18,1.61ZM61.24,70.55c-.18-.54.54-1.43,0-1.61.18.72-.9,1.43,0,1.61ZM61.24,67.51c0-.36-.18-.54-.36-.72,0,.36.18.54.36.72ZM60.34,104.76c.36-.9,1.25-4.66,0-4.3-.9.54-.54,2.51-.9,3.58.36.18.54.54.9.72ZM64.1,21.49c0,.72,1.43,1.25,1.61.9-.54-.18-.54-1.07-1.61-.9ZM72.34,59.81c.36.18.36.72,1.07.54-.18-.72.18-1.79-.72-1.79.18.9-.54.36-.36,1.25ZM7.7,112.63c.36,0,.36.18.72.18-.54.54.18.54.18,1.07s0,.9-.18,1.25c-.54.18-.72-.54-.72.18-.54-.18-.54-2.51,0-2.69ZM117.45,107.44c.36.54.72.9.72.9-.18-.36-.36-.72-.72-.9ZM160.61,48.17c0,.36-.54.36-.54.36.18-.18.36-.36.54-.36ZM163.65,46.38s-.18.18-.18,0c0-.36.36-.72.36-1.07.18.18.36.18.36.36,0,.36-.36.36-.54.72ZM159.53,27.76c0,.54.9.36.9,1.07,0,.18-.18.54-.36.72.54.36,1.07.36,1.61.72,0,.54-.36.9-.54,1.43.18.36.9.18,1.25.36.18.36,0,.9.36,1.07,0,.36.72,0,.72.36,0,.18-.36,1.43-.72,1.43v.36c0,.36.36,0,.36.36s-.18.36-.18.72h.18c.18,0,.36.36.72.36s.54-.36.9-.36c-.18.9-.54,1.25-.54,2.15q0,.36.36.36c.18,0,.36.18.36,0,0,0-.18-.18-.18-.36h.9c0,.18,0,.36.18.36s.18-.18.18-.36c.18.18.36.72.36,1.07s-.18.72-.36,1.07h.36c.36,0,.18-.36.54-.36h.18c-.54,1.07-1.61,1.79-1.97,3.22-.54,0-.72.36-1.07.72,0,0-.18.36-.36.36h-.18c-.18,0,0,.72-.36.72h-.18c0-.54.18-.9.18-1.07s-.18-.72-.54-.72c-.54,0-.54.72-.9.72l-.36-.36q.18-.18.18-.36v-.36c-.18,0-.18.36-.36.36s-.18-.54-.18-.72c0-.54.36-.54.54-.72l-.18-.36c.18-.18.18,0,.54,0h.18c0-.18-.18-.54-.18-.72,0-.36.18-.54.36-.72,0-.18-.18-.36-.18-.36l-.18.36s-.18-.18-.18-.36h-.18c-1.97,0-3.22,1.97-3.94,3.22v.36c0,.36-.9.36-.9.72v.36c-.72.54-.72,1.97-1.43,2.51.18,0,1.43-1.07,1.61-1.43h.36c0,.18-.54.9-.54,1.07.36-.18.72-.72.9-1.07v.72c.54-.18,1.25-1.79,1.79-1.79l.18.36c0,.54-.72.9-1.07,1.07,0,.18.18,0,.36,0h.54s.18-.18.18,0c-.18.54-.72,1.07-.9,1.43-.36.54-.36,1.07-.72,1.43v.72l-.72,1.79h-.18v-.36l.18-.36c-.72.36-.54,1.07-.72,1.43-.36.36-.54,1.07-.9,1.43h.18c.54,0,.54-.72.72-1.07.72-.9,1.79-1.61,2.51-2.51,0,.54-2.51,2.69-2.51,3.22v.36c0,.36-1.07.72-1.07,1.07v.36c0,.18-.54.72-.72,1.07l.18.36c.18,0,.36-1.07.9-1.07h.18c0,.36-.9.72-.9,1.07l.18.36c-.36.36-.54.9-.54,1.43-.36,0-1.97,1.79-1.97,2.15,0,.54-.54,1.07-.9,1.43-.18.18-.18.54-.36.72,0,.18-.9.72-.9,1.07,0,.72-1.25,1.25-1.79,1.79v.36h-.36c-.18,0-7.88,7.7-7.88,7.88v.36c0,.18-.36,0-.36.18-.18.18,0,.54-.18.72-.18.18-.54.18-.72.36-.18.18,0,.36-.18.54-.36.36-.72.36-1.07.72l-1.07,1.61c-.54.54-1.07.9-1.43,1.43-.18.18-.18.36-.36.54-.18.18-.54.36-.72.72-.72.9-1.43,1.79-2.33,2.51l-.72.72c-.36.54-.54,1.07-1.07,1.43,0,.18.54.72.54.9s-.36.36-.36.36c0,.18.18.18.54.54l1.07,1.25c.18.18.54.18.54.54.9.18,1.25,1.07,1.97,1.61.36.36,1.07.72,1.25,1.43.18.36.72.36,1.07.72l-.9-1.07.72.72c.18,0,.18.18.18.36s.18.18.18.36c.18.18.54.36.72.54.18.36,0,1.07.72,1.07.18,0,.36,0,.36-.18s-.54-.54-.72-.54c0-.18.36-.18.36-.18,0,0,.18.18.36.18.72.54.36,1.25.72,1.79.18.36,1.43,1.61,1.43,2.15v.18c0,.18,1.61,1.43,1.79,1.79.18.18.18.36.36.54,0,.18.36,0,.36.18.36.54.54,1.61,1.07,2.51.9,1.43,2.33,2.87,3.22,4.3v.36c.72.54.9,1.07,1.43,1.79.18.18.72.54.72.72v.36c1.25,1.07-1.79-3.22-1.79-3.22.72.9,2.15,1.79,2.15,3.22,0,.36.54,0,.72.36.18.36.18.9.36,1.25,0,.18.36.18.36.18.18.36.18.54.36.72l1.79,3.22c0,.18.36.18.36.36v.36h.36c.18,0,.36.9.36,1.07s.36.18.36.36c.18.36,0,1.25.36,1.43.54.36.72.9,1.07,1.43l.36.18c.18.36-.18.72,0,1.07,0,0,.72.36.72.54v.36c0,.36.72.18.72.54v.36c0,.18.36.18.36.18.18.18.36,1.07.36,1.07,0,.36.54.9.72,1.25.72.9,1.25,1.79,1.79,2.51v.36c0,.36,1.43,1.61,1.43,1.97v.36h.36v.36l.36.18-.36.18.36.18v-.18c.18,0,.36.54.36.72s.36,0,.36.18c1.07,1.43,2.87,3.76,2.87,6.09v2.69c0,1.25-.18,2.51-.72,3.4-.36.36-1.43,2.87-1.43,3.22-.36,0-.54.72-1.07.72-.18,1.61-2.15,1.61-2.87,2.51-2.69.54-4.66,2.69-7.88,2.69-1.25,0-2.69-.36-3.58-.36h-.72c-.36,0-.72-.18-1.07-.36s-.9,0-1.07-.18c-.18,0,0-.54,0-.54-.72-.36-1.25-.9-1.79-1.25-.72-.54-1.07-.54-1.79-1.07v-.36c0-.9-.72-1.25-1.07-1.79-.18-.18-.18-.36-.36-.54-.18-.18-.36-.18-.36-.36-.18-.36-.18-.9-.36-1.25-.18-.18-.72-.36-.72-.9v-.18c-.18-.54-.72-.72-1.07-1.25v-.18c0-1.43-1.43-2.51-1.79-3.76-.18-.54-.18-1.79-.72-2.33l-.36-.18c-.36-.54-.72-1.07-.72-1.61v-.36c0-.9-1.79-2.33-2.15-3.04-.36-.72-1.07-1.97-1.07-2.69v-.36c0-.18-1.25-1.61-1.43-2.15-.18-.18-.9-.18-1.07-.36-.36-1.61-1.25-3.22-2.51-4.12-.18-.18-.18-.54-.36-.72-.18-.18-.36-.36-.36-.72s-1.07-.36-1.07-.9c0-.18-.54-.72-.72-1.07,0-.18-.36,0-.36-.18v-.36c0-.18-.54-.54-.72-.72l-1.43-1.79c-.18-.18-.36-.54-.36-.72v-.18c0-.18-.36-.18-.36-.36v-.36l-1.07-1.43v-.36h-.36s-.36-1.25-1.07-2.33c-.54-.72-1.79-1.43-1.79-2.33,0-.36-.36-.54-.36-.9s0-.72-.18-.9c-.36-.36-.54-.72-.9-1.07v-.18c.36.36.54.72.9,1.07-.18-.36-.54-.72-.9-1.07v-.18l-.36-.36v-.18c.18.18.18.36.36.54,0-.18-.18-.36-.36-.72h-.18c.18,0,.18.18.18.18v-.18h-.18q-.18-.18,0,0c-.54-.9-1.43-2.15-1.79-2.33h-.18c-1.61,0-1.25-6.98-3.4-6.98h-.18v2.69c0,4.3.18,12.53.18,12.53.18.9.36,2.87.54,3.94,0,0-.18,0-.18.18v.18c.36,1.79.18,4.3.36,6.09.18,1.07.36,2.87.36,4.83,0,1.25-.18,2.51-.36,3.4,0,.36.36.72.36,1.25,0,1.25-.54,7.7-.54,10.03,0,1.43.18,3.22.18,4.83,0,1.97-.18,3.58-1.25,4.48-.18-.18-.36-.54-.54-.72l-.18.18c-.18,0-.18-.18-.36-.18v-.36c0-.36,0-.9-.36-.9s-.18.54-.54.54c-.18-.18-.18-.36-.36-.36s-.18.18-.18.18c0,.18.18.18.18.36l-.54,2.51c-1.07-.36-.18-2.51-1.25-2.87-.18.18-.18.36-.18.54v.72c0,.72-.54,1.25-.54,1.97v.18c-.18,0-.36-1.07-.36-1.61v-.18c-.18,0-.9.72-.9.9,0,.36.54.18.54.54q0,.18.18.18v.18c0,.36-.18.72-.36.72s-.18,0-.18-.36c-.18,0-.36.18-.54.18s-.36-.18-.72-.36c-.54.36-.72,1.07-.72,1.61-.54-.18.18-1.25-.72-1.25-.36,0-.54.54-.72.54s-.18,0-.18.18v.72c-.72-.72-1.07-1.43-1.43-2.33-.54.54-.36,1.61-.72,2.33-.54,0-.54-.72-1.07-.72v.36c0,.18.54.36.54.9,0,.36-.18.54-.36.72-.54-.36-.18-1.43-.72-1.79-.36,0,0,.54-.36.72,0,0-.54-.18-.72-.18s-.18,0-.18.18c-.18,0-.36-.36-.54-.36v.36q-.18,0-.18-.18v-.36q0-.18-.18-.18h-.36v-.18c0-.36-.18-.54-.18-.9v-.18h-.18c-.36,0,0,.54-.36.54l-.18-.18c0,.18-.18.18-.18.36,0,.54.36.72.36,1.25-.36,0,0-.54-.36-.54-.18,0-.54.18-.54.36-.18,0-.18-.36-.54-.36h-.18q-.18,0-.18-.18c0-.18.18-.54.36-.54s.18.18.18.36v.18c.18,0,.18-.36.36-.36v-.18c0-.36-.54-.18-.72-.54-.18.18-.36.36-.36.54v1.61h-.36c-.18,0-.36,0-.36.18-.18,0-.36-.18-.36-.18,0-.18.54-.36.54-.54s-.36-.72-.36-.72q.18-.18.18-.36c0-.18,0-.72-.36-.72-.18,0-.36.18-.36.36s.18.54.18.72l-.18.18c-.36-.18-.54-.36-.54-.9v-.36c-.18.18-.18.54-.18,1.07s0,.72.18.9c0,.18-.18.18-.18.18-.18,0-.36-.36-.36-.54-.54.36-.54,1.25-1.25,1.25,0-.18.9-1.07.9-1.61,0-.18-.18-.36-.18-.54-.18,0-.18.18-.18.36v.36c-.18,0-.36.18-.36.36-.36-.36-.18-.72-.54-1.07-.18,0-.36,0-.36.18s.18.18.18.36c0,.54-.54.54-.54.9s.18.36.18.54-.18.18-.36.36c-.36-.36-.36-.54-.36-.9,0-.54.18-.9.18-1.61s-.18-1.61-.18-2.33c0-1.43.18-2.87.18-4.48v-1.25c-.36-4.48-.72-8.42-1.43-12.89,0,0,.18.36.54.9-.36-1.79-.18-3.76-.36-5.91-.18-.9-.18-1.79-.18-2.69v-1.25c0-1.43,0-2.69-.36-3.76,0-.36.18-.36.18-.72v-.18c0-.36-.18-.54-.18-.9v-.18c0-.36.18-.72.18-1.07,0-.54-.36-1.25-.36-1.61v-.18c0-.18.18,0,.18,0-.18-.9-.54-1.97-.54-3.04,0-.36.18-.72.18-1.07,0-.54-.18-1.43-.18-2.15,0-.36.36-1.25.36-1.43,0-.36-.36-.72-.36-1.07,0-.18.36-.54.36-.54,0-.36-.18-.36-.18-.54.18-2.69.54-5.37,1.25-7.7,0-.36-1.07-2.69-1.07-3.04v-.54c0-.36-.18-.72-.18-1.07l.18-.18s.18,0,.18-.18c.18-1.79.18-4.12.18-5.91v-4.48c0-1.07.18-1.79.18-2.69,0-2.69-1.25-5.19-1.25-8.06,0-.9,1.25-2.33,1.25-3.22,0-.54,0-1.07-.18-1.43,0-.18-.54-.18-.54-.36v-.54c0-.36-.36-.54-.36-1.07v-.72h-.18c-.54-2.15-.72-4.66-.72-7.34,0-.9-.54-8.95-.54-9.85,0-1.79-.18-3.58-.18-5.19s1.43-2.15,1.43-3.58c0-.72-1.25-1.43-1.25-2.33,0-.72.36-1.79.72-2.33.18-.36.9-.54.9-.9l-.18-.18c.18-1.25,1.07-2.69,2.51-2.69h.18c.72-.18.36-1.25,1.07-1.25h.18c.18-.54.54-1.07.9-1.43h.36c1.07,0,2.15-.72,2.51-1.43,1.07,0,1.43-.72,2.15-1.25.18.18.36.18.54.18.36,0,.54-.18.9-.54.18,0,.18.36.36.36l.54-.54h.36c.54,0,.54-.18,1.07-.18h.18c.54,0,1.07,6.45,1.61,6.45.36,0,.36-2.33.36-4.12v-1.79c1.43.54,1.79,1.97,3.4,2.33.54.72,1.07,1.25,1.97,1.61,0,.36.54,1.07.72,1.43.18.18.18.54.18.72l.72,1.97c.54,1.61.72,3.22,1.43,5.01v1.07c0,.36.36.54.36.9.18,1.61,0,3.4.18,5.55,0,.36.18.72.18,1.07,0,0-.18,1.07-.18,2.51,0,4.48.36,13.25.36,13.97,0,.36-.18.72-.18,1.25v2.51c0,1.25-.18,2.33-.18,3.58,0,.72,0,1.43.18,2.15.72-.18,1.07-.9,1.61-1.43,1.07-1.07,2.15-2.33,3.4-3.58.18-.18.36-.72.72-.72l.18.18c0-.9.72-1.25,1.25-1.79.9-.72,1.07-1.43,1.79-2.15.36-.54,10.39-9.85,10.74-10.39.18-.18,0-.36.18-.54.18-.18.72-.54,1.07-.9.18-.18,0-.36.18-.54,0-.18.36,0,.36-.18.18-.18,0-.54.18-.72,1.07-1.25,2.51-2.33,3.58-3.76.18-.18.36-.72.54-.9.18-.18.54,0,.54-.18v-.36h.18c1.97-1.61,2.15-1.79,3.94-3.76.18-.18.18-.54.36-.72.18-.18.54-.36.9-.72.9-.9,1.61-2.15,2.69-2.87.36.18.36.72.9.72,1.43-.36,1.43-1.79,3.22-1.79.18,0,1.07-1.43,1.43-1.43h.18c-.36.54-1.43.9-1.43,1.79l.18.36c.54,0,1.61-1.07,1.61-1.43,1.61,0,1.97-1.79,3.22-2.51.18-.36,0-.72.18-1.07,0-.18.54.18.54,0v-.36c0-.36.54-.36.54-.72v-.36l.36.36c.72,0,1.43-1.79,1.97-2.15.36-.18.9-.18.9-.72h.18c0,.18-.72.72-.72,1.07.18,0,1.61-.54,1.61-.72.36,0,.36.36.36.72v.36c0,.18.18.18.36.18h.54c.18,0,.36,0,.36.18v.36ZM158.46,46.38c0,.18-.18.54-.18.72h.18c0-.18.18-.18.18-.36,0,0,0-.36-.18-.36ZM157.21,35.64c-.18.36-.72.54-.72,1.07q0,.18.18.36c0-.54.72-1.07.72-1.43h-.18ZM155.59,38.86c.54,0,1.07-.36,1.25-.72-.18,0-.36-.18-.54-.36-.18.36-.54.72-.72,1.07ZM156.31,34.92c0-.18,0-.72-.18-.72-.54,0-.54.72-.72,1.07h.36c0,.18-.36.54-.36.72h.18c.18-.36.72-.36.72-1.07ZM159.53,37.07h-.18c-.9,0-.9,1.79-1.97,1.79h-.36c0,.18,0,.36-.18.36h-.18v1.07c-.18.18-1.43.9-1.43,1.43l.18.36c0-.36.9-.54,1.07-.72.36-.18.36-.72.54-1.07.36-.36.72-.36,1.07-.72.36-.9,1.43-1.61,1.43-2.51ZM88.45,152.39q.18-.18.18-.36v-.18c-.18,0-.18.36-.18.54ZM150.04,28.83c-.18.18-.18,0,0,0h0ZM150.04,28.83c0,.18,2.15-1.25,3.58-2.51-.36.18-3.04,2.15-3.58,2.51ZM153.62,26.33c.54-.36.9-.72,1.07-1.07-.36.54-.54.9-1.07,1.07ZM154.7,25.25c.18-.18.36-.36.36-.36q-.18.18-.36.36ZM154.7,44.59c.54-.54,1.25-.9,1.79-1.43.18-.18.36-.36.54-.72.72-.9,1.79-1.79,2.51-2.51v-.36c0-.18,0-.36-.18-.36,0,.18-.18,0-.18,0,0,0-.18-.36-.36-.36,0,.54-.18,1.07-.72,1.07h-.18c-.36.9-1.07,1.43-1.97,1.79v.36c0,.54-.36.54-.36,1.07-.18.18-.9.72-.9,1.07v.36ZM154.34,44.95c-.18.18-.36.18-.36.36h.18c0-.18.18-.36.18-.36Z"/>
</svg>