<?xml version="1.0" encoding="UTF-8"?>
<svg id="Layer_1" data-name="Layer 1" xmlns="http://www.w3.org/2000/svg" viewBox="0 0 400 400">
  <path d="M375.26,280.23c-1.27-1.36-2.51-2.75-3.79-4.09-1.32-1.39-2.6-2.82-4.27-3.92-6.44-4.29-13.13-8.08-19.96-11.74-11.6-6.22-23.9-10.72-35.96-15.81-6.34-2.67-13.38-3.37-19.59-6.6-1.5-.78-2.66-1.41-2.72-3.19-.13-3.93-1.59-7.56-2.5-11.32-1.91-7.86-6.83-13.24-13.9-16.56-2.19-1.03-2.99-2.3-3-4.23-.02-2.86.35-5.71.52-8.57.13-2.22,1.48-3.81,3.33-4.38,6.36-1.94,10.47-7.18,14.71-11.38,9.61-9.53,15.99-21.27,18.29-35.04,1.43-8.57.38-16-5.52-22.68-1.45-1.64-3.65-3.6-2.68-6.54.96-2.9,1.13-5.96,1.67-8.95,2.34-13.06,1.94-25.92-2.72-38.41-3.06-8.19-7.74-15.33-15.73-19.56-2.68-1.42-4.52-3.1-5.14-6.05-1.06-5.07-4.02-9.23-7.6-12.53-8.29-7.64-18.4-12.15-29.36-14.53-5.81-1.26-11.76-2.25-17.68-2.54-10.87-.52-21.78-2.45-32.64.36-1.31.34-3.14.66-4.08.03-3.83-2.56-8.24-2.84-12.49-3.6-11.1-1.99-22.16-2.15-32.97,1.74-4.03,1.45-6.5,4.9-9.68,7.45-8.98,7.19-11.81,25.36.32,32.94,3.82,2.39,4.48,4.35,2.01,8.34-3.89,6.3-4.66,13.79-6.69,20.82-2.72,9.44-3.93,19.04-2.37,28.6,1.25,7.65,0,14.4-2.89,21.35-3.13,7.52-5.5,15.37-4.64,23.7.26,2.52-.82,2.75-2.73,2.87-3.31.2-6.62-.04-9.95.57-7.35,1.34-14.4,4.04-21.68,5.29-12.69,2.17-23.96,7.53-34.54,14.26-6.47,4.12-11.97,9.67-17.07,15.6-2.71,3.15-2.91,7.1-5.14,10.21-1.99,2.79-3.58,5.69-5.08,8.62.33,11.2.93,22.4,1.42,33.59.47-3.28,1.08-6.55,1.33-9.85,1-12.89,6.19-23.96,14.07-33.98,1.17-1.49,1.54-3.97,2.98-4.84,5.55-3.33,11.19-6.58,17.27-8.93,8.49-3.28,17.36-2.74,26.2-2.87,9.91-.14,17.64,3.91,23.73,11.54,1.71,2.15.67,3.77-.93,4.95-1.35.99-2.05,3.63-5,1.51-4.57-3.27-9.04-7.01-14.57-8.62-8.65-2.51-17.32-.81-25.93.54-6.76,1.06-12.12,5.1-17.69,8.68-1.22.79-1.52,1.65-1.11,3.1.58,2.06,1.7.57,2.59.6,3.78.12,6.18-2.86,9.33-4.15,6.22-2.55,12.76-2.66,19.4-2.96,8.4-.37,15.26,2.93,22.07,6.92.9.53,2.45.86,2.19,2.18-.26,1.33-1.87,1.58-2.99,1.93-7.93,2.51-15.9,3.18-23.93.29-1.62-.58-3.28-.77-5.21-.46-7.35,1.18-12.28,5.96-17.36,10.67-2.95,2.74-3.93,6.19-3.9,10.06.01,1.68-.14,3.16-1.61,4.47-3.31,2.95-3.54,8.55.02,11.14,4.99,3.64,4.95,7.94,2.95,12.85-1.51,3.71-3.32,7.3-4.88,10.99-.64,1.52-1.33,3.32.04,4.68,1.33,1.32,3.15.8,4.72.24,3.93-1.4,4.92-4.99,6-8.43.77-2.42.74-5.14,2.46-6.99,1.06.94,1.85,2.05,2.93,2.53,4.59,2.04,7.76,4.84,6.24,10.42-.32,1.19,3.04.84.83,2.7-2.94,2.47-5.62,5.25-9.38,6.54-3.08,1.06-5.05,3.37-6.56,6.09-4.1,7.37-5.73,15.6-7.45,23.68-2.84,13.36-4.77,26.91-9.6,39.8-1.26,3.36-1.97,6.93-3.04,10.36-.78,2.48-.12,4.53,2,5.75,2.52,1.45,4.01-.72,5.02-2.39,3.46-5.75,6.68-11.68,7.95-18.37.83-4.38,2.45-8.48,3.85-12.66.95-2.84,2.1-2.1,3.75-.45,3.02,3.01,4.55,6.91,6.72,10.42,7.19,11.6,11.65,24.02,11.61,37.84,0,1.07.25,2.21.65,3.21.71,1.76.6,4.39,3.73,3.93,2.8-.41,3.57-2.47,3.71-4.77.55-9.41-.31-18.67-3.76-27.53-3.4-8.72-7.64-16.95-14.85-23.26-.96-.84-1.46-1.44.06-2.5,6.77-4.72,11.65-11.45,16.14-18.03,3.95-5.79,8.02-11.48,12.12-17.17,2.64-3.66,5.98-5.32,10.4-5.77,6.85-.7,13.74-1.47,20.46-2.91,5.21-1.12,10.18-3.31,15.43-5.08,1.25,7.41-1.06,14.21-2.41,21.01-1.21,6.09,1.36,9.85,7.52,9.41,2.83-.2,4.34-2.26,5.92-4.17,4.34-5.22,8.39-10.7,13.02-15.65,4.56-4.86,5.49-4.45,7.3,1.74.66,2.26,1.32,4.52,2.09,6.74.87,2.5,2.33,4.63,4.06,6.67,1.56,1.84,3.5.92,4.89.61,1.45-.32.88-2.34.51-3.67-1.84-6.5-3.55-13.05-5.63-19.47-.97-2.99-2.48-5.86-5.65-7.33-5.15-2.4-10.25-.57-14.25,5.09-3.11,4.4-6.92,8.28-9.61,13.11-.19-2.53-.29-4.95.49-7.03,2.06-5.53,3.02-11.88,7.25-16.07,5.51-5.46,12.14-9.78,18.05-14.87,3.04-2.62,3.22-.33,3.76,1.67,1.53,5.58,3.11,11.16,4.47,16.78,2.51,10.36,5.76,20.49,9.21,30.57.89,2.59.94,5.53,3.5,7.31,1.98,1.37,1.55,2.58.21,4.4-2.7,3.65-5.28,7.46-7.35,11.49-3.66,7.13-3.53,15.22-5.14,22.88-1.52,7.25.28,14.57,0,21.86-.07,1.74,1.09,3.07,2.7,3.19,1.44.11,3.05-.54,3.64-2.18.42-1.16.72-2.4.84-3.63.66-6.71.93-13.47,1.94-20.12,1.07-7.06,1.83-14.32,5.39-20.72,2.77-4.97,6.75-9.05,10.59-13.25,5.6-6.12,11.2-12.33,15.31-19.61,2.66-4.71,5.62-9.13,8.95-13.41,4.08-5.25,9.45-8.68,14.65-12.55,12.52-9.33,21.24-21.74,26.5-36.34,1.84-5.09,4.71-10.08,4.28-15.87-.09-1.26-.64-2.99,1.33-3.44,1.67-.38,2.6.9,3.25,2.11,4.22,7.87,6.33,16.43,4.82,25.13-1.58,9.08-5.42,17.63-8.59,26.32-3.73,10.25-6.66,20.75-9.21,31.36-.47,1.97,1.15,5.09-1.85,5.76-2.49.55-4.05-2-5.8-3.51-.42-.36-.72-.84-1.1-1.25-3.62-3.96-7.16-7.99-10.88-11.86-4.39-4.57-8.17-4.31-11.99.8-1.41,1.88-2.48,4-3.71,6.01-.73,1.19-.76,2.3.13,3.46.86,1.12,1.82.8,2.97.61,6.32-1.05,9.69.45,12.89,5.94,3.66,6.29,9.06,10.39,15.76,12.88,4.09,1.52,6.32.72,8-3.23,3.94-9.24,6.79-18.91,10.17-28.35,4.53-12.65,8.81-25.47,11.85-38.62.5-2.17.98-2.04,2.64-1.1,4.06,2.31,8.15,4.63,12.41,6.55,10.81,4.89,22,8.96,32.28,14.96,4.03,2.36,8.85,3.46,11.98,7.3,1.1,1.35,1.71,2.2-.62,3.29-6.45,3.01-11.06,8.5-14.82,14.09-5.5,8.17-9.96,16.84-12.1,26.95-3.14,14.85-4.94,29.68-4.55,44.76.12,4.78.81,10.05,6.5,12.82,2.33-13.79,3.12-27.32,5.89-40.55,3.63-17.3,7.88-34.34,18.94-48.82,2.23-2.92,4.99-5.08,7.62-7.45,2.3-2.08,4.27-.49,6.04,1.1.7.63,1.12,1.6,1.86,2.18,7.82,6.22,12.74,14.6,17.59,23.05-1.64-9.82-2.92-19.68-3.43-29.6ZM227.17,26.93c6.84-.98,12.93,2.25,19.47,3-.03.6-.07,1.19-.1,1.79-4.87,0-9.74.05-14.61-.02-1.94-.03-3.75-.74-5.52-1.54-1.04-.47-1.38-1.35-1.38-2.34.02-1.81,1.39-.77,2.14-.88ZM219.04,34.16c-5.06,1.17-17.49-4.63-20.37-9.84,7.71,2.48,13.39,7.21,20.37,9.84ZM194.68,35.4c-7.43-1.75-11.9-7.52-17.71-12.82,8.92,1.05,10.79,10.3,17.71,12.82ZM162.66,23.02c1.34-.86,2.26.42,2.77,1.36,2.46,4.52,6.29,7.78,10.95,11.92-7.21-1.49-11.82-4.46-14.32-10.29-.5-1.16-.35-2.38.59-2.98ZM89.89,177.96c-7.63-.93-15.29-.49-23.01-.88.16-.54.18-.78.25-.79,12.29-2.98,24.62-6.63,36.57,1.08,4.64,3,9.41,5.89,12.66,10.57.47.67,1.2,1.41.6,2.19-.6.78-1.63.39-2.29-.01-1.53-.93-3.1-1.87-4.38-3.1-5.72-5.5-12.54-8.09-20.39-9.05ZM69.14,218.96c5.54,1.94,11.26,1.01,16.9.68,2.72-.16,5.42-.97,8.09-1.66,3.2-.83,6.44-1.55,7.09-5.78.19-1.26,1.23-2.45,3.08-2.86,3.44-.76,5.97-3.24,8.73-5.38,5.6-4.33,8.23-10.12,9.6-16.73.21-1.02.64-2.07-.15-3.18-5.48-7.7-12.17-15.1-22.5-17.81,2.72-1.88,5.3-1.67,7.7-1.35,7.45.99,14.99-.22,22.46,1.8,9.71,2.63,19.81,4.13,28.17,10.14,3.04,2.18,6.82,2.06,9.7,4.4,1.43,1.16,1.59,1.6.46,3.07-3.07,3.96-6.17,7.84-10.84,10.01-5.8,2.7-8.61,8.15-11.51,13.21-2.63,4.6-6.11,8.23-10.03,11.47-10.27,8.49-22.42,12.72-35.28,15.66-10.62,2.43-20.96.74-31.34-.68-3.59-.49-6.94-2.61-9.97-4.84-.9-.66-1.84-1.33-1.81-2.61.1-4.31,7.33-9.02,11.46-7.57ZM142.82,236.82c-1.16,1-3.3,2.59-4.83-.27-.42-.79-1.37-.31-1.45.45-.41,3.98-3.46,3.66-6.17,3.9-.69.06-1.41.09-2.08-.05-6.58-1.33-12.08,1.23-17.67,4.32-6.94,3.83-14.43,5.98-22.55,5.38-2.85-.21-5.04-1.11-6.92-4.02,8.06-2.49,16.3-2.27,23.84-4.88,9.84-3.4,20.31-5.26,28.94-11.76,8.72-6.58,17.61-12.93,22.19-23.39.63-1.44,1.7-2.43,3.51-3.08-2.46,4.34-3.4,9.1-4.54,13.81-.26,1.07-1,2.19-.84,3.18,1.56,9.24-6.27,11.97-11.45,16.42ZM53.45,242.84c-2.71-1.12-2.92-4.21-1.2-9.6,5.34,5.21,12.24,6.47,18.51,9.48-5.78.86-11.58,2.49-17.31.12ZM60.12,253.25c4.52-.42,8.86-.69,13.1-1.79,1.57-.41,3.04.17,3.99,1.61,5.87,8.91,14.37,7.77,22.97,5.87,2.79-.62,5.78-1.05,7.83-3.5.28-.33,1.3-.56,1.4-.42,2.59,3.61,4.7.48,7.1-.32,3.23-1.07,6.57-2.17,9.92-2.43,5.02-.38,9.23-2.52,13.49-4.78.79-.42,1.67-1.11,2.78-.43-.03,1.85-1.56,2.41-2.78,3.18-12.05,7.6-24.93,13.13-39.18,14.7-7.76.85-15.45.73-21.76-5.44-3.34-3.26-8.22-1.73-12.37-2.35-2.83-.42-4.94-1.2-6.49-3.91ZM60.26,314.85c-3.47,3.99-6.73,8.31-11.74,11.03,1.61-10.28,2.58-20.56,5.76-30.41,1.81-5.58,7.11-7.26,11.47-9.96.43-.27,1.27.02,1.6-.28,5.3-4.88,9.48-1.25,14.04,2.03-9.63,7.22-13.5,18.83-21.13,27.6ZM158.23,251.16c-7.12,5-13.32,11.26-20.7,15.95-9.87,6.27-21.03,8.62-32.36,10.87-8.66,1.72-16.44-.72-24.37-2.76-3.22-.83-6.27-3.07-6.91-7.2,7.99,8.28,17.91,5.39,27.22,4.84,12.77-.76,24.27-5.81,35.45-11.7,6.47-3.41,11.16-8.98,15.25-14.45,5.46-7.29,14.11-10.37,19.72-17.22.98-1.2,3.43-1.79,5.02-3.2-4.34,9.62-9.38,18.59-18.31,24.87ZM162.18,222.78c.49-4.1,3.23-5.33,6.52-6.93,2.78-1.36,5.92-2.68,8.38-5.74-1.79,5.5-6.97,9.77-14.9,12.68ZM165.6,205.37c3.79-6.24,7.88-11.8,12.23-17.2,4.25,5.46-2.66,15.54-12.23,17.2ZM263.74,177.61c-1.85-.83-3.98-1.93-5.42.66-1.27,2.27-1.15,4.5.72,6.49.85.9,1.58,1.66,1.09,3.24-2.5,8.12-2.57,16.59-1.1,24.7,2.86,15.82-4.28,27.53-13.83,38.66-6.38,7.44-14.12,13.16-21.98,18.93-6.21,4.56-9.87,11.77-13.91,18.37-4.59,7.5-9.35,14.88-14.77,21.68-6.76-6.54-7.58-14.85-9.21-22.97-1.32-6.56-1.83-13.41-5.89-19.86,2.49.32,3.06,2.01,3.94,3.16,1.13,1.47,2.63,1.85,4.03,1.11,1.57-.82,2.32-2.45,1.43-4.24-1.14-2.29-1.52-4.96-4.1-6.51-1.27-.77-2.5-2.57-1.97-4.19.42-1.28,2.22-.62,3.4-.79,8.44-1.24,16.24-4.24,23.82-8.1,10.27-5.23,18.18-13.19,25.9-21.44,3.41-3.64,4.54-8.47,6.83-12.69.98-1.8-.1-2.96-1.33-3.9-1.46-1.12-2.58-.05-3.58.94-4.83,4.77-9.9,9.25-15.21,13.5-7,5.61-15.01,9.37-23.12,12.94-3.78,1.66-7.69,3.04-11.55,4.53-2.64,1.02-5.35,1.24-8.32.85.71-3.72,3.1-6.58,4.26-9.96,1.36-3.94,2.22-7.85,1.74-12.07-.78-6.92-.05-13.82.61-20.71.1-1,.19-2.1,1.31-2.33,1.04-.22,1.14.9,1.58,1.58.67,1.03,1.48,1.99,2.35,2.86,1.26,1.26,2.99,1.08,4.3.5,1.78-.79.65-2.42.32-3.65-1.22-4.48-3.58-8.52-6.23-12.15-2.95-4.03-2.09-7.89-.8-11.73,1.39-4.14,3.45-8.08,5.39-12.02.66-1.34,1.25-2.69.47-3.91-.94-1.46-2.44-.68-3.77-.32-7.35,1.97-11.06,6.64-11.75,14.65-.11,1.24.75,3.09-1.05,3.59-1.38.39-2.49-.87-3.62-1.71-9.4-7.04-19.53-12.31-31.3-14.42-5.24-.94-10.39-2.32-15.71-3.07-2.14-.3-2.3-3.9-2.01-6.26.95-7.69,2.26-15.31,4.79-22.68,2.27-6.61,3.39-13.3,2.03-20.4-.71-3.72-.28-7.67-.18-11.52.05-1.76,4.68-12.95,5.5-17.49,1.95-10.76,4.6-21.18,10.66-30.43,1.14-1.73,1.25-3.91,2.92-5.43,1.12-1.02-.09-2.31-.58-3.39-.7-1.54-1.93-1.05-3.21-.87-4.27.6-8.43.91-11.23-3.52-1.65-2.62-1.96-4.88.74-6.87,2.39-1.75,6.34-1.29,7.82,1.16,4.84,8,12.66,11.61,20.97,14.43,3.22,1.09,5.97,3.03,9.55,3.66,6.57,1.17,13.11,1.55,19.72,1.72,6.19.16,12.2,1.77,18.54,1.27,8.97-.71,17.73-2.13,25.46-6.64,8.01-4.68,15.69-2.86,23.57-.5,1.35.41,2.87,1.12,3.26,2.92-4.22,2.19-8.97.38-13.29,2.03-3.65,1.39-5.28,3.78-3.46,7.25,3.19,6.08,8.06,10.55,14.59,12.83,6.7,2.34,12.91,5.66,19.14,8.95.86.45,1.68.98,2.49,1.52,1.62,1.09,1.84,3.1,1.56,4.47-.38,1.87-2.53,1.21-3.94,1.08-1.5-.14-3.13-.41-4.41-1.13-7.01-3.9-14.85-6.13-21.55-10.65-1.05-.71-2.14-2.26-3.57-.79-1.35,1.38-.46,2.91.28,4.22.63,1.13,1.55,2.11,2.46,3.32-3.9-.04-4.57-4.19-7.64-5.23-1.92-.65-3.6-1.47-5.31-.15-1.9,1.47-1.16,3.48-.64,5.37,1.85,6.73,6.17,12.16,9.71,18.01-4.26,1.82-4.17,2.78-.38,6.65,1.59,1.62,4.79,1.4,5.17,3.69.45,2.71-3.32,2.36-4.37,4.35-3.22,6.1-5.69,12.44-4.2,19.44,1.31,6.15,8.08,8.21,13.8,5.56,6.51-3.02,10.42-9.66,17.23-11.79,2.82-.88,6.16-.09,9.26-.1,3.95-.01,5.16,2.4,6.22,5.84,2.84,9.19-.79,17.22-4.21,25.15-3.04,7.05-8.5,12.47-13.85,17.94-4.05,4.14-8.18,5.17-13.38,2.82ZM280.68,103.11c-3.76,1.5-13.35-2.95-19.55-9.21,6.57,2.7,13.35,5.06,19.55,9.21Z"/>
  <path d="M90.15,351.31c.38-4.88.92-9.76,1.11-14.65.25-6.52,1.17-12.96,2.03-19.41.15-1.1,0-2.42.99-3.08,1.27-.85,1.72-3.22,3.88-2.44,1.87.67,1.49,2.46,1.54,3.94.49,12.58-.03,25.14-.19,37.71-.11,8.71-.11,17.65,1.91,26.33.52,2.25.54,4.65.53,6.98,0,2.75-1.76,4.46-4.26,4.9-2.51.45-4.23-1.2-5.12-3.39-1.03-2.53-2.17-5.01-2.2-7.92-.1-9.82-2.38-18.94-7.94-27.32-2.46-3.71-3.58-8.34-5.14-12.61-.69-1.9-1.78-3.4-3.25-4.72-.61-.55-1.34-1.18-.86-2.11.44-.86,1.42-.79,2.21-.81,2.22-.06,4.33.58,5.21,2.73,2.3,5.66,6.88,10.01,9.57,15.87Z"/>
  <path d="M362.22,335.97c-.08.53-.06,1.39-.33,2.16-4.87,13.81-12.14,25.91-24.59,34.3-1.17.79-2.39,2.04-3.68,1.09-1.59-1.17-.86-3-.35-4.6,2.67-8.45,7.95-15.37,12.88-22.55,3.38-4.92,6.37-10.06,11.67-13.23,1.03-.62,2.11-1.63,3.43-.85,1.28.76,1.05,2.13.97,3.67Z"/>
  <path d="M86.37,206.68c-.11,1.82-1.21,1.87-2.35,1.85-1.81-.02-2.89-.94-2.76-2.75.1-1.37,1.03-2.22,2.52-2.05,1.9.21,2.15,1.8,2.59,2.94Z"/>
  <path d="M283.93,141.63c-2.27-.99-3.1.04-3.86,1.33-.81,1.36-.76,2.54.29,3.8,5.57,6.68.24,17.31-6.15,20.24-2.41,1.11-4.35.83-5.65-1.56-1.27-2.32-.8-3.98,1.72-5.42,2.75-1.58,5.35-3.64,5.35-7.35,0-1.45.44-2.98-2.33-2.5-3.21.56-4.33-1.77-3.29-4.47,2.39-6.19,7.13-10.56,12.73-13.67,3.03-1.68,6.14.64,8.56,2.69,1.13.96.94,2.94-.31,3.68-2.34,1.39-4.96,2.3-7.06,3.23Z"/>
  <path d="M134.85,190.58c-2.36.08-3.49-.89-3.34-2.96.21-2.92,2.27-4.02,4.81-4.14,2.35-.12,3.65,1.43,3.5,3.66-.22,3.25-3.11,2.9-4.97,3.44Z"/>
  <path d="M131.3,199.82c-.07,2.5-1.17,4.44-3.78,4.38-2.02-.04-3.05-1.77-2.81-3.82.28-2.45,1.64-4.17,4.23-4.13,2.19.03,2.41,1.81,2.36,3.57Z"/>
  <path d="M121.73,168.6c1.88,1.04,5.02.54,5.09,3.84.05,2.17-1.78,2.82-3.47,2.66-2.27-.22-4.36-1.23-4.38-3.98-.01-1.55,1.04-2.46,2.76-2.52Z"/>
  <path d="M115.26,216.29c-.29,1.8-1.12,3.84-3.06,3.69-2.76-.2-1.91-3.2-2.49-4.94-.52-1.55.9-2.64,2.43-2.5,2.02.19,3.06,1.6,3.13,3.75Z"/>
  <path d="M146.93,181.26c-2.21-.63-4-1.99-4.42-4.53-.11-.67-.1-2.18,1.44-1.87,2.32.46,4.66,1.02,4.76,4.07.04,1.1.02,2.28-1.78,2.33Z"/>
</svg>