<?xml version="1.0" encoding="UTF-8"?>
<svg id="Layer_1" data-name="Layer 1" xmlns="http://www.w3.org/2000/svg" viewBox="0 0 400 400">
  <path d="M231.26,322.25c-2.18,2.45-5.18,3.11-8.09,3.95-5.9,1.69-11.31,4.83-17.61,5.41-8.96.82-17.68,3.31-26.66,4.12-8.5.77-16.99,1.28-25.54.94-5.58-.23-11.23.28-16.67-1.34-6.08-1.81-12.32-2.77-18.51-4.02-1.91-.38-3.76-1.01-5.48-1.97-.47-.26-1.04-.47-1.5,0-.58.58.04.92.34,1.33,1.1,1.5,2,3.08,1.96,5.05,0,.38.22.96.51,1.11,7.51,3.82,11.05,12.1,18.29,16.26,1.43.82,2.88,1.44,4.39,2.03,10.67,4.21,21.76,6.89,33.11,8.02,3.72.37,7.74-.28,11.61-.55,1.69-.12,1.92-1.32,1.36-2.57-.88-1.95-.17-3.55,1.3-4.51,1.43-.93,2.8.02,4.03,1.13,1.55,1.39,3.61,1.86,5.58,2.29,12.06,2.66,24.05,2.61,35.91-1.17,1.01-.32,1.01-.31,3.5.72-10.89,9.94-23.58,9.23-37,6.92,1.78,1.88,3.91,2.48,5.79,2.93,9.45,2.28,18.98,2.4,27.51-2.72,4.92-2.95,10.04-5.85,14.2-10.06,1.85-1.87,4.33-3.02,5.76-5.47.79-1.36,2.06-.75,2.03.76-.08,4.31,2.65,6.83,5.6,9.2,2.86,2.3,6.23,4.08,8.87,6.44,7.12,6.39,15.75,10.38,23.35,15.94,2.57,1.88,5.47,3.07,8.51,3.8,1.54.37,1.77,1.2,1.99,2.47.26,1.55-.55,2.22-1.8,2.59-4.87,1.45-9.53.18-13.82-1.81-8.5-3.93-16.95-8.07-23.56-15.03-.98-1.03-1.83-2.73-3.25-.07-.87,1.62-3.81,1.02-4.64-.76-1.37-2.93-3.74-5.26-4.82-8.37-.68-1.96-1.57-.57-2.36-.01-6.26,4.42-12.62,8.64-20.09,10.8-9.26,2.67-18.39,3.66-27.28-1.49-7.83-4.53-16.32-4.55-25-3.29-3.89.57-7.76-.66-11.55-1.38-7.62-1.45-8.01-1.35-8.82,6.12-.25,2.36-.49,4.75-1.52,6.93-.93,1.98-2.8,3.16-4.71,2.83-2.01-.35-2.47-2.51-2.51-4.43-.08-4-.18-8-.13-12,.02-1.97-.85-2.81-2.65-3.46-8.04-2.88-15.87-6.01-22.4-11.95-6.36-5.79-11.99-12.02-15.93-19.7-.59-1.14-1.47-2.13-2.14-3.23-.55-.9-.99-.7-1.8-.22-9.68,5.71-20.2,8.91-31.28,10.49-1.69.24-3.31.96-4.99,1.26-6.96,1.22-13.86,1.53-19.61-3.5-3.68-3.21-5.31-7.8-7.08-12.22-3.38-8.44-5.77-17.1-6.8-26.18-.47-4.18.75-8.09,1.01-12.12.44-6.69.98-13.4,3.69-19.92,1.83-4.41,2.23-9.58,3.45-14.38,2.21-8.67,4.26-17.38,6.53-26.04,1.66-6.33,2.57-12.85,3.65-19.32.33-1.97-.41-4.01-1.76-5.41-3.78-3.92-5.57-9.14-9.1-13.27-3.05-3.56-6.4-7.01-8.59-11.25-2.56-4.95-5.89-9.69-6.36-15.42-.48-5.91,2.13-11.11,4.68-16.27,1.84-3.71,4.26-6.99,6.89-10.14,1.1-1.32.92-1.99-.95-2.13-2.04-.15-4.06-.54-6.09-.84-2.77-.41-3.73-2.06-3.62-4.78.14-3.19,2.32-2.53,4.17-2.42,4.44.26,8.79.77,12.43,3.83,1.86,1.56,3.77.14,4.99-.99,1.58-1.47-.07-1.27-2.76-3.02-.96-.62-14.48-4.09-15.87-4.36-.8-.16-2-.05-2.12-1.09-.13-1.1,1.02-1.55,1.82-2.06,4.32-2.75,16.23,2.74,24.42,4.28,2.08.39,7.06-.5,8.86-1.29.97-.43,2.08-.65,3.14-.72,4.6-.27,5.49.44,7.41,4.62.78,1.7.7,4.19,2.59,4.95,3.73,1.51,7.76,1.91,11.79,1.92.78,0,.93-.74,1.14-1.37,1.83-5.39,7.56-8.74,13.08-7.85,2.01.32,4.11.37,6.15.24,4.26-.28,7.67,1.08,10.06,4.67.76,1.14,1.48,1.59,2.94,1.03,2.11-.81,4.1,1.09,3.75,3.44-.24,1.65-.91,3.44-2.22,4.21-1.8,1.06-1.95,2.62-1.84,4.08.37,4.72-.86,9.19-2.84,13.2-3.58,7.26-2.79,14.08,1.12,20.6,3.73,6.23-1.01,19.77-6.36,23.1-1.83,1.14-3.93,2.04-5.75.72-1.84-1.34-1.29-3.69-.45-5.41,2.02-4.11,1.49-7.62-1.06-11.42-5.99-8.91-6.86-18.58-3.25-28.67.11-.3.25-.61.47-.84,4.35-4.67,4.26-10.42,3.91-16.21-.15-2.45-1.29-4.54-2.83-6.39-.42-.51-1.02-.91-1.71-.72-.87.25-.57,1.07-.53,1.64.24,3.44.18,6.96.91,10.31,1.09,5.02.04,9.61-1.55,14.26-.62,1.8-1.41,2.25-3.34,1.93-5.1-.86-7.81-3.84-8.56-8.8-.18-1.21-.16-2.54-1.97-2.26-4.99.79-9.66-.32-14.21-2.29-.56-.24-1.23-.49-1.97.08,1.13,2.14,2.98,3.54,4.8,5.04,6.5,5.35,8.79,12.65,8.7,20.69-.04,3.41-2.59,5.9-5.39,7.73-1.65,1.08-1.28,1.72-.17,2.96,8.93,10.06,9.08,16.57,5.11,25.97-3.44,8.14-2.94,16.72-1.89,25.23,1,8.03,2.45,16,3.07,24.09.22,2.86.88,5.7,1.45,9.28,3.67-4.21,7.76-7.29,9.03-12.46.6-2.43,2.51-3.52,4.36-4.52,5.56-3.01,10.13-7.27,14.44-11.72,4.02-4.16,7.52-8.83,10.23-14.06,1.33-2.57,3.81-4.36,5.67-6.6,6.02-7.25,13.02-13.3,22.44-15.77,5.01-1.31,10.13-2.08,15.26-2.79,9.63-1.33,19.28-2.68,26.31-10.52-12.49-7.54-21.44-18.33-28.04-31.46-2.7-5.37-4.29-10.97-6.18-16.55-.6-1.77-1.56-2.62-3.73-3.26-5.16-1.54-7.92-5.91-9.61-10.88-1.28-3.78-.85-7.7-.84-11.58,0-1.06.14-2.11-.81-3-2.92-2.75-3.46-6.38-3.38-10.12.06-2.8.4-5.6.71-8.39.11-.95.37-2.03,1.51-2.27,1.3-.26,1.11,1.01,1.52,1.68.95,1.57,1.78,3.26,2.94,4.65,2.95,3.53,6.26,5.49,8.96-.88-3.13.89-5.99.43-7.93-2-2.4-2.99-4.04-6.4-3.19-10.47.38-1.8.64-3.63,1.11-5.41.29-1.09.7-2.52,2.23-2.22,1.28.26,2.36,1.05,2.36,2.68,0,3.37,1.74,5.71,4.55,7.34,2.34,1.36,4.13.75,5.19-1.75.67-1.59,1.13-3.27,1.82-4.85.92-2.11.55-3.89-.84-5.68-5.25-6.72-7.13-14.43-7.47-22.91-.28-7.03,3.3-12.2,6.87-17.29,2.59-3.69,7.69-3.26,11.74-4.42,1.31-.37,2.92-.46,4.18-.05,3.34,1.1,4.69-.71,5.56-3.35,3.27-9.92,11.55-12.94,20.55-14.33,6.13-.95,12.37-1.55,18.67-1.15,9.3.59,17.45,2.94,23.74,10.61,2.74,3.33,6.95,5.43,9.1,9.51.69,1.3,1.87.71,2.85.22,5.61-2.8,11.28-1.8,17.04-.48,5.81,1.33,10.99,4.16,15.78,7.35,5.01,3.33,9.21,7.98,11.04,13.96,2.08,6.79,4.77,13.42,5.57,20.6.28,2.53.43,4.9-.28,7.34-.3,1.01-.45,2.13-.72,3.09-1.91,6.66,3.68,9.46,6.93,13.09,8.26,9.2,12.7,19.23,9.36,31.72-.58,2.19-.6,4.48-1.43,6.65-.57,1.48.57,2.63,1.48,3.71,5.49,6.53,8.55,14.01,7.97,22.58-.42,6.16-2.26,11.92-9.25,13.7-4.22,1.08-4.24,4.56-4.7,7.56-1.23,8.06-6.69,13.84-14.86,15.32-3.16.58-6.1,1.86-9.46,3.54,5.39,1.53,10.33,2.75,15.14,4.34,6.53,2.16,12.76,4.84,18.63,8.69,5.16,3.38,8.55,8.04,12.5,12.42,8.67,9.63,13.31,21.41,17.13,33.33,4.89,15.24,7.54,31.09,9.82,46.96.47,3.3-1.18,4.88-3.69,6-1.79.8-1.81,1.67-1.4,3.5.84,3.78,1.24,7.69,1.54,11.57.67,8.72.46,17.48.72,26.21.14,4.72-2.8,8.63-2.67,13.26.04,1.28-.23,2.57-.45,3.84-.19,1.06-.43,2.28-1.86,2.26-1.29-.01-1.95-1.03-2.15-2.11-.5-2.76-1.12-5.54-1.2-8.32-.29-10.28.13-20.58-.81-30.85-.3-3.25-1.05-6.41-1.31-9.65-.12-1.5-.87-1.4-1.99-1.02-6.63,2.25-13.17,4.83-19.94,6.56-5.79,1.48-11.76,2.52-17.88,1.86-4.01-.43-4.21-.05-3.93,4.07.12,1.71.39,3.42.52,5.13.49,6.43.41,5.89,7.49,8.35,6.89,2.39,14.03,4.48,20.09,8.88,1.48,1.07,3.17,1.88,4.53,3.08,1.45,1.28,2.27,3.09,1.1,4.94-1.29,2.03-2.73.46-4.2-.08-8.69-3.16-17.08-7-26.37-8.7-12.61-2.31-24.46-7-36.06-12.78-7.95-3.96-11.7-9.91-14.65-17.41-2.7-6.87-6.84-13.02-12.19-18.01-5.21-4.86-12.2-5.28-18.97-4.78-4.17.31-8.3,1.45-12.39,2.43-1.08.26-3.46.14-2.98,1.56.56,1.64,1.31,4.11,3.95,4.11,4.34,0,8.73.32,13-.23,7.71-.99,13.59,5.65,11.12,14.05-1,3.4-2.91,6.12-5.1,8.89-8.53,10.76-20.58,14.05-33.22,16.2-1.34.23-2.87-.49-4.16-.16-1.26.33-2.49.29-3.92.27.22,1.79,1.65,1.72,2.61,2.03,7.9,2.52,15.95,1.64,23.68-.21,4.05-.97,9.01-1.11,11.89-5.31.27-.4,1.19-1.25,1.92-.41.74.86.99,1.9.33,3-1.7,2.83-3.82,4.97-7.01,6.39-10.82,4.79-21.7,6.29-32.98,1.81-3.51-1.39-6.26-3.33-7.07-7.4-.52-2.61.46-4.65,3.08-5.39,4.82-1.37,9.87-1.33,14.71-2.47,4.72-1.11,9.48-2.13,14.09-3.62,6.82-2.2,10.42-7.82,13.64-13.78ZM217.59,31.26c5.97,2.81,8.86,8.87,13.68,12.91,1.92,1.61,4.54,3.26,3.81,6.63-.06.26.4.78.74.94,1.28.63,2.27,1.57,1.82,3-.54,1.71-2.01,2.54-3.81,2.48-4.04-.13-8.02.31-11.85,1.51-6.62,2.08-13.15,1.57-19.76-.08-2.08-.52-3.5-2.1-5.54-2.61-3.88-.98-6.66-3.94-9.3-6.5-4.26-4.12-3.91-4.49-7.29.06-.13.17-.33.29-.45.47-2.84,4.21-5.76,8.39-6.92,13.45-.27,1.18-1.42,2.54-.24,3.64,1.18,1.1,2.42-.13,3.62-.47.51-.15,1.02-.44,1.53-.42,3.5.12,10.11,5.05,11.18,8.42.38,1.21.83,2.8-.39,3.61-1.28.86-3.07.92-4.15-.47-3.06-3.92-7.34-3.58-11.57-3.62-2.03-.02-3,.81-3.66,2.83-1.94,5.93-1.55,12-1.4,18.04.09,3.6-.71,6.97-2.71,9.83-2.21,3.16-3.06,6.62-3.13,10.29-.12,6.51.4,12.83,2.47,19.22,2.16,6.66,3.84,13.44,7.05,19.74,1.33,2.6,3.21,4.8,4.63,7.33,7.02,12.48,15.37,17.91,28.74,17.31,9.72-.43,18.21-4.12,25.36-10.89,2.6-2.46,5.17-4.93,7.6-7.55.82-.88,1.65-1,2.58-.37,1.02.69,1.02,1.69.33,2.53-.74.9-.92,1.89-1.1,2.98-.55,3.2-2.11,5.66-5.39,6.66-.66.2-1.07.32-1.32,1.11-1.34,4.23-5.16,6.41-8.51,8.22-6.39,3.46-13.57,4.9-20.92,4.63-2.31-.09-2.21.43-1.95,2.5,1.08,8.73,5.72,17.68-1.07,26.14-.55.68-.51,2.25-1.71,1.77-1.13-.45-2.36-1.26-2.11-3.07.77-5.51.02-10.97-.66-16.44-.41-3.32-1.05-3.72-3.95-1.78-3.15,2.1-6.08,4.57-9.34,6.46-1.95,1.13-3.1,2.56-3.78,4.55-.91,2.65-1.85,5.3-2.73,7.96-2.48,7.52.26,16.9,6.29,22.04,7.29,6.2,16.21,7.08,25.16,7.78,4.25.34,8.36-.91,12.53-1.48,15.85-2.13,28.33-9.65,37.52-22.81,1.41-2.02,2.53-4.22,4.12-6.12,3.48-4.16,5.92-8.88,7.4-14.08.61-2.12.24-3.7-2.35-4.32-1.98-.47-3.88-1.39-5.39-2.88-4.97-4.91-8.61-10.69-11.09-17.19-1.92-5.02-.99-10.3-1.23-15.46-.26-5.54.04-10.99,2.98-16.03,1.04-1.79,1.98-3.88,1.74-6.16-.17-1.61.89-1.7,2.06-1.76,1.36-.07,2.54.5,3.75.97,3.64,1.41,7.19.7,10.21-1.24,6.46-4.14,9.89-10.68,12.51-17.63.57-1.51,1.11-4.19-.38-4.7-1.65-.56-3.74,1.24-4.43,3.03-1.75,4.51-5.57,6.77-9.26,9.18-2.55,1.67-4.09.85-4.25-2.2-.15-2.91-.07-5.83,0-8.74.03-1.35-.39-2.01-1.71-2.63-4.26-2.01-6.02-6.34-8.54-9.92-.64-.9-.62-2.59-.31-3.76.47-1.75,1.53-3,3.35-.97,4.52,5.05,10.37,6.11,16.77,5.6,4.11-.33,4.69.45,3.46,4.51.63-.17,1.25-.29,1.83-.49,1.74-.6,3.46-2.02,5.01-2.08,2.37-.08.83,3.41,2.65,4.44.34.19.56.66.75,1.05.78,1.63,1.97,3.01,2.12,5.01.53,6.83-2.04,12.57-5.73,18.03-2.92,4.31-7.46,6.87-10.99,10.52-1.25,1.29-2.94,2.37-2.75,4.51.43,4.8,1.71,9,6.58,11.39,2.2,1.08,3.98,1.18,5.59-.47,3.58-3.67,6.87-7.55,7.04-13.08.02-.65-.05-1.39.65-1.7.93-.41,1.41.42,1.84.95,2.14,2.65,2.6,5.68,1.51,8.83-.36,1.02-.55,2.54-.07,2.69,1.97.63,1.62,2.46,2.3,4.35.5-1.87.92-3.08,1.14-4.33.19-1.11.63-1.85,1.81-1.91,1.2-.06,1.62.77,2.03,1.74,1.2,2.9,1.13,5.63-.66,8.31-.65.98-1.75,1.82-1.76,3.39,3.43-1.93,7.52-9.9,6.56-13.12-.88-2.91-1.44-6.29-5.27-7.14-.71-.16-.85-.83-1.04-1.49-.76-2.62.35-4.59,2.01-6.47,4.18-4.72,6.72-10.19,7.8-16.43,1.28-7.47.15-14.06-5.37-19.79-2.99-3.11-6.07-6.15-8.96-9.36-2.61-2.9-3.73-6.14-2.47-10.1,2.5-7.87,3.13-15.91.64-23.86-1.79-5.73-5.31-10.65-9.17-15.15-2.13-2.48-4.93-4.7-7.86-6.13-8.31-4.03-17.09-3.19-25.84-1.54-.67.13-1.25.37-1.56,1.01-.6,1.23-1.22,2.32-2.95,1.66-1.58-.61-2.09-1.75-1.99-3.32.15-2.14-.32-4.25-1.92-5.6-1.75-1.48-3.3-3.12-4.91-4.71-7.1-7.02-15.93-8.63-25.47-8.57-4.97.03-9.55,1.42-14.22,2.73-5.5,1.54-9.39,8.28-8.48,13.91.54,3.35,2.91,5.24,4.72,7.55,3.65,4.67,8.46,7.94,13.97,10.13.68.27,1.53.74,1.9-.32.25-.75-.43-1.18-1.04-1.41-4.77-1.8-6.83-5.95-8.94-10.1-.51-1.01-1.23-2.41-.31-2.89.94-.48,2.46-1.31,3.74.14,2.17,2.45,5.36,3.66,7.71,5.87,5.4,5.09,12.12,6.04,19.25,6.8-.29-.61-.42-.9-.57-1.18-2.03-3.83-7.5-5.35-7.25-10.78.02-.42-1.14-.87-1.73-1.34-3.98-3.18-8.91-4.3-13.42-6.35-2.22-1.01-3.9-1.84-6.24-.38-1.87,1.16-3.8-.14-4.16-2.43-.39-2.45,1.52-5.32,4.17-5.79,2.98-.53,6.02-.66,8.95.52,1.57.63,3.34,2.16,4.19-.93.17-.63,1.17-.44,1.79-.33,3.94.67,7.84,1.49,11.25,3.76,2.43,1.61,4.76,3.39,7.33,4.73,2.88,1.49,4.02,3.86,4.82,6.8.58,2.14-1.05,2.97-1.95,4.08-.81,1-2.26.06-3.2-.43-1.42-.75-2.64-1.88-3.92-2.87-3.33-2.57-6.57-5.28-10.83-6.5ZM168.25,204.18c-5.25,2.34-9.88,3.65-14.81,3.52-1.66-.04-2.77,1.07-3.98,1.98-2.5,1.87-4.91,3.88-7.54,5.54-4,2.51-7.97,4.84-11.15,8.57-4.77,5.61-9.27,11.42-13.92,17.12-.82,1.01-1.31,1.69.41,2.3,1.75.62,2.75,1.76,1.49,3.73-1.12,1.77-2.65,3-4.52,1.49-2.71-2.18-4.68-1.7-6.52.94-.18.26-.44.49-.68.7-2.68,2.29-2.81,3.69.56,4.71,5.17,1.56,7.21,5.93,10.27,9.43,3,3.42,5.6,7.1,7.64,11.22,1.46,2.95,2.16,2.88,4.02.22,1.17-1.68,2.16-3.48,3.21-5.24,3.75-6.26,6.05-13.1,7.39-20.2,1.29-6.85,2.98-13.71,2.13-20.81-.04-.3.1-.64.21-.95.3-.85.75-1.67,1.71-1.77.97-.1,1.35.74,1.93,1.41,3.24,3.72,2.11,7.95,1.57,12.1-.57,4.41-1.64,8.9-.73,13.23.77,3.66.21,6.8-1.05,10.06-3.47,9.04-9.74,16.55-13.92,25.2-.22.45-.69.99-1.14,1.09-2.89.64-2.95,2.85-3.2,5.51,10.6-2.97,21.13-3.85,31.84-4.32,13.82-.6,27.38.64,40.95,2.68,2.21.33,4.57-.54,6.64.94,2,1.43,4.18,1.63,6.46.64,6.99-3.05,14.22-3.43,21.5-1.51,5.78,1.53,11.9,2.3,16.84,6.33.25-2.35,1.48-3.31,3.75-2.43,1.83.7,3.3,2.17,1.95,3.93-1.53,1.99-.54,3.22.47,4.54,4.21,5.54,7.18,11.72,9.95,18.08,1.25,2.85,3,5.57,6.32,7.23,3.4,1.7,7.07,2.52,10.47,4.21,3.11,1.55,6.4,3.18,10.28,3.64-.79-3.55-2.35-6.54-2.59-10.02-.14-2.04-1.71-5.02-4.93-4.59-2.79.38-4.21-.89-4.73-3.25-.55-2.47,1.1-3.96,3.24-4.45,1.82-.41,1.99-1.35,1.7-2.77-.23-1.17-.53-2.32-.82-3.48-1.48-5.92-3.23-11.76-4.56-17.73-.98-4.42.03-8.87-.9-13.22-.92-4.28-.51-8.38,1.7-12.21.61-1.05.86-2.69,2.65-2.31,1.83.39,1.88,2.11,1.73,3.35-1.05,8.55,2.86,16.24,4.46,24.27,1.37,6.9,2.94,13.95,5.95,20.55,2.09,4.57,1.63,4.72,6.81,4.72,1.77,0,3.42-.5,5.13-.75,5.76-.87,11.69-1.18,17.23-2.82,7.53-2.24,14.74-5.54,22.1-8.34,1.2-.46,1.74-1.1,1.47-2.44-.58-2.94-.95-5.94-1.62-8.86-1.81-7.85-6.09-15.05-6.21-23.36,0-.56-.11-1.55-1.1-1.72-1.24,2.11-2.99,3.03-4.64,2.27-1.7-.78-2.17-2.27-2.02-4.05.19-2.2,1.46-3.13,3.51-2.79,2.06.34,1.83-.84,1.65-2.09-.53-3.67-1.94-7.08-3.28-10.48-1.04-2.64-1.97-5.4-5.38-6.42-1.13-.34-4.16-1.83-1.25-4.26.64-.53.35-1.51.05-2.16-2.89-6.28-5.67-12.62-10.93-17.43-.91-.83-1.49-.66-2.53-.25-3.5,1.38-6.27,3.57-8.72,6.42-4.65,5.42-8.95,10.98-11.84,17.64-1.6,3.69-2.39,7.6-3.94,11.26-.47,1.11-1.01,2.72-2.65,2.32-1.63-.4-.93-2.04-.88-3.06.28-5.89,1.71-11.54,4.36-16.8,3.91-7.8,8.82-14.9,15.98-20.06,2.38-1.72,1.77-2.49-.21-3.52-5.18-2.7-10.44-5.18-15.92-7.26-2.33-.88-4.36-.22-5.1,1.23-1.54,3-4.1,4.13-6.79,5.44-.74.36-1.49,1.39-2.18.9-.86-.61-.47-1.83-.04-2.7,1.62-3.26,1.57-6.92,2.48-10.35.44-1.65-.8-2.72-2.54-3.14-1.37-.33-2.61-.21-2.84,1.24-.48,3.01-2.37,5.29-3.63,7.89-6.28,13.01-13.55,24.97-26.14,33.34-9.7,6.45-20.39,8.69-31.33,10.39-7.23,1.12-14.7.93-21.87-1.22-6.5-1.95-13.12-3.67-18.01-8.99-4.52-4.93-7.71-10.54-9.79-16.88-1.58-4.78-1.96-9.41.22-14.14,1.02-2.22,1.59-4.65,2.67-7.91ZM60.95,147.3c-2.96-4.77-3.19-4.96-7.37-2.15-4.52,3.03-8.34,6.89-11.81,11.08-1.43,1.74-2.72,3.6-4.15,5.34-.65.79-1.6,1.27-2.6.67-1.23-.74.02-1.45.15-2.19.58-3.28,2.66-5.86,4.09-8.73,1.15-2.3,2.51-4.62,4.67-6.15,5.99-4.25,12.04-8.42,18.14-12.51,1.66-1.11,2-2.3,1.4-4.1-.67-2-1.96-2.69-3.96-2.35-2.33.4-4.2,1.64-5.94,3.16-1.46,1.28-2.79,2.82-4.46,3.7-8.69,4.57-13.71,12.35-18.01,20.64-1.33,2.57-3.53,5.52-2.36,8.45,1.1,2.74,2,5.63,3.58,8.21,5.64,9.18,12.34,17.65,18.02,26.78,2.83,4.54,7.44,8.37,4.14,15.53-3.04,6.6-3.17,14.46-4.47,21.73-1.98,11.08-5.29,21.88-6.67,33.05-.85,6.84-3.89,13.17-4.05,20.23-.18,7.83-1.15,15.58.52,23.44.91,4.29,2.5,8.41,2.86,12.88.39,4.91,6.24,10.64,12.04,10.1,5.92-.56,11.61-1.74,17.39-3.06,8.22-1.88,15.83-4.99,23.23-8.82,1.16-.6,2.38-1.39,1.87-3.01-1.55-4.86,1.3-8.03,4.28-11.07,4.35-4.42,9.89-6.82,15.57-8.97.65-.25,1.83.08,1.63-1.44-.48-3.57.91-6.77,2.35-9.92.64-1.38.5-2.36-.44-3.79-1.49-2.26-3.88-3.64-5.13-6.13-3.29-6.55-7.77-12.16-13.58-16.74-2.14-1.69-3.63-1.87-5.48.22-3.58,4.05-7.35,7.93-11.61,11.29-.9.72-1.11,1.62-.94,2.6,1.13,6.63.95,13.19-.16,19.85-1.1,6.58-3.4,12.42-7.85,17.38-.49.54-.98,1.32-1.88.96-.91-.37-1.17-1.2-1.15-2.14.02-.98.19-1.9.53-2.84.84-2.33,1.95-4.67,2.21-7.08,1.02-9.5.62-19-.35-28.49-.24-2.36-.21-4.78-.7-7.09-1.28-6.11-2.85-12.14-3.44-18.4-.49-5.16-.99-10.33-1.49-15.49-.78-7.91-.93-15.63,1.35-23.39.58-1.99,2.1-3.35,2.34-5.54.94-8.5-1.18-16.01-6.4-22.74-3.15-4.06-2.79-6.25.03-11.22.55-.97,1.1-1.63,2.26-1.27,1.11.34,1.95.97,2.01,2.25.03.73,0,1.46,0,2.24,1.75-.8,4.34-3.96,4.45-5.59.13-1.8-1.58-2.07-2.65-2.86-.34-.25-.87-.52-.94-.85-.65-3.5-2.53-2.35-4.41-1.21-.55.33-1.08.71-1.65,1-3.97,2.02-6.68,5.78-10.65,7.96-1.53-2.87-.32-5.08,1.15-7.26,2.25-3.32,5.16-5.78,8.91-7.29.94-.38,2.86-.78,2.34-1.97-.64-1.45-2.15-2.78-4.19-2.38-.73.14-1.42.5-2.12.79-4.61,1.89-8.19,5.05-11.33,8.86-1.25,1.52-3.04,3.99-4.96,2.35-1.88-1.6-.25-4.13,1.23-5.71,4.18-4.48,8.13-9.34,14.6-10.79ZM228.49,315.91c-3.25,0-5.8.08-8.34-.02-2.69-.11-5.45-.09-8.06-.67-5.08-1.11-10.89-5.38-8.32-11.3.64-1.48.25-2.08-1.6-2.45-8.93-1.79-18.03-1.6-27.02-2.15-9.12-.56-18.33.23-27.5.81-13.12.84-25.42,4.26-36.97,10.51-1.61.87-3.49,2.03-3.31,3.64.21,2,1.49,4.05,3.62,4.98,2.15.95,4.4,1.68,6.58,2.58,6.63,2.71,13.59,4.05,20.6,5.32,4.3.78,8.66-.05,12.88.8,6.89,1.38,13.61,2.4,20.81,1.38,10.77-1.52,21.67-2.29,32.31-4.6,8.19-1.77,17.04-2,24.31-8.84ZM107.65,190.63c2.69-1.29,2.96-2.9,2.88-4.65-.27-5.99-1.72-11.68-4.57-16.98-.39-.73-1.38-1.02-1.36-2.09.09-4.54.39-8.94,2.35-13.24,2.9-6.35,5.72-12.8,3.58-20.16-.69-2.39-3-4.36-5.81-4.03,2.82,5.81,4.15,11.78,2,18.12-.9,2.65-1.89,5.29-2.57,8.01-2.09,8.3-2.3,16.44,2.22,24.17,1.84,3.16,3.93,6.36,1.27,10.85ZM159.53,62.91c.86-.4.37-1.1.38-1.69.21-8.69,2.24-12.5,9.33-15.45,1.69-.7,3.41-1.33,5.11-2.01.5-.2,1.52.12,1.24-.96-.18-.7-.86-.87-1.53-.97-2.52-.4-4.76.78-7.05,1.39-7.88,2.1-11.82,12.68-7.48,19.68ZM93.73,135.41c.06-.66.23-1.12.12-1.51-.28-1.08.31-2.64-1.17-3.08-1.11-.33-2.03.54-2.79,1.33-1.05,1.08-.72,1.98.15,3.1.88,1.14.8,2.65.67,4.06-.28,2.89-.66,5.77-.87,8.67-.08,1.11-.27,2.57,1.55,2.62,1.79.05,1.82-1.48,1.76-2.53-.28-4.33,1.51-8.55.59-12.65ZM310.24,164.99c2.09-1.73,1.57-3.32,2.16-4.56,1.94-4.09,1.52-8.08-.82-11.92-.71-1.17-1.74-1.96-3.05-2.21-.98-.19-1.93.36-2.65.96-.47.39.05,1.05.36,1.41,3.88,4.49,5.57,9.61,4,16.31ZM81.93,142.32c1.62.21,2.56.15,2.74-1.2.16-1.18-.59-1.41-1.52-1.63-5.01-1.18-10.23-1.4-15.11-3.25-1.55-.59-2.9.5-3.17,1.5-.39,1.44,1.42,1.47,2.4,1.82,4.92,1.76,10.33.94,14.66,2.76ZM288.22,168.11c-4.28,2.83-8.59,5.16-13.93,5.54-5.61.41-9.53-2.18-12.92-6.28,1.54,5.45,6.18,7.64,10.59,8.21,6.51.84,12-2.53,16.25-7.48ZM267.49,162.17c2.1,3.38,4.64,2.58,7.05,2.23-2.13-.67-4.26-1.34-7.05-2.23ZM300.56,182.12c2.9-.63,3.45-3.03,4.02-5.4-1.34,1.8-2.68,3.6-4.02,5.4Z"/>
  <path d="M150.85,342.94c-2.04,2.25-4.73,2.97-7.33,2.61-5.69-.78-11.6-1.03-16.52-4.66-.49-.36-1.2-.43-1.8-.66-1-.38-2.59-.35-1.94-2.1.56-1.51,1.69-2.9,3.42-1.95,5.6,3.08,11.77,3.59,17.9,4.5,2.1.31,4.07,1.44,6.28,2.25Z"/>
  <path d="M152.73,353.63c-4.93-.68-9.54-.83-13.96-2.16-1.44-.43-3.27-1.3-2.8-2.97.56-1.98,2.42-1.36,4.09-.99,4.29.95,8.63,1.65,12.95,2.45,1,.19,2.49.04,2.32,1.52-.18,1.49-1.16,2.57-2.6,2.15Z"/>
  <path d="M237.19,382.99c-.37-2.35.9-3.74,2.91-4.34,1.23-.36,5.04,3.13,5.15,4.38.13,1.64-2.75,5.04-4.43,4.99-3.26-.11-3.52-2.55-3.62-5.03Z"/>
  <path d="M166.84,376.13c2.97.09,5.3,2.04,5.06,4.37-.23,2.23-2.01,2.72-3.77,2.76-2.41.06-4.58-2.36-4.41-4.71.14-1.93,1.37-2.53,3.12-2.42Z"/>
  <path d="M267.88,387.12c-.01,1.61-2.29,4.4-3.92,4.21-2.19-.25-3.8-1.82-3.62-3.83.18-2.03,1.19-4.18,4.08-4.07,2.24.09,3.37,1.16,3.46,3.69Z"/>
  <path d="M193.27,382.32c-.1,2.19-1.18,3.4-3.44,3.4-2.02,0-3.88-2.16-3.63-4.5.21-2,1.37-3.48,3.51-3.57,1.84-.07,3.59,2.39,3.56,4.67Z"/>
  <path d="M212.85,386.74c-.23-1.69.73-2.89,2.33-3.21,2.25-.44,4.93,1.88,4.97,4.01.04,2.19-1.68,2.67-3.23,2.9-2.22.32-4-1.4-4.08-3.69Z"/>
  <path d="M257.4,85.55c5.21,4.04,10.79,5.74,17.17,3.55.92-.32,1.88-1.33,2.81.13.73,1.15.27,1.89-.4,2.89-3.03,4.57-9.22,6.55-14.26,4.28-2.55-1.15-5.1-2.41-7.42-3.96-2.72-1.82-4.75-4.22-3.51-7.9.45-1.35-.23-2.02-1.25-2.61-.65-.37-1.3-.75-1.91-1.18-8.64-6.01-10.75-14.39-9.38-24.37.44-3.24,1.44-6.55.69-9.92-.32-1.41-.51-3.38.8-3.76,1.57-.45,3.05,1.03,3.71,2.57,1.19,2.8,1.56,5.82,1.66,8.84.1,3.03-.08,6.06.02,9.09.21,6.87,4.8,10.51,10.31,13.12,4.21,2,8.67,3.46,13.45,1.55,1.57-.63,3.07-.42,3.72,1.41.7,1.95-.5,3.21-2.04,3.86-4.5,1.87-8.9,4.55-14.17,2.4Z"/>
  <path d="M293.02,115.56c-.07-2.26-.15-4.51-.82-6.72-.24-.8-.42-1.81.3-2.46.9-.81,1.85-.16,2.7.28,2.63,1.35,3.68,3.74,4.45,6.44,1.91,6.75,3.22,13.52-.47,20.05-1.92,3.41-3.98,6.53-8.13,8.27-3.46,1.45-6.02,4.88-6.19,9.15-.1,2.39-.92,2.7-2.71,1.33-.51-.39-1.01-.81-1.56-1.13-3.01-1.76-2.87-2.34-1.13-5.23,4.36-7.27,9.82-13.96,12.18-22.33.7-2.51,1.45-5,1.38-7.65Z"/>
  <path d="M289.11,72.91c-.03,4.29-1.75,8.47-3.72,12.55-.43.89-1.25,2.41-2.65,1.7-1.19-.6-.88-2-.8-3.23.46-7.04.94-13.88-2.2-20.78-2.68-5.87-6.44-10.63-10.65-15.26-.73-.8-1.47-1.59-2.2-2.39-.73-.8-.97-1.87-.42-2.69.58-.88,1.52-.25,2.33.04,6.37,2.3,10.9,6.96,14.97,12.04,4.09,5.11,4.84,11.38,5.35,18.03Z"/>
  <path d="M252.75,46.51c0-1.41,1-1.85,2.91-1.08,8.92,3.59,14.36,10.33,17.48,19.19.26.74.47,1.54-.15,2.13-.65.63-1.45.11-2.14-.06-1.53-.38-2.69-1.42-3.69-2.53-4.17-4.62-8.2-9.36-12.89-13.5-.98-.87-1.59-2.01-1.52-4.16Z"/>
  <path d="M265.07,76.14c-7-.06-11.04-3.76-14.47-8.12-1.2-1.52-1.47-4.4,0-5.73,1.23-1.11,2.73,1.13,3.84,2.07,3.88,3.28,7.59,6.74,12.8,7.86,1.12.24,1.91,1.08,1.79,2.36-.11,1.19-1.17,1.02-1.97,1.27-.97.31-1.91.29-2.01.27Z"/>
  <path d="M328.19,284.43c-.07,3.65-1.43,5.54-3.97,5.52-2.32-.02-4.63-2.03-4.64-4.05-.02-2.48,2.17-5.48,4.02-5.5,2.5-.04,4.63,1.84,4.59,4.03Z"/>
  <path d="M300.99,274.59c-.08-3.4,1.37-5.43,3.62-5.42,1.74,0,4.48,3.1,4.56,5.15.1,2.39-1.87,4.45-4.5,4.35-2.69-.11-4.15-1.55-3.68-4.08Z"/>
  <path d="M312.34,302.14c-.31,1.74-.42,3.62-3.16,3.35-3.08-.31-4.82-1.95-4.67-4.97.11-2.23,1.29-3.97,3.45-4.5,1.58-.39,4.46,3.8,4.39,6.12Z"/>
  <path d="M172.38,280.46c-1.83-.5-3.43-1.54-3.31-4.09.1-2.13,2.54-3.56,5.7-3.53,2.9.03,2.82,2.39,2.97,4.1.21,2.39-1.94,3.73-5.36,3.52Z"/>
  <path d="M322.12,264.13c-2.34-.09-4.08-1.4-4-3.88.06-1.96.88-4.09,3.44-4.35,2.2-.22,4.23,2.35,4.15,5.19-.06,2.19-1.47,2.93-3.59,3.04Z"/>
  <path d="M250.74,257.4c.12,1.62-.56,2.92-2.88,2.85-2.47-.07-4.03-1.93-3.98-4.87.03-2,.88-3.28,3.06-3.32,2.41-.05,3.82,1.76,3.8,5.34Z"/>
  <path d="M253.78,277.47c-2.01.39-2.55-1.3-2.65-3.32-.11-2.24,1.96-4.18,4.36-4.16,2.6.02,2.86,2.46,2.96,3.88.16,2.3-1.71,3.46-4.66,3.6Z"/>
  <path d="M187.28,267.68c-1.52-.51-2.95-1.55-3.04-3.66-.06-1.45,3.1-3.98,4.71-3.75,1.74.25,3.04,1.19,3.09,3.15.06,2.25-2.17,4.37-4.76,4.26Z"/>
  <path d="M235.07,269.36c.15,2.93-2.19,3.18-3.99,3.23-2.69.07-3.27-2.46-3.42-4.39-.17-2.17,1.73-2.68,3.64-2.7,2.65-.03,3.59,1.54,3.76,3.86Z"/>
  <path d="M194.57,275.72c2.72.11,4.3,1.95,3.97,4.73-.17,1.4-.78,2.59-2.72,2.39-2.32-.23-4.62-2.16-4.35-4.2.23-1.78.88-3.42,3.11-2.92Z"/>
  <path d="M166.32,257.47c.06-1.46,1.1-3.07,3.34-3.22,2.41-.16,2.84,1.78,3.06,3.7.33,2.85-1.76,3.52-3.78,3.78-2.54.33-2.47-1.77-2.63-4.26Z"/>
  <path d="M154.36,265.44c1.94.5,3.93,1.06,3.85,3.56-.08,2.56-2.1,3.51-4.2,3.69-1.88.16-3-1.11-2.86-3.1.15-2.04.65-3.89,3.21-4.15Z"/>
  <path d="M274.93,261.87c0,2.46-1.36,3.68-3.6,3.8-2.53.13-2.83-2.28-3.53-3.85-.49-1.09,2.92-3.91,4.35-3.7,2.14.31,2.66,1.94,2.78,3.75Z"/>
  <path d="M303.18,251.42c-2.04-.11-3.97-1.02-4.12-3.41-.13-2.04,1.23-3.34,3.5-3.25,2.15.09,3.97.93,4.17,3.17.18,2.04-1.05,3.43-3.55,3.48Z"/>
  <path d="M283.14,246.19c-2.69.3-3.12-1.67-3.15-3.69-.04-2.36,1.49-3.09,3.66-2.9,2.34.21,3.47,1.4,3.33,3.79-.15,2.42-1.57,3.07-3.83,2.79Z"/>
  <path d="M129.48,254.13c-.46-1.54.33-2.81,2.62-2.56,1.82.2,3.81.65,3.59,3.18-.2,2.25-.86,4.41-3.7,4.29-2.86-.12-2.49-2.35-2.51-4.91Z"/>
  <path d="M275.11,231.14c-2.46-.5-3.93-1.52-3.58-3.8.35-2.26,2.22-3.52,4.15-3.17,1.58.29,3.44,1.67,2.99,3.94-.41,2.06-1.93,2.96-3.56,3.03Z"/>
  <path d="M317.55,233.17c1.48.46,4.09.31,3.9,2.66-.21,2.52-2.69,3.41-5.02,3.74-2.05.29-2.7-1.18-2.71-2.79-.01-2.28,1.29-3.54,3.84-3.62Z"/>
  <path d="M263.92,242.42c2.53-.32,2.84,2.05,2.69,3.17-.19,1.44-.65,3.6-3.04,3.67-2.6.08-3.56-1.96-3.56-3.77,0-2,1.96-2.86,3.9-3.07Z"/>
  <path d="M218.93,282.82c-.45,2.24-1.09,4.08-3.55,3.64-2.55-.46-3.28-2.66-2.93-4.72.3-1.75,2.32-2.23,3.93-2.11,1.98.14,2.6,1.68,2.54,3.19Z"/>
  <path d="M240.15,282.09c1.82.07,3.11,1,3.12,2.92.02,2.11-.96,4.08-3.24,4.09-1.95.01-3.5-1.64-3.57-3.6-.08-2.1,1.61-3.09,3.69-3.41Z"/>
  <path d="M211.56,269.18c-1.82.12-2.57-1.2-2.48-3.04.1-2.09,1.14-3.89,3.26-4.18,1.36-.19,3.45.33,3.11,2.34-.34,2.02-.22,4.84-3.9,4.89Z"/>
  <path d="M339.53,290.64c.21-1.12.12-3,2.46-2.97,2.28.03,3.78,1.29,3.84,3.55.04,1.78-1.16,3.15-3.05,3.06-1.82-.08-3.41-.87-3.24-3.64Z"/>
  <path d="M276.49,300.44c1.74.18,3.91,3.33,3.54,4.91-.45,1.89-2.08,2.49-3.73,2.37-1.98-.15-2.8-1.72-2.53-3.49.26-1.72,1.5-2.96,2.73-3.79Z"/>
  <path d="M289.62,224.27c.51-1.66.4-3.99,2.92-3.91,2.1.07,3.27,1.61,3.17,3.72-.12,2.5-2.39,3.03-4.12,3.28-1.95.28-1.62-1.8-1.97-3.09Z"/>
  <path d="M331.82,305.67c-2.87-.43-4.26-1.57-4.09-3.94.13-1.76,1.44-2.92,3.01-2.66,2.13.35,3.19,2.27,3.23,4.27.03,1.46-.92,2.68-2.15,2.33Z"/>
  <path d="M161.43,226.71c0,1.58.03,3.43-2.8,3.26-2.39-.15-2.78-1.89-2.92-3.55-.17-2.01,1.23-2.95,3.12-2.77,1.52.14,3.14.5,2.59,3.06Z"/>
  <path d="M143.66,283.29c1.86.32,3.1,1.2,2.99,2.97-.1,1.8-1.19,3.04-3.16,2.87-1.55-.14-3.31-.77-3.08-2.55.21-1.62,1.33-3.17,3.25-3.28Z"/>
  <path d="M264.4,287.33c.24-1.66.77-2.9,2.66-2.62,2.11.31,3.4,1.72,3.37,3.71-.02,1.71-1.73,2.67-3.21,2.53-1.93-.18-2.82-1.76-2.82-3.61Z"/>
  <path d="M163.05,243.55c0,2.46-1.46,3.28-3.47,3.59-1.51.23-2.26-.46-2.35-1.9-.13-2,1.85-4.23,3.67-4.19,1.76.03,1.99,1.3,2.16,2.51Z"/>
  <path d="M130.03,239.01c-1.03.16-2.23-.8-2.14-2.35.11-1.86,1.51-2.95,3.52-3.02,1.57-.05,2.91.19,2.79,2.19-.12,2.12-1.5,2.94-4.17,3.18Z"/>
  <path d="M160.37,284.95c1.14-.27,1.77.41,1.59,1.34-.34,1.79-1.94,2.05-3.44,2.24-1.24.15-2-.78-1.8-1.68.41-1.83,2.26-1.57,3.65-1.9Z"/>
  <path d="M151.36,211.72c1.33.14,2.32.9,2.16,2.25-.16,1.33-1.24,1.83-2.64,1.76-1.34-.07-1.72-.45-1.73-1.93,0-1.77.93-1.93,2.21-2.09Z"/>
  <path d="M148.55,319.4c-3.33,1.94-6.56,3.86-10.21,4.82-.96.25-2.18,1.23-2.78-.32-.5-1.26.4-2.39,1.34-3.04,1.23-.84,2.75-1.22,3.86-2.31-2.51-2.39-2.63-2.35-5.43-1.21-3.18,1.3-6.4,2.52-9.64,3.69-1.69.61-3.68.67-4.54-1-.88-1.71.58-3.22,2.04-3.94,4.51-2.23,9.1-4.32,14.06-5.34.94-.19,1.49-.45,2.21-1.27,4.02-4.61,10.94-6.3,16.62-3.76,2.43,1.09,4.37.8,6.34-.32,7.47-4.21,14.12-1.91,20.45,2.53,1.13.8,2.11,1.53,3.47,1.23,6.12-1.35,10.48,1.81,14.28,5.84,2.42,2.56,5.04,3.92,8.53,3.63.53-.04,1.08.06,1.61.14.89.14,1.82.43,1.93,1.43.11,1.05-1.03,1.06-1.64,1.22-3.27.86-6.55,1.24-9.8-.26-2.27-1.05-4.37-1.02-6.96-.1-7.25,2.59-14.65,4.88-22.55,4.52-2.8-.12-4.4-1.39-4.12-4.19.21-2.13-.65-2.06-1.93-1.27-2.53,1.56-5.42,2.28-7.86,4.24-3.93,3.15-8.72.52-9.26-4.97ZM177.28,311.24c-3.03-2.25-6.03-2.4-9.23-2.01-4.93.6-8.24,3.31-10.6,7.49-.43.77-2.06,1.11-1.33,2.2.63.94,1.83.23,2.64-.25,5.16-2.99,10.54-5.39,16.44-6.51.6-.11,1.15-.5,2.07-.93ZM193.01,316.29c-.23-1.11-.98-1.22-1.55-1.4-6.45-2.1-12.2.21-17.85,2.97-.95.47-1.01,1.31-.6,2.23.44.99,1.22,1.05,2.16.94,6.13-.75,11.95-2.61,17.83-4.74ZM140.24,311.44c1.67,1.01,3.68.83,5.33,1.89,3.68,2.34,6.89,1.49,9.61-2.28-4.99-1.65-9.92-.08-14.94.39Z"/>
</svg>