<?xml version="1.0" encoding="UTF-8"?>
<svg id="Layer_1" data-name="Layer 1" xmlns="http://www.w3.org/2000/svg" viewBox="0 0 978.61 1501.21">
  <g>
    <g>
      <path d="M900.56,1281.73c-.27-.16-2.1-.65-5.23-1.46-.89-.92-1.08-1.94-6.01-1.99-.54.03-1.11.08-1.64.11-43.13-10.59-179.86-42.94-186.6-45.17-.03,0-185.98-48.52-185.98-48.52,0,0-.03-.13-.11-.35,0-.03,0-.05-.03-.08-.05-1.64,1.11-7.63.13-7.65,5.07.62,436.63,111.16,441.56,111.16.08,6.47-.89,12.94-5.55,16.87-6.71,5.69-8.38.59-13.58.08-4.85-.49-9.78.19-14.66-.13-2.18-.16-4.04-2.13-5.66-2.29-13.72-1.29-12.51,19.76-14.1,28.49-5.55,30.32-12.13,60.16,2.24,89.68,5.26,10.75,17.41,22.51,23.32,31.89,1.73,2.78,2.16,8.41,3.21,9.65,2.21,2.64,26.58,2.78,31.99,5.07,6.85,2.88,2.26,13.13,5.28,17.3,1.43,1.97,7.3.65,9.03,6.23,2.43,7.71-5.63,5.8-9.22,7.12-18.22,6.63-31.16,2.26-50.16-.4l-513.58.11c-13.18-1.99-26.36-3.94-39.68-4.31l.27-13.67c1.94,0,3.69-.3,5.09-.97-3.75-8.33-17.65-5.44-21.86-12.48-7.9-24.37-15.42-48.92-18.54-74.45-1.51-12.18-3.64-31.24-2.78-43.15.78-10.73,3.29-32.78,5.85-42.72.92-3.48,5.15-10.24,8.68-11.48,5.96-2.08,26.52-5.18,33.4-5.71,6.9-.54,14.93.84,21.56,0,1.97-.24,4.15-1.02,1.99-2.67,22.29,2.37,44.88-3.15,67.84-4.12,39.06-1.7,77.98-1.78,117.06-1.78h93.77c36.98,2.1,75.55,1.16,114.2,0h57.14c12.94,0,25.71-.67,38.46-1.51,3.05.75,5.63,1.37,7.65,1.89.65.67,1.64,1.29,5.2,1.46h.03ZM940.27,1489.36c4.29-.13,10.35-4.45,7.39-8.11-.81-.97-21.72-3.94-24.82-4.15-39.03-2.75-86.9-1.05-126.76-1.29-15.55-.08-31,.86-46.5,2.02,23.1,6.93,47.22,3.5,70.84,4.66,26.5,1.29,52.88,3.05,79.51,4.04,12.1.46,28.71,3.23,40.35,2.83ZM894.36,1447.39c5.85-4.04-.57-7.3-1.56-10.35-2.05-6.09-2.37-15.01-7.12-20.54,0-.03-.03-.03-.05-.03l-1.27-4.02c.75-9.84-1.29-19.46-2.18-29.19-.3-3.18,2.1-10.75-1.81-13.32-1.35-.89-14.26-1.29-18.09-2.13-1.48-.32-2.94-.62-4.39-.92-38.95-7.95-71.21-8.65-111.72-8.41-111.37.59-222.8,2.37-334.12,6.85-16.5.67-38.09-.24-53.96,2.64-7.65,1.37-1.27,11.64-.75,15.58.67,5.23,1.21,10.65,1.75,16.12,1.64,16.42,3.53,33.37,11.16,47.79,9.51,18.03,9.84.92,16.93-3.23,4.88-2.86,10.4-4.02,16.09-4.34,8.46-.49,17.3.84,24.85.92,25.96.32,54.23-3.48,79.57-1.4,10.13.84,22.86,5.66,32.29,6.79,35.85,4.26,86.93-.13,123.99-.11,64.72.05,130.16,3.13,194.07,2.7,6.98-.05,32.29,1.4,36.33-1.4ZM883.77,1324.75c7.3-.38,9.41-18.38,8.68-24.15-23.15-2.1-46.25-1.94-69.46-2.64-78.33-2.35-157.3-1.7-235.85-1.35-73.05.35-146.71-.35-219.46,8.19-8.11.94-10.65,3.64-12.8,11.46-1.29,4.69-1.89,9.3-2.08,13.88-.4,8.71.59,17.36.57,26.39,2.21,7.06,4.47.94,7.76-.32,9.68-3.69,36.36-2.45,48.14-3.05,64.02-3.29,128.52-6.58,192.69-6.79,46.82-.16,94.69,4.12,141.62,1.46,12.29-.7,25.2-4.34,37.74-4.15,18.6.27,39.87,5.28,59.24,5.55,7.2.11,14.85-2.75,22.86-1.4,5.77,1,14.26,9.73,17.55,9.49,5.77-.46,4.88-17.17-1.59-18.71-137.79-11.94-276.68-5.9-414.88-5.71-32.59,2.59-65.39,2.91-98.22,2.78-.75-1.91-1.11-3.58-1.11-5.07,0-5.07,4.12-7.71,10.4-8.46,75.93-.7,152.4.13,227.84-3.96,55.74-3.02,107.63-1.02,163.07,1.24,31.54,1.29,64.29-.84,95.69,1.35,5.8.4,17.84,4.2,21.59,3.99ZM566.98,1483.89l14.15-2.7c-21.83-.35-43.45-3.91-65.42-2.75l-58.6,3.42c36.47,3.77,73.23,4.56,109.86,2.02Z" fill="#2a5945"/>
      <path d="M947.65,1481.25c2.96,3.67-3.1,7.98-7.39,8.11-11.64.4-28.25-2.37-40.35-2.83-26.63-1-53.02-2.75-79.51-4.04-23.61-1.16-47.74,2.26-70.84-4.66,15.5-1.16,30.94-2.1,46.5-2.02,39.87.24,87.74-1.46,126.76,1.29,3.1.22,24.02,3.18,24.82,4.15Z" fill="#fff9cb"/>
      <path d="M889.32,1278.28c4.93.05,5.12,1.08,6.01,1.99-2.02-.51-4.61-1.13-7.65-1.89.54-.03,1.11-.08,1.64-.11Z" fill="#2a5945"/>
      <path d="M892.8,1437.04c1,3.05,7.41,6.31,1.56,10.35-4.04,2.8-29.35,1.35-36.33,1.4-63.91.43-129.35-2.64-194.07-2.7-37.06-.03-88.14,4.37-123.99.11-9.43-1.13-22.16-5.96-32.29-6.79-25.34-2.08-53.61,1.73-79.57,1.4-7.55-.08-16.39-1.4-24.85-.92l-.32-8.19c13.5-.49,29.49-3.91,41.35-4.47,69.38-3.34,143.07-.22,213.04-1.24,60.35-.89,121.32-5.26,181.94-2.8,9.35.38,27.47,5.34,35.61,2.02,2.05-.81,9.89-8.73,10.75-8.73.03,0,.05,0,.05.03,4.74,5.53,5.07,14.45,7.12,20.54Z" fill="#fff9cb"/>
      <path d="M892.45,1300.6c.73,5.77-1.37,23.77-8.68,24.15-3.75.22-15.8-3.58-21.59-3.99-31.4-2.18-64.15-.05-95.69-1.35-55.44-2.26-107.33-4.26-163.07-1.24-75.44,4.1-151.91,3.26-227.84,3.96-6.28.75-10.4,3.4-10.4,8.46l-12.37-.46c.19-4.58.78-9.19,2.08-13.88,2.16-7.82,4.69-10.51,12.8-11.46,72.75-8.54,146.41-7.84,219.46-8.19,78.54-.35,157.52-1,235.85,1.35,23.21.7,46.31.54,69.46,2.64Z" fill="#fff9cb"/>
      <path d="M884.36,1412.46l1.27,4.02c-.86,0-8.71,7.92-10.75,8.73-8.14,3.32-26.25-1.64-35.61-2.02-60.62-2.45-121.59,1.91-181.94,2.8-69.97,1.02-143.67-2.1-213.04,1.24-11.86.57-27.84,3.99-41.35,4.47-4.42.16-8.54,0-12.21-.67-1.27-.24-14.34-4.77-15.01-5.2-4.31-2.83-1.54-7.14,2.61-7.95,160.75-.62,321.7-8.89,482.4-5.36,8.06.19,15.36-1.81,23.64-.05Z" fill="#2a5945"/>
      <path d="M882.18,1383.27c.89,9.73,2.94,19.35,2.18,29.19-8.27-1.75-15.58.24-23.64.05-160.7-3.53-321.64,4.74-482.4,5.36-4.15.81-6.93,5.12-2.61,7.95.67.43,13.75,4.96,15.01,5.2,3.67.67,7.79.84,12.21.67l.32,8.19c-5.69.32-11.21,1.48-16.09,4.34-7.09,4.15-7.41,21.27-16.93,3.23-7.63-14.42-9.51-31.37-11.16-47.79l11.81-.73c11.81,2.78,25.04-.97,37.01-1.37,87.76-2.94,177.09.97,264.26-2.59,53.15-2.16,114.29-13.58,167.03-8.11,8.14.84,21.13,9.22,28.41,2.75,9.38-8.36-3.67-13.02-11.43-14.42l1.73-8.3c1.46.3,2.91.59,4.39.92,3.83.84,16.74,1.24,18.09,2.13,3.91,2.56,1.51,10.13,1.81,13.32Z" fill="#fff9cb"/>
      <path d="M879.38,1338.61c6.47,1.54,7.36,18.25,1.59,18.71-3.29.24-11.78-8.49-17.55-9.49-8.01-1.35-15.66,1.51-22.86,1.4-19.38-.27-40.65-5.28-59.24-5.55-12.53-.19-25.44,3.45-37.74,4.15-46.93,2.67-94.8-1.62-141.62-1.46-64.18.22-128.68,3.5-192.69,6.79-11.78.59-38.46-.65-48.14,3.05-3.29,1.27-5.55,7.39-7.76.32.03-9.03-.97-17.68-.57-26.39l12.37.46c0,1.48.35,3.15,1.11,5.07,32.83.13,65.63-.19,98.22-2.78,138.19-.19,277.09-6.23,414.88,5.71Z" fill="#fff9cb"/>
      <path d="M856.17,1375.21c7.76,1.4,20.81,6.06,11.43,14.42-7.28,6.47-20.27-1.91-28.41-2.75-52.75-5.47-113.88,5.96-167.03,8.11-87.17,3.56-176.5-.35-264.26,2.59-11.97.4-25.2,4.15-37.01,1.37,1.67-2.61,5.58-5.71,8.22-7.25,17.41-10.03,44.45-5.69,63.93-6.15,103.67-2.43,207.52-3.07,311.32-6.74,32.67-1.16,66.74-7.44,99.51-3.94.67.08,1.46.19,2.29.32Z" fill="#2a5945"/>
      <path d="M857.9,1366.91l-1.73,8.3c-.84-.13-1.62-.24-2.29-.32-32.78-3.5-66.85,2.78-99.51,3.94-103.8,3.67-207.65,4.31-311.32,6.74-19.49.46-46.52-3.88-63.93,6.15-2.64,1.54-6.55,4.64-8.22,7.25l-11.81.73c-.54-5.47-1.08-10.89-1.75-16.12-.51-3.94-6.9-14.2.75-15.58,15.88-2.88,37.47-1.97,53.96-2.64,111.32-4.47,222.75-6.25,334.12-6.85,40.51-.24,72.78.46,111.72,8.41Z" fill="#fff9cb"/>
      <path d="M887.68,1278.39c-12.75.84-25.53,1.51-38.46,1.51h-57.14c-38.65,1.16-77.22,2.1-114.2,0h-93.77c-39.08,0-78,.08-117.06,1.78-22.96.97-45.55,6.5-67.84,4.12l-.16-.03c-17.74-1.89-35.31-5.36-52.75-11.21-5.28-1.78-9.78-4.61-13.53-8.14-51.72-8.09-101.16-24.26-149.33-44.66-23.02-9.76-45.93-19.62-69.49-28.01-.38-.13-.78-.24-1.24-.38-1.08-.32-2.13-.65-3.21-.94,73.42-1.56,407.55-7.55,405.6-7.74,0,0,185.96,48.52,185.98,48.52,6.74,2.24,143.48,34.58,186.6,45.17Z" fill="#fff9cb"/>
      <path d="M581.13,1481.19l-14.15,2.7c-36.63,2.53-73.4,1.75-109.86-2.02l58.6-3.42c21.97-1.16,43.58,2.4,65.42,2.75Z" fill="#fff9cb"/>
      <path d="M515.09,1176.61c.97.03-.19,6.01-.13,7.65-.46-1.67-1.97-7.65,0-7.65h.13Z" fill="#2a5945"/>
      <path d="M514.99,1184.35c0,.22.03.35.11.35,1.94.19-332.18,6.17-405.6,7.74-1.81-.54-3.64-1.08-5.44-1.59-5.77-1.59-11.56-3.02-17.41-4.26-.4-.08-.67-.13-.86-.13l-.05-5.2c109.73-.89,421.05-4.69,429.24-4.64-1.97,0-.46,5.98,0,7.65.03.03.03.05.03.08Z" fill="#2a5945"/>
      <path d="M399.19,1285.8c2.16,1.64-.03,2.43-1.99,2.67-6.63.84-14.66-.54-21.56,0-6.87.54-27.44,3.64-33.4,5.71-3.53,1.24-7.76,8.01-8.68,11.48-2.56,9.95-5.07,31.99-5.85,42.72-.86,11.91,1.27,30.97,2.78,43.15,3.13,25.53,10.65,50.08,18.54,74.45,4.2,7.04,18.11,4.15,21.86,12.48-1.4.67-3.15.97-5.09.97-9.08,0-22.61-6.58-25.74-12.56-4.45-8.52-6.55-24.91-8.65-34.47-9.54-43.4-11.54-88.06-4.66-132.24.57-5.34,6.82-4.74,10.35-7.12,4.99-3.32,5.53-7.74,13.32-8.36,3.4-.24,5.88,1.13,8.98,1.13,13.21,0,26.44-.13,39.65-.05l.16.03Z" fill="#fff9cb"/>
      <path d="M399.03,1285.78c-13.21-.08-26.44.05-39.65.05-3.1,0-5.58-1.37-8.98-1.13-7.79.62-8.33,5.04-13.32,8.36-3.53,2.37-9.78,1.78-10.35,7.12-6.87,44.18-4.88,88.84,4.66,132.24,2.1,9.57,4.2,25.96,8.65,34.47,3.13,5.98,16.66,12.56,25.74,12.56l-.27,13.67c-4.72-.16-9.43-.11-14.18.22-5.47.38-10,3.45-16.06,2.64-1.48-.19-23.96-10.27-27.33-11.81-79.81-37.01-161.51-69.51-240.7-108.36-5.69-2.8-17.28-5.98-21.91-9.08-4.74-3.21-5.01-11.64-7.25-15.31-1.27-2.1-7.44-3.77-10.08-7.79-1.43-2.18-3.83-8.46-4.88-11.29-13.26-35.28-11.56-94.37,1.02-129.81.89-2.51,6.31-15.09,7.44-16.15,1.43-1.32,9.19-3.13,16.36-5.01.65.13,14.8.08,37.76-.11l.05,5.2c-2.05,0,10.4,5.39,9.92,6.28-.7.03-1.08.05-1.08.05.7.08,1.05.05,1.08-.05,2.02-.05,6.77-.16,13.8-.3,1.08.3,2.13.62,3.21.94.46.13.86.24,1.24.38,23.56,8.38,46.47,18.25,69.49,28.01,48.17,20.4,97.6,36.58,149.33,44.66,3.75,3.53,8.25,6.36,13.53,8.14,17.44,5.85,35.01,9.33,52.75,11.21ZM303.56,1464.37c5.96-2.67-.94-13.53-2.1-18.22-10.49-42.7-10.81-102.56-1.37-145.61,1.05-4.77,4.56-9.38,3.26-14.61-4.61-1.08-8.76-3.58-13.23-4.96-21.4-6.6-39.49-12.32-60.75-20.11-32.72-11.99-70.08-21.35-100.11-38.03-13.67-7.6-47.2-20.59-62.67-24.26-9.35-2.24-21.97-5.09-27.49,4.04-8.33,13.72-11.48,59.19-10.49,75.71,1.67,28.09,11.54,45.28,21.81,69.84.65,1.51,2.78,5.88,3.69,6.74,1.43,1.32,17.3,6.87,21.21,8.79,68.33,33.32,137.92,65.26,207.98,93.91,2.8,1.13,19,7.33,20.27,6.77Z" fill="#2a5945"/>
      <path d="M301.46,1446.15c1.16,4.69,8.06,15.55,2.1,18.22-1.27.57-17.47-5.63-20.27-6.77-70.05-28.65-139.65-60.59-207.98-93.91-3.91-1.91-19.78-7.47-21.21-8.79-.92-.86-3.05-5.23-3.69-6.74-10.27-24.56-20.13-41.75-21.81-69.84-1-16.52,2.16-61.99,10.49-75.71,5.53-9.14,18.14-6.28,27.49-4.04,15.47,3.67,49,16.66,62.67,24.26,30.03,16.68,67.39,26.04,100.11,38.03,21.27,7.79,39.35,13.5,60.75,20.11,4.47,1.37,8.63,3.88,13.23,4.96,1.29,5.23-2.21,9.84-3.26,14.61-9.43,43.05-9.11,102.91,1.37,145.61ZM207.68,1271.38c3.42-10.73-21.27-15.98-28.17-18.63-20.62-8.01-41.37-14.69-61.99-22.91-4.34-1.75-8.84-5.93-12.7-7.52-7.41-3.07-31.91-10.92-39.3-11.89-4.82-.65-11.97-1.37-14.04,3.88,5.07,1,9.38,4.53,14.1,6.82,37.44,18.03,77.6,31.99,116.6,46.47,3.05,1.13,6.77.57,10.24,1.89,3.05,1.16,12.51,10.51,15.26,1.89Z" fill="#fff9cb"/>
      <path d="M179.52,1252.76c6.9,2.64,31.59,7.9,28.17,18.63-2.75,8.63-12.21-.73-15.26-1.89-3.48-1.32-7.2-.75-10.24-1.89-39-14.47-79.16-28.44-116.6-46.47-4.72-2.29-9.03-5.82-14.1-6.82,2.08-5.26,9.22-4.53,14.04-3.88,7.39.97,31.89,8.81,39.3,11.89,3.85,1.59,8.36,5.77,12.7,7.52,20.62,8.22,41.37,14.91,61.99,22.91Z" fill="#2a5945"/>
      <path d="M104.05,1190.84c1.81.51,3.64,1.05,5.44,1.59-7.04.13-11.78.24-13.8.3.49-.89-11.97-6.28-9.92-6.28.19,0,.46.05.86.13,5.85,1.24,11.64,2.67,17.41,4.26Z" fill="#2a5945"/>
      <path d="M505.79,1229.78c-.04.13,25.83,7.14,25.76,7.39-1.83,6.39-49.5-12.25-50.88-7.42-.04.15,26.14,7.12,26.05,7.47-1.51,5.25-40.37-14.93-42.51-7.49-.1.33,26.15,7.13,26.05,7.47-1.11,3.87-54.83-14.06-56.71-7.51-.1.34,26.13,7.24,26.07,7.47-1.13,3.96-52.85-10.74-53.78-7.51-.1.35,26.12,7.32,26.08,7.48-1.66,5.8-50.69-15.47-52.97-7.51-.11.39,26.19,7.13,26.09,7.48-2.58,9-48.16-12.57-49.61-7.51-.1.35,26.18,7.2,26.1,7.48-1.71,5.98-54.35-13.79-56.15-7.52-.12.41,26.18,7.27,26.11,7.49-2.63,9.19-48.31-13.81-50.12-7.52-.05.17,26.18,7.3,26.13,7.49-.79,2.75-43.46-10.92-44.44-7.51-.1.36,26.24,7.12,26.13,7.49-2.01,7-36.57-11.86-37.85-7.4-.09.32,25.83,7.13,25.76,7.39" fill="none" stroke="#2a5945" stroke-linecap="round" stroke-linejoin="round" stroke-width="1.99"/>
    </g>
    <g>
      <path d="M955.63,1287.39c.13,2.59.46,5.69.67,8.89-7.12.86-14.26,1.37-21.43,1.64.24-.32.43-.67.54-1.13.43-2.05-1.59-3.02-3.37-3.34-12.86-2.29-35.55.62-49.92.05-64.85-2.48-128.49-10.08-194.07-6.85-5.47.27-15.12.73-20.08,1.48-1.13.16-2.24.59-3.4,1.11-9.16-.22-18.36-.43-27.52-.7-58.52-1.75-117.06-3.58-175.61-3.75-28.63-.05-57.25.78-85.88.67-12.8-.05-25.61-.27-38.41-.97-1.21-.11-4.04-.3-4.64-.35-4.26-.43-8.52-.78-12.78-1.27-7.68-.86-15.36-1.91-23.02-3.15-5.96-.97-11.86-2.32-17.71-3.8-.84-.54-1.67-1.11-2.56-1.62-26.5-15.39-56.82-19.16-85.85-27.12-5.07-3.53-11-5.98-17.25-7.36-5.26-2.45-10.43-4.99-15.66-7.49-15.98-7.65-32.32-14.02-49.46-18.68-17.12-6.42-33.5-13.15-47.52-24.66-5.04-6.12-14.93-6.17-21.4-9.57-24.5-12.8-19.65-51.99-10.08-73.15,4.02-8.87,10.16-15.44,14.26-24.12,6.52.08,12.8-2.75,19.22-3.05,6.17-.3,485.77,12.94,482.02,3.15l.05.08,10.73,18.79c-13.07-.05-382.96-5.5-477.87-6.01-12.43-.05-20.13-.03-21.72.11-16.93,11.21-21.78,42.02-13.69,59.73,2.1,4.64,12.29,12.61,16.74,15.61,9.97,6.74,20.03,9.27,30.4,14.07,53.23,24.69,107.57,47.28,164.1,63.67,3.72,1.08,4.93,3.45,10.05,3.42,1.97,0,4.04.84,3.4-2.05-.43-1.86-5.36-5.9-6.93-9.22-5.47-11.4-9.65-35.09-7.92-47.47.67-4.91,6.15-13.77,10.57-20.11l12.53,1.54c-1.08,2.21-3.58,7.6-3.77,8.25-3.4,11.13-1.54,23.94-.4,35.31,6.23-4.96,5.98-16.31,8.79-24.23,2.75-7.82,5.58-15.12,14.74-16.25,21.97-2.75,52.99.94,75.53,1.4,85.79,1.73,171.64,5.04,257.38,6.77,84.42,1.67,169.22,2.72,253.45,3.96,6.04.08,15.36,4.45,19.49-1.27-14.42-2.78-29.33-.11-43.77-1.4-11.97-1.05-26.9-5.82-39.14-6.68-24.93-1.81-49.95-2.8-74.96-3.4l.22-8.25c20.3.7,40.67.4,60.67.4,2.05,0,100.54,5.2,102.53,4.88,2.08.13.49-.43-4.07-1.56l.65-2.45c21.08,5.5,34.88,9.38,37.33,10.65,8.76,4.58.97,29.43-7.6,27.79-1.75-.32-5.39-5.71-9.46-4.91-6.9,1.35-5.18,25.77-4.93,31.46.22,5.34.73,15.26,1.48,20.08,2.24,14.34,16.6,5.93,26.12,7.57,13.29,2.26,9.76,14.72,10.19,24.85ZM902.48,1261.19c2.67-3.8-1.54-10.38-1.99-14.34-1.08-8.73-2.18-20.84-1.35-29.43.32-3.4,5.09-11.05,1.32-13.67l-58.65-4.69c-31.13.62-62.24.75-93.31.54-140.73-.97-281.21-8.89-421.62-8.52-2.67.03-5.15-1.32-7.74-1.11-13.18,1.16-6.36,15.85-5.12,23.34v.05c.46,2.88-.27,6.04.43,9,1.86,8.09,6.52,15.34,8.17,23.53,3.1,4.39,24.04,7.98,29.95,8.44,11.16.89,22.86,1.11,34.64,1.11,14.66.05,29.49-.22,43.56.22,146.71,4.42,293.29,1.94,440.7,5.39,5.23.13,28.44,3.83,31.02.13Z" fill="#2a5945"/>
      <path d="M901.86,1172.35c4.56,1.13,6.15,1.7,4.07,1.56-1.99.32-100.48-4.88-102.53-4.88-20,0-40.38.3-60.67-.4-18.22-.59-36.41-1.99-54.18-5.12-25.44-2.56-51.02-2.48-76.6-2.67-23.18-.75-46.36-2.59-69.14-3.4-49.62,6.47-101.37-1-150.97-4.85-19.78-1.54-44.47-3.07-70.75-2.43-16.33.4-16.15.57-32.4-.51,3.26.62-5.39,0-9.6,1.62-6.66,2.59-8.79,9.95-9.57,10.67-2.05,1.89-1.86,4.12-3.07,5.69-1,1.32-2.35,3.15-3.8,5.26l-7.39-.16c1.4-2.43,1.73-4.91-.43-6.66-12.8-5.74-26.31-9.57-39.43-14.45-20.38-7.55-41.29-14.88-61.37-22.18-21.72-7.92-45.26-24.8-68.33-27.36-1.7-.19-4.74-.4-8.06-.4l.03-6.55c94.91.51,464.8,5.96,477.87,6.01,0,0,303.64,60.62,346.33,71.21Z" fill="#fff9cb"/>
      <path d="M900.48,1246.85c.46,3.96,4.66,10.54,1.99,14.34-2.59,3.69-25.8,0-31.02-.13-147.41-3.45-293.99-.97-440.7-5.39-14.07-.43-28.89-.16-43.56-.22l.05-8.92c4.2,0,7.98-.13,9.81-.19,120.4-2.75,240.7-4.12,361.18-.11,17.3.57,39.7,4.31,56.6,2.8,13.02-1.16,9.7-12.48,3.99-13.53-22.48-.35-44.99.43-67.44.05-62.88-1.02-125.96-2.29-189-2.64l.05-9.65c95.79.62,191.64-.08,287.46.03,5.01.67,7.3,5.82,13.32,5.42,5.61-.38,10.73-7.92,7.06-12.99-4.72-6.5-9.54-3.15-15.01-3.07-11.4.19-22.56-1.24-33.69-1.46-24.39-.49-48.79-.7-73.15-.78l.05-10.81c31.08.22,62.18.08,93.31-.54l58.65,4.69c3.77,2.61-1,10.27-1.32,13.67-.84,8.6.27,20.7,1.35,29.43Z" fill="#fff9cb"/>
      <path d="M902.5,1169.9l-.65,2.45c-42.7-10.59-346.33-71.21-346.33-71.21l-10.73-18.79-.05-.08s258.95,61.83,357.76,87.63Z" fill="#2a5945"/>
      <path d="M900.38,1188.36c-4.12,5.71-13.45,1.35-19.49,1.27-84.23-1.24-169.03-2.29-253.45-3.96-85.74-1.73-171.59-5.04-257.38-6.77-22.53-.46-53.56-4.15-75.53-1.4-9.16,1.13-11.99,8.44-14.74,16.25-2.8,7.92-2.56,19.27-8.79,24.23-1.13-11.37-2.99-24.18.4-35.31.19-.65,2.7-6.04,3.77-8.25.27-.51.46-.84.51-.92,2.18-2.67,12.08-.89,16.12-1.43,29.35-3.8,60.22-1.02,90.43-1.21,64.72-.38,129.19,2.08,194.07,3.94,55.36,1.59,110.86.81,166.2,2.08,25.01.59,50.03,1.59,74.96,3.4,12.24.86,27.17,5.63,39.14,6.68,14.45,1.29,29.35-1.37,43.77,1.4Z" fill="#fff9cb"/>
      <path d="M870.29,1215.72c3.67,5.07-1.46,12.61-7.06,12.99-6.01.4-8.3-4.74-13.32-5.42-95.82-.11-191.67.59-287.46-.03-66.9-.43-133.75-1.48-200.54-3.88-6.87-2.51-37.98-.7-41.19-4.64-.67-.84-1.08-1.67-1.24-2.48-.84-4.29,5.34-7.57,9.35-8.52,14.64-3.4,27.39,2.51,41.16,3.5,37.14,2.7,79.11.05,117.25,1.35,87.14,2.94,174.07,1.56,261.18,1.81,24.37.08,48.76.3,73.15.78,11.13.22,22.29,1.64,33.69,1.46,5.47-.08,10.3-3.42,15.01,3.07Z" fill="#2a5945"/>
      <path d="M818.84,1235.51c5.71,1.05,9.03,12.37-3.99,13.53-16.9,1.51-39.3-2.24-56.6-2.8-120.48-4.02-240.78-2.64-361.18.11-1.83.05-5.61.19-9.81.19-7.74,0-17.01-.49-18.65-2.88-.94-1.37.24-6.95,1.11-7.82,2.99-3.05,41.4-1.43,48.92-1.62,47.84-1.27,95.79-1.54,143.77-1.29,63.05.35,126.12,1.62,189,2.64,22.45.38,44.96-.4,67.44-.05Z" fill="#2a5945"/>
      <path d="M748.49,1199.6l-.05,10.81c-87.12-.24-174.04,1.13-261.18-1.81-38.14-1.29-80.11,1.35-117.25-1.35-13.77-1-26.52-6.9-41.16-3.5-4.02.94-10.19,4.23-9.35,8.52l-5.47,1.05c-1.24-7.49-8.06-22.18,5.12-23.34,2.59-.22,5.07,1.13,7.74,1.11,140.4-.38,280.89,7.55,421.62,8.52Z" fill="#fff9cb"/>
      <path d="M742.72,1168.63l-.22,8.25c-55.34-1.27-110.84-.49-166.2-2.08-64.88-1.86-129.35-4.31-194.07-3.94-30.22.19-61.08-2.59-90.43,1.21-4.04.54-13.94-1.24-16.12,1.43-.05.08-.24.4-.51.92l-12.53-1.54c1.46-2.1,2.8-3.94,3.8-5.26,1.21-1.56,1.02-3.8,3.07-5.69.78-.73,2.91-8.09,9.57-10.67,4.2-1.62,12.86-1,9.6-1.62,16.25,1.08,16.06.92,32.4.51,26.28-.65,50.97.89,70.75,2.43,49.6,3.85,101.35,11.32,150.97,4.85,22.78.81,45.96,2.64,69.14,3.4,25.58.19,51.16.11,76.6,2.67,17.76,3.13,35.96,4.53,54.18,5.12Z" fill="#2a5945"/>
      <path d="M562.45,1223.27l-.05,9.65c-47.98-.24-95.93.03-143.77,1.29-7.52.19-45.93-1.43-48.92,1.62-.86.86-2.05,6.44-1.11,7.82,1.64,2.4,10.92,2.88,18.65,2.88l-.05,8.92c-11.78,0-23.48-.22-34.64-1.11-5.9-.46-26.85-4.04-29.95-8.44-1.64-8.19-6.31-15.44-8.17-23.53-.7-2.96.03-6.12-.43-9v-.05l5.47-1.05c.16.81.57,1.64,1.24,2.48,3.21,3.94,34.31,2.13,41.19,4.64,66.79,2.4,133.64,3.45,200.54,3.88Z" fill="#fff9cb"/>
      <path d="M266.93,1249.68c.65,2.88-1.43,2.05-3.4,2.05-5.12.03-6.33-2.35-10.05-3.42-56.52-16.39-110.86-38.98-164.1-63.67-10.38-4.8-20.43-7.33-30.4-14.07-4.45-2.99-14.64-10.97-16.74-15.61-8.09-17.71-3.23-48.52,13.69-59.73,1.59-.13,9.3-.16,21.72-.11l-.03,6.55c-6.04,0-12.94.73-14.18,3.77,4.53,4.04,10.62,4.39,15.77,7.14,10.94,5.8,9.7,5.77,22.26,10.08,32.88,11.29,64.18,24.77,96.71,36.71,8.49,3.13,32.67,8.14,38.71,13.21,2.43,2.02,3.83,8.27,8.84,7.49,2.78-.43,7.39-3.8,9.51-7.36l7.39.16c-4.42,6.33-9.89,15.2-10.57,20.11-1.73,12.37,2.45,36.06,7.92,47.47,1.56,3.32,6.5,7.36,6.93,9.22Z" fill="#fff9cb"/>
      <path d="M254.83,1166.07c2.16,1.75,1.83,4.23.43,6.66-2.13,3.56-6.74,6.93-9.51,7.36-5.01.78-6.42-5.47-8.84-7.49-6.04-5.07-30.22-10.08-38.71-13.21-32.53-11.94-63.83-25.42-96.71-36.71-12.56-4.31-11.32-4.29-22.26-10.08-5.15-2.75-11.24-3.1-15.77-7.14,1.24-3.05,8.14-3.77,14.18-3.77,3.32,0,6.36.22,8.06.4,23.07,2.56,46.6,19.43,68.33,27.36,20.08,7.3,41,14.64,61.37,22.18,13.13,4.88,26.63,8.71,39.43,14.45Z" fill="#2a5945"/>
    </g>
    <g>
      <path d="M797.21,982.7c4.68.82,7.26,1.25,7.31,1.25,5.2-.2,1.7-.64-7.31-1.25ZM797.1,982.71c-27.53-4.71-125.92-21.81-196.53-35.77-44.95-8.87-76.34-18.27-76.34-18.27,0,0-2.54-6.34-8.49-10.4,4.9.97,318.34,64.78,318.49,65.28,1.33,4.56-2.56,22.53-6,24.73-3.28,2.08-21.22-.24-27.01,1.71-5.18,1.76-13.9,20.49-15.64,25.77-9.49,28.66-7.78,46.93,7.63,72.62,1.83,3.05,9.9,14.79,12.1,16.42,7.58,5.66,32.11-5.55,32.82,12.15v.05c.13,2.91-2.03,5.43-4.93,5.74-6.1.67-12.86-1.76-19.15-1.81-2.76-.8-7.63-.53-8.15-.56-13.52-.76-8.73.24-18.85.82,5.06-.33-38.41,1.34-33.38,1.75-19.75,1.29-39.48,2.93-59.09,4.34-44.62,3.23-89.29,6.41-134.05,6.46-4.56,0-9.17.02-13.74-.08-.65-.11-8.06-.49-9.47-.56-12.06-.64-24.13-1.46-36.17-2.18-24.35-1.51-48.73-2.61-73.11-2.49-25.49.08-50.91,2.56-76.37,3.99-2.58.14-5.34.04-7.91.42-.56.08-.99.15-1.34.22-.19-.02-.33-.04-.54-.06-5.23-.5-10.43-1-15.64-1.59-13.39-1.5-27.22-2.51-40.74-1.25-11.6-2.38-17.89-5.08-29.74-6.94-22.16-8.29-44.24-16.05-66.61-22.23-10.24-6.65-19.59-15.07-32.51-16.69-.45-.33-.81-.72-1.26-1.02-5.15-3.72-11.45-7.14-18.02-9.25-4.89-3.19-9.88-5.83-15.28-7.67-.06-.08-.06-.16-.12-.24-9.18-17.6-12.94-22.86-15.14-44.18-3.52-34.38-1.47-64.96,9.76-97.17,1.08-3.07.4-6.38,2.03-9.8,4.52-9.59,17.14-6.11,25.68-7.45,7.37-1.16,16.01-4.12,24.2-4.99,5.08-.52,339.2-2.17,347.15-4.27l8.55,10.42s-309.66,4.02-310.71,4.09c-22.09,1.34-49.46,2.25-70.9,7.39-10.79,2.57-8.24,5.97-11.14,13.06-.32.74-.61,1.46-.96,2.17-1.72,3.88-3.62,7.41-4.85,11.87-4.11,14.64-6.14,55.57-2.74,69.86.89,3.68,7.72,7.57,8.32,10.7.45,2.25-5.63,6.96-4.28,14.43,1.91,10.36,9.8,15.06,17.63,19.66,12.57,7.31,12.15,3.95,23.68,7.28,4.29,1.24,8.35,7.22,11.96,9.54,4.44,2.86,28.77,13.97,32.93,13.46,2.2-.26,3.15-1.35,3.22-3.57-1.05-28.55-11.81-55.9-10.47-84.58.41-8.62,5.18-17.38,6.8-24.79,2.18-10.02-2.39-5.94-7.13-8.27-1.19-.6-1.8-2.38-3.63-3.35-13.65-7.42-28.92-14.37-43.58-20.18-8.51-3.38-19.08-3.22-25.49-10.98,6.73-1.67,13.94-2.57,20.86-2.34,12.94.44,24.83,8.28,37.43,11.35l27.92,20.4c4.74,1.71,17.54-8.07,21.4-2.95,5.15,6.87-24.04,28.45-17.73,39.75,1.49,2.69,6.08,4.05,7.85.68,4.11-7.79,5.85-19.33,10.62-26.44,1.44-2.14,11.49-13.04,13.47-14.8,9.04-8.05,82.43-9.81,98.09-9.6,26.11.38,57.03,5.54,82.48,3.22.94-.09,2.68-.33,4.34-.7,16.9,2.02,33.89,3.25,51.13,3.12,26.16-.22,52.31-1.87,78.42-3.24,12.17-.64,24.36-1.33,36.56-1.83,1.75-.08,11.67-.21,11.67-.34,6.84.24,13.69.81,20.49,1.46,19.07,1.84,126.02,6.24,159.22,8.5ZM777.36,1012.62c.26-4.65-.23-7.25-5.29-8.08-16.58-2.73-37.9.67-55.03.8-15.75.12-31.56.16-47.4.06-24.21-.14-48.43-.62-72.49-1.82-50.94-2.56-101.35-2.16-152.68-.01-13.71.57-25.93-.06-39,.34-39.96,1.22-80.15,2.59-119.92,3.77-12.72.39-6.34,4.24-9.6,9.43-2.37,3.77-11.47,2.44-7.27,7.71,1.88,2.35,10.11.42,13.57.71,127.01,9.84,258.75-7.15,387.26-6.2,8.45.07,16.87.21,25.27.44,14.23.38,40.94,1,53.87,4.7,3.17.89,9.87,6.83,6.16,10.2-6.28,5.75-37.68-1.55-47.33-1.97-109.67-5.01-221.7,6.57-331.57,7.67-16.69.16-34.78-2.02-51.24-1.93-19.18.1-38.45,2.34-57.65,2.53-5.77,6.29-3.6,16.51.92,22.97,106.34-3.48,212.61-10.93,318.97-13.95,32.09-.93,87.2-5.54,116.74,2.38,6.72,1.81,14.38,4.39,7.85,11.13-8.83,9.07-14.11,1.31-23.6-1-5.29-1.28-14.16-2.38-19.64-2.55-55.94-1.59-119.65,4.95-176.54,6.42-34.09.89-68.04-.64-102.45,1.64-34.62,2.28-70.05,8.54-104.9,7.36-4.21-.14-12.88-4-14.9-.81-.78,1.19,2.78,18.76,3.63,21.56,1.07,3.41,9.08,20.81,10.91,23.35,6.09,8.48,21.18,1.91,29.37,1.69,50.26-1.4,102.52,9.31,152.8,9.72,74.41.6,149.42-10.37,223.74-4.31,29.86-2,60.09.76,89.73-1.9,4.6-3.36-6.11-10.15-8.28-13.62-2.38-3.86-3.04-11.6-8.6-11.74-1.7-.06-3.73,2.86-7.7,2.92-3.99.07-8.59-3.24-13.7-3.59-27.41-1.83-63.33-.22-91.68-.12-8.12.03-51.44,3.99-54.52-.47-.55-.79-.81-6.82-.33-7.7.63-1.11,9.04-3.17,11.07-3.42,15.75-2.01,37.7.9,53.98.46,29.02-.75,57.34-4.05,86.16-5.28,5.66-.22,11.39,2.53,16.98.15,1.54-1.2,2.65-33.38,3.89-39.07,1.8-8.31,10.03-22.61,10.44-30.59Z" fill="#2a5945"/>
      <path d="M797.21,982.7c9.01.61,12.51,1.05,7.31,1.25-.05,0-2.64-.43-7.31-1.25Z" fill="#2a5945"/>
      <path d="M772.07,1004.54c5.05.83,5.54,3.43,5.29,8.08-.41,7.98-8.64,22.28-10.44,30.59-1.24,5.69-2.35,37.87-3.89,39.07-5.59,2.37-11.32-.37-16.98-.15-28.81,1.22-57.13,4.53-86.16,5.28-16.28.44-38.23-2.47-53.98-.46-2.04.25-10.45,2.32-11.07,3.42-.47.88-.21,6.92.33,7.7,3.08,4.45,46.4.5,54.52.47,28.35-.1,64.27-1.71,91.68.12,5.11.34,9.71,3.65,13.7,3.59,3.96-.06,5.99-2.99,7.7-2.92,5.56.14,6.22,7.88,8.6,11.74,2.17,3.47,12.88,10.26,8.28,13.62-29.64,2.66-59.87-.1-89.73,1.9-74.32-6.06-149.33,4.92-223.74,4.31-50.28-.41-102.55-11.12-152.8-9.72-8.19.22-23.29,6.78-29.37-1.69-1.84-2.54-9.85-19.94-10.91-23.35-.85-2.8-4.42-20.37-3.63-21.56,2.02-3.19,10.69.67,14.9.81,34.85,1.19,70.28-5.07,104.9-7.36,34.41-2.28,68.36-.75,102.45-1.64,56.89-1.47,120.6-8.01,176.54-6.42,5.48.17,14.35,1.27,19.64,2.55,9.49,2.31,14.76,10.07,23.6,1,6.53-6.73-1.13-9.31-7.85-11.13-29.54-7.92-84.64-3.31-116.74-2.38-106.36,3.02-212.63,10.47-318.97,13.95-4.52-6.47-6.69-16.68-.92-22.97,19.2-.19,38.48-2.43,57.65-2.53,16.45-.09,34.54,2.09,51.24,1.93,109.87-1.1,221.9-12.68,331.57-7.67,9.65.42,41.05,7.72,47.33,1.97,3.71-3.37-2.99-9.31-6.16-10.2-12.92-3.7-39.63-4.32-53.87-4.7-8.4-.23-16.82-.38-25.27-.44l.12-13.93c15.84.09,31.65.06,47.4-.06,17.13-.12,38.45-3.53,55.03-.8ZM550.15,1090.76c-1.1-11.07-21.44-4.82-30.43-5.59-6.71-.54-13.76-5.66-19.4-5.66-3.51,0-6.68,2.64-10.52,3.07-59.73,6.94-121.46-4.25-179.33,3.68-2.6.36-16.41,4.19-16.64,5.63-1.92,11.2,22.08,5.92,29.4,5.95,64,.22,130-.89,194.06-4.37,2.37-.13,4.68.96,6.73.84,8.34-.52,17.7-3.14,26.15-3.56Z" fill="#fff9cb"/>
      <path d="M617.39,972.75c0,.13-9.92.27-11.67.34-12.2.5-24.39,1.19-36.56,1.83-26.11,1.38-52.26,3.02-78.42,3.24-17.23.13-34.23-1.1-51.13-3.12-1.66.37-3.4.61-4.34.7-25.45,2.32-56.38-2.84-82.48-3.22-15.66-.21-89.05,1.54-98.09,9.6-1.97,1.76-12.02,12.66-13.47,14.8-4.76,7.11-6.5,18.66-10.62,26.44-1.77,3.37-6.36,2-7.85-.68-6.32-11.3,22.88-32.88,17.73-39.75-3.86-5.12-16.66,4.66-21.4,2.95l-27.92-20.4c-12.6-3.07-24.49-10.92-37.43-11.35-6.92-.24-14.14.67-20.86,2.34l-2.37-1.08c.35-.72.64-1.43.96-2.17,2.9-7.09.35-10.48,11.14-13.06,21.44-5.14,48.81-6.06,70.9-7.39,1.05-.07,310.71-4.09,310.71-4.09,0,0,31.38,9.4,76.34,18.27,70.62,13.96,169,31.06,196.53,35.77-33.2-2.26-140.15-6.65-159.22-8.5-6.8-.65-13.65-1.22-20.49-1.46Z" fill="#fff9cb"/>
      <path d="M669.64,1005.4l-.12,13.93c-128.52-.95-260.25,16.04-387.26,6.2-3.47-.28-11.69,1.64-13.57-.71-4.19-5.27,4.9-3.94,7.27-7.71,3.26-5.19-3.12-9.04,9.6-9.43,39.77-1.19,79.96-2.55,119.92-3.77,13.07-.41,25.29.22,39-.34,51.33-2.15,101.74-2.55,152.68.01,24.06,1.2,48.29,1.68,72.49,1.82Z" fill="#fff9cb"/>
      <path d="M519.72,1085.18c8.99.77,29.33-5.48,30.43,5.59-8.45.42-17.81,3.04-26.15,3.56-2.05.12-4.36-.97-6.73-.84-64.06,3.48-130.06,4.59-194.06,4.37-7.31-.03-31.31,5.24-29.4-5.95.23-1.44,14.04-5.28,16.64-5.63,57.88-7.93,119.61,3.25,179.33-3.68,3.84-.44,7.02-3.08,10.52-3.07,5.64,0,12.69,5.12,19.4,5.66Z" fill="#2a5945"/>
      <path d="M524.23,928.66l-8.55-10.42s.03.03.06.02c5.95,4.06,8.49,10.4,8.49,10.4Z" fill="#2a5945"/>
      <path d="M205.59,990.97c4.74,2.33,9.31-1.75,7.13,8.27-1.62,7.41-6.39,16.17-6.8,24.79-1.35,28.68,9.42,56.03,10.47,84.58-.07,2.22-1.02,3.31-3.22,3.57-4.16.5-28.49-10.61-32.93-13.46-3.61-2.33-7.67-8.3-11.96-9.54-11.53-3.33-11.11.02-23.68-7.28-7.83-4.6-15.73-9.3-17.63-19.66-1.35-7.47,4.73-12.18,4.28-14.43-.59-3.13-7.43-7.02-8.32-10.7-3.4-14.29-1.37-55.22,2.74-69.86,1.24-4.45,3.13-7.99,4.85-11.87l2.37,1.08c6.41,7.76,16.98,7.6,25.49,10.98,14.66,5.81,29.93,12.76,43.58,20.18,1.82.97,2.44,2.75,3.63,3.35Z" fill="#fff9cb"/>
    </g>
    <g>
      <path d="M436.45,799.56s-388.85-23.36-394.6-29.96c-14.48-16.65-15.28-58.99,1.76-69.25,24.49-14.84,46.55-32.16,56.84-36.39,8.7-3.59,117.18-69.74,181.66-102.72,8.91-4.55,18.24-11.47,28.06-12.65,6.76-.82,20.54-3.95,25.64-3.48,4,.38,33.47-5.09,37.7-4.55,32.93,4.25,65.06,3.2,98.23,4.63,75.23,3.21,153.34,15.2,227.81,26.59,29.37,4.47,58.67,8.83,87.81,14.96,9.41,4.65,4.44,20.44-1.58,25.34-4.35,3.59-14.69,2.68-18.3,4.3-.42.18-4.59,5.74-4.89,6.77-1.63,6.18-4.19,26.01-3.85,32.2.46,7.98,11.04,10.69,14.51,17.68,7.9,1.3,36.47,3.11,39.91,10.26.68,1.38.18,2.96.1,4.41l-26.23-.59c-7.19-.67-350.6,112.44-350.6,112.44ZM434.37,791.3l308.76-106.76c-20.65-4.66-41.35-5.5-62.35-7.35-20.06-1.77-42.37-1.99-61.82-4.63-22.07-3.01-40.79-8.65-64.23-8.98-4.75-.09-14.85.16-23.11.73-27.63-3.83-55.41-6.83-83.32-5.97-1.11.05-2.22.1-3.31.21-12.37-1.14-26.1-1.93-34.39-1.74-.43,0-.81.05-1.25.07-10.37-5.16-22.57-6.88-35.23-4.18-27.5,5.89-77.25,21.97-101.19,35.53-26.9,15.26-52.55,19.93-80.86,32.35-24.15,10.6-33.44,9.44-57.31,20.65-.06.02-.08.05-.14.07-.25.06-.55.15-.77.21-2.62.7-5.25,1.53-7.87,2.22l-.17.07c-4.61,1.22-8.9,3.33-12.78,6.1-9.08,6.46-18.69,9.6-33.47,14.82-4.23,1.63,354.8,26.59,354.8,26.59ZM742.93,625.11c5.48-2.78,5.38-11.95-.41-13.63l-350.77-26.29c-2.39-.18-6.27,7.21-1.43,10.03,60.89,5.89,122.31,9.71,183.45,14.48,48.4,3.76,98.07,5.68,146.31,12.29,6.18.84,17.71,5.73,22.85,3.12ZM726.64,642.73c4.78.47,9.47,4.93,12.99-1.7-1.17-2.03-20.57-6.52-24.49-7.24-47.4-8.77-99.73-8.83-147.65-12.39-54.62-4.07-116.93-12.68-170.78-12.91-11.29-.06-10.07,8.46-3.38,9.02,110.83,9.23,222.5,14.57,333.3,25.23ZM699.53,589.37l14.34-1.63c-14.55-6.01-30.72-4.09-46.13-6.21-57.58-7.86-114.38-18.9-172.61-22.32-39.51-2.31-78.98-3.68-118.5-3.58-8.73,10.86,13.43,6.6,19.49,6.87,101.69,4.62,202.42,17.36,303.42,26.88ZM322.36,578.83c1.29-2.77,11.33-11.99,5.19-14.1-9.03-3.16-17.18,18.23-18.42,25.03-1.05,5.65-1.65,14.04-1.48,19.81.25,9.97,4.9,18.61,4.48,28.23,2.87.59,5.12.25,5.65-2.95-.13-16.96-2.76-40.4,4.58-56.01ZM293.27,663.36c4.25-2.2,10.76-1.11,10.85-9.19.05-2.78-6.84-13.27-8.32-18.06-4.35-13.76-4.52-29.45-3.24-43.71.23-2.69,4.25-12.68-2.15-12.81-2.83-.05-17.86,5.64-21.59,7.14-50,20.07-82.11,42.17-127.94,71.82-20.11,9.68-39.99,19.3-59.31,29.67-13.32,10.06-30.94,9.93-34.12,29.72-1.15,7.1,3.11,37.16,10.09,41.03,9.6,5.34,37.08-9.65,45.61-14.15,11.68-6.18,36.04-15.57,48.51-21.56,49.82-23.92,65.43-20.75,114.79-46.51,8.86-4.61,17.9-8.79,26.82-13.4Z" fill="#2a5945"/>
      <path d="M743.13,684.54l-308.76,106.76s-359.03-24.96-354.8-26.59c14.77-5.22,24.39-8.36,33.47-14.82,3.88-2.76,8.18-4.87,12.78-6.1l.17-.07c2.62-.7,5.25-1.53,7.87-2.22.22-.06.52-.15.77-.21.06-.02.08-.05.14-.07,23.87-11.21,33.16-10.06,57.31-20.65,28.31-12.42,53.96-17.09,80.86-32.35,23.94-13.56,73.69-29.64,101.19-35.53,12.66-2.7,24.86-.97,35.23,4.18.43-.02.82-.07,1.25-.07,8.29-.19,22.01.6,34.39,1.74,1.09-.11,2.2-.16,3.31-.21,27.9-.85,55.68,2.15,83.32,5.97,8.26-.57,18.36-.81,23.11-.73,23.44.32,42.15,5.97,64.23,8.98,19.45,2.65,41.76,2.86,61.82,4.63,21,1.84,41.69,2.69,62.35,7.35Z" fill="#fff9cb"/>
      <path d="M742.52,611.48c5.79,1.68,5.89,10.85.41,13.63-5.14,2.61-16.67-2.28-22.85-3.12-48.24-6.62-97.91-8.53-146.31-12.29-61.13-4.77-122.56-8.59-183.45-14.48-4.84-2.82-.96-10.21,1.43-10.03l350.77,26.29Z" fill="#fff9cb"/>
      <path d="M739.63,641.03c-3.52,6.63-8.22,2.17-12.99,1.7-110.81-10.66-222.47-16-333.3-25.23-6.69-.56-7.91-9.08,3.38-9.02,53.85.23,116.16,8.84,170.78,12.91,47.93,3.57,100.25,3.62,147.65,12.39,3.92.73,23.31,5.21,24.49,7.24Z" fill="#fff9cb"/>
      <path d="M713.87,587.74l-14.34,1.63c-101-9.52-201.73-22.26-303.42-26.88-6.06-.27-28.22,3.99-19.49-6.87,39.52-.09,78.99,1.27,118.5,3.58,58.24,3.42,115.04,14.46,172.61,22.32,15.41,2.13,31.58.2,46.13,6.21Z" fill="#fff9cb"/>
      <path d="M327.55,564.73c6.14,2.11-3.9,11.33-5.19,14.1-7.33,15.61-4.71,39.06-4.58,56.01-.54,3.2-2.78,3.55-5.65,2.95.42-9.62-4.23-18.26-4.48-28.23-.16-5.77.44-14.16,1.48-19.81,1.24-6.8,9.38-28.19,18.42-25.03Z" fill="#fff9cb"/>
      <path d="M304.12,654.17c-.09,8.07-6.61,6.99-10.85,9.19-8.91,4.6-17.96,8.79-26.82,13.4-49.37,25.76-64.97,22.59-114.79,46.51-12.48,5.98-36.83,15.38-48.51,21.56-8.53,4.5-36,19.49-45.61,14.15-6.98-3.87-11.24-33.93-10.09-41.03,3.19-19.79,20.8-19.66,34.12-29.72,19.32-10.36,39.2-19.98,59.31-29.67,45.82-29.65,77.94-51.76,127.94-71.82,3.73-1.5,18.76-7.19,21.59-7.14,6.4.13,2.38,10.13,2.15,12.81-1.28,14.26-1.11,29.95,3.24,43.71,1.48,4.79,8.37,15.28,8.32,18.06Z" fill="#fff9cb"/>
    </g>
    <g>
      <path d="M319.04,872.79l352.13-22.02c5.71.03,12.16.16,19.84.46,7.68.3,16.17-2.7,16.17-2.7l.3-9.22c16.93.49,33.85.86,50.81,1.08.81.03,1.59-.27,2.24-.75,11.89-9.27,21.37-13.13,23.61-29.87,2.08-15.53-.94-22.75-3.37-36.36-.7-3.83.38-8.22-.59-11.54-1.35-4.53-5.8-5.42-6.52,1.02-1.24,10.94,1.81,24.58,1.46,36.5-.16,5.96-1.78,11.99-1.75,18.09.03,1.35-.75,2.61-1.99,3.13-3.83,1.62-6.04,5.63-9.76,7.06-29.49,11.35-48.79-.84-76.31-3.18l1.08-14.18c10.16.81,20.27,1.54,30.08,1.81,20.46.59,22.75.62,22.26-20.94-.19-8.89-2.91-23.58-5.44-31.97-.43-1.43-2.8-1.4-3.26-2.37-2.35-5.07-1.67-9.11-6.82-13.45-6.95-5.82-8.81-2.56-14.85-2.94-19.81-1.19-39.38-3.23-59.33-2.43-1.62.05-4.99-1.02-4.69,1.32,14.04,1.13,30.49,1.37,41,11.54,2.24,2.13.84,5.93-2.26,6.09-2.37.13-4.8,0-5.8-.03-5.44-.16-11.02-.67-16.66-1.4-20.49-2.64-41.83-8.06-61.46-9.43-24.45-1.67-50.78,1-75.5.05-33.56-1.29-67.47-5.2-100.97-6.85-15.36-.75-30.92-.94-46.31-1.05-1.27-.03-2.43.65-3.07,1.73l-1.51,2.48c-.54.94-.57,2.08-.16,3.1,1.29,3.32,1.89,9.65,3.07,13.48.7,2.21,3.26,3.13,5.23,1.97,1.86-1.11,3.42-2.48,6.25-2.83,38.36-4.85,93.91,1.37,133.42,2.8,40.97,1.48,82.24,3.07,122.72,5.34,3.1.16,10.73-.54,16.87.22,6.68.84,11.64,3.37,7.36,10.59-2.29,3.88-17.63,2.83-30.24,1.54-6.79-.7-12.8-1.48-15.53-1.62-45.44-2.24-90.7-4.23-136.14-5.36-30.13-.73-71.86-4.74-101.13-1.35-2.99.35-5.82,1.21-7.6,3.56-.54.67-.84,1.54-.75,2.43.16,2.4-.19,6.2-.54,10.22l-14.58-1c.92-14.47-2.72-32.13-8.65-42.99-.54-.97-4.77-7.82-5.44-8.71-6.71-8.52-21.05-8.98-31-7.82-17.33,2.08-39.06,11.43-56.09,16.66-26.36,8.11-53.64,14.8-80.24,22.21-22.1,6.15-44.5,11.19-65.93,19.65-.94.38-1.73,1.11-2.05,2.05-1.75,4.8,2.7,9.84,2.75,14.04.08,8.95-4.66,19.14-5.26,28.36-.13,1.97,1.4,3.67,3.4,3.75,5.34.27,15.18-.16,17.28-.4,1.13-.13,2.29-.27,3.45-.43l1.73,12.16c-6.71.94-13.4,1.94-20.08,3.02-3.75.62-10.24.03-15.23,1.02-4.42.86-3.15,7.52,1.32,6.95,5.18-.67,10.3-2.05,15.39-2.45,20.32-1.67,45.71-3.37,65.63-7.14,6.01-1.16,11.21-4.18,16.71-4.85,10.19-1.29,15.34.86,25.28-2.29,17.9-5.69,44.2-6.74,63.67-9.84,2.53-.4,5.15-.13,7.74-.13l-.05,9.89h-1.75c-2.02,0-77.25,11.46-82.32,13.07-.49.16-.86.27-1.21.38-3.1.49-6.23,1-9.33,1.48-15.26,2.4-30.38,5.5-45.28,9.54-1.86.51-3.72,1-5.58,1.48-.62.16-1.16.3-1.64.4-6.68,1.08-49.22,2.8-49.22,2.8l221.02,5.39ZM332.52,878.18s-287.82-4.82-288.17-6.68c-1.86-9.92-10.27-21.13-3.13-29.7,3.13-3.77,11.19.11,14.88.05,4.69-.11,17.52-.73,21.46-1.46,15.71-2.94,19.43-29.14,16.6-42.1-1.16-5.26-10.08-6.74-15.31-7.6-11.7-1.94-21.24-.3-32.26-.08-11.11.19-3.18-10.3-3.23-18.22,0-3.34-.32-5.77-.84-7.52.35-.27.73-.49,1.02-.7,2.29-1.46,4.69-2.78,7.01-4.18.49-.27.89-.51,1.24-.73,9.81-4.47,19.76-8.46,29.92-12.02,25.82-9.11,52.02-17.36,78.19-25.42,25.61-7.87,51.35-14.77,76.77-23.23,12.13-4.07,24.8-5.96,36.77-10.49,4.39-1.64,8.68-3.48,13.05-5.18.7.38,1.37.46,2.05-.16.05-.05.08-.22.08-.43,2.59-.27,5.2-.65,7.84-1.21-7.22,1.54-1.43.65,2.67.43,3.83-.19,7.63-.19,11.46-.16,6.85.03,13.69.35,20.51.08,14.88-.59,26.98-.05,41.86-.05,5.39,0,9.6-2.7,13.48-2.7,5.39,0,15.5-.08,16.17,0,8.6,1.02,5.77-.4,14.42.27,19.51,1.48,39.08,2.56,58.65,3.37,16.98.7,33.96,1.24,50.94,1.99,3.58.16,7.17.32,10.73.49,1.86.11,3.21.19,4.15.24.22.03.4.03.67.05,8.11.67,16.23,1.54,24.34,2.43,34.5,3.75,70.59,1.94,104.26,4.88,2.24.19,4.39-.54,6.5-1,.27-.05.54-.08.84-.08,15.44.78,30.7.54,46.25-.67,8.25-.65,14.96-3.96,24.34-2.45,1.05.16,13.02,6.6,14.12,7.44,12.94,9.54,35.36,47.71,37.49,63.58.89,6.55-.57,13.77.43,19.78.65,3.85,3.75,8.11,3.99,13.61.4,10.62-4.88,25.74-8.46,35.98-.89,2.51-2.72,4.23-3.94,6.85-2.56,5.63-6.74,10.43-11.89,13.88-.38.24-447.92,28.81-447.92,28.81ZM729.93,713.79c3.85-.51,5.88-7.06,1.99-8.76-5.31-2.32-31.56-.35-39.81-.65-113.05-3.88-226.01-12.56-339.46-10.89h-.32l-27.41,2.72c3.07.38,5.8,2.29,8.87,2.61,22.05,2.35,42.7,1.56,64.53,1.4,93.13-.7,186.06,11.11,278.97,13.58,17.52.46,35.12-.49,52.64-.03ZM619.42,735.32c1.62-.08,4.99,1.02,4.69-1.35l-61.4-2.61c-2.59.24-4.45-2.51-6.74-2.7-28.89-2.51-58.06-4.58-86.85-.08-.3,2.37,3.07,1.27,4.72,1.35,5.36.22,10.78-.24,16.17,0,27.98,1.35,55.79,4.34,83.5,5.44,14.47.59,31.4.54,45.9-.05ZM280.74,709.34c5.93-1.86,19.54-4.93,19.11-11.83-.08-1.51-1.29-2.8-2.8-3.07-5.44-1-8.11,3.42-11.78,4.61-28.17,9.19-60.16,14.96-88.98,22.88-38.3,10.51-75.5,22.21-113.37,34.88-4.93,1.64-18.41,3.02-21.51,8.14-5.15,8.6,6.74,4.61,11.48,3.4,56.5-14.74,112.29-35.79,168.54-49.78,12.88-3.21,26.41-5.18,39.3-9.22Z" fill="#2a5945"/>
      <path d="M780.77,773.41c2.43,13.61,5.44,20.84,3.37,36.36-2.24,16.74-11.73,20.59-23.61,29.87-.65.49-1.43.78-2.24.75-16.95-.22-33.88-.59-50.81-1.08-113.18-3.32-226.14-11.99-339.49-12.53-.43,0-.92-.11-1.35-.27-5.88-2.45-4.66-4.47,2.02-4.99,31.67-2.4,64.18.03,95.69.11,71.62.22,145.85-.94,217.09,2.59,1.29.05,2.59.16,3.85.27,27.52,2.35,46.82,14.53,76.31,3.18,3.72-1.43,5.93-5.44,9.76-7.06,1.24-.51,2.02-1.78,1.99-3.13-.03-6.09,1.59-12.13,1.75-18.09.35-11.91-2.7-25.55-1.46-36.5.73-6.44,5.18-5.55,6.52-1.02.97,3.32-.11,7.71.59,11.54Z" fill="#fff9cb"/>
      <path d="M738.72,791.17c.49,21.56-1.81,21.54-22.26,20.94-9.81-.27-19.92-1-30.08-1.81-11.62-.86-23.29-1.83-34.58-2.26-69.11-2.7-138.38-2.78-207.55-4.07l.13-7.47c50.24.94,103.42-1.35,152.16-.59,11.08.16,23.45,2.64,35.07,1.48,10.81-1.08,9.54-11.13,3.99-12.24l.73-6.5c12.61,1.29,27.95,2.35,30.24-1.54,4.29-7.22-.67-9.76-7.36-10.59l1.4-11c5.63.73,11.21,1.24,16.66,1.4,1,.03,3.42.16,5.8.03,3.1-.16,4.5-3.96,2.26-6.09-10.51-10.16-26.95-10.4-41-11.54-.3-2.35,3.07-1.27,4.69-1.32,19.95-.81,39.51,1.24,59.33,2.43,6.04.38,7.9-2.88,14.85,2.94,5.15,4.34,4.47,8.38,6.82,13.45.46.97,2.83.94,3.26,2.37,2.53,8.38,5.26,23.07,5.44,31.97Z" fill="#fff9cb"/>
      <path d="M731.93,705.03c3.88,1.7,1.86,8.25-1.99,8.76-17.52-.46-35.12.49-52.64.03-92.91-2.48-185.85-14.29-278.97-13.58-21.83.16-42.48.94-64.53-1.4-3.07-.32-5.8-2.24-8.87-2.61l27.41-2.72h.32c113.45-1.67,226.41,7.01,339.46,10.89,8.25.3,34.5-1.67,39.81.65Z" fill="#fff9cb"/>
      <path d="M707.48,839.31l-.3,9.22-36.01,2.24c-22.18-.11-33.34,1.35-63.18.49-.35-.03-.7-.08-1.02-.22-6.47-2.29-15.12-2.29-22.53-2.29-1.02,0-2.8-.16-3.32-.19-.08-.03-.19-.03-.27-.03l-86.6-5.39c-18.68,0-43.29-.62-63.58-1.29-19.78-.65-73.07-4.45-77.2-5.23-6.77-1.24-14.12-1.62-21-1.24-6.93.35-13.69,2.1-20.59,2.86-2.1.22-12.26.05-17.52,0l.05-9.89c1.67,0,3.34-.11,4.99-.62,4.29-1.35,7.95-5.15,1.86-7.52-8.38-3.29-36.31,4.5-46.12,6.39-39.54,7.65-80.57,11.7-121.16,17.47l-1.73-12.16c17.41-2.43,36.2-7.95,53.32-10.19,10.22-1.32,21.13-.46,30.75-1.59,25.15-2.99,52.67-11.56,78.41-14.58,19.33-2.26,39.16-2.05,58.57-3.42,2.96-1.02,4.12-2.94,4.99-5.82.94-3.23,1.51-6.87,1.75-10.75l14.58,1c-.57,6.93-1.13,14.42.81,16.2,3.56,3.23,8.01-.27,12.16-.13,18.87.59,37.76,1.05,56.66,1.37,69.16,1.29,138.44,1.37,207.55,4.07,11.29.43,22.96,1.4,34.58,2.26l-1.08,14.18c-1.27-.11-2.56-.22-3.85-.27-71.24-3.53-145.47-2.37-217.09-2.59-31.51-.08-64.02-2.51-95.69-.11-6.68.51-7.9,2.53-2.02,4.99.43.16.92.27,1.35.27,113.34.54,226.31,9.22,339.49,12.53Z" fill="#2a5945"/>
      <path d="M671.17,850.77l36.01-2.24s-8.49,2.99-16.17,2.7c-7.68-.3-14.12-.43-19.84-.46Z" fill="#2a5945"/>
      <path d="M671.17,850.77l-352.13,22.02-221.02-5.39s42.53-1.73,49.22-2.8c.49-.11,1.02-.24,1.64-.4,1.86-.49,3.72-.97,5.58-1.48,14.91-4.04,30.03-7.14,45.28-9.54,3.1-.49,6.23-1,9.33-1.48.35-.11.73-.22,1.21-.38,5.07-1.62,80.3-13.07,82.32-13.07h1.75c5.26.05,15.42.22,17.52,0,6.9-.75,13.67-2.51,20.59-2.86,6.87-.38,14.23,0,21,1.24,4.12.78,57.41,4.58,77.2,5.23,20.3.67,44.91,1.29,63.58,1.29l86.6,5.39c.08,0,.19,0,.27.03.51.03,2.29.19,3.32.19,7.41,0,16.06,0,22.53,2.29.32.13.67.19,1.02.22,29.84.86,41-.59,63.18-.49Z" fill="#fff9cb"/>
      <path d="M660.61,755.54l-1.4,11c-6.15-.75-13.77-.05-16.87-.22-40.48-2.26-81.75-3.85-122.72-5.34-39.51-1.43-95.07-7.65-133.42-2.8-2.83.35-4.39,1.73-6.25,2.83-1.97,1.16-4.53.24-5.23-1.97-1.19-3.83-1.78-10.16-3.07-13.48-.4-1.02-.38-2.16.16-3.1l1.51-2.48c.65-1.08,1.81-1.75,3.07-1.73,15.39.11,30.94.3,46.31,1.05,33.5,1.64,67.41,5.55,100.97,6.85,24.72.94,51.05-1.73,75.5-.05,19.62,1.37,40.97,6.79,61.46,9.43Z" fill="#fff9cb"/>
      <path d="M635.59,785.16c5.55,1.11,6.82,11.16-3.99,12.24-11.62,1.16-23.99-1.32-35.07-1.48-48.73-.75-101.91,1.54-152.16.59-14.77-.27-29.3-.84-43.37-1.83-1.46-.08-6.87-.84-7.28-1.48-2.78-4.42,8.52-7.41,11.48-7.9,23.61-3.91,50.35-1.51,73.96-1.4,52.21.24,104.12,1.86,156.41,1.27Z" fill="#2a5945"/>
      <path d="M636.32,778.67l-.73,6.5c-52.29.59-104.2-1.02-156.41-1.27-23.61-.11-50.35-2.51-73.96,1.4-2.96.49-14.26,3.48-11.48,7.9.4.65,5.82,1.4,7.28,1.48,14.07,1,28.6,1.56,43.37,1.83l-.13,7.47c-18.89-.32-37.79-.78-56.66-1.37-4.15-.13-8.6,3.37-12.16.13-1.94-1.78-.35-9.27.22-16.2.35-4.02-.32-7.82-.49-10.22-.08-.89.22-1.75.75-2.43,1.78-2.35,4.61-3.21,7.6-3.56,29.27-3.4,71,.62,101.13,1.35,45.44,1.13,90.7,3.13,136.14,5.36,2.72.13,8.73.92,15.53,1.62Z" fill="#fff9cb"/>
      <path d="M624.11,733.98c.3,2.37-3.07,1.27-4.69,1.35-14.5.59-31.43.65-45.9.05-27.71-1.11-55.53-4.1-83.5-5.44-5.39-.24-10.81.22-16.17,0-1.64-.08-5.01,1.02-4.72-1.35,28.79-4.5,57.95-2.43,86.85.08,2.29.19,4.15,2.94,6.74,2.7l61.4,2.61Z" fill="#fff9cb"/>
      <path d="M351.39,742.55c5.93,10.86,9.57,28.52,8.65,42.99-.24,3.88-.81,7.52-1.75,10.75-.86,2.88-2.02,4.8-4.99,5.82-19.41,1.37-39.25,1.16-58.57,3.42-25.74,3.02-53.26,11.59-78.41,14.58-9.62,1.13-20.54.27-30.75,1.59-17.12,2.24-35.9,7.76-53.32,10.19-1.16.16-2.32.3-3.45.43-2.1.24-11.94.67-17.28.4-1.99-.08-3.53-1.78-3.4-3.75.59-9.22,5.34-19.41,5.26-28.36-.05-4.2-4.5-9.25-2.75-14.04.32-.94,1.11-1.67,2.05-2.05,21.43-8.46,43.83-13.5,65.93-19.65,26.6-7.41,53.88-14.1,80.24-22.21,17.03-5.23,38.76-14.58,56.09-16.66,9.95-1.16,24.29-.7,31,7.82.67.89,4.91,7.74,5.44,8.71ZM308.56,756.7c2.56-4.53-4.93-6.63-8.49-6.6-13.4.16-40.62,8.46-54.58,11.59-20.05,4.47-39.51,9.97-59.33,14.8-18.03,4.37-41.83,5.9-58.33,13.1-6.82,2.96-11.59,6.36-7.63,14.34,2.91,2.02,16.63-5.71,20.51-6.85,7.9-2.26,17.6-2.37,25.5-4.15,38.71-8.73,79.84-23.8,118.95-29.3,3.8-.51,7.79.49,11.83-.32,1.46-.3,11.21-6.01,11.56-6.6ZM303.44,787.32c1.21-1.37,1.35-3.99,2.56-5.53-2.18-3.23-5.31-1.83-8.3-1.62-45.58,3.4-95.34,13.61-139.81,24.64-3.85.94-29.22,4.5-16.77,12.59,2.64,1.7,17.12-.7,21.08-1.54,27.98-5.93,56.04-13.26,84.26-18.17,10.81-1.89,51.51-4.18,56.98-10.38Z" fill="#fff9cb"/>
      <path d="M300.07,750.09c3.56-.03,11.05,2.08,8.49,6.6-.35.59-10.11,6.31-11.56,6.6-4.04.81-8.03-.19-11.83.32-39.11,5.5-80.24,20.57-118.95,29.3-7.9,1.78-17.6,1.89-25.5,4.15-3.88,1.13-17.6,8.87-20.51,6.85-3.96-7.98.81-11.37,7.63-14.34,16.5-7.2,40.3-8.73,58.33-13.1,19.81-4.82,39.27-10.32,59.33-14.8,13.96-3.13,41.19-11.43,54.58-11.59Z" fill="#2a5945"/>
      <path d="M306,781.79c-1.21,1.54-1.35,4.15-2.56,5.53-5.47,6.2-46.17,8.49-56.98,10.38-28.22,4.91-56.28,12.24-84.26,18.17-3.96.84-18.44,3.23-21.08,1.54-12.45-8.09,12.91-11.64,16.77-12.59,44.47-11.02,94.23-21.24,139.81-24.64,2.99-.22,6.12-1.62,8.3,1.62Z" fill="#2a5945"/>
      <path d="M301.25,820.2c6.09,2.37,2.43,6.17-1.86,7.52-1.64.51-3.32.62-4.99.62-2.59,0-5.2-.27-7.74.13-19.46,3.1-45.77,4.15-63.67,9.84-9.95,3.15-15.09,1-25.28,2.29-5.5.67-10.7,3.69-16.71,4.85-19.92,3.77-45.31,5.47-65.63,7.14-5.09.4-10.22,1.78-15.39,2.45-4.47.57-5.74-6.09-1.32-6.95,4.99-1,11.48-.4,15.23-1.02,6.68-1.08,13.37-2.08,20.08-3.02,40.59-5.77,81.62-9.81,121.16-17.47,9.81-1.89,37.74-9.68,46.12-6.39Z" fill="#fff9cb"/>
      <path d="M299.85,697.51c.43,6.9-13.18,9.97-19.11,11.83-12.88,4.04-26.41,6.01-39.3,9.22-56.25,13.99-112.05,35.04-168.54,49.78-4.74,1.21-16.63,5.2-11.48-3.4,3.1-5.12,16.58-6.5,21.51-8.14,37.87-12.67,75.07-24.37,113.37-34.88,28.81-7.92,60.81-13.69,88.98-22.88,3.67-1.19,6.33-5.61,11.78-4.61,1.51.27,2.72,1.56,2.8,3.07Z" fill="#fff9cb"/>
    </g>
    <g>
      <path d="M821.27,833.31c22.77,1.39,28.96,28.79,13.72,32.17-7.22,1.58-12.7-3.61-19.31-4.39-1.17,5.93-7.27,10.34-9.58,14.42-6.06,10.72-14.36,35.22-12.04,47.69.89,4.7,4.67,15.21,9.34,16.81,2.43.82,5.28.27,7.77,1.24,3.85,1.52,17.14,6.84,18.56,9.21,4.65,7.81,4.87,19.17,1.85,27.57-3.32,9.17-12.62-.56-15.55-2-8.83-4.31-26.47,1.19-36.98,1.57-38.9,1.51-80.5-2.11-120.12-.73-1.91.07-3.85.19-5.76.28-16.34-6.54-39.13-2.21-56.61-2.68-2.3-.05-4.62,0-6.96.16-5.35.39-10.74.13-16.07-.48-3.84-.44-7.72-.73-11.64-.81-26.36-.52-47.54-2.3-73.77-.18-46.38,3.78-92.8,4.65-139.23,7.16-3.09-1-6.35-1.71-9.77-2.04-54.61-5.19-108.68-13.48-163.58-15.68-27.37-1.08-54.59-1.43-81.9-4.11-20.11-1.96-40.12-3.79-60.23-4.43-1.26-1.08-2.56-2.11-3.89-3.08.49-.33.9-.65,1.15-1.04,2-3.42-7.68-3.71-9.01-4.25-4.15-1.6-5.77-9.31-8.55-13.27-4.44-6.29-10.85-7.72-12.39-17.7-3.71-23.64,7.62-34.15,11.79-55.18,3.81-4.29,9.66-2.74,13.91-4.78,1.89-.87,4.7-6.91,9.19-8.51,5.28-1.9,12.92-1.53,18.89-4.09,7.25.25,14.54.09,21.79-.03,3.05-.05,6.09-.19,9.14-.27,0,0,4.07-.09,6.63-.17,1.65.09,4.17.15,4.66.17,3.2.15,6.37.33,9.56.4,30.64.68,61.05-1.86,91.63-3.03,27.61-1.07,55.3-1.47,82.89-3.84,9.83-.86,19.61-2.09,29.36-3.45,3.62.45,7.35.57,11.18.36,50.96-3.04,89.28.46,142.35.48,6.89,0,13.77-.05,20.65-.13,2.24,0,3.7-.04,4.62-.04.78,0,1.7.03,2.87.04,11.44.21,22.83.95,34.23,1.86,26.84,2.16,53.88,1.72,80.8,1.26,6.1-.11,12.22-.22,18.35-.31-.16.01,10.07.02,10.02-.03,11.55.23,23.06.89,34.58,1.55,25.94,1.54,51.97,3.19,77.99,2.08,15.08-.64,29.97-2.65,44.76-5.52,11.61,0,24.63-.48,28.72-.22ZM780.01,913.55c.99-8.38,12.03-39.61,10.5-43.86-.36-1.06-1.21-1.6-2.25-1.86-5.19-1.32-22.46,1.51-29.44,1.67-25.67.65-51.44,1.48-77.26,2.25-47.93,1.42-96.03,2.61-143.87,2.02-15.87-.2-32.74-2.79-48.71-2.42-18.9.45-37.7,4.81-56.32,6.32-25.07,2.07-50.28,2.62-75.35,4.69-6.88,2.32-8.21,11.26-.84,13.83,7.12,2.5,12.68-1.03,19.08-1.57,14.89-1.22,29.83-.56,44.48-1.31,86.96-4.42,174.9-11.6,261.77-13.93,12.43-.34,24.81-.57,37.17-.7,7.64-.07,30.44-2.9,35.49,2.25,3,3.05.69,8.03-3.74,8.01-95.53-1.91-190.15,8.69-285.55,13.74-34.05,1.8-68.27,3.01-102.31,5.02-7.51.44-13.03-4.48-12.37,8.14.46,9.13,5.24,14.74,7.95,22.76,1.29,3.81-.99,8.89,4.29,9.54,3.57.45,8.18-.86,12.11-.73,57.82,1.77,113.57,2.24,171.58,1.46,72.61-.99,146.04-.62,218.62-2.9,5.55-.16,16.92,4.13,17.64-4.72.24-3.12-2.84-7.39-3.26-11.63-.43-3.81.14-12.11.59-16.08ZM380.07,857.93l102.9-6.41-4.76-1.05c-25.54-.3-54.24,5.94-79.36,4.94-8.45-.34-16.01-5.16-25.16-2.46.7,1.77,4.89,4.77,6.39,4.98ZM345.61,858.03l15.96-4.32c-12.19,2.89-31.08-5.14-40.23,4.5-5.9,6.26-3.29,9.2-4.74,14.88-.69,2.74-2.59,4.32-3.19,7.36-2.1,10.56.29,21.07,1.85,31.48,2.08.09,1.66-3.67,1.91-5.28,2.02-13.06.67-20.94,7.86-33.44,5.29-9.13,12.44-9.74,20.58-15.19ZM303.6,951.87c4.03-3.84-.39-5.89-1.59-9.84-6.87-22.66-7.91-45.01-3.33-68.23,1.66-8.48,10.16-18.62-2.52-20.15l-267.38,18.33c-2.43.91-10.4,19.82-10.97,23.37-2.73,16.89,11.32,32.08,24.01,41.17,28.27,20.25,38.21,2.08,63.84,4.75,5.06.52,8.35,5.29,12.65,5.83,7.24.95,16.78-.29,24.14,0,45.7,1.85,92.3,6.32,138.2,6.16,6.64-.04,17.75,3.59,22.95-1.4Z" fill="#2a5945"/>
      <path d="M790.51,869.69c1.53,4.25-9.51,35.48-10.5,43.86-.45,3.97-1.02,12.27-.59,16.08.43,4.24,3.5,8.5,3.26,11.63-.72,8.85-12.08,4.56-17.64,4.72-72.59,2.28-146.01,1.91-218.62,2.9-58.02.78-113.76.31-171.58-1.46-3.92-.13-8.54,1.18-12.11.73-5.28-.64-3-5.73-4.29-9.54-2.71-8.01-7.49-13.63-7.95-22.76-.65-12.63,4.87-7.7,12.37-8.14,34.04-2.01,68.26-3.23,102.31-5.02,95.4-5.05,190.01-15.64,285.55-13.74,4.43.02,6.74-4.96,3.74-8.01-5.05-5.14-27.85-2.32-35.49-2.25-12.36.12-24.74.35-37.17.7l-.23-7.63c25.82-.77,51.59-1.59,77.26-2.25,6.98-.17,24.25-3,29.44-1.67,1.04.26,1.89.8,2.25,1.86ZM718.88,921.95c8.62.06,19.83-2.56,17.46-13.29l-109.2,2.78,8.95,7.11c19.6,2.94,38.65,3.53,58.44,2.17,2.58-.19,5.07-1.8,7.96-1.9,4.99-.18,10.37,3.11,16.4,3.14ZM562.58,916.11c-.08-1.64-4.31-2.92-6.19-3.04-37.22-2.62-82.98,10.11-121.14,6.2-19.49,2.35-39.82,1.16-59.15,3.87-4.5.63-3.75,3.58-7.21,4.39,4.4,7.75,9.38,3.17,14.35,3.13,49.08-.3,106.4,1.26,154.91-5.6,4.17-.61,24.61-5.02,24.42-8.95Z" fill="#fff9cb"/>
      <path d="M736.33,908.66c2.37,10.74-8.84,13.35-17.46,13.29-6.02-.03-11.41-3.31-16.4-3.14-2.88.1-5.38,1.71-7.96,1.9-19.79,1.37-38.84.77-58.44-2.17l-8.95-7.11,109.2-2.78Z" fill="#2a5945"/>
      <path d="M681.56,871.75l.23,7.63c-86.87,2.33-174.81,9.51-261.77,13.93-14.64.75-29.59.09-44.48,1.31-6.39.53-11.95,4.07-19.08,1.57-7.37-2.57-6.04-11.51.84-13.83,25.07-2.07,50.28-2.62,75.35-4.69,18.62-1.51,37.42-5.87,56.32-6.32,15.96-.37,32.84,2.22,48.71,2.42,47.84.58,95.94-.6,143.87-2.02Z" fill="#fff9cb"/>
      <path d="M556.39,913.06c1.87.13,6.11,1.4,6.19,3.04.19,3.93-20.25,8.34-24.42,8.95-48.51,6.86-105.83,5.3-154.91,5.6-4.97.04-9.95,4.62-14.35-3.13,3.46-.81,2.71-3.76,7.21-4.39,19.33-2.72,39.66-1.53,59.15-3.87,38.16,3.92,83.93-8.82,121.14-6.2Z" fill="#2a5945"/>
      <path d="M482.97,851.52l-102.9,6.41c-1.5-.2-5.68-3.21-6.39-4.98,9.15-2.7,16.71,2.12,25.16,2.46,25.12,1,53.82-5.24,79.36-4.94l4.76,1.05Z" fill="#fff9cb"/>
      <path d="M361.57,853.71l-15.96,4.32c-8.14,5.45-15.29,6.06-20.58,15.19-7.19,12.49-5.83,20.38-7.86,33.44-.25,1.61.17,5.36-1.91,5.28-1.57-10.41-3.95-20.93-1.85-31.48.59-3.03,2.49-4.61,3.19-7.36,1.46-5.68-1.16-8.62,4.74-14.88,9.15-9.64,28.04-1.61,40.23-4.5Z" fill="#fff9cb"/>
      <path d="M302.02,942.03c1.19,3.95,5.61,6,1.59,9.84-5.2,5-16.31,1.37-22.95,1.4-45.9.16-92.5-4.31-138.2-6.16-7.36-.3-16.9.94-24.14,0-4.3-.54-7.6-5.31-12.65-5.83-25.63-2.67-35.57,15.5-63.84-4.75-12.69-9.09-26.74-24.29-24.01-41.17.56-3.55,8.54-22.46,10.97-23.37l267.38-18.33c12.68,1.53,4.18,11.68,2.52,20.15-4.58,23.21-3.54,45.56,3.33,68.23Z" fill="#fff9cb"/>
    </g>
    <g>
      <path d="M895.33,552.19c-25.98-21.5-27.09,12.32-36.86,16.49-12.13,5.17-30.67.71-43.39,8.62-33.97-48.95-90.66-200.45-165.43-116.38-.28.31-.58.62-.89.9l-2.27,2.05c-.16.18-1.26-5.16.29-8.24,2.06-4,2.88-8.41,1.58-12.61-1.5-4.84-1.02-9.1,1.04-13.58,1.04-2.27,1.6-4.48,1.68-6.62.18-4.18-1.43-8.1-4.76-11.62-3.36-3.52-4.46-7.52-4.26-12.33,1.12-26.09-1.73-51.8-8-77.18-6.42-25.99-19.7-47.44-41.4-63.32-10.24-7.49-21.96-12.31-33.63-17.07-3.13-1.27-3.85-2.29-1.1-4.97,7.67-7.49,12.08-16.79,13.43-27.37,1.12-8.89-.84-17.15-8.79-22.35-3.95-2.6-4.61-5.4-3.69-9.45,1.91-8.28,3.41-16.69,3.62-25.1.18-6.75-.18-13.27-1.63-19.29,0-4.03.1-8.05,0-12.08-.05-2.24.64-3.44,2.85-4.1,4.76-1.43,9.12-3.87,13.05-6.85,6.24-4.76,12.23-9.86,17.43-15.77,4-4.59,7.95-9.22,7.21-15.98-.25-2.45-.94-4.74-1.73-7.03-4.15-12.23-11.16-22.4-21.53-30.14-.92-.69-1.22-1.56-1.35-2.63-.76-6.32-2.09-12.48-4.1-18.55-2.78-8.41-7.95-14.27-16.66-16.71-8.36-2.34-16.82-3.44-25.53-2.73-13.5,1.1-26.55,3.69-38.75,9.78-1.61.79-2.96.66-4.43-.18-7.16-4.13-15.08-5.1-23.11-5.2-8.89-.1-17.17,2.47-25.07,6.27-8.71,4.2-16.28,10.22-22.83,17.17-4.79,5.04-9.55,8.41-15.16,6.65-8.99-.28-16.28.26-23.34,2.8-5.07,1.81-9.86,4.15-13.58,8.13-3.54,3.82-6.09,8.41-8.33,13.07-4.99,10.39-8.59,21.33-11.82,32.38-2.32,7.9-4,15.92-5.83,23.92-.66,2.96-.71,6.14.18,9.12,2.8,9.3,7.39,17.78,12.61,25.91,4.59,7.19,11.16,8.51,19.13,6.62,4.51-1.07,8.76-2.9,12.87-5.02,1.94-.99,3.08-.84,3.95,1.35.59,1.58,1.25,3.11,1.94,4.66.46,6.68,1.48,13.33,2.73,19.95.76,4,.28,6.62-3.69,8.79-5.55,3.03-7.59,8.61-8.23,14.68-1.35,12.94,2.7,24.21,11.39,33.68,3.31,3.59,3.21,5.02-1.45,6.93-13.43,5.53-26.4,12-37.71,21.28-22.01,18.01-32.15,42.55-37.51,69.53-4.43,22.4-6.5,45.02-5.76,67.88.1,3.69-.25,7.03-3.26,9.76-6.47,5.81-7.29,12.84-3.64,20.51,1.68,3.54,2.14,6.98.94,10.85-1.43,4.61-1.66,9.55.99,13.71,2.57,4.05.84,5.2-2.73,6.06l-.63.09c-16.65-2.51-20.14-19.47-40.14-19.37-46.2.24-73.47,84.29-92.2,114.91-17.39,28.44-24.94-1.57-37.78-5.05-5.28-1.43-7.81,2.29-15.1-.56-19.08-7.46-19.46-41.8-44.3-23.68-24.2,17.67-5.65,63.22,8.11,83.65,2.22,3.29,23.11,28.33,24.88,29.05,8.75,3.58,17.22-6.48,20.97-1.02,4.43,6.44-8.14,16.05-8.72,19.31-1.62,9.07,28.31,32.51,38.55,32.69,17.21.3,26.68-17.65,35.02-20.97,13.51-5.39,17.86,4.03,34.82-11.09,36.48-32.51,29.65-85.41,96.46-99.14,4.03-.83,7.75-1.43,11.15-1.58l3.86.12c2.5-.66,11.21,17.77,13.04,19.29,1.15.97.92,2.37.38,3.82-.41,1.17-.99,2.4-1.22,3.49-2.85,12.77-4.18,25.58-.99,38.52,2.8,11.34,13.38,14.19,21.61,19.36,2.09,1.3,5.89-.46,8.82-.13,11.16,1.2,11.54,1.15,16.31-9.5.89-2.01,1.45-2.42,3.64-1.37,7.9,3.74,14.32.84,16.92-7.54,1.35-4.33,1.89-8.82,1.17-13.4-.92-5.78-.92-11.62-.71-17.45.33-9.48,3.24-11.72,12.33-9.66,6.11,1.4,12.13,2.55,18.19-.46,8.79-4.38,9.91-13.48,2.11-19.39-3.39-2.57-7.08-4.71-10.83-7.16,13.25-5.43,60.74-5.58,77.48-.13-4.54,3.21-9.07,5.2-12.56,8.64-5.07,4.99-4.59,12.54,1.07,16.69,4,2.9,8.59,3.82,13.4,3.13,3.72-.51,7.47-1.17,11.08-2.14,4.46-1.2,6.75.81,8.2,4.64.79,2.09,1.2,4.23,1.35,6.34.23,3.26-.13,6.55-.56,9.83-.84,6.19-1.22,12.43-.23,18.57,1.5,9.22,8.36,13.2,16.74,9.89,2.98-1.17,4-.53,4.64,2.39.87,4.08,2.96,8.1,7.18,8.56,6.75.74,13.73.56,20.31-1.45,2.7-.81,4.66-4,7.36-4.99,7.31-2.67,10.06-8.33,11.77-15.29,3.18-13.05,1.3-25.79-1.53-38.55-1.32-5.94-2.78-31.09,3.24-29.4l1.49-.29c1.65-1.21,30.13,8.3,34.28,9.57,53.58,16.32,79.18,108.38,101.24,114.31,5.41,1.46,10.9-.64,16.43,1.54,9.35,3.68,19.13,24.35,35.01,25.03,11.86.51,44.39-17.06,42.04-30.08-1.09-6.05-10.49-12.18-9.13-19.92,6.09-2.12,15.51,6.49,20.03,4.94,1.88-.64,28.19-21.97,30.91-24.86,14.77-15.75,37.39-65.31,17.37-81.87Z" fill="#2a5945"/>
      <g>
        <path d="M638.15,420.85c.13.56.2,1.07.2,1.58,0,1.76-.79,3.29-2.09,4.59-1.83,1.89-3.44.41-5.04-.51-4.94-2.75-9.99-5.3-15.75-5.81-1.91-.15-4.66-1.1-5.27,1.66-.51,2.32,2.14,2.75,3.77,3.47,7.13,3.16,13.53,7.31,18.75,13.22,1.43,1.58,2.42,3.31,2.83,5.4.46,2.37.28,4.66-1.58,6.27-2.24,1.94-3.82-.41-5.4-1.4-18.04-11.34-37.28-14.27-57.66-9.73-.99.23-1.99.46-2.98.71-2.34.61-5.33,2.85-7.24-.05-.99-1.53-1.15-3.16-.76-4.69.41-1.5,1.35-2.9,2.57-4.03,3.59-3.31,4.2-5.83.59-9.76-3.41-3.72-1.61-8.76,3.67-10.7,4.38-1.61,9.05-2.68,13.68-3.31,5.55-.76,11.24-.84,16.41-1.17,12.89.61,25.25,1.68,36.21,8.54,2.27,1.4,4.41,2.93,5.1,5.73Z" fill="#fff9cb"/>
        <path d="M628.4,394.38c.36,5.86-.46,6.22-6.09,4.43-16.43-5.17-32.94-5.02-49.46-.31-6.55,1.86-6.73,1.68-7.26-5.33-.99-12.79-3.13-25.38-7.59-37.48-.25-.71-.46-1.45-.82-2.09-1.48-2.62-1.91-7.13-6.19-5.78-.51.15-.92.38-1.27.64l-11.82-.15c1.3-1.02,2.45-2.75,3.54-5.17,4.54-10.04,6.6-20.77,8.36-31.54,3.08-18.75,2.98-37.45-.05-56.21-.38-2.32-1.4-5.76,3.11-3.62,26.12,12.33,48.82,28.38,60.46,56.26,6.4,15.26,9.02,31.42,11.72,47.57,2.14,12.84,2.57,25.84,3.36,38.78Z" fill="#fff9cb"/>
        <path d="M618.15,456.32c3.49,1.78,4.61,4,4.05,8.1-3.49,26.01-13.73,49.56-25.89,72.41-.61,1.17-1.17,2.4-1.94,3.44-9.89,13.55-9.4,27.93-3.52,42.8,1.17,2.93,1.66,6.17,2.65,10.06-5.81-2.57-6.52.87-6.65,4.56-.28,7.31.18,14.68-1.35,21.94-.87,4.15-1.5,8.38-4.66,11.82.74-5.33,1.5-10.62,2.24-15.92,1.02-7.36.28-14.65-1.12-21.89-.46-2.29-1.25-5.3-4.48-4.79-2.75.43-2.83,3.26-2.93,5.48-.33,9.02.28,18.09-1.76,26.98-.71,3.11-1.68,6.17-2.75,9.17-.38,1.15-.84,2.8-2.55,2.55-1.55-.25-1.63-1.86-1.91-3.13-1.76-8.43-.71-16.84.48-25.25.76-5.45.87-10.88-.48-16.26-.56-2.17-1.02-4.84-3.9-4.82-3.06.05-3.06,2.85-3.36,5.02-1.22,8.94-1.43,18.06-5.48,26.4-.99,2.01-1.91,4.08-3.01,6.06-.64,1.15-1.63,2.24-3.13,1.91s-1.94-1.76-2.17-3.06c-.56-2.98-.13-5.96.13-8.97.51-5.83,1.07-11.67.66-17.48-.18-2.42-.54-4.84-1.15-7.24-3.11-12.41-8.74-15.77-21.02-12.54-3.82,1.02-7.62,2.09-11.64,1.61-1.43-.2-3.31-.1-3.59-2.01-.2-1.53,1.38-2.17,2.45-2.78,8.82-5.1,16.28-12.26,25.53-16.59,11.08-5.2,16.26-14.6,19.08-25.78,5.76-22.7,8.46-45.84,10.57-69.07.66-7.19,1.1-8.46,7.44-9.55.43-.08.87-.15,1.35-.23,15.34-2.34,29.94,0,43.8,7.03Z" fill="#fff9cb"/>
        <path d="M592.01,78.59c.71,6.85-2.01,12.31-6.96,16.89-6.34,5.83-13.61,10.27-21.22,14.22-1.81.92-2.6.43-2.32-1.48.13-.74.18-1.4.15-2.06-.54-.15-.79-.71-.61-1.83.05-.31.03-.59.05-.89-1.04-2.85-3.54-4.79-6.62-6.4-4.33-2.29-8.92-3.85-13.55-5.3-.84-.25-1.58-.59-2.42-1.22,1.38-.74,2.78-1.38,4.2-1.94-.74-.23-1.5-.48-2.24-.71-.84-.28-1.61-.59-2.45-1.22,4.43-2.42,9.15-3.64,13.68-5.25.36-.13.66-.25.97-.41-.33-.05-.66-.1-1.04-.1-7.41.1-14.4,2.09-21.07,5.1-3.69,1.68-7.21,2.52-11.31,1.73-3.52-.64-7.19-.48-10.8-.69-.69-.05-1.53.2-1.96-.46-.51-.82.23-1.48.64-2.11.28-.43.56-.87.84-1.32-.66-.03-1.53.23-1.96-.46-.48-.82.25-1.48.64-2.09,2.6-4.03,5.22-8.03,7.82-12.05l.69-1.15c-.05.03-.13.08-.2.1-6.52,3.11-11.52,8.08-16.05,13.55-4.56,5.53-4.48,5.66-11.62,5.96-10.52.43-20.97,1.43-31.21,3.9-2.75.64-5.48,1.35-8.15,2.27-1.5.51-2.45.28-3.49-.89-4.82-5.25-9.61-10.55-15.11-15.13-1.35-1.1-2.7-2.17-4.13-3.11-.99-.66-1.96-1.45-3.08-.15-.13.15-.2.31-.31.43,2.42,3.31,4.84,6.62,7.26,9.94,1.53,2.11,3.18,4.1,4.97,5.96-.71.33-1.4.69-2.09,1.02,1.15,1.43,2.34,2.8,3.69,4.05.97.92.89,1.55-.38,2.04-1.83.71-3.64,1.48-5.45,2.19-1.07.43-2.17.31-3.26,0-9.45-2.57-18.78-2.01-27.98,1.27-2.32.82-4.36,2.14-6.47,3.36-.51.31-.99.64-1.38,1.02.97.59,2.09-.13,3.06-.54,5.96-2.47,12.2-3.18,18.57-3.44,1.15-.05,2.22.18,3.24.76-.82.74-1.63,1.5-2.4,2.32-.46.28-.92.56-1.35.84.33-.03.64-.03.97-.05,1.35-.05,2.6.25,3.82,1.1-3.34,2.47-7.11,4.18-10.01,7.11-.51.54-1.45.92-1.02,1.89.36.76,1.2.61,1.89.64,4.18.25,7.85-1.58,11.39-3.29,11.87-5.68,24.28-9.76,37.12-12.48,4.89-1.04,9.94-1.25,14.83-2.24,9.78-1.94,19.67-1.78,29.53-1.73,10.65.03,21.05,1.83,31.36,4.26l.31.08c-1.02-1.66-2.14-3.16-3.36-4.56.87.2,1.71.38,2.57.59,6.04,1.43,11.95,3.24,17.63,5.73,2.01.87,2.78,2.14,2.75,4.36v1.53c.31.66.48,1.4.48,2.34-.1,8.26,0,16.49,0,24.74,0,2.78-.54,3.06-3.26,2.37-4.79-1.2-9.68-1.86-14.57-2.42-4.13-.48-8.23-.99-12.33-1.48-.94-.13-1.86-.31-2.8-.33-10.68-.23-21.35-.36-32,.08-6.47.25-12.92,1.12-19.36,1.96-8.15,1.07-16.26,2.5-24.23,4.48-14.93,3.67-29.56,8.31-42.91,16.31-3.8,2.27-3.82,2.22-5.81-1.83-.2-.43-.41-.84-.61-1.25-1.53-3.08-1.4-2.93,1.2-5.17,3.59-3.08,7.59-5.91,9.48-10.57.33-.84,1.15-1.81.31-2.6-.84-.74-1.58.28-2.29.66-8.64,4.76-17.25,9.63-26.47,13.25-4.23,1.66-8.61,3.03-13.27,1.81-2.4-.61-4.33-1.96-5.66-3.97-3.8-5.86-7.44-11.8-9.61-18.5-.64-1.99-.94-3.97-1.02-5.96-.82-3.82-.56-7.67.23-11.41,2.45-11.41,5.73-22.6,9.58-33.61,3.16-9.07,6.83-17.91,13.07-25.38,5.1-6.06,11.75-9.12,19.59-9.89,3.77-.38,7.52-.46,11.26.08.51.08,1.2-.15,1.5.38.36.71-.31,1.15-.66,1.63-.43.59-.87,1.17-1.27,1.76.31.05.59.05.89.1.54.08,1.22-.15,1.53.41.36.69-.33,1.12-.69,1.61-3.16,4.31-6.19,8.71-8.61,13.48,1.32.76,2.22,0,3.01-1.1,6.01-8.08,12.77-15.52,20-22.5,7.24-6.98,15.24-13.1,24.23-17.71,5.33-2.73,11.08-4.15,17.02-5.22,6.04-1.07,11.67.03,17.33,1.68.82.23,1.96.38,2.14,1.25.2,1.02-.99,1.27-1.68,1.73-.31.2-.59.43-.87.66.31.08.59.15.89.25.82.23,1.96.36,2.14,1.25.2.99-1.02,1.27-1.68,1.71-2.68,1.81-4.82,4.2-7.06,6.45.71.46,1.48.31,2.37-.31,10.6-7.36,22.32-12.43,34.68-15.95,5.48-1.55,11.13-2.34,16.77-3.26,5.43-.89,10.8-.97,16.18-.64,5.45.33,10.83,1.58,15.72,4.26,5.89,3.24,8.82,8.79,11.19,14.68,2.5,6.09,3.97,12.41,4.56,18.91.48,3.26.74,6.55.76,9.89.08.08.13.13.23.18.71.28,1.17-.25,1.53-.79,1.32-2.04,2.7-4.08,2.98-6.57.15-1.45.66-1.94,1.83-.69,6.85,7.29,12.89,15.03,13.99,25.48.05.48.05.94.08,1.43.15.82.31,1.61.41,2.45Z" fill="#fff9cb"/>
        <path d="M558.38,201.45c.99,6.55-.28,12.71-3.67,18.4-1.4,2.32-3.16,4.43-4.76,6.65,0-9.22,3.03-17.5,4.66-26.09.18-.92.61-1.99,1.71-1.89,1.66.13,1.89,1.66,2.06,2.93Z" fill="#fff9cb"/>
        <path d="M554.02,397.71c.33,4.2-.2,8.2-2.01,12.1-2.27,4.92-2.9,9.96-1.32,15.36,1.02,3.44-.05,6.68-1.07,9.94-.56,1.81-1.1,3.64-1.22,5.5-.51,6.73-6.8,6.73-11.36,8.2-18.14,5.86-36.77,9.81-55.62,12.05-16.31,1.94-32.21-1.94-47.88-6.06-9.1-2.37-18.01-5.43-27.01-8.15-3.82-1.17-5.45-3.36-5.96-7.67-.08-.64-.15-1.25-.23-1.86-.82-6.27-1.94-12.43-.79-18.78.18-.87.08-1.96-.31-2.78-7.82-16.59-2.01-33.2-.15-49.81.48-4.1,1.32-8.18,1.76-12.28.23-2.27-.05-4.82-2.68-5.63-.43-.13-.82-.2-1.15-.2l10.52-4.89c3.77,8.28,7.03,8.71,14.78,2.78,3.87-2.96,7.92-5.71,12.05-8.31,5.48-3.47,11.21-4.1,17.1-.84,1.45.79,3.01,2.19,4.56.51,1.35-1.45.79-2.9-.03-4.33l2.01-1.25c5.35,8.74,9.83,17.99,12.69,28.26.56,2.04.71,5.07,3.44,5.3,2.98.25,3.11-2.88,3.72-4.87,3.29-10.52,8.31-20.03,14.12-29.07l1.63,1.04c-.89,1.27-1.48,2.65-.41,4.18,1.53,2.14,3.41.36,5.04-.31,6.27-2.47,12.23-1.73,17.71,2.01,4.05,2.75,7.9,5.78,11.82,8.69,4.28,3.18,7.47,3.87,10.12,1.76l11.82.15c-2.06,1.58-1.17,4.76-.79,7.26,1.1,7.64,2.42,15.24,3.36,22.91.79,6.32,1.2,12.71,1.73,19.08Z" fill="#fff9cb"/>
        <path d="M541.03,191.84c1.78,1.53,1.81,3.69,1.27,5.76-5.43,20.92-8.46,42.55-16.82,62.6-8.08,19.36-21.58,33.33-43.03,37.89-1.1.23-2.22.41-3.34.51-1.5.13-3.01.13-5.25.23-17.4-.28-30.17-10.27-41.28-23.24-7.69-8.99-11.41-19.92-14.5-30.96-4.08-14.68-7.13-29.61-10.83-44.38-.89-3.64-.48-6.5,2.06-9.33,6.04-6.73,8.79-14.47,8.59-23.72-.2-9.58,5.22-12.77,14.14-9.27,3.54,1.38,6.65,3.41,9.61,5.81,14.55,11.95,33.61,12.84,49.25,2.42,4.69-3.13,9.33-6.34,13.99-9.53,3.69-2.52,7.75-3.67,12.23-3.57,8.43.15,14.06,4.61,13.94,12.94-.15,10.22,2.09,18.96,9.96,25.84Z" fill="#fff9cb"/>
        <path d="M540.11,258.83c1.91,12.46,2.17,24.84,1.25,37.17-.82,11.26-3.47,22.27-6.22,33.22-1.12,4.48-2.8,5.91-6.52,2.11-2.65-2.7-5.81-4.82-9.22-6.45-9.22-4.41-18.7-2.22-24.74,5.71-.33.43-.71.89-1.04,1.38l-1.63-1.04c4.76-7.49,10.06-14.7,15.26-21.99,8.54-11.9,18.73-22.57,25.86-35.44,2.62-4.74,4.69-9.78,7.01-14.68Z" fill="#fff9cb"/>
        <path d="M494.38,308.99c-4.38,6.09-8.05,10.78-11.24,15.77-2.5,3.92-4.41,8.26-6.62,12.41-.74,1.4-1.94,3.9-3.29.89-4.61-10.34-11.08-19.49-17.43-29.1,12.59,3.59,24.92,3.62,38.58.03Z" fill="#fff9cb"/>
        <path d="M458.02,331.31l-2.01,1.25c-.15-.25-.33-.54-.48-.79-6.4-10.57-20.28-12.13-31.62-3.54-8.23,6.22-8.15,6.19-10.73-4.1-4.66-18.57-6.68-37.4-5.68-56.51.15-2.96-.1-6.01,1.61-8.94,2.5,2.04,2.5,5.1,3.62,7.54,3.87,8.46,9.81,15.47,15.08,23.01,9.89,14.12,21.22,27.36,30.22,42.09Z" fill="#fff9cb"/>
        <path d="M439.01,570.46c1.12.54,2.6,1.27,2.4,2.83-.28,1.96-2.09,1.89-3.54,2.04-4.61.48-8.94-.71-13.33-1.94-9.66-2.73-16.13,1.04-18.6,10.88-1.68,6.8-2.52,13.68-1.48,20.71.71,4.84.82,9.73.38,14.63-.13,1.53-.41,3.18-2.09,3.72-2.17.66-2.98-1.25-3.75-2.65-4.66-8.41-6.24-17.68-7.24-27.08-.1-1.12.03-2.27-.2-3.36-.56-2.62.03-6.57-3.82-6.47-3.49.13-3.75,3.92-4,6.62-.64,6.55-.51,13.15.33,19.7.84,6.57.89,13.15-.08,19.7-.18,1.22-.38,2.93-1.91,3.18-1.89.33-2.55-1.43-3.06-2.78-2.06-5.68-2.9-11.64-3.24-17.68-.33-6.01-.56-12.03-.87-18.04-.13-2.32-.36-4.94-3.24-5.15-2.98-.23-3.47,2.5-3.85,4.69-1.91,10.68-1.71,21.35.13,32.03.31,1.78,1.27,3.57-.28,6.42-3.62-6.8-3.8-13.43-4.28-19.92-.38-5.04-.15-10.14-.46-15.21-.13-1.96-.25-4.51-2.73-5.12-2.73-.69-2.88,2.37-4.74,4.08.38-4.18,1.17-8.15,2.22-11.98.99-3.69,2.19-7.29,3.41-10.8,3.18-9.27,1.96-17.53-2.55-25.99-8.56-16.13-16.69-32.46-23.24-49.56-4.26-11.11-6.7-22.7-8.71-34.4-.54-3.08.56-5.1,3.08-6.6,14.96-8.71,31.11-9.22,47.65-7.01,4.99.66,5.71,4.66,6.06,8.84,1.68,19.31,4.23,38.5,8.1,57.51,1.45,7.19,3.44,14.24,6.01,21.15,2.7,7.31,7.34,12.77,14.27,16,9.78,4.56,17.5,12.36,27.21,17.02Z" fill="#fff9cb"/>
        <path d="M407.11,341.81c.15.33.28.64.43.94l-10.52,4.89c-2.09,0-2.9,2.14-3.69,3.85-4.99,10.5-7.03,21.78-8.64,33.17-.38,2.78-.76,5.58-1.02,8.41-.71,7.49-.66,7.47-7.59,5.38-16.33-4.89-32.66-4.76-48.89.38-4.2,1.32-5.81.61-5.76-4.05.31-23.62,3.39-46.86,9.05-69.76,7.59-30.83,26.42-52.67,54.25-67.21,3.82-2.01,7.64-4,11.52-5.91,3.52-1.73,4.54-.2,3.85,3.13-1.1,5.35-1.66,10.75-2.17,16.2-2.17,23.08,1.94,45.33,8.05,67.39.31,1.07.69,2.14,1.15,3.18Z" fill="#fff9cb"/>
        <path d="M395.06,201.86c1.76,8,3.36,16.03,5.04,24.03-6.88-6.52-9.99-14.37-9.33-23.59.1-1.45.43-3.39,2.09-3.64,2.17-.33,1.91,1.94,2.19,3.21Z" fill="#fff9cb"/>
        <path d="M389.27,437.23c.1,1.2-.08,2.4-.92,3.47-1.5,1.94-3.39.87-5.17.36-1.17-.33-2.37-.66-3.54-.94-21.25-5.3-41.35-2.55-60,10.22-1.43.97-2.78,2.04-4.56.79-1.61-1.12-1.78-2.73-1.63-4.51.31-3.31,1.58-6.11,3.9-8.54,5.04-5.27,11.26-8.74,17.66-11.98,1.71-.87,4.74-.99,3.82-3.85-.79-2.47-3.49-1.73-5.48-1.55-5.53.48-10.55,2.47-15.39,5.15-1.61.89-3.41,3.18-5.35.54-1.63-2.22-2.47-4.66-.71-7.31,1.83-2.78,4.61-4.38,7.49-5.81,11.08-5.5,23.08-6.32,35.75-6.57,7.64.82,15.98.48,24.03,2.75,8.82,2.5,10.45,6.4,5.55,14.14-1.45,2.34-1.25,4.18.43,6.11,1.48,1.71,3.06,3.36,3.69,5.61.18.64.36,1.3.43,1.94Z" fill="#fff9cb"/>
      </g>
    </g>
  </g>
  <path d="M70.41,923.59s-5.81-33.55-5.33-33.63c15.75-2.49,27.36,34.45,32.29,33.67,0,0-6-33.53-5.33-33.64,13.68-2.17,5.62,37.04,26.9,33.67.68-.11-6.01-33.54-5.33-33.64,0,0,22.86,35.73,35.74,33.69.69-.11-5.59-33.62-5.33-33.66l33.91,33.7c.69-.11-5.33-33.67-5.33-33.67,10.29-1.63,9.97,37.42,33.4,33.71.7-.11-6.03-33.57-5.33-33.68,22.72-3.6,24.05,34.87,31.3,33.72.7-.11-5.84-33.61-5.34-33.69" fill="none" stroke="#2a5945" stroke-linecap="round" stroke-linejoin="round" stroke-width="8"/>
</svg>