<?xml version="1.0" encoding="UTF-8"?>
<svg id="Layer_1" data-name="Layer 1" xmlns="http://www.w3.org/2000/svg" viewBox="0 0 400 400">
  <path d="M166.66,235.62c-2.9.14-4.65-.2-4.94.3-5.13,8.88-13.63,3.36-20.43,4.93-2.06.47-4.09,1.08-6.17,1.63-6.48-8.6-8.65-9.67-14.56-7.61-4.78-2.59-9.16-4.96-13.59-7.35,3.65-6.15.4-13.31-8.02-18.1-11.39-6.48-22.8-12.93-34.23-19.33-13.29-7.45-22.24-26.02-20.01-41.18,1.69-11.49,3.02-22.8,8.16-33.7,9.07-19.25,21.83-32.98,43.71-36.69,12.58-2.13,25.05-4.9,37.53-7.61,9.59-2.08,16.19-7.88,18.27-17.54,2.22-10.28,3.62-20.74,5.3-31.14,1.26-7.8,5.09-11.81,12.94-11.47,6.4.28,12.91,1.45,19.05,3.29,6.08,1.82,9.55,6.28,8.73,13.3-1.14,9.78-2.39,19.58-2.92,29.4-1.03,19.11,6.69,34.33,21.53,46.21,5.24,4.2,9.98,9.03,15.22,13.22,14.87,11.91,19.07,28.11,19.01,46.11-.01,4.81,0,9.63,0,14.8,6.5-.23,7.91-4.64,9.82-8.59,3.7-7.65,7.04-15.52,11.35-22.81,10.71-18.13,26.84-23.38,48.84-16.38,7.04,2.24,14.29,4.13,20.9,7.31,4.44,2.13,8.42,5.81,11.7,9.58,3.57,4.1,1.08,8.31-1.61,12.21-1.59,2.31-3.03,4.86-3.86,7.51-2.16,6.91-4.14,13.9-5.75,20.96-.5,2.19.23,4.75.74,7.07.94,4.29,1.39,8.15-4.31,9.37-1.05.23-2.76.88-2.85,1.52-.96,7.2-7.42,8.9-11.83,12.88-6.89,6.23-8.99,7.76-17.41,3.71-5.23-2.52-8.85-2.03-12.09,2.62-4.55,6.54-8.7,13.42-13.81,19.48-6.73,7.98-14.08,15.45-21.44,22.87-3.71,3.74-8.03,6.87-13.06,11.11,4.06,2.17,6.89,3.75,9.77,5.21,21.47,10.82,29.38,27.91,23.49,51.12-2.31,9.12-4.71,18.23-7.41,27.24-1.18,3.95-.34,6.55,3.3,8.27,5.66,2.67,11.26,5.51,17.05,7.88,3.72,1.52,7.4,2.77,6.78,7.73-.65,5.17-4.85,4.41-8.34,4.5-7.17.2-14.35.2-21.52.42-5.9.19-11.5.31-15.92-4.95-2.77-3.3-6.31-2.01-8.62,1.03-3.12,4.12-7.17,4.87-11.89,4.55-8.53-.59-10.81-3.39-10.15-12.04,1.06-13.83,2.15-27.66,2.69-41.51.17-4.35-.8-8.98-2.34-13.07-.95-2.51-3.67-5.15-6.18-5.97-1.49-.49-4.73,1.99-6.08,3.91-5.16,7.31-10.07,14.82-14.72,22.48-6.56,10.82-17.25,15.43-28.63,16.56-13.02,1.3-26.33.35-39.46-.42-5.18-.3-8.93.59-11.23,5.11-3.14,6.19-5.6,12.74-9.02,18.76-1.27,2.24-4.43,3.42-6.72,5.08-1.45-2.21-4.01-4.36-4.15-6.65-.58-9.61-.83-19.29-.35-28.9.16-3.17,2.47-6.57,4.59-9.23,2.95-3.68,3.33-6.96-.24-9.94-4.38-3.66-4.7-8.36-4.44-13.41.4-7.57,3.14-9.51,10.65-9.26,11.18.36,22.39.32,33.56-.11,9.42-.36,9.31-.71,9.36-10.37.08-17.59,1.74-34.97,8.68-51.38,1.94-4.6,4.59-8.9,7.56-14.55ZM65.32,148.23c.65-.06,1.31-.13,1.96-.19.35,20.17,10,35.41,24.27,50.01,1.62-10.43,1.87-19.03,4.49-26.84,2.63-7.86,7.6-14.93,11.55-22.34-1.6,15.03-4.37,29.28-6.11,43.66-.48,3.96.89,9.48,3.54,12.27,14.94,15.71,34.59,20.46,55.33,21.23,7.7.29,12.68-4.43,14.96-12.18-3.62,1.46-6.53,3.15-9.65,3.74-3.32.63-6.85.23-10.28.28.32-2.89.66-5.79.94-8.69.04-.4-.25-.82-.4-1.23-16.97-5.91-23.97-19.63-4.84-32.59,2.21-1.49,5.84-2.04,8.48-1.48,5.44,1.15,10.6,3.6,16,5.05,9.51,2.55,15.26-3.09,14.66-12.84-.64-10.33-.14-20.72-.14-31.08,5.03,10.49,6.78,21.15,3.75,32.47-1.63,6.08-.19,7.27,5.87,6.59,13.25-1.5,25.74,1.96,37.89,6.51,4.88,1.83,7.42,1.16,7.99-3.98,1.71-15.4,1.94-31.12-7.35-44.12-6.9-9.66-15.79-18.29-25.12-25.72-16.2-12.9-26.44-27.83-23.5-49.49.23-1.69-.4-3.5-.62-5.26-.76-.02-1.52-.04-2.28-.07-.84,5.63-1.69,11.26-2.53,16.89-1.47-11.51-6.14-23.36,4.55-35.25v12.81c.87.08,1.73.15,2.6.23.75-5.03,1.59-10.05,2.2-15.1.43-3.56-1.18-5.22-4.97-5.46-5.8-.37-11.59-1.1-17.33-2.05-9.44-1.57-9.75-1.73-10.52,7.81-1.64,20.14-6.82,37.87-27.34,47.17-10.84,4.91-21.27,10.72-31.88,16.12-.37-.65-.74-1.3-1.12-1.94,6.88-4.52,13.77-9.05,20.65-13.57-.29-.67-.57-1.35-.86-2.02-8.76,2.21-17.64,4.02-26.22,6.78-5.63,1.81-11.81,3.92-16.04,7.76-16.81,15.3-26.37,34.91-30.34,57.1-2.01,11.22,7.75,26.51,17.78,28.63v-29.64ZM199.81,247.64c-.79.5-1.58,1-2.37,1.5-1.35-1.59-2.82-3.1-4.04-4.78-2.75-3.81-5.05-8-8.18-11.44-1.43-1.57-4.4-1.73-6.67-2.54.54,2.1.44,4.75,1.71,6.2,10.25,11.67,21.39,22.21,36.36,27.83,6.28,2.36,12.17,5.8,18.53,7.87,3.16,1.03,7.78,1.35,10.35-.24,14.8-9.19,27.76-20.31,35.29-36.7,3.92-8.54,3.25-14.77-4.21-23.1-1.52,12.17-4.35,23.05-18.82,24.19,1.2-2.55,3.1-4.48,5.11-6.27,9.01-8.03,9.36-15.65.73-23.98-5.47-5.28-11.12-10.4-16.99-15.22-13.01-10.69-28.5-11.9-44.39-10.62-2.02.16-4.92,2.48-5.55,4.4-1.65,5.07-2.34,10.46-3.27,15.75-.92,5.2,1.41,7.88,6.64,7.24,8.14-1,14.85,1.9,21.06,6.76,5.28,4.14,10.73,8.07,16.01,12.21.66.51.76,1.73,1.12,2.62-.35.45-.71.89-1.06,1.34-2.96-1.64-6.06-3.07-8.84-4.96-4.81-3.26-9.31-7-14.18-10.17-4.05-2.63-11.71-.78-15.21,4.45-1.21,1.81.31,6,1.48,8.71,2.14,4.95,4.95,9.61,7.48,14.39-.82.53-1.65,1.06-2.47,1.59-4.95-6.75-9.9-13.51-14.85-20.26-.77.47-1.55.94-2.32,1.42,3.85,7.27,7.71,14.54,11.56,21.82ZM315.55,205.85c4.95-1.35,10.53-1.28,13.19-4.03,2.79-2.89,4.39-4.17,8.11-2.84,4.23,1.52,6.51.11,4.44-4.43-2.73-5.97-2.46-11.44.61-17.2,1.44-2.7,2.01-5.93,2.62-8.99,1.21-6.01-.67-7.74-6.76-6.65-7.98,1.43-15.91,2.4-23.4-2.08-.74-.44-1.87-.22-3.33-.36,1.18,2.36,2.03,4.05,3.74,7.47-6.12-2.53-10.64-4.4-15.41-6.37-1.01,2.53-1.74,4.33-1.94,4.86-3.29-1.36-6.25-3.78-8.69-3.33-4.94.91-8.18,8.68-6.64,13.75,2.68,8.81,1.85,10.36-7.47,12.59-5.16,1.24-5.44,3.15-2.36,7.36,4.6,6.29,8.47,13.11,12.65,19.71,1.24,1.96,2.47,3.93,4.11,6.53,7.12-7.47,14.06-8.5,22.21-3.09,1.64,1.09,6.3-.64,8.24-2.48.97-.92-.82-5.09-1.79-7.62-.57-1.48-2-2.63-2.13-2.8ZM158.91,214.56c5.12.61,15.46-3.62,16.46-7.46,1.69-6.47,2.65-13.14,3.74-19.75.15-.92-.43-2.68-1.08-2.91-7.19-2.5-14.45-4.77-21.69-7.11-.6.8-1.2,1.6-1.81,2.4,3.32,1.99,6.64,3.97,9.95,5.96-.64.76-1.28,1.52-1.93,2.28-4.18-2.54-8.36-5.08-13.29-8.09-2.29,9.54,7.06,10.34,9.5,16.3-4.95-1.84-9.91-3.68-15.46-5.74-.14,7.3,4.06,9.68,9.22,11.29q11.54,3.61,6.38,12.82ZM180.11,202.28c1.29,1.6,2.73,3.4,4.18,5.2,1.16-1.84,2.88-3.53,3.36-5.53,1.15-4.74,1.88-9.6,2.42-14.45.19-1.66-.69-3.44-1.08-5.16-1.44,1.14-3.65,2.01-4.18,3.47-1.79,5.01-2.98,10.23-4.71,16.47ZM319.53,145.39c5.68,2.74,11.37,5.48,18.15,8.75-1.82-7.5-6.74-9.77-18.15-8.75ZM248.13,185.26c3.68,2.89,6.3,5.08,9.15,6.94.24.16,1.92-1.86,2.93-2.87-2.46-2.26-4.83-4.65-7.5-6.64-.42-.31-2.2,1.19-4.58,2.56ZM350.75,154.34c3.04-6.25,1.19-9.48-6.42-11.58,2.21,3.99,4.06,7.32,6.42,11.58ZM270.35,173.42c-.93.94-1.86,1.88-2.79,2.82,2.81,2.5,5.61,5,8.42,7.51.75-.77,1.5-1.54,2.25-2.32-2.62-2.67-5.25-5.34-7.87-8.02ZM300.41,151.64c-3.62-1.91-6.41-3.45-9.3-4.76-.21-.1-1.17,1.45-1.78,2.24,2.91,1.46,5.82,2.93,8.74,4.37.08.04.33-.25,2.35-1.85ZM270.95,204.68c.45-.44.91-.88,1.36-1.32-1.45-2.4-2.74-4.92-4.46-7.11-.5-.63-2.24-.29-3.41-.39.02,1.19-.44,2.84.16,3.48,1.9,1.99,4.2,3.59,6.34,5.34Z"/>
  <path d="M75.99,348.41c.56,2.21,1.07,4.44,1.69,6.64,1.45,5.13,3.08,10.21,4.35,15.38.3,1.21-.54,2.7-.85,4.06-1.15-.43-2.59-.57-3.39-1.35-4.28-4.14-6.21-18.74-1.79-24.73Z"/>
  <path d="M69.62,368.46c-6.71,0-6.98-4.75-7.54-8.31-.52-3.3.27-9.78.76-9.81,5.62-.3,4.41,4.96,5.43,8.19.96,3.03.92,6.37,1.36,9.93Z"/>
  <path d="M291.95,324.35c-.71-6.82-1.41-13.64-2.23-21.6,7.41,4.8,8.93,15.2,4.49,21.4-.75.07-1.5.14-2.26.21Z"/>
  <path d="M299.12,297.76c7.72,3.41,9.63,14.44,4.69,22.19-1.71-8.12-3.2-15.15-4.69-22.19Z"/>
  <path d="M135.18,114.6c5.46-10.47,10.93-20.95,16.68-31.97,2.64,6.63-8.23,28.78-16.68,31.97Z"/>
</svg>