<?xml version="1.0" encoding="UTF-8"?>
<svg id="Layer_1" data-name="Layer 1" xmlns="http://www.w3.org/2000/svg" viewBox="0 0 400 400">
  <path d="M225.41,381.52c-2.97-.55-4.54,1.18-6.28,2.32-3.84,2.54-7.75,4.83-12.46,5.34-1.53.17-3.27.25-4.07-.94-1.03-1.51,1-2.24,1.68-3.31,1.5-2.39,4.36-3.14,6.88-5.21-2.37-.33-3.93.32-4.95,1.42-3.22,3.47-7.57,4.9-11.6,6.95-2.67,1.36-3.72-1.17-5.14-2.16-.88-.62.76-2.1,1.63-2.93,2.98-2.82,20.91-28.62,24.38-30.76.79-.49,10.03-10.71,10.15-11.8-1.36-.43-2.45.11-3.43.97-5.38,4.71-35.29,40.11-41.04,44.28-2.27,1.64-5.55,1.9-8.38,2.77-.54.17-1.16.31-1.58-.24-.5-.65-.06-1.23.17-1.88.98-2.82,3.44-4.13,5.61-5.77,1.74-1.31,4.48-28.02,5.21-30.42-8.47,1.24-15.26,32.52-22.33,36.31-1.91,1.02-3.87,1.97-5.88,2.76-1.57.61-3.32.7-4.22-1.08-.98-1.95.77-3.09,1.98-3.75,2.54-1.39,4.7-3.12,6.76-5.38-2.61-1.69-4.28.6-5.86,1.37-5.96,2.88-11.93,5.72-18.04,8.28-1.26.53-2.45,1.13-3.52,2.06-.91.79-2.16.35-2.74-.5-.85-1.24.52-1.28,1.23-1.73,4.62-2.9,7.41-7.7,12.49-11.23-2.34-.43-3.04.72-3.86,1.28-4.11,2.8-9.02,4.27-12.77,7.65-.69.62-1.26.66-2.14.34-1.92-.68-3.94.17-5.01,1.38-1.39,1.57-3.02,1.77-4.7,2.16-.97.22-2.14,1.31-2.97-.33-.69-1.36.33-2.2,1-3.03,1.57-1.95,4.42-2.42,6.29-5.65-9.32,4.6-16.96,11.43-27.39,10.29-.42-1.53,1.82-1.06,1.48-2.65-1.1.04-2.27-.36-3.37.52-2.88,2.29-6.3,2.89-9.85,3.09-1.44.08,6.76-28.51,6.34-30.32-.41-1.76-38.03,9.41-36.1,8.53,6.86-3.13,63.57-25.76,70.66-28.52,9.17-3.58,14.23-10.89,17.07-19.99.82-2.62,1.5-5.29,2.54-7.82,1.17-2.84,3.83-4.08,6.6-4.29,4.98-.39,10.01-1.23,14.96.55,1.54.55,3.31.97,4.15,2.24,2.09,3.16,4.92,2.66,8.21,2.32-3.71-6.63-9.12-10.51-16.17-11.94-4.55-.92-9.09-2.46-13.89-1.22-1.19.31-2.95.57-3.24-1.49-.28-1.96.48-3.42,2.51-3.86,10.29-2.21,19.96-.87,28.83,5.09,2.63,1.77,5.45,3.16,6.14,6.8.18.95,1.18,2.89,3.01,1.67,1.73-1.15,1.81-2.94.45-4.29-4.58-4.52-9.02-9.12-15.24-11.67-6.23-2.55-12.55-4.13-19.26-4.15-1.05,0-2.01-.3-2.94-.81-1.3-.71-1.87-1.96-1.58-3.17.31-1.3,1.66-1.84,3.01-1.85,6.41,0,12.84.44,18.98,2.21,4.82,1.39,8.58,5.08,12.96,7.52,3.7,2.06,6.96,4.72,8.05,9.21.19.77.92,1.51,1.83.86.65-.47.8-1.19.35-2.11-4.24-8.74-11.63-13.76-20.2-17.51-5.32-2.33-10.7-4.41-16.53-5.04-.97-.11-1.88-.22-1.87-1.49.01-1.21.75-2.1,1.82-2.19,6.39-.54,12.78-1.95,19.03,1.14,3.57,1.77,7.42,2.95,11.12,4.44,2.1.85,2.65-.82,3.26-2.06.69-1.41,0-2.64-1.49-2.84-6.44-.88-12.2-4.24-18.73-4.87-2.11-.21-3.82-1.77-6.4-1.44-6.48.81-12.62,2.6-18.4,5.43-7.44,3.64-11.56,10.56-15.56,17.34-2.9,4.91-4.66,10.31-6.17,15.9-1.66,6.16-4.96,11.98-9.76,16.3-3.27,2.94-7.2,5.22-11.93,6.18-6.33,1.28-12.39,3.81-18.88,4.58-8.6,1.02-17.18,2.19-25.78,3.16-1.31.15-2.35.35-3.38,1.23-1.57,1.34-3.72,2.29-5.17.42-1.52-1.98.11-3.98,1.64-5.31,3.16-2.73,6.9-4.44,10.99-5.35,7.03-1.56,14.08-3.01,21.08-4.68,4.15-.99,5.25-5.09,1.99-8.05-6.71-6.08-13.98-11.38-22.99-13.62-3.86-.96-7.63-2.42-11.71-2.29-2.29.07-3.84.4-4.5,3.32-2.07,9.27-5.67,17.94-11.5,25.57-.21.27-.33.61-.55.87-1.25,1.45-2.48,3.46-4.71,2.51-2.32-.99-2.47-3.23-2.05-5.54.78-4.34,3.09-8.1,4.71-12.1,2.03-5.05,3.35-10.42,6.26-15.12.58-.94.46-2.3-.08-3.35-2.35-4.53-.98-8.94,1.29-12.72,2.62-4.36,3.02-8.79,2.18-13.42-.77-4.25-.73-8.38.06-12.58,1.75-9.28,3.44-18.62,8.64-26.73,2.44-3.81,5.42-7.34,8.84-10.37,4.26-3.78,8.3-7.87,14.18-9.33,1.83-.46,3.71-1.03,5.32-.39,3.88,1.54,6.86-.27,9.98-1.96,1.17-.64,2.35-1.26,4.02-2.17-3.89-2.32-6.7-5.25-11.13-6.62-8.32-2.58-12.66-8.92-12.88-17.73-.05-1.88-.77-2.55-1.75-3.58-4.71-4.96-7.88-10.45-5.58-17.62,1.86-5.8,6.35-8.9,11.87-8.32,1.02.11,2.28.06,2.49,1.3.17,1.01-.73,1.46-1.73,1.75-1.41.42-2.07,1.66-2.61,2.95,1.23.82,3.07.51,3.79,2.35-1.34.18-2.6.35-4.71.63,3.79,1.92,6.18.82,8.42-1.13,2.26-1.97.34-3.44-.62-5.01-1.9-3.1-4.02-6.09-5.69-9.31-3.41-6.6-2.63-13.31.24-19.84,3.26-7.43,8.55-13.57,14.27-19.02,4.07-3.88,7.66-7.66,9.83-12.88.94-2.26,2.03-4.56,1.9-6.88-.7-12.35,3.81-23.29,8.85-34.1,4.46-9.56,11-17.98,18.84-24.56,10.77-9.03,23.79-13.72,38.35-12.82,3.18.2,6.41-.11,9.6.27,1.33.16,2.1-.66,3.06-1.26,5.03-3.15,9.96-6.52,15.88-7.86,8.87-2.02,17.47-1.25,25.63,2.84,2.36,1.18,4.3,3.16,5.6,5.45,1.25,2.21,2.94,3.49,5.35,3.76,7.4.84,15.33,13.18,12.87,20.59-1.29,3.9-1.82,8.05-3.73,11.74-.78,1.51-.26,2.81.18,4.27,2.02,6.74,5.24,13.22,4.36,20.6-.22,1.81-.21,3.61-1.67,4.97,1.53,1.02,2.63-.09,3.81-.3,1.29-.24,2.55-.56,3.47.62.88,1.13.22,2.5-.5,3.14-3.1,2.77-1.8,5.82-.7,8.74,3.35,8.88,5.03,17.86,3.84,27.45-.71,5.72-2.14,11.17-3.77,16.61-2,6.7-2.77,13.56-3.01,20.51-.32,9.15-4.66,16.03-12.2,20.93-4.71,3.06-10.02,4.32-15.64,4.29-5.86-.03-7.11,1.98-5.56,7.52.98,3.54,2.94,4.93,6.35,5.45,3.94.6,7.77,2.02,11.72,2.47,3.78.43,7.66-.02,11.49.08,5.89.15,11.72-.53,17.63,1.41,9.43,3.1,16.67,8.88,22.69,16.4,5.57,6.96,11.54,13.5,18.58,19,2.71,2.12,6.31,2.72,8.84,5.18,2.24,2.18,2.17,3.61-.54,5.29,3.07,2.53,6.02,5.17,10.18,5.86-.41-11.56-2.15-22.96-4.29-34.26-1.08-5.7-2.28-11.38-3.08-17.12-.27-1.91-1.56-2.66-3.06-3.32-5.16-2.28-9.83-5.2-13.65-9.48-2.73-3.06-4.13-6.85-6.1-10.29-1.73-3.03-3.46-6.13-4.94-9.33-1.75-3.77-5.36-5.59-8.46-7.81-4.58-3.28-7.98-7.53-10.96-12.15-1.78-2.76.65-7.63,4.8-10.21-2.6-3.03-6.01-5.27-8.06-8.85-1.99-3.47-1.46-11.01,1.39-14.46,1.64-1.99,9.25-3.78,11.96-2.44,2.29,1.13,3.24.38,4.79-1.38,3.21-3.65,8.05-4.57,12.42-6.12,2.78-.98,5.76-1.37,8.65-2.06.54-.13,1.38-.27,1.52-.63,3-7.52,9.88-7.05,15.64-6.38,9.29,1.09,17.82,4.7,24.32,12.08,3.2,3.64,4.3,7.99,5.05,12.48,1.07,6.32-.42,12.69-.05,18.99.45,7.69-1.13,15.16-1.64,22.73-.42,6.31.28,12.53.01,18.81-.22,5.22,2.98,9.68,4.78,14.45,4.64,12.27,12.82,22.67,18.19,34.52,3.78,8.33,9.27,15.81,12.6,24.21,2.55,6.44,4.45,13.39,5.23,20.47.69,6.24,1.45,12.47,2.39,18.67.68,4.48-1.24,8.55-1.8,12.82-.52,3.96-1.6,7.99-3.59,11.69-3.62,6.75-8.59,10.69-16.65,11.53-12.94,1.35-25.4-.76-38.04-2.86-10.98-1.83-21.09-5.95-31.3-9.9-2.77-1.07-5.59-2.63-7.83-4.82-1.39-1.35-2.21-1.84-2.81.73-2.46,10.55-7.18,19.91-14.98,27.61-2.52,2.48-25.34,39.89-28.07,42.46-3.15,2.96-6.88,4.67-10.62,6.51-1.12.55-2.35.6-3.13-.45-.81-1.09-.66-2.51.04-3.57.99-1.49,2.28-2.78,3.78-4.55ZM134.18,125.14c.51.56,1.11.48,1.63.31,2.27-.73,2.9.75,3.08,2.44.1.91-4.41,3.46-5.38,3.04-2.18-.97-3.42-4.57-6.72-2.36-.05-.09-.09-.2-.16-.26-1.06-.97-1.08-.98-1.43-.17-.76,1.75-.36,3.36.71,4.84,2.46,3.41,6.52,5.15,9.04,8.56.67.9,1.85.85,2.94-.21,1.8-1.75,3.89-3.2,5.81-4.83,1.63-1.39,2.51-.57,2.98,1.01.89,3.02-.4,5.31-2.58,7.33-.94.87-2.4,1.49-1.95,3.3,1.24,4.94,1.38,10.04,2.08,15.04.94,6.78-.99,12.86-2.77,18.95-1.79,6.14-5.33,11.52-10.59,15.5-1.46,1.11-1.21,2.31-.23,3.53.41.51,1.14.73,1.31,1.5,1.81,8.09,7.52,13.8,13.16,18.99,5.8,5.33,12.04,10.3,18.72,14.74,9.87,6.57,20.29,10.69,32.09,11.28,6.96.35,11.29-3.98,11.4-11.1.12-7.79.02-15.54-2.06-23.13-.81-2.98-1.42-6.02-3.12-8.66-.35-.54-.77-1.23-1.58-1.12-.84.12-.95.9-1.11,1.55-1.05,4.28-2.13,8.55-3.12,12.84-.41,1.79-1.13,3.63-2.96,3.78-2.07.16-2.29-2.06-2.48-3.53-.58-4.56-.83-9.39.4-13.64,1.93-6.67.55-13.82,4.07-20.44-5.01.74-8.92-1.65-13.17-2.41-9.53-1.7-16.34-7.53-21.58-15.36-.6-.89-1.86-2.07-.3-3.28,1.28-.99,2.54-.8,3.74.18,6.02,4.89,13.01,7.77,20.31,10.23,11.65,3.92,23.23,4.55,34.91.49,4.86-1.69,8.13-5.02,9.79-10.03,1.47-4.42,1.42-8.97,1.93-13.5,1.1-9.75,5.07-18.86,6.42-28.64,1.4-10.18-.5-19.21-5.85-27.76-.64-1.02-1.37-8.1-2.1-12.24-1.05-5.9-.17-12.06-2.26-17.9-.57-1.59-2.42-7.45-4.05-9.69-2.17-2.97-5.2-5.25-7.06-8.34-1.37-2.27-2.25-1.9-4.03-.85-2.81,1.66-5.41,4.13-9.21,3.3.48-2.63,2.14-4.43,4-5.59,2.65-1.65,3.62-4.05,4.27-6.74,1.05-4.34-.43-8.53-3.97-10.7,1.15,3.91,2.5,7.45.94,11.26-2.1,5.14-5.14,9.4-10.04,12.14-1.14.64-2.37.88-3.33-.49-.92-1.31-.06-2.17.73-2.98,3.67-3.82,5.18-8.51,5.66-13.66.45-4.89-2.87-9.1-8.05-10.04.01,1.35,1.23,1.47,2.01,2.02,4.36,3.04,6.11,9.28,2.74,12.51-3.25,3.11-6.08,7.35-11.42,7.58-1.65.07-2.41,1.45-3.36,2.64-1.31,1.64-1.41,5.84-5.31,2.98-.11-.08-.44.07-.64.17-4.04,2.07-8.73,2.88-12.55,4.92-6.5,3.46-12.17,8.49-18.15,12.9-.65.48-1.6,1.29.06,1.86,2.14.73,2,2.23,1.71,4.12-.68,4.45-4.77,6.45-6.75,9.93,4.42,1.85,5.54,3.99,4.85,8.93-.17,1.24-.31,2.58,0,3.76,1.31,5.06-1.18,9.33-2.73,13.77-2.01,5.78-6.61,10.06-9.32,15.43ZM297.2,104.09c.9.48,1.3.89,1.67.86,6.01-.46,11.2,1.98,16.17,4.83,10.48,5.99,9.98,15.9,5.44,24.56-.42.8-.94,1.39-1.85,1.15-.93-.24-1.39-1.16-.94-1.88,1.41-2.25.25-4.47.08-6.67-.4-5.06-2.43-9.22-7.31-11.46-1.86-.86-3.77-1.63-5.67-2.39-10.34-4.13-20.22-3.04-29.7,2.64-1.33.8-2.71,1.32-1.48,3.33,1.3,2.13,2.35.21,3.41-.11,4.54-1.37,8.6-4.34,13.77-3.5,5.98.97,11.81,1.98,16.82,5.94,3.74,2.96,6.43,11.19,4.41,15.43-.76,1.59-2.32,2.73-3.74,2.54-1.58-.21-1.65-2.08-1.69-3.67-.1-4.83-2.3-8.56-6.6-10.78-6.88-3.56-13.91-2.79-20.92-.29-.65.23-1.39.42-1.53,1.21-.16.97.78,1.34,1.3,1.85.85.81,2.01.49,2.95.19,4.78-1.56,9.23.24,13.73,1.29,1.69.39,3.02,1.5,4,3.06,6.08,9.69,3.15,21.23-3.6,28.71-2.99,3.31-7.26,2.95-10.06-.47-.87-1.06-1.78-2.08-2.72-3.07-4.36-4.57-9.77-7.79-14.91-11.33-.81-.56-2.3-1.54-3.39-.4-.95.99.01,2.12.32,3.2.32,1.12,1.21,1.64,2.02,2.24,8.54,6.29,15.2,14.11,19.73,23.75,3.47,7.38,8.7,12.91,16.42,16.18,4.77,2.02,7.62,5.95,8.29,11.33.43,3.48,1.12,6.94,1.86,10.37,2.45,11.34,5.09,22.64,6.89,34.12.71,4.53.39,9.11,1.18,13.58,1.04,5.83,2.94,11.54,3.66,17.39.91,7.3,3.88,13.47,8.23,19.18.56.74.8,1.6.81,2.57.02,1.98-.71,3-2.67,1.96-4.13-2.18-7.66-5.51-9.63-9.45-4.14-8.26-8.05-16.76-9.15-26.16-.1-.86-.22-1.87-1.24-2.31-4.5-1.93-8.73-4.37-12.9-6.89-.99.77-.24,2.3-1.67,2.84-4.54,1.72-7.53,5.51-10.9,8.71-2.09,1.99-4.44,4.14-5.49,6.7-2.35,5.73-2.79,11.94-2.91,18.12-.06,3.16.54,6.26,3.55,7.91,5.36,2.94,10.54,6.04,16.46,8.15,15.47,5.51,30.53,12.19,47.32,12.68,1.37.04,2.44,1.29,3.93,1.04,4.6-.76,9.21-1.42,13.79-2.27,1.42-.26,2.93-.74,3.77-2.15,4.15-6.98,7.54-14.08,6.3-22.65-1.3-8.91-1.78-17.92-4.1-26.71-2.2-8.32-5.65-16.14-9.64-23.65-4.86-9.15-10.51-17.87-15.9-26.74-4.35-7.17-6.85-15.17-10.39-22.7-3.07-6.51-4.1-13.32-4.31-20.48-.18-6.1-.46-12.11,1.27-18.05.28-.95.05-2.04.12-3.07.59-8.87,1.06-17.76,1.86-26.61.61-6.8-1.3-13-5.83-17.59-5.15-5.21-12.32-7.07-19.56-8.17-3.26-.49-6.01.4-9.14,2.09ZM209,203.66c1.4,3.18,2.66,5.96,3.86,8.76,2.11,4.93,1.83,10.21,2.38,15.39.42,3.91.72,7.76-.24,11.56-1.44,5.7-2.97,11.92-9.01,14.19-10.1,3.81-20.62,4.19-30.76-.1-13.97-5.92-25.59-15.07-35.76-26.32-6.48-7.17-13.03-14.08-14.34-24.21-.21-1.66-.87-1.01-2.04-.81-3.19.56-4.93,3.63-8.06,4.19-2.35.42-3.39,1.75-3.6,4.41-.31,4.05.59,7.85,1.44,11.67.68,3.05,2.94,4.85,5.88,5.63,2.63.7,5.35,1.08,7.98,1.8,3.9,1.08,4.54,3.06,2.27,6.5-2.47,3.73-2.02,7.59,1.15,10.79,4.86,4.9,10.64,6.12,17.31,4.87,6.39-1.2,9.62,2.21,7.87,8.51-.76,2.73.82,3.21,2.27,3.24,8.53.15,16.48,3.07,24.46,5.4,3.73,1.09,4.82-.69,6.61-2.54.22-.23.21-.66.37-.95,1.54-2.67,2.93-2.8,4.96-.56,1.53,1.7,3.06,3.4,4.68,5,1.64,1.62,3.48,2.21,5.92,1.67,6.93-1.54,9.54-4.48,9.69-11.14.05-2.4,1.14-3.02,3.25-2.63,7.33,1.35,13.43-4.43,12.34-11.61-.5-3.32-2.76-5.58-4.97-7.54-3.83-3.39-1.89-6.03,1.26-7.72,6.13-3.28,6.8-10.56,1.2-14.71-1.51-1.12-2.48-2.61-3.71-3.92-1.71-1.84-1.69-4.96-4.27-5.95-3.17-1.22-6.42-2.28-10.4-2.89ZM147.43,262.44c-1.21-.63-2.04-1.45-2.76-1.37-5.75.63-10.22-2.27-15.01-4.76-7.23-3.77-9.27-10.1-9.21-17.38.02-2.4-.47-3.05-2.59-3.62-6.4-1.69-10.41-5.71-11.73-12.4-.81-4.12-1.85-8.17-1.17-12.83-4.53,1.53-8.7,2.92-12.84,4.36-1.28.44-2.93.84-3.12,2.32-.23,1.76,1.62,2.32,2.8,3.11,1.26.84,2.92.77,3.8,2.55,1.64,3.32,3.48,6.59,5.63,9.6,4.69,6.54,7.67,13.97,11.45,20.97,2.97,5.49,3.9,11.62,6.12,17.32.8,2.06,1.35,4.19,2.77,6.03.32.42-1.28,2.22.34,2.79,1.77.62,2.2-1.29,2.89-2.32,2.77-4.09,6.35-7.05,11.05-8.72,1.59-.56,3.29-1.33,4.44-2.5,1.91-1.93,4.28-2.43,7.14-3.15ZM97.31,148.14c-.33-3.61-.63-6.51-.84-9.42-.39-5.28,2.12-9.8,4.64-13.97,1.93-3.18,4.71-6.23,8.62-7.58,2.68-.92,3.54-.29,3.44,2.54-.1,2.62-1.8,4.65-2.56,7.03-.86,2.72-2.08,5.35-2.73,8.12-.31,1.31-.02,3.6,1.39,3.83,2.05.33,1.44-2.06,1.48-3.09.27-6.67,3.17-11.88,7.76-16.63,5-5.17,9.24-11.06,13.07-17.13,2.22-3.51,3.59-7.55,3.45-11.95-1.24.19-1.18,1.13-1.51,1.82-2.79,5.74-5.13,11.75-9.99,16.22-1.4,1.29-3.02,2.4-3.88,4.2-.91,1.9-2.5,2.89-4.46,3.45-.83.24-1.7,1.18-2.45.2-.66-.87-.46-1.97.15-2.89,1.26-1.9,2.7-3.62,3.74-5.73,1.79-3.66,2.39-7.82,4.93-11.15.45-.59,1.48-1.24.48-2.81-2.55,3.61-6.08,5.93-9.17,8.77-5.99,5.49-10.45,12.25-15.27,18.64-3.99,5.29-6.29,11.65-5.59,18.6.35,3.53,2.06,6.28,5.29,8.93ZM113.78,80.66c2.18-2.96,1.39-5.83,2.43-8.21,2.7-6.2,6.12-12,10.16-17.41,1.57-2.1,3.45-3.97,5.28-5.86.78-.81,1.72-1.63,3-.7,1.3.94.7,2,.2,3.03-.35.72-.82,1.38-1.16,2.1-2.48,5.29-5.11,10.51-6.95,16.32,1.45-.18,1.73-1.01,2.15-1.67,3.07-4.85,6.69-9.14,11.09-12.93,3.42-2.94,5.83-6.72,7.21-11.39,1.28-4.3-.57-8.3.76-12.56-2.9.34-4.49,1.6-5.2,3.89-1.01,3.23-2.83,6.19-3.01,9.73-.07,1.33-.57,3.09-2.67,2.92-1.98-.17-1.82-1.66-1.86-3.06-.05-1.38.17-2.68.51-4.04.76-3.09,2.42-5.82,3.48-8.96-3.72,0-5.57,2.25-7.02,4.88-4.12,7.52-8.06,15.15-12.87,22.26-4.27,6.32-6.11,13.22-5.52,21.63ZM83.75,149.75c-.75-1.24.44-2.56-.28-3.76-4.02-6.75-4.61-13.49-.05-20.27.51-.75.8-1.65,1.27-2.44,3.79-6.35,9.29-11,15.7-14.34,2.18-1.14,3.93-2.12,5.11-4.24,1.48-2.66,3.12-5.24,4.69-7.86-.22-.15-.43-.31-.65-.46-2.49,2.32-4.99,4.65-8.31,7.75.4-7.9,3.23-14.37,3.69-21.21.45-6.78,3.82-12.93,4.93-19.59-3.25,2.58-3.08,6.45-4.39,9.73-2.06,5.13-2.85,10.52-4.05,15.84-1.86,8.29-4.89,16.06-11.17,22.17-5.96,5.78-10.95,12-12.48,20.64-1.29,7.3.44,13.15,6,18.04ZM268.4,294.11c-.1-2.3-.22-4.53-1.08-6.86-1.35-3.66-3.5-6.84-5.07-10.34-4.47-9.96-8.92-19.93-13.36-29.9-.27-.61.2-1.85-1.29-1.24-.83.34-.93.82-.73,1.6.66,2.54.99,5.2,1.94,7.62,4.47,11.45,11.25,21.95,14.29,33.99,1.08,4.25,3.35,8.16,2.85,12.91-.71,6.77-2.64,13.09-5.36,19.25-.35.8-1.47,1.91-.07,2.67,1.38.75,2.13-.51,2.71-1.43,1.81-2.9,3.28-5.92,3.86-9.4,1.03-6.26,3.19-12.4,1.32-18.88ZM286.71,134.44c-1.87.71-4.53.26-7.12.66-2.79.43-2.24,3.13-3.23,4.76-.42.69-.38,1.74.8,2.25,5.29,2.27,8.71,6.51,11.74,11.17,1.31,2.01,2.53,2.5,3.82-.16,1-2.07,1.9-4.15,2.4-6.39,2.03-9.06.16-12.02-8.42-12.29ZM44.01,288.29c-2.6-.49-3.96.74-4.06,3.02-.1,2.35,1.9,2.36,3.57,2.52.45.04.91-.01,1.37-.01,9.99-.01,19.63,1.32,27.98,7.46.55.41,1.18.94,1.78.26.51-.58.17-1.37-.17-1.92-2.54-4.02-6.78-6.17-10.79-7.71-6.26-2.42-13.12-3.01-19.68-3.62ZM271.62,134.68c-1.61-4.06-2.55-9.36-5.25-13.99-1.07-1.83-3.04-2.85-5.29-1.4-2.94,1.88-3.81,7.21-1.32,9.61,2.73,2.64,4.82,5.79,7.46,8.48.9.91,1.47,2.72,3.18,1.99,1.54-.66,1.09-2.34,1.21-4.69ZM93.35,310.31c2.5-2.58,5.52-4.75,6.79-8.4,1.37-3.97,2.64-8,4.27-11.86,2.24-5.31,2.02-10.65.91-16.09-.18-.88-.39-2.1-1.46-2.06-1.41.05-.77,1.39-.8,2.16-.12,2.97.23,6.01-.26,8.91-1.6,9.59-7.12,17.81-9.45,27.34ZM255.25,219.68c2.28,2.19,4.67,4,5.08,6.98.93,6.61,2.25,13.2,1.43,19.96-.32,2.67.16,5.37.73,8.08,1.26-.4,1.91-1.08,2.01-2.23.45-4.84,1.5-9.62.13-14.56-.66-2.39-1.47-5-.15-7.68.38-.78.71-2.79-.82-3.25-2.34-.71-2.91-2.66-3.86-4.43-.87-1.62-1.64-3.38-4.56-2.87ZM112.4,62.21c2.36-8.5,10.68-14.6,11.12-24.43-3.95,4.42-7.57,9.05-10.5,14.17-1.88,3.29-5.22,6.54-.62,10.26ZM119.03,152.03c2.2,5.22,3.95,10.7,6.79,15.55,1.46,2.49,1.43,4.19.51,6.46-.91,2.25-1.42,4.52.65,6.61,4.3-10.56,2.13-20.19-7.94-28.62ZM151.2,53.1c1.61-1.69,3.36-3.27,4.79-5.09,2.58-3.27,3.71-7.08,3.33-11.24-.14-1.57-.95-2.96-2.74-2.98-1.82-.02-1.76,1.55-1.74,2.77.09,5.76-.97,11.23-3.64,16.53ZM188.73,336.61c4.44,2.7,7.25-.27,9.55-1.22,4.97-2.04,8.41-6.65,11.29-11.45-6.82,3.93-12.45,9.7-20.83,12.67ZM220.14,26.54c1.75,5.13,1.27,9.41-.78,13.53-.69,1.4.33,2.33,1.29,2.73,1.15.48,2.08-.12,2.45-1.54.78-2.98,1.76-5.93,1.3-9.06-.32-2.2-.67-4.49-4.26-5.66ZM82.63,185.78c3.97.23,15.28-4.22,17.59-6.87.56-.65.44-1.32.15-1.89-.45-.88-1.11-.42-1.72-.08-2.3,1.26-4.65,2.41-6.66,4.15-2.69,2.33-5.71,3.65-9.4,3.21-1.57-.19-3.17,0-4.75-.45-.75-.21-1.75.23-1.7,1.22.04.93.99,1.37,1.76,1.09,1.57-.58,3.14-.48,4.73-.39ZM166.6,45.84c1.37-1.91,2.99-3.7,4.06-5.77,1.2-2.33,1.69-4.97,1.31-7.62-.17-1.16-1.02-2.1-2.26-2.26-.66-.08-.73.69-.85,1.26-.97,4.71-.83,9.61-2.26,14.39ZM109.24,150.9c2.99,6.88,3.95,13.51,6.53,19.71-.33-4.47-1.19-8.83-1.75-13.23-.33-2.59-.73-4.93-4.78-6.47ZM72.66,225.15c-4.42-.05-14.85,8.49-15.44,12.01,5.4-3.39,9.7-7.89,15.44-12.01ZM176.21,43.47c2.3-1.41,6.23-8.55,5.97-10.83-.24-2.09-2.6-4.79-4.64-5.32,3.1,6.15,2.41,7.4-1.33,16.15ZM70.87,263.96c5.96-2.69,10.1-6.53,11.2-10.32-3.09,3.78-8.56,4.86-11.2,10.32ZM223.54,280.96c-.23,5.19-2.13,10.16-2.55,15.39,3.63-4.58,2.15-10.14,2.55-15.39ZM93.7,165c-.07-1.26-.98-1.9-1.81-1.35-1.77,1.18-3.35,2.74-3.77,4.93-.15.76.16,2.48,1.71,1.44,1.8-1.21,2.92-3.11,3.88-5.03ZM210.28,292.22c-.7.59-1.16,1.31-1.66,1.34-1.93.1-2.01.66-1.36,2.43.42,1.14-1.29,2.67-.35,4.11.54.83,1.35.27,1.56-.33.82-2.37,1.95-4.68,1.81-7.54ZM55.24,239.82c-4.36,2.98-6.82,7.2-8.8,11.77,2.93-3.92,5.87-7.85,8.8-11.77ZM62.64,250.35c-5.05,2.36-6.81,4.09-7.14,7.1,2.68-2.54,5.77-3.9,7.14-7.1ZM194.94,320.48c3.21.14,4.17-3.1,6.54-3.55,2.18-.42,2.98-1.57,3.17-4.05-3.05,3.03-7.03,4.07-9.71,7.6ZM78.25,166.22c-3.2,3.41-5.5,8.14-11.41,7.62,4.83,1.48,8.86-1.29,11.41-7.62ZM69.82,263.28c-2.32,1.98-6.55,2.24-6.03,6.79,1.2-3,5.05-3.6,6.03-6.79ZM53.71,259.35c-1.16.38-2.31.67-3.39,1.13-1.06.45-1.5,1.46-1.26,2.49.15.63.2,1.79,1.18,1.75.98-.05,1.58-1.06,1.65-1.87.13-1.45,2.16-1.75,1.81-3.5ZM56.6,280.82c1.68-.34,2.94-.47,4.11-.87,1.23-.42,1.91-1.62,1.41-2.72-.55-1.19-1.55-.13-2.35.14-1.51.51-2.49,1.54-3.18,3.45ZM220.33,321.54c2.38-1.79,4.04-4.05,5.45-7.67-3.3,2.34-4.63,4.83-5.45,7.67ZM76.03,245.35c2.22-1.32,4.25-2.87,5.56-5.22-2.33,1.2-4.67,2.38-5.56,5.22ZM283.25,257.69c4.38-.7,3.33-3.42,3.14-5.74-1.09,1.73-1.36,3.83-3.14,5.74ZM247.06,302.94c-1.8,1.56-1.81,3.53-2.48,5.18.32.06.79.28.93.15,1.36-1.3,2.16-2.83,1.55-5.33Z"/>
  <path d="M224.47,121.64c.71,0,1.4-.02,2.08,0,4.84.17,6.07,2.1,4.4,6.62-1.07,2.9-2.09,5.81-3.82,8.4-1.19,1.79-.48,3.58.14,5.24,2.7,7.26,2.22,9.48-3.43,14.4-3.35,2.92-10.13,1.95-13.63-1.92-2.73-3.02-4.3-6.73-5.91-10.37-.56-1.27-.67-2.79.06-4.32,3-6.27,7.13-11.7,12.28-16.3,2.17-1.94,5.06-1.94,7.83-1.76Z"/>
  <path d="M304.66,174.92c1.51-6.1,2.34-13.6,7.9-19.21.99-1,2.08-2.6,3.75-1.58,1.6.98.85,2.68.43,4.05-1.2,3.91-2.49,7.79-3.76,11.68-1.76,5.34-1.83,10.58,1.43,15.39,1.03,1.52,1.2,3.21.29,4.24-1.11,1.26-2.78.19-4.05-.56-4.97-2.91-5.84-7.77-5.98-14.01Z"/>
</svg>