<?xml version="1.0" encoding="UTF-8"?>
<svg id="Layer_1" data-name="Layer 1" xmlns="http://www.w3.org/2000/svg" viewBox="0 0 400 400">
  <path d="M218.09,131.39c2.18,2.34,4.9,2.76,7.48,3.34,1.12.25,1.97.73,2.79,1.42,3.54,2.96,7.24,5.74,10.57,8.92,1.97,1.89,3.37,4.39,4.99,6.64.55.76,1.2,1.53,2.06,1.7,3.2.63,4.8,3.31,7.01,5.21.36.31.57.79.81,1.22.34.59-.27,1.74.76,1.83.9.08,1.23-.91,1.69-1.6,2.18-3.28,3.1-7.25,5.8-10.24.57-.63-.17-1.21-.34-1.81-1.31-4.66-2.78-9.27-1.68-14.25.44-2.01,1.54-3.63,2.47-5.36.79-1.47.84-2.57,0-4.26-3.27-6.61-5.97-13.43-7.27-20.8-.58-3.25-.62-5.76,2.26-7.82,1.42-1.01,2.64-1.76,4.49-.91,3.92,1.8,7.89,4.52,7.54,9.8-.22,3.41,2.05,6.38,2.55,9.74.19,1.28.84,2.48,1.14,3.75.69,2.9,2.56,4.32,5.42,4.84,2.1.39,4.18,2.97,4.32,5.13.04.62.21,1.05.56,1.55,1.03,1.45,2.4,2.82,1.78,4.89-.04.14-.02.43.06.46,3.08,1.49,2.32,4.99,3.84,7.28,1.28,1.92.79,4.18.41,6.01-.72,3.46.89,5.91,2.61,8.33,3.11,4.37,6.12,8.82,10.1,12.51.63.58,1.04,1.41,2,.89,1.41-.77,2.91-.47,4.38-.55,2.46-.13,4.88-.05,7.36-.6,3.96-.88,7.73.72,11.03,2.62,2.66,1.53,4.07,4.64,4.11,7.7.05,4.32.8,8.73-.7,12.99-.79,2.23-1.32,4.59-2.37,6.69-2.75,5.5-3.82,11.81-8.44,16.44-3.42,3.43-7.24,6.06-11.5,8.32-3.64,1.93-7.5,3.35-11.26,4.91-2.25.94-4.75,2-7.52,1.88-2.43-.1-4.89.59-7.34.92-6.91.94-13.15-1.4-19.33-3.97-2.35-.98-4.69-1.98-6.98-3.09-2.44-1.19-4.5-2.67-6.14-5.08-1.54-2.27-4.36-3.14-7.29-2.8-.49.06-1.07.06-1.08.73-.01.85.2,1.62.88,2.23,1.95,1.75,3.86,3.56,5.8,5.31,1.34,1.21,2.74,2.37,3.64,3.87,2.27,3.82,5.96,6.56,7.98,10.51,1.82,3.56,4.2,6.63,7.04,9.37,1.08,1.04.74,2.54,1.43,3.61,2.73,4.24,4.21,9.12,6.82,13.39,2.01,3.3,3.39,6.85,4.86,10.35,1.1,2.63,2.93,5.18,2.44,8.35-.05.31.38.7.57,1.06,1.28,2.42,2.64,4.7.29,7.41-1.7,1.95-2.79,4.33-5.48,5.4-2.07.82-4.1,1.63-6.27,2.17-1.57.39-2.41,1.92-3.29,3.18-.38.54-.64,1.35-1.25,1.44-2.92.41-5.36,2.2-8.35,2.54-3.79.43-7.52.98-10.66,3.86-3.38,3.1-7.97,3.62-12.4,3.81-2.62.11-4.87,1.4-7.39,1.74-.87.12-.71,1.02-.69,1.64.26,8.92-2.43,17.32-4.32,25.88-.75,3.38-2.08,6.62-1.66,10.34.4,3.58,2.9,5.23,5.03,7.32.41.4,1.11.6,1.57,1.09,4.05,4.34,8.47,8.09,14.25,10.1,1.95.68,1.89,3.07,1.36,4.77-.41,1.32-1.32,2.05-3.38,1.77-3.08-.41-6.32.51-9.5.56-4.9.08-9.56-.98-13.69-3.8-.61-.42-1.26-.79-1.85-1.24-1.4-1.07-2.33-.37-2.47.99-.16,1.51-.59,2.65-2.12,2.83-2.08.24-4.32,1.05-6.19-.52-1.08-.91-2.42-1.82-2-3.67.22-.99-.65-1.68-1.1-2.38-2.19-3.4-1.81-6.61.19-9.91,1.83-3.02,2.12-6.36,2.2-9.86.06-3.06-.8-6.01-.58-9.05.16-2.19-1.2-3.9-1.94-5.78-1.62-4.12-2.19-8.36-1.78-12.72.4-4.18-.43-5.27-4.5-6.22-2.09-.49-4.12-.99-6.28-.7-1.95.26-2.98,1.59-2.5,3.55.89,3.7-.38,7.19-.77,10.79-.67,6.13-3.34,11.64-4.72,17.52-1.55,6.62-2.19,13.29-.36,20.01.34,1.24.34,2.66.13,3.94-1.18,7.32-4.48,13.1-11.86,15.8-4.03,1.48-7.77.88-10.93-1.95-1.8-1.61-2.5-4.19-1.73-6.35,1.36-3.78,2.34-7.63,4.52-11.28,2.68-4.49,3.85-9.94,2.1-15.54-2.02-6.47-4.04-12.99-5.33-19.62-1.09-5.62-1.54-11.42-.96-17.2.05-.47.35-.91.47-1.38.39-1.48.93-2.72-1.6-3.06-2.01-.27-3.97-1.46-5.79-2.52-3.94-2.3-8.08-3.99-12.41-5.48-3.81-1.31-8.03-1.91-11.34-4.61-1.45-1.19-2.37-2.59-2.23-4.44.14-1.89-.89-2.76-2.44-3.2-3.63-1.03-5.8-4.04-7.54-6.8-1.94-3.09-.6-6.91,1.48-9.72,2.36-3.18,3.53-6.84,5.21-10.29.35-.72.56-1.56,1.12-2.14,1.58-1.65,1.89-3.89,2.86-5.83,1.85-3.68,4.11-7.11,6.38-10.53,1.19-1.79,2.11-3.68,2.85-5.69.21-.57.4-1.12.02-1.64-.42-.59-1-.39-1.57-.19-.46.16-.95.35-1.43.35-2.26,0-4.68.54-6.23-1.89-1.92-2.99-2.13-6.14-.3-9.1,2.14-3.45,4.89-6.61,8.21-8.81,2.64-1.74,5.13-3.76,7.95-5.24,1.15-.6,1.25-1.11.12-1.9-2.27-1.57-4.16-3.38-4.95-6.24-2.19-7.95,1.92-13.79,10.44-12,2.75.58,5.61.81,8.21,1.63,2.63.83,4.81,2.99,7.58,3.86.81.26,1.65,1.36,2.39.66.69-.65.46-1.92.08-2.83-.42-1.02-.76-2.51-2.22-2.3-6.43.89-9.68-3.23-11.11-8.22-1.55-5.42-3.84-10.55-5.37-15.95-1.4-4.94-2.54-9.99-2.08-15.09.25-2.8.05-5.72.81-8.42.96-3.42,3.89-5.42,6.54-7.51,3.2-2.53,6.83-4.14,10.77-5.2,3.5-.94,5.47-3.76,7.2-6.67.63-1.06-.4-1.19-1.17-1.13-3.23.26-6.49-.64-9-2.13-5.92-3.5-11.1-7.8-13-15.19-1.75-6.75.59-12.02,4.32-17.13.56-.76,1.47-1.42,2.35-1.74,1.19-.43,2.25-.21,1.65,1.54-.16.46-.32.96-.32,1.43,0,.8.5,1.63,1.19,1.65.95.02.61-.98.6-1.57-.09-3.56.12-7.1.52-10.62.26-2.29.54-4.59,2.2-6.44.88-.98.9-2.02.4-3.37-.58-1.58-1.17-3.23-1.14-5.03.02-1.43-.63-2.3-2.13-1.07-.62.51-1.35.55-2.11.52-5.03-.22-9.98-.88-14.55-3.12-3.69-1.81-5.34-5.17-6.14-8.99-.85-4.03-1.06-8.13.75-11.94,2.09-4.39,4.53-8.59,9.12-10.98,1.85-.96,3.78-1.01,5.77-.91,2.1.11,3.09-.37,3.28-2.99.39-5.52,3.52-9.68,8.17-12.6,4.95-3.1,10.42-4.13,16.21-3.93,1.96.07,3.68.57,5.41,1.39,3.29,1.56,6.35,2.08,9.41-.99,2.45-2.46,6.2-2.42,9.39-3.44,6.58-2.09,12.33-.09,17.54,3.81,5.1,3.82,8.43,8.89,7.95,15.46-.4,5.45-2.15,10.63-6.16,14.68-1.11,1.12-2.01,1.96-.99,3.78,1.01,1.8,1.95,1.02,3.39.81,4-.6,7.98-2.69,12.16-.34,2.48,1.39,4.96,4.09,4.54,5.86-.59,2.48.38,3.7,1.12,5.5.61,1.49-.62,2.79-1.38,4.05-1.28,2.13-2.61,4.04-5.43,4.52-2.28.38-3.59,3.48-2.13,5.59,1.75,2.54,1.37,4.96.32,7.25-1.33,2.9-.94,5.73-.09,8.41,1.41,4.49,2.39,9.09,3.1,13.67,1.16,7.46-.49,14.32-5.96,20.03-2.8,2.92-5.33,6.08-9.17,7.84ZM221.51,213.35c-1.22.54-2.59.78-3.39,1.58-1.91,1.91-4.4,2.46-6.74,3.39-1.36.54-3.05-.29-3.42-.95-.58-1.03.88-1.68,1.93-1.99,3.97-1.16,6.95-4.16,10.67-5.79.88-.39,1.68-1.05,2.05-2.06.24-.65,1.02-1.27.24-1.98-.66-.61-1.45-.67-2.3-.27-2.29,1.1-4.65,1.99-6.78,3.47-4.3,2.97-9.63,3.31-14.34,5.26-2.66,1.1-5.54.71-8.31,1.03-5.82.66-11.17-.71-15.49-4.9-2.59-2.51-5.51-4.68-7.86-7.45-.8-.94-1.89-1.54-2.31.16-.31,1.23.02,3.01,1.07,3.57,2.39,1.3,1.3,2.73.38,3.94-1.59,2.09-3.07,4.3-5.11,6.01-1.76,1.47-2.47,3.38-2.62,5.63-.06.92.09,1.92-.69,2.78-2.53,2.8-3.55,6.38-4.78,9.81-2.11,5.87-1.97,12.04-1.51,18.09.4,5.17.31,10.53,3.75,15.14,3.26,4.37,7.47,7.69,11.73,10.73,4.59,3.27,10.22,4.89,15.58,6.87,7.24,2.66,14.76,2.67,22.23,3.35,3.52.32,6.99-.82,10.49-1,4.82-.24,9.51-1.29,14.26-1.98,1.62-.24,3.03-1.71,4.66-2.07,2.99-.65,5.58-2.22,8.4-3.25,5.5-2.02,9.88-6.06,14.81-9.13.56-.35,1.02-.87,1.13-1.57.27-1.75,1.39-2.9,2.67-4.01,3.51-3.04,3.65-3.68,2-7.67-.13-.3-.36-.57-.45-.88-1.18-4.28-3.39-7.86-6.46-11.11-2.85-3.01-5.07-6.61-7.7-9.84-2.69-3.29-5.73-6.28-8.14-9.83-2.13-3.13-4.28-6.34-6.99-8.93-2.13-2.04-4.62-3.7-6.06-6.36-.96-1.76-1.75-1.02-2.1.19-1.02,3.5-2.83,6.62-4.28,9.92-1.83,4.18-5.07,7.23-7.87,10.64-.78.95-2,1.08-2.93.59-.71-.37-.31-1.54.18-1.92,1.96-1.53,2.61-3.87,3.94-5.79,2.45-3.55,5.85-6.51,6.5-11.41ZM216.6,155.5c-3.1-4.29-5.89-8.24-8.79-12.12-1.13-1.51-2.93-2.67-3.64-4.32-1.07-2.49-2.99-3.13-5.18-3.35-5.64-.56-9.32-3.89-12.19-8.37-.41-.64-1.22-1.7-.48-2.41.77-.73,1.62.11,2.39.61,3.1,2,6.12,4.4,9.98,4.49,2.55.06,5.21.22,7.66-.03,7-.73,12.48-4.27,16.35-10.37,3.19-5.03,4.4-10.43,4.57-16.26.09-2.97-.58-5.84-.76-8.74-.22-3.62-1.41-7.27-.17-10.97.33-.99-.16-2.27-.31-3.41-.1-.79.22-5.62-.19-9.25-.23-2.04-.69-2.15-2.09-1.93-4.55.7-9.14.68-13.72.98-1.78.12-3.45-.15-5.11-.68-3.04-.98-6.07-1.98-9.12-2.93-2.51-.78-4.91-.78-7.36.55-2.31,1.25-4.64,2.44-6.88,3.82-2.84,1.76-3.83,4.58-5.02,7.53,1.44.21,1.57-.97,2.3-1.29.73-.32,1.33-1.13,2.25-.64.88.47.76,1.4.82,2.2.17,2.03-1.34,3.3-2.24,4.84-.49.85-1.23,1.6-.98,2.71,1.04,4.54,1.15,8.91-1.45,13.11-.98,1.59-2.82,1.62-4,2.87-.48.51-1-1.27-1.72-1.74-1.23-.8-2.48-1.78-4.05-1.36-.8.21-1.42.96-1.31,1.9.47,3.95,1.55,7.65,4.63,10.44.79.72,1.5.99,1.55-.48.06-1.83,1.24-2.55,2.75-2.47,1.59.08,2.61.99,2.9,2.8.29,1.84.8,3.66,1.26,5.47.98,3.89,1.92,7.97-1.75,11.23-.54.47-.29.94.03,1.52,1.4,2.49,2.86,4.91,4.65,7.16,2.24,2.82,4.54,5.56,6.42,8.71,2.17,3.66,4.1,7.51,6.65,10.94,1.05,1.41,2.29,2.69,4.3,1.24.9-.65,2.02-.59,3.1-.68,4.49-.38,8.97-.83,13.91-1.3ZM313.14,211.01c-2.31-.55-3.81.39-5.25,1.53-1.11.88-2.34.81-3.03-.29-.82-1.31.7-1.74,1.44-2.02,4.21-1.62,7.97-4.1,11.97-6.11,2.73-1.37,3.74-4.13,4.46-6.36.51-1.58.55-3.74,1-5.62.13-.53.67-1.18.16-1.62-.71-.62-1.12.3-1.64.59-1.08.58-2.14,1.21-3.24,1.76-4.89,2.44-9.48,5.55-14.98,6.59-2.74.52-5.54.87-8.09,2.03-4.58,2.09-9.41,1.34-14.17,1.47-.38,0-.92.1-1-.44-.08-.57.36-.92.85-1.05,2.21-.58,4.41-1.47,6.64-1.58,4.27-.21,8.11-1.92,12.15-2.91,6.84-1.69,12.97-5.05,19.03-8.48,1.38-.78,3.19-.97,4.11-2.57,1.76-3.06,1.83-6.22.71-9.48-.36-1.04-1.1-1.6-2.22-1.68-5.36-.36-10.67.39-15.98.87-.64.06-1.74.34-1.44,1.44.76,2.72-.29,6.09-2.53,7.68-.33.23-.74.61-1.09.29-.24-.21-.29-.73-.27-1.11.05-1.48.2-2.97.25-4.45.06-1.96-.5-3.07-2.87-3.39-2.32-.31-3.99,1.55-6.2,1.14-.43-.08-.71.75-.45,1.21,1.24,2.24.46,4.72.88,7.05.16.91.29,2.03-.79,2.32-1.08.29-1.18-.87-1.48-1.6-2.18-5.2-3.19-10.76-4.93-16.09-1.14-3.49-3.06-6.78-3.15-10.55-.04-1.65-.66-2.98-1.37-4.36-.16.51-.21,1-.15,1.48.77,6.99,1.52,13.99,2.33,20.98.37,3.16.59,6.33,1.28,9.46.23,1.03,1.15,2.59-.13,3.06-.84.31-2.22-.81-2.8-2.02-.21-.44-.55-.86-.64-1.33-1.32-6.65-3.21-13.21-2.56-20.14.11-1.2.8-2.58-.13-3.8-1.06,1.08-.47,2.47-.62,3.7-.88,7.57-1.75,14.96,2.7,22.15,1.69,2.73,3.58,2.97,5.56,2.73,3.65-.44,7.17-1.79,10.8-2.52,2.54-.51,4.35-2.6,6.99-2.84,2.51-.24,4.44-1.92,6.62-2.96,3.61-1.73,7.24-3.41,10.9-5.02.78-.34,1.92-.73,2.48.21.48.8.8,1.97.18,2.85-.91,1.3-1.79,3.07-3.1,3.57-4.66,1.79-8.93,4.37-13.68,6.01-8.61,2.98-17.34,5.23-26.31,6.78-6.71,1.16-13.47,1.64-20.23,1.96-3.96.18-8.03-.14-11.36-2.98-1.31-1.12-2.88-1.92-4.29-2.92-.78-.56-1.77-1.2-2.41-.41-.52.63.49,1.43.92,2.1,1.46,2.26,4.19,3.14,5.72,5.33,1.64,2.35,3.95,3.99,6.35,5.44,1.48.89,2.97,2.62,4.17,2.82,3.5.6,7.17.19,10.78.17,2.05-.01,4.12-.5,6.4.05-.7,1.06-1.24,2.09-2.3,2.32-4.73.99-9.53,1.62-14.34.78-1.59-.28-2.72-.88-3.13,1.42-.17.92-1.23,1.72-2.45,1.83-.49.04-1.05.22-1.04.84,0,.69.65.54,1.09.7,2.62.89,5.41,1.48,7.8,2.81,7.19,4.01,15.05,4.23,22.76,3.56,6.61-.58,13.17-2.49,19.05-5.82,3.17-1.79,6.67-3.24,9.3-6.55ZM137.15,50.67c-.2,2.65.34,4.89,2.01,6.84,3.23,3.76,7.53,5.53,12.24,6.07,4.62.53,4.65.28,4.57-4.31,0-.25-.02-.5,0-.74.13-1.28-.25-1.97-1.72-2.08-1.93-.15-3.55-1.01-4.77-2.66-.97-1.31-1.13-2.78-.33-3.91.69-.98,2.11-1.15,3.44-.63,7.77,3.08,13.66.32,19.08-5.52,1.32-1.42,1.58-2.01-.24-3.15-1.56-.97-1.72-4.01-.36-5.31,1.37-1.32,2.53.17,3.69.76.29.15.48.47.76.63,3.18,1.73,5.79,4.57,9.61,5.05.64.08,1.53.87,1.98-.05.36-.73-.62-1.01-1.03-1.48-.38-.43-.78-.84-1.21-1.23-.68-.62-.62-1.23-.13-1.96.52-.78,1.21-.81,1.95-.53.45.17.83.54,1.27.77,6.53,3.5,8.66,4.6,16.25-1.12,1.57-1.18,3.05-2.5,4.69-3.57.53-.34,1.24-1.1,1.99-.63.96.6.29,1.49.1,2.24-.53,2.15-1.88,4.27,1.23,5.88,1.31.68,1.97.82,2.85-.25,2.36-2.88,3.8-6.16,4.24-9.85.07-.55-.04-1.17-.23-1.69-1.53-4.22-4.18-7.41-7.92-10.06-5.73-4.07-11.55-2.2-16.13.56-2.58,1.55-5.04,2.5-7.98,2.71-3.75.27-7.26-.78-10.85-1.53-5.62-1.16-10.45,1.02-15.13,3.82-4.08,2.44-6.63,5.55-5.78,10.69.32,1.91-.92,3.06-2.73,3.56-1.93.54-3.95.33-5.9.66-1.98.34-4.26.33-5.59,2.13-2.21,2.97-4.4,6.02-3.92,9.9ZM207.36,136.57c1.35,1.86,3.97,2.9,4.32,5.22.55,3.6,2.85,5.99,4.86,8.65.98,1.3,2.43,2.55,2.71,4.01.68,3.45-1.48,6.15-5.15,6.92-1.83.38-3.63.86-5.54,1.02-2.92.25-5.84.78-8.74,1.2-2.07.3-4.65,1.97-6.67-.37-1.47-1.7-3.22-3.06-3.85-5.56-.54-2.13-1.6-4.27-2.58-6.3-2.69-5.55-6.08-10.69-9.9-15.56-1.01-1.28-1.73-2.8-3.02-3.87-.51-.42-.86-.78-1.52.1-2.16,2.9-2.39,4.71-.38,7.53,1.15,1.61,2.61,2.98,3.75,4.59,2.41,3.37,5.34,6.36,6.97,10.32.92,2.23,1.5,4.47,1.86,6.83.58,3.85,2.98,7.1,3.84,10.86.38,1.67.87,3.34.94,5.03.11,2.4,1.36,4.4,2.24,6.45.55,1.28,2.7.25,4.13.45,4.39.61,8.83.81,13.23,1.49,4.61.71,9.1-.51,13.6-1.45,2.88-.6,5.45-1.17,7.08-4.14.89-1.61.71-3.18,1.01-4.74.85-4.42,2.21-8.94-.8-13.15-.13-.19-.27-.56-.18-.69,1.5-2.29-.75-3.34-1.58-4.85-.47-.86-1.12-1.66-1.44-2.58-1.75-5.06-4.43-9.69-6.55-14.59-.86-1.98-2.53-3.23-4.94-2.94-1.57.18-3.11-.06-4.62-.5-1.07-.31-2.09-.29-3.09.61ZM238.93,208.37c-.28-.88-1.22-.72-1.77-1.14-.59-.46-1.3-.84-1.38-1.65-.14-1.3.2-2.53,1.26-3.31,1.07-.78,2-.07,2.88.61,2.9,2.26,5.4,5.13,9.28,5.89.78.15,1.49.49,1.93-.36.43-.83-.52-1.07-.89-1.52-1.29-1.59-3.18-2.71-3.98-4.68-.57-1.4-1.55-2.4-2.82-2.98-3.12-1.42-4.22-4.29-5.27-7.15-.55-1.5-.12-2.62,1.85-2.45,1.39.12,2.79-.01,4.15.53.7.27,1.85.75,2.12-.31.24-.93.06-2.12-1.26-2.61-1.54-.57-2.97-1.62-4.55-1.86-3.01-.47-6.05-1.28-9.03.69-2.1,1.39-4.49,2.5-6.89,3.24-2.94.91-5.78,2.19-9.07,2-7.02-.4-14.04-.93-20.82-2.73-1.67-.44-3.02.83-4.55-.15-2.48-1.58-4.52-3.6-6.17-5.95-1.92-2.73-3.84-3.12-5.81-.49-2.58,3.44-5.83,6.2-8.69,9.36-2.12,2.34-2.23,3.2-.17,5.62,1.22,1.44,2.73,2.64,3.86,4.13,2.93,3.87,6.71,5.98,11.53,6.55,6.77.81,13.08-.99,19.41-2.93,3.91-1.2,7.19-4.26,11.68-3.84,1.41.13,3.29.97,3.88-1.46.09-.39.73-.2,1.12-.05,2.59,1.01,5.07,1.98,7.15,4.12,2.9,2.99,5.51,7.32,11.02,4.89ZM163.03,376.42c-.02,4.4,1.32,5.22,4.94,3.9,1.67-.61,2.85-1.67,3.85-2.91,2.19-2.72,4.46-5.35,3.11-9.48-.54-1.67-.93-3.64-.87-5.54.13-4.11.38-8.23,1.53-12.2.87-3.01.77-6.33,1.91-9.1,1.73-4.2,1.1-8.7,2.57-12.88.64-1.83-.1-4.08.51-6.11.36-1.21-.1-1.81-1.48-1.79-2.23.03-4.52.22-6.66-.25-2.68-.59-5.19-2.13-8.05-.73-.81.4-1.39-.21-1.96-.7-1.07-.91-1.85-.83-1.86.74-.03,4.46.31,8.88,1.3,13.25.95,4.2,2.62,8.18,3.05,12.56.37,3.72,1.47,7.41,2.58,11.01.77,2.5-.57,4.65-.51,6.98.07,2.65-.77,5.07-2.11,7.2-1.3,2.06-1.38,4.32-1.85,6.07ZM148.97,157.1c-.15,6.42,1.04,12.51,3.82,18.37,1.03,2.17,1.92,1.41,2.76.44,3.9-4.49,8.68-7.42,14.39-9.05,1.25-.36,3.22-.1,3.66-1.6.47-1.62-1.57-2.03-2.39-3.06-.05-.06-.12-.12-.16-.19-2.89-5.29-7.61-8.74-12.29-12.23-.63-.47-1.39-.79-.79-1.69.48-.72.92-1.56,2.16-1,1.48.66,3.16.91,4.58,1.67,6.05,3.22,10.35,8.22,13.77,14.05.35.59.38,1.74,1.38,1.3.94-.42,1.51-1.48.99-2.51-1.94-3.81-3.64-7.8-6.08-11.26-2.22-3.14-4.37-6.37-6.86-9.33-1-1.19-2.48-1.37-3.43-.16-.62.8-1.36,1.42-2.34,1.75-2.97.99-5.82,2.26-8.59,3.72-2.87,1.52-4.97,3.51-4.74,7.09.08,1.24.11,2.48.17,3.71ZM207.69,360.11c-.22,2.29.09,4.72,2.36,5.44,1.88.6,3.36,2.3,5.63,1.94,1.74-.28,3.46.31,4.89,1.35,2.11,1.54,4.64,1.91,6.98,2.83.39.15.83.3,1.04-.23.19-.49-.16-.73-.53-.96-.97-.61-1.92-1.26-2.88-1.88-6.45-4.14-10.42-13.48-8.75-20.76,1.42-6.17,3-12.31,4.36-18.5.45-2.06,1.11-4.14.88-6.31-.14-1.24-.2-2.2-2.09-1.55-2.69.93-5.55,1.37-8.45,1.08-1.96-.2-3.92-.39-5.88-.58-.77-.08-1.65-.18-1.48.99.54,3.79.43,7.89,1.92,11.28,1.98,4.53,2.35,9.1,2.74,13.81.33,4.06-.53,8.04-.72,12.05ZM269.13,154.95c-1.01.16-1.4.36-1.62.24-3.13-1.69-4.21.13-4.86,2.77-.08.31-.29.59-.46.87-3.04,5.33-6.09,10.65-9.12,15.98-.48.84-1.09,1.53-2.07,1.55-2.71.08-4.75,1.7-6.99,2.89-.82.43-1.83.83-1.79,1.81.04.99,1.13,1.19,1.94,1.61,1.55.8,3.44,1.24,4.15,3.16.17.46.2,1.06.86.98.61-.08.61-.65.72-1.13.76-3.33,3-5.46,5.97-6.78,4.09-1.82,8.49-2.58,12.9-3.09,1.83-.21,2.64-.88,2.37-2.82-.18-1.29-.23-2.68.02-3.95,1.06-5.34,2.28-10.65,4.13-15.79.27-.75.25-1.6.42-2.4.16-.76-.15-1.05-.87-1.13-2.28-.26-2.79-1.81-2.51-3.74.24-1.67-.42-3.26-1.9-3.18-3.63.19-4.47-1.57-4.15-4.64.02-.23-.02-.57-.17-.69-2.43-1.93-1.12-3.42.48-4.98.64-.62,1.08-1.45,1.62-2.18.35-.47.78-1,.33-1.55-.53-.65-1.42-.37-1.79,0-1.73,1.7-3.74,3.24-3.57,6.14.3,5.1,1.68,9.94,3.61,14.6.71,1.73-.06,3.9,2.36,5.45ZM175.28,43.29c.36,1.93.44,3.83-.79,5.61-2.68,3.87-6.49,5.87-10.9,6.95-1.01.25-2.08.53-1.96,1.79.41,4.35.14,8.8,1.77,13.32,2.72-3.03,5.27-5.75,8.15-8.22,3.54-3.04,7.7-4.94,11.45-7.53,4.41-3.04,9.42-4.39,14.75-3.95,4.31.36,8.59,1.04,12.76,2.29,1.52.46,1.77.21,1.39-1.52-.74-3.36-2.6-5.92-4.65-8.53-.82-1.04-1.39-1.16-2.4-.72-.75.33-1.48.72-2.27.95-4.29,1.25-8.63,2.11-12.91.08-1.57-.75-2.92-.5-4.46.03-1.76.61-3.64.7-5.53.85-1.88.15-2.5-1.99-4.4-1.42ZM165.76,188.65c3.51-2.21,5.69-5.35,8.11-8.18,2.44-2.85,4.65-5.73,8.85-5.75.72,0,1.2-.15,1.1-1.16-.34-3.37-1.76-4.46-4.94-3.62-.24.06-.48.1-.73.14-7.77,1.02-14.2,4.42-19.94,9.85-4.61,4.37-2.82,7.95.56,11.25.98.96,1.66.85,2.06-.61,1.04-3.86,3.25-7.1,5.73-10.14.99-1.21,2.67-2.72,3.94-1.53,1.39,1.3-.55,2.56-1.5,3.58-1.57,1.68-3.21,3.3-3.24,6.16ZM259.5,194.76c4.42-1.46,9.38-1.46,14.2-2.31,1.54-.27,1.84-.54,1.01-1.93-2.19-3.69-3.87-7.57-3.75-12,.01-.45.13-1.13-.59-1.1-.53.02-.87.51-.8,1.06.21,1.64-.96,1.94-2.12,2.14-1.37.24-2.77.37-4.16.51-3.9.4-7.01,2.37-9.8,4.94-.46.43-.93,1.07-1.01,1.66-.5,3.83,2.64,7.08,7.02,7.04ZM153.33,213.93c-.64-.22-1.12.09-1.63.35-6.18,3.13-11.7,7.24-17.26,11.31-2.53,1.85-4.09,4.38-5.55,7.05-.46.85-.5,1.47.62,1.53,1.71.09,3.43.29,4.95-.92,6.56-5.23,11.99-11.62,18.04-17.37.43-.41.99-1.07.84-1.95ZM149.23,209.17c1.75.31,3.68-.24,5.56-.82,1.54-.47,3.49-1.35,3.72-2.82.28-1.81-1.97-1.42-3.17-1.91-.23-.09-.42-.27-.66-.34-3.96-1.26-7.86-2.78-11.99-3.41-2.62-.4-3.95,1.43-2.83,3.83,1.79,3.83,4.95,5.49,9.37,5.48ZM248.95,159.86c-3.21.26-5.23,2.83-7.91,4.11-1.33.63-2.3,1.81-2.45,3.23-.45,4.1-4.1,7.08-3.84,11.39.03.55-.98,1.3.03,1.62.78.25,1.28-.66,1.54-1.32,2.54-6.53,7.43-10.55,13.81-12.94,1.79-.67,3.35-1.63,2.72-3.69-.49-1.6-2-2.51-3.88-2.4ZM225.55,140.44c.55,1.9,1.91,3.07,2.35,4.72.71,2.68,1.84,5.22,3.31,7.58.35.57.44,1.67,1.4,1.43.84-.21.74-1.21.78-1.92.06-1.1,0-2.51,1.49-2.29,1.48.22.91,1.74.82,2.69-.15,1.54-1.02,3.12-.41,4.6.55,1.34.69,2.51.13,3.78-.21.49-.37.92.14,1.31.53.4.85.06,1.26-.26,1.23-.96,2.53-1.82,3.75-2.79,2.9-2.29,3.02-2.45.29-5.03-3.08-2.92-5.12-6.84-8.78-9.18-2.16-1.38-3.62-3.76-6.53-4.65ZM286.43,159.16c-.25.28-.45.41-.44.51.63,4.5,2.5,8.62,4.04,12.84.22.6.75.69,1.42.29,1.82-1.09,3.88-1.63,5.92-2.26-3.06-4.48-8.19-6.74-10.94-11.39ZM282.43,133.59c-.14-.17-.29-.36-.45-.54-1.28-1.43-2.52-2.21-4.36-.61-2.31,2.03-4.91,3.76-5.98,6.86-.19.54-.49,1.13.14,1.54.2.13.71.07.87-.1,2.38-2.49,5.58-3.68,8.4-5.46.59-.37,1.25-.83,1.38-1.69ZM269.61,136.31c2.42-3.05,4.88-5.88,8.69-7.24.97-.35.57-1.95.29-2.94-.17-.6-.81-.56-1.46-.37-4.05,1.18-7.74,6.07-7.51,10.54ZM200.85,311.41c6.25.47,12.5.73,18.67-.7-6.25-.34-12.52-1.35-18.67.7ZM180.86,311.26c0-.64.07-.85,0-.95-1.41-1.89-11.44-3.61-13.4-2.29-.22.15-.45.54-.42.78.08.47.55.49.97.56,4.22.65,8.53.57,12.86,1.91ZM129.89,271.83c-.51.01-.94.1-1.2.66-1.27,2.76-1.65,5.76-2.41,8.66-.13.5-.47,1.47.52,1.61.89.12.95-.66,1.02-1.35.15-1.34.71-2.48,1.59-3.52,1.16-1.37.97-3.22,1.53-4.82.23-.65-.12-1.32-1.05-1.24ZM276.06,144.85c.13-.09.29-.17.39-.29,1.65-1.88,4.2-2.16,6.17-3.47.73-.48,1.57-.75.88-1.82-.58-.89-1.34-1.16-2.3-.53-1.64,1.08-3.29,2.15-4.93,3.24-.7.46-.75,1.25-.87,1.96-.07.45.19.77.65.9ZM261.57,104.77c2.27.22,2.71-1.51,3.09-3.06.23-.93-.31-1.82-1.44-1.9-1.51-.1-3.16,1.59-3.18,3.12-.01,1.07.05,2.06,1.53,1.84ZM219.81,304.72c4.49-.39,8.68.36,12.22-2.47.42-.33.91-.57.67-1.09-.24-.51-.67-.13-1.03.04-3.04,1.39-6.24,2.12-9.55,2.48-.62.07-1.32,0-2.3,1.03ZM242.64,175.17c2.42-1.65,5.82-1.54,7.54-4.41.21-.35.56-.7.32-1.11-.35-.58-.91-.29-1.29-.06-2.47,1.5-5.01,2.92-6.57,5.57ZM195.78,303.51c.48.04.63-.76.81-1.44.21-.83-.27-1.79.59-2.51.29-.24.44-.74-.04-1.04-.39-.24-.91-.16-1.09.19-.55,1.06-1.65,1.27-2.52,1.84-.5.33-1.48.2-1.32,1.13.12.68.86.95,1.44,1.21.5.23,1.08.31,2.14.6ZM135.65,254.7c-1.68.71-1.2,2.21-1.75,3.16-1.17,2.03-.88,4.64-2.74,6.4-.46.44-.34,1.41,0,2.1.07.13.44.24.61.18.82-.29.65-1.03.69-1.67.05-.84.47-1.54.72-2.31.83-2.54,2.08-4.98,2.47-7.87ZM285.98,144.84c-.01-.57.26-1.77-.67-1.29-1.64.86-3.58,1.23-4.87,2.71-.24.28-.71.55-.42,1.03.31.52.8.44,1.29.24,1.19-.49,2.34-1.07,3.72-1.03,1.08.03.87-.96.95-1.65ZM138.85,279.11c.2.12.41.23.61.35,1.72-1.62,2.59-3.68,2.71-6.1.02-.51.48-1.28-.32-1.5-.82-.23-1.2.66-1.35,1.14-.64,2-1.11,4.06-1.64,6.1ZM269.58,122.63c-.71-3.36-2.12-6.37-3.91-9.22.4,3.47,2.47,6.23,3.91,9.22ZM141.38,247.67c2.35-.35.59-2.68,1.83-3.56.31-.22.24-.76-.14-1.06-.1-.08-.32-.05-.47-.01-.42.1-2.02,4.02-1.75,4.36.12.16.38.2.53.27ZM130.44,296.35c-.07.26-.13.51-.2.77,1.23.52,2.47,1.01,3.69,1.55.57.25,1.24.87,1.57-.14.27-.84-.6-1.05-1.15-1.35-1.24-.69-2.72.27-3.92-.83ZM147.6,299.19c.52-.15,1.46.28,1.53-.65.07-.86-.7-1-1.4-.85-.54.12-.88.01-1.23-.46-.51-.68-1.18-.61-1.6.06-.51.81.27,1.13.78,1.5.56.4,1.22.42,1.93.4ZM245.52,303.09c.04.27.09.53.13.8,1.84-.35,3.68-.69,5.51-1.04-.04-.23-.08-.47-.12-.7-1.87.08-3.75.19-5.52.95ZM121.41,284.17c-.02-1.13.51-2.1.77-3.16.11-.45-.46-.91-.75-.75-.99.55-1.29,1.59-1.37,2.64-.05.61.38,1.06,1.35,1.27ZM161.29,283.64c-.36-.57-.33-1.53-1.28-1.54-.74,0-.84.66-.8,1.25.05.73.13,1.6,1.12,1.53.53-.03.94-.57.96-1.25ZM155.53,307.01c.57-.05,1.52.23,1.33-.58-.26-1.12-1.57-.94-2.46-1.26-.48-.17-1.22-.18-1.11.43.21,1.15,1.38,1.16,2.24,1.42ZM255.11,288.68c0-.13-.01-.26-.02-.4-.88,0-1.77,0-2.65,0-.69,0-1.17.4-1.07,1.06.13.92.83.56,1.34.37.81-.31,1.6-.68,2.41-1.03Z"/>
  <path d="M193.63,270.4c-3.29-1.5-6.48-2.33-8.89-4.18-4.96-3.79-10.38-7.05-13.89-12.62-2.63-4.16-5.6-8.1-6.89-12.91-1.03-3.84-2.52-7.59-2.51-11.67,0-1.24-.08-2.47-.51-3.66-.46-1.31-.09-2.41,1.26-2.75,1.36-.34,1.96.61,2.43,1.82,1.15,2.97.39,6.23,1.51,9.18,1.22,3.24,1.32,6.87,3.58,9.78.88,1.14,1.35,2.63,1.85,4.02,1.36,3.85,3.49,6.98,6.96,9.38,2.22,1.54,3.81,3.98,5.79,5.9,1.79,1.74,4.17,2.54,6.37,3.59,1.62.78,2.38,2.03,2.95,4.1Z"/>
  <path d="M169.96,214.54c4.65,12.2,11.72,22.29,19.62,32.02-1.5-.9-3.27-.63-4.69-1.84-4.09-3.44-8.03-7.13-10.35-11.91-2.3-4.73-4.84-9.45-5.99-14.68-.28-1.29.38-2.17,1.42-3.59Z"/>
  <path d="M229.07,225.68c2.96,4.29,4.56,8.7,3.85,14.2-.64,4.95-1.75,9.63-3.51,14.22-.24.62-.47,1.24-.79,1.81-.49.86-1.07,1.98-2.2,1.53-1.06-.42-.11-1.45-.13-2.2-.09-2.71.97-5.11,2.05-7.5.13-.3.35-.62.33-.91-.34-4.93,1.6-9.78.52-14.72-.46-2.12-.11-4.25-.11-6.43Z"/>
  <path d="M201.63,152.15c-.39.6-.65,1.13-1.02,1.55-.71.8-.16,3.02-2.01,2.42-2.69-.88-3.17-2.54-2.04-4.9.95-1.98,1.66-4.04,3.34-5.64,1.49-1.42,2.61-1.36,3.95.09,1.46,1.58,2.8,3.25,3.48,5.29.67,2.01,1.89,3.43,3.7,4.4.77.41,1.22,1.08,1.74,1.72.27.33.42.73.14,1.13-.26.37-.65.53-1.08.38-2.24-.82-4.35-1.95-6.91-1.74-.87.07-1.44-1.26-1.81-2.18-.33-.83-.49-1.74-1.47-2.52Z"/>
  <path d="M258.27,218.93c5.91,1.34,11.87,1.81,17.91,1.57,1.73-.07,3.42-.14,5.1-.54,1.02-.25,2.14-.21,2.35,1.06.2,1.2-.94,1.43-1.8,1.62-2.22.49-4.52.35-6.76.61-3.44.4-6.76-.46-10.14-.55-2.41-.06-4.83-.63-7.15-1.44-.73-.26-1.54-.59-1.32-1.45.2-.77.93-1.14,1.81-.87Z"/>
  <path d="M303.42,209.82c-.28.12-.52-.52-.74-1.02-.3-.69.18-.86.75-.85,3.67.03,6.04-2.45,8.51-4.57,2.55-2.19,5.74-3.06,8.56-4.66.65-.37,1.1,0,.99.82-.2,1.48-.89,2.61-2.22,3.35-3.06,1.71-6.21,3.24-9.23,5.06-1.74,1.05-4.03,1.19-6.61,1.88Z"/>
  <path d="M264.84,209.29c-1.66.21-3.21.13-4.58-.76-.51-.33-1.28-.55-1.12-1.43.15-.8.81-.93,1.46-1.11,2.17-.59,4.21.54,6.35.47.96-.03,1.89.55,2.91.11.66-.29,1.12.12,1.31.75.24.76-.34,1.04-.9,1.22-1.79.56-3.55,1.41-5.43.75Z"/>
  <path d="M301.19,218.09c-.55-.14-1.39.1-1.26-.56.28-1.43,1.69-1.34,2.75-1.61.48-.12,1.25.17,1.04.69-.44,1.09-1.66,1.14-2.54,1.48Z"/>
  <path d="M288.31,167.45c2.6,1.37,4,3.35,4.5,5.97.09.48.21,1.01-.29,1.33-.16.1-.61.05-.67-.07-1.24-2.32-4.28-3.77-3.54-7.23Z"/>
</svg>