<?xml version="1.0" encoding="UTF-8"?>
<svg id="Layer_1" data-name="Layer 1" xmlns="http://www.w3.org/2000/svg" viewBox="0 0 400 400">
  <path d="M350.81,100.23c-.52-2.72.24-5.59-1.05-8.34-1.02-2.17-1.55-4.56-2.93-6.6-1.06-1.56-3.07-2.31-3.86-3.81-1.47-2.8-3.9-3.8-6.5-4.87-1.01-.42-2.09-.62-3.11-.91-2.42-.67-3.6-2.78-5.11-4.29-1.63-1.62-3.43-3.4-4.03-6.01-.63-2.74-1.21-5.77-3.39-7.74-3.52-3.2-6.48-7.01-11.36-8.75-2.15-.77-4.06-2.54-6.56-2.97-2.77-.48-5.53-1.15-8.34-.63-1.19.22-2.29.04-3.44.01-2.17-.05-4.21-1.59-6.49-.49-.43.21-1.45-.05-1.72-.43-1.03-1.47-2.67-1.57-4.11-2.18-2.05-.86-4.48-1.25-5.34-3.87-.19-.58-.87-.94-1.59-1.2-1.75-.63-3.83-.68-5.28-1.67-4.11-2.8-8.75-3.13-13.41-3.63-2.93-.32-5.71.67-8.56.99-5.42.61-9.19,3.91-12.46,7.58-5.78,6.46-6.15,14.3-4.04,22.29.46,1.76.94,3.66,2.14,5.3,1.99,2.72,5.13,3.98,7.44,6.31,1.35,1.36,1.41,2.07.55,3.36-2.4,3.55-4.83,7.09-7.21,10.65-.75,1.12-1.85,2.26-2.01,3.49-.33,2.67-2.08,4.32-3.91,5.62-5.67,4.01-10.21,9.06-14.18,14.66-2.05,2.9-2.23,6.51-3.16,9.81-.4,1.44-1.19,2.79-1.22,4.37-.02.92.38,1.5,1.09,1.81.71.31,1.37.01,1.78-.69,1.46-2.54,3.1-5,4.33-7.65,1.14-2.45,2.18-4.9,3.88-6.95-.03-3.31,1.72-6.4,4.69-8,.64-.35,1.32-.62,2-.84-.08-.19-.12-.39-.1-.63.07-.81,1.02-1.19,1.75-1.56,2.24-1.11,4.51-2.16,6.41-3.87.68-.61,1.75-1.51,2.58-1.06,1.66.91,3.5,1.18,5.18,1.22,1.78.04,3.16.07,4.42,1.52.47.54,1.62.78,2.53.16.2-.14.53-.14.8-.12,5.11.25,9.49,2.89,14.19,4.46,2.14.71,4.19,1.85,6.27,2.62,6.22,2.31,11.99,5.34,17.51,8.98,1.69,1.12,2.07,1.84.91,3.51-1.73,2.5-.74,7.86,2.46,8.43-1.53.52-2.37,1.93-4.31,1.07-1.08-.48-3.02-.69-4.12.23-1.38,1.16-1.16,5.56-.07,7.44.64,1.1,1.3,2.21,1.56,3.5,1.15.67,1.52,1.92,2.2,2.93.26.39.32.77-.1,1.09-.37.28-.81.26-1.17.02-1.47-.99-1.7-2.35-1.13-3.93-.28-.04-.56-.05-.83-.12-2.56-.63-2.83-.45-3.06,2.06-.34,3.72,1.33,7.12,1.77,10.72.09.77.6,1.29,1.69.89.64-.24,1.51-.17,1.9.98.55,1.63,2.04,1.82,3.2.57.23-.25.1-.61.67-.82,3.43-1.24,6.88-2.14,10.59-2.21,3.63-.08,7.61,2.81,7.57,6.41-.03,2.12-.25,4.41-1.22,6.47-2.23,4.74-5.65,8.38-10.35,10.62-3.83,1.82-7.74,4-12.26,2.5-1.16-.38-2.56-.35-3.32-1.75-.41-.75-1.36-2.08-2.13-1.4-.9.78-2.28,1.6-2.03,3.35.41,2.85,3.45,6.65,6.27,7.32,1.41.34.9.8.37,1.48-1.31,1.64-2.51,3.36-3.24,5.32-.29.77-.87.93-1.42,1.04-3.79.79-7.07,2.91-10.64,4.27-5.96,2.27-11.88,4.64-17.94,6.68-5.08,1.71-10.41,2.73-15.24,5.17-.67.34-1.41.59-2.14.78-.97.25-2.07-.44-1.97-1.07.46-3.04-2.14-2.46-3.35-2.56-4-.33-7.46-2.13-10.85-3.84-5.42-2.74-9.32-7.35-12.78-12.27-1.55-2.21-2.61-4.57-3.32-7.26-.65-2.48-2.39-4.55-2.82-7.34-.65-4.25-1.41-8.49-1.28-12.77.16-5.23-.35-11.34,1.16-16.33,1.22.51,2.72,3.01,3.87,3.63,5.56,2.99,11.2,5.47,17.8,4.12,2.22-.46,4.15-1.16,5.83-2.78.92-.89,1.24-1.68.72-2.67-.6-1.12-1.61-.51-2.52-.35-4.38.79-8.78,1.01-13.05-.52-2.87-1.03-5.07-2.97-6.92-5.42-.86-1.13-1.59-5.4-.77-6.57.07-.11.2-.29.25-.28,2.23.66,4.55-1.09,6.77.34,1.05.67,2.2,1.27,3.5,1.25,2.37-.04,4.63.61,6.94.93,2.26.31,4.77.3,6.74-.64,3.3-1.57,5.47-4.56,7.19-7.81.8-1.51.82-3.11.89-4.72.04-1.02-.62-1.71-1.43-2.13-.54-.27-1.32-.37-1.72.27-.97,1.57-2.36,3.23-2.6,4.83-.42,2.82-2.26,4.29-3.95,6.01-.6.61-1.58,1.45-2.33.73-.04-.03-.04-.09-.08-.13-.13.04-.22.12-.35.15-1.02.2-2.07.06-3.06-.24-.67-.2-1.29-.45-1.92-.73-.12-.05-.25-.1-.37-.16,0,0,0,0-.02,0-.15-.03-.31-.04-.46-.07-.8-.13-1.39-.64-1.79-1.3-1.91-1.02-4-1.54-6.08-2.02-3.82-.88-7.43,0-10.03,2.77-3.05,3.25-3.3,7.31-1.37,11.5-1.33-.51-2.5-.47-2.98.76-.57,1.48-1.51,2.76-1.81,4.41-.5,2.77-1.15,5.52-1.78,8.25-1.28,5.58-1.08,11.2-.32,16.64.97,6.97,2.84,13.87,8.09,19.46-1.38-.23-2.31.36-3.14,1.41-.71.89-2,1.24-2.42,2.5-.21.61-.91.66-1.44.49-3.16-1.03-6.41-.96-9.68-1.03-6.21-.14-12.33.91-18.51,1.17-2.25.09-4.7.29-6.53-2.01-2.11-2.65-4.92-4.19-8.55-3.32-1.1.26-.98-.77-1.16-1.32-1.28-4-2.95-7.67-7.47-8.93-1.29-.36-1.69-1.24-2.24-2.4-.58-1.23.66-2.2-.01-3.16-.95-1.36-1.09-2.92-1.52-4.45-.49-1.73,0-3.43-.53-5.11-1.27-4.03-.79-8.34-1.75-12.44-.09-.38-.06-.89.13-1.22,1.7-2.86,2.45-6.08,3.51-9.18,1.73-5.09,2.45-10.29,1.8-15.69-.33-2.81-.36-5.68-.2-8.51.23-3.85,2.8-6.75,4.54-9.97.94-1.75,2.45-3.57,2.09-5.44-.81-4.21-4.13-6.63-8.39-6.41-6.33.32-11.56,6.52-13.28,11.75-.67,2.03-.65,4.17-1.09,6.22-2.36-.9-4.01-2.53-6.06-3.6-3.98-2.07-6.31-6.24-10.12-8.63-.11-.07-.18-.21-.24-.33-1.84-3.66-4.89-6.33-7.93-8.85-2.51-2.08-5.11-4.41-8.68-4.6-1.74-.09-3.81-.49-4.91,1.21-1.41,2.15-3.04,4.5-.89,7.19.71.88,1.08,1.88,1.13,3.2-1.79-.41-2.94-1.69-4.21-2.59-4.67-3.28-9.38-2.82-12.19,2.38-.64,1.18-.72,2.69-2.78,2.61-.77-.03-1.62,1.17-2.08,2.18-.67,1.48-1.05,3.05-1.06,4.64-.03,4.09,1.19,7.59,5.37,9.53-1.45.58-2.48-.45-3.75-.03-3.48,1.13-4.27,6.39-2.76,8.92,1.4,2.35,3.25,4.29,5.67,5.64,2.37,1.32,4.86,2.44,7.13,3.92,3.94,2.58,7.27,5.93,10.77,9.06,3.73,3.34,6.91,7.49,11.08,10.08,3.04,1.89,2.57,2.91,1.8,5.69-.84,3.01-2.22,5.85-2.68,9.1-.56,3.96-3.12,7.61-2.27,11.93-2.21,3.03.23,6.75-1.47,9.85-.75,1.36.81,2.48.34,3.79-.4,1.12-.2,2.16.01,3.32.32,1.74.69,3.61-1.4,4.99-2.05,1.36-2.74,3.74-3.02,6.12-.11.91.34,1.87.3,2.79-.14,2.95,1.67,6.65,4.16,8.16.8.49,1.6,1.09,1.58,2.03-.09,4.82,1.83,8.24,6.16,10.65,2.25,1.25,4.33,2.52,6.92,3.09,2.57.57,4.83,2.21,6.84,3.86,2.43,1.99,5.18,3.36,7.85,4.86,1.82,1.02,4.06,1.31,5.66,2.67.98.83,1.97,1.2,3.1,1.22.78.01,1.65,0,2.21.37,2.84,1.87,6.24,1.6,9.32,2.54,1.53.46,1.56.72.93,1.91-1.04,1.96-2.99,3.42-3.69,5.39-1.1,3.09-3.54,5.37-4.35,8.67-.73,2.96-2.63,5.62-3.87,8.47-.9,2.08-1.57,4.27-2.35,6.4-1.17,3.21-2.23,6.46-3.57,9.6-.9,2.12-1.25,4.37-2.05,6.51-1.2,3.22-2.44,6.45-3.22,9.79-.52,2.22-.07,4.63-1.08,6.86-.38.83-.81,1.69-.99,2.68-.86,4.78-1.84,9.52-2.41,14.36-.43,3.7-1.36,7.34-2.15,10.98-.67,3.11.11,6.07,2.13,8.18,2.19,2.29,3.99,4.9,6.23,7.16,3.02,3.05,6.74,4.88,10.13,7.29,2.39,1.7,5.32,2.44,7.51,4.53.97.93,2.33,1.7,3.63,1.95,2.05.4,4.16.34,5.45,2.41.21.34.66.63,1.09.46,1.78-.71,3.08.36,4.43,1.18.67.41,1.35.86,2.11.84,2.68-.07,5.38.37,7.82,1.14,7.1,2.24,14.34,1.66,21.56,1.72.85,0,1.46-.24,1.89-1.02.47-.85.23-1.53-.16-2.34-.73-1.54-2.14-.55-3.13-.99-2.8-1.25-5.89-1.09-8.81-1.87-3.87-1.03-7.89-1.65-11.78-2.54-3.87-.89-7.99-1.76-11.41-4.21-.54-.39-1.24-.71-1.9-.77-4.03-.37-7.37-2.78-11.25-3.73-2-.49-3.85-2.7-6.01-3.66-2.38-1.06-3.91-3.2-6.16-4.41-.53-.29-1.48.1-1.63-.84-.28-1.79-1.96-2.63-2.97-3.74-1.58-1.73-2.82-2.68-.73-4.93,1.69-1.82.93-4.49,1.24-6.75.43-3.15,2.03-6.29.56-9.57-.06-.14.09-.39.17-.59,1.77-4.69,3.43-9.43,4.29-14.36,1.09-6.23,3.52-12.13,4.34-18.4.04-.32.26-.64.45-.92,3.15-4.49,4.27-9.9,6.59-14.78,2.07-4.35,2.82-9.4,5.63-13.44,2.29-3.28,3.08-7.2,5.3-10.53,1.23-1.84,3.2-3.43,3.5-5.9.1-.83.56-1.51,1.11-2.17,2.35-2.81,3.57-6.38,6.04-9.14.52-.58,1.4-.93,1.53-1.89.27-1.92,1.57-3.42,2.63-4.83,1.9-2.51,3.66-5.15,5.77-7.53,3.12-3.52,5.57-7.63,9.36-10.58.66-.52,1.11-1.44.81-2.06-.38-.77-1.33-1.12-2.34-.98-.86.12-1.63.43-2.27.97-2.32,1.96-5.19,3.34-6.94,5.87-1.14,1.64-3.19,1.39-4.39,2.88-3.17,3.95-6.53,7.74-9.86,11.56-.74.84-.91,2.22-2.32,2.59-.8-5.25-.08-10.49-.94-15.63-.24-1.4-.93-1.87-2.2-1.15-.99.56-1.26,1.54-1.59,2.55-1.19,3.61-.96,7.34-.73,11.01.1,1.64.11,3.39.94,4.98,1.38,2.64.7,5.24-.48,7.78-.44.94-1,1.3-1.87.49-1.24-1.16-2.65-2.03-3.59-3.61-.8-1.34-1.99-2.71-3.79-3.15-.52-.13-.87-.47-1.41.04-.66.61-.36,1.13-.01,1.65.92,1.36,1.71,2.82,3.43,3.99-1.55-.3-2.89-.27-3.93-.81-4.43-2.29-8.88-4.54-13.46-6.53-.76-.33-.83-.78.06-1.48,1.03-.82,2.22-.22,3.3-.96,1.94-1.33,3.69-2.85,5.54-4.28,1.25-.96,2.78-1.5,3.78-2.86,1.33-1.79,2.77-3.51,4.26-5.16,2.97-3.29,4.81-7.31,6.14-11.34,1.76-5.29,2.91-10.85,3.01-16.54,1.5.08,3,.38,3.71,1.63,1.19,2.09,2.34,4.28,3,6.57,1.22,4.23,1.95,8.59,2.25,12.98.09,1.3.89,1.73,1.78,1.93,1.14.25,1.29-.88,1.47-1.62,1.13-4.65,1.74-9.31.21-14.01-.32-.98-.05-.99.97-.98,1.55.01,2.71,1.05,4.38.9,6.07-.56,12.18-.74,18.27-1.13,1.83-.12,3.69.43,5.49-.4.51-.23.88.14.84.81-.19,3.41.3,6.6,3.08,9.01.18.16.35.49.32.72-.16,1.35.53,1.89,1.76,2.03.24.03.58.19.65.37.16.41-.23.64-.53.76-3.04,1.17-5.54,3.22-7.84,5.37-3.04,2.84-6.46,5.37-8.43,9.31-.71,1.42-1.13,2.96-2.07,4.34-2.16,3.16-5.1,5.64-7.27,8.75-.54.78-1.24.75-1.96.96.2.45,1.06.18.92.94-.48.65-1.35-.84-1.71.24-.32.97.28,1.63,1.07,2.01,2.31,1.11,4.48,2.44,7.28,2.44,1.65,0,3.27-.29,4.92-.25,4.57.11,8.9-1.1,12.96-3.15,3.75-1.9,6.92-4.38,9.75-7.71,2.53-2.97,4.65-6.14,6.88-9.28.47-.66.72-.52,1.29-.27,1.48.63,3.34,0,4.63,1.35,1.21-1.3,3.55-.27,4.5-2.27-.08,2.63.14,5.13-.15,7.71-.33,2.89,1.34,5.7,2.1,8.55.77,2.87,3.19,4.93,5.11,7.09,1.83,2.06,4.33,3.52,6.55,5.22.37.28.91.63,1.3.56,1.5-.28,2.78,1.9,4.36.37.01-.01.29.27.46.38,2.56,1.77,5.34,1.22,8.02.56,1.27-.31,2.35-1.48,1.08-2.82-2.82-3.01-2.74-6.86-3.23-10.51-.43-3.23-.24-6.54-.77-9.75-.64-3.87-.88-7.86-2.72-11.51,1.14-.32,1.83.52,2.74.56,3.71.14,7.4-.82,11.12-.25.2.03.43.02.62-.04,3.17-1.05,6.58-.39,9.73-1.35,2.91-.89,6.2-.33,8.81-2.34.64-.49,1.37-1.01,2.13-1.18,5.79-1.29,10.9-4.26,16.17-6.75,1.79-.85,3.28.15,3.75.75,1.95,2.54,4.33,4.07,7.4,4.69.18.04.42.1.52.24,1.97,2.56,5.3,3.52,7.15,6.28,2.39,3.58,5.62,6.56,7.58,10.48,1.15,2.31,2.43,4.63,3.87,6.7,1.25,1.79,2.91,3.14,2.67,5.6-.05.55.21,1.18.47,1.7,1.5,2.99,2.22,6.22,3.18,9.39.8,2.65.93,5.54,2.52,7.92.45.66.53,1.37.79,2.05,1,2.58-.6,5.47,1.11,7.94.5.72,1.09,1.68,1,2.45-.33,2.99,1.25,5.31,2.08,7.93.65,2.04.79,4.56,1.02,6.83.24,2.45.13,4.99.55,7.49.25,1.48.41,3.03-.84,4.91-.4-3-2.04-4.72-3.46-6.52-1.95-2.46-3.45-5.17-4.33-8.12-1.96-6.61-7.33-9.38-13-11.62-2.49-.98-5.35-1.13-8.16-1.14-3.44-.01-6.8-.09-10.01,1.42-2.05.97-4.21,1.71-6.31,2.57-.57.23-1.4.34-1.07-.47.9-2.22,1.24-4.69,3.37-6.4,1.28-1.02,2.94-1.86,3.67-3.31.52-1.03,1.27-1.39,2.06-1.54,3.58-.69,6.35-3.04,9.56-4.49.69-.31,1.09-1.12,1.89-1.53,1.07-.55.77-2.05-.24-2.89-1.45-1.2-3-1.04-4.7-.81-3.7.5-7.15,1.56-10.57,3.15-2.02.94-2.93,2.65-4.45,3.87-2.87,2.3-5.09,5.11-6.58,8.45-1.5,3.38-3.55,6.75-1.07,10.56.21.32.38.78-.36.85-2.66.24-4.09,2.27-5.76,3.98-2.27,2.32-2.34,5.35-2.92,8.23-.13.64.33,1.49-.98,1.67-4.2.57-7.56,2.99-10.89,5.37-2.48,1.77-5.27,3.01-7.84,4.6-.39.24-1.02.47-1.39.32-2.52-.96-5.09-.55-7.68-.59-4.53-.07-8.99-.27-13.43,1.06-3.81,1.15-7.41,2.78-11.13,4.12-1.54.56-2.82,1.55-4.39,2.03-3.9,1.19-7.12,3.76-10.3,6.04-3.65,2.62-6.61,6.28-9.24,10.04-1.45,2.07-2.95,4.49-2.18,6.92,1.68,5.29,6.74,6.31,11.3,2.47,1.52-1.28,3.27-2.3,4.98-3.49.23.81-.18,1.15-.5,1.46-1.98,1.93-3.52,4.19-4.82,6.61-1.27,2.37-2.08,4.86-1.47,7.61.78,3.51,3.24,4.85,6.56,3.55.69-.27,1.26-.89,2.17-.65,0,.55-.02,1.11,0,1.66.08,2.07,2.04,4.01,4.12,4.15,2.84.2,5.26-.61,7.41-2.54,1.56-1.4,3.37-2.52,5.07-3.77-.91,2.01-1.92,3.77-1.99,6.04-.07,2.46,1.33,4.69,3.79,4.78,4.61.17,8.08-2.58,11.7-4.86,2.25-1.41,3.39-3.94,5.47-5.54,1.35-1.05,2.78-2.22,4.24-2.79,2.52-.99,5.2-1.58,7.16-3.56,1.09-1.1,2.38-1.68,3.78-1.81,2.39-.22,4.19-1.79,5.24-3.37,1.81-2.71,4.44-1.97,6.74-2.68-3.74,1.94-6.66,5.03-10.27,7.1-.48.28-1.16.52-1.11,1.11.04.57.68.92,1.24.88.68-.04,1.63.53,1.96-.53.16-.49.22-.93.77-1.11,3.64-1.18,7.24-2.41,10.78-3.9,3.68-1.56,7.13-3.37,10.26-5.77,2.2-1.69,4.69-2.42,6.54-1.4,2.83,1.56,3.31,2.59,2.82,5.84-.03.23.22.49.24.74.29,2.91.63,5.79.43,8.74-.11,1.64-.92,2.43-2.08,3.29-2.95,2.18-6.73,2.71-9.63,5.02-.79.63-1.79,1.71-3.1.58-.15-.13-.78.18-1.12.4-2.69,1.76-5.74,2.81-8.56,4.28-2.71,1.41-5.98.44-8.58,2.47-.85.66-2.47.71-3.64,1.25-1.15.53-2.27.76-3.52.95-2.58.39-5.13,1.01-7.71,1.48-2.09.38-4.11,1.38-6.19,1.51-3.39.22-6.83.56-10.11,1.08-4.92.78-9.88.44-14.75,1.25-3.09.51-6.18,1.01-9.27,1.52-.56.09-1.21.26-1.29.85-.09.7.64,1.4,1.11,1.26,1.5-.45,2.65,2.62,4.21.36.14.11.27.24.42.33,1.41.8,2.87,1.39,4.53.93,1.22-.34,2.42-.33,3.68-.16,1.73.24,3.39.52,5.24-.06,2.12-.67,4.49.54,6.74-.12,2.19,2.36,4.9.07,7.33.78,1.07.31,2.38-.21,3.58-.4,1.87-.3,3.55-1.72,5.64-.9.46.18,1.09-.03,1.64-.12,2.22-.37,4.41-.73,6.62-1.35,2.62-.73,5.39-1.27,8.06-1.9,4.99-1.2,9.81-3.09,14.55-5.13.46-.2.98-.51,1.34-.06.41.52-.16.88-.49,1.19-1.49,1.38-3.12,2.57-4.98,3.4-.72.32-1.19.76-.95,1.59.21.73.89.86,1.51.85.68,0,1.34-.1,1.93-.62,2.5-2.18,5.3-3.99,7.51-6.56.61-.71,1.98-1.5,3.76-1.17-2,1.41-3.89,2.63-4.59,4.45-.78,2.01-2.44,2.45-3.8,3.56-1.44,1.18-3.1,2.3-3.92,4.18-.37.85-.35,1.25.59,1.08.65-.12,1.31.19,1.97-.31,3.8-2.89,7.7-5.66,10.85-9.37.46,1.37-.53,2.57-.39,3.89.16,1.53.83,2.14,2.35,1.57,1.83-.68,3.13-2.16,4.01-3.65,2.24-3.83.74-8.43,2.12-12.53.28-.82.25-1.23,1.19-1.44,2.81-.63,4.38-2.27,4.82-5.32.64-4.4-.13-8.65-.93-12.87-.34-1.79-.35-2.46,1.56-3.11,1.36-.46,2.57-1.13,4.05-.88.36.06.79.16.95-.18.79-1.58,2.41-1.44,3.75-1.86,1.38-.43,2.53-1.04,3.04-2.54.44-1.29,1.57-2.16,2.76-2.36,2.57-.43,4.83-1.46,7.12-2.61,4.25-2.14,7.22-5.24,8.14-10.04.15-.79.48-1.37,1.21-1.96,1.97-1.63,3.86-3.76,4.5-6.03.53-1.87.96-4.01,1.13-6.02.25-2.9,1.53-5.7,1.06-8.63-.51-3.2-.78-6.41-.94-9.64-.17-3.51-1.49-6.75-2.27-10.1-1.07-4.61-1.48-9.35-3.13-13.9-.77-2.12-1.52-4.51-1.74-6.95-.13-1.46-.62-3.11-1.3-4.46-1.06-2.12-1.79-4.29-2.38-6.57-.61-2.35-1.51-4.66-2.54-6.87-1.19-2.56-2.97-4.89-3.89-7.53-.54-1.56-1.03-2.22-3.29-1.74,1.87-1.39,1.18-2.43.46-3.21-2.33-2.52-3.8-5.63-6.02-8.29-3.69-4.41-8.17-7.77-12.41-11.48-1.14-1-2.62-1.55-3.9-2.11-2.75-1.22-4.96-3.9-8.52-3.29-1.79.31-2.72-1.15-2.33-3.13.7-3.54,1.05-7-.66-10.42-.71-1.42-3.85-3.84-5.44-3.79,1.36-3.06,2.01-3.71,4.12-5.24.78-.57,1.53-.18,2.31-.48,4.5-1.74,8.12-4.8,11.78-7.75,1.47-1.18,2.68-2.85,3.6-4.52,1.74-3.17,3.09-6.55,3.4-10.21.26-3.1.98-6.22-.35-9.3-.9-2.08-1.48-4.04.22-6.27,2.41-3.16,1.66-6.67,0-9.98-.6-1.19-1.2-2.24.05-3.37.87-.79.69-2.2,1.26-2.91,1.2-1.49,1.45-3.56,3.1-4.72.29-.21.13-.44.06-.71-.22-.83.16-1.06.82-.6,2.54,1.74,5.51,2.54,8.41,2.95,4.09.58,8.4,1.54,12.23-1.29.54-.4,1.16-.82,1.9-.79,2.07.1,3.27-1.26,4.43-2.66.48-.58.81-1.27,1.47-1.74,4.77-3.37,6.18-8.34,6.61-13.82.2-2.5-.26-4.84-.72-7.27ZM92.25,149.48c-1.2-1.67-3.16-2.59-4.26-4.18-2.51-3.64-6.59-5.12-9.95-7.5-3.21-2.27-6.57-4.31-9.7-6.74-1.3-1.01-3.17-1.42-4.45-3.22,2.48-.27,4.5.07,6.77.77,4.01,1.24,7.75,3.18,11.8,4.22.2.05.42,0,.63.04,1.46.3,2.86-.14,3.22-1.52.31-1.19-.57-2.54-1.74-2.99-3.09-1.2-5.73-3.05-7.98-5.37-1.39-1.43-2.65-3.01-4.45-3.88-2.36-1.13-3.88-3.31-6.1-4.61-1.19-.7-1.89-2.07-1.03-3.18.93-1.21,2.32-.62,3.47.18.56.38,1.08,1.14,1.94.38.38-.33.68.07,1.03.34,1.93,1.51,3.9,2.97,5.85,4.45,2.87,2.17,5.92,4.09,8.96,6.02.6.38,1.28.55,1.67,1.41.34.77,1.36,1.08,2.32.34.71-.55,2.31-.24,1.75-1.91-.54-1.6-1.44-2.85-3.26-3.15-.26-.04-.6-.1-.75-.28-4.12-4.87-9.19-8.62-14.31-12.34-.89-.65-1.4-1.71-2.69-.74-.28.21-.99-.07-.83-.58.29-.93.42-2.16,1.87-2.07,1.3.08,2.43.71,3.37,1.49,2.84,2.35,6.17,3.84,9.35,5.6,1.24.69,2.36,1.41,3.14,2.61,1.97,3,4.67,4.97,8.22,5.71,1.62.34,2.18.84.73,2.37-2.16,2.27-2.91,5.48-4.89,7.91-.43.53-.51,1.29-1.11,1.74-.67.52-.65,1.14-.19,1.83.58.87,1.43.35,1.83.11.99-.59,2.05-1.33,2.66-2.28,1.97-3.06,4.71-5.42,6.98-8.21,1.66-2.04,1.8-3.71.38-4.69-.82-.56-1.82-.17-2.75-.67-1.03-.55-3.06-2.35-3.24-3.6-.03-.24-.2-.52-.4-.68-3.51-2.91-5.56-6.8-7.62-10.76-.69-1.32-1.68-2.52-2.23-3.96-.19-.5-.32-1.04.09-1.35.49-.38.78.19,1.17.46,4.55,3,8.3,6.75,11.22,11.37,1.07,1.7,2.96,2.61,4.31,4.11,1.66,1.85,3.73,3.34,5.67,4.93,2.11,1.73,4.75,2.5,7.17,3.61,1.47.67,2.63,1.78,4.15,2.31,2.3.79,3.8-.23,4.43-2.58.72-2.7.86-5.56,2.43-8.08.67-1.08.84-2.49,1.61-3.69,1.5-2.36,4.06-2.85,6.22-4.02.63-.34,1.72-.47,2.31.23.65.76.14,1.55-.34,2.27-2.38,3.58-4.4,7.39-5.5,11.53-1,3.74-1.8,7.75-.93,11.52.57,2.47.45,4.83.57,7.23.18,3.49-2.27,6.22-3.05,9.43-.7,2.88-3.05,5.6-1.18,8.84.08.14.09.44,0,.56-1.57,2.11-.31,4.34-.45,6.48-.24,3.61,1.29,6.89,1.05,10.4-.07,1.05.1,2.07.41,3.08.53,1.78.82,3.61.92,5.46.02.34,0,.82.21.98.83.66.71,1.65,1.04,2.4,1.9,4.32-.06,7.72-2.56,10.64-2.27,2.64-4.48,5.43-7.29,7.59-2.87,2.21-5.86,4.1-9.35,5.37-2.94,1.07-5.78,2.46-8.84,3.25-2.34.61-3.03.03-3.61-2.39-.74-3.1.08-6.38-.67-9.3-.7-2.69,1.07-4.92.29-7.41-.81-2.61.78-5.04.8-7.47.03-3.19.51-6.32.78-9.45.23-2.69,1.05-5.42,1.16-8.14.14-3.6.64-6.29,5.31-5.61.94.14,2.6-.06,3.28-1.22.39-.66.76-1.57.1-2.54-.76-1.11-2.07-1.09-2.77-.87-2.98.95-4.71-1.37-6.85-2.43-.78-.38-1.5-1.15-2.38-1.57-2.04-.97-3.59-2.54-4.87-4.33ZM138.38,207.42c-1.1,3.5-1.88,7.15-3.66,10.32-3.65,6.52-8.38,12.08-15.72,14.75-.32.12-.75.1-.98.31-3.15,2.77-6.79,2.22-10.49,1.7-2.6-.37-5.18-.53-7.39-2.27-.98-.77-1.59-1.67-2.3-2.78,1.7-.51,3.01.52,4.41.16,1.07-.27,2.42-.42,2.55-1.66.13-1.19-.95-2.06-2.06-2.24-3.91-.65-6.75-3.17-9.48-5.62-1.25-1.12-3.02-2.59-2.45-5.17,3.52,4.25,8.4,4.13,12.96,3.74,4.65-.39,9-2.42,13.22-4.48,3.2-1.56,5.79-4.05,8.62-6.11,2.3-1.67,4.2-4.26,5.74-6.92,1.12-1.94,2.57-3.7,3.09-5.94.27-1.16,1.73-1.11,2.14-2.4.41-1.32.18-2.49-.28-4.17,2.18,1.5,2.86,3.35,3.19,5.08.9,4.63.31,9.17-1.11,13.72ZM300.72,333.91c-5.89.96-11.62,2.93-17.52,3.82-3.94.59-8.03,1.62-12.07.27-.58-.19-.95.04-1.25.47-2.17,3.01-5.57,4.76-7.76,7.9-1.19,1.71-4.01,2.31-6.12,3.34-2.3,1.12-4.32,2.74-6.49,3.94-3.87,2.13-5.66,6.16-9.13,8.64-2.44,1.74-4.93,3.19-7.62,4.52,1.86-3.42,3.63-6.82,6.24-9.68.57-.62,1.09-1.25,1.32-2.09.57-2.04,2.78-2.66,3.79-4.35.31-.51.95-.83,1.28-1.33.78-1.2,1.88-2.59.64-3.91-1.14-1.21-2.58-.02-3.45.62-1.38,1.01-2.82,1.75-4.38,2.29-1.39.48-1.8,1.88-2.96,2.69-4.6,3.19-8.93,6.74-13.34,10.2-1.06.83-2.61,2.05-3.41,1.42-1.08-.86-.07-2.41.71-3.52,1.77-2.56,3.85-4.86,6.19-6.88,2.82-2.43,5.82-4.64,8.2-7.57,1.05-1.3,2.28-2.47,3.51-3.6.83-.76,1.26-1.62,1.27-2.72,0-.62-.29-.99-.87-1.28-.59-.29-.86-.12-1.4.2-1.6.95-3.18,1.91-4.62,3.1-1.71,1.41-3.98,2.04-5.37,3.91-1.1,1.48-2.13,2.98-4.24,3.32-.82.13-.89,1.43-1.4,2.15-1.35,1.9-3.34,3.2-4.46,5.34-1.03,1.97-3,2.42-5.21,2.73-2.8.39-1.61-.92-1.36-2.14.49-2.4,2.68-3.57,3.84-5.52,1.91-3.21,4.15-6.22,6.93-8.78,2.61-2.41,5.2-4.85,7.79-7.28,1.17-1.09,3.12-1.96,2.14-3.98-.98-2.02-2.69-.68-4.03-.3-5.46,1.55-10.33,4.14-14.74,7.83-2.84,2.37-6.34,3.95-9.52,5.93-.71.44-1.46.36-1.92-.03-.53-.45-.16-1.2.23-1.71,2.76-3.57,5.73-6.86,9.48-9.51,1.89-1.33,4.49-1.79,5.64-4.15.49-1.01,1.66-1.03,2.47-1.34,4.61-1.73,8.93-4.11,13.89-5.19,2.78-.6,5.46-.87,8.23-1.07,1.23-.09,2.45-.49,3.63-.87,1.42-.46,2.72-.32,3.92.53.21.15.33.42.66.41,3.2-.14,6.38.1,9.5-1.23,5.01-2.13,9.47-5.24,14.34-7.61,2.04-.99,4.08-1.95,5.86-3.42,1.1-.9,2.49-1.17,3.89-1.2.29,0,.52.02.75-.17,3.85-3.12,8.09-1.51,12.19-.88,1.44.22,1.91,2.08,3.17,2.93,3.6,2.42,5.31,6.01,6.08,10.26.38,2.12,1.72,4.05,1.62,6.35-.06,1.36.28,2.8-.08,4.06-.65,2.23-1.84,3.72-4.65,4.18ZM332.45,320.89c-.13.53-.29,1.09-.26,1.62.19,3.92-1.98,6.48-4.88,8.66-.5.38-1,.53-1.55.33-.73-.27-.25-.98-.43-1.47-.1-.3-.09-.74.07-1,1.23-2.13.7-4.48,1.03-6.71.77-5.22-1.26-9.31-4.03-13.28-.49-.7-1.43-1.21-2.33-.69-.67.39-1.01.91-.88,2.01.24,2.06.88,3.88,1.63,5.79.79,2,.61,4.29.4,6.47-.42,4.37-1.39,8.65-2.93,12.75-1.31,3.48-4.66,4.42-7.79,4.83-1.65.22-3.46,1.05-5.25.21-.47-.22-1.27-.06-1.41-.65-.18-.77.73-.81,1.15-.93,2.8-.81,4.73-2.88,6.48-4.92,1.16-1.34,1.76-3.34,2.15-5.14.91-4.14.56-8.22-1.16-12.18-1.83-4.22-4.97-7.33-8.04-10.65-4.28-4.61-10.1-5.4-15.48-7.23-1.88-.64-4.27-.29-6.66.31,2.44-4.81,4.76-6.07,10.94-5.24,3.98.53,7.96,1.16,11.9,1.92,1.33.26,2.56,1.03,3.81,1.63.65.31,1.33.36,1.67-.22.27-.46-.21-1.01-.61-1.4-1.27-1.28-2.98-1.78-4.6-2.26-1.07-.31-1.92-.65-2.73-1.43-.69-.67-1.55-1.31-2.77-1-.94.24-1.75-.53-1.81-1.28-.07-.88.96-.48,1.5-.54,4.63-.48,9.25-.64,13.76.82,2.91.94,5.62,2.32,8.09,4.13.67.49,1.16,1.19,1.54,1.95.43.86.77,2.06,1.49,2.42,2.14,1.07,2.31,3.37,3.55,4.96,2.22,2.86,2.42,6.58,4.19,9.7,1.25,2.21.9,5.08.24,7.67ZM193.72,203.97c.6-1.81,1.45-4.12,2.99-6.12.17-.22.4-.35.72-.25,1.12.36,2.16,3.1,1.41,3.99-.43.51-.42.92-.37,1.49.25,3.01,1.18,5.79,3.15,8.09,1.21,1.42-.2,2.15-.65,3-.66,1.24-1.28-.04-1.73-.39-3.03-2.36-5.49-5.1-5.5-9.81ZM203.99,228.53c-1.66,2.12-3.15,4.4-5.03,6.3-2.71,2.73-4.78,6.14-8.34,8.01-4.45,2.34-8.95,4.47-14.15,4.44-.71,0-1.27-.21-1.56-.8-.33-.66.43-.93.74-1.25,2.52-2.66,4.61-5.68,6.61-8.71,1.48-2.24,2.83-4.53,4.61-6.58,2.93-3.36,6.64-5.55,10.59-7.4.54-.25.92-.55,1.27-.99.25-.31,0-1.03,1.02-.75,1,.28,1.09.9,1.36,1.58.34.84-.43.97-.83,1.09-3.76,1.08-6.15,4.04-8.94,6.44-.9.77-1.92,1.49-1.86,3.03.04.89-1.3.98-1.83,1.64,1.79,1.86,3.11.89,4.56-.55,3.09-3.07,6.82-5.29,10.57-7.46.43-.25.88-.42,1.31.08.57.66.37,1.28-.09,1.87ZM205.61,207.99c-1.52-1.06-3.09-2.35-2.8-4.9,1.64,1.31,2.95,2.71,4.94,3.65-.96.38-1.2,1.9-2.14,1.24ZM218.08,223.78c-.04.2-.06.42-.07.62-.11,3.62-.06,3.4-3.69,2.56-4.13-.96-5.61-4.62-8.12-7.23-.15-.16-.15-.51-.14-.78.15-3.85,4.46-8.72,8.32-9.38.4-.07.88-.22,1.1.27.21.47-.19.81-.51,1.04-2.69,1.97-3.74,4.49-3.76,7.91,0,1.25-.43,2.55.06,3.87.49,1.32,1.06,2.55,2.68,2.94.03-1.05.83-2.14-.34-3.04-.14-.11-.14-.56-.05-.8,1.24-3.42,1.98-7.1,5.26-9.4,1.2-.85,2.28-1.57,3.89-1.33.67.1,1.3.14,1.58.7.37.73-.42,1.12-.81,1.5-3.03,2.9-4.51,6.58-5.4,10.56ZM228.54,248.39c-2.07-3.34-3.8-7.13-4.63-11.23-.5-2.48-1.73-4.86-2.26-7.42-.17-.8.03-1.48-.22-2.54,2.15.81,3.2,1.96,3.95,3.74,1.26,2.99,3.18,5.7,3.78,8.99.12.67.81,1.51,1.47,1.08.82-.52,2.39-.75,2.09-2.2-.62-3.01-1.02-6.18-2.31-8.9-1.01-2.15-3.19-3.77-4.89-5.58-.46-.48-1.15-.75-1.3-1.51,3.81-1.01,5.88,2.06,8.53,3.66,2.7,1.63,3.63,4.15,3.55,7.34-.05,2.27,1.15,4.6.96,6.83-.25,2.96.83,5.73.49,8.72-.27,2.35.92,4.77,2.18,7.16-4.83-1.56-8.94-4.22-11.37-8.15ZM286.12,208.34c.55,1.29.25,1.99-.88,2.49-2.75,1.23-5.35,2.8-8.37,3.41-2.68.54-4.86,2.56-7.73,2.71-1.01.05-2.05.36-3.03.6-3.97.99-8.04,1.06-12.06,1.55-5.13.63-10.22.48-15.29-1.04-2.77-.83-5.8-.87-8.58-1.87-.31-.11-.72-.03-.78-.72,3.68.1,7.15-1.12,10.65-1.91,3.64-.81,7.44-1.28,10.93-2.93,1.24-.58,2.73-1.03,4.25-1.08,1.52-.05,2.94-.63,4.3-1.31,1.3-.66,2.61-1.08,4.11-1.24,2.21-.23,4.11-1.53,6.09-2.5,4.14-2.03,8.5-3.62,12.29-6.32.58-.41,1.11-1.1,2.02-.46.92.65,1.32,1.65,1.06,2.53-.87,2.89-.08,5.52,1.02,8.09ZM289.22,120.13c.05-.13.8-.23.92-.09.71.87-.07,1.75-.2,2.65-.77-.76-1.06-1.62-.72-2.57ZM292.11,141.23c-.9-1.28-1.72-2.6-2.47-3.96-.21-.37-.25-.83.26-1.05.36-.16.58.03.81.38,1.34,2.02,2.73,4,4.23,6.17-1.41-.05-2.14-.57-2.82-1.54ZM299.56,137.93c-2.97-3.26-5.94-6.51-8.9-9.77.16-.14.31-.29.47-.43,2.65,3.59,8.46,4.25,8.95,9.83-.17.12-.35.25-.52.37ZM342.15,110.57c-1.81,5.96-6.61,8.43-11.85,10.29-1.47.52-3.23.24-4.85-.16-2.35-.57-4.71-1.06-6.81-2.36-.86-.53-1.26-.98,0-1.46,1.09-.42.54-1.33.51-1.97-.08-1.57.57-1.9,2.07-2.01,3.07-.22,6.18.83,9.23-.52,1.01-.45,1.86-1.15,2.94-1.49.78-.24.43-1.14.34-1.67-.14-.74-.81-1.15-1.57-1.09-4.36.38-8.53.08-12.53-2.06-1.66-.89-2.31-2.57-3.74-3.59-.93-.66-1.57-1.98-2.93-1.11-1.54.97-3.02,1.98-3.27,4.13-.27,2.32,1.21,3.29,2.77,4.3.8.52.9.92.7,2.05-.26,1.48-1.41,2.67-1.24,4.14.11.94-.7.88-1.03,1.3-1.63,2.09-2.37,4.71-4.09,6.75-.63.75.54,1.88-.41,2.69-.27.23.54,1.38-.52.94-.43-.18-2.2.74-1.54-1.23.18-.54-.64-1.4-1.23-2.02-2.06-2.14-4.38-4.02-5.88-6.7-1.86-3.32-5.55-4.38-8.53-6.26-1.51-.95-2.45-2.39-3.75-3.31-1.71-1.2-3.44-2.5-5.36-3.42-2.78-1.33-5.56-2.65-8.44-3.8-2.49-1-4.92-2.24-7.43-3.26-1.06-.43-2.14-.42-3.19-.75-4.28-1.32-8.42-3.26-12.92-3.66-3-.27-5.82-1.72-8.92-1.18-.47.08-1.25-.16-1.49-.52-.38-.58.44-.88.72-1.31,1.1-1.68,3.07-3.08,3.55-4.74.97-3.32,4.09-5.32,4.66-8.68.31-1.86,1.79-2.74,2.94-3.91.45-.46,1.04-.58,1.73-.35,1.52.49,3.15.76,4.46,1.68,2.31,1.62,5.03,1.1,7.54,1.62.44.09,1.2.26,1.42-.46.2-.66-.07-1.28-.6-1.68-1.39-1.03-2.75-2.14-4.25-2.99-2.87-1.61-5.42-3.58-7.63-6.01-.9-.99-.8-2.38-1.54-3.51-.58-.87-1.09-1.85-1.67-2.78-.56-.89-1.11-1.86-2.19-1.37-1.05.47-1.96,1.49-1.69,2.8.42,2.06.86,4.13,1.79,6.05.73,1.52-.28,3.61-1.85,4-.85.21-1.17-.4-1.39-.95-.61-1.52-1.82-2.42-3.14-3.25-.41-.26-.86-.51-1.14-.88-2.44-3.14-4.26-6.49-4.47-10.64-.09-1.78,1.24-3.49.14-5.26,2.18-2.76,2.81-6.55,6.75-8.18,4.78-1.97,9.54-1.85,14.45-1.52,2.12.14,4.06.38,5.4,2.4.43.65,1.52,1.02,2.37,1.19,1.37.28,2.49.7,3.11,2.07,1.1,2.43,3.76,3.56,5.66,4.59,2.39,1.29,5.25,2.35,8.07,3.12,4.7,1.29,9.54.41,14.21,1.12,3.3.5,6.64.51,9.99,1.8,5.62,2.16,9.23,5.87,11.76,10.98.45.91.31,2.11.44,3.18-.12,3.47,1.91,6.14,3.59,8.84.75,1.2,2.71,1.04,4.14,1.43.59.16,1.37-.02,1.6.74.6,1.99,2.17,2.32,3.88,2.26,1.42-.06,2.32,1.34,3.5,1.32,1.5-.03,1.57.73,1.63,1.73.04.68.47.91,1.01,1.16,2.71,1.29,4.57,3.38,4.96,6.37.33,2.52,1.39,4.96.86,7.58-.05.23.08.54.22.75,1.88,2.92.89,5.77,0,8.72Z"/>
  <path d="M28.58,86.48c.2-3.82,2.11-6.92,3.84-10.13,2.53-4.67,6.67-7.84,10.42-11.34.77-.72,1.12-1.73,2.04-2.28,2.93-1.74,5.9-3.72,8.86-5.02,3.74-1.64,7.47-3.56,11.42-4.84,3.89-1.27,7.6-3.12,11.5-4.35,3.4-1.07,6.67-2.5,10.12-3.42,4.64-1.24,9.32-2.48,13.75-4.28,4.25-1.73,8.9-2.6,12.64-5.52.34-.26.69-.55,1.24-.64,2.41-.37,4.42-1.94,6.57-2.68,3.62-1.25,6.34-3.83,9.77-5.27,4.51-1.88,8.82-4.22,12.95-6.84.92-.59,1.98-.9,2.94-1.33,6.38-2.88,12.78-5.69,19.77-6.91,4.39-.77,8.71-1.96,13.23-1.66,3.5.23,6.89,1.11,10.23,2.1,1.52.45,2.7,1.58,4.27,2.15,1.94.7,2.49,2.83,2.96,5.02,1.55,7.34-2.38,12.7-6.43,17.73-3.8,4.72-9,8.11-13.93,11.64-2.64,1.89-5.62,3.62-8.48,4.73-4.1,1.6-7.85,3.96-12.09,5.33-2.95.95-5.91,2.17-8.83,3.36-1.3.53-2.61.96-4.04.8-.78-.09-1.31.16-1.97.72-1.1.95-2.71.59-4.09.87-4.04.83-8.09,1.68-12.18,2.08-3.03.3-5.94,1.13-8.99,1.38-2.57.21-5.23.69-7.84,1.18-3.23.62-6.35,1.69-9.72,1.78-1.47.04-3.06.86-4.36,2.06-1.63,1.5-3.54,2.63-5.64,3.53-1.53.65-2.77,1.94-4.41,2.58-2.76,1.08-4.52,3.99-7.26,4.8-3.65,1.07-6.21,4.32-10.13,4.61-.2.01-.45.09-.57.23-1.47,1.78-3.55,2.52-5.59,3.35-4.92,2.03-9.75,4.1-15.15,4.93-4.74.73-8.87-.3-12.94-2.2-3.45-1.61-3.46-5.07-3.89-8.22ZM86.47,71.3c-1.07-.25-1.87-.07-2.53.24-3.58,1.7-7.56,2.13-11.27,3.51-2.37.88-5.1,1.81-7.84,1.98-.49.03-1.07-.01-1.28.53-.54,1.39-1.73,1.26-2.81,1.19-.73-.05-1.35.07-2.01.35-2.72,1.14-5.45,2.28-8.2,3.35-1.02.4-2.11.77-3.19.85-.77.06-2,.16-2.25-.79-.24-.92.61-1.63,1.46-2.06,1.71-.87,3.3-1.9,4.83-3.09,3.07-2.4,6.73-3.76,10.21-5.43,1.05-.51,2.17-1.46,3.18-1.37,1.68.15,2.99-.78,4.11-1.39,2.61-1.42,5.47-1.64,8.18-2.46,4.72-1.44,9.78-.61,14.57-1.88.44-.12.72-.59,1.31-.41,3.58,1.07,6.95-.58,10.39-1.03,6.69-.88,13.31-2.27,19.97-3.33,1.74-.28,3.59.09,5.16-.59,1.99-.87,4.04-1.27,6.13-1.74,7.86-1.77,15.46-4.3,22.93-7.35,4.14-1.69,7.97-3.92,11.9-5.93,2.09-1.07,4.53-2.19,6.17-4.27,1.18-1.49,3.42-1.7,4.68-2.98,3.06-3.11,6.08-6.31,8.07-10.28.36-.72.78-1.38.94-2.26.74-4.18-3.11-6.92-7.19-7.38-3.97-.45-7.99-.29-11.97,1-6.72,2.18-13.25,4.67-19.46,8.1-5.76,3.19-11.95,5.58-17.67,8.89-.45.26-.93.24-1.41.27-1.13.07-2.13.48-3.1,1.09-1.76,1.12-3.49,2.2-5.58,2.85-1.7.53-3.44,1.29-5.12,2.08-2.35,1.1-4.85,1.99-7.33,2.85-2.31.8-4.76,1.15-6.97,2.11-2.51,1.08-5.14,1.89-7.7,2.7-3.98,1.26-7.76,3.06-11.96,3.89-3.07.61-6.2,1.96-9.26,3.08-5.6,2.04-10.96,4.55-16.33,7.07-3.47,1.63-7.06,3.16-10.03,5.63-4.11,3.43-7.78,7.28-10.49,11.99-1.43,2.48-1.64,4.96-.25,6.83,1.64,2.19,4.78,3.32,7.13,2.65,2.9-.83,5.83-1.59,8.74-2.37.33-.09.74-.03,1.01-.2,4.27-2.73,8.93-4.65,13.51-6.76,4.08-1.88,7.91-4.3,11.94-6.31,2.15-1.07,4.51-1.73,6.68-3.4Z"/>
  <path d="M135.11,323.49c1.27-6.26,2.03-12.75,4.48-18.88.58-1.44.81-3.04,1.1-4.58.64-3.32,2.62-6.22,3.23-9.49.73-3.97,2.6-7.54,3.48-11.47.62-2.78,2.59-5.22,3.66-7.94,1.81-4.61,4.2-8.91,6.5-13.26.68-1.28,1.88-2.17,2.31-3.65.28-.95,1.22-1.81,2.42-1.3,1.36.57,1.35,2.26,1.04,3.03-1.23,3.02-3.08,5.75-4.29,8.83-1.35,3.43-3.53,6.49-4.32,10.21-.48,2.25-2.17,4.13-2.52,6.46-.55,3.67-2.08,7.19-3.58,10.33-1.9,3.97-2.51,8.18-3.76,12.19-1.69,5.44-3.29,10.98-4.14,16.74-.59,3.98-1.11,8.15-2.55,12.05-.47,1.28-.91,2.72-.17,4.25.4.82-.22,1.88-.71,2.67-.47.75-.86,1.61-.76,2.34.53,3.61-1.39,6.85-1.44,10.22-.03,1.97-.62,3.95-.25,5.92.26,1.4-.31,2.93-1.45,2.96-1.11.03-2.31-1.27-2.38-2.74-.3-5.93-.28-11.82.59-17.75.56-3.84,1.39-7.57,2.24-11.34.43-1.9,2.22-3.44,1.29-5.8Z"/>
  <path d="M275.01,267.7c.88-1.76-1.08-2.79-.89-4.39.44-3.69.38-7.39,1.54-11.05,1.35-4.25,2.75-8.47,4.88-12.37,1.91-3.49,4.97-6.03,7.88-8.68,1.71-1.57,4.31-1.86,5.55-4.06.35-.62.42-.03.61.19.25.29.75.35.92.08,1.97-3.05,4.62-1.9,7.17-1.17.56.16,1.47.29,1.34,1.26-.12.91-.81,1.27-1.63,1.3-1.27.04-2.43,1.61-3.79.26-.21,1.64-1.95,1.23-2.8,2.08-2.21,2.21-4.05,4.78-6.57,6.67-.91.69-1.2,1.79-1.65,2.75-1.67,3.55-4.28,6.65-5.22,10.57-.05.2-.23.4-.22.58.22,3.21-1.83,6.02-1.59,9.27.08,1.13-.38,2.35-.78,3.46-.76,2.13-1.02,4.3-.83,6.53.09,1.08-.3,1.83-1.41,2.05-1.18.24-1.66-.57-1.87-1.48-.29-1.28-.44-2.6-.64-3.85Z"/>
  <path d="M214.35,316.46c-4.45.02-6.06-3.64-4.43-7.69,1.56-3.87,4.56-6.32,8.93-6.79,1.46-.16,2.57.24,3.38,1.43,3.51,5.15,1.61,8.52-2.7,11.32-1.52.99-3.26,1.9-5.19,1.73ZM214.84,312.44c1.48-.86,2.55-1.79,3.87-2.36.68-.29,1.05-1.47.39-2.16-.57-.59-1.28,0-1.73.53-.96,1.1-2.29,1.96-2.54,4Z"/>
  <path d="M294.65,348.46c.3.58-.2.76-.53.94-1.81.98-3.5,2.12-4.58,3.9-.45.74-1.1.27-1.56.41-3.24,1.01-4.48,4.56-7.66,5.73-1.11.41-2.85.13-3.42,1.42-1.17,2.63-4.43,1.81-6.04,3.93-.61.81-2.72.57-4.16.63-1.31.06-2.47.3-3.35,1.33-.85.98-1.62.38-2.03-.32-.49-.81.33-1.03.95-1.36,2.73-1.46,4.97-3.81,7.63-5.17,3.25-1.67,5.89-4.45,9.58-5.28.2-.05.46-.05.59-.18,2.08-1.99,5-2.67,7.13-4.55,1.69-1.49,3.96-1.97,5.63-3.51.63-.58,1.8.74,1.84,2.09Z"/>
  <path d="M167.45,300.17c-.02,4.82-3.4,8.25-7.99,8.7-2.15.21-4.27-.69-5.38-2.52-1.06-1.73-.67-3.79.36-5.64.84-1.51,1.61-3.04,2.79-4.35,1.41-1.56,3.36-2.21,5.16-2.37,2.46-.21,5.03,3.29,5.06,6.18ZM161.71,299.06c-.57.21-1.12.37-1.47,1-.43.78-1.03,1.47-1.51,2.22-.31.49-.9,1.01-.18,1.61.61.5,1.25.47,1.9.01,1.33-.94,1.8-2.41,2.35-3.81.42-1.08-.73-.66-1.09-1.04Z"/>
  <path d="M149.74,338.77c.52.99.83,1.62,2.19,1.89,2.45.49,2.92,2.87,2.99,5.27.09,3.29-2.22,7.97-4.62,8.99-2.68,1.13-4.87.01-6.84-1.58-1.87-1.51-1.35-3.73-.96-5.64.67-3.26,1.91-6.23,5.68-7.2.58-.15.98-1.04,1.57-1.72ZM150.58,347.21c.03-.66.22-1.19-.23-1.54-.57-.44-.98.19-1.44.36-.38.14-.77.36-1.03.66-.86.99-1.2,2.12-.7,3.41.14.35.01.98.62.84,1.16-.27,1.83-1.15,2.34-2.16.28-.55.51-1.11.43-1.57Z"/>
  <path d="M232.96,269.25c-.07,3.87-2.43,7.33-6.18,8.5-2.38.75-4.53-.31-6.25-1.96-1.55-1.48-1.98-3.56-.97-5.31,1.72-2.99,3.29-6.3,7.57-6.6,3.48-.24,5.9,1.82,5.84,5.36ZM228.33,268.09c-1.03,1.69-2.63,2.23-3.66,3.43-.33.38-.73.63-.38,1.2.19.32.4.52.8.52,1.81-.04,3.8-2.86,3.24-5.15Z"/>
  <path d="M167.86,264.69c.48-1.9.99-4.48,3.65-5.77.73-.35.78-1.16,1.49-1.53,1.53-.8,2.97-.96,4.42.09.16.12.34.22.48.35.72.65,2.21-.13,2.47,1.01.45,1.99,1.76,3.88.85,6.08-.72,1.75-2.1,2.96-3.54,3.98-3.42,2.42-4.92,2.62-8.29.28-1.24-.86-1.55-1.92-1.53-4.5ZM173.92,266.35c1.45-.38,1.85-1.25,2.49-1.84.69-.63,1.23-1.64.92-2.29-.31-.65-1.46-.29-2.5-.2,1.66,1.72.05,2.78-.92,4.33Z"/>
  <path d="M280.13,285.9c-2.2-.01-4.27.1-6-1.42-.81-.71-2.08-1-2.88-1.18-3.87-.86-5.61-4.43-8.72-6.23-2.42-1.4-2.52-4.11-.81-5.85,1.13-1.15,4.2-.8,5.69.73.91.93,1.68,2.01,2.57,2.97.61.67.98,1.49,2.37.99,1-.35,2.04.97,2.74,1.73,1.33,1.44,2.09,3.33,3.8,4.55,1.11.79.81,2.36,1.23,3.71Z"/>
  <path d="M301.87,160.34c-.76.25-1.79-.05-2.12,1.19-.13.48-.81.71-1.59.46-1.72-.56-3.18.08-4.41,1.38,2.22,1.47,2.24,3.78.22,5.42-1.35,1.09-2.59,2.1-4.55,1.94-1.91-.16-3.25-1.46-2.9-3.38.74-4.05,2.52-7.32,6.32-9.43,2.65-1.46,5.11-.9,7.59.03.89.33,1.37,1.3,1.45,2.4Z"/>
  <path d="M260.57,296.92c-.61-.05-1.12,0-1.57-.15-.89-.3-1.68-.88-1.66-1.88.01-.84.73-1.29,1.53-1.54,3.09-.94,6.16-1.93,9.26-2.81,1.03-.29,2.27-.27,2.61.99.26.95-.7,1.17-1.5,1.53-1.03.47-2.06,1.22-2.83,1.95-1.77,1.68-3.91,1.5-5.83,1.91Z"/>
  <path d="M289.9,360.66c-.5-.09-.73-.11-.63-.88.19-1.53,1.27-2.45,2.07-3.5.97-1.27,2.34-2.24,3.49-3.38.47-.46,1.02-.53,1.47-.27.47.27.41,1.09.17,1.32-2.17,2.11-3.44,5.05-6.18,6.61-.11.06-.26.07-.39.11Z"/>
  <path d="M299.21,92.72c-3.29.47-4.67-1.98-6.16-4.22-.99-1.49-1.38-3.35-2.81-4.57-.05-.04-.12-.12-.11-.17.57-3.62-1.68-1.55-3.15-1.79-5.54-.9-11.37-.5-16.17-4.68-3.18-2.77-5.76-5.75-7.49-9.52-.14-.31-.19-.67-.27-1.01-.29-1.25-.43-2.7.7-3.41,1.48-.93,2.34.51,3.18,1.48,1.91,2.2,2.93,5.01,5.08,7.08,3.12,3,6.53,5.43,10.94,5.97,1.7.21,3.44.05,5.16.03,1.36-.02,2.13-.52,2.23-2.09.11-1.71,1.08-3.13,2.49-4.12,1.16-.81,2.72-1.08,3.68-.17.99.93,1.51,2.47.73,3.98-.76,1.45-.81,3.11-1.42,4.64-.74,1.86.43,3.79,1.49,5.4.98,1.48,2.29,2.75,3.39,4.16.52.67,1.45,1.39.93,2.29-.44.76-1.38,1.16-2.42.73Z"/>
  <path d="M305.76,93.02c3.87-.38,7.78.96,11.77,1.17,1.86.1,3.96.49,5.85-.53,1.1-.6,2.35-.36,2.98.63.52.8-.3,1.68-.88,2.33-1.87,2.09-4.38,3.14-7.04,3.52-4.48.64-8.74-.8-13-1.87-1.41-.35-2.15-1.69-2.67-2.9-.76-1.77.24-2.55,3-2.36Z"/>
  <path d="M298.22,102.66c.46-.11,1.01-.1,1.38-.35,1.98-1.36,2.57.04,3.33,1.49,1.16,2.19,2.01,4.54,3.52,6.55.54.72,1.19,1.7.02,2.53-1.1.78-2.02.5-2.88-.48-1.92-2.19-3.4-4.67-4.89-7.15-.5-.83-.46-1.73-.44-2.63l-.04.04Z"/>
  <path d="M303,114.77c.19,1.31-.16,1.98-.71,2.36-.73.5-1.11-.36-1.48-.75-1.63-1.71-2.93-3.74-4.84-5.19-1.86-1.41-3.31-3.17-4.72-5.01-.48-.62-1.15-1.24-.61-1.88.7-.84,1.45.07,1.88.52,2.19,2.3,4.8,4.01,7.41,5.77,1.64,1.1,2.42,2.92,3.07,4.18Z"/>
  <path d="M298.26,102.62c-.62.07-1.21.01-1.73-.4-.59-.46-.1-.82.05-1.22.14-.38.21-.85.75-.77.43.07.73.41.8.83.08.53.07,1.07.09,1.6,0,0,.04-.04.04-.04Z"/>
  <path d="M101.02,134.71c2.66-1.39,4.9,0,6.96.76,2.86,1.04,5.62,2.54,7.8,4.9,2.69,2.92,4.09,6.24,3.69,10.2-.14,1.35-1.61.79-2.41,1.14-.57.25-1.55-.41-1.64-1.25-.35-3.51-3.08-5.66-4.91-8.22-1.41-1.97-3.9-3.27-6.11-4.51-1.4-.79-2.38-1.81-3.38-3.02Z"/>
  <path d="M281.32,205.12c-2.34,2.05-3.59,5.05-6.79,6.28-4.97,1.92-9.95,3.49-15.3,3.97-1.73.16-3.51.49-5.24.85-1.01.21-1.5-.2-1.69-1.01-.24-1.02.81-.79,1.24-.92,4.41-1.25,8.9-2.28,13.27-3.66,2.27-.72,4.36-2.01,6.53-3.06,2.51-1.21,4.99-2.54,7.98-2.47Z"/>
  <path d="M174.94,30.7c-1.12,2.42-3.34,3.59-5.06,5.27-1.86,1.82-4.2,2.43-6.06,3.91-2.29,1.83-4.92,2.86-7.55,3.86-3.22,1.22-6.21,2.86-9.27,4.37-.18.09-.37.39-.47.35-3.23-1.16-5.56,1.76-8.61,1.83-3.46.09-6.93.8-10.33,1.53-4.78,1.03-9.58,2.08-14.45,2.3-3.49.16-7.15.47-10.42-1.49-.49-.29-1.16-.6-1.03-1.11.15-.62.75-.71,1.18-.05.18.28.45.12.51,0,1.22-2.63,3.8-1.58,5.71-1.88,2.4-.37,4.52-1.5,6.87-1.86,4.15-.64,8.28-1.36,12.44-1.88.68-.09,1.38-.17,1.94-.45,2.05-1,3.97-1.34,6.22-.33,1.63.73,3.59-.26,5-.91,2.84-1.32,5.96-1.48,8.74-2.74,2.74-1.25,5.69-2.12,8.05-4.11,1.15-.96,2.81-1.28,3.97-1.48,3.26-.56,5.36-2.81,7.98-4.25,1.37-.76,2.77-1.59,4.62-.86Z"/>
</svg>