<?xml version="1.0" encoding="UTF-8"?>
<svg id="Lag_1" xmlns="http://www.w3.org/2000/svg" viewBox="0 0 108 108">
  <defs>
    <style>
      .cls-1 {
        fill: #fff8c3;
      }

      .cls-2 {
        fill: #ff90a8;
      }
    </style>
  </defs>
  <rect class="cls-2" width="108" height="108" rx="31.47" ry="31.47"/>
  <path class="cls-1" d="M44.58,34.41c-.4.16-.82.29-1.27.17-.23-.06-.41-.19-.54-.38-.36-.56-.71-1.13-.92-1.77-.06-.19-.09-.38-.1-.57-.08-.37-.05-.73.02-1.09.23-1.09.55-2.16.91-3.21.3-.87.65-1.71,1.25-2.42.49-.58,1.12-.87,1.87-.95.36-.04.72-.04,1.08,0,.05,0,.12-.01.14.04.04.07-.03.11-.06.15-.04.06-.08.11-.12.17.03,0,.06,0,.09,0,.05,0,.12-.01.14.04.04.07-.03.11-.06.15-.3.41-.59.83-.83,1.29.13.07.21,0,.29-.1.57-.77,1.22-1.49,1.91-2.15.69-.67,1.46-1.25,2.32-1.69.51-.26,1.06-.4,1.63-.5.58-.1,1.12,0,1.66.16.08.02.19.04.2.12.02.1-.1.12-.16.16-.03.02-.06.04-.08.06.03,0,.06.02.09.02.08.02.19.04.2.12.02.1-.1.12-.16.16-.26.17-.46.4-.68.62.07.04.14.03.23-.03,1.01-.71,2.13-1.19,3.31-1.52.52-.15,1.07-.22,1.6-.31.52-.09,1.03-.09,1.55-.06.52.03,1.04.15,1.5.41.56.31.84.84,1.07,1.4.24.58.38,1.19.44,1.81.05.31.07.63.07.95,0,0,.01.01.02.02.07.03.11-.02.15-.07.13-.19.26-.39.28-.63.02-.14.06-.18.17-.07.66.7,1.23,1.44,1.34,2.44,0,.05,0,.09,0,.14.01.08.03.15.04.23.07.66-.19,1.18-.66,1.61-.61.56-1.3.98-2.03,1.36-.17.09-.25.04-.22-.14.01-.07.01-.13.01-.2-.05-.01-.07-.07-.06-.18,0-.03,0-.06,0-.09-.1-.27-.34-.46-.63-.61-.41-.22-.85-.37-1.3-.51-.08-.02-.15-.06-.23-.12.13-.07.27-.13.4-.19-.07-.02-.14-.05-.22-.07-.08-.02-.15-.06-.23-.12.42-.23.87-.35,1.31-.5.03-.01.06-.02.09-.04-.03,0-.06-.01-.1-.01-.71,0-1.38.2-2.01.49-.35.16-.69.24-1.08.17-.34-.06-.69-.05-1.03-.07-.07,0-.15.02-.19-.04-.05-.08.02-.14.06-.2.03-.04.05-.08.08-.13-.07,0-.15.02-.19-.04-.05-.08.02-.14.06-.2.25-.38.5-.77.75-1.15.02-.04.04-.07.07-.11,0,0-.01,0-.02.01-.62.3-1.1.77-1.54,1.3-.44.53-.43.54-1.11.57-1.01.04-2,.14-2.99.37-.26.06-.52.13-.78.22-.14.05-.23.03-.33-.08-.46-.5-.92-1.01-1.45-1.45-.13-.11-.26-.21-.39-.3-.09-.06-.19-.14-.29-.01-.01.01-.02.03-.03.04.23.32.46.63.69.95.15.2.3.39.48.57-.07.03-.13.07-.2.1.11.14.23.27.35.39.09.09.09.15-.04.2-.17.07-.35.14-.52.21-.1.04-.21.03-.31,0-.9-.25-1.8-.19-2.68.12-.22.08-.42.2-.62.32-.05.03-.1.06-.13.1.09.05.2-.01.29-.05.57-.24,1.17-.3,1.77-.33.11,0,.21.02.31.07-.08.07-.16.14-.23.22-.04.03-.09.05-.13.08.03,0,.06,0,.09,0,.13,0,.25.03.36.11-.32.23-.68.4-.96.68-.05.05-.14.09-.1.18.03.07.11.06.18.06.4.02.75-.15,1.09-.31,1.13-.54,2.32-.93,3.55-1.19.47-.1.95-.12,1.42-.21.94-.19,1.88-.17,2.82-.17,1.02,0,2.01.18,3,.41.01,0,.02,0,.03,0-.1-.16-.21-.3-.32-.43.08.02.16.04.25.06.58.14,1.14.31,1.69.55.19.08.26.21.26.42,0,.05,0,.1,0,.15.03.06.05.13.05.22,0,.79,0,1.58,0,2.36,0,.27-.05.29-.31.23-.46-.11-.92-.18-1.39-.23-.39-.05-.79-.09-1.18-.14-.09-.01-.18-.03-.27-.03-1.02-.02-2.04-.03-3.06,0-.62.02-1.24.11-1.85.19-.78.1-1.55.24-2.32.43-1.43.35-2.83.8-4.1,1.56-.36.22-.37.21-.56-.17-.02-.04-.04-.08-.06-.12-.14-.29-.13-.28.12-.49.34-.3.73-.57.91-1.01.03-.08.11-.17.03-.25-.08-.07-.15.03-.22.06-.83.46-1.65.92-2.53,1.27ZM94.73,67.09c-.3-1.31-1.99-1.88-2.98-1.4-.9.44-.3,1.81-.92,2.56-.72.88-2.5,1.2-3.14,2.14-.44.64-.48.63-1.08.24-.18-.12-.43-.13-.58-.28-5.67-5.32-11.31-13.23-15.42-6.03-.16.28-.4-.27-.25-.57.2-.38.27-.8.15-1.21-.14-.46-.1-.87.1-1.3.29-.64.19-1.24-.29-1.74-.32-.34-.43-.72-.41-1.18.11-2.5-.17-4.95-.77-7.38-.61-2.49-1.88-4.54-3.96-6.05-.98-.72-2.1-1.18-3.22-1.63-.3-.12-.37-.22-.1-.47.73-.72,1.16-1.61,1.28-2.62.11-.85-.08-1.64-.84-2.14-.38-.25-.44-.52-.35-.9.18-.79.33-1.59.35-2.4.02-.64-.02-1.27-.16-1.84,0-.39,0-.77,0-1.16,0-.21.06-.33.27-.39.46-.14.87-.37,1.25-.66.6-.45,1.17-.94,1.67-1.51.38-.44.76-.88.69-1.53-.02-.23-.09-.45-.17-.67-.4-1.17-1.07-2.14-2.06-2.88-.09-.07-.12-.15-.13-.25-.07-.6-.2-1.2-.39-1.78-.27-.8-.76-1.36-1.59-1.6-.8-.22-1.61-.33-2.44-.26-1.29.1-2.54.35-3.7.93-.15.08-.28.06-.42-.02-.69-.39-1.44-.49-2.21-.5-.85-.01-1.64.23-2.4.6-.83.4-1.56.98-2.18,1.64-.46.48-.91.8-1.45.64-.86-.02-1.56.03-2.23.27-.48.17-.94.4-1.3.78-.34.37-.58.8-.8,1.25-.48.99-.82,2.04-1.13,3.1-.22.75-.38,1.52-.56,2.29-.06.28-.07.59.02.87.27.89.71,1.7,1.21,2.48.44.68,1.07.81,1.83.63.43-.1.84-.28,1.23-.48.19-.1.29-.08.38.13.06.15.12.3.19.45.04.64.14,1.27.26,1.91.07.38.03.63-.35.84-.53.29-.73.82-.79,1.4-.13,1.24.26,2.31,1.09,3.22.32.34.31.48-.14.66-1.28.53-2.52,1.15-3.61,2.03-2.1,1.72-3.07,4.07-3.58,6.65-.42,2.14-.62,4.3-.55,6.49.01.35-.02.67-.31.93-.62.56-.7,1.23-.35,1.96.16.34.21.67.09,1.04-.14.44-.16.91.09,1.31.25.39.08.5-.26.58-.12.03-.28.23-.35.13-4.05-5.85-8.26.54-13.13,6.04-.58.65-1.02.89-1.72,1.48-.2.17-1.48-1.13-1.57-1.27-.32-.47-.45-1.15-.94-1.45-.64-.38-1.28.89-2.92-3.35-.52-1.35-3.08-.15-3.38,1.18-.55,2.5-.46,4.92.84,7.21.56.98.93,2.94,2.01,2.66,1.4-.37,1.8.38.53,1.42-.28.23-.78.33-.65.67.38,1.05.94,1.99,1.7,2.79.61.64,1.4,1.16,2.29.99,1.01-.2,2.04-.47,2.9-1.11.27-.2.48-.22.76,0,.53.42,1.14.48,1.79.26.62-.21,1.2-.49,1.78-.77,1.22-.58,5-5.38,7.9-6.56s4.3-.93,5.42-1.23c.24-.06,1.16,1.91,1.33,2.06.2.17-.03.46-.08.7-.27,1.22-.4,2.45-.09,3.68.27,1.08,1.28,1.36,2.07,1.85.2.12.56-.04.84-.01,1.07.12,1.1.11,1.56-.91.09-.19.14-.23.35-.13.76.36,1.37.08,1.62-.72.13-.41.18-.84.11-1.28-.09-.55-.09-1.11-.07-1.67.03-.91.31-1.12,1.18-.92.58.13,1.16.24,1.74-.04.84-.42.95-1.29.2-1.85-.32-.25-.68-.45-1.04-.68,1.27-.52,5.81-.53,7.41-.01-.43.31-.87.5-1.2.83-.48.48-.44,1.2.1,1.59.38.28.82.37,1.28.3.36-.05.71-.11,1.06-.21.43-.12.65.08.79.44.19.51.14,1.03.07,1.55-.08.59-.12,1.19-.02,1.77.14.88.8,1.26,1.6.95.28-.11.38-.05.44.23.08.39.28.77.69.82.64.07,1.31.05,1.94-.14.26-.08.45-.38.71-.48.7-.26.96-.8,1.12-1.46.31-1.25.13-2.46-.15-3.68-.13-.57-.26-2.97.31-2.81,3.23.9,3.37.05,6.41,1.48,2.05.96,7.29,6.25,9.35,7.19.75.34,1.49.39,2.19-.15.18-.14.36-.15.55-.02.64.42,1.41.56,2.06.92,1.1.61,2.03.22,2.87-.47.98-.8,1.64-1.85,2.08-3.03.13-.36-1.1-1.16-1.36-1.44-.79-.85.35-1,1.23-.74.61.18.81-.9,1.21-1.39,2.02-2.51,2.4-5.34,1.7-8.4ZM61.98,39.46c.09.63-.03,1.22-.35,1.76-.13.22-.3.43-.45.64,0-.88.29-1.67.44-2.49.02-.09.06-.19.16-.18.16.01.18.16.2.28ZM54.72,48.7c-.11.02-.21.04-.32.05-.14.01-.29.01-.5.02-1.67-.03-2.89-.98-3.95-2.22-.73-.86-1.09-1.9-1.39-2.96-.39-1.4-.68-2.83-1.04-4.24-.09-.35-.05-.62.2-.89.58-.64.84-1.38.82-2.27-.02-.91.5-1.22,1.35-.89.34.13.63.33.92.56,1.39,1.14,3.21,1.23,4.71.23.45-.3.89-.61,1.34-.91.35-.24.74-.35,1.17-.34.81.02,1.35.44,1.33,1.24-.01.98.2,1.81.95,2.47.17.15.17.35.12.55-.52,2-.81,4.07-1.61,5.98-.77,1.85-2.06,3.19-4.11,3.62ZM55.86,49.75c-.42.58-.77,1.03-1.07,1.51-.24.38-.42.79-.63,1.19-.07.14-.19.38-.32.09-.44-.99-1.06-1.86-1.67-2.78,1.2.34,2.38.34,3.69,0ZM45.96,39.54c0-.14.04-.32.2-.35.21-.03.18.19.21.31.17.76.32,1.53.48,2.3-.66-.62-.95-1.37-.89-2.26ZM38.72,63.33c-.15-.11-.17-.26-.16-.43.03-.32.15-.58.37-.82.48-.5,1.08-.83,1.69-1.15.16-.08.45-.09.36-.37-.08-.24-.33-.17-.52-.15-.53.05-1.01.24-1.47.49-.15.08-.33.3-.51.05-.16-.21-.24-.45-.07-.7.18-.27.44-.42.72-.55,1.06-.53,2.21-.6,3.42-.63.73.08,1.53.05,2.3.26.84.24,1,.61.53,1.35-.14.22-.12.4.04.58.14.16.29.32.36.53.05.18.07.36-.05.52-.14.19-.32.08-.49.03-2.16-.62-4.2-.4-6.07.89-.14.09-.27.2-.44.08ZM50.57,74.75c.11.05.25.12.23.27-.03.19-.2.18-.34.19-.44.05-.85-.07-1.27-.19-.92-.26-1.54.1-1.78,1.04-.16.65-.24,1.31-.14,1.98.07.46.08.93.04,1.4-.01.14-.04.3-.2.35-.21.07-.28-.12-.36-.25-.44-.8-.6-1.69-.69-2.59-.01-.11,0-.22-.02-.32-.05-.25,0-.63-.37-.62-.33.01-.36.37-.38.63-.06.63-.05,1.26.03,1.88.08.63.08,1.26,0,1.88-.02.12-.04.28-.18.3-.18.03-.24-.14-.29-.26-.2-.55-.28-1.12-.31-1.69-.03-.57-.05-1.15-.08-1.72-.01-.22-.03-.47-.31-.49-.28-.02-.33.24-.37.45-.18,1.02-.16,2.04.01,3.06.03.17.12.34-.03.61-.35-.65-.36-1.28-.41-1.9-.04-.48-.02-.97-.05-1.46-.01-.19-.02-.43-.26-.49-.26-.07-.28.23-.45.39.07-.79.3-1.49.54-2.18.31-.89.19-1.68-.24-2.49-.82-1.54-1.6-3.1-2.22-4.74-.41-1.06-.64-2.17-.83-3.29-.05-.29.05-.49.3-.63,1.43-.83,2.97-.88,4.55-.67.48.06.55.45.58.84.16,1.85.4,3.68.77,5.5.14.69.33,1.36.57,2.02.26.7.7,1.22,1.36,1.53.94.44,1.67,1.18,2.6,1.63ZM54.62,64.27c-1.56.18-3.08-.18-4.58-.58-.87-.23-1.72-.52-2.58-.78-.37-.11-.52-.32-.57-.73-.08-.66-.22-1.3-.1-1.97.02-.08,0-.19-.03-.27-.75-1.59-.19-3.18-.01-4.76.04-.39.13-.78.17-1.17.02-.22,0-.46-.25-.54-.28-.09-.37.16-.46.35-.48,1-.67,2.08-.82,3.17-.04.27-.07.53-.1.8-.07.72-.06.71-.73.51-1.56-.47-3.12-.46-4.67.04-.4.13-.56.06-.55-.39.03-2.26.32-4.48.86-6.67.73-2.95,2.53-5.03,5.19-6.43.37-.19.73-.38,1.1-.57.33-.17.43-.02.37.3-.11.51-.16,1.03-.21,1.55-.21,2.21.19,4.33.77,6.44.03.1.07.21.11.3.38.88.69.95,1.45.36.37-.28.76-.55,1.15-.8.52-.33,1.07-.39,1.64-.08.14.08.29.21.44.05.15-.17.05-.33-.05-.49-.61-1.01-1.94-1.16-3.03-.34-.79.6-.78.59-1.02-.39-.44-1.78-.64-3.57-.54-5.4.01-.28-.01-.57.15-.85.24.2.24.49.35.72.37.81.94,1.48,1.44,2.2,1.51,2.15,3.37,4.1,4.1,6.73.05.2.07.48.33.51.28.02.3-.28.36-.46.57-1.84,1.7-3.34,2.81-4.88.82-1.14,1.79-2.16,2.47-3.39.25-.45.45-.93.67-1.4.18,1.19.21,2.37.12,3.55-.08,1.08-.33,2.13-.6,3.18-.11.43-.27.56-.62.2-.25-.26-.55-.46-.88-.62-.88-.42-1.79-.21-2.37.55-.12.16-.28.33-.14.53.15.21.32.03.48-.03.6-.24,1.17-.17,1.69.19.39.26.75.55,1.13.83.61.46.99.37,1.31-.33.43-.96.63-1.99.8-3.02.29-1.79.28-3.58,0-5.37-.04-.22-.13-.55.3-.35,2.5,1.18,4.67,2.71,5.78,5.38.61,1.46.86,3,1.12,4.55.2,1.23.25,2.47.32,3.71.03.56-.04.6-.58.43-1.57-.49-3.15-.48-4.73-.03-.62.18-.64.16-.69-.51-.09-1.22-.3-2.43-.73-3.58-.02-.07-.04-.14-.08-.2-.14-.25-.18-.68-.59-.55-.35.11-.24.48-.2.76.1.73.23,1.46.32,2.19.08.61.11,1.22.16,1.83.03.4-.02.78-.19,1.16-.22.47-.28.95-.13,1.47.15.51-.18.97-.22,1.47-.05.65-.65.64-1.09.78-1.73.56-3.51.94-5.32,1.15ZM68.08,64.61c-.33,2.49-1.31,4.74-2.47,6.92-.06.11-.11.23-.19.33-.95,1.3-.9,2.67-.33,4.09.11.28.16.59.25.96-.56-.25-.62.08-.64.44-.03.7.02,1.4-.13,2.1-.08.4-.14.8-.45,1.13.07-.51.14-1.01.21-1.52.1-.7.03-1.4-.11-2.09-.04-.22-.12-.51-.43-.46-.26.04-.27.31-.28.52-.03.86.03,1.73-.17,2.58-.07.3-.16.59-.26.88-.04.11-.08.27-.24.24-.15-.02-.16-.18-.18-.3-.17-.81-.07-1.61.05-2.41.07-.52.08-1.04-.05-1.55-.05-.21-.1-.46-.37-.46-.29,0-.29.27-.32.48-.12.85-.14,1.73-.52,2.52-.09.19-.18.39-.29.58-.06.11-.16.21-.3.18-.14-.03-.18-.17-.21-.29-.05-.29-.01-.57.01-.86.07-.79.15-1.58-.05-2.36-.3-1.19-.84-1.51-2.01-1.2-.37.1-.73.2-1.11.15-.14-.02-.32,0-.34-.19-.02-.15.13-.21.23-.27.84-.49,1.56-1.17,2.44-1.59,1.06-.5,1.55-1.4,1.83-2.47.55-2.17.81-4.38,1.01-6.6.07-.73.11-.82.84-.93,1.47-.23,2.86,0,4.19.67.33.17.44.38.39.77ZM69.43,61.03c-.18.18-.33.04-.48-.05-.47-.26-.96-.51-1.51-.56-.18-.02-.45-.11-.5.16-.05.22.2.26.36.33.68.3,1.29.7,1.79,1.26.14.15.23.32.27.52.04.23.03.44-.15.6-.21.19-.37-.04-.52-.13-1.81-1.14-3.74-1.39-5.8-.86-.22.06-.51.27-.69,0-.19-.29-.06-.62.17-.83.35-.32.4-.56.06-.93-.33-.35-.15-.84.35-1.02.42-.15.86-.26,1.31-.32.53-.07,1.07-.08,1.57-.11,1.23.06,2.41.16,3.46.82.22.13.42.28.49.55.06.23-.02.43-.18.59Z"/>
</svg>