<svg width="401" height="484" viewBox="0 0 401 484" fill="none" xmlns="http://www.w3.org/2000/svg">
<path d="M3.8161 79C3.8161 41.9969 33.813 12 70.8161 12H326.816C363.819 12 393.816 41.9969 393.816 79V479H3.8161V79Z" fill="#FD6251"/>
<path d="M86.5943 0.122038C95.8768 -0.190596 108.045 0.143685 117.292 0.602505C120.19 0.744807 118.723 1.38091 120.723 1.50778C124.636 1.7551 128.282 1.44313 132.148 1.73776C133.43 1.83851 131.835 2.84609 133.178 2.92867C140.541 3.37396 147.507 3.11732 154.966 3.3315C191.707 4.38822 227.822 4.76646 265.012 5.22554C277.275 5.37605 292.182 6.29047 304.848 5.89057C306.326 5.84299 305.445 4.95859 305.726 4.88569C310.138 3.7698 308.671 5.55522 311.552 5.79243C316.482 6.19625 321.65 6.44111 326.816 6.56165C334.186 6.70867 341.499 7.81777 348.036 9.62402C352.908 11.0637 348.651 7.73743 353.18 10.4261C353.488 10.6161 351.95 11.0292 353.21 11.624C356.078 12.9205 361.477 15.438 363.511 16.7945C367.432 19.3627 368.066 19.8064 371.565 22.5126C376.322 26.277 381.013 31.7609 384.946 36.8719C385.79 37.9691 385.509 35.9011 386.925 37.6366C388.385 39.3498 391.33 44.5286 391.961 46.4379C392.64 48.3288 391.575 47.8914 391.573 48.2811C391.542 51.4041 395.681 56.9362 395.939 57.8384C398.531 64.9449 399.444 72.0909 399.286 79C399.108 86.1081 398.789 93.0669 398.79 100.357C398.795 110.873 399.177 122.117 399.124 132.123C399.058 144.044 398.537 154.147 398.626 165.728C398.635 166.95 399.767 165.518 399.779 167.01C399.911 182.87 399.787 198.619 399.023 214.41C398.946 215.993 397.952 213.952 397.815 215.534C396.998 225.221 395.036 240.549 399.363 246.302C399.194 252.863 399.019 260.83 398.147 266.7C397.586 270.485 396.503 266.808 396.965 271.458C397.068 272.507 398.016 271.143 398.099 272.715C398.446 279.336 398.138 286.57 398.628 293.12C398.73 294.452 399.579 294.088 399.732 294.466C400.971 297.638 398.923 302.919 398.774 304.07C397.664 312.837 398.101 319.24 398.074 327.407C398.067 329.302 399.208 327.062 399.243 328.885C399.406 338.344 399.308 348.142 398.802 357.403C398.687 359.463 397.714 357.569 397.61 358.553C397.159 362.894 398.995 363.856 398.598 368.019C398.517 368.897 397.685 368.402 397.594 368.563C396.159 371.068 398.192 373.245 398.237 373.89C398.85 382.042 396.728 387.252 397.028 395.128C397.066 396.07 398.119 393.945 398.162 396.594C398.453 414.238 398.163 432.898 397.321 450.363C397.192 453.078 396.4 451.14 396.303 451.31C394.779 454.095 396.821 455.897 396.898 456.783C397.451 463.768 395.739 470.293 398.171 475.038C398.133 476.359 398.1 477.68 398.07 479L398.131 483.192L393.816 483.254C365.567 482.626 337.44 483.779 309.412 481.698C309.039 481.673 309.708 480.667 308.964 480.621C300.003 480.057 301.724 481.619 295.795 483.53C294.301 484.01 289.758 481.703 289.356 481.534C287.891 480.911 289.41 479.415 288.92 479.294C284.861 478.346 285.522 483.293 280.048 483.294C279.876 483.286 280.595 482.376 280.136 482.285C278.709 482.001 277.293 482.363 275.896 482.049C272.699 481.324 271.56 478.92 266.677 480.319C266.058 480.501 267.002 483.307 262.114 483.174C260.166 483.119 251.54 483.167 249.122 482.985C246.708 482.804 248.366 481.9 248.193 481.86C241.687 480.665 244.154 480.169 240.895 478.399C237.636 476.635 238.539 480.842 237.211 481.311C235.88 481.779 231.11 480.793 229.938 480.45C228.766 480.107 230.227 479.532 229.186 479.338C222.278 478.069 226.154 481.426 223.878 482.093C218.512 483.674 214.332 480.555 209.42 480.249C208.091 480.167 209.175 480.877 207.992 480.943C203.304 481.197 200.485 480.224 195.151 481.116C194.279 481.262 189.967 483.137 187.177 481.761C186.781 481.562 187.905 480.785 185.907 480.611C182.922 480.35 177.545 480.18 174.336 480.44C171.968 480.632 174.683 481.913 171.701 481.515C170.376 481.337 172.832 480.588 170.343 480.316C167.867 480.045 161.536 480.078 159.126 480.104C156.722 480.131 158.038 481.102 157.844 481.168C156.668 481.542 152.053 482.011 151.645 482.01C131.074 482.128 112.104 480.491 92.0751 481.033C90.5033 481.074 91.5503 482.098 91.3105 482.115C85.9296 482.545 90.1721 479.821 86.4132 478.909C86.9565 480.988 84.7376 480.611 80.9473 480.839C79.1208 480.951 80.1155 481.756 79.9489 481.838C77.2402 483.061 75.3542 481.482 74.8683 481.159C73.0746 479.97 71.1224 481.375 69.9016 480.58C68.6817 479.792 71.4893 478.623 67.8542 478.638C66.8349 479.382 69.5336 481.327 66.7737 481.642C56.3605 482.834 36.9226 481.308 28.5498 481.15C20.1938 480.992 17.495 481.129 12.6258 480.86C5.41154 480.461 6.28352 481.36 3.8161 482.061L0.800233 482.105L0.755253 479C0.601717 478.459 0.457714 477.758 0.338991 476.777C-0.321436 471.3 3.22904 473.962 3.9923 473.175C4.75521 472.402 3.96987 471.558 4.38927 470.597C4.80857 469.638 5.32753 471.713 5.48497 469.459C5.64226 467.204 4.285 461.039 3.48693 460.24C1.79616 458.55 0.0216275 461.328 0.645143 455.361C0.682145 455.018 1.61573 456.132 1.71008 454.818C2.42879 444.381 2.47334 433.539 3.109 423.115C3.19787 421.682 4.23645 422.964 4.29992 422.13C4.96421 413.441 3.21304 416.547 1.2677 411.785C3.85653 412.855 5.44039 410.221 5.45567 403.627C5.46577 399.664 4.3351 400.346 3.5382 397.782C3.29797 397.013 4.07433 394.208 3.54259 393.7C1.80442 392.024 -0.141366 394.666 0.633424 387.868C0.670244 387.57 1.6217 388.519 1.67932 387.489C2.05648 380.827 0.238369 380.03 0.0181914 372.828C-0.154573 367.184 0.954088 357.145 1.1344 350.718C4.045 350.853 3.37851 344.783 1.3717 342.32C1.45386 338.149 1.34041 333.644 1.6178 329.613C1.71236 328.225 2.55506 329.137 2.64611 328.962C4.07447 326.279 2.12207 324.465 2.04553 323.565C1.30148 313.807 2.78124 305.857 1.33508 296.545C1.283 296.215 -0.738793 295.679 0.737427 293.19C0.839186 293.029 1.75906 296.104 1.8302 291.724C1.90149 287.342 2.98532 279.083 2.04846 273C1.82291 271.528 0.181633 267.805 1.46399 264.817C1.63812 264.419 2.21798 264.855 2.54064 264.28C3.56879 262.422 1.52527 261.408 3.26135 259.225C4.99735 257.041 6.29749 252.5 5.09972 246.366C5.06489 246.17 3.44521 244.718 3.47082 242.789C3.51309 239.709 3.85051 235.338 3.83996 232.122C3.83432 230.583 2.82857 231.568 2.81017 231.301C2.24659 220.949 3.14321 213.582 3.53234 202.492C3.60566 200.46 2.23417 194.618 3.31847 190.682C4.50545 186.361 9.44306 190.801 8.2667 180.869C7.79619 176.862 1.53194 171.79 4.77745 164.591C3.97324 150.628 5.63428 137.715 4.48595 123.713C4.43507 123.083 2.68677 121.092 2.71057 119.612C2.74927 117.414 3.5664 116.208 3.62023 114.639C3.86636 108.064 3.16725 102.047 3.27599 95.707C3.3155 93.3001 4.16041 94.1418 4.20763 91.271C4.25407 88.4021 3.14149 86.4891 3.67882 82.6013C3.84338 81.4216 4.30893 80.242 4.82422 79C5.5931 77.1634 6.53679 75.2984 6.89559 73.0924C4.69446 72.7629 4.86683 70.1149 5.23118 65.3465C5.30779 64.4241 4.34022 65.2283 4.33816 64.7808C4.3204 62.9368 5.35592 61.4948 5.41203 59.748C5.42806 59.3223 4.70046 59.083 4.67679 58.7173C4.42226 55.5334 7.87951 51.6526 8.50142 51.0808C10.8239 48.7328 10.6179 47.027 12.1928 45.1665C13.7766 43.362 12.47 46.663 14.1016 44.4631C17.4676 39.9261 21.9325 34.2851 26.1845 30.489C27.8706 28.9745 26.0444 29.249 26.2693 29.0147C29.6767 25.603 34.2235 23.8283 35.4429 20.7229C40.9738 23.6262 37.5885 18.6504 44.4115 16.7305C44.9555 16.5969 46.4931 18.6389 44.8154 19.7601C43.156 20.8788 40.0887 21.5259 37.9975 23.4368C37.4603 23.8774 35.6568 27.8248 35.3805 28.2245C32.9521 31.3131 30.268 28.8251 29.9498 28.794C26.6183 28.6044 24.9224 33.7145 24.2964 34.6808C21.129 39.1733 18.0074 42.6086 16.1736 46.8059C15.0059 49.5635 17.0636 50.9403 16.0234 52.8897C12.8197 59.3622 8.70712 61.2758 10.274 68.8351C10.6886 70.4505 13.4054 69.276 10.816 74.2984C10.6933 74.5348 9.39179 76.8208 9.39878 79C9.39792 79.7367 9.50887 80.4479 9.79892 81.0531C9.95178 81.3708 10.7283 81.3608 10.7935 81.7798C11.2155 84.5882 10.5969 86.4612 10.8932 89.5206C11.1894 92.5797 11.6311 96.2583 11.3678 99.7512C11.2103 101.856 9.76348 104.557 9.40927 105.565C8.38889 108.41 10.0619 111.461 8.82627 113.223C7.58443 115.001 5.69849 111.526 4.89611 116.187C6.91359 116.36 8.98434 116.756 11.0133 117.034C10.9422 127.249 10.2899 137.299 10.379 147.548C10.3921 148.819 11.4767 147.52 11.5186 148.882C11.691 154.629 10.9178 159.648 11.2257 165.608C11.4682 170.221 12.6165 175.28 12.9058 180.104C10.5973 183.051 11.381 190.209 11.17 195.409C11.0971 197.23 10.4805 197.109 10.2794 198.404C9.53545 203.291 11.5755 201.001 11.8966 202.341C13.2668 208.089 8.64919 208.581 8.76328 215.358C8.76776 215.717 11.2291 220.106 11.3824 220.71C12.3819 224.551 10.5257 221.346 10.3438 223.75C10.0115 228.138 9.42368 231.188 10.1446 236.337C10.3582 237.839 11.8923 241.44 10.7057 244.356C10.5503 244.74 9.7367 244.528 9.68906 244.836C8.89485 250.425 11.4512 250.572 12.317 253.765C13.1826 256.959 11.4179 261.892 10.9093 262.896C9.59354 265.523 10.347 260.884 10.2179 260.741C8.68131 259.071 8.94585 262.668 8.81601 265.417C6.30948 265.815 6.45993 269.66 8.6915 268.267C8.93525 268.109 8.7015 265.969 8.81601 265.417C11.2753 267.831 11.5902 272.056 9.29209 276.722C8.21499 278.907 6.95914 276.842 7.41856 283.477C7.62595 286.489 9.35183 285.325 9.82236 287.983C10.8959 294.054 9.28598 301.944 9.53965 308.204C9.63174 310.475 10.5765 308.262 10.672 309.815C10.9283 313.935 10.2195 317.569 10.5826 321.707C10.6167 322.082 11.6056 321.166 11.6183 322.453C11.7331 332.209 11.0997 340.703 11.0821 350.889C11.0741 355.81 11.6195 364.609 11.5099 369.707C11.3256 378.543 9.88756 389.413 10.2369 396.961C10.4605 401.884 11.4497 400.804 12.1236 402.913C13.43 406.984 11.09 414.189 10.7276 415.16C10.7156 415.189 10.4825 410.953 9.9747 413.213C8.91671 414.528 10.723 415.112 10.7276 415.16C10.4936 415.797 10.269 424.26 10.4581 425.94C10.5614 426.853 11.4986 426.342 11.5348 426.818C12.3734 438.134 12.6116 449.47 12.1734 460.947C12.1545 461.149 11.1062 460.845 11.0748 461.32C10.6087 467.965 11.8911 472.219 12.6524 477.699C12.7137 478.14 12.7683 478.574 12.8161 479L3.8161 470C8.68669 469.454 12.6007 469.802 15.5831 471.457C19.7172 471.231 25.6485 472.026 29.0617 472.509C32.4746 472.992 32.9509 470.951 33.2512 470.911C42.6179 469.62 48.0325 470.788 57.7501 470.969C62.3701 471.059 71.5343 470.763 76.5366 470.54C80.4899 470.36 82.8717 470.839 86.5144 470.533C87.0072 470.492 86.5093 469.583 86.6597 469.548C90.725 468.461 88.7714 470.683 89.6107 471.079C92.6537 472.522 94.5339 473.29 99.7401 472.611C100.941 472.456 104.439 469.258 106.628 469.071C109.474 468.834 108.4 469.98 111.38 469.702C111.635 469.68 111.582 468.972 113.421 469.004C121.958 469.139 131.266 469.55 140.138 469.48C141.35 469.473 139.796 468.351 141.547 468.322C149.763 468.189 158.768 468.231 166.772 468.756C168.743 468.889 167.508 469.674 167.935 469.907C170.561 471.318 174.284 469.268 174.899 469.229C189.554 468.244 200.77 470.099 215.707 469.216C216.52 469.164 222.779 466.966 225.571 468.851C225.762 468.977 228.525 470.905 230.968 469.587C231.119 469.504 229.398 468.511 232.402 468.612C235.406 468.713 240.241 468.05 244.37 469.141C245.678 469.485 248.768 471.409 252.667 469.875C252.921 469.768 258.942 466.301 261.09 468.693C261.439 469.087 261.074 471.618 265.729 470.32C266.618 470.069 265.004 469.504 267.346 469.151C270.936 468.608 275.692 469.286 280.104 468.158C280.874 467.959 284.15 466.24 286.777 467.545C287.189 467.749 286.407 468.594 287.795 468.689C294.393 469.142 301.303 468.577 308.003 469.162C310.376 469.367 309.163 470.734 311.636 471.1C314.111 471.466 319.095 471.818 321.684 471.193C324.273 470.569 321.445 468.391 325.324 468.217C342.187 467.46 358.892 468.738 375.731 468.924C378.228 468.952 376.158 468.173 379.838 468.158C383.827 468.141 388.669 468.066 393.816 468.01L382.827 479C382.693 466.641 382.673 452.52 383.842 444.208C385.168 434.774 386.177 446.646 386.717 439.437C386.975 435.958 384.443 432.195 384.363 431.355C383.553 423.151 384.675 417.45 384.331 410.066C384.259 408.541 383.233 410.037 383.184 408.739C383.006 404.306 383.464 399.648 383.38 395.412C383.34 393.512 382.556 393.862 382.617 392.114C382.753 387.93 383.082 384.23 383.817 380.152C383.884 379.78 384.859 382.287 384.895 379.191C384.951 374.181 385.675 367.963 384.927 362.199C384.702 360.489 382.911 360.422 384.148 356.746C384.406 355.975 386.557 356.959 384.699 352.677C384.39 351.956 381.883 344.763 383.499 341.233C383.924 340.301 385.684 337.924 385.408 335.868C385.363 335.589 384.401 336.706 384.307 335.002C383.993 328.996 384.096 322.702 383.795 316.532C383.712 314.884 382.717 317.338 382.626 314.882C382.374 308.129 382.628 299.698 382.939 293.094C383.056 290.66 383.881 292.343 383.97 292.165C385.43 289.317 383.46 287.632 383.345 286.687C382.657 280.806 383.583 276.329 383.338 270.908C383.273 269.412 382.333 270.473 382.249 270.175C381.431 267.087 383.118 269.387 383.304 267.433C383.831 261.957 383.755 255.852 383.635 250.314C383.59 248.28 382.5 250.566 382.472 248.741C382.284 237.937 382.388 226.704 382.989 216.16C383.104 214.175 383.943 215.424 384.135 215.01C385.475 212.158 383.647 207.978 383.472 207.016C382.677 202.643 383.419 200.945 383.281 197.083C382.591 178.217 383.082 154.923 383.386 137.115C383.745 115.762 384.45 98.8112 384.399 79C384.394 77.507 384.328 76.0209 384.195 74.5003C384.083 73.2997 383.075 74.5983 382.959 73.5829C381.483 60.5403 375.937 47.9706 366.257 38.9033C365.467 38.1703 365.84 39.996 364.557 38.8733C361.919 36.5819 358.465 33.8658 355.609 31.7517C354.208 30.7204 356.682 31.1392 355.236 30.1134C351.842 27.7314 347.739 25.8298 343.618 24.7417C341.873 24.295 344.149 26.0976 341.928 25.4614C336.992 24.1081 331.924 23.4649 326.816 23.4591C314.114 23.4472 301.436 23.2245 288.513 22.2792C287.2 22.183 286.048 19.984 283.255 20.4057C283.045 21.0159 283.057 21.7338 282.965 22.3861C255.371 22.7375 228.059 21.9752 200.388 21.8573C199.221 21.8526 201.237 23.0177 198.978 23.0145C185.905 22.9973 173.211 23.3201 159.838 22.162C158.512 22.0487 159.192 19.999 155.282 20.309C154.593 20.3656 148.704 20.6389 147.181 21.0839C146.974 21.151 148.049 22.1078 146.151 22.1356C135.124 22.2809 123.568 22.0625 112.559 21.4779C110.783 21.3818 112.675 20.3629 111.409 20.2855C102.433 19.7447 92.6692 20.5192 84.092 19.5941C78.3506 18.9713 80.4762 17.2101 77.4254 15.4765C76.9939 15.2319 73.4387 15.1931 73.2548 14.1845C72.7828 11.6482 74.5048 8.87091 73.7983 6.16743C73.649 5.58512 68.8876 6.2123 71.7066 4.80513C71.9036 4.71095 75.3556 4.24392 76.2058 3.76656C76.7978 3.43652 75.731 2.41073 76.9388 1.98824C78.1465 1.56615 79.4736 2.42603 81.4759 1.92965C83.4773 1.42713 82.5973 0.260176 86.5943 0.122038ZM44.4295 474.667C47.5899 475.647 48.0562 472.057 44.6381 472.916C44.4726 472.962 44.2666 474.619 44.4295 474.667ZM7.58262 137.242C5.99956 141.374 8.32729 144.201 9.5499 141.286C10.7712 138.372 8.06251 135.983 7.58262 137.242ZM6.42686 94.3989C5.17869 99.2276 10.2682 99.9878 9.23935 94.816C9.18121 94.5152 6.49934 94.1166 6.42686 94.3989ZM91.5737 14.9828C91.5301 14.9352 88.9745 14.8887 88.9134 14.936C87.5526 16.0759 92.6628 16.168 91.5737 14.9828ZM10.4553 53.146C9.19731 54.2317 8.50777 58.5342 9.93368 57.0943C11.0325 55.9577 11.958 51.8212 10.4553 53.146ZM209.287 478.497C209.337 478.551 211.169 478.599 211.132 478.296C211.008 477.323 208.458 477.598 209.287 478.497ZM65.0574 13.5427C54.8169 14.4465 47.0894 12.6263 59.0273 10.3668C61.1655 10.0593 54.6947 12.5551 57.4665 12.4041C62.3932 12.1631 65.5212 9.19515 70.7218 10.5576C71.5918 10.7694 65.5925 13.4421 65.0395 13.5501C65.0455 13.5476 65.0514 13.5451 65.0574 13.5427ZM46.2494 478.978C46.3126 479.025 48.8489 479.07 48.9098 479.023C50.2832 477.884 45.1737 477.792 46.2494 478.978ZM316.199 480.716C316.339 480.818 322.225 480.912 322.417 480.819C325.487 478.956 313.587 478.759 316.199 480.716ZM1.21204 350.617C0.0657415 347.85 -0.0692218 344.539 1.37024 342.333C1.29382 345.083 1.28257 347.852 1.21204 350.617Z" fill="#FD6251"/>
</svg>
