<?xml version="1.0" encoding="UTF-8"?>
<svg id="Layer_1" data-name="Layer 1" xmlns="http://www.w3.org/2000/svg" viewBox="0 0 673.72 466.93">
  <path d="M96.4,173.95c-.36,1.05-.7,2.11-.94,3.19-.79,3.46-2.51,6.27-4.88,8.8-.31.33-.46.73-.51,1.19-.1.95.19,1.47,1.19,1.07,2.09-.85,3.94-2.27,5.07-4.06,1.04-1.63,2.05-3.3,2.95-5.01-1.81-1.12-2.76-3.12-2.87-5.18Z"/>
  <path d="M155.01,108.35c-.95-1.04-2.33-1.18-3.67-1.22-.34-.03-.67-.08-1-.1-2.33-.15-3.01.71-2.43,2.96.37,1.44.72,2.89,1.43,4.21.48.91.06,1.74-.32,2.51-1.65,3.35-1.52,4.44.95,7.07,1.47,1.56,4.76,1.43,6.63-.26,1.46-1.32,2.39-3.02,3.34-4.69.33-.58.46-1.3.18-2.07-1.14-3.15-2.85-5.96-5.1-8.41Z"/>
  <path d="M106.76,135.24c2.52-1.15,3.18-3.45,3.54-6.43-.43-3-.46-6.64-2.86-9.6-.43-.53-.87-1.35-1.72-.94-.82.39-.54,1.24-.4,1.92.39,1.93.81,3.86,1.24,5.78.58,2.65.36,5.16-1.43,7.31-.57.68-.73,1.48-.34,2.02.47.66,1.33.22,1.97-.07Z"/>
  <path d="M673.22,341.66c1.04-12.72.19-25.48-.26-38.24-.5-14.05-.39-28.11-.48-42.17-.01-1.5.05-3-1.42-3.76-1.96-1.01-2.86-2.75-3.81-4.56-1.39-2.65-3.22-4.96-5.27-7.18-5.23-5.67-10.19-11.59-15.33-17.35-1.74-1.95-3.66-3.75-5.54-5.58-.56-.54-1.77-.57-1.61-1.65.17-1.15,1.32-1.34,2.2-1.52,3.02-.63,6.04-1.07,9.02-2.03,7.72-2.49,13.73-6.34,15.32-15.08.81-4.49-1.71-10.29-5.75-11.97-1.75-.73-2.8-.49-2.64,1.72.02.22.03.43.04.65-.07-.02-.13-.04-.2-.05-.78-.11-2.66,1.44-2.39,2.04.39.86.55,2.19,1.94,2.12.34-.02.64-.09.9-.2.04.62.07,1.25.11,1.87.25,3.66-.99,6.65-3.49,8.8-.74-.06-1.07.33-1.24.93-.2.13-.39.27-.6.4-3.63,2.08-7.75,3.06-11.92,3.68-2.22.33-3.18-.52-3.14-2.66.05-2.98.29-5.97.15-8.95-.11-2.3.86-3.39,2.98-3.59,5.04-.48,8.38-3.49,11.46-7.17,3.07-3.67,4.54-8.09,6.22-12.38,2.35-6,4.32-12.14,3.97-18.74-.16-2.98-1.37-5.91.94-8.82,1.08-1.36.11-3.35-1.75-4.04-1.32-.49-2.79-.81-4.19-.77-17.78.43-35.52,1.45-53.09,4.41-1.65.28-2.98.9-3.21,2.81-.33,2.83-.75,5.65-1,8.49-.4,4.45-.52,4.61-4.97,4.2-.59-.05-1.18-.18-1.77-.27.04-.26.04-.51-.01-.76-.2-.88-.74-1.24-1.65-.94-.92.29-1.61.74-1.79,1.59-2.99-.04-6.04.02-8.25,2.06-2.16,1.99-4.18,1.97-6.09,1.09-4.52-2.1-9.42-2.61-14.11-3.94-4.67-1.33-9.38-1.06-13.56,1.32-3.41,1.94-3.32.37-3.21-2.25.06-1.34.12-2.68.16-4.03.16,0,.33-.02.51-.05,1.18-.2,2.31-.71,1.99-2.04-.28-1.16-.89-2.62-2.47-2.39-.06-2.17-.24-4.34-.67-6.49-.59-2.91-2.54-3.74-4.62-2.12-.5-.55-1.23-.86-2-.73-1.41.24-1.82,1.56-1.6,2.86.09.52.32.89.64,1.14-1.1,1.55-1.95,3.27-2.53,5.22-1.83,6.08-1.63,12.25-1.38,18.44.06,1.36-.19,2.09-1.32,2.94-4.62,3.48-5.37,9.4-1.74,13.8.95,1.15,1.32,2.18.94,3.56-.87,3.13-.08,5.48,3.26,6.42,1.3.37,1.72,1.14,1.64,2.35-.08,1.23-.22,2.5-1.69,2.82-2.83.62-4.32,2.89-5.08,5.14-1.53,4.5-4.33,6.54-8.98,6.27-.23-.01-.49,0-.71.09-2.78,1.05-3.9.37-4.3-2.86-.62-5.01-2.07-10.09-6.71-12.91-2.67-1.62-3.2-3.33-2.83-6.12,2.05-15.23,5.81-29.97,12.54-43.83.32-.66.66-1.33,1.04-1.99,0,.04,0,.09,0,.13.18,1.23,1.12,1.98,2.46,1.96,1.2-.02,1.41-.84,1.39-1.89-.18-1.15-.89-2.04-2.11-1.96-.24.02-.48.08-.71.18,1.25-1.66,2.89-2.93,5.26-3,3.07-.09,6.04-.38,8.67-1.75,3.39-1.76,6.23-1.99,9.4-.78-.02.27-.05.54-.09.81-.13.91.49,1.31,1.06,1.54.6.24.58-.55.86-.89.12-.15.22-.3.32-.45.33.18.66.37,1,.58,1.74,1.06,3.49,1.82,5.26,2.35-.17.45-.23,1.01-.25,1.61.12.95.66,1.83,1.9,1.73,1.01-.09,2.22-.59,2.23-1.71,0-.3-.04-.59-.11-.88,2.96.34,5.95.1,8.95-.47-.06.23-.08.49-.07.75.07,1.76,1.24,2.74,2.93,2.54,1.43.09,1.67-1,1.64-2.13-.02-.8-.65-1.47-1.47-1.85,2.4-.62,4.8-1.41,7.19-2.26,2.1-.74,3.91-2,5.82-3.1.36-.13.72-.23,1.07-.29.11-.16.22-.31.33-.47,1.85-.93,3.88-1.59,6.4-1.43-.88.26-1.77.6-1.8,1.7-.02.59.44.95,1.12.67.83-.35,2.01-.37,2.07-1.55.02-.28-.11-.54-.32-.71.12.02.24.02.37.05,9.93,1.75,20.05,2.52,29.87,5.16,2.33.63,5.64,1.67,6.83-.96,1.3-2.86-1.31-4.99-3.71-6.53-.6-.39-1.25-.71-1.9-.99-6.72-2.85-13.74-4.14-20.96-4.5.89-1.19,1.5-2.62,1.74-4.25.23-1.5.24-3.25,2.35-3.79,3.5-.89,4.42-3.78,4.63-6.87.29-4.29-1.24-8.05-3.99-11.32-.46-.54-1.03-1.12-.74-1.86.42-1.09.42-2.24.72-3.33,1.67-6.26-.55-11.29-4.69-15.9-1.63-1.81-4.43-3.22-3.47-6.56.14-.48.21-1.04.36-1.55.36-1.22.28-2.41.14-3.68-.4-3.6-1.75-6.92-2.79-10.33-.92-3-3.03-5.33-5.54-7-2.4-1.6-5-3.02-7.91-3.68-2.89-.66-5.73-1.16-8.54.24-.49.25-1.09.54-1.43-.11-1.08-2.04-3.19-3.1-4.56-4.77-3.16-3.84-7.24-5.02-11.9-5.32-3.16-.2-6.28.1-9.36.58-4.51.7-8.66,2.21-10.3,7.18-.44,1.32-1.11,2.23-2.79,1.68-.63-.21-1.44-.16-2.09.02-2.03.58-4.59.37-5.89,2.22-1.79,2.55-3.59,5.14-3.44,8.67.17,4.25,1.11,8.11,3.74,11.48.7.9.88,1.79.42,2.85-.35.79-.57,1.64-.91,2.43-.53,1.26-1.43,1.56-2.6.88-1.41-.82-2.28-1.99-2.28-3.68,0-.82-.54-1.22-1.18-1.34-.77-.15-.97.56-1.12,1.11-.24.89-.37,1.81-.56,2.71-.43,2.04.4,3.75,1.6,5.25.98,1.22,2.41,1.45,3.98,1-1.35,3.19-3.01,2.21-4.49.44-.58-.7-1-1.54-1.47-2.33-.2-.34-.11-.97-.76-.84-.58.12-.71.66-.76,1.14-.16,1.4-.32,2.8-.35,4.21-.04,1.87.23,3.69,1.69,5.07.48.45.41.97.41,1.51,0,1.95-.22,3.91.42,5.81.84,2.49,2.23,4.68,4.81,5.46,1.08.32,1.57.75,1.87,1.64.95,2.8,1.74,5.61,3.1,8.29,3.31,6.58,7.79,11.99,14.05,15.77-.09.1-.19.19-.28.29.47.42.89.91,1.26,1.49.39.6.64,1.29.78,2.01.8-.36,1.04.04,1.2,1.34.09.74.18,1.48.27,2.22-7.13.28-14.24-.55-21.37.3-.4.05-.8.04-1.19-.02-1.3.78-2.61,1.57-3.91,2.39-.66,3.18-2.56,5.58-4.66,8.22-.73.92-1.36,1.96-1.85,3.03-.91,1.95-1.77,1.88-3.07.3-2.25-2.73-4.11-5.93-8.11-6.62-1.41-.24-1.09-1.62-1.09-2.68,0-4.06.12-8.12-.05-12.17-.27-6.27-2.64-9.05-8.91-9.4-9.52-.53-19.03-1.52-28.58-1.09-7.05.32-9.05,2.26-9.69,9.41-.17,1.85-.76,2.65-2.63,2.29-.82-.16-1.64-.34-2.47-.41-1-.08-2.15-.34-3.19-.36.03-.15.05-.31.08-.46-.16,0-.32,0-.48,0-.4.03-.89-.14-.92-.61-.07-.96-.91-1.44-1.24-2.19-.39-.89-.94-1.47-1.94-1.56,4.7-2.95,7.27-7.44,9.22-12.14,1.52-3.67,2.69-7.56,2.81-11.7.06-2.02.1-4.07.26-6.09.09-1.2-.33-2.27-.46-3.41-.11-.95-.92-1.19-1.95-1.08,2.11-2.58,2.68-5.47,1.14-8.3-1.32-2.41-3.68-3.69-6.51-3.77-1.55-.04-3.1-.06-4.63.3-.4.39-.9.64-1.49.58-.11-.01-.22-.03-.34-.04,0,0,0,0-.01,0-.1.02-.19.03-.29.04-.49.08-.97.14-1.48.16-.74.03-1.51-.07-2.18-.39-.09-.04-.14-.12-.22-.17-.03.02-.05.06-.08.08-.65.37-1.19-.4-1.5-.94-.87-1.52-1.89-2.88-1.67-4.93.12-1.16-.55-2.58-.94-3.85-.16-.52-.73-.6-1.15-.5-.65.14-1.24.5-1.39,1.23-.24,1.14-.52,2.26-.24,3.46.61,2.59,1.58,5.07,3.61,6.78,1.2,1.01,2.96,1.48,4.6,1.68,1.67.2,3.37.15,5.02.62.91.26,1.82.05,2.68-.23,1.81-.59,3.12,1.06,4.8,1,.04,0,.09.15.13.24.36.97-.93,3.82-1.74,4.46-1.74,1.37-3.63,2.33-5.83,2.53-3.27.29-6.3-.67-9.22-2.02-.61-.28-1.21-.89-1.83-.22-.55.6-.47,1.21.02,2,.88,1.44,2.1,2.29,3.57,3.01,4.37,2.15,8.76,1.44,13.2.36.92-.22,2.42-1.7,3.37-1.83.15,3.77-1.32,7.95-2.17,11.64-.69,3.02-2,5.84-3.23,8.7-.81,1.88-2.4,3.01-3.31,4.62-.99,1.75-2.16,3.21-3.65,4.47-3.32,2.81-6.89,5.33-11.18,6.25-2.68.58-5.43,1.21-8.29.71-.87-.15-2.58-1.03-2.81,1.18-.05.46-.94.74-1.58.39-.48-.26-.95-.57-1.36-.94-2.94-2.59-6.48-4.27-9.72-6.4-3.87-2.53-7.57-5.27-11.33-7.95-2.25-1.6-4.16-3.68-6.66-4.93-.36-.18-.74-.4-.8-.99-.15-1.51-.68-2.93-1.3-4.31-.25-.57-.53-.99.53-.97,2.1.04,4.92-2.06,5.72-3.98.5-1.18-.32-2-.81-2.71-.42-.61-1.32.14-1.75.59-.79.84-1.76.56-2.64.62-3.44.22-5.77-2.01-8.12-3.99-2.88-2.42-4.61-5.59-5.31-9.32-.3-1.62-.04-3.26.33-4.75.63-2.53,3.94-3.82,6.46-3.1,2.58.73,4.83,1.99,7,3.48.36.25.2.48.32.69.59,1.08,1.66,1.22,2.34.18.48-.74,1.1-.62,1.51-.34.69.48,1.14.21,1.34-.31.96-2.44,2.75-4.51,3.19-7.17.3-1.8.14-1.98-1.76-2-.2,0-.4-.04-.6-.07.11,1.21-.3,2.12-1.51,2.55-.3.1-.6.04-.81-.23-.23-.3-.12-.55.13-.78.66-.59,1.15-1.39,2.07-1.65.41-.85,1.08-1.51,1.73-2.16,1.11-1.11,2.06-4.16,1.31-5.22-.6-.85-1.99-1.06-2.84-.92-1.51.25-1.84-.89-2.82-1.53,2.34.19,4.02-3.39,3.26-5.45-.51-1.39-.11-1.82,1.28-2.29,4.53-1.54,9.11-2.61,13.89-3.09,1.6-.16,3.24-.58,4.87-.69,3.58-.24,7.12-1.29,10.74-.53.19.04.42.1.54.23.52.6,1.38.64,1.8.35,1.15-.79,2.12-.56,3.37-.26,1.18.28,2.52.42,3.85.09.66-.17,1.25.66,1.61,1.21,1.02,1.54,2.41,2.69,3.78,3.88.45.39,1.04.83.94,1.41-.03.17-.09.31-.18.42.44.28.86.59,1.25.95,1.78,1.66,2.44,4.14,1.82,6.45.82,1.75,1.1,3.65,1.45,5.57.38,2.08,1.07,4.1,1.63,6.14.15.56.56.89,1.12.81.56-.09.94-.42,1.09-1.06.27-1.11-.04-2.19-.06-3.28-.04-2.48.49-5.04-.42-7.44-1.75-4.64-4.01-9-7.24-12.84-1.05-1.24-1.96-2.72-1.71-4.65.12-.89-.44-1.88-.77-2.81-1.02-2.93-2.07-5.84-3.1-8.77-.37-1.06-.2-1.55.99-2.25,2.05-1.21,4.47-1.52,6.36-3.06,1.14-.93,1.82-2.17,2.46-3.32,2.93-5.21,4.1-10.76,1.24-16.33-1.62-3.16-3.65-6.16-7.34-7.58-1.93-.74-3.7-1.94-5.8-2.26-3.35-.5-6.65-1.11-10.04.09-1.19.42-2.65.08-3.99.2-.56.05-1.09.17-1.33.55-1.08,1.67-2.85,1.5-4.44,1.73-1.12.16-2.28-.07-3.27.77-.26.22-1.02.21-1.28-.01-1.39-1.19-3.1-.48-4.63-.84-.81-.19-1.61-.26-2.4-.64-1.87-.88-3.92-.92-5.95-1.09-1.82-.15-3.48.74-5.13.88-3.73.32-6.49,2.45-9.54,4.05-1.88.99-2.84,3-3.78,4.8-.9,1.72-2.48,2.63-3.92,3.47-1.33.78-2.54,2.04-4.36,2.07-.76.01-1.55-.04-2.34.07-2.01.27-3.9.53-5.43,2.22-.82.9-2.37,1.06-3.39,1.96-1.34,1.18-2.14,2.75-3.26,4.08-1.41,1.68-1.4,3.83-2.26,5.64-.77,1.62-1.52,3.17-1.83,4.96-.7,3.91-.62,7.64,2.1,10.87.37.44.48.99.71,1.48.55,1.19,1.15,2.36,2.61,2.67.53.11.88.52,1.19.9,2.16,2.68,5.35,2.79,8.32,3.14,2.1.24,4.33.22,6.42-.53.55-.2.77.03.47.57-.1.18-.26.31-.09.51.94,1.11.74,2.6,1.3,3.86.27.6-.12,1.56.35,2.27.67,1.02.06,1.64-.58,2.37-1.77,2.01-2.93,4.33-1.83,6.98.78,1.87.02,3.14-.99,4.43-1.49,1.91-1.56,4.22-1.94,6.44-.45,2.61-.12,5.23.52,7.76.34,1.34.88,2.72,1.69,3.82,2.02,2.73,4,5.53,6.83,7.57.49.35,1.09.22,1.53.76,1.2,1.46,1.53,2.03,1.92,4.42-1.1-.32-3.74.8-4.5,1.66-1.82,2.08-2.21,4.56-2.36,7.17-.03.49-.16.91-.36,1.23.05.58.09,1.16.14,1.74-.7.87-1.54,1.61-2.55,2.3-5.36,3.68-11.45,5.9-17.15,8.9-.12.07-.26.12-.41.17-.3-.78-.56-1.59-1.16-2.29-1.87-2.17-3.88-4.2-6.24-5.7-3.87-2.46-7.99-4.42-12.63-5.21-2.66-.46-5.24-1.44-7.93-1.93-1.22-.22-2.43-.14-3.64-.21-.7-.04-1.09-.13-1-1.05.31-3.04-.55-5.91-1.7-8.66-1.06-2.54-1.51-5.01-1.06-7.81.57-3.5.13-7.01-.87-10.46-.74-2.57-1.02-5.31-2.45-7.61-.9-1.46-.66-2.18.74-3.05,4.44-2.77,3.4-9.42.12-12.04-1.16-.93-2.06-2.19-3.54-2.72-3.95-1.42-7.99-1.37-12.05-.64-1.55.28-3.17.38-4.57,1.32-.34.23-1.01.11-1.49-.01-3.97-1.02-7.96-.32-11.93-.13-2.17.1-4.34.47-6.46.93-4.01.87-7.7,2.52-10.73,5.31-1.31,1.21-2.39,2.73-2.78,4.58-.22,1.08-.9,1.69-1.88,2.21-2.92,1.54-4.63,4.16-5.75,7.15-1.7,4.57-1.85,9.27-1,14.04.2,1.09.26,2.21.61,3.27.36,1.08-.45,1.79-.98,2.39-2.16,2.45-2.54,5.16-2.02,8.29.84,5.04,3.17,9.33,6.69,12.81,1.55,1.54,3.05,3.45,5.38,4.16.68.21,1.17.79,1.22,1.6.06,1.05.2,2.09.19,3.13,0,.71-.3,1.17-1.1,1.55-2.58,1.21-4.38,3.18-5.08,6.05-.33,1.37-.87,2.7-.92,4.14-.02.65-.45.88-.99,1.17-2.27,1.18-4.84,1.43-7.16,2.41-4.41,1.86-8.91,3.5-13.15,5.78-2.5,1.34-4.94,2.73-7.3,4.29-.61.4-1.08.93-1.56,1.43-.1.1-.19.21-.29.31-.39-.08-.78-.11-1.16,0-1.93.55-3.28-.46-4.69-1.42-.53-.36-1.06-.72-1.83-1.23,1.98-.92,3.47-2.19,5.66-2.64,4.12-.83,6.51-3.67,7.03-7.88.11-.9.49-1.19,1.01-1.63,2.5-2.15,4.28-4.63,3.53-8.18-.61-2.87-2.62-4.58-5.29-4.56-.49,0-1.1-.08-1.26.5-.13.48.28.74.74.92.66.27.91.9,1.11,1.54-.63.34-1.49.09-1.93.95.63.15,1.23.29,2.23.53-1.91.74-3,.1-3.98-.95-.99-1.05,0-1.67.54-2.37,1.06-1.4,2.22-2.72,3.18-4.19,1.95-3,1.91-6.25.85-9.53-1.2-3.72-3.44-6.92-5.93-9.81-1.77-2.06-3.31-4.05-4.09-6.65-.34-1.13-.75-2.29-.58-3.39.93-5.89-.7-11.36-2.6-16.78-1.68-4.8-4.4-9.16-7.85-12.69-4.73-4.85-10.75-7.73-17.77-8-1.53-.06-3.07-.36-4.62-.34-.65.01-.98-.42-1.41-.75-2.26-1.75-4.46-3.61-7.23-4.54-4.15-1.4-8.32-1.44-12.43.12-1.19.45-2.22,1.31-2.95,2.34-.71,1-1.58,1.53-2.75,1.54-3.59.04-7.99,5.58-7.17,9.25.43,1.93.48,3.95,1.22,5.81.3.76-.01,1.36-.29,2.04-1.29,3.13-3.15,6.09-3.09,9.67.02.88-.07,1.74.56,2.46-.78.42-1.26-.17-1.81-.33-.61-.18-1.19-.39-1.69.13-.48.5-.23,1.19.09,1.53,1.35,1.48.58,2.88-.09,4.22-2.04,4.1-3.28,8.32-3.17,12.98.06,2.78.49,5.46,1.01,8.15.64,3.31.67,6.64.45,9.98-.29,4.4,1.46,7.91,4.84,10.63,2.11,1.7,4.6,2.56,7.29,2.81,2.81.27,3.31,1.29,2.3,3.88-.64,1.65-1.65,2.22-3.31,2.31-1.92.1-3.83.59-5.74.62-1.84.02-3.67-.38-5.52-.52-2.83-.21-5.59-.82-8.52-.18-4.67,1.03-8.42,3.45-11.68,6.77-3.01,3.07-6.19,5.92-9.83,8.21-1.4.89-3.16,1-4.49,2.06-1.18.94-1.22,1.63,0,2.56-1.6,1.06-3.14,2.19-5.17,2.31.76-5.52,2.14-10.91,3.72-16.23.79-2.68,1.64-5.35,2.3-8.06.22-.9.88-1.2,1.63-1.45,2.58-.84,4.97-2.02,7.01-3.88,1.46-1.33,2.31-3.08,3.42-4.64.98-1.37,1.96-2.77,2.82-4.23,1.02-1.73,2.84-2.42,4.44-3.34,2.36-1.35,4.19-3.23,5.85-5.3.99-1.24.06-3.69-1.81-5.13,1.39-1.33,3.14-2.24,4.29-3.85,1.12-1.57,1.23-5.21.03-7-.69-1.04-4.25-2.26-5.62-1.75-1.15.43-1.57.03-2.23-.89-1.36-1.91-3.64-2.58-5.66-3.54-1.28-.61-2.7-.94-4.05-1.41-.25-.09-.65-.2-.7-.38-1.08-3.75-4.4-3.86-7.19-3.82-4.51.07-8.78,1.39-12.25,4.62-1.71,1.59-2.45,3.63-3.03,5.74-.82,2.98-.41,6.11-.89,9.11-.59,3.67-.19,7.33-.32,10.98-.1,3.05-.74,6-.92,9.02-.15,2.52-1.9,4.5-2.99,6.7-2.82,5.66-7.24,10.25-10.4,15.68-2.21,3.81-5.21,7.13-7.21,11-1.54,2.97-2.78,6.21-3.5,9.56-.63,2.96-1.3,5.91-2.05,8.84-.54,2.12.18,4.16.25,6.24.06,1.92.38,3.91,1.16,5.78,1.41,3.41,3.6,5.54,7.43,6.34,6.14,1.27,12.22.86,18.38.47,5.35-.34,10.4-1.83,15.49-3.23,1.38-.38,2.81-.99,3.99-1.93.73-.58,1.15-.77,1.31.49.67,5.18,2.48,9.9,5.85,13.97.7.85,4.76,9.1,7.87,15.2-2.02.59-1.38,2.63-1.71,4.14-.05.22-.22.43-.39.59-5,4.77-8.78,10.67-13.51,15.58-9.49,9.85-13.39,21.57-14.74,34.69-.45,4.32.48,9.17-3.38,12.63-8.02,7.17-14.69,15.66-22.36,23.12-9.34,9.1-17.04,19.62-26.25,28.8-1.63,1.62-2.24,3.4-.24,5.24,2.32,2.14,1.01,2.93-1.19,3.89-6.35,2.75-12.74,2.52-19.27.9-7.83-1.94-13.6.05-16.2,6.6-1.86,4.67-4.97,8.34-7.47,12.49-.92,1.53-1.87,3.07-2.51,4.73-1.62,4.19-.36,8.01,3.48,10.15,5.09,2.83,9.69,6.4,15.17,8.67,9.35,3.86,18.41,8.41,27.68,12.48,5.25,2.3,8.32,1.37,11.44-3.22,2.54-3.73,5.45-7.26,6.9-11.65.31-.95.85-1.83,1.82-2.09,7.18-1.92,9.82-8.01,12.33-13.91,1.11-2.6,2.26-2.88,4.11-1.56,1.87,1.33,3.2.88,4.77-.4,4.07-3.31,8.14-6.63,12.36-9.73,1.07-.78,1.86-2.93,3.8-1.74,1.76,1.07,2.67,2.73,2.34,4.86-.94,6.08.1,12.16.08,18.24-.08,19.3,1.32,38.62-.8,57.9-.26,2.33.02,5.52,3.05,5.65,5.2.22,10.23,2.25,15.57,1.15,3.48-.71,4.57-1.83,3.64-5.24-.23-.84-.35-1.6-.11-2.44,3-10.61,2.77-21.48,2.64-32.35-.17-14.44-.69-28.88-.45-43.33.11-6.66-.1-6.66,4.71-8.31,5.46-1.87,6.05-1.46,6.39,4.35.02.36.01.72.02,1.08.41,13.93.83,27.85,1.24,41.78.23,7.7.41,7.85,7.81,6.74,1.06-.16,2.36-.45,3.03.48.91,1.26-.68,1.76-1.22,2.55-4.03,5.9-8.1,11.68-9.22,19.1-.73,4.82-1.53,9.6-2.06,14.45-.31,2.82.12,4.74,2.07,6.26,7.52,5.83,15.71,9.57,25.54,7.16,3.83-.94,7.68-2.16,10.95-4.32,3.44-2.28,7.89-3.64,9.9-7.47,4.13-7.88,8.95-15.45,11.06-24.32,1.14-4.77,1.65-9.36.42-14.11-.82-3.17-1.44-6.33-1.86-9.63-1.24-9.78-.68-19.5-.47-29.25.08-3.82.39-7.63.43-11.45.02-2.23.99-3.02,3.1-2.71,4.64.7,9.27.74,13.91-.05,2.59-.44,3.61.57,3.53,3.36-.19,6.44-.36,12.9.04,19.32.89,14.53-.59,29-.58,43.5,0,3.74.58,7.37,1.79,10.9.26.77.39,1.8,1.38,1.93,1.28.17.91-1.12,1.29-1.75,3.55-5.85,4.67-12.44,5.45-19.03,1.57-13.29,1-26.63.27-39.97-.33-6.06-1.34-12.12-.57-18.21.49-3.87,3.95-2.74,6.24-3.22,2.63-.55,2,1.82,2.06,3.15.36,8.95.5,17.91,1.9,26.77.85,5.35,1.15,10.95,7.46,13.6,2.36.99,1.04,3.08-.56,4.21-3.11,2.17-5.82,4.76-7.11,8.31-2.58,7.12-4.43,14.49-7.31,21.51-.18.44-.25.93-.31,1.4-.71,5.9,3.58,9.37,9.14,7.28,1.78-.67,2.49-.03,3.39,1.4,2.16,3.42,4.44,4.04,8.24,2.57.78-.3,1.56-.61,2.3-.99,1.35-.71,2.39-.74,3.28.79,1.85,3.16,4.39,3.34,7.27,1.42.71-.47,1.28-.87,2.25-.42,5.55,2.57,6.28,2.35,9.9-2.48,2.77-3.69,4.43-8.86,10.63-8.04.1.01.24-.06.33-.13,1.56-1.25,2.97-1.07,4.44.25.47.43,1.32.51,2.01.62,2.89.48,3.96-2.74,5.89-3.19,2.15-.5,5.11,1.52,6.87-.93,2.11-2.94,4.42-3.35,7.49-2.05.75.32,1.63.37,2.46.42,5.23.34,8.63-3.36,7.71-8.49-.46-2.58-1.62-5.1-1.68-7.67-.22-9.97-2.65-19.61-4.5-29.28-.83-4.32.04-7.11,2.16-10.38,3.68-5.67,8.01-11.1,8.5-18.27.09-1.38.88-2.09,2.12-1.59,1.61.65,4.11-1.45,4.9,1.43.5,1.82.74,3.74.87,5.64.99,14.17.5,28.36.84,42.54.16,6.78-.3,13.86,2.01,20.23,1.6,4.44-.29,5.6-3.25,7.33-3.71,2.16-7.36,4.46-10.81,7-3.98,2.94-5.23,7.11-3.39,9.88,3.83,5.75,15.07,8.91,21.26,5.81,4.19-2.1,8.45-3.59,13.14-4.32,6.82-1.05,13.66-2.18,20.24-4.4,5.83-1.97,11.52-4.57,17.98-3.23,1.99.41,4.11.08,6.01-.63,5.46-2.03,10.95-4.01,16.06-6.9,2.57-1.45,3.61-3.45,2.97-6.21-1.02-4.39-1.53-8.92-3.81-12.97-1.16-2.05-1.03-3.81,1.77-4.64,1.2-.35,2.27-1.28,3.3-2.07.7-.53,1.25-1.65.37-2.12-4.18-2.27-2.72-6.18-2.89-9.53-.36-7.04-1.12-14.04-2.5-20.93-1.48-7.36-3.18-14.68-5.44-21.85-.69-2.2.19-3.11,2.43-3.7,5.3-1.39,10.66-1.04,16.02-1.11,2.39-.03,4.38.96,6.44,1.94,1.12.53,1.3.94.75,2.14-1.19,2.61-1.62,5.5-1.79,8.32-.59,9.64-1.31,19.25-2.68,28.83-.79,5.49-.24,11.08,3.04,15.96.36.54.51,1.05.32,1.67-2.11,6.92-2.44,14.27-7.99,20.18-4.93,5.25-2.26,14.15,4.38,17.03,3.22,1.4,6.74,2.44,10.21,2.82,10.89,1.2,21.83,1.96,32.74,2.99,4.7.44,7.88-1.49,9.57-5.78.89-2.26,2.63-2.6,4.31-1.75,1.87.95.03,2.18-.41,3.2-1.4,3.23.5,6.95,4.59,8.83,3.16,1.45,5.58.44,7.23-3.02.67-1.4,1.45-2.76,1.96-4.21.67-1.93,1.63-2.48,3.76-1.97,4.87,1.15,9.81,2.07,14.76,2.85,4.45.71,6.34-.9,6.35-5.4.01-4.51-.43-9,0-13.54.37-3.9-1.68-6.28-5.51-7.13-2.1-.47-4.23-.78-6.34-1.17-1.14-.21-2.29-.58-1.75-2.05,1.37-3.69,2.83-7.33,4.33-10.97.41-1.01,1.36-1.25,2.4-1.14.84.09,1.26.54,1.27,1.4.02,1.22-.96,3.02.74,3.41,1.53.34,2.24-1.53,3.04-2.65,1.39-1.94,2.57-4.02,3.94-5.97.68-.97.86-2.5,2.74-2.8.53,7.42,1.39,14.63,1.45,21.85.06,6.97.33,13.81,2.84,20.39.42,1.1.77,2.51,2.25,2.37,1.2-.11,1.47-1.43,1.87-2.4.22-.55.33-1.15.46-1.73,1.51-6.69,1.84-13.42,1.34-20.27-.72-9.86-.97-19.74-2.44-29.56-.46-3.1-2.29-6.13-.68-9.72,4.47-9.97,8.88-20.01,11.53-30.71,1.01.08,1.37.93,1.76,1.61,6.61,11.47,11.38,23.83,17.18,35.69,3.31,6.77,6.73,13.44,11.25,19.49,2.27,3.04,5.31,3.79,8.89,2.34,2.43-.98,5.05-1.5,7.24-3.04,1.03-.72,1.83-.65,2.8.31,5.76,5.67,4.74,13.79-2.12,17.9-6.5,3.89-12.31,8.43-15.13,15.99-3.52,9.47,2.06,18.17,11.59,17.29,4.78-.44,9.35-1.95,13.27-4.94,1.04-.8,2.07-1.51,3.35-1.99,11.63-4.35,20.9-12.12,29.62-20.67,1.93-1.9,2.23-4.18,1.55-6.62-.54-1.95-1.39-3.79-2.39-5.58-3.13-5.6-4.87-11.7-6.42-17.92,1.72-.32,1.96.83,2.4,1.58,2.43,4.14,5.34,7.93,8.75,11.26,2.14,2.1,3.15,4.43,3,7.31-.16,3.38.42,6.66.97,9.96.57,3.4,1.56,6.83,1.43,10.21-.16,4.13.22,4.81,4.16,5.59,4.31.85,8.25-.79,12.36-1.05,5.12-.32,6.44-1.66,5.8-6.76-1.75-13.98-1.58-28.03-1.15-42.05.32-10.58.52-21.16.62-31.75.04-4.15-1.43-8.65-.26-12.38,1.78-5.71,1.63-11.46,2.09-17.14ZM580.93,123.41c-2.21-.28-4.54-1.38-5.31-4.11,1.7,2.05,3.66,3.35,6.47,3.15,2.67-.19,4.84-1.36,6.98-2.78-2.13,2.48-4.88,4.17-8.15,3.75ZM578.68,116.68c1.4.44,2.47.78,3.54,1.12-1.21.18-2.49.58-3.54-1.12ZM595.26,126.68l2.02-2.71c-.29,1.19-.56,2.39-2.02,2.71ZM600.78,109.84c1.17,1.92,1.39,3.92.41,5.97-.29.62-.03,1.42-1.08,2.28.79-3.36-.06-5.92-2.01-8.18-.16-.18-.42-.51-.18-.71.36-.3.84-.58,1.33-.48.66.12,1.17.52,1.53,1.11ZM524.57,66.93c-2.18-3.51-.2-8.81,3.75-9.87,1.15-.31,2.27-.9,3.53-.7.34.05.68.14.77.49.14.54-.37.38-.62.48-.85.34-1.71.65-2.56,1.01-3.55,1.48-4.57,3.39-4.68,7.74,0,.3.24.65-.19.85ZM532.8,116.33c-.71-1.26-1.65-2.37-2.32-3.67-1.61-3.16-2.45-6.55-3.53-9.89-1.04-3.2-1.3-6.37-1.24-9.63.03-1.84.46-3.57,1.57-5.16,1-1.44,1.4-3.12,1.36-4.93-.07-3.03-.27-6.07.7-9.04.33-1.01.82-1.43,1.84-1.42,2.12.02,4.26-.15,5.8,1.82.54.69,1.44.66,2.08.23.61-.41.39-1.21.19-1.81-.54-1.69-3.85-4.16-5.61-4.22-.25,0-.51.14-.77.21-.6.17-1.22.79-1.81.24-.59-.55-.02-1.24.12-1.83.58-2.53,2.05-4.63,3.47-6.74.06-.09.16-.15.22-.24,1.7-2.28,1.52-2.1,3.65-.03,1.33,1.28,2.72,2.77,4.66,3.26,1.02.26,1.74,1.05,2.78,1.31,3.31.83,6.58,1.08,9.9.04,1.92-.6,3.92-.82,5.94-.76.9.03,1.64-.39,1.91-1.24.23-.72-.27-1.19-.91-1.51-.17-.08-.4-.34-.37-.47.37-1.69-.95-2.51-1.91-3.32-2.41-2.02-3.86-5.06-6.85-6.47,2.14.61,3.76,1.97,5.43,3.26.64.5,1.26,1.06,1.97,1.44.47.25,1.19.72,1.6.22.45-.55,1.27-.97.98-2.05-.4-1.47-.97-2.66-2.41-3.41-1.29-.67-2.46-1.56-3.68-2.37-1.71-1.14-3.66-1.55-5.64-1.88-.31-.05-.81-.15-.9.17-.43,1.55-1.31.78-2.1.47-1.47-.59-2.99-.52-4.48-.26-1.33.23-2.29,1.67-2.09,2.9.18,1.14,1.15,1.8,2.09,1.22,1.17-.73,2.02-.32,3.13.19,2.26,1.03,4.73,1.59,6.73,3.18.29.24.88.46.87.67-.12,2.73,2.62,3.48,3.63,5.4.07.14.14.28.29.59-3.58-.38-6.94-.86-9.65-3.41-1.18-1.11-2.77-1.71-3.86-2.94-.64-.73-1.4-.31-1.87-.07-.46.24-.1.94.15,1.45,1.06,2.08,2.09,4.16,4.48,5.06.31.12.65.33.52.71-.18.54-.61.3-.95.16-2.76-1.1-5.17-2.74-7-5.08-.9-1.16-2.09-2.11-2.36-3.79-.46-2.82,1.49-6.2,4.25-6.97,2.34-.66,4.64-1.35,7.13-1.37,4.78-.03,9.21.77,12.77,4.29.81.8,1.59,1.62,2.46,2.36.8.68,1.04,1.73.96,2.81-.05.78.2,1.36,1,1.66.87.33,1.18-.21,1.48-.83.16-.32.45-.45.78-.51,4.38-.83,8.79-1.25,12.95.77,1.47.71,2.87,1.83,3.94,3.07,1.93,2.26,3.7,4.72,4.6,7.59,1.25,3.98.93,8.01-.32,11.96-.63,1.98-.07,3.61,1.24,5.06,1.45,1.61,2.99,3.13,4.49,4.69,2.76,2.87,3.34,6.17,2.69,9.92-.54,3.13-1.81,5.87-3.91,8.24-.83.94-1.39,1.93-1.01,3.24.1.33.17.67.52.75,1.92.43,2.2,2.12,2.64,3.58.48,1.61-1.57,5.61-3.29,6.57,0-.78.55-1.21.88-1.7.9-1.35.93-2.71.33-4.17-.2-.49-.41-.9-1.02-.87-.59.03-.81.4-.91.96-.11.63-.32,1.24-.57,2.17-.34-.95-.16-1.87-1.15-2.18-.24-.08-.14-.84.03-1.35.55-1.58.32-3.1-.75-4.43-.22-.27-.46-.68-.92-.48-.35.16-.32.53-.33.85-.09,2.77-1.74,4.72-3.53,6.56-.81.83-1.7.78-2.8.24-2.44-1.2-3.08-3.3-3.3-5.71-.1-1.07.75-1.61,1.38-2.26,1.77-1.83,4.04-3.11,5.51-5.27,1.85-2.74,3.14-5.62,2.87-9.04-.08-1.01-.67-1.69-1.06-2.51-.09-.19-.2-.43-.37-.52-.91-.52-.14-2.27-1.33-2.23-.78.03-1.64.74-2.51,1.04-.29.1-.6.16-.92.25.61-2.04.32-2.43-1.74-2.26-3.21.26-6.14-.27-8.41-2.81-.91-1.02-1.45-.39-1.68.49-.16.59-.17,1.43.15,1.89,1.26,1.79,2.15,3.97,4.28,4.97.66.31.87.64.86,1.32-.04,1.46-.08,2.93,0,4.38.08,1.53.86,1.94,2.13,1.1,1.85-1.21,3.76-2.34,4.64-4.6.35-.9,1.39-1.8,2.22-1.52.75.25.48,1.6.19,2.36-1.31,3.48-3.03,6.76-6.27,8.84-1.51.97-3.3,1.33-5.12.62-.6-.23-1.2-.52-1.88-.49-.59.03-1.12.08-1.03.88.12,1.14-.35,2.19-.87,3.09-1.48,2.53-1.63,5.25-1.49,8.03.12,2.59-.34,5.23.62,7.75,1.25,3.26,3.07,6.16,5.56,8.62.76.75,1.71,1.21,2.7,1.44,1.3.31,1.48,1.1,1.18,2.16-.06.22-.15.44-.22.65-2.87,2.68-6.61,4.6-10.08,5.96-3.23,1.27-6.45,1.83-9.92,1.23-3.63-.63-6.65-2.7-10.09-3.87-.93-.32-1.7-.8-2.34-1.39.05-2.68-.94-5.39-1.27-8.07-.13-1.04-.18-1.3.98-1.25,3.68.14,7.28-.59,10.49-2.32,1.68-.91,3.59-2,4.27-4.12.13-.39.33-.46.66-.56,1.64-.5,2.43-1.74,2.7-3.34.09-.54.18-1.04.55-1.49.35-.42.35-.93-.16-1.27-.47-.31-.88-.25-1.29.19-1.22,1.31-2.51,2.55-3.81,3.78-3.58,3.39-7.84,5.24-12.71,5.46-6.7.3-10.89-2.42-14.4-8.68ZM382.68,67.69c-.78.82-1.59,1.59-2.45,2.32-.66.55-1.26.79-2.26.56,1.44-1.25,2.78-2.38,4.09-3.55.22-.2.41-.29.64-.12.32.25.2.56-.01.78ZM375.62,66.33c-.1-.12-.2-.24-.3-.35,1.37-3.81,5.55-3.21,8.06-5.24.08.13.17.26.25.39l-8.01,5.21ZM385.13,57.43c.08-.66-.31-1.41.35-1.89.11-.08.62.13.63.23.07.73-.29,1.27-.97,1.66ZM367.39,40.38c-3.19.77-6.17.22-9.14-.84-.52-.18-1.06-.02-1.29.48-.17.36-.57.92-.07,1.23.69.43,1.16,1.08,1.78,1.58,1.89,1.5,4.26,1.33,6.36,2.05,1.03.35,1.42.7,1.08,1.78-.14.44-.69.98,0,1.47.79.57.43.8-.27,1.02-1.7.53-3.45.44-5.19.41-1.2-.02-2.49-.15-3.42-.77-3.33-2.25-6.23-4.86-6.41-9.36-.09-2.23-.26-4.4,1.59-6.1.14-.12.28-.32.29-.48.11-1.93,1.3-3.45,1.99-5.14.82-2.02,2.5-3.14,4.63-3.55.42-.08.76-.16.92-.63.22-.69.41-1.21,1.45-.91.82.23,1.7-.58,2.69-.28,1.18.36,2.34.41,3.13-.87.3-.49.81-.22,1.25-.22,1.07-.01,2.41.46,3.16-.25,1.67-1.59,3.57-3.08,4.12-5.53.29-.72.41-1.59.89-2.14,2.7-3.11,5.9-5.05,10.23-5.54,2.58-.29,4.92.32,7.32.57,3.4.36,6.62,1.85,10.14,1.81,2.11-.02,4.3-.24,6.21-.71,1.52-.37,3.58-.68,4.8-2.18.69-.85,1.55-.94,2.56-.88.63.04,1.45-.03,1.88-.4,1.31-1.17,2.7-.98,4.22-.69,3.5.66,6.85,1.45,9.83,3.7,2.46,1.85,2.21,4.62,3.23,6.95-1.09,1.03-.47,2.47-.86,3.7-.9,2.87-2.79,4.88-5.07,6.63-.27.2-.63.3-.96.4-1.07.34-2.08.75-2.79,1.7-.26.35-.6.72-1.15.41-1.03-.56-1.35-2.21-.56-3.13,1-1.18,1.69-2.54,2.36-3.9.43-.86-.03-1.74-.67-2.27-.67-.54-1.23.04-1.78.56-.57.54-1.11,1.13-1.68,1.64-.73.65-.91,1.64-1.72,2.17-1.99,1.3-4.13,2.21-6.43,2.81-1.2.32-2.36.84-3.52,1.31-.44.18-.75.57-.73,1.07.02.55.58.57.91.58,1.85.1,3.66.96,5.57.25,1.08-.4,2.28-.29,3.43-.36.53-.03.92.15,1.15.56.59,1.03,1.46,1.91,1.34,3.27-.22,2.46,1.6,4.43,1.67,6.92.04,1.25,1.16,2.59,1.62,3.96.12.36.64.71.27,1.05-.23.21-.82.23-1.14.09-2.07-.94-4.31-.44-6.46-.8-3.22-.54-6.47.06-9.71.21-.8.03-1.55-.17-2.37-.06-1.94.26-3.87.68-5.79.93-2.22.28-4.41.69-6.6,1.12-1.51.29-2.96.89-4.37,1.42-1.08.4-2,1.24-3.22,1.63-2.42.77-5.2.84-7.11,2.82-1.54,1.6-3.51,2.49-5.34,3.61-.53.32-1.26.78-1.23,1.19.1,1.5-.97.53-1.31.58-.82.12-.05-.54-.19-.75-.51-.74.51-1.32.2-1.96-.83-1.74-.87-3.71-1.63-5.47-.15-.35-.73-.45-.48-1.09.39-1-.2-2.04-.11-3.12.07-.83.2-1.09.86-1.3,1.27-.42,2.49-.83,2.72-2.5.22-1.55-.63-2.52-1.53-3.49-.8-.85-1.49-.05-2.26.24-1.18.45-1.94,1.51-3.27,1.83ZM115.34,166.64c.44.88.47,1.9,1.23,2.91-2.07-.55-1.43-1.8-1.23-2.91ZM131.29,104.65c.6-.83,1.59-1.22,2.6-.42,1.32,1.04,1.48,3.64.17,4.67-1.44,1.13-2.59,2.54-3.99,3.71-.47.39-.84,1.23-1.62.8-.71-.39-.41-1.17-.35-2.31.97-1.87,1.68-4.37,3.19-6.46ZM117.51,186.77c-.12,1.52-.56,2.97-2.08,3.62-2.71,1.15-5.35,2.39-8.29,3.11-7.69,1.9-15.23,4.37-23.31,3.79-.66-.05-1.23.5-1.93.31-2.17-.59-4.35-1.13-6.5-1.76-.67-.2-1.37-.5-1.71-1.21-1.65-3.55-2.94-7.12-1.92-11.17,1.05-4.21,1.72-8.51,3.26-12.61,1.46-3.89,3.49-7.47,5.77-10.88,2.77-4.15,5.91-8.06,8.92-12.05,2.44-3.23,4.02-6.94,6.08-10.38,1.79-2.97,2.61-6.19,3.06-9.61.38-2.92.81-5.79.26-8.72-.09-.47.08-.98.09-1.48.14-4.28.35-8.57.4-12.85.03-3.29,1.25-6.17,3.65-8.16,2.72-2.25,6.25-2.79,9.78-2.97,1.59-.08,2.86.48,4.28,1.45-.45.19-.67.36-.84.33-2.86-.51-5.47.41-7.99,1.53-5.31,2.37-5.56,7.14-3.8,11.51.16.4.38.71.83.64.46-.07.72-.49.54-.86-.57-1.15.1-2.16.28-3.2.44-2.41,1.61-4.3,4.06-5.15.93-.32,1.89-.6,2.84-.87,5.16-1.48,9.84-.48,14.12,2.7.6.45,1.24.77.55,1.67-.73.96-1.14-.01-1.63-.22-2.11-.88-3.91-2.5-6.44-2.34-2.92.18-5.76.38-8.35,2.03-1.94,1.24-3.62,5.06-2.86,7.19.29.8.98,1.42,1.67,1.4.77-.03.89-.92.99-1.68.28-2.31,1.52-3.99,3.69-4.85,3.47-1.37,6.81-.66,10.05.87.3.14.65.27.67.65.03.47-.44.61-.71.82-.45.35-.99.14-1.43-.05-2.22-.98-4.44-.33-6.65-.05-.83.11-1.52.57-2.06,1.27-3.39,4.35-2.54,10.03.34,13.94,1.27,1.73,3.34,1.77,4.85.26.47-.47.95-.91,1.45-1.34,2.31-1.98,5.06-3.26,7.7-4.71.41-.23,1.18-.63,1.65-.02.41.52-.11,1.02-.31,1.52-.21.52-.66.73-1.08.98-4.4,2.6-7.97,6.03-10.61,10.44-2.02,3.37-4.8,5.77-8.66,6.96-2.38.74-3.94,2.48-4.52,5.03-.38,1.65-.87,3.27-1.39,4.88-1.72,5.32-3.54,10.61-4.96,16.03-.56,2.13-.63,4.34-1.22,6.43,1.05-1.15,2.58-1.92,4.6-1.92,2.13,0,3.72.84,4.76,2.1.6-.27,1.19-.54,1.78-.82.44.42,0,1.11.66,1.44,2.09,1.05,3.34,3.01,4.81,4.71.91,1.05,1.93,2.2,2.31,3.48.25.85.41,1.71.52,2.58,0,.05-.01.1-.02.16.02.12.05.23.07.34.18,1.9.1,3.83-.06,5.75ZM125.08,114.4c-2.64.83-4.49,2.7-6.17,4.79-.72.9-1.34,1.08-1.82-.26-.38-1.04-.71-2.08-.84-3.18-.53-4.44.51-5.77,4.63-5.49.86.43,2.16.34,3.38.66,1.32.34.92,1.61,1.32,2.44.17.35.1.85-.49,1.04ZM40.37,372.2c.92-2.69.94-5.44.46-8.1-.49-2.78,1.28-3.04,3.01-3.26,2.2-.27,1.55,1.65,1.7,2.77.43,3.18.71,6.37,1.06,9.63-.15,1.41.5,3.27-1.18,4.12-1.18.6-2.59.1-3.71-.69-1.58-1.12-1.91-2.82-1.35-4.47ZM16.5,363.43c2.12-2.84,5.3-2.13,9.36-2.13,1.47.18,4.06.54,6.65.79,2.4.23,3.32,1.51,2.99,3.83-.15,1.06-.21,2.13-.42,3.17-.89,4.31-1.37,4.55-5.41,3.07-4.01-1.47-7.98-3.08-12.07-4.28-3.3-.97-2.43-2.69-1.11-4.45ZM57.73,395.55c-1.82,2.78-3.74,5.5-5.82,8.53-1.28-1.64-.28-2.64.06-3.69.33-1.01,1.01-2.18-.14-2.91-1.08-.68-2.03.35-2.83.98-.74.58-1.27,1.42-1.93,2.1-.52.53-1.18.97-1.89.48-.74-.51-.47-1.23-.16-1.92.54-1.19,1.2-2.35,1.51-3.59.28-1.1.56-2.58-.85-3.14-1.14-.45-2.45-.02-3.28.89-.95,1.05-1.66,2.32-2.46,3.51-.51.75-1.11,1.35-2.06.82-1.02-.57-.65-1.42-.18-2.15.93-1.44,1.39-3.03,1.64-4.69.4-2.65-.69-3.46-3.25-2.56-1.92.67-2.51,2.42-3.47,3.91-.5.78-.97,1.89-2.12,1.57-1.36-.39-.68-1.53-.57-2.42.25-2.04,1.69-4.71-.78-5.79-2.85-1.24-4.03,1.66-5.32,3.6-.74,1.11-1.67,1.95-2.92,1.12-1.21-.81-.34-1.93.09-2.87.6-1.29,1.31-2.54,1.87-3.85.38-.89.65-1.93-.26-2.64-1.01-.79-2.13-.41-2.93.36-1.54,1.49-2.94,3.12-4.41,4.68-.41.44-.86.83-1.81.49-.04-2.24,2.04-3.9,2.04-6.19,0-1.08.36-2.23-.74-2.9-1.2-.74-2.35-.24-3.22.68-.97,1.04-1.83,2.19-2.69,3.32-.6.79-1.27,1.64-2.33,1.08-1.18-.62-.64-1.63-.18-2.48,1.23-2.31,2.51-4.6,3.75-6.91.58-1.08,1.29-1.21,2.32-.55,7.81,5.01,16.84,7.11,25.34,10.46,6.77,2.66,13.04,6.31,19.58,9.42,1.88.89,1.08,2.15.36,3.24ZM73.35,379.16c-.84,1.15-1.61,2.36-2.38,3.56-2.48,3.87-4.56,4.53-8.55,2.29-1.87-1.05-3.95-.79-5.84-1.53-1.51-.59-2.97-1.14-2.5-3.23,1.07-6.98-1.2-13.41-3.25-19.88-.34-1.09-1.67-2.32.11-3.43,1.39-.87,2.37-.2,3.54.57,4.92,3.22,8.66,7.83,13.41,11.24,1.35.97,2.63,2.06,4.01,2.98,4.66,3.08,4.66,3.06,1.45,7.42ZM653.85,248.2c.08.22.26.5.19.66-.18.4-.44,1.04-.75,1.08-3.54.5-2.12,5.77-6.91,6.02-15.37.79-30.77-.44-46.11,1.1-2.22.22-4.51-.32-6.77-.38-11.67-.29-23.34.41-34.99.21-20.03-.34-40.05.48-60.09.17-9.64-.15-19.34.09-29.01.35-10.97.3-21.95.24-32.93.29-1.17,0-2.34-.33-3.71-.55,16.25-2.4,28.92-10.24,38.75-22.92,1.24-1.6,2-3.6,4.55-1.11,1.52,1.49,3.78.8,5.62-.46,1.88-1.28,3-3.29,4.58-4.79,1.22.54.7,1.54.93,2.27,1.17,3.59,4.26,4.92,7.52,3.16.84-.45,1.9-.82,2.38-1.55,2.9-4.43,6.46-2.59,10.01-1.22.85.33,1.5.85,1.56,1.76.06.97-.82,1.03-1.49,1.18-6.09,1.43-11.82,3.68-16.91,7.4-1.48,1.08-2.16-.17-2.97-.94-1.62-1.54-3.41-2.28-5.51-1.13-3.34,1.83-6.73,3.6-9.91,5.67-2.43,1.58-2.21,3.08.3,4.54.71.41,1.47.78,2.11,1.28,3.16,2.45,4.9,2.31,8.28-.08,2.84-2.01,4.72-4.31,9.77-3.08,9.9,2.43,20.07,3.75,29.72,7.36,3.3,1.23,6.32.21,9.06-1.87,1.52-1.16,3.12-2.19,4.69-3.29,2.07-1.45,3.87-3.2,4.32,1.43.31,3.21,3.05,4.4,6.27,3.35,3.71-1.21,7.07-3.27,10.97-4.13,2.22-.49,4.08-2.73,3.96-5.04-.14-2.93,1.18-3.04,3.37-3.09,9.81-.23,19.48-1.53,28.85-4.53,3.78-1.21,7.3-2.93,9.69-6.4,1.32-1.93,2.38-3.83,2.16-6.27-.13-1.51,0-2.99,2.08-3,2.73-.01,5.46-.02,8.19.06,1.36.04,1.7.75.81,1.85-.68.83-1.43,1.61-2.12,2.43-1.6,1.9-2.5,3.96-.57,6.09,1.96,2.17,4.38,1.86,6.47.32,2.46-1.81,4.67-3.96,6.97-5.97.53-.46,1.03-.96,1.58-1.48,2.04,4.89.37,8.06-4.45,8.58-3.81.42-7.09,2.08-10.07,4.33-1.69,1.27-2.87,2.95-2.28,5.25.6,2.36,2.25,3.63,4.6,3.9,10.11,1.13,20.2,2.31,29.98-1.96,2.88-1.25,6.19.37,7.25,3.17ZM387.21,225.69c.14,3.3-.55,3.8-3.8,2.81-6.17-1.89-6.38-2.52-3.38-8.14,2.54-4.76,3.34-9.97,2.6-15.24-.54-3.86.72-6.15,3.96-8.2,7.87-4.97,14.68-11.36,22-17.08,6.1-4.76,12.35-9.38,17.69-15.05,1.88-2,3.09-1,4.03.94,1.88,3.85,3.68,7.69,6.27,11.19,3.82,5.17,7.89,9.83,14.36,11.64,1.91.53,1.18,1.47.28,2.24-3.56,3.01-6.55,6.56-9.69,9.98-2.36,2.57-6.28,1.54-9.49,2.09-1.63.28-3.23.41-4.82,1.01-4.92,1.84-9.94.29-14.82-.19-10.12-.99-18.47,4.17-21.1,14.09-.48,1.83-.97,3.31-2.78,4.24-1.46.75-1.77,2.15-1.32,3.67ZM232.25,244.8c.22.91-.37,1.26-1.13,1.46-.68.18-1.56.19-1.98.62-1.27,1.31-2.22,3.51-4.01.47-1.87-3.18-1.2-4.83,1.56-6.78,3.12-2.21,5.91-2.42,9.63-.26-2.72.84-4.79,1.55-4.06,4.49ZM231.74,233.37c-2.67-.07-4.95.94-7.5,2.39,2.12-4.71,5.31-6.91,9.39-6.22,3.59.61,7.09.62,10.63-.08,1.68-.33,3.37-.54,4.39,1.33,1.29,2.39-1.04,3.65-1.81,5.35-.77,1.71-2.23.76-3.42.32-3.8-1.39-7.51-2.98-11.68-3.09ZM247.28,216.52c9.02-1.32,17.48-.79,25.87-1.4,6.63-.48,13.34-.2,19.88-1.74,1.95-.46,2.61-.04,2.19,2.11-.49,2.5-1.62,4.42-3.65,5.92-5.06,3.72-9.87,7.58-10.42,14.61-.19,2.41-2.45,2.02-3.99,1.78-4.14-.64-8.32-1.76-11.81-3.95-6.99-4.38-12.56-10.42-18.07-17.32ZM252.46,205.53c1.95-3.82,8.96-6.57,12.74-4.68,2.23,1.12,1.83,4.3,4.22,5.54-5.34.52-10.39.93-15.41,1.65-2.1.3-2.52-.6-1.55-2.51ZM278.7,194.46c-.83.44-1.74.85-2.37,1.5-2.03,2.12-3.5,1.62-5.55-.27-2.25-2.07-1.29-3.07.69-3.76,1.99-.69,4.17-.88,6-1.24,1.76.16,3.48.52,3.78,1.97.3,1.48-1.59,1.29-2.55,1.8ZM282.7,200.4c1.42-.42,2.73-.21,3.2,1.32.56,1.81,1.51,3.39,2.79,4.98-4.04.78-7.62-.3-11.25-.38-2.02-.04-1.85-1.16-.71-2.22,1.74-1.61,3.64-3.02,5.97-3.72ZM382.94,161.17c-.26,5.34-1.26,6.1-6.42,6.92-5.93.94-11.89.55-17.84.84-5.18.16-10.38-.15-15.54.57-.24-1.12-.49-2.25-.8-3.36.24.07.49.13.73.18,5.97,1.12,10.94-1.23,15.91-4.4-1.27-1.35-2.51-.93-3.61-.83-4.02.34-8.03.77-12.04,1.15-.79.08-1.67.06-2.22.52-.15-.32-.31-.64-.49-.95-.55-.99-1.27-1.84-2.4-2.23-.57-.2-1.07-.5-1.54-.84-.01-.21-.03-.43-.04-.64-.05-1.26,1.29-1.16,2.23-1.18.72-.01,1.44-.04,2.16-.07.15.09.32.18.51.24.58.2,1.24.39,1.73-.09.07-.07.13-.15.17-.23,11.95-.47,23.84-1.81,35.74-2.94,2.12-.2,3.47.1,3.33,2.72-.09,1.52.51,3.07.44,4.59ZM372.72,215.14c-.3-1.25-1.74-1.14-2.74-1.21-3.79-.3-7.6-.45-11.39-.69-.94-.06-2.12-.06-2.37-1.17-.28-1.27,1.07-1.29,1.81-1.79,4.42-2.95,9.99-2.97,14.49-5.83,1.88-1.2,3.96.47,4.11,2.68.31,4.41-1.59,8.37-2.42,12.54-.23,1.16-.97,1.6-2.03,1.56-3.75-.14-7.5-.32-11.25-.48-.04-.33-.09-.65-.13-.98,3.63.58,6.89-.23,9.85-2.06.97-.6,2.4-1.12,2.05-2.56ZM375.54,201.65c-.64.76-1.24,1.17-2.03.28-2.15-2.45-4.83-1.93-7.62-1.61-6.27.72-12.55,1.61-18.89,1.18-1.38-.09-2.74-.4-4.68-.7,3.4-2.88,7.03-3.63,10.53-4.49,6.72-1.65,13.49-3.07,20.24-4.6.83-.19,1.59-.44,2.3.33,1.28,1.38,1.37,8.14.15,9.61ZM338.22,180.62c1.45,1.95,3.16,3.8,5.13,5.52.56,1.35,1.28,2.63,2.04,3.89.37.61.91,1.4,1.83.87.55-.32.82-.79.83-1.36.19.22.3.49.25.86-.21,1.55-1.89,1.03-2.95,1.41-3.81,1.36-7.51,2.83-10.38,5.97-1.89,2.08-2.98,2.43-3.85.93.08.02.16.05.26.06,1.14.17,1.1-.79,1.36-1.44.15-.37.24-.78.24-1.17-.02-5.05,1.61-9.59,4.24-13.83.35-.56.65-1.14.97-1.72ZM337.36,163.4c.26.33.48.71.62,1.17.28.87.52,1.76.72,2.65-.58-1.23-1.02-2.51-1.34-3.81ZM336.71,152.72c.21-.12.43-.23.66-.33.39-.18.69-.58,1.07-.92.26.28.4.6.51.96-.75.12-1.5.22-2.25.3ZM338.29,145.33c-2.09.86-4.21.27-6.33-.04,2.29-1.1,4.81-1.56,6.77-3.47.63,1.97.55,3.1-.44,3.51ZM335.85,149.13c-.56.99-1.34,1.27-2.37,1.43-1.52.23-3.3-.34-4.52.86-2.31,2.26-5.12,2.3-7.96,1.99-5.21-.57-9.92-2.6-14.32-5.37-.45-.28-1.01-.49-1.02-1.16.41-.25.73,0,1.02.16,1.56.83,3.1,1.61,4.93,1.75,1.23.09,2.45.49,3.63.89.88.29,1.65,1.44,2.6.12.04-.05.41.03.51.15.75.89,1.84,1.05,2.86,1.28,3.14.69,6.25,1.11,8.4-2.15.35-.53.88-.74,1.46-.59,1.55.4,3.14.5,4.79.66ZM332.5,166.87c-1.23-1.96-2.52-3.87-4.43-5.3,1.33-.95,2.56-1.98,3.99-1.47-.05,2.34.1,4.6.44,6.77ZM325.63,148.15c-2.97.22-5.71-.56-8.25-1.97-2.04-1.13-4.05-2.06-6.46-1.58-.24.05-.51.04-.76.02-.99-.09-2.11.03-2.26-1.42-.03-.28-.38-.46-.53-.17-.56,1.04-1.34.46-1.77.1-1.89-1.63-4.76-2.62-4.19-6,.06-.36-.21-.77-.31-1.16-.41-1.72-.76-3.46-1.66-5.05.66.24,1.05.6,1.28,1.12,1.68,3.82,4.92,6.15,8.11,8.55,3.16,2.38,6.99,3.06,10.58,4.3,2.76.95,5.77.87,8.72,1.78-.69,1.06-1.49,1.39-2.53,1.47ZM302.33,146.74c1.49,2,3.21,4.03,5.58,5.28,4.09,2.16,8.29,4,12.96,4.28,3.4.2,7.03,1.26,9.95-1.77-.24,1.51-1.35,2.33-2.53,2.63-2.9.75-5.74,1.64-8.91,1.01-4.14-.82-8.22-1.68-11.83-3.97-2.7-1.71-4.96-4-7.57-5.83-3.26-2.29-5.11-5.57-6.69-9.09.58.51,1.47.73,1.83,1.17,2.05,2.5,5.21,3.63,7.21,6.3ZM293.09,133.36c.9,1.12,2.05,1.6,3.06,2.1,1.2.59,2.2,1.04,2.38,2.54-2.9-1.06-4.79-2.63-5.45-4.63ZM292.82,125.34c1.59,1.97,3.08,4.01,4.47,6.29-3.5-.61-6.02-4.29-4.47-6.29ZM294.3,157.67c.5-2.06,1.08-4.09,1.63-6.13.2-.73.26-1.57,1.38-.61,2.16,1.86,4.58,3.44,6.6,5.44,1.54,1.53,1.9,3.85,2.65,5.87.28.76.25,1.65.18,2.57-.99-1.76-2.38-3.18-3.51-4.79-1.46-2.07-3.33-2.74-5.21-1.86-1.16.54-1.71,1.59-2.06,2.68-.76,2.35-1.39,4.74-2.06,7.12-.14.49-.34,1.23.19,1.34.51.11,1.22.45,1.79-.22.63-.74,1.17-1.52,1.48-2.44.28-.81.52-1.64.77-2.47.66-2.27,1-2.42,2.67-.64,1.69,1.81,3.17,3.81,4.76,5.72.58.7,1.13,1.45,2.17,1.52,2.25.16,3.19-1.21,2.75-3.44-.5-2.49-1.34-4.97-.88-7.68,1.92.65,3.74,1.45,5.64,1.86,2.46.53,4.97.81,7.48,1.06,1.62.17,2.84.77,3.8,2.11,1.5,2.08,2.99,4.16,4.43,6.28,1.39,2.04,2.89,4.11,4.82,5.75.32.61.67,1.22,1.04,1.81-2.6,2.3-4.13,5.28-5.37,8.45-1.11,2.85-1.48,5.81-1.42,8.82-1.01-2.4-2.63-3.92-4.65-4.79.46-1.89,1.21-3.7,2.35-5.42.9-1.36,1.31-3.05,1.88-4.61.25-.7.65-1.24,1.19-1.73.22-.2.49-.43.32-.77-.16-.31-.52-.29-.81-.3-.81-.02-1.58.21-1.9,1-.84,2.07-2.52,3.66-3.5,5.8-.14-1.79-.34-3.57-.41-5.36-.09-2.38-.43-4.74-.74-7.1-.05-.4,0-.89-.36-1.12-.46-.31-.63-1.18-1.42-.89-.68.25-.54.9-.56,1.44-.18,4.6.01,9.19.07,13.79.02,1.45.02,2.91-.04,4.38-.13,0-.26-.02-.4-.03-2.82-.14-3.5-1.27-3.34-3.13-1.82.7-3.69.94-5.56.55,0,.32-.02.64,0,.96.13,2.41-2.37,2.89-4.07,3.35-2.07.57-1.61-1.49-1.9-2.62-.99-3.85-4-5.55-7.82-4.36-.77.24-1.61.86-2.32.15-.77-.78-.38-1.78-.1-2.7.02-.07.05-.15.08-.22-.39.24-.74.5-1.02.82-.36.41-.73.75-1.11,1.03-.32-2.25-.52-4.53-1.58-6.59-.76-1.47-1.7-2.86-2.69-4.2-.49-.66-.65-1.11.08-1.61.94-.65.96-1.73,1.28-2.67,1.26-3.68,2.45-7.39,3.37-11.17ZM292.28,206.07c2.08-3.03,1.18-5.83.4-8.81-.27-1.02-.21-1.81.05-2.44.14.03.28.04.42.03.59-.04,1.01-.53.99-1.17,0-.14,0-.28,0-.43.89-.57,1.99-.95,2.9-1.4,2.6-1.29,3.11,1.23,3.92,2.84.9,1.8-.52,2.94-1.45,4.06-1.91,2.33-3.82,4.56-3.38,7.89.16,1.2-.59,1.71-1.97,1.53-.59-.65-3.18-.22-1.88-2.11ZM291.75,231.39c8.13-4.94,10.47-12.8,10.95-21.55.35-6.36,5.67-12.94,11.88-14.29,2.17-.47,4.27-.06,6.01.98-.03.46-.03.93-.03,1.39,0,1,.64,1.63,1.56,1.79.54.1.98-.08,1.32-.4.98,1.54,1.55,3.45,1.48,5.59-.43,3.49-1.41,7.44-.41,11.55,1.2,4.92,3.17,8.97,8.79,10,3.29.6,4.47,2.64,4.58,6.08.3,9.28-5.79,14.32-14.89,11.95-.69-.18-1.45-.24-2.06-.58-6.47-3.58-12.6-2.71-19.05.54-5.07,2.55-11.76-.92-12.86-5.9-.66-3,.08-5.54,2.73-7.15ZM333.24,211.08c-1.77.15-2.36-.78-2.02-2.43.28-1.37.19-2.86,1.35-4.25,3.72,3.93,8.68,3.76,13.5,4.18.94.08,2.9-.68,2.49,1.34-.24,1.18-1.11,2.89-2.99,2.38-4.05-1.1-8.14-1.58-12.33-1.22ZM344.43,223.37c1.81-1.16,3.66-2.25,4.84-4.16.71-1.16,1.79-.92,2.87-.58,1.09.34,1.58,1.06,1.43,2.15-.28,1.97.5,3.69,1.51,5.57-3.28.8-6.37.72-9.43.86-1.05.05-1.84-.33-2.21-1.42-.38-1.12.14-1.88.99-2.43ZM352.51,232.53c.96-.76,2.12-1.06,3.34-1.16,1.85-.15,3.51-.55,4.34-2.55.5-1.2,1.71-1.02,2.79-1.1,5.38-.38,9.85,2.24,15.36,4.59-6.81,2.78-13.16,3.39-19.59,3.54-1.9.04-3.8.11-5.69.04-.92-.03-2.11.01-2.42-1.12-.39-1.44,1.09-1.63,1.87-2.24ZM433.16,157.18c.31-1.06,1.13-1.76,2.04-2.4.31-.03.66-.15,1.06-.4-.04-.08-.09-.15-.14-.22.4-.27.8-.53,1.16-.83.32-.26.63-.53.94-.79.56,1.37.98,2.78,1.46,4.18.84,2.48,1.75,4.97,3.03,7.3.15.28.64.6.29,1.01-.31.36-.74.4-1.24.28-1.62-.41-3.05-1.1-4.39-1.95-.13-.2-.26-.4-.39-.6-.26-.4-.51-.81-.74-1.22-.91-1.57-3.77-2-3.08-4.35ZM429.45,144.3c-.26-.15-.77-.39-.38-.92.32-.42.49-.84,1.24-.86.76-.01.46.44.57.71.17.37.38.65.71.93,1.13.94,2.2,1.92,3.18,3-.46.52-.91,1.03-1.37,1.54-1.06-1.68-2.15-3.33-3.95-4.4ZM411.24,232.84c3-2.24,4.97-1.39,6.22,2.15.2.56.33,1.15.5,1.72,1.51,4.84,3.07,5.26,6.92,2.04,2.56-2.14,5.23-4.16,7.89-6.17,2.07-1.57,3.37-1.12,4.15,1.48,1.9,6.32,2.62,6.44,7.56,1.85,1.89-1.75,3.59-3.94,6.67-3.51,2.68.37,3.31,3.72,6.04,4.12.45.07-.1,1.04-.51,1.44-.86.83-1.64.53-2.54-.09-4.59-3.17-4.6-3.15-8.77.45-.9.78-1.77,1.62-2.77,2.27-4.01,2.59-5.7,2.08-6.91-2.47-.87-3.27-2.15-3.56-4.51-1.42-1.77,1.6-3.58,3.16-5.41,4.69-4.04,3.37-7.87,2.3-9.65-2.66q-2.1-5.85-6.9-1.63c-2,1.74-3.66,4.07-7.03,3.71,3-2.67,5.84-5.56,9.05-7.96ZM645.44,238.85c-3.81,3.75-17.86,4.7-25.55,2.03,8.5-5.58,17.28-.52,25.55-2.03ZM617.09,179.75c1.62-1.29,17.34-2.47,21.03-1.41-6.73,3.05-17.01,3.66-21.03,1.41ZM606.22,157.43c.31-4.01,3.78-1.95,5.66-2.43,11.46-.04,22.62-.14,33.8-1.24,4.07-.4,8.44,0,12.67-.16,1.55-.06,1.44.76,1.01,1.85-1.88,4.77-3.7,9.56-5.6,14.32-.48,1.21-1.05,2.62-2.85,1.46-4.54-2.93-9.69-2.32-14.59-2.03-8.68.52-17.27,2.18-26.03,1.97-1.9-.05-2.72-.51-3.19-2.37-.96-3.76-1.17-7.6-.88-11.36ZM585.02,209.86c6.51-9.08,3.09-19.08,2.63-28.78-.11-2.35-.7-4.74-1.41-7-.8-2.56.04-3.33,2.48-2.96,3.08.47,6.11.8,9.2-.23,1.92-.64,2.65.7,3.17,2.42,3.43,11.38,10.67,19.16,21.79,23.18-.08.25-.12.52-.14.81-.05,1.02.36,1.74,1.37,1.67,1.41-.02,1.8-.78,1.98-1.62,4.43.77,4.9,1.51,4.4,6.19-.27,2.6-.65,5.21-.7,7.82-.04,2.13-.96,3.07-2.97,3.17-3.69.18-7.39.35-11.09.52-9.97.59-19.73-.78-29.43-2.9-1.49-.33-2.38-.79-1.3-2.29ZM551.22,177.54c.67-.5,1.5-.87,1.98-1.51.95-1.27,2.65-2.57,1.41-4.35-1.25-1.8-3.03-.79-4.53-.12-.86.38-1.57,1.09-2.39,1.57-.79.46-1.29,1.58-2.37,1.34-.7-.15-.58-.95-.62-1.52-.08-1.35.46-2.36,1.79-2.74,3.6-1.03,7.21-1.47,10.92-.38,6.73,1.99,13.46,3.96,20.23,5.77,1.6.43,2.62.98,2.74,2.71.04.59.2,1.18.27,1.77.88,7.14.87,7.19-5.28,10.58-4.6,2.53-9.19,5.08-13.84,7.51-1.28.67-3.09,2.07-4.13.36-1.05-1.72,1.04-2.7,2.21-3.53,4.47-3.16,9.26-5.9,12.82-10.2.53-.64,1.15-1.22,1.63-1.9.46-.64,1.34-1.29.74-2.19-.6-.9-1.49-.38-2.27-.14-3.47,1.04-6.56,2.91-9.51,4.88-4.96,3.31-9.94,6.56-15.14,9.45-.55.31-1.15.99-2.03.18,2.43-3.2,5.92-5.19,9-7.55,3.28-2.52,5.4-6.04,8.51-8.64.47-.39.83-1.12.45-1.6-.74-.94-1.75-.48-2.61-.08-5.95,2.78-11.7,5.92-16.93,9.93-1.22.93-2.34,1.86-4.32,2.49,3.27-5.04,6.95-8.86,11.24-12.1ZM539,157.96c.01,7.8,1.15,15.63-.78,23.31-.39-7.81-2.11-15.66.78-23.31ZM533.47,213.47c.37-.86.71-1.98,1.42-2.4,2.55-1.52,4.93-3.04,4.83-6.38.98,4.08,3.86,5.77,7.74,6.94,1.94.59,1.1,3.31.97,5.16-1.03.22-1.26-.57-1.61-1.15-1.56-2.56-3.37-3.26-5.67-.83-2.52,2.67-5.01-1.14-7.53-.05-.06-.44-.29-.95-.15-1.3ZM514.56,223.84c1.25-1.06,2.8-1.83,4.31-2.5,5.33-2.34,5.6-2.15,6.2,3.63.56,5.43,6.61,9.35,12.87,8.48,3.38-.47,6.37-2.33,10.04-2.11,2.25.13,3.19-2.79,3.63-4.81.75-3.48,1.82-6.95,1.54-9.73-.06-5.72-.35-10.41-6.54-11.51-.79-.14-1.2-.73-1.04-1.59.33-1.77,1.98-1.9,3.2-2.52.85-.43,1.42-.23,1.97.76,2.47,4.41,7.76,5.75,12.58,3.53,5.67-2.61,10.61-6.39,15.81-9.74.57-.37.97-1.32,1.73-1.03,1.02.39.62,1.44.55,2.22-.62,6.76-3.52,12.67-6.76,18.5-1.2,2.16-2.55,4.22-3.76,6.35-1.69,2.98,1.94,7.3,5.59,6.53,4.38-.92,8.9-1.72,12.05-5.61,1.78-2.2,3.98-.61,5.9.17,1.52.61,3.81.37,3.95,2.84.15,2.54-1.86,3.39-3.69,4.22-4.82,2.19-10.01,3.27-15.17,4.08-14.66,2.31-29.47,2.24-44.2,1.35-6.95-.42-13.71-3.09-20.12-6.08-2.62-1.22-2.85-3.53-.65-5.4ZM513.17,236.18c.81-.61,1.62-.16,2.36.16,5.37,2.33,11.02,3.75,16.7,5.09.74.18,1.74.12,1.79,1.9-.18.11-.7.42-1.2.75-2.08,1.38-4.14,2.79-6.23,4.15-1.2.78-2.62.92-3.71.05-5.24-4.19-11.84-3.92-17.85-5.59-.86-.24-2.2.09-2.32-1.13-.12-1.14,1.17-1.33,1.99-1.71,2.8-1.28,5.94-1.75,8.47-3.67ZM494.03,183.07c-.16-1.57.45-2.77,1.32-3.95,1.47-1.98,2.04-4.56.97-6.43-1.52-2.65-.5-4.49.59-6.6.73-1.41,1.47-3.11.83-4.46-1.84-3.92-.19-7.58.32-11.69,4.35,3.62,6.46,11.29,5.21,16.12-2.61,10.03-5.1,20.13-3.26,30.63.29,1.63,0,2.45-1.69,2.81-.97.21-1.72.94-1.59,2.08.14,1.24,1.18,1.27,2.13,1.47,7.19,1.46,12.14,10.75,9.36,17.41-.59,1.42-1.11,1.15-2.02.29-1.32-1.26-.95-2.84-1.13-4.35-.14-1.16-.06-2.64-1.44-3.02-1.57-.44-1.82,1.18-2.43,2.12-1.82,2.81-2.08,6.37-4.32,8.98-.52.61-.88,1.66-1.89,1.27-1.09-.42-.51-1.48-.4-2.21.4-2.83.79-5.67,1.41-8.46.49-2.2.45-4.21-1.73-5.27-2.43-1.17-4.09.39-5.38,2.26-2.34,3.41-4.61,6.86-7.12,10.62-1.49-2.4-.1-4.05.65-5.6.84-1.73,1.65-3.44,1.99-5.33.21-1.21-.36-2.08-1.34-2.7-1.09-.69-2.13-.38-2.93.44-1.25,1.28-2.33,2.72-3.56,4.01-.79.83-1.37,2.87-2.91,1.44-1.24-1.15-2.43-2.86-1.17-4.77.57-.87,1.49-1.51,2.28-2.24.63-.58,1.28-1.18.94-2.13-.35-.98-1.29-.93-2.11-1-.98-.08-2.14-.03-2.68.72-2.23,3.12-4.57,1.95-7.46.93-2.97-1.06-6.32-1.05-9.51-1.49-1.06-.15-2.2-.02-3.17-.38-1.07-.4-3.2-.34-2.53-2.19.53-1.46,2.12-3.12,3.93-2.28,7.84,3.66,16.24,1.67,24.34,2.59,3.64.41,7.36.42,11.08,0,3.4-.39,5.33-2.01,5.56-5.36.33-4.75,1.37-9.47.87-14.26ZM450.73,139.63c1.62,2.61-.09,4.99-.18,7.41-.12,3.3,1.33,5.09,4.28,5.53,9.72,1.46,19.45,2.44,28.97-1.19.89-.34,1.79-.71,2.72-.87,1.63-.27,3.93-1.96,4.71.03.57,1.45-1.98,2.58-3.43,3.6-4.61,3.24-10.04,4.32-15.27,5.97-1.58.5-3.15,1.11-4.62,1.88-1.06.55-1.98,1.47-1.69,2.88.33,1.57,1.66,1.49,2.85,1.51,6.86.15,13.19-1.69,19.16-4.98,1.3-.72,2.78-2.17,4.14-.55,1.29,1.53-.23,2.92-1.07,4.14-2.75,3.95-6.91,5.73-11.31,7.07-2.17.66-4.37,1.22-6.54,1.87-1.03.31-2.21.67-2.08,2.05.11,1.21,1.11,1.76,2.18,2.1,4.3,1.38,8.23-.3,12.21-1.5.11-.03.21-.13.33-.15,1.52-.17,3.29-2.73,4.28-.87,1.08,2.04-1.54,3.27-3.13,4.07-8.73,4.41-17.89,7.34-27.8,7.09-4.04-.1-6.2-3.32-8.66-5.82-3.72-3.77-6.92-7.95-9.92-12.29.67.23,1.33.48,2.03.66.43.11.84.15,1.25.18.43-3.66.43-7.4.44-11.06-.02-.05-.05-.1-.07-.16-.41-1.13-.42-2.29-.66-3.41-.41-1.94-1.31-3.59-2.33-5.18,3.27-3.03,6.33-6.31,9.19-9.99ZM440.97,134.48c.84.32,1.82.5,2.63.72,1.91.52,1.76,1.46.51,2.4-1.45,1.09-2.68,2.35-3.92,3.64-.86.89-1.7,1.8-2.53,2.71-.73-.88-1.55-1.69-2.5-2.38-.19-.14-.41-.37-.23-.63.08-.12.35-.17.52-.14.88.13,1.47-.12,1.6-1.1.02-.16.2-.37.36-.44,2.06-1.02,3.03-2.76,3.57-4.78ZM434.46,129.26c-.36-.76.87-2.49,1.71-2.53.24-.01.38.12.46.31.71,1.67.88,3.45.97,4.82-.87,3.29-3.09,4.76-5.64,5.86-.38.17-1.05.94-1.28-.04-.16-.68-1.02-1.45.09-2.22,1.8-1.25,2.95-3.02,3.68-5.08.14-.4.22-.68.01-1.11ZM431.4,129.58c-.26,1.84-1.59,2.45-2.85,2.92-.78.29-.67-.82-1.27-1.26,1.57-.3,2.73-1.04,4.12-1.65ZM427.14,146.02c1.54,1.52,3.06,3.07,4.38,4.77-.86.94-1.74,1.87-2.64,2.78-.19-.37-.38-.73-.59-1.09-.97-1.67-1.6-3.54-2.37-5.33-.22-.5-.24-.96.28-1.32.39-.27.67-.06.93.19ZM414.8,131.7c.3-.34.75-.25,1.24-.2,1.17.13,1.79.83,2.48,1.64,1.88,2.21,1.72,4.92,1.97,7.54.02.18-.06.5-.18.55-.98.42-.62,1.32-.79,2.06,1.2.03,1.83-.73,2.41-1.57.58-.83.52-1.82.75-2.69.61-2.4.33-4.35-1.19-6.22-.18-.22-.4-.53-.17-.82.24-.3.55-.11.82.01,2.58,1.17,4.71,5.36,4.11,8.08-.04.18-.1.44-.24.52-2.24,1.37-3.94,3.66-7,3.58-2.69-.07-2.7.1-2.11-2.46.03-.15.06-.3.07-.45.11-2.95-.26-5.79-1.85-8.38-.21-.34-.69-.75-.3-1.2ZM412.83,139.48c-.24.5-.78.56-1.19.82-1.52.95-3.34,1.69-4.44,3.01-1.4,1.67-2.25,3.82-3.24,5.81-.47.96.58,1.4,1.06,1.92.39.42,1.02-.04,1.23-.49,1.02-2.19,2.86-3.73,4.28-5.6.85-1.11,1.79-1.72,3.44-1.9-.37.69-.36,1.21-.62,1.73-.84,1.69-2.13,3.13-2.93,4.78-1.33,2.71-3.23,5.05-5.29,7.01-2.42,2.31-5.78,3.41-9.44,3.62,1.32-1.44,2.59-2.92,2.83-4.61.31-2.15,1.57-3.89,1.93-6.01.28-1.6,1.54-3.01,1.92-4.6.53-2.25,1.64-3.84,3.82-4.49,2.14-.63,4.15-2.4,6.63-1ZM372.17,118.04c1.24-1.59,2.27-3.29,2.19-5.47-.02-.66.44-1.29,1.2-1.57.75-.28,1,.29,1.33.69,2.16,2.58,4.92,4.49,7.45,6.66,1.21,1.04,2.3,2.29,3.8,2.86,1.02.38,1.86.92,2.65,1.62.82.72,1.71,1.39,2.77,1.7,1.05.31,2.02.9,2.77,1.53,2.14,1.79,4.71,2.81,7.11,4.05,2.31,1.19,4.51,2.68,7.1,3.28-.17.48-.44.34-.67.36-2.13.19-4.25-.33-6.35-.26-3.83.14-7.42-.69-10.89-2.06-2.72-1.08-5.56-1.87-8.15-3.29-.64-.35-1.31-.75-2.01-.98-1.98-.63-3.14-2.44-4.91-3.3-2.01-.98-3.54-2.55-5.23-3.91-.7-.56-.78-1.11-.16-1.91ZM343.51,128.09c.53.32.66,1.22,1.09,1.77.41.52.8,1.05,1.16,1.59.03-.02.07-.05.1-.07.3-.19.64-.34.99-.47.41.73,1.47.73,2.26.88,8.53,1.66,15.21-1.59,20.7-7.57,2.22,1.92,4.49,3.78,7.14,5.14.5.26.92.75,1.27,1.21,1.46,1.88,3.86,2.09,5.74,3.25,2.03,1.24,4.54,1.41,6.56,2.72.12.08.28.13.43.15,2.71.28,5.11,1.62,7.74,2.21.64.14,1.28-.32,2.02.11-1.96,2.22-2.85,4.96-4,7.55-.96,2.14-1.43,4.5-2.32,6.68-1,2.46-1.65,5.17-4.17,6.76-1.13.71-.59,1.72.24,2.17,1.75.95,3.6,1.85,5.71,1.08.14-.05.39-.2.39-.18.83,1.36,2.12.07,3.12.54.26.12.7-.02,1.01-.15,1.87-.78,3.88-1.35,5.54-2.45,1.74-1.16,3.81-2.17,4.87-4.03,1.05-1.85,2.73-3.51,3.03-5.6.26-1.86.87-3.56,1.3-5.42.3,1.57,2.12,1.28,2.73,2.41,1.15-.71,2.33.07,3.49-.1.45-.07.65-.12.86.43.98,2.6,1.89,5.21,3.12,7.75.03.07.07.13.11.2-1.86,1.67-3.85,3.24-6.05,4.65-13.46,8.68-26.34,18.51-36.59,31.19-1.01,1.25-2.05,1.97-3.13-.22-1.42-2.86-3.1-5.69-8.12-3.58,2.14-2.58,3.87-3.68,5.82-4.64,3.61-1.78,6.56-4.37,8.21-8.16,3.37-7.74,4.51-15.76,3.26-24.15-.43-2.86-1.84-4.39-4.65-4.4-5.49-.02-10.95-.03-16.42.96-5.58,1.01-11.29,1.35-17.04,2,.03-.13.05-.25.08-.37-1.46.33-2.87.43-4.36.39-.21.57-1.2.81-3.24,1.25-.56.12-1.12.24-1.69.36-.09-.21-.19-.41-.27-.62-.73-1.79-.75-3.37,1.08-4.7,1.3-.95,1.22-2.99,0-4.07-.54-.48-.59-1.02-.59-1.63.01-1.42-.35-2.68-1.43-3.68-1.85-1.72-3.66-3.47-6.34-3.9-.71-.11-1.31-.05-1.9.17-2.94,1.06-5.85.81-8.75-.11-.41-.13-1-.22-1.09-.71-.09-.48.47-.6.8-.8,2.49-1.46,5-2.67,8.07-2.53,2.43.11,4.82.15,7.09,1.08,1.15.47,2.03,1.56,3.41,1.52.32-.01.73.53.95-.22.15-.53.04-.85-.41-1.13-2.03-1.31-3.99-2.78-6.47-3.17-3.15-.49-6.32-1.12-9.48-.2-2.02.59-3.65,1.95-5.33,3.15-1.08.77-1.34-.19-1.83-.55-.59-.43-.97-1.02-.34-1.81,2.23-2.79,5.05-4.27,8.67-4.22,3.23.05,6.47-.15,9.58,1.05,2.22.86,4.28,2.04,6.31,3.26ZM333.29,121s.03.09.09.29c-2.83.14-5.62-.02-8.41.32-2.87.35-5.36,1.3-7.45,3.31-.47.45-1.04.79-1.6,1.13-.24.15-.62.29-.84,0-.22-.28.05-.55.22-.8,1.19-1.71,2.93-2.77,4.63-3.86,4.37-2.82,8.88-1.49,13.37-.4ZM318.46,116.83c.88-.12,1.82-.2,2.81.49-3.78.99-6.22,3.7-8.22,6.51-.29.41-.13.79-.05,1.16.5,2.42,1.46,4.53,3.51,6.11,1.01.78,1.93,1.69,3.19,1.97.68.15,1.06.59,1.13,1.05.24,1.55,1.42,1.81,2.59,2.11.97.25,1.96.55,2.96.61,2.06.12,4.15.46,6.18-.25,1.51-.53,4.15,1.19,4.19,2.77.01.47-.33.71-.66.96-1.11.81-2.33,1.59-3.65,1.77-3.79.52-7.58,1.14-11.46.25-4.7-1.08-9.14-2.62-12.9-5.73-1.43-1.18-2.7-2.51-3.67-4.19-1.06-1.85-2.09-3.84-4.21-4.83-1.71-.79-2.84-2.21-3.96-3.66-.42-.54-.36-.7.17-1.12,1.05-.85,2.44-.81,3.55-1.61,3.06-2.2,6.75-2.75,10.3-3.71,2.73-.74,5.49-.3,8.21-.66ZM297.35,65.46c.19-.34.53-.81,1.01-.5.35.22.4.67.22,1.09-.91,2.13-2.6,3.22-5.24,3.76,1.71-1.51,3.11-2.7,4-4.36ZM293.13,64.81c-2.13,1.94-3.76,4.05-6.48,4.69,2.53-.92,3.22-4.3,6.48-4.69ZM285.2,65.44c-1.05,1.9-5.6,4.02-7.45,3.6,2.55-.96,4.63-2.69,7.45-3.6ZM274.78,66.4c.27.04.78-.34.78.32,0,.36-.12.68-.5.86-.64.29-1.31.55-2.02.56-1.78.02-3.56,0-5.34,0-.01-.22-.02-.44-.04-.65,2.39-.27,4.62-1.45,7.12-1.1ZM256.52,120.45c-1.96-2-3.95-3.98-5.06-6.56-1.25-2.9-2.58-5.83-1.54-9.19.39-1.26.83-2.14,2.27-2.13,1.13,0,2.35-.29,3.39.04,2.49.78,3.92,3.21,6.3,4.31,2.09.97,4.56.21,5.04-2.03.55-2.56-.36-4.88-1.53-7.11-.38-.73-1.76-.6-1.6-1.59.14-.84,1.31-.76,1.89-1.35,1.38-1.41,1.42-1.77-.14-2.43,1.29-2.14,2.87-4.12,3.55-6.58.19-.69.46-1.43-.23-1.96-.62-.48-1.24-.18-1.94.06-1.12.38-1.37,1.9-2.79,1.91.33-.44.67-.8.9-1.21.27-.48.59-1.04.1-1.54-.52-.54-.92.03-1.31.29-2.45,1.65-5.32,2.47-7.88,3.89-.47.26-1.07.36-1.61.41-.52.05-1.3.29-1.44-.39-.1-.5-.02-1.24.57-1.63.29-.2.6-.39.91-.56,2.28-1.2,4.55-2.42,7-3.27,2.39-.83,4.17-2.47,5.33-4.69.67-1.27.07-2.14-1.27-2.65-1.58-.6-3.32.06-4.86-.74.14-.66.7-.92,1.19-1.07,2.88-.86,5.69-1.53,8.62.18,2.83,1.65,6.03,2.17,9.31,2.43,2.32.18,4.52-.41,6.78-.46,2.42-.06,4.81-.2,7.21-.63,1.31-.23,2.31-.94,3.49-1.34,3.04-1.03,5.9-2.35,7.67-5.28.54-.9,1.99-1.07,2.86-.43.99.73.88,1.55.27,2.51-1.02,1.62-2.54,1.51-4.1,1.29-.47-.07-.92-.24-1.17.32-.18.4-.62.87-.21,1.24.61.56.65,1.35,1.07,1.99,2.21,3.38,3.18,7.19,3.9,11.12.3,1.66,1.99,5.75,2.01,6.4.04,1.41.2,2.85-.06,4.21-.5,2.59-.09,5.04.74,7.46.93,2.7,1.41,5.48,1.75,8.29.11.86.05,2.18-.74,2.29-1.94.27-3.83.78-5.74,1.12-4.3.77-8.01,2.7-11.44,5.27-.41.31-.82.76-1.32.62-.66-.18-.34-.86-.38-1.31-.25-2.93-1.61-4.64-4.29-5.36-.49-.13-1.04-.42-1.38.12-.29.45-.07.94.17,1.43.71,1.44,1.46,2.88,1.97,4.39.47,1.4.79,2.82-.29,4.29-.97,1.33-1.83,2.8-2.28,4.44-.12.45-.53,1.05.12,1.34.48.21,1.11.28,1.57-.18.32-.32.62-.67.86-1.04.16-.25.19-.66.58-.58.41.08.44.49.48.85.24,2.52.51,5.04.22,7.57-.18,1.54.14,2.97.64,4.41.43,1.24,1.3,2.28,1.56,3.64-1.09.14-2.08.06-3.04-.31-1.41-.55-2.84-1.05-4.22-1.66-2.97-1.3-5.89-2.68-8.45-4.73-1.94-1.55-3.79-3.19-5.56-4.93-.37-.36-.78-.75-1.31-.34-.45.34-.84.77-.49,1.42.84,1.54,1.25,3.31,2.5,4.64,2.83,3.01,5.71,5.93,9.47,7.84,2.77,1.41,5.62,2.51,8.71,2.96.43.06,1.09-.18,1.24.29.19.6-.25,1.25-.72,1.53-.94.57-1.08,1.55-1.5,2.38-.33.66-.05,1.25.52,1.55.51.27,1.06.13,1.47-.41.32-.42.53-1.04,1.44-1.15-1.48,2.36-1.67,4.86-2.15,7.26-.6,2.97-.89,6.01-3.37,8.4-1.98-2.49-3.72-5.19-5.4-7.93-1.48-2.41-2.82-5.05-5.09-6.72-2.87-2.11-5.7-4.2-8.04-6.92-3.49-4.07-6.1-8.35-5.06-14.13.54-2.96.51-6.06-.4-9.03-.18-.58.09-.86.4-1.19.69-.73.73-1.54.26-2.37-.53-.95-1.31-.55-1.98-.24-1.9.86-3.41.48-4.89-1.03ZM255.22,94.25c2.27-1.52,4.74-2.38,7.15-3.37-2.27,2.29-5.77,3.92-7.15,3.37ZM228.7,160.19c.96.87,1.97,1.66,2.79,2.73,4.04,5.3,5.6,11.52,6.92,17.85,1.02,4.84,1.3,9.78,2.15,14.82,2.08-1.01,2.33-2.94,2.38-4.69.14-5.51-.51-10.94-1.66-16.36-.78-3.7-2.41-6.87-4.42-9.85-1.38-2.04-3.06-4.05-5.42-5.15-.85-.4-.63-.71-.23-1.2,1.15-1.4,2.9-1.81,4.38-2.67,3.76-2.19,7.85-3.68,11.8-5.47,1.56-.7,3.05-1.55,4.54-2.4.6-.34.78-.39.96.4,1.11,4.81,2.67,9.49,4.33,14.12,1.24,3.45,2.28,6.98,3.72,10.36.62,1.44,1.43,1.74,2.93,1.18,2.45-.91,4.42-2.41,5.76-4.71,1.17-2.01,2.4-2.56,4.71-2.17.42.07.77.19,1.09-.22.33-.42.31-.83.05-1.27-.45-.73-.84-1.51-1.36-2.2-1.4-1.87-2.78-1.96-4.38-.29-1.36,1.41-2.65,2.89-3.98,4.33-.14.15-.25.33-.4.46-.64.55-1.21,1.49-2.12,1.28-1.1-.24-.5-1.38-.68-2.1-.93-3.88-2-7.72-3.37-11.47-1.16-3.18-2.56-6.3-3.14-9.62-.55-3.18.22-6.31,1.76-9.19.24-.44.58-.91,1.19-.77.72.16.52.8.49,1.26-.16,2.12.89,3.94,1.56,5.8,1.92,5.34,5.11,9.88,9.69,13.29,1.9,1.42,3.86,2.67,5.36,4.59,1.22,1.56,2.3,3.18,3.27,4.9,1.5,2.66,3.55,4.93,5.6,7.17,1.41,1.53,2.86,3.02,3.87,4.84,1.25,2.24,1.56,4.78,1.92,7.26-1.04.03-2.06-.27-2.97-.81-.39,1.32-.75,2.65-1.15,3.99-4.74-3.99-10.89-4.3-16.1-1.09,0,.15.02.31.03.46.13,4.83-4.3,7-8.11,6.05-1.02.42-2.13.67-3.38.79-4.9.48-8.9,3.56-10.72,7.83-.02.05-.05.11-.07.17,0,0,0,0,0,0-.42,1.02-.72,2.1-.87,3.24-.25,1.8-.69,3.19-2.78,3.57-1.13.21-2,.82-2.42,1.64-.08.38-.17.75-.28,1.12,0,.28.02.58.12.88,1.21,3.88-1.3,8.14,2.19,11.93-2.55,0-4.3-.03-6.06,0-3.52.07-5.13.04-5.85-.45-3.03,1.83-6.39,2.88-9.94,3.47-2.76,5.07-7.14,8.09-12.74,9.66-.76.21-1.66.18-2.44,0-.88-.2-2.17-.17-2.39-1.24-.21-1.03.9-1.66,1.65-2.13,2.52-1.57,4.79-3.43,6.8-5.58-1.46.02-2.92.02-4.39,0-1.22.59-2.7.94-4.44.94h-2.7c-1.05.61-2.11,1.21-3.16,1.82-1.36.79-2.64,1.54-4.99,1.05.9-.99,1.78-1.93,2.64-2.86h-6.3c-1.47,0-2.79-.34-3.94-.93,8.08-.26,16.16-.57,24.23-.62-8.2-4.3-17.43-9.1-19.28-10.05-4.23-2.16-6.3-5.91-7.22-10.41-.27-1.3-.46-2.61-.84-3.88-.42-1.42-1.64-2.14-2.96-2.38-2.37-.43-4.74-1.07-7.2-.46-.77.19-1.63.3-2.1.87-1.05,1.28-2.24,1.09-3.62.8.21-.15.42-.31.64-.46-.23-.02-.45-.07-.68-.12,2.05-2.67,4.7-4.12,7.95-4.45,2.23-.22,4.48-.74,6.72.09.56.21,1.39.42,1.63-.56.23-.93-.07-1.66-1.02-1.97-4.83-1.56-9.53-1.38-14.08,1.04-1.35.72-2.77,1.25-3.27,2.96-.13.45-.7,1.33-1.53.65-.09-.07-.17-.15-.23-.23-.02-.02-.03-.04-.04-.06-.46-.59-.34-1.29.27-1.79,2.41-1.95,4.77-3.94,7.87-4.86,3.11-.92,6.22-1.37,9.44-1.06.5.05.98-.04,1.45-.24.66-.28.99-.85.91-1.44-.08-.64-.71-.96-1.35-1.03-3.08-.31-6.18-.41-9.21.14-2.38.43-4.36,2.02-6.58,2.98-1.88.81-3.57,1.93-4.31,4.03-.02.07-.06.13-.1.19-.18-.36-.33-.72-.43-1.08-.03-.12-.05-.24-.08-.37,2.46-3.62,6.07-5.56,10.16-6.88,2.67-.86,5.35-1.6,8.17-1.62.47,0,.91-.01.97-.62.05-.58-.26-1.04-.77-1.14-2.1-.39-4.18-.97-6.3-.91v-1.73c.06,0,.12,0,.18,0,1.02,0,1.92-.66,3.14-.38,3.07.7,5.93,1.86,8.56,3.49,3.39,2.1,5.03,5.62,6.63,9.07,1.15,2.5,1.74,5.17,2.19,7.93.5,3.03,1.8,5.99,3.89,8.29,1.43,1.57,3.2,2.85,5.42,3.54,2.97.92,5.76,2.43,8.84,3.11,4.07.91,8.13,1.88,12.21,2.76.62.13,1.11.28,1.56.75.69.72,1.67,1.28,2.46.45.83-.88.14-1.92-.53-2.62-1.38-1.46-3.09-2.47-5.01-3.1-3.29-1.09-6.61-2.12-9.88-3.26-1.94-.68-2.27-2.7-.56-3.96,3.51-2.59,7.25-4.78,11.69-5.42,1.9-.27,3.78-.79,5.73-.53,1.1.14,1.82.38,2,1.81.55,4.54,1.85,8.88,4.28,12.82.09.14.13.31.22.44.53.76,1.02,1.78,2.14,1.43,1.16-.36,1.34-1.43,1.25-2.56-.17-2.12-1.09-4.03-1.67-6.03-.73-2.52-1.1-5.16-2.27-7.56-.23-.48-.11-1.12.2-1.6,1.35-2.06.9-4.24,0-6.17-.22-.47-.39-.95-.52-1.41.17.04.34.02.51-.1.58-.43.31-1.1.13-1.68-.22-.71-.5-1.38-.81-2.03.07-.43.17-.87.29-1.31.57-2,.76-3.98.58-6.04-.39-4.54-.75-9.1-2.85-13.24-.99-1.94-2.24-3.78-3.74-5.4-.92-1-1.82-2.03-2.82-2.94.61-.53,1.28-.98,2.06-.27ZM157.68,239.43c-5.24-.8-5.74-1.18-5.35-5.47.37-4.06,3.82-2.44,6.65-3.62-1.66,3.18-1.16,5.3,1.17,7.21,2.53,2.07,5.23,1.28,7.87.89,1.93-.29,2.53-2.13,2.67-3.83.16-1.95-1.21-3.15-2.85-3.68-1.79-.58-3.72-.71-5.53-1.03,1.1-.6,2.23-.98,3.37-1.2.02.06.04.12.06.18,1.57.01,3.14.01,4.7,0,1.01.27,2,.67,2.95,1.21,1.89,1.09,4.23,1.96,6.04.25,2.48-2.34,2.99-.91,3.57,1.68-1.68.13-3.11.47-4.47.28-2.06-.28-3.18.79-4.01,2.31-.86,1.57-.24,3.13.76,4.33,1.09,1.32,2.64,2.26,4.43,1.52,2.41-1,5.04-1.37,5.58-5.11.4-2.78,3.42-1.27,4.36-.19,2.72,3.15,5.84,4.28,9.93,3.04.02.34.04.67.07,1.01-2.7.57-5.38,1.36-8.11,1.67-11.35,1.26-22.63.25-33.87-1.46ZM158.98,250.73c-5.65,2.51-11.24,1.09-16.87-.36,5.55-.9,10.7-4.31,16.62-2.29.68.23,1.45.38,1.56,1.22.12.92-.7,1.15-1.31,1.43ZM153.56,210.92c.56.06,1.24-.26,1.86-.51.82.57,1.69,1.11,2.66,1.56-2.26,1.08-3.46-.48-4.52-1.05ZM160.56,218.78c1.66.42,2.93,3.3,4.08,6.69-.72-.11-1.43-.23-2.14-.37-.61-.12-1.17-.34-1.7-.59-.09-2.78-.15-5.25-.25-5.73ZM205.28,108.33c-.51-.97-1.12-1.87-1.51-2.93-.68-1.84-.77-3.87-1.83-5.59-.19-.31-.65-.67-.09-1.37,1.05,1.86,2.63,3.14,3.97,4.65,2.61,2.92,4.42,6.38,6.42,9.68,1.66,2.73,2.45,5.89,1.78,9.19-.34,1.67-1.29,2.91-2.97,4.03.33-1.72.62-3.09.86-4.48.44-2.51-.54-4.8-1.55-6.92-.77-1.62-1.96-3.22-3.77-4.05-1.24-.57-1.69-.31-1.77,1.05-.08,1.26.64,2.32.89,3.5.28,1.35.74,2.67.92,4.03.08.64-.16,1.73-.85,1.77-1,.06-.59-1.06-.56-1.55.19-3.21-.95-5.85-2.92-8.35-2.15-2.72-3.89-5.75-5.44-8.85-.89-1.79-1.35-3.79-1.08-5.9.58.15.51.6.64.95,1.06,2.89,1.89,5.88,4.01,8.27.61.69,1.33,1.3,1.66,2.2.35.95,1.06,1.51,1.97,1.87.39.15.76.65,1.17.21.36-.38.32-.92.07-1.39ZM214.47,136.25c.03.37-.2,1.18-.89.61-.8-.67-1.25-1.63-1.62-2.6.1-.6.56-.86.93-.56.79.65,1.48,1.48,1.57,2.55ZM201.89,190.4c.31,4.68,2.55,8.89,3.21,13.57-1.08-1.36-2.42-2.54-2.85-4.36-.47-1.97-.88-3.96-1.47-5.9-.82-2.65-.45-5.21.34-7.76.13-.41.29-.99.8-.92.67.09.3.7.28,1.08-.09,1.43-.4,2.87-.31,4.29ZM198.61,175.54c-1.69,2.49-2.43,5.38-3.77,8.01-.48.95-.85,1.95-1.62,2.76-.17.19.5,1.13-.3,1.32-.88.21-.99-.72-1.28-1.25-1.13-2.1-2.71-3.69-4.88-4.71-.74-.35-1.51-.8-2.01-1.41-.82-1.02-1.94-1.37-3.27-1.86.61-.24,1.05-.6,1.39-.52,2.73.58,5.01-.59,7.43-1.56,3.65-1.46,4.93-4.4,5.26-7.89.11-1.15.37-1.44,1.42-1.61,3.15-.5,5.27-2.23,6.23-5.38.59-1.94,1.28-3.83,1.18-6.09,2.1.96,4.03,1.82,5.95,2.71.59.27,1.37.54,1.38,1.26.02.86-.89,1.03-1.49,1.35-.65.34-1.44.23-1.95,1.04-.95,1.51-1.99,2.99-3.17,4.33-2.56,2.91-4.35,6.33-6.51,9.5ZM201.11,135.88c.38-2.13,1-4.18,1.48-6.26.28-1.23.59-2.33,2.6-2.87-1.77,3.15-2.55,6.29-4.08,9.14ZM195.88,137.02c.33,1.12.46,2.24-.63,3.14-1.55-5.27-.04-9.78,5.19-13.34-1.31,2.4-2.41,4.94-4.01,7.13-.82,1.13-.89,1.94-.56,3.08ZM195.05,150.93c.18-.78.47-.44,1.02-.29,1.5.43,2.19,1.98,3.66,2.4,1.11.32,1.54,1,1.51,2.29-.05,1.96-.66,3.74-1.26,5.53-.47,1.43-1.64,2.18-3.09,2.42-1.3.21-2.62.26-3.91.48-1.92.33-2.33,1.25-1.4,3.01,1,1.91.6,3.74-1.08,5.12-2.57,2.11-5.4,2.42-8.54,1.5-3.01-.89-4.72.6-4.18,3.7.16.91-.15,1.27-.57,1.39-.69-2.68-1.29-5.96-3.49-7.69,4.86-2.22,9.24-5.28,13.29-8.94,3.46-3.12,6.93-6.12,8.05-10.92ZM222.8,189.8c.7.32,1.12.86,1.36,1.81-.79-.24-1.39-.37-1.93-.61-.57-.26-.84-.87-.55-1.37.32-.55.75.01,1.12.18ZM222.73,176.7c1.39.83,2.21,1.49,2.65,2.21,0,.15.01.3.02.47.03.19.03.49.11.76-1.1-1.16-2.33-1.97-2.79-3.43ZM229.83,195.8c1.27-.11,1.86.55,1.8,1.64-.07,1.13-1.03,1.04-1.84,1.04-.22,0-.44-.05-.66-.07-4.79-.49-9.48-.32-13.78,2.23-.28.17-.61.4-.87.04-.22-.3-.02-.67.18-.91,1.41-1.81,3.55-2.63,5.55-3.18,3.12-.86,6.44-.81,9.61-.78ZM226.79,172.01c1.95,1.64,2.92,3.78,3.65,6.07-1.22-2.02-2.43-4.05-3.65-6.07ZM221.97,165.63c1.95,1.55,3.93,3.89,4,5.01-1.63-1.27-3-2.75-4.5-4.28.16-.25.33-.49.5-.73ZM220.16,164.45c-.02.18-.05.36-.07.54-.31-.29-.62-.58-.95-.87.3.03.65.15,1.02.32ZM221.22,186.1c-.43-1.5-2.25-1.97-2.57-3.55,1.02,1.06,3.03,1.39,2.57,3.55ZM216.55,173.65c-1-.74-1.9-1.58-2.41-2.77,1.06.69,2.13,1.37,2.41,2.77ZM218.12,182.83c-2.73-1.58-4.53-3.62-4.87-5.49,1.3,1.96,3.87,2.75,4.87,5.49ZM218.52,145.18c-.73-.35-1.48-.38-2.25-.42-1.92-.08-7.12-2.76-8.1-4.15-.24-.34-.15-.65.02-.92.26-.4.55-.15.83.05,1.04.71,2.11,1.38,2.99,2.31,1.18,1.25,2.56,2.03,4.35,2,.76-.01,1.52.15,2.3.02.37-.07.83.2.76.67-.07.44-.54.61-.9.44ZM224.42,139.79c-2.39.48-4.19-1.05-5.1-4.21,1.37,1.79,2.24,4.17,5.1,4.21ZM211.96,97.39c.49,4.07,1.57,7.94,4.29,11.17,2.58,3.06,4.67,6.29,4.99,10.51.26,3.56-.85,6.28-3.75,8.36.42-.56-.09-1.25.32-1.79,2.25-3.04,2.86-6.25,1.01-9.72-.21-.39-.3-.83-.49-1.23-1.51-3.23-3.92-5.72-6.83-7.64-.99-.65-1.78-1.21-2.24-2.28-.58-1.35-1.24-2.67-1.87-4,.11-.06.22-.13.33-.19,1.08,1.23,2.17,2.47,3.61,4.12.19-3.81-.86-7.05-.74-10.35.11-3.27-1.21-6.39-1.42-9.64,1.43,1.39,1.16,3.24,1.64,4.88.74,2.56.86,5.18,1.17,7.79ZM203.82,71.8c1.68,2.31,3.19,4.71,4.35,7.3.74,1.67,2.19,3.39-.2,4.95-.72-4.19-4.41-7.52-4.15-12.25ZM192.41,67.55c1.37.3,2.07.99,2.31,2.12.33,1.6,1.06,3.11.97,4.81-.03.64.12,1.51,1.14,1.53.96.02.95-.71,1.04-1.38.09-.66.05-1.29-.05-1.96-.22-1.52-.88-2.91-1.24-4.47,1.78.18,2.56,1.35,3.13,2.68,1.61,3.81,3.13,7.66,5.1,11.3,1.74,3.24,2.29,6.64,1.6,10.64-.9-1.52-.38-2.86-.77-4.06-1-3.11-2.35-6.05-4.03-8.84-.65-1.08-1.46-2.07-2.25-3.06-.34-.42-.75-.86-1.41-.48-.67.39-.43.93-.24,1.44.13.36.33.7.45,1.07.93,2.66,1.94,5.29,2.54,8.17-.69-.16-.78-.57-.95-.9-1.24-2.48-2.77-4.71-4.69-6.74-1.5-1.58-2.47-3.51-2.91-5.81-.4-2.13.67-3.95.24-6.06ZM186.69,69.58c.14-.75.6-1.37,1.46-1.3.87.08.77.83.7,1.41-.32,2.76-.08,5.44.95,8.11-.69-.89-1.45-1.73-2.05-2.67-1.08-1.69-1.43-3.57-1.06-5.55ZM180.84,66.9c.14-.55.59-.96,1.19-.97.32,0,.32.37.35.64.24,2.3-.07,4.65.39,7.01-.57-.98-1.26-1.92-1.67-2.96-.46-1.17-.57-2.46-.26-3.72ZM175.93,66.49c.22-.99,1.48-2.17,2.48-2.33-1.78,2.8-1.51,3.43-.14,7.81-1.04-.79-2.58-4.4-2.34-5.48ZM155.71,64.24c.26-1.04.54-2.12,2.32-2.51-1.09,2.37-1.06,4.45-.28,6.53.26.7-.27,1.1-.75,1.25-.57.17-.99-.16-1.1-.86-.23-1.47-.56-2.93-.19-4.41ZM158.03,148.09c.19-.24.43-.56.81-.46.4.1.41.48.46.8.3,2.1.61,4.2.87,6.31.11.88.37,1.8,1.24,1.96.98.18,1.2-.88,1.36-1.57.5-2.16.85-4.47.47-6.56-.6-3.29.4-6.66-.96-10,2.37.6,4.36-.36,6.43-.52,4.65-.36,8.2-2.82,11.1-6.32.33-.4.99-.9.3-1.56-.57-.54-1.18-.51-1.8-.09-3.13,2.05-6.61,3.1-10.23,3.92-5.78,1.32-11.36,1.06-16.77-1.45-2.25-1.05-3.66-2.8-4.21-5.29-.49-2.19-.25-4.37-.27-6.57-.06-4.73-1.52-9.29-1.69-14.05-.18-4.95,1.17-9.19,4.15-13.03.35-.46,1.05-3.82,1.6-5.77.79-2.78.66-5.77,1.95-8.48.35-.73,1.52-3.45,2.41-4.45,1.19-1.32,2.75-2.27,3.79-3.66.77-1.02,1.17-.8,1.97-.21,1.27.93,2.39,2.24,4.26,2.03-.1-1.28-.81-2.23-1.65-2.87-1.19-.92-1.54-2.12-1.72-3.44-.29-2.13.62-4.07,2.42-4.94-.74,1.82-1.56,3.45-.99,5.36.76,2.56,2.01,4.76,4.23,6.31.52.36,1.09.53,1.62-.08.51-.59.13-1.04-.2-1.47-1.58-2.01-2.07-4.33-2.05-6.83.02-2.37,1.82-4.23,4.35-4.43-.07.65-.66.65-1.06.87-2.24,1.25-3.38,4.16-1.92,5.87,1.41,1.65,2.56,3.82,5.11,4.19.79.11,1.09.81,1.49,1.43.55.85.39,2.87,2.41,1.68.06-.03.21.06.3.11,1.84,1.19,4.05,1.81,5.78,2.97,2.95,1.98,5.42,4.66,8.08,7.07.29.26.7.7-.12.89-1.06.25-1.07.98-1.02,1.89.11,2.17,1.98,3.32,2.76,5.09-2.21.67-2.85,1.64-2.76,4.05.02.6.02,1.25-.18,1.8-.87,2.36.11,4.53.64,6.74.69,2.87,2.68,5.15,3.72,7.85-.27.24-.55.18-.79.07-1.05-.46-1.43.22-1.6,1.02-.09.43,1.95,1.88,2.43,1.72,1.09-.36,1.86-2.02,3.34-.8.03-.04.05-.09.09-.12.56-.41.57-.42.69-.01.28.88,0,1.63-.57,2.29-1.35,1.52-3.38,2.15-4.75,3.67-.36.4-.93.32-1.4-.24-.78-.93-1.71-1.72-2.55-2.6-.71-.74-1.18-.39-1.48.34-.57,1.4-.07,2.57.88,3.64.41.46,1.08.83.77,1.68-.84,2.31-1.15,4.75-1.72,7.11-.78,3.21-.15,6.22.41,9.22.56,3.03,2,5.78,4.33,7.95.65.6.47,1.16-.06,1.7-.22.23-.58.3-.7.66-1.26,3.79-4.27,6.25-7.23,8.47-3.04,2.28-6.27,4.35-9.69,6.16-3.05,1.62-6.16,2.78-9.4,3.4-3.39-.57-6.77-.9-10.14-1.04-1-1.03-1.48-2.53-1.33-4.38.32-3.74.74-7.45,2.11-10.99.53-1.39.97-2.82,1.92-4ZM142.7,166.7c.4-1.57,1.59-2.54,2.75-3.38,2-1.44,1.2-2.8-.23-3.76-2.78-1.87-2.75-5.4.14-7.11.78-.46,1.32-1.13,1.97-1.7.91-.8,1.05-2.3,2.34-2.65,1.58-.43,3.19-.78,5.13-.88-.83,1.46-1.56,2.73-2.27,4.02-1.25,2.26-1.37,4.81-1.88,7.26-.39,1.85-.72,3.69-.44,5.55.16,1.12.34,2.27.66,3.34-2.77.03-5.54.19-8.3.46.01-.38.06-.76.16-1.16ZM141.8,212.66c.63.68,2.02,2.52,3.75,4.89,0,.64.01,1.29.01,1.93-.46-.65-.83-1.11-1.07-1.29-.35-.27-4.29-5.62-4.3-6.15.67-.14,1.17.17,1.6.63ZM134.25,165.55c.38.2.41.44.27.8-.34.92-.6,1.89-.96,2.8-.66.12-1.32.25-1.97.39.66-1.15,1.32-2.3,1.98-3.46.16-.28,0-.9.68-.53ZM124.27,202.36c-.7.29-1-.35-1.23-.82-.34-.69-.64-1.39-.87-2.11.19.25.38.5.59.72.6.66,1.23,1.27,1.87,1.85-.04.13-.13.26-.35.35ZM129.06,155.77c-.77,3.13-1.72,6.22-1.65,9.5.03,1.3-.34,2.57-.74,3.84-.59-.25-.86-.61-.86-1.17.02-2.34-.26-4.69.64-6.99.43-1.12.95-2.33.44-3.68-.15-.39-.21-1.37.55-1.52,1.16-.23,1.53-1.14,2.07-1.94.49-.73.95-1.54,2.33-1.16-1.2.94-2.43,1.69-2.78,3.1ZM124.58,244.29c2.59-3.89,4.86-7.95,6.28-12.43.49-1.54,1.58-1.9,3.04-1.91,2.03-.01,4.07-.13,5.96-1.03.63-.3,1.38-.61,1.43-1.37.85.06,1.7.12,2.54.18-1.08,1.6-2.81,2.94-5.59,3.86-.53.17-.97.69-1.39,1.11-3.52,3.55-3.42,5.96.37,9.27,2.84,2.48,2.84,2.5-.94,3.86-1.96.7-3.9,1.34-4.01,3.93-.1,2.43.97,4.24,3.12,5.19,7.62,3.35,15.54,4.48,23.61,2.02,3.94-1.2,7.62-3.06,7.83-8.12.07-1.56,1.23-1.3,2.39-1.19,7.97.78,15.91.02,23.84-.68,6.61-.58,12.74-3.93,19.56-3.26.66.06,1.43-.27,2.03-.61,2-1.15,2.91-1.05,3.65,1.59,2.11,7.49,9.54,12.34,17.51,11.97,1.31-.06,2.5-.41,2.84-1.7.32-1.19-.64-1.96-1.63-2.48-.86-.44-1.93-.63-2.37-2.14,1.91.78,3.43,1.4,4.95,2.02,1.17.48,2.41.81,3.18-.51.8-1.37.14-2.54-.99-3.43-1.17-.93-2.86-1.26-3.44-3.12,2.4-1.1,4.35.38,6.46.87,3.1.72,7,4.02,8.34-2.18.04-.19.37-.48.51-.45,3.61.69,6.52-2.86,10.6-1.15,4.9,2.05,10.27,3.44,15.5.3,1.54-.92,2.34.11,3.2,1.24,6.23,8.21,13.46,10.41,22.87,7.05.66-.23,1.56-.73,1.99-.48,3.06,1.77,5.92,1.18,8.86-.28,1.15-.57,2.37,0,3.44.53,7.99,3.94,22.2-1.67,23.74-10.79.23-1.39.95-1.97,2.21-1.02,3.39,2.53,7.32,2.68,11.28,2.6,10.12-.19,19.96-1.8,28.96-6.7,1.69-.92,1.77.14,2.33.94,4.11,5.91,9.56,10.19,15.87,13.59,2.97,1.6,6.48,2.03,9.14,3.42,4.27,2.24,8.78,2.67,13.09,4.47-9.05.1-18.01,1.18-27.12.73-12.95-.64-25.95.74-38.94.22-2.74-.11-4.68.1-3.2-3.85,1.74-4.63-1.21-7.34-6.04-6.12-1.04.26-2.16.21-3.16.55-4.26,1.46-9.06,2.53-11.39,6.68-1.17,2.08-2.15,2.61-4.2,2.72-15.74.86-31.5.3-47.25.63-1.85.04-2.43-.74-2.6-2.53-.24-2.49-1.96-3.94-4.41-3.77-4.21.29-8.31,1.19-11.29,4.55-1.32,1.49-2.87,1.91-4.76,1.93-14.76.16-29.52.32-44.28.61-3.11.06-4.54-.38-3.1-3.93,1.02-2.54.51-5.04-2.49-6.18-3.85-1.47-11.84,2.96-12.09,7.06-.18,3.06-1.77,3.12-3.94,3.13-7.75.05-15.51.14-23.26.22-15.75.17-31.5.34-47.25.52-.71,0-1.52.21-1.94-.53-.46-.81.28-1.33.74-1.82,1.22-1.3,2.51-2.54,3.76-3.81,1.2-1.22,2.37-2.49,1.65-4.39-.72-1.89-2.29-2.86-4.18-2.84-2.67.02-2.52-1.04-1.38-2.75ZM123.69,431.92c-.26,4.39-.88,8.75-1.2,13.14-.15,2.07-1.26,2.66-3.07,2.53-1.42-.1-2.84-.24-4.26-.37-1.75-.15-2.57-.96-2.22-2.84,1.52-8.1,1.65-16.32,1.91-24.52.53-16.34-1.14-32.6-1.58-48.9-.06-2.25.4-3.41,2.71-3.59.82-.06,1.65-.27,2.45-.5q5.13-1.53,5.25,4.05c.05,2.38,0,4.76,0,7.15-.17,0-.34,0-.51,0,0,12.02-.23,24.05.1,36.07.16,5.93.77,11.87.41,17.81ZM149.39,448c.73-3.96,1.34-7.96,2.75-11.78.33-.89.77-1.5,1.71-1.51,2.39-.02,4.74-.3,7.15-.93.85.2,1.77.43,2.7.63,2.04.43,5.3-.55,5.83,1.45.57,2.15-2.41,3.69-4.08,5.22-4.06,3.71-8.68,6.57-13.78,8.66-1.83.75-2.59-.02-2.27-1.74ZM165.51,421.05c3.86.38,7.45,1.49,10.88,3.25.84.43,1.82.69,1.95,1.85.06,1.73-2.85,4-4.52,3.19-4.94-2.39-10-1.79-15.09-.98-2.07.33-3.01.28-1.88-2.24,2.22-4.98,3.24-5.61,8.66-5.07ZM161.89,416.18c.41-1.32,1.64-1.34,2.6-1.35,6.95-.08,13.68-2.05,20.61-2.3,2.6-.09,3.09.54,1.81,2.71-.79,1.33-1.59,2.66-2.37,3.99-.66,1.11-1.62,1.46-2.73.85-6.1-3.33-12.64-4.01-19.42-3.4-.14.01-.3-.3-.49-.5ZM193.47,430.1c0,.19-.73.51-1.15.59-3.73.68-4.35,1.79-2.94,5.35.3.77.68,1.53.85,2.33.15.71-.06,1.48-.67,1.94-.78.6-1.31-.1-1.82-.55-1.07-.93-2.15-2.32-3.68-1.18-1.64,1.22-1.11,3.06-.49,4.61.57,1.42,1.52,2.69,2.26,4.05.46.84,1.09,1.84-.17,2.43-1.07.5-1.48-.55-1.74-1.3-.57-1.67-1.73-2.82-3.06-3.86-.72-.56-1.25-1.68-2.38-1.09-1.03.53-1.39,1.57-1.41,2.72-.04,1.85.7,3.49,1.36,5.15.36.92.05,1.64-.8,2.11-.84.46-1.36-.02-1.7-.72-1-2.06-1.98-4.71-4.85-3.46-2.79,1.21-1.5,3.81-.97,5.97.07.29-.11.65-.18.99-1.3.11-1.94-.96-2.9-1.38-1.57-.68-2.72-.39-3.68,1.07-2.49,3.8-4.42,4.06-8.75,1.08,3.31-1.76,6.51-3.46,9.71-5.16,7.28-3.88,12.84-9.52,17.89-16.04,4.15-5.37,8.89-10.32,12.9-16.78,1.23,4.66-1.76,7.64-1.63,11.15ZM245.11,382.73c-1.21-3.3-.86-5.93-.98-8.49-.22-4.53-1.32-8.91-2-13.37-.17-1.11-.45-2.19,1.13-2.44,3.16-.5,6.31-1.08,9.49-1.46,2.04-.25,3.11.27,2.23,2.82-2.63,7.61-5.87,14.93-9.86,22.93ZM282.24,420c-3.44,7.85-5.19,16.35-9.18,23.99-.54,1.03-1.08,2.13-2.62,2.78-.59-2.21,1.05-5.12-1.46-6.03-3.07-1.12-4.1,2.58-6.35,3.94-1.23-1.9-.34-3.47.3-5.07.57-1.42.72-2.96-.79-3.81-1.35-.76-2.75-.42-3.86.8-1.92,2.11-3.8,4.27-5.86,6.23-.79.75-2.04,1.77-3.18.88-1.18-.92-.31-2.2.2-3.25.82-1.71,1.71-3.4,2.58-5.09.73-1.42.85-2.86-.54-3.85-1.47-1.05-2.75-.1-3.8.92-2.47,2.42-4.86,4.92-7.96,6.59-.72.39-1.38,1.14-2.22.42-.61-.52-.48-1.33-.34-2.02.48-2.2.65-4.55,2.16-6.37,3-3.61,4.66-7.91,6.44-12.15,1.11-2.65,3.23-4.38,5.47-5.96,1.44-1.01,2.62-2.17,2.68-3.99.08-2.58,1.2-2.87,3.48-2.19,8.54,2.55,16.06,7.21,23.88,11.25.83.43,1.4.99.97,1.98ZM317.52,427.51c-1.68.62-3.35-.8-4.45-2.36-.21-.29-.39-.6-.6-.89-.74-1-1.44-3.17-2.61-2.25-1.39,1.1-4.07,1.36-3.91,4.05.03.59,0,1.2-.06,1.79-.07.7-.05,1.57-.88,1.79-.93.25-1.09-.7-1.44-1.26-.99-1.57-1.65-4.09-3.8-3.73-2.45.41-2.52,3.13-3.04,5.18-.28,1.11-.1,2.39-1.18,3.26-1.23-.57-1.52-1.79-2.11-2.77-.78-1.31-1.3-3.21-3.16-2.95-1.81.25-1.87,2.26-2.38,3.68-.36.99-.37,2.13-1.28,2.89-.57.47-1.17.93-1.9.43-.65-.45-.3-1.09-.09-1.62,1.21-2.99,2.33-6.01,2.68-9.25.05-.43.27-1.07.59-1.21,7.75-3.25,11.29-10.49,15.88-16.71,2.76-3.73,4.8-7.98,8.19-11.27,1.06.59.89,1.62.94,2.54.48,8.99,3.24,17.53,4.95,26.28.28,1.43,1.88,3.56-.34,4.38ZM322.78,362.11c-3.81,5.47-7.82,10.82-11.41,16.45-7.23,11.33-13,23.54-20.57,34.69-1.38,2.04-2.22,1.59-3.54.38-9.69-8.9-21.43-13.04-34.21-14.8-.7-.1-1.38-.45-2.09-.49-3.79-.2-3.12-2.03-1.74-4.35,6.23-10.4,10.43-21.65,13.82-33.23.42-1.43.41-3.23,1.67-3.23,5.52.98,10.11,1.71,14.68,2.61,8.48,1.67,16.84.87,25.18-.97.58-.13,1.34-.65,1.68-.44,5.01,3.11,10.23.02,15.31.57.79.08,1.83-.43,2.31.44.62,1.11-.58,1.64-1.1,2.37ZM409.9,435.3c-3.59,1.61-7.17,3.28-10.89,4.5-3.06,1.01-5.81-.98-8.43-2.15-2.49-1.11-4.13-1.03-5.31,1.4-1,2.07-3.03,2.25-4.77,2.75-8.93,2.57-18.02,4.5-27.11,6.41-4,.84-7.83,2.17-11.41,4.14-3.09,1.7-6.19,1.48-9.33.28-.65-.25-1.57-.37-1.46-1.26.06-.45.67-.99,1.16-1.2,2.5-1.1,5-2.23,7.57-3.13,13.27-4.63,26.5-9.31,40.34-12.11,6.16-1.25,12.29-2.96,18.08-5.55,1.14-.51,2.98-.9,2.7-2.37-.27-1.41-2.03-.74-3.12-.74-9.39-.02-18.46,2.02-27.5,4.33-8.64,2.21-16.85,5.59-25.24,8.55,5.91-4.18,11-9.25,16.89-13.28,3.04-2.08,6.82-2,10.24-2.93,11.42-3.14,23.33-3.25,34.98-5.04,1.62-.25,2.19.61,2.27,1.99.22,3.85,1.37,7.51,2.46,11.15.68,2.27-.39,3.48-2.14,4.27ZM349.04,383.34c1.32,6.44,2.61,12.96,4,19.46,1.2,5.6,2.4,11.22,4.86,16.43.85,1.8.73,2.81-1.09,3.71-3,1.49-5.38,3.88-8.05,5.85-1.23.9-2.24,1.11-2.03-1.05,1.36-14.37.54-28.79,1.09-43.17.02-.49-.21-1.25,1.22-1.23ZM374.38,406.12c-.53-12.46-3.16-24.56-6.09-36.62-1.15-4.74-.75-5.19,4.03-5.1,2.07.04,2.77,1.12,3.01,2.8.64,4.61,1.25,9.22,1.77,13.83.97,8.45,2.48,16.76,5.74,24.67.32.77.56,1.58.94,2.32,2.31,4.44,2.31,4.72-2.52,5.54-5.49.93-10.44,3.36-15.64,5.09-2.45.82-3.44.31-3.46-2.49-.07-7.53-1.15-14.99-2.44-22.38-1.72-9.87-3.81-19.68-8.22-28.8-1.09-2.26-.01-2.87,2.02-2.56,2.38.35,4.22.9,5.28,3.81,2.24,6.12,2.8,12.57,4.5,18.78,1.66,6.09,2.6,12.37,3.8,18.58.67,3.47,2.19,6.55,4.11,9.46.45.68.92,1.56,1.95,1.2.88-.31,1.17-1.17,1.19-2.04.04-2.03.01-4.06.01-6.09ZM412.47,406.33c.81,2.72.23,3.78-2.91,3.85-5.23.11-10.46.76-15.68,1.29-2.09.21-2.75-.47-3.18-2.63-2.54-12.74-5.17-25.47-6.93-38.35-.02-.12-.06-.23-.09-.35-.56-2.23-3.24-4.85-1.31-6.52,1.94-1.68,5.3-1.73,8.05-2.45,1.52-.4,1.81.71,2.08,1.79,1.99,7.77,2.75,15.73,3.6,23.67.57,5.33.9,10.69,1.5,16.02.17,1.51.8,2.99,1.35,4.43.33.87.79,1.95,1.89,1.92,1.46-.05,1.25-1.42,1.58-2.41,1.44-4.39,1.62-8.89,1.42-13.47-.35-10.65-1.58-21.13-6.06-30.99-.6-1.31-1.14-2.53,1.02-2.86,1.91-.29,4.27-2.27,4.99,1.47,1.23,6.43,2.57,12.83,3.68,19.28,1.52,8.8,2.43,17.72,4.98,26.32ZM440.62,423.58c-1.43.38-1.63-.42-1.44-1.56.19-1.17.49-2.33.59-3.51.49-5.95.48-5.99,6.43-4.72,5.86,1.25,11.78,1.29,17.73,1.27,1.27,0,3.57-.97,3.54,1.59-.03,2.03-1.11,3.38-3.61,3.5-7.85.39-15.53,2.04-23.24,3.42ZM444.42,433.69c8.36-1.72,16.19-.57,24.37-2.19-4.79,3.99-18.82,5.33-24.37,2.19ZM473.41,403.5c-.57,1.05-1.22,2.08-1.58,3.2-.57,1.76-1.7,2.07-3.33,1.74-8.81-1.76-17.76-1.81-26.68-2.01-2.26-.05-2.55-.83-2.25-2.82,2.2-14.37,3.61-28.79,1.35-43.3-.38-2.42,1.02-2.19,2.51-2,2.74.22,5.47.51,8.21.65,1.95.1,2.53,1,2.03,2.79-2.76,9.98-2.8,20.28-3.64,30.49-.26,3.17.27,6.17.67,9.23.17,1.28.64,2.9,2.09,2.99,1.35.09,1.59-1.54,2-2.62,2.22-5.84,3.01-11.98,3.91-18.12,1.17-7.92,1.63-15.87,2.12-23.84.19-3.07,2.82-2.39,4.64-2.57,4.13-.39,4.14-.3,3.36,3.69-1.06,5.4-1.53,10.84-1.42,16.34.05,2.58-.85,4.94-2.41,6.98-2.06,2.7-3.06,5.83-4.31,8.93-1.08,2.7-.07,3.42,2.09,3.98,3,.78,5.99,1.6,9,2.32,2.42.58,2.74,1.92,1.65,3.94ZM519.74,434.91c.38.13.91.65.91.98-.02,3.2-.11,6.4-.26,9.59-.03.63-.69,1.06-1.32.94-3.89-.73-8.02-.54-11.51-3.4,2.01,0,4.01.02,6.02-.01.57,0,1.31-.02,1.36-.8.04-.65-.51-1.03-1.1-1.23-.34-.11-.7-.14-1.04-.24-4.13-1.2-5-4.68-1.98-7.81.45-.46.97-.88,1.54-.55,2.31,1.32,4.93,1.67,7.38,2.53ZM532.75,384.09c-3.01,7.52-5.97,15.06-8.8,22.65-.74,1.99-1.24,2.72-3.48,1.49-8.81-4.83-18.12-8.36-27.98-10.54-8.21-1.82-16.54-2.95-25.41-4.55,4.79-5.02,7.79-10.66,10.93-16.24,3.57-6.35,6.64-12.92,9.13-19.74,1.16-3.19,2.85-4.34,6.18-3.61,2.83.62,5.56,1.59,8.03,2.93,8.98,4.83,18.33,3.14,27.58,1.68,5.38-.85,10.72-1.72,16.47-2.01-4.56,9.47-8.9,18.58-12.64,27.95ZM616.55,437.04c-1.33.68-2.73.21-3.28-1.22-1.09-2.86-2.69-1.89-4.45-.85-2.98,1.77-4.49,4.85-6.6,7.39-.74.89-1.29,1.94-2.52,2.49.17-4.52,6.62-12.65,10.61-13.71,1.75-.46,2.9.28,4.16,1.34,1.89,1.6,3.5,1.78,5.16-.73,1.75-2.66,4.61-4.32,7.43-6.01-2.04,5.11-5.65,8.82-10.5,11.3ZM647.14,404.56c-3.6-4.51-6.53-8.24-9.53-11.92-1.28-1.57-1.01-2.72.59-3.83,1.34-.92,2.98-1.61,3.39-3.88-5.3.29-9.93,2.32-14.5,4.4-13.04,5.94-25.28,13.3-37.15,21.29-.89.6-1.84,1.11-2.76,1.67-1.42.85-2.07.35-2.57-1.16-5.8-17.47-14.58-33.61-22.46-50.15-.59-1.25-2.82-2.24-1.85-3.49,1.08-1.4,3.14-.3,4.68.18,4.82,1.49,9.73.97,14.58.66,6.52-.42,13.01-1.22,19.51-1.83,3.95-.37,7.94-.14,11.75.82,3.73.94,7.45,1.65,11.27,1.86,1.47.08,2.47.47,2.87,2.07,1.51,6.12,4.55,11.48,8.33,16.46,2.37,3.12,5.29,5.15,9.44,4.66.67-.08,1.53-.1,1.62-1.05.07-.68-.52-.99-.99-1.36-6.15-4.84-8.38-12.28-12.26-18.61-.79-1.29-.04-2,1.29-2.21,4.76-.75,9.48-.04,14.2.46,1.09.12,1.59.92,1.57,2.04-.34,14.03-.67,28.06-1.03,42.93ZM624.43,352.26c-3.72.03-7.49-.27-10.97-1.32-9.25-2.79-18.49-1.57-27.64-.26-10.23,1.47-20.13.82-30.04-1.85-4.08-1.09-8.31-.37-12.47-.04-9.02.71-17.8,3.15-26.91,3.45-5.09.17-9.9-.39-14.12-2.95-6.37-3.85-12.73-4.39-19.91-2.65-9.72,2.35-19.61,4.05-29.59,5-1.66.16-3.34.12-5.01.1-.7,0-1.98-.28-1.81-.75,1.08-2.92-1.65-4.72-1.88-7.25-.38-4.24-2.78-5.79-6.93-4.59-4.17,1.2-8.01,3.13-11.23,6.07-1.33,1.22-2.61,1.66-4.45,1.68-5.65.06-11.07,1.75-16.51,3.03-9.61,2.27-19.03,5.38-28.83,6.88-5.84.9-11.86.96-17.42-.64-12.13-3.49-24.49-4.07-36.9-3.99-12.5.08-24.99,1.02-37.49,1.19-3.05.04-6.3-.78-9.28-1.61-8.41-2.33-16.92-3.09-25.5-2.21-7.57.78-15.17,1.63-22.54,3.75-2.09.6-3.76,1.11-2.86-2.44,1.01-3.93-2.25-6.7-6.16-5.72-5.06,1.27-9.31,3.77-11.86,8.45-.79,1.44-1.71,1.24-2.92,1.26-6.9.08-13.36-2.4-20.06-3.5-11.25-1.85-22.33-.87-33.47.8-7.69,1.15-15.43,2.33-22.7,4.9-6.54,2.31-13.75,2.89-19.75,7.2-.78-.76-.53-1.51-.44-2.18,1.33-10.47-.1-20.92-.26-31.38-.31-19.56.28-39.1,2.63-58.54.65-5.37.81-5.23,6.22-5.23,10.81-.02,21.63-.44,32.43-.19,5.73.13,11.44-.15,17.16-.01,2.17.05,2.94.74,1.63,2.77-.26.4-.45.84-.68,1.26-1.06,1.93-2.11,3.94-.4,5.96,1.66,1.97,3.99,2.07,6.27,1.45,1.64-.45,3.25-.38,4.9-.46,5.23-.25,7.91-4.23,9.9-8.25,1.21-2.45,2.47-2.89,4.87-2.89,12.26,0,24.53-.09,36.78-.33,7.62-.15,15.22-.08,22.84.25,5.58.24,11.18-.24,16.77-.38,7.98-.19,15.96-.24,23.95-.27,7.87-.03,15.73-.12,23.6-.13,13.95-.02,27.92.31,41.86-.08,10.23-.29,20.46-.02,30.69-.51,11.16-.53,22.37-.1,33.55-.17,14.41-.09,28.83-.24,43.24-.4,1.92-.02,3.07.48,2.49,2.69-.06.23-.12.48-.1.71.28,2.65-1.66,5.38.3,7.98,2.13,2.83,4.79.84,7.26.92,5.73.18,11.08-3.45,12.42-9.17.57-2.43,1.6-2.98,3.86-3.03,8.21-.2,16.45-.47,24.64-.54,11.38-.1,22.8.19,34.19.21,12.5.02,25-.59,37.51-.69,11.32-.1,22.66.52,33.96.07,10.13-.4,20.25.61,30.38-.51,3.75-.41,7.61.24,11.42.36,1.77.06,2.18.99,2,2.59-1.23,11.25-.97,22.56-1.11,33.85-.05,4.06,1.01,8.05.5,12.13-.2,1.58-.71,2.33-2.28,3.09-6.3,3.02-10.64,7.98-12.73,14.68-1.1,3.51,1.32,6.21,5.23,6.24,3.04.02,5.43-1.68,7.96-2.99,1.6-.83,2.33-.72,2.31,1.38-.04,4.89.18,9.78.17,14.67,0,4.42-3.43,7.14-7.58,5.38-10.84-4.6-22.02-2.43-33.11-2.33ZM665.1,367.03c-.53,10.95-1.16,21.9-1.71,32.85-.72,14.43-.13,28.82,1.56,43.16.24,2.07-.45,2.78-2.4,3-6.65.74-7.08.39-7.43-6.29-.26-4.99-1.27-9.94-1.04-14.97,1.29-11.53.28-23.1.62-34.66.25-8.44.02-16.9-.29-25.35-.09-2.5.62-2.95,2.78-2.49.92.2,1.91.17,2.85.1,5.23-.41,5.3-.42,5.06,4.66Z"/>
  <path d="M486.02,105.9c1.1.75,2.17.48,2.94-.32,5.16-5.35,8.75-11.53,9.79-18.51-.1-1.57.12-2.73-.93-3.45-.62-.43-1.14-.04-1.54.43-4.76,5.68-9.25,11.53-11.43,18.78-.4,1.32.06,2.31,1.18,3.07Z"/>
  <path d="M477.44,107.45c2.89-.36,2.75-3.14,2.88-5.72-.59-4.07-1.17-8.44-3.68-12.24-.5-.76-.67-1.97-1.91-1.81-1.22.16-1.57,1.27-2.06,2.24-2.23,4.37-.38,8.64.31,12.92.4,2.45,1.53,4.98,4.46,4.61Z"/>
  <path d="M380.84,251.57c2.37,0,3.77-1.57,5.13-3.05,1.46-1.59,1.66-3.53.13-5.17-1.52-1.62-3.45-1.47-5.25-.37-.79.49-1.35,1.44-2.18,1.78-1.94.8-3.04,2.04-2.4,4.12.68,2.2,2.71,2.45,4.58,2.68Z"/>
  <path d="M568.91,324.75c-1.52-4.66-4.82-6.45-9.37-4.85-4.39,1.54-8.43,3.89-12.34,6.37-1.97,1.25-2.47,3.56-1.82,5.72.67,2.22,2.5,2.7,4.61,1.9,1.83-.69,2.21.59,2.76,1.84,1,2.27,2.67,3.61,4.64,3.43,4.1-.15,7.12-1.48,9.97-3.28,4.62-2.91,4.97-4.39,2.29-9.13-.34-.61-.52-1.32-.73-1.99Z"/>
  <path d="M520.55,281.89c-.21.12-.4.27-.58.42-2.75,2.26-5.59,4.43-8.22,6.82-1.52,1.38-4.16,3.12-2.77,5.2,1.5,2.25,3.29,5.15,6.7,5.19,2.48.03,4.97-.59,7.25.3,4.36-.32,5.99-3.91,8.26-6.5,1.91-2.18,3.34-4.84.86-7.69-2.61-3-9.07-5.09-11.5-3.73Z"/>
  <path d="M186.24,304.57c-4.1,2.23-7.54,5.41-10.05,9.45-.65,1.05-1.22,2.3-.23,3.31,3.11,3.17,6.6,6.27,10.97,6.91,3.71.54,5.02-3.43,6.84-6.01,1.03-1.46,2-2.97,3.06-4.41.66-.91,1.02-1.88,1-2.99.05-4.2-7.48-8.48-11.59-6.25Z"/>
  <path d="M259.22,313.72c-5.31,1.99-9.29,5.78-12.91,9.92-1.84,2.1-.42,5,2.41,5.04,1.55.02,2.65.18,3.67,1.51.99,1.29,2.68,1.42,4.03,1.48,4.64-.1,12.95-7.26,13.74-11.52.31-1.64-.45-2.8-1.34-3.9-1.54-1.9-7.3-3.4-9.6-2.54Z"/>
  <path d="M325.32,329.2c-3.54,1.98-6.7,4.55-9.74,7.24-1.44,1.28-1.97,3.14-.81,4.48,1.75,2.03,3.66,4.6,6.28,5,3.6.55,7.37,0,11.06-.09.2,0,.43-.23.57-.41,2.15-2.91,3.34-6.25,4.38-9.07-.07-4.98-7.74-9.39-11.73-7.16Z"/>
  <path d="M616.38,327.04c-5.32-5.55-6.34-5.58-12.28-.54-.72.61-1.52,1.14-2.26,1.73-3.11,2.51-5.46,5.63-7.06,9.26-.98,2.21.71,4.66,2.45,3.66,4.03-2.29,8.08.25,11.05-.73,5.42.26,10.92-7.48,9.23-11.6-.27-.65-.65-1.29-1.13-1.8Z"/>
  <path d="M454.11,301.64c-2.33-1.28-4.36-.27-6.29,1.07-3.51,2.44-7.02,4.87-10.5,7.34-1.64,1.16-2.86,2.61-2.14,4.81.7,2.12,6.39,5.72,8.66,5.24,3.69-.79,7.55-1.5,10.35-4.33,2.33-2.36,3.15-5.27,1.97-7.87.3-2.89.19-5.02-2.04-6.25Z"/>
  <path d="M635.04,273.3c-4.16,1.9-7.6,4.81-11.14,7.65-3.06,2.45-2.02,5.12-1,7.71,1.08,2.73,3.46,4.08,6.38,3.25,3.19-.9,6.42-1.95,9.3-3.53,1.81-1,3.87-2.51,3.84-5.24-.46-2.12-.81-4.24-.86-6.5-.07-3.49-3.2-4.84-6.52-3.33Z"/>
  <path d="M358.33,292.27c-6.02,2.53-10.64,7.15-15.63,11.18-.71.58-1.38,1.45-.73,2.51.61,1,1.62.98,2.55.65,1.92-.67,3.06-.15,3.92,1.77.81,1.79,2.66,2.37,4.5,2.42,3.11.08,13.96-11.12,13.92-14.26-.04-3.32-4.76-5.86-8.54-4.28Z"/>
  <path d="M307.07,282.76c-7.59.48-12.6,5.68-18.23,9.74-1.14.82-1.62,2.99-.35,3.32,3.02.78,4.66,3.67,7.51,4.37,5.04,1.24,16.39-8,16.31-13.13-.05-2.98-2.14-4.5-5.23-4.3Z"/>
  <path d="M130.54,296.71c.33-1.01.51-2.13,1.05-3.02,1.74-2.85,1.38-5.33-1.44-7.05-3.88-2.38-8.46-2.04-10.44.54-1.3,1.7-2.57,3.42-3.75,5.2-2.93,4.41-3.04,7.53-.57,9.98,1.73,1.73,3.75,1.85,5.83,1.44,5.5-.33,7.61-1.96,9.31-7.09Z"/>
  <path d="M233.17,281.46c-2.36-1.29-4.86-.78-6.95,1.11-1.85,1.68-3.66,3.42-5.61,4.99-2.94,2.36-2.33,5.04-1.2,8.04,1.1,2.93,3.37,3.41,5.97,3.58,6.75.01,10.08-3.42,9.85-10.13-.02-.47.03-.97.17-1.41.84-2.64.04-4.92-2.23-6.17Z"/>
  <path d="M416.12,273.76c-3.15,2.09-6.01,4.64-8.52,7.59-2.74,3.23-.33,5.64,1.03,8.03,1.18,2.06,3.34,2.84,5.92,2.21,6.1-1.49,9.76-6.31,9.82-13.17.04-4.65-4.3-7.28-8.25-4.66Z"/>
  <path d="M140.39,318.63c-2.74-1.56-4.84.59-6.84,2.37-2.49,2.22-4.56,4.81-6.72,7.33-2.16,2.53.07,4.44.65,6.55.48,1.74,1.79,2.78,3.56,2.6,5.88.02,12.02-5.16,12.76-10.8.43-3.27-.52-6.4-3.42-8.05Z"/>
  <path d="M578.38,286.21c-4.37,1.99-7.82,5.3-10.65,9.17-.9,1.22-1.31,2.77.4,3.69,2.08,1.12,4.17,2.34,6.22,2.41,2.23.13,7.29-1.61,10.08-3.3,3.82-2.31,4.87-4.53,3.49-7.44-2.01-4.23-5.78-6.24-9.54-4.53Z"/>
  <path d="M387.45,327.1c-.25.05-.75.06-1.18.24-4.22,1.77-7.63,4.75-11.19,7.5-.93.71-.94,1.8-.34,2.91.74,1.35,1.29,2.79,2,4.15,1.08,2.05,2.94,2.77,5.1,2.45,4.12-.6,10.42-7.73,10.66-11.92.18-3.1-1.9-5.4-5.05-5.33Z"/>
  <path d="M485.85,325.69c-4.99,1.77-8.44,5.56-11.49,9.7-.85,1.14-1.09,2.91.34,3.42,2.27.8,4.67,1.3,6.69,2.38,3.85-1.16,6.9-3.23,9.77-5.54,2.01-1.62,3.67-3.63,2.38-6.44-1.46-3.16-4.53-4.64-7.68-3.52Z"/>
  <path d="M594.98,240.13c-7.16-.4-12.63,2.59-16.78,8.25-1.25,1.7-.66,3.09.93,4.26,2.21,1.62,4.66,1.59,7.14,1.1,3.78.06,7.55-.22,10.84-1.97,2.65-1.41,6.26-2.54,6-6.58-.18-2.88-3.65-4.81-8.12-5.06Z"/>
  <path d="M555.31,231.19c1.77.91,3.72.74,6.58,1.02-.14,0,.72.18,1.52.05,2.8-.47,4.94-2,5.67-4.76.62-2.35-.65-4.24-2.77-5.26-3.39-1.63-9.69-.12-12.21,2.75-1.94,2.22-1.42,4.84,1.21,6.19Z"/>
  <path d="M561.51,218.9c2.2-.21,4.65-.5,6.65-2.27,1.21-1.08,2.23-2.26,1.79-3.97-.41-1.62-1.68-2.42-3.27-2.92-3.21-1-5.33.05-7.76,2.39-1.41,1.35-2.63,2.17-2.17,4.11.55,2.31,2.47,2.61,4.75,2.66Z"/>
  <path d="M373.9,88.93c.74,1.01,1.43,1.94,2.83,2.19,1.36.24,2.54-.43,2.65-1.83.22-2.97-.43-5.58-2.7-7.75-1.58-1.51-3.41-1.56-5.32-1.37-.68.07-1.2.66-1.45,1.41.48.32,1.26.29,1.27,1.22,0,.36.44.64,1.03.61,1.3-.08,2.21.64,2.84,1.77-1.82.62-2.26,2.24-1.14,3.75Z"/>
  <path d="M384.11,34.77c2.22.93,3.63-.53,5.08-1.83.96-.86,1.57-2.09,2.8-2.68.04-.02.1-.06.11-.1.26-2.64,1.46-.78,2.53-.68,4.04.38,8.05,1.73,12.17-.32,2.73-1.36,5.08-2.97,6.98-5.29.16-.19.25-.43.37-.66.43-.83.8-1.81.13-2.52-.87-.92-1.73-.07-2.49.45-1.74,1.19-2.96,2.97-4.84,4.03-2.73,1.53-5.56,2.6-8.74,2.18-1.22-.16-2.42-.59-3.62-.92-.95-.26-1.4-.75-1.18-1.87.23-1.22-.18-2.39-.99-3.34-.66-.78-1.71-1.25-2.55-.79-.86.47-1.51,1.45-1.23,2.65.26,1.15,0,2.32.15,3.51.18,1.43-.99,2.57-2.03,3.51-.96.86-2.1,1.51-3.13,2.29-.48.37-1.27.71-1.07,1.43.17.61.75,1.06,1.56.95Z"/>
  <path d="M378.75,37.52c1.05,0,1.81-.79,2.4-1.54.86-1.1.3-1.83-1.67-2.2-2.64-.98-5.62-.75-8.45-1.33-1.32-.27-2.86-.38-3.99-1.44-.66-.62-1.58-.68-2.2-.1-.51.47-.1,1.23.19,1.79.93,1.81,2.49,3,4.28,3.75,3.01,1.27,6.26,1.04,9.44,1.07Z"/>
  <path d="M382.97,41.87s0,.02,0,.02c0,0,.02,0,.03.01l-.02-.04Z"/>
  <path d="M379.49,41.84c-1.21,1.32-2.24,2.81-3.66,3.94-.51.41-1.14.97-.48,1.76.63.75,1.32.72,2.1.19,1.74-1.18,3.23-2.64,4.72-4.11.49-.48.63-1.11.78-1.73-.3-.15-.67-.25-.87-.48-1.14-1.31-1.8-.44-2.6.43Z"/>
  <path d="M386.58,44.46c-1.95,1.21-4.09,1.93-6.23,2.68-1.35.47-2.23,1.6-2.91,2.36-.37.88-.25,1.42.07,1.78.42.48.84-.05,1.17-.25,1.45-.9,2.73-2.08,4.33-2.75,1.56-.64,2.89-1.61,4.21-2.64.45-.35,1.03-.66.77-1.21-.34-.71-1.03-.22-1.41.02Z"/>
  <path d="M383,41.88s-.02,0-.03,0c0,0,.02.04.02.04,0,0,0-.02,0-.03Z"/>
  <path d="M384.26,41.91c.49-.21.22-.55.19-.86-.03-.29,0-.64-.39-.68-.31-.03-.59.15-.71.43-.15.34-.24.72-.35,1.08.41.15.82.21,1.26.03Z"/>
  <path d="M379.71,122.3c3.13,2.25,6.33,4.26,9.98,5.57,1.18.43,2.36.99,3.51,1.55.67.33,1.09.13,1.36-.4.35-.67-.42-.7-.7-.87-2.86-1.68-5.81-3.22-8.61-4.98-1.46-.92-2.68-2.2-4.01-3.33-1.54-1.31-3.03-2.68-5.13-3.18,1.26,1.86,1.59,4.19,3.6,5.64Z"/>
  <path d="M327.2,131.03c-.69.08-.79.66-.95,1.08.04.66.44.68.86.68.66,0,1.06-.35,1.01-1-.04-.5-.38-.81-.92-.75Z"/>
  <path d="M259.02,115.05c-1-.58-1.96-1.33-1.96-2.69,0-.53-.16-1.09.85-.92,1.17.2,1.58-.65,1.2-1.64-.87-2.26-2.61-3.86-4.65-5-1.11-.61-2.24.23-3.13.98-.41.35-.34,1.07.11,1.35.85.51,1.81.84,2.58,1.18.83-.36,1.13.01,1.41.49.29.5.28.93-.11,1.39-2.04,2.44-.09,6.33,2.25,7.4.88.4,1.59.3,2.07-.57.46-.85.29-1.45-.63-1.98Z"/>
  <path d="M307.99,123.63c-.86-.04-1.34.52-1.28,1.34.08,1.19,1.14,1.06,1.82,1.26.86.03,1.28-.33,1.22-1.08-.08-1.07-.83-1.47-1.76-1.51Z"/>
  <path d="M309.82,129.6c.03.91.43,1.62,1.38,1.6.74-.02,1.11-.65,1.03-1.4-.1-.9-.6-1.52-1.55-1.51-.8.01-.88.66-.86,1.31Z"/>
  <path d="M312.73,120.56c.83-.08,1.59-.45,1.6-1.45,0-.57-.38-.9-1.01-.92-.69.38-1.83.2-1.86,1.41-.02.79.65,1.03,1.27.97Z"/>
  <path d="M316.81,136.97c1.01-.08.7-1.17.91-1.81.19-.57-.33-.97-.89-.91-.74.07-1.12.58-1.14,1.37.11.66.41,1.4,1.12,1.35Z"/>
  <path d="M305.2,120.48c-.85.17-1.7.37-1.74,1.49-.01.4,0,.83.65.85.81-.23,1.46-.73,1.62-1.66.04-.25.04-.79-.53-.68Z"/>
  <path d="M580.46,143.91c-2.14.21-3.34,1.26-2.97,2.72.26,1.05.46,2.52,2.25,2.25,1.96-.3,3.33-1.43,3.18-2.76-.18-1.6-1.28-2.08-2.47-2.21Z"/>
  <path d="M600.06,145c.26,1.05.46,2.52,2.25,2.25,1.96-.3,3.33-1.43,3.18-2.76-.18-1.59-1.28-2.08-2.47-2.21-2.14.21-3.34,1.26-2.97,2.72Z"/>
  <path d="M529.94,158.74c1.49-.23,2.58-1.64,2.29-3.02-.26-1.24-.77-2.24-1.98-1.79-1.82.38-2.86,1.29-2.53,2.7.2.87.61,2.36,2.22,2.11Z"/>
  <path d="M572.49,153.34c-1.62.19-2.79,1.73-2.53,3.12.23,1.21,1.13,1.66,2.23,1.64,1.02-.02,2.73-1.9,2.55-2.8-.27-1.3-1.26-1.8-2.25-1.96Z"/>
  <path d="M584.77,159.9c1.38-.32,1.86-1.42,1.75-2.33-.35-1.53-.51-2.84-2.06-2.38-1.22.36-2.46.99-1.96,2.73.33,1.17.79,2.33,2.27,1.99Z"/>
  <path d="M592.63,146.89c-1.28.32-2.44,1.12-2.23,2.71.2,1.56,1.49,1.71,2.74,1.82,1.56-.42,1.69-1.62,1.57-2.9-.11-1.25-.93-1.93-2.08-1.64Z"/>
  <path d="M523.11,165.04c-.59-.9-1.02-2.37-2.58-2.03-1.37.3-2.09,1.19-1.85,2.72.26,1.11.74,2.07,2.1,2.05.9-.01,2.74-2.1,2.33-2.73Z"/>
  <path d="M515.52,180.42c1.37-.1,2.24-.7,1.98-2.16-.22-1.25-.68-2.43-2.33-1.97-1.43.05-2.25.6-2.1,2.12.15,1.5.97,2.12,2.45,2.02Z"/>
  <path d="M522,189.2c1.23.03,2.27-.94,2.26-2.38,0-1.45-1.02-1.94-2.6-2-1.01.2-1.86.92-1.91,2.24-.05,1.46,1.24,2.12,2.25,2.15Z"/>
  <path d="M515.29,200.32c1.23.03,2.27-.95,2.26-2.38,0-1.45-1.02-1.94-2.6-2-1.01.21-1.86.92-1.91,2.24-.05,1.46,1.24,2.12,2.25,2.15Z"/>
  <path d="M528.96,174c-.16-.97-.85-1.98-2.24-1.72-1.27.24-1.33,1.44-1.31,2.23.02.61.39,1.86,1.72,1.47,1.03-.28,2-.91,1.83-1.99Z"/>
  <path d="M521.94,208.33c1.03-.28,2-.91,1.83-1.99-.16-.97-.85-1.98-2.24-1.72-1.27.24-1.33,1.44-1.31,2.23.02.61.39,1.86,1.72,1.47Z"/>
  <path d="M557.28,154.84c-2.28.4-1.92,2.14-1.93,3.42,0,1.28,1.34,1.39,2.17,1.14,1.29-.4,1.75-1.62,1.61-2.92-.13-1.15-.72-1.89-1.84-1.64Z"/>
  <path d="M511.81,188.81c-1.05.33-2.4.88-2.23,2.45.15,1.32,1.03,2.16,2.34,1.99,1.57-.2,1.27-1.63,1.42-2.72-.35-.77-.35-2.09-1.53-1.72Z"/>
  <path d="M594.56,177.8c1.19-.08,1.97-.8,1.66-2.03-.25-1.02-.67-2.06-2.17-1.91-1.78.18-1.57,1.32-1.41,2.3-.08,1.64.96,1.7,1.92,1.64Z"/>
  <path d="M600.72,202.92c-.07,1.4.82,1.98,1.82,2.25,1.88.12,3.06-.62,2.95-1.94-.08-.94-.04-2.24-1.64-2.26-1.74-.02-3.08.77-3.14,1.94Z"/>
  <path d="M648.31,199.41c-1.32,0-2.46,1.06-2.4,2.29.05,1.11.35,2.04,1.46,1.83,1.63-.07,2.66-.71,2.57-1.98-.05-.78-.19-2.13-1.63-2.14Z"/>
  <path d="M610.75,198.13c1.43.06,2.65-1.11,2.62-2.34-.03-1.08-.74-1.6-1.7-1.73-.89-.13-2.63,1.26-2.59,2.06.05,1.16.84,1.73,1.68,2.01Z"/>
  <path d="M615.45,206.48c1.07.11,1.4-.54,1.5-1.32.18-1.53-.69-2.55-2.18-2.6-1.23-.27-1.58.63-1.71,1.61-.15,1.12,1.12,2.19,2.4,2.31Z"/>
  <path d="M600.65,194.86c1.11-.14,2.26-.51,2.08-2.08-.12-1.06-.36-2.12-1.69-2.04-1.23.08-1.81.97-1.84,1.77.09,1.37.05,2.53,1.45,2.35Z"/>
  <path d="M592.42,200.89c1.16-.1,2.27-.62,2.31-2.03.04-1.38-1.05-1.69-2.12-1.96-1.41.14-1.68,1.16-1.77,2.29-.08,1.1.54,1.8,1.57,1.71Z"/>
  <path d="M525.21,196.77c1.24.15,2.03-.21,2.11-1.54.08-1.32-.54-1.97-1.83-2.09-1.2-.11-2.03.29-2.01,1.6.02,1.11.25,2.2,1.74,2.03Z"/>
  <path d="M626.22,208.47c1.35.24,1.71-.77,1.95-2,.03-.84-.31-1.68-1.4-1.76-.88-.06-2,.2-2.16,1.16-.19,1.14.21,2.35,1.61,2.6Z"/>
  <path d="M637.83,207.95c.04,1.08.89,1.99,1.97,1.98,1.25,0,1.79-1.09,1.78-2.25,0-1.05-.72-1.57-1.72-1.61-1.14.18-2.08.72-2.03,1.88Z"/>
  <path d="M594.2,185.77c.05.79.46,1.17,1.3,1.05,1.11-.17,1.91-.62,1.91-1.97-.09-.66-.22-1.37-1.19-1.38-1-.02-2.09,1.21-2.02,2.31Z"/>
  <path d="M595.93,207.64c-.77.18-1.79.04-2.01,1.05-.11.49.31,1.01.99.92.83-.1,1.71-.25,1.9-1.23.1-.51-.25-.89-.88-.74Z"/>
  <path d="M569.23,75.88c.31.21.63.4.96.59.51.29.85.63.63,1.31-.62,1.84.4,3.05,1.76,3.96,1.16.78,2.44,1.41,3.72,1.99,2.53,1.14,5.63.14,7.15-2.15.33-.5.57-.87.2-1.45-.47-.73-.95-.22-1.41-.06-3.2,1.1-6,.25-8.61-1.78,2.64,1.08,4.85-.26,7.1-1.2.77-.32,1.37-.96,1.02-1.93-.33-.92-1.08-1.02-1.87-.71-2.4.96-4.63.23-6.74-.77-2.76-1.31-5.06-3.13-5.17-6.58-.05-1.52.04-3.04,0-4.56-.05-1.51-.23-3.03-.83-4.43-.33-.77-1.07-1.52-1.86-1.29-.66.19-.56,1.18-.4,1.88.38,1.69-.12,3.35-.34,4.97-.69,5,.37,9.21,4.7,12.22Z"/>
  <path d="M585.24,110.97c.28.16.53.37.78.57.9.69,1.31.53,1.36-.67.09-2.14,1.37-3.86,3.1-4.59,2.08-.87,3.11-2.44,4.08-4.15,1.85-3.27,1.19-6.67.23-10.05-.38-1.35-.91-2.55-2.23-3.23-.43-.22-.9-.55-1.35-.14-.36.32-.27.83-.15,1.23.33,1.11.37,2.24.41,3.37.03,1.33-.34,2.58-.69,3.83-1.18,4.2-3.92,7.55-6.1,11.19-.87,1.45-.94,1.74.57,2.62Z"/>
  <path d="M579.48,59.4c2.11,2.32,4,4.7,5.34,7.65,1.58,3.46,1.34,6.89,1.1,10.42-.04.62-.19,1.32.4,1.62.71.36,1.12-.41,1.33-.85.99-2.04,1.85-4.14,1.86-6.29-.26-3.33-.63-6.48-2.68-9.04-2.04-2.55-4.31-4.88-7.5-6.03-.41-.15-.87-.46-1.17-.02-.27.41-.15.94.21,1.35.37.4.74.8,1.1,1.2Z"/>
  <path d="M578.51,67.56c.5.56,1.08,1.08,1.85,1.27.35.08.75.34,1.07.03.31-.3.2-.7.07-1.07-1.56-4.44-4.29-7.82-8.76-9.62-.96-.39-1.46-.17-1.46.54-.04,1.08.27,1.65.76,2.08,2.35,2.07,4.37,4.45,6.46,6.77Z"/>
  <path d="M577.46,73.56s.52.02,1.01-.14c.4-.13.93-.04.99-.64.06-.64-.33-1.06-.9-1.19-2.61-.56-4.47-2.29-6.42-3.94-.56-.47-1.31-1.6-1.92-1.04-.74.67-.6,2.11,0,2.87,1.72,2.18,3.74,4.04,7.25,4.07Z"/>
</svg>