<svg width="401" height="780" viewBox="0 0 401 780" fill="none" xmlns="http://www.w3.org/2000/svg">
<path d="M3.8161 79C3.8161 41.9969 33.813 12 70.8161 12H326.816C363.819 12 393.816 41.9969 393.816 79V775H3.8161V79Z" fill="#FD6251"/>
<path d="M92.2331 0.122038C104.833 -0.190596 121.35 0.143685 133.902 0.602505C137.836 0.744807 135.844 1.38091 138.559 1.50778C143.871 1.7551 148.819 1.44313 154.067 1.73776C155.807 1.83851 153.641 2.84609 155.465 2.92867C165.46 3.37396 174.915 3.11732 185.04 3.3315C232.405 4.33513 279.005 4.72674 326.816 5.15685C329.61 5.17973 332.389 5.3574 335.161 5.69286C353.602 7.51229 373.663 19.8003 385.001 34.7276C386.354 36.4499 386.281 34.8826 386.59 35.1743C391.319 39.9773 388.572 39.1899 390.551 42.9602C396.004 53.8167 399.185 66.6913 399.168 79C399.187 83.5388 399.25 87.9831 399.347 92.2388C399.495 98.5933 401.251 92.222 400.265 98.6203C400.199 99.0647 399.26 97.4523 399.159 99.195C398.934 103.147 399.102 110.645 399.028 113.708C398.879 119.611 398.889 120.587 398.878 126.171C398.855 133.803 398.389 142.882 398.601 151.071C398.65 152.819 399.612 150.505 399.776 153.292C399.94 156.083 399.858 163.464 399.631 165.952C399.404 168.442 398.647 167.382 398.474 167.822C397.01 171.446 399.037 179.985 399.088 181.083C399.942 201.114 398.787 218.291 398.79 237.093C398.795 251.367 399.177 266.63 399.124 280.211C399.058 296.392 398.537 310.106 398.626 325.826C398.635 327.485 399.767 325.541 399.779 327.567C399.911 349.094 399.787 370.471 399.023 391.905C398.946 394.055 397.952 391.285 397.815 393.432C396.998 406.581 395.036 427.386 399.363 435.195C399.194 444.102 399.019 454.915 398.147 462.883C397.586 468.021 396.503 463.031 396.965 469.342C397.068 470.765 398.016 468.914 398.099 471.049C398.446 480.036 398.138 489.854 398.628 498.745C398.73 500.553 399.579 500.059 399.732 500.572C400.971 504.878 398.923 512.047 398.774 513.609C397.664 525.509 398.101 534.2 398.074 545.286C398.067 547.858 399.208 544.817 399.243 547.293C399.406 560.131 399.308 573.431 398.802 586.002C398.687 588.799 397.714 586.227 397.61 587.563C397.159 593.455 398.995 594.761 398.598 600.412C398.517 601.604 397.685 600.932 397.594 601.15C396.159 604.551 398.192 607.506 398.237 608.38C398.85 619.446 396.728 626.519 397.028 637.209C397.066 638.488 398.119 635.604 398.162 639.199C398.453 663.148 398.163 688.478 397.321 712.184C397.192 715.869 396.4 713.238 396.303 713.47C394.779 717.25 396.821 719.696 396.898 720.898C397.451 730.379 395.739 739.236 398.171 745.678C397.965 755.463 397.891 765.237 397.864 775L397.907 779.004L393.816 779.048C363.513 778.966 333.311 779.345 303.192 777.698C302.686 777.673 303.593 776.667 302.583 776.621C290.42 776.057 292.756 777.619 284.708 779.53C282.681 780.01 276.514 777.703 275.968 777.534C273.98 776.91 276.042 775.415 275.376 775.294C269.867 774.346 270.765 779.293 263.333 779.294C263.101 779.286 264.077 778.376 263.454 778.285C261.516 778.001 259.594 778.363 257.698 778.049C253.358 777.324 251.812 774.92 245.184 776.319C244.345 776.501 245.626 779.307 238.991 779.174C236.346 779.119 224.637 779.167 221.356 778.985C218.078 778.804 220.329 777.9 220.095 777.86C211.264 776.665 214.613 776.169 210.188 774.399C205.764 772.635 206.991 776.842 205.188 777.311C203.381 777.779 196.906 776.793 195.315 776.45C193.725 776.107 195.708 775.532 194.294 775.338C184.918 774.069 190.179 777.426 187.089 778.093C179.806 779.674 174.133 776.555 167.464 776.249C165.66 776.167 167.133 776.877 165.526 776.943C159.163 777.197 155.336 776.224 148.097 777.116C146.913 777.262 141.06 779.137 137.272 777.761C136.736 777.562 138.26 776.785 135.548 776.611C131.497 776.35 124.198 776.18 119.843 776.439C116.628 776.632 120.313 777.913 116.266 777.515C114.468 777.337 117.801 776.588 114.422 776.316C111.061 776.045 102.467 776.078 99.1974 776.104C95.9333 776.13 97.7199 777.102 97.4562 777.168C95.8599 777.542 89.5955 778.011 89.0418 778.01C61.119 778.128 35.3697 776.491 8.18318 777.033C6.04971 777.074 7.47084 778.098 7.1453 778.115C5.39551 778.218 4.39542 778.14 3.8161 777.949L0.898765 777.98L0.866954 775C1.47272 773.161 3.214 775.562 3.90734 771.682C1.82824 772.419 2.2047 769.407 1.97668 764.262C1.86512 761.783 1.06007 763.133 0.977661 762.907C-0.245103 759.231 1.33426 756.67 1.65735 756.011C2.84583 753.576 1.44155 750.926 2.23596 749.269C3.02442 747.613 4.19331 751.424 4.17833 746.49C3.43409 745.106 1.48917 748.77 1.17395 745.023C-0.0183659 730.889 1.50762 704.504 1.66614 693.139C1.82452 681.797 1.6872 678.133 1.95617 671.524C2.4425 659.586 0.999497 663.961 0.338991 656.548C-0.321436 649.113 3.22904 652.728 3.9923 651.659C4.75521 650.61 3.96987 649.464 4.38927 648.159C4.80857 646.859 5.32753 649.675 5.48497 646.615C5.64226 643.555 4.285 635.186 3.48693 634.101C1.79616 631.807 0.0216275 635.579 0.645143 627.479C0.682145 627.014 1.61573 628.525 1.71008 626.742C2.42879 612.575 2.47334 597.858 3.109 583.709C3.19787 581.764 4.23645 583.503 4.29992 582.371C4.96421 570.578 3.21304 574.794 1.2677 568.33C3.85653 569.781 5.44039 566.207 5.45567 557.257C5.46577 551.876 4.3351 552.803 3.5382 549.323C3.29797 548.279 4.07433 544.472 3.54259 543.782C1.80442 541.507 -0.141366 545.093 0.633424 535.865C0.670244 535.46 1.6217 536.749 1.67932 535.35C2.05648 526.307 0.238369 525.225 0.0181914 515.451C-0.154573 507.789 0.954088 494.163 1.1344 485.439C4.045 485.622 3.37851 477.382 1.3717 474.039C1.45386 468.378 1.34041 462.262 1.6178 456.79C1.71236 454.907 2.55506 456.144 2.64611 455.907C4.07447 452.265 2.12207 449.804 2.04553 448.582C1.30148 435.337 2.78124 424.545 1.33508 411.905C1.283 411.456 -0.738793 410.729 0.737427 407.35C0.839186 407.132 1.75906 411.307 1.8302 405.36C1.90149 399.413 2.98532 388.202 2.04846 379.946C1.82291 377.948 0.181633 372.894 1.46399 368.838C1.63812 368.298 2.21798 368.889 2.54064 368.109C3.56879 365.587 1.52527 364.211 3.26135 361.247C4.99735 358.283 6.29749 352.119 5.09972 343.792C5.06489 343.527 3.44521 341.556 3.47082 338.937C3.51309 334.757 3.85051 328.823 3.83996 324.459C3.83432 322.369 2.82857 323.707 2.81017 323.344C2.24659 309.293 3.14321 299.293 3.53234 284.24C3.60566 281.48 2.23417 273.551 3.31847 268.209C4.50545 262.343 9.44306 268.371 8.2667 254.888C7.79619 249.45 1.53194 242.565 4.77745 232.793C3.97324 213.84 5.63428 196.312 4.48595 177.306C4.43507 176.451 2.68677 173.749 2.71057 171.739C2.74927 168.756 3.5664 167.119 3.62023 164.989C3.86636 156.064 3.16725 147.896 3.27599 139.291C3.3155 136.024 4.16041 137.166 4.20763 133.27C4.25407 129.376 3.14149 126.779 3.67882 121.502C4.0884 117.516 6.36248 113.531 6.62755 108.241C4.38442 108.039 4.43062 104.406 3.83849 97.9484C3.7236 96.7071 2.94288 98.0381 2.84826 97.4509C2.44587 95.0611 3.09292 92.8496 2.6549 90.5805C2.5497 90.0284 1.78366 90.0024 1.65442 89.5511C0.676448 86.2247 1.84119 81.0312 2.36406 79C2.44436 78.6797 2.51163 78.4375 2.55305 78.2902C3.76765 74.1111 2.99125 72.0923 3.88347 68.9431C4.83396 65.8463 4.61293 70.6426 5.49844 67.0333C7.31955 59.6008 10.762 50.3921 15.0002 43.9146C16.6761 41.3353 14.6852 42.5344 14.9044 42.1525C18.2627 36.5341 23.5254 32.596 24.8291 28.687C31.7117 29.7479 27.2375 25.4354 35.792 21.1467C36.4823 20.8369 38.4799 22.5167 36.3804 24.2411C34.3052 25.9612 30.4958 27.7382 28.0666 30.6725C27.4218 31.3529 25.5232 36.5038 25.2461 37.0889C22.648 41.638 19.3991 40.0648 19.0201 40.1656C15.1799 41.4647 14.0492 48.313 13.5717 49.7909C10.937 56.7329 8.66693 62.6218 8.22078 68.8006C7.99474 72.8405 10.4328 73.4304 10.1895 76.423C10.1295 77.3265 10.0653 78.1822 9.99822 79C9.32516 87.9728 6.75548 92.0233 9.43711 101.499C10.066 103.734 12.7305 101.513 10.6353 109.519C10.5033 110.022 8.58656 115.966 9.79892 119.4C9.95178 119.832 10.7283 119.818 10.7935 120.387C11.2155 124.199 10.5969 126.741 10.8932 130.894C11.1894 135.046 11.6311 140.04 11.3678 144.781C11.2103 147.638 9.76348 151.304 9.40927 152.672C8.38889 156.534 10.0619 160.675 8.82627 163.068C7.58443 165.48 5.69849 160.763 4.89611 167.09C6.91359 167.325 8.98434 167.863 11.0133 168.24C10.9422 182.105 10.2899 195.748 10.379 209.66C10.3921 211.384 11.4767 209.621 11.5186 211.47C11.691 219.27 10.9178 226.084 11.2257 234.174C11.4682 240.436 12.6165 247.302 12.9058 253.85C10.5973 257.85 11.381 267.566 11.17 274.625C11.0971 277.097 10.4805 276.932 10.2794 278.69C9.53545 285.324 11.5755 282.215 11.8966 284.034C13.2668 291.836 8.64919 292.504 8.76328 301.703C8.76776 302.191 11.2291 308.148 11.3824 308.968C12.3819 314.182 10.5257 309.831 10.3438 313.094C10.0115 319.051 9.42368 323.191 10.1446 330.18C10.3582 332.218 11.8923 337.107 10.7057 341.065C10.5503 341.585 9.7367 341.298 9.68906 341.717C8.89485 349.302 11.4512 349.502 12.317 353.836C13.1826 358.172 11.4179 364.868 10.9093 366.231C9.59354 369.796 10.347 363.499 10.2179 363.306C8.68131 361.038 8.94585 365.921 8.81601 369.653C6.30948 370.193 6.45993 375.412 8.6915 373.521C8.93525 373.306 8.7015 370.402 8.81601 369.653C11.2753 372.928 11.5902 378.663 9.29209 384.998C8.21499 387.963 6.95914 385.16 7.41856 394.167C7.62595 398.255 9.35183 396.675 9.82236 400.283C10.8959 408.524 9.28598 419.233 9.53965 427.73C9.63174 430.814 10.5765 427.81 10.672 429.917C10.9283 435.51 10.2195 440.443 10.5826 446.06C10.6167 446.569 11.6056 445.325 11.6183 447.072C11.7331 460.314 11.0997 471.844 11.0821 485.67C11.0741 492.35 11.6195 504.293 11.5099 511.213C11.3256 523.207 9.88756 537.962 10.2369 548.208C10.4605 554.89 11.4497 553.424 12.1236 556.287C13.43 561.813 11.09 571.593 10.7276 572.91C10.7156 572.951 10.4825 567.2 9.9747 570.269C8.91671 572.052 10.723 572.846 10.7276 572.91C10.4936 573.775 10.269 585.262 10.4581 587.543C10.5614 588.783 11.4986 588.089 11.5348 588.736C12.3734 604.096 12.6116 619.483 12.1734 635.062C12.1545 635.336 11.1062 634.923 11.0748 635.568C10.6087 644.587 11.8911 650.362 12.6524 657.8C13.4134 665.238 13.1586 671.136 11.359 675.538C11.5856 681.15 10.79 689.201 10.3072 693.834C9.82449 698.466 11.865 699.113 11.9054 699.521C13.1965 712.235 12.0285 719.584 11.8468 732.775C11.7568 739.046 12.0528 751.485 12.276 758.275C12.4557 763.642 11.9775 766.874 12.2833 771.819C12.3241 772.488 13.2327 771.812 13.2677 772.016C13.5735 773.569 13.6175 774.474 13.5139 775L3.8161 765.302C5.15863 765.567 4.01914 766.794 4.83799 767.079C8.96865 768.522 11.5207 769.29 18.5875 768.611C20.2175 768.456 24.9655 765.258 27.9368 765.071C31.7999 764.834 30.342 765.98 34.3869 765.702C34.7331 765.68 34.661 764.972 37.1574 765.003C48.7458 765.139 61.38 765.55 73.4225 765.48C75.0674 765.473 72.9584 764.351 75.3352 764.322C86.4874 764.189 98.7112 764.231 109.576 764.756C112.25 764.889 110.574 765.674 111.154 765.907C114.718 767.318 119.773 765.268 120.606 765.229C140.499 764.244 155.724 766.099 175.999 765.216C177.103 765.164 185.598 762.966 189.388 764.851C189.648 764.977 193.397 766.905 196.713 765.587C196.919 765.504 194.583 764.511 198.66 764.612C202.738 764.713 209.301 764.05 214.906 765.141C216.68 765.485 220.875 767.409 226.168 765.875C226.513 765.768 234.685 762.301 237.601 764.693C238.074 765.087 237.579 767.618 243.897 766.32C245.104 766.069 242.913 765.504 246.093 765.151C250.965 764.608 257.421 765.286 263.411 764.158C264.455 763.959 268.902 762.24 272.468 763.545C273.027 763.749 271.966 764.594 273.849 764.689C282.806 765.142 292.185 764.577 301.28 765.162C304.501 765.367 302.854 766.734 306.212 767.1C309.57 767.466 316.336 767.818 319.85 767.193C323.364 766.569 319.525 764.391 324.79 764.217C347.68 763.46 370.355 764.738 393.212 764.924C393.44 764.926 393.64 764.924 393.816 764.92L383.736 775C383.667 772.557 382.988 774.689 382.974 770.029C382.916 751.611 382.186 719.811 383.842 703.829C385.168 691.024 386.177 707.139 386.717 697.353C386.975 692.631 384.443 687.523 384.363 686.383C383.553 675.247 384.675 667.508 384.331 657.486C384.259 655.416 383.233 657.446 383.184 655.685C383.006 649.668 383.464 643.344 383.38 637.595C383.34 635.016 382.556 635.491 382.617 633.118C382.753 627.439 383.082 622.417 383.817 616.881C383.884 616.376 384.859 619.778 384.895 615.577C384.951 608.777 385.675 600.336 384.927 592.512C384.702 590.191 382.911 590.1 384.148 585.11C384.406 584.063 386.557 585.399 384.699 579.586C384.39 578.609 381.883 568.845 383.499 564.053C383.924 562.789 385.684 559.562 385.408 556.771C385.363 556.392 384.401 557.909 384.307 555.595C383.993 547.443 384.096 538.899 383.795 530.524C383.712 528.287 382.717 531.619 382.626 528.285C382.374 519.119 382.628 507.674 382.939 498.711C383.056 495.406 383.881 497.69 383.97 497.45C385.43 493.583 383.46 491.296 383.345 490.013C382.657 482.031 383.583 475.953 383.338 468.596C383.273 466.565 382.333 468.005 382.249 467.601C381.431 463.409 383.118 466.531 383.304 463.878C383.831 456.445 383.755 448.159 383.635 440.642C383.59 437.881 382.5 440.984 382.472 438.506C382.284 423.84 382.388 408.594 382.989 394.281C383.104 391.586 383.943 393.282 384.135 392.72C385.475 388.849 383.647 383.176 383.472 381.87C382.677 375.934 383.419 373.629 383.281 368.386C382.591 342.778 383.082 311.16 383.386 286.987C383.777 255.488 384.575 231.046 384.367 201.008C384.355 199.099 383.239 201.024 383.215 199.378C382.946 178.131 383.382 157.213 383.059 135.923C383.035 134.176 381.977 136.694 381.902 133.89C381.741 128.139 381.799 120.853 382.137 115.037C382.299 112.201 383.207 116.005 383.352 113.15C383.693 106.502 383.768 99.3761 383.598 92.5475C383.524 89.6416 382.442 94.026 382.429 90.2488C382.414 86.4906 382.396 82.7423 382.383 79C382.358 60.7493 373.317 43.2848 358.345 31.8408C357.157 30.9463 357.181 28.2982 354.029 27.0927C353.524 27.5174 353.206 28.1614 352.812 28.6917C344.754 24.624 335.836 22.4884 326.816 22.4558C300.146 22.3552 273.545 21.9416 246.694 21.8573C245.11 21.8526 247.847 23.0177 244.781 23.0145C227.036 22.9973 209.804 23.3201 191.653 22.162C189.852 22.0487 190.776 19.999 185.469 20.309C184.533 20.3656 176.539 20.6389 174.473 21.0839C174.192 21.151 175.65 22.1078 173.075 22.1356C158.106 22.2809 142.42 22.0625 127.477 21.4779C125.066 21.3818 127.634 20.3629 125.916 20.2855C113.732 19.7447 100.479 20.5192 88.8365 19.5941C81.0433 18.9713 83.9286 17.2101 79.7874 15.4765C79.2017 15.2319 74.3759 15.1931 74.1264 14.1845C73.4857 11.6482 75.8231 8.87091 74.864 6.16743C74.6614 5.58512 68.1984 6.2123 72.0249 4.80513C72.2922 4.71095 76.9779 4.24392 78.132 3.76656C78.9355 3.43652 77.4875 2.41073 79.127 1.98824C80.7662 1.56615 82.5676 2.42603 85.2855 1.92965C88.0022 1.42713 86.8076 0.260176 92.2331 0.122038ZM8.14951 714.694C7.16957 718.984 10.7587 719.617 9.9 714.977C9.85423 714.752 8.19759 714.473 8.14951 714.694ZM7.58262 195.67C5.99956 201.278 8.32729 205.116 9.5499 201.16C10.7712 197.204 8.06251 193.961 7.58262 195.67ZM6.42686 137.516C5.17869 144.07 10.2682 145.102 9.23935 138.082C9.18121 137.674 6.49934 137.133 6.42686 137.516ZM98.9921 14.9828C98.9329 14.9352 95.4639 14.8887 95.381 14.936C93.5339 16.0759 100.47 16.168 98.9921 14.9828ZM5.16857 79.8073C4.4801 81.8535 5.27485 87.7449 6.13096 85.2025C6.81968 83.1559 6.02498 77.259 5.16857 79.8073ZM167.284 774.497C167.352 774.551 169.839 774.599 169.789 774.296C169.62 773.323 166.159 773.598 167.284 774.497ZM63.0094 13.7527C49.1667 15.5841 39.0172 15.7508 54.8782 11.2057C57.7397 10.5677 49.0861 14.1065 52.7935 13.5099C59.3853 12.4857 63.6204 9.23934 70.6881 10.5577C71.8669 10.7298 63.7325 13.5497 62.985 13.7615C62.9931 13.7585 63.0013 13.7556 63.0094 13.7527ZM3.83849 717.164C3.79103 717.25 3.74603 720.693 3.79308 720.775C4.93253 722.64 5.02385 715.704 3.83849 717.164ZM312.404 776.716C312.594 776.817 320.584 776.912 320.845 776.819C325.012 774.956 308.86 774.759 312.404 776.716ZM1.21204 485.301C0.0657415 481.545 -0.0692218 477.051 1.37024 474.056C1.29382 477.79 1.28257 481.548 1.21204 485.301Z" fill="#FD6251"/>
</svg>
