<svg width="407" height="681" viewBox="0 0 407 681" fill="none" xmlns="http://www.w3.org/2000/svg">
<path d="M404.903 521.368C404.931 513.075 404.486 506.571 405.615 497.668C405.766 496.498 407.85 491.136 406.59 487.914C406.436 487.529 405.57 487.9 405.468 486.548C404.97 479.897 405.282 472.549 404.931 465.825C404.847 464.228 403.882 465.615 403.777 464.546C403.307 459.825 404.409 463.559 404.98 459.713C405.868 453.752 406.047 445.662 406.219 438.997C401.816 433.155 403.812 417.587 404.644 407.749C404.784 406.141 405.794 408.215 405.871 406.607C406.65 390.57 406.773 374.575 406.64 358.468C406.629 356.951 405.475 358.408 405.468 357.165C405.377 345.404 405.906 335.142 405.973 323.034C406.026 312.871 405.64 301.453 405.633 290.774C405.633 283.37 405.956 276.303 406.138 269.084C406.299 262.069 405.37 254.809 402.732 247.594C402.469 246.676 398.259 241.059 398.291 237.889C398.291 237.493 399.375 237.938 398.684 236.015C398.042 234.075 395.046 228.818 393.563 227.077C392.121 225.316 392.409 227.414 391.549 226.3C387.547 221.109 382.776 215.541 377.939 211.716C374.379 208.967 373.737 208.518 369.748 205.909C367.679 204.533 362.189 201.976 359.271 200.659C357.99 200.057 359.555 199.637 359.239 199.444C354.633 196.712 358.962 200.092 354.005 198.628C347.355 196.793 339.918 195.668 332.422 195.518C327.167 195.395 321.909 195.147 316.897 194.737C313.968 194.495 315.458 192.681 310.972 193.816C310.688 193.889 311.582 194.789 310.078 194.835C297.193 195.241 282.029 194.313 269.556 194.159C269.152 194.155 268.752 194.148 268.349 194.145C268.686 192.264 268.072 191.34 265.953 190.527C263.522 189.595 262.6 187.788 263.336 185.27C263.968 183.12 264.806 181.078 266.269 179.309C266.978 178.454 267.504 178.136 268.56 178.78C269.763 179.516 270.657 178.885 270.591 177.474C270.513 175.877 269.335 175.379 268.051 175.11C266.329 174.749 264.564 174.854 262.817 174.787C260.874 174.71 260.685 174.514 260.657 172.567C260.632 170.945 260.179 170.392 258.622 170.403C255.644 170.427 252.715 169.923 249.761 169.737C240.978 169.191 232.194 168.585 223.39 168.434C214.449 168.28 205.507 168.858 196.555 168.221C193.676 168.017 192.322 166.781 191.427 164.459C189.936 160.596 190.813 156.6 190.89 152.656C190.904 151.914 191.511 151.238 192.35 151.269C194.984 151.371 197.552 150.716 200.193 150.761C206.756 150.867 213.326 150.796 219.893 150.796C229.964 150.845 240.027 150.979 250.053 152.106C252.589 152.394 252.803 152.747 252.055 155.258C251.07 158.568 250.274 161.902 251.077 165.429C251.452 167.089 252.206 168.147 253.865 168.581C254.336 168.704 254.844 169.061 255.191 168.571C255.595 168 255.076 167.608 254.69 167.229C253.055 165.622 252.133 163.738 252.262 161.377C252.431 158.281 253.438 155.399 254.36 152.488C254.725 151.336 255.546 151.028 256.654 151.318C257.405 151.514 258.148 151.753 258.903 151.935C259.439 152.064 260.018 151.935 259.902 151.283C259.706 150.194 259.983 149 259.366 148.016C258.952 147.361 258.903 146.709 259.162 146.075C260.383 143.109 260.73 140.198 260.285 136.892C259.692 132.493 257.777 129.141 254.62 126.298C253.757 125.52 252.676 125.243 251.484 125.513C248.456 126.196 245.384 125.947 242.325 125.94C241.781 125.94 241.227 125.916 240.964 125.313C240.715 124.739 240.988 124.266 241.346 123.849C242.462 122.55 243.019 121.016 243.258 119.356C243.91 114.841 243.581 110.446 241.599 106.264C241.266 105.564 240.999 104.758 241.816 104.331C243.325 103.543 244.605 102.377 246.204 101.753C247.201 101.364 248.172 100.923 249.169 100.534C250.312 100.09 250.438 99.0949 250.344 98.1248C250.249 97.1301 249.305 97.2737 248.611 97.2002C247.79 97.1161 246.959 97.1161 246.134 97.0461C244.851 96.934 242.781 95.3544 242.679 94.3037C242.535 92.8047 242.525 91.2952 242.805 89.8032C242.827 89.6982 242.851 89.6001 242.879 89.5055C246.622 92.5876 251.273 96.885 253.536 97.9076C254.728 98.447 255.911 98.5346 257.022 97.673C257.303 97.4558 257.591 97.4418 257.896 97.6415C258.913 98.3104 260.134 98.5276 261.183 99.0984C262.94 100.062 264.41 99.4417 265.757 98.3489C267.325 97.0811 268.37 95.414 269.068 93.5262C269.279 92.9553 267.321 91.684 266.911 91.2392C265.652 89.8873 267.472 89.6526 268.872 90.0659C269.836 90.3496 270.163 88.6369 270.79 87.8559C274 83.8703 274.61 79.3733 273.502 74.505C273.028 72.4246 270.338 71.521 268.766 72.288C267.332 72.985 268.289 75.1635 267.3 76.3613C266.146 77.7587 263.315 78.2735 262.302 79.762C261.607 80.7812 261.54 80.7637 260.586 80.1438C260.302 79.9582 259.909 79.9371 259.66 79.706C250.635 71.2513 241.655 58.6814 235.12 70.1201C234.86 70.5719 234.482 69.6893 234.72 69.2235C235.032 68.6141 235.159 67.9451 234.959 67.3077C234.731 66.5722 234.804 65.9243 235.116 65.2448C235.583 64.2292 235.422 63.28 234.65 62.4745C234.138 61.9386 233.973 61.3292 234.004 60.6007C234.176 56.6326 233.738 52.731 232.787 48.8749C231.812 44.9243 229.788 41.6671 226.487 39.254C224.93 38.1157 223.148 37.3837 221.369 36.6588C220.892 36.4661 220.787 36.3085 221.201 35.9057C222.369 34.7675 223.039 33.356 223.243 31.7485C223.415 30.3966 223.116 29.1427 221.906 28.3512C221.303 27.9589 221.205 27.5282 221.345 26.9152C221.633 25.6579 221.864 24.3831 221.896 23.1012C221.92 22.075 221.868 21.0839 221.647 20.1732C221.647 19.5603 221.661 18.9509 221.647 18.338C221.64 17.9983 221.741 17.8162 222.082 17.7146C222.808 17.4975 223.467 17.1262 224.067 16.6709C225.018 15.9494 225.93 15.1754 226.719 14.2753C227.329 13.5818 227.929 12.8744 227.817 11.8482C227.778 11.4804 227.669 11.1302 227.554 10.78C226.922 8.92373 225.856 7.3792 224.277 6.20242C224.137 6.09735 224.091 5.96426 224.074 5.80665C223.958 4.84701 223.758 3.90839 223.453 2.98727C223.029 1.70892 222.239 0.822826 220.917 0.448075C219.644 0.0908369 218.36 -0.073773 217.03 0.0312971C214.978 0.195907 212.989 0.591671 211.137 1.51629C210.892 1.63887 210.688 1.61786 210.464 1.48827C209.373 0.861351 208.17 0.717755 206.945 0.700244C205.595 0.682732 204.332 1.07149 203.133 1.65288C201.807 2.29381 200.656 3.20442 199.656 4.25862C198.927 5.02563 198.204 5.53697 197.352 5.26729C195.984 5.22877 194.872 5.30932 193.798 5.69458C193.027 5.97126 192.297 6.325 191.732 6.9309C191.192 7.51229 190.806 8.20575 190.466 8.91323C189.705 10.4928 189.158 12.1564 188.663 13.834C188.309 15.0318 188.056 16.2541 187.779 17.4694C187.677 17.9177 187.67 18.4011 187.804 18.8529C188.228 20.2678 188.93 21.5532 189.722 22.793C190.42 23.8822 191.417 24.0854 192.634 23.7982C193.321 23.6371 193.967 23.3604 194.591 23.0382C194.886 22.8841 195.061 22.9121 195.191 23.2448C195.286 23.483 195.384 23.7176 195.486 23.9523C195.556 24.9679 195.714 25.9766 195.903 26.9853C196.019 27.5912 195.945 27.9905 195.338 28.3197C194.493 28.7785 194.184 29.6296 194.086 30.5472C193.883 32.5155 194.496 34.2246 195.819 35.6641C196.32 36.2105 196.306 36.4276 195.598 36.7183C193.556 37.5589 191.581 38.543 189.859 39.9509C186.509 42.6898 184.969 46.4163 184.156 50.5175C183.482 53.9183 183.166 57.3576 183.279 60.8284C183.296 61.3888 183.24 61.8966 182.78 62.3099C181.798 63.196 181.672 64.2642 182.226 65.427C182.482 65.9663 182.556 66.4917 182.37 67.0801C182.153 67.7805 182.121 68.53 182.521 69.1604C182.91 69.7734 182.651 69.9485 182.107 70.0816C181.914 70.1306 181.658 70.4528 181.542 70.2882C175.098 61 168.399 71.1393 160.639 79.8881C159.72 80.9213 159.015 81.2996 157.893 82.2382C157.574 82.5044 155.543 80.4415 155.392 80.2208C154.876 79.4678 154.676 78.3926 153.89 77.9233C152.863 77.3139 151.849 79.3382 149.243 72.6032C148.411 70.4598 144.339 72.3581 143.865 74.4875C142.985 78.4627 143.129 82.3117 145.205 85.9437C146.093 87.4952 146.692 90.6228 148.411 90.171C150.642 89.5861 151.27 90.7734 149.26 92.4195C148.808 92.7872 148.025 92.9448 148.222 93.4842C148.829 95.1478 149.713 96.6433 150.933 97.9182C151.912 98.9408 153.157 99.7674 154.574 99.4872C156.177 99.1685 157.823 98.7377 159.194 97.7255C159.626 97.4068 159.952 97.3683 160.401 97.7185C160.527 97.8166 160.653 97.9006 160.787 97.9742C157.665 100.717 154.592 103.522 151.474 106.268C149.074 108.38 146.524 110.344 144.64 112.992C143.36 114.792 142.715 116.684 143.444 118.869C143.869 120.14 144.486 121.184 146.082 121.107C146.875 121.069 147.348 121.492 147.541 122.256C147.682 122.82 147.889 123.373 147.983 123.944C148.134 124.83 148.625 125.044 149.446 124.855C150.344 124.648 151.246 124.452 152.158 124.319C153.522 124.116 154.255 124.862 154.581 126.091C155.115 128.122 154.778 130.175 153.81 130.616C153.108 130.935 152.354 131.148 151.628 131.411C150.944 131.66 150.26 131.912 149.576 132.164C149.127 132.332 148.836 132.616 148.864 133.138C148.927 134.328 149.979 135.243 151.21 135.053C152.498 134.854 153.035 135.449 153.105 136.626C153.136 137.204 153.108 137.789 153.07 138.37C153.024 139.074 153.329 139.372 154.02 139.267C155.195 139.088 156.346 139.382 157.51 139.435C160.064 139.55 160.773 140.395 160.436 142.923C160.348 143.592 160.218 144.275 159.98 144.906C159.65 145.778 159.152 146.664 158.177 146.86C156.9 147.115 155.578 147.259 154.28 147.249C152.856 147.238 152.2 147.665 152.733 148.968C153.634 151.182 152.978 153.006 151.958 154.877C151.796 155.174 151.652 155.493 151.579 155.822C150.825 159.272 150.541 162.662 152.996 165.646C154.592 167.587 156.9 167.793 159.152 168.186C159.962 168.326 161.411 167.958 161.425 168.855C161.443 169.867 160.011 169.474 159.226 169.572C155.82 170.007 153.049 171.215 152.021 174.858C151.905 175.274 151.652 175.649 151.491 176.055C150.618 178.283 152.007 182.146 154.08 183.284C154.529 183.533 155.262 183.669 155.139 184.293C155.02 184.895 154.294 184.829 153.771 184.871C150.863 185.109 147.952 185.333 145.044 185.564C144.353 185.62 143.637 185.676 143.314 186.419C142.83 187.525 142.304 188.629 141.968 189.781C141.747 190.541 141.564 191.304 141.42 192.072C139.452 192.029 137.474 191.963 135.464 191.84C134.1 191.756 135.72 190.734 134.415 190.632C130.483 190.334 126.775 190.65 122.794 190.397C120.76 190.268 122.25 189.623 119.304 189.48C109.899 189.014 97.5205 188.674 88.0776 188.993C84.0121 189.133 84.9066 190.317 82.872 190.828C80.834 191.333 79.487 190.46 78.2558 190.888C77.0281 191.319 78.112 192.359 77.5087 192.695C76.6422 193.178 73.131 193.655 72.931 193.749C70.0652 195.178 74.9059 194.541 75.0602 195.133C75.5759 197.108 74.8182 199.122 74.5306 201.055H72.0295C71.2473 201.055 70.465 201.073 69.6898 201.101C71.1315 200.397 72.3663 199.696 71.9348 199.591C66.6451 198.208 63.4635 201.223 58.4509 201.465C55.6307 201.619 62.2148 199.083 60.0399 199.395C52.0212 200.911 52.7262 202.232 57.132 202.691C53.2314 203.559 49.457 204.76 45.8405 206.266C45.6055 205.986 45.3424 205.818 45.174 205.86C42.7431 206.543 41.5891 207.604 40.87 208.571C39.6738 209.184 38.5022 209.835 37.3517 210.518C36.9798 210.375 36.5519 210.179 36.0503 209.916C35.6329 210.977 34.8261 211.884 33.8158 212.756C31.8866 214.063 30.0309 215.467 28.249 216.959C28.1192 217.068 27.9894 217.176 27.8631 217.285C22.1244 222.167 17.2065 227.981 13.3445 234.495C13.2708 234.177 13.1761 233.858 12.4009 234.741C10.7978 236.632 11.0083 238.362 8.64755 240.747C8.01616 241.328 4.49786 245.269 4.75743 248.501C4.78199 248.872 5.52213 249.114 5.50459 249.548C5.44846 251.321 4.39262 252.788 4.41367 254.658C4.41367 255.093 5.31517 254.368 5.32218 255.128C4.37859 259.639 3.88049 264.311 3.88049 269.102V272.033C3.82437 272.275 3.77526 272.517 3.74018 272.758C3.44202 274.909 3.64196 276.464 3.88049 277.907V283.829C3.63144 284.369 3.35432 284.705 3.32977 286.067C3.21752 292.505 3.9296 298.616 3.68055 305.295C3.62442 306.889 2.79308 308.114 2.75449 310.345C2.74046 311.239 3.36134 312.314 3.88049 313.172V381.394C3.67704 381.688 3.50165 382.056 3.37537 382.525C2.27393 386.521 3.66652 392.454 3.59285 394.521C3.19647 405.784 2.28445 413.265 2.85973 423.779C2.87727 424.028 3.73316 423.215 3.884 424.277V426.444C3.80683 429.411 3.5683 432.875 3.53322 435.449C3.5262 436.048 3.67353 436.598 3.884 437.085V451.318C3.70159 451.619 3.51568 451.899 3.31925 452.145C1.55484 454.362 3.63144 455.391 2.58612 457.279C2.25639 457.864 1.66708 457.419 1.4917 457.825C0.186805 460.858 1.8565 464.641 2.08451 466.136C3.03862 472.315 1.93368 480.703 1.86352 485.154C1.78986 489.602 0.856789 486.478 0.751556 486.643C-0.749771 489.171 1.30578 489.714 1.3584 490.05C2.82816 499.507 1.32332 507.583 2.081 517.491C2.15817 518.405 4.14357 520.248 2.69135 522.972C2.60015 523.151 1.74075 522.223 1.64604 523.634C1.36542 527.729 1.47767 532.303 1.39699 536.54C3.43851 539.041 4.11551 545.205 1.15495 545.069C0.972546 551.597 -0.156957 561.792 0.0184313 567.522C0.242929 574.835 2.09153 575.648 1.70918 582.411C1.64955 583.458 0.681401 582.491 0.646323 582.796C-0.142926 589.699 1.83897 587.016 3.60688 588.718C4.14708 589.233 3.35783 592.084 3.60338 592.865C3.69458 593.156 3.78929 593.404 3.88751 593.625V606.612C3.20349 607.358 2.33005 607.515 1.29526 607.088C2.31602 609.582 3.28066 609.953 3.88751 610.934V617.882C3.57531 617.83 3.21752 617.777 3.16841 618.593C2.52298 629.181 2.47738 640.192 1.74426 650.79C1.64955 652.125 0.698939 650.993 0.660354 651.34C0.0254469 657.399 1.83195 654.58 3.55076 656.296C3.65599 656.401 3.76824 656.594 3.884 656.856V669.545C2.8492 669.924 -0.283237 667.878 0.348162 673.09C0.467426 674.084 0.614753 674.799 0.772603 675.349L0.818204 678.501L3.88751 678.455C6.39556 677.744 5.51161 676.83 12.8499 677.236C17.8028 677.51 20.5494 677.37 29.0488 677.531C37.5656 677.692 57.339 679.24 67.9289 678.031C70.3563 677.755 68.634 676.242 68.7918 675.349H70.9632C71.2122 675.762 70.3107 676.438 71.1105 676.953C72.3522 677.762 74.3376 676.333 76.1617 677.541C76.6563 677.87 78.575 679.474 81.3286 678.231C81.497 678.147 80.4868 677.331 82.3459 677.215C86.1413 676.988 88.3792 677.349 87.9232 675.349H88.2424C91.4696 676.354 87.5865 678.935 92.8867 678.511C93.1323 678.494 92.0659 677.454 93.6655 677.412C114.039 676.862 133.335 678.522 154.259 678.403C154.673 678.403 159.37 677.926 160.566 677.548C160.762 677.482 159.426 676.494 161.871 676.466C164.323 676.438 170.763 676.406 173.281 676.683C175.814 676.96 173.316 677.72 174.663 677.902C177.698 678.305 174.934 677.005 177.343 676.809C180.609 676.546 186.078 676.718 189.112 676.984C191.143 677.159 189.999 677.951 190.403 678.151C193.241 679.548 197.625 677.643 198.513 677.496C203.939 676.589 206.805 677.576 211.576 677.32C212.779 677.254 211.677 676.532 213.028 676.617C218.023 676.928 222.274 680.094 227.736 678.49C230.051 677.814 226.108 674.403 233.135 675.692C234.194 675.888 232.707 676.473 233.899 676.82C235.092 677.166 239.943 678.168 241.297 677.695C241.978 677.457 242.083 676.256 242.441 675.349H246.033C247.878 676.673 246.668 677.191 252.466 678.252C252.641 678.294 250.954 679.212 253.409 679.394C255.868 679.579 264.645 679.53 266.623 679.586C271.594 679.723 270.636 676.872 271.264 676.687C276.231 675.265 277.389 677.706 280.64 678.445C282.061 678.763 283.503 678.396 284.951 678.683C285.418 678.774 284.688 679.699 284.86 679.709C290.427 679.709 289.757 674.683 293.886 675.646C294.384 675.769 292.84 677.289 294.328 677.923C294.738 678.094 299.358 680.438 300.877 679.951C306.907 678.01 305.156 676.424 314.273 676.995C315.031 677.04 314.35 678.063 314.729 678.087C343.24 680.199 371.849 679.03 400.582 679.667L404.97 679.604L404.907 675.345C404.938 674.004 404.97 672.662 405.008 671.321C402.535 666.502 404.275 659.875 403.714 652.78C403.637 651.879 401.56 650.051 403.107 647.221C403.205 647.05 404.012 649.018 404.142 646.258C404.998 628.522 405.293 609.571 404.998 591.65C404.956 588.96 403.882 591.117 403.844 590.161C403.539 582.162 405.696 576.87 405.075 568.59C405.029 567.935 402.96 565.725 404.423 563.179C404.514 563.015 405.363 563.519 405.443 562.626C405.847 558.399 403.981 557.421 404.44 553.012C404.545 552.014 405.535 553.937 405.654 551.846C406.169 542.442 406.268 532.488 406.103 522.881C406.068 521.029 404.907 523.305 404.914 521.379L404.903 521.368ZM200.428 188.727C200.526 188.387 200.884 188.405 201.161 188.398C204.497 188.321 207.749 189.028 211.029 189.515C209.369 190.173 207.689 190.173 206.012 190.033C204.336 189.893 202.613 190.075 201.007 189.41C200.712 189.287 200.295 189.182 200.425 188.723L200.428 188.727ZM232.422 193.697C232.422 193.669 232.419 193.648 232.422 193.616C232.521 192.937 233.166 193.154 233.622 193.171C240.557 193.437 247.492 193.707 254.427 193.977C247.064 193.886 239.733 193.795 232.422 193.7V193.697ZM262.277 179.046C263.824 179.109 263.996 179.435 263.529 180.955C263.003 182.668 262.27 184.317 261.968 186.1C261.814 187.014 261.681 187.914 261.877 188.842C262.225 190.485 261.944 190.811 260.197 190.73C255.633 190.527 251.059 190.429 246.506 190.047C235.748 189.147 224.947 189.098 214.179 188.398C210.299 188.145 206.458 187.466 202.561 187.399C201.638 187.385 201.182 186.958 201.091 185.981C200.979 184.78 200.284 183.697 200.232 182.461C200.168 181.025 200.568 180.689 202 180.783C203.255 180.864 204.522 180.797 205.784 180.818C217.111 180.99 228.434 181.116 239.761 180.92C244.917 180.833 250.056 181.396 255.205 181.498C255.96 181.512 256.742 181.705 257.468 181.165C254.49 180.731 251.543 180.234 248.534 180.22C234.874 180.153 221.215 180.051 207.552 179.971C205.851 179.96 204.15 179.985 202.449 180.016C201.558 180.034 200.702 179.946 200.617 178.843C200.53 177.715 201.294 177.299 202.291 177.288C208.173 177.218 214.056 176.784 219.924 176.822C224.562 176.85 229.188 177.831 233.861 177.978C240.662 178.192 247.46 178.503 254.262 178.763C256.931 178.864 259.601 178.938 262.27 179.043L262.277 179.046ZM216.02 169.32C224.463 169.902 232.921 170.119 241.385 170.262C245.654 170.336 249.867 171.415 254.167 171.219C254.991 171.18 255.819 171.128 256.644 171.145C257.268 171.159 257.917 171.397 257.791 172.14C257.668 172.851 256.928 172.795 256.479 172.563C254.451 171.513 252.29 171.856 250.175 171.891C243.454 172.007 236.786 171.019 230.069 171.071C225.354 171.107 220.633 171.047 215.932 170.578C215.133 170.497 214.298 170.532 213.428 169.968C214.305 169.275 215.178 169.261 216.027 169.32H216.02ZM195.486 176.462C196.864 172.535 196.513 172.549 201.193 172.84C215.904 173.751 230.633 174.154 245.352 174.819C249.379 175.001 253.357 175.765 257.405 176.16C256.623 176.195 255.844 176.276 255.062 176.262C245.24 176.094 235.429 175.754 225.621 175.155C221.303 174.893 216.967 174.931 212.639 174.84C209.331 174.773 206.026 174.742 202.719 174.658C198.32 174.549 197.517 174.956 196.289 180.104C196.128 180.787 196.306 181.572 195.542 182.3C194.658 180.265 194.833 178.297 195.482 176.455L195.486 176.462ZM256.086 150.229C252.967 150.415 249.87 150.05 246.762 149.886C245.11 149.798 243.461 149.693 241.813 149.599C228.115 149.021 214.421 148.285 200.702 148.622C197.787 148.692 194.872 148.877 191.967 149.101C189.792 149.269 188.705 150.492 188.512 152.681C188.267 155.441 188.288 158.207 188.305 160.974C188.305 161.324 188.417 161.853 187.877 161.909C187.484 161.951 187.305 161.531 187.249 161.205C186.593 157.458 186.158 153.724 187.533 150.015C188.309 147.921 189.821 147.042 191.964 146.87C197.004 146.464 202.035 146.166 207.096 146.548C222.359 147.704 237.663 147.911 252.953 148.457C254.02 148.495 255.09 148.569 256.149 148.702C256.703 148.772 257.475 148.881 257.401 149.63C257.335 150.306 256.591 150.198 256.082 150.226L256.086 150.229ZM162.025 140.149C161.892 139.288 162.148 138.689 163.06 138.335C167.006 136.801 171.135 135.926 175.197 134.798C178.743 133.81 182.36 133.071 185.818 131.775C187.73 131.057 189.684 130.479 191.715 130.248C194.759 129.902 196.482 130.991 197.513 133.88C197.973 135.166 198.285 136.486 198.208 137.558C198.208 138.164 198.215 138.454 198.208 138.745C198.145 141.382 197.752 141.781 195.163 141.785C190.084 141.792 185.138 142.881 180.15 143.638C174.442 144.503 168.718 145.27 163 146.068C161.864 146.229 161.446 145.701 161.734 144.618C162.127 143.147 162.26 141.666 162.028 140.153L162.025 140.149ZM226.326 88.5844C226.505 89.0327 226.575 89.5195 226.726 90.1149C225.842 89.7227 225.737 90.248 225.716 90.8084C225.674 91.9221 225.744 93.0394 225.509 94.1426C225.375 94.7731 225.281 95.4175 224.8 95.9393C224.912 95.1338 225.028 94.3283 225.14 93.5227C225.298 92.4055 225.182 91.2952 224.968 90.199C224.902 89.8488 224.779 89.3935 224.288 89.4705C223.867 89.537 223.856 89.9678 223.842 90.3041C223.79 91.6735 223.881 93.0534 223.572 94.4018C223.464 94.8746 223.313 95.3369 223.155 95.7957C223.116 95.9008 223.078 96.0339 222.994 96.1145C222.864 96.1074 222.734 96.1004 222.604 96.0934C222.52 95.9954 222.502 95.8413 222.474 95.7082C222.204 94.4228 222.366 93.148 222.548 91.8696C222.667 91.0431 222.681 90.2165 222.474 89.4005C222.39 89.0712 222.32 88.665 221.882 88.6685C221.415 88.672 221.415 89.0993 221.369 89.432C221.184 90.7874 221.155 92.1743 220.538 93.4387C220.387 93.7469 220.247 94.0586 220.082 94.3598C219.984 94.5349 219.833 94.6995 219.602 94.6505C219.374 94.6014 219.307 94.3843 219.272 94.1882C219.188 93.7329 219.254 93.2811 219.293 92.8222C219.405 91.5684 219.528 90.3111 219.216 89.0677C218.746 87.1835 217.886 86.6721 216.02 87.1625C215.434 87.3166 214.859 87.4812 214.249 87.4041C214.031 87.3761 213.744 87.3901 213.701 87.0994C213.67 86.8683 213.908 86.7702 214.073 86.6756C215.413 85.9016 216.55 84.8159 217.956 84.1575C219.644 83.3659 220.429 81.9405 220.864 80.2383C221.741 76.792 222.152 73.2757 222.474 69.7453C222.58 68.5826 222.65 68.439 223.811 68.2603C226.144 67.9031 228.364 68.2603 230.476 69.3286C231.005 69.5982 231.177 69.9345 231.093 70.5614C230.56 74.512 229.006 78.0879 227.154 81.5622C227.059 81.7373 226.975 81.923 226.859 82.0841C226.694 82.3117 226.55 82.5394 226.421 82.7705C226.4 82.8826 226.365 82.9982 226.315 83.1138C226.108 83.5866 226.108 84.1645 225.93 84.6583C225.873 84.8089 225.796 84.935 225.712 85.0471C225.607 86.2028 225.849 87.3831 226.326 88.5914V88.5844ZM199.548 92.9098C199.548 92.8888 199.544 92.8713 199.541 92.8503C199.442 92.2374 199.414 91.6244 199.418 91.008C204.487 90.924 209.461 90.9135 214.143 90.945C215.438 90.8995 216.715 90.8714 217.977 90.8574C217.963 91.1621 217.928 91.4668 217.886 91.7715C217.837 92.1533 217.795 92.5351 217.778 92.9168C216.553 92.9203 215.333 92.9238 214.108 92.9168C209.254 92.8818 204.402 92.8958 199.548 92.9168V92.9098ZM205.258 94.647L205.234 94.8571C203.255 94.9307 201.277 95.0042 199.295 95.0778C199.32 95.0147 199.341 94.9517 199.362 94.8851C199.425 94.6855 199.47 94.4859 199.509 94.2827C201.154 94.3493 202.799 94.4158 204.444 94.4859C204.718 94.4964 204.985 94.5909 205.255 94.647H205.258ZM199.446 89.9854C199.534 88.728 200 88.4338 201.312 88.735C202.242 88.9452 203.157 89.1203 204.08 88.665C204.518 88.4478 204.83 88.1501 205.013 87.8209C207.426 87.8209 209.843 87.8209 212.256 87.8209C212.372 88.0626 212.551 88.2832 212.796 88.4618C213.403 88.9031 214.101 89.0432 214.834 88.9417C215.399 88.8611 215.968 88.763 216.518 88.6159C217.195 88.4338 217.546 88.7385 217.767 89.3234C217.893 89.6526 217.949 89.9854 217.97 90.3181C217.893 90.164 217.823 90.0064 217.767 89.8488C211.66 89.8663 205.549 89.9854 199.442 89.9924L199.446 89.9854ZM213.351 85.3623C210.169 85.3377 206.988 85.3202 203.806 85.3027C203.462 85.0786 203.108 84.8614 202.75 84.6268C204.764 83.8037 211.993 83.7827 214.54 84.6093C214.129 84.8965 213.723 85.1206 213.351 85.3623ZM203.217 86.6721C203.385 86.7527 203.613 86.8648 203.578 87.1029C203.536 87.4006 203.259 87.3866 203.038 87.4111C202.34 87.4847 201.677 87.3026 201.014 87.1169C199.544 86.7072 198.558 87.2745 198.183 88.7735C197.924 89.8032 197.801 90.8504 197.959 91.9186C198.067 92.6541 198.081 93.4001 198.018 94.1426C197.997 94.3703 197.952 94.626 197.699 94.7065C197.366 94.8116 197.247 94.5209 197.127 94.3037C196.419 93.0254 196.18 91.6174 196.029 90.1885C196.012 90.0169 196.029 89.8418 195.994 89.6772C195.914 89.2814 195.998 88.679 195.412 88.6965C194.882 88.714 194.844 89.2919 194.805 89.7017C194.71 90.6998 194.724 91.7015 194.854 92.6962C194.984 93.6943 194.987 94.6925 194.844 95.6872C194.819 95.8588 194.791 96.0829 194.609 96.153C194.595 96.153 194.581 96.153 194.567 96.146C194.451 96.125 194.346 96.0934 194.244 96.0584C194.17 95.9709 194.125 95.8518 194.086 95.7502C193.77 94.8851 193.644 93.978 193.591 93.0604C193.539 92.1463 193.507 91.2322 193.458 90.3216C193.441 89.9713 193.402 89.5721 192.964 89.5406C192.511 89.509 192.441 89.9188 192.378 90.255C192.087 91.8766 192.118 93.4982 192.399 95.1163C192.444 95.386 192.592 95.6591 192.353 96.0899C191.802 95.0567 191.778 94.0516 191.704 93.0674C191.648 92.3004 191.68 91.5229 191.631 90.7524C191.613 90.4547 191.592 90.0694 191.22 89.9749C190.803 89.8698 190.782 90.3356 190.498 90.5983C190.613 89.3444 190.975 88.2272 191.353 87.138C191.841 85.73 191.652 84.4727 190.968 83.1873C189.666 80.7392 188.428 78.256 187.432 75.6608C186.783 73.9692 186.411 72.211 186.106 70.4318C186.025 69.966 186.19 69.6578 186.576 69.4301C188.849 68.1062 191.308 68.0292 193.823 68.3654C194.584 68.467 194.693 69.0729 194.745 69.7068C195.002 72.6418 195.391 75.5592 195.977 78.4451C196.201 79.5379 196.499 80.6096 196.892 81.6603C197.306 82.7705 198.011 83.5971 199.064 84.0874C200.554 84.7809 201.729 85.9682 203.206 86.6756L203.217 86.6721ZM189.273 88.9101C189.172 89.3584 189.087 89.8102 189.017 90.2585C188.989 89.397 189.017 88.5039 189.326 87.7053C189.358 87.7509 189.382 87.7824 189.403 87.7999C189.715 88.0626 189.361 88.5354 189.277 88.9101H189.273ZM188.018 85.4043C187.898 85.3938 187.779 85.3833 187.66 85.3693C187.288 85.3237 187.056 85.0751 187.028 84.6828C187.028 84.6513 187.028 84.6163 187.028 84.5847C187.116 84.5672 187.2 84.5462 187.284 84.5217C187.421 84.4832 187.705 84.8789 188.021 85.4043H188.018ZM187.151 109.661C187.74 111.203 188.112 112.81 188.414 114.607C187.716 115.636 188.217 116.61 188.698 117.773C189.428 119.535 188.768 120.62 186.885 121.135C182.724 122.273 178.518 123.247 174.365 124.399C169.654 125.709 164.915 126.928 160.289 128.532C159.373 128.847 158.454 129.149 157.528 129.436C157.047 129.586 156.676 129.394 156.409 128.984C155.729 127.944 156.097 123.377 157.051 122.652C158.079 121.867 159.243 121.258 160.369 120.61C164.407 118.281 168.816 116.747 172.987 114.694C175.986 113.216 178.999 111.759 181.974 110.239C183.163 109.63 184.468 109.451 185.706 109.028C186.327 108.814 186.913 109.028 187.155 109.661H187.151ZM188.652 105.735C188.081 105.609 187.386 105.497 187.432 104.744C187.477 104.03 188.175 104.082 188.688 104.054C193.451 103.778 198.204 104.075 202.957 104.317C208.205 104.587 213.445 103.967 218.69 104.222C224.656 104.513 230.619 104.807 236.586 105.112C236.916 105.129 237.267 105.2 237.558 105.343C237.905 105.515 238.238 105.788 238.109 106.257C238.003 106.639 237.653 106.762 237.302 106.758C236.379 106.748 235.46 106.667 234.538 106.667C227.399 106.66 220.258 106.663 213.119 106.663V106.236C205.195 106.656 197.296 105.746 189.379 105.788C189.137 105.788 188.887 105.788 188.652 105.735ZM190.761 108.453C196.598 108.341 202.427 108.572 208.25 108.975C216.543 109.549 224.835 110.138 233.131 110.67C235.755 110.838 236.053 111.034 236.12 113.647C236.172 115.679 236.344 117.724 235.046 119.538C234.46 120.361 233.829 120.879 232.766 120.764C220.471 119.426 208.061 120.477 195.773 118.999C194.57 118.855 193.346 118.848 192.136 118.778C191.382 118.736 190.585 118.698 190.627 117.65C190.666 116.67 191.448 116.729 192.129 116.698C197.818 116.428 203.504 116.673 209.19 116.733C212.144 116.764 215.098 116.74 218.055 116.74V116.344C215.501 116.123 212.951 115.777 210.397 115.707C204.904 115.559 199.411 115.556 193.914 115.493C193.381 115.486 192.844 115.475 192.311 115.479C191.206 115.493 190.073 115.3 190.126 113.955C190.182 112.558 191.434 112.964 192.287 112.989C202.154 113.276 212.028 113.094 221.892 113.609C224.27 113.731 226.652 113.812 229.034 113.903C229.771 113.931 230.479 114.081 231.163 114.348C231.847 114.614 232.556 114.796 233.296 114.764C233.766 114.743 234.439 114.873 234.527 114.281C234.625 113.616 233.934 113.437 233.422 113.36C230.925 112.985 228.438 112.575 225.891 112.61C214.364 112.782 202.845 112.509 191.339 111.735C190.501 111.679 189.828 111.514 189.442 110.677C188.814 109.308 189.259 108.481 190.757 108.453H190.761ZM235.671 123.485C235.148 124.326 234.306 124.49 233.387 124.476C227.606 124.385 221.829 124.312 216.052 123.99C209.843 123.646 203.631 123.45 197.418 123.167C196.166 123.11 194.921 122.949 193.672 122.837L193.662 122.21C195.878 122.21 198.095 122.242 200.309 122.203C210.755 122.032 221.198 122.557 231.64 122.224C232.85 122.186 233.98 122.792 235.243 122.515C235.972 122.354 235.969 123.002 235.667 123.485H235.671ZM254.869 144.552C255.903 144.202 256.472 143.505 256.493 142.265C256.535 139.687 256.538 137.123 256.082 134.577C256.009 134.164 255.823 133.631 256.412 133.474C256.91 133.341 257.036 133.856 257.191 134.185C258.506 137.018 259.134 139.995 258.426 143.07C257.854 145.55 255.37 147.231 252.792 147.179C239.231 146.902 225.702 145.851 212.144 145.49C208.307 145.389 204.469 145.256 200.628 145.133C200.046 145.116 199.46 145.109 198.881 145.06C198.488 145.028 198.036 144.93 198.008 144.461C197.976 143.942 198.464 143.876 198.836 143.844C199.611 143.781 200.389 143.757 201.165 143.757C208.261 143.75 215.361 143.753 222.457 143.753V144.124C229.893 144.124 237.33 144.132 244.766 144.117C245.854 144.117 246.899 144.286 247.892 144.713C250.245 145.729 252.571 145.322 254.865 144.552H254.869ZM252.129 141.155C251.926 142.86 251.428 143.294 249.754 143.182C233.685 142.125 217.592 141.851 201.494 141.809C199.741 141.806 199.618 141.603 199.691 139.848C199.828 136.633 199.137 136.507 203.357 136.465C215.136 136.353 226.891 136.749 238.624 137.747C239.108 137.789 239.596 137.785 240.083 137.771C240.469 137.761 240.943 137.761 240.967 137.239C240.995 136.647 240.497 136.563 240.052 136.545C239.228 136.51 238.4 136.538 237.572 136.5C227.178 136.024 216.785 135.404 206.377 135.446C204.511 135.453 202.589 134.959 200.754 135.771C200.361 135.947 199.937 135.834 199.797 135.383C199.541 134.556 199.218 133.716 199.169 132.868C199.116 131.94 199.944 131.873 200.642 131.887C202.88 131.936 205.118 131.95 207.349 132.094C214.533 132.549 221.71 132.963 228.918 132.85C233.447 132.78 237.86 134.073 242.36 134.476C242.781 134.514 243.44 135.05 243.567 134.304C243.675 133.653 242.918 133.498 242.402 133.484C240.452 133.442 238.547 132.987 236.618 132.843C229.297 132.304 221.966 131.873 214.642 131.401C213.431 131.323 212.214 131.295 211.036 130.732C211.804 130.641 212.568 130.5 213.337 130.469C218.637 130.252 223.913 130.385 229.213 130.833C235.309 131.351 241.409 132.003 247.541 132.076C249.046 132.094 249.951 132.689 250.649 134.003C251.845 136.262 252.441 138.612 252.14 141.151L252.129 141.155ZM248.085 127.124C248.909 127.152 249.737 127.114 250.565 127.145C251.028 127.163 251.456 127.341 251.501 127.877C251.55 128.448 251.203 128.823 250.673 128.903C250.053 129.001 249.414 128.998 248.786 129.008C240.508 129.131 232.258 128.578 226.536 128.192C215.894 127.727 207.798 126.977 199.66 127.303C197.583 127.387 195.489 127.065 193.405 126.911C192.939 126.875 192.272 126.904 192.36 126.224C192.434 125.646 193.069 125.643 193.553 125.639C196.373 125.618 199.19 125.608 202.01 125.608C217.385 125.625 232.728 126.599 248.085 127.124ZM241.623 115.945C241.701 116.421 241.715 116.908 241.722 117.009C241.697 118.172 241.686 118.974 241.28 119.654C240.838 120.393 240.073 120.809 239.305 120.361C238.586 119.941 239.021 119.212 239.357 118.698C239.922 117.829 240.322 116.911 240.497 115.889C240.553 115.563 240.606 115.146 241.069 115.185C241.487 115.22 241.567 115.619 241.623 115.945ZM244.749 98.8078C242.539 99.4697 240.662 99.3926 238.814 99.3786C226.754 99.2911 214.698 98.8288 202.638 98.9268C200.695 98.9443 198.755 99.1475 196.815 99.2701C195.17 99.3716 193.518 99.6238 191.929 98.9058C191.182 98.5696 190.522 99.221 189.803 99.165C188.986 99.1019 187.618 99.4347 187.621 98.433C187.628 97.4979 189.007 97.7641 189.726 97.9322C191.929 98.4435 194.065 97.7781 196.233 97.743C203.234 97.6275 210.239 97.1021 217.23 97.2772C218.654 97.3122 220.079 97.3403 221.503 97.3648C221.675 97.5784 221.906 97.729 222.204 97.7641C223.229 97.8761 224.291 97.8481 225.291 97.5434C225.368 97.5189 225.442 97.4804 225.516 97.4348C230.869 97.5329 236.221 97.6695 241.557 98.1423C242.497 98.2264 243.461 98.2194 244.752 98.8112L244.749 98.8078ZM228.381 90.9975C231.766 91.1131 235.102 91.2707 238.431 91.4283C238.772 91.4458 239.112 91.4703 239.445 91.5369C240.059 91.6595 240.631 91.9397 240.546 92.6576C240.452 93.4527 239.771 93.3966 239.178 93.3441C235.601 93.0289 232.019 92.9203 228.434 92.8888C228.473 92.2549 228.448 91.6244 228.381 90.9975ZM238.957 94.8711C235.344 95.0883 231.735 95.0953 228.076 94.8956C228.122 94.752 228.161 94.6084 228.199 94.4578C228.255 94.2372 228.297 94.0165 228.332 93.7959C232.138 93.8589 236.663 94.2932 238.957 94.8746V94.8711ZM239.834 87.8454C240.631 87.9645 241.255 88.2797 241.171 89.2323C241.087 90.1675 240.543 90.6438 239.606 90.5632C235.818 90.2375 232.026 90.0519 228.234 89.9503C228.157 89.502 228.066 89.0502 227.964 88.6019C227.925 88.4303 227.887 88.1571 227.855 87.8244C231.605 87.8244 235.355 87.8244 239.105 87.8244C239.347 87.8244 239.596 87.8104 239.834 87.8454ZM237.902 86.1433C236.506 86.1048 235.113 86.0557 233.72 85.9682C231.749 85.8421 229.781 85.7475 227.81 85.667C227.855 84.9035 227.989 84.2695 228.273 84.147C228.385 84.1575 228.497 84.1645 228.613 84.175C233.324 85.4603 233.833 84.3746 237.902 86.1433ZM233.52 63.942C233.615 64.3132 233.489 64.6214 233.233 64.8771C232.952 65.1608 232.707 64.9366 232.465 64.8C231.71 64.3798 230.942 63.991 230.069 63.9174C229.778 63.8929 229.36 63.7493 229.265 64.1661C229.188 64.5198 229.588 64.5829 229.837 64.695C230.925 65.1748 231.896 65.8087 232.693 66.7018C232.91 66.9435 233.061 67.2061 233.124 67.5249C233.194 67.8821 233.166 68.2323 232.885 68.4775C232.545 68.7717 232.303 68.4144 232.061 68.2638C229.185 66.4601 226.105 66.0574 222.832 66.8979C222.474 66.989 222.022 67.3287 221.734 66.8874C221.429 66.4216 221.636 65.8998 222.008 65.5635C222.559 65.0627 222.65 64.681 222.099 64.0821C221.58 63.5182 221.857 62.7512 222.66 62.457C223.327 62.2118 224.035 62.0507 224.74 61.9526C225.589 61.8371 226.452 61.8265 227.238 61.774C229.199 61.8651 231.079 62.0297 232.749 63.0699C233.092 63.2835 233.419 63.5147 233.524 63.942H233.52ZM221.38 30.6067C221.527 31.6049 221.338 32.54 220.819 33.4016C220.605 33.7553 220.338 34.0775 220.096 34.4138C220.096 33.0093 220.556 31.752 220.805 30.4491C220.829 30.309 220.899 30.1479 221.064 30.1584C221.317 30.1794 221.352 30.4141 221.38 30.6032V30.6067ZM193.69 22.5688C193.048 22.821 192.378 23.0312 191.669 22.8455C191.308 22.751 191.01 22.5478 190.81 22.2396C190.231 21.35 189.677 20.4499 189.347 19.4307C189.252 19.1331 189.203 18.8283 189.193 18.5271C189.07 17.9458 189.108 17.3609 189.228 16.7935C189.596 15.0598 190.098 13.3612 190.683 11.6871C191.164 10.3107 191.722 8.96576 192.672 7.83451C193.444 6.91339 194.458 6.45108 195.654 6.332C196.229 6.27597 196.798 6.26196 197.366 6.34251C197.446 6.35302 197.552 6.31799 197.594 6.40205C197.65 6.50712 197.548 6.57366 197.492 6.64721C197.425 6.73827 197.362 6.82583 197.296 6.91689C197.341 6.9239 197.387 6.9239 197.436 6.9309C197.517 6.94141 197.622 6.90639 197.664 6.99044C197.72 7.09551 197.618 7.16206 197.562 7.23561C197.082 7.89054 196.619 8.55949 196.247 9.28447C196.45 9.39655 196.587 9.28447 196.706 9.11636C197.622 7.88704 198.646 6.75579 199.748 5.69808C200.852 4.63687 202.07 3.70875 203.438 3.00828C204.245 2.59501 205.121 2.37436 206.026 2.21676C206.945 2.05565 207.805 2.21676 208.668 2.47243C208.791 2.50745 208.966 2.52846 208.994 2.66155C209.026 2.81566 208.84 2.85418 208.738 2.92423C208.692 2.95575 208.65 2.99077 208.605 3.0258C208.65 3.03981 208.696 3.05031 208.741 3.06432C208.864 3.09935 209.04 3.12036 209.068 3.25345C209.099 3.40755 208.913 3.44608 208.812 3.51612C208.405 3.78931 208.079 4.15355 207.735 4.49678C207.847 4.56682 207.963 4.54231 208.096 4.44775C209.71 3.327 211.492 2.55999 213.372 2.02413C214.203 1.78597 215.07 1.67039 215.925 1.5268C216.75 1.3902 217.567 1.3797 218.384 1.42873C219.216 1.48127 220.033 1.67039 220.78 2.07666C221.675 2.56699 222.12 3.41456 222.481 4.30415C222.857 5.23227 223.085 6.19191 223.176 7.17957C223.25 7.6734 223.288 8.17423 223.288 8.68207C223.299 8.68908 223.309 8.69958 223.323 8.70659C223.436 8.75212 223.506 8.67157 223.558 8.59101C223.762 8.28281 223.969 7.9711 224.011 7.59285C224.035 7.3722 224.113 7.29865 224.288 7.48778C225.333 8.59451 226.252 9.7713 226.417 11.3579C226.424 11.4314 226.424 11.5015 226.428 11.575C226.452 11.6976 226.477 11.8202 226.491 11.9463C226.6 12.9899 226.186 13.8165 225.431 14.51C224.467 15.3996 223.358 16.072 222.201 16.6709C221.927 16.811 221.808 16.7375 221.85 16.4468C221.868 16.3382 221.875 16.2331 221.871 16.135C221.787 16.1105 221.752 16.0265 221.776 15.8549C221.783 15.8058 221.783 15.7638 221.787 15.7148C221.626 15.2805 221.247 14.9898 220.777 14.7446C220.117 14.3979 219.423 14.1597 218.714 13.9426C218.588 13.9041 218.472 13.855 218.346 13.757C218.556 13.6414 218.77 13.5503 218.988 13.4628C218.872 13.4242 218.76 13.3892 218.644 13.3542C218.518 13.3157 218.402 13.2666 218.276 13.1686C218.953 12.8008 219.665 12.6152 220.356 12.3735C220.408 12.356 220.457 12.335 220.503 12.314C220.454 12.3035 220.401 12.2965 220.345 12.2965C219.219 12.3105 218.153 12.6117 217.139 13.0705C216.578 13.3262 216.041 13.4488 215.417 13.3332C214.88 13.2316 214.322 13.2596 213.775 13.2281C213.67 13.2211 213.54 13.2596 213.477 13.1581C213.4 13.0355 213.512 12.9339 213.575 12.8393C213.617 12.7728 213.663 12.7063 213.705 12.6397C213.6 12.6327 213.47 12.6712 213.407 12.5697C213.33 12.4471 213.442 12.3455 213.505 12.251C213.898 11.638 214.298 11.0321 214.694 10.4227C214.733 10.3667 214.764 10.3072 214.799 10.2476C214.789 10.2546 214.778 10.2616 214.768 10.2651C213.775 10.7379 213.014 11.4909 212.323 12.3245C211.628 13.1651 211.639 13.1861 210.555 13.2316C208.955 13.2982 207.366 13.4488 205.805 13.8235C205.388 13.9216 204.971 14.0301 204.567 14.1667C204.339 14.2473 204.195 14.2088 204.034 14.0336C203.301 13.2316 202.575 12.4261 201.733 11.7326C201.529 11.5645 201.323 11.4034 201.105 11.2598C200.954 11.1617 200.807 11.0391 200.635 11.2388C200.617 11.2598 200.603 11.2843 200.589 11.3053C200.958 11.8097 201.326 12.3105 201.694 12.8148C201.926 13.1335 202.178 13.4347 202.452 13.7184C202.343 13.7675 202.238 13.8235 202.133 13.876C202.308 14.0897 202.491 14.2998 202.694 14.4925C202.841 14.629 202.831 14.7271 202.638 14.8042C202.361 14.9127 202.084 15.0283 201.807 15.1369C201.645 15.1999 201.477 15.1824 201.312 15.1369C199.87 14.7446 198.453 14.8287 197.054 15.3295C196.703 15.4556 196.387 15.6517 196.071 15.8409C195.994 15.8864 195.917 15.9389 195.861 15.9985C196.008 16.086 196.18 15.9774 196.327 15.9144C197.232 15.5397 198.187 15.4311 199.151 15.3926C199.327 15.3855 199.488 15.4241 199.646 15.5116C199.52 15.6237 199.397 15.7428 199.278 15.8619C199.207 15.9039 199.141 15.9494 199.071 15.9915C199.12 15.9915 199.169 15.9844 199.221 15.9844C199.428 15.9739 199.618 16.023 199.8 16.1526C199.292 16.5238 198.72 16.7865 198.278 17.2313C198.197 17.3118 198.057 17.3714 198.123 17.515C198.176 17.6305 198.306 17.6095 198.411 17.613C199.046 17.6516 199.604 17.3714 200.144 17.1122C201.95 16.2471 203.838 15.6307 205.791 15.2139C206.535 15.0563 207.303 15.0248 208.05 14.8777C209.538 14.58 211.039 14.6045 212.544 14.6115C214.161 14.6185 215.746 14.8917 217.314 15.2595C217.332 15.263 217.346 15.2665 217.364 15.2735C217.209 15.0213 217.037 14.7937 216.851 14.5835C216.981 14.6115 217.111 14.6396 217.241 14.6711C218.16 14.8847 219.058 15.1614 219.924 15.5397C220.229 15.6727 220.345 15.8654 220.342 16.2016C220.342 16.2786 220.342 16.3592 220.342 16.4363C220.391 16.5343 220.415 16.6464 220.415 16.79C220.401 18.0438 220.415 19.2942 220.415 20.548C220.415 20.9718 220.335 21.0138 219.917 20.9087C219.188 20.7266 218.444 20.6285 217.7 20.541C217.076 20.4674 216.448 20.3904 215.824 20.3168C215.683 20.2993 215.54 20.2748 215.399 20.2713C213.775 20.2328 212.151 20.2188 210.53 20.2818C209.545 20.3203 208.563 20.4499 207.584 20.5795C206.346 20.7406 205.111 20.9578 203.897 21.259C201.624 21.8193 199.397 22.5233 197.369 23.7351C196.794 24.0784 196.787 24.0713 196.485 23.4584C196.454 23.3954 196.422 23.3324 196.391 23.2658C196.163 22.8 196.18 22.821 196.573 22.4848C197.12 22.0155 197.731 21.5882 198.015 20.8772C198.064 20.7511 198.19 20.604 198.06 20.485C197.934 20.3694 197.822 20.5235 197.713 20.583C196.398 21.3045 195.086 22.047 193.683 22.5969L193.69 22.5688ZM209.829 45.2885C209.661 45.3235 209.492 45.3516 209.32 45.3656C209.092 45.3866 208.864 45.3866 208.524 45.4041C205.872 45.3586 203.932 43.842 202.242 41.8702C201.073 40.5078 200.505 38.8442 200.039 37.1701C199.418 34.9426 198.951 32.6696 198.39 30.4246C198.253 29.8747 198.316 29.4369 198.702 29.0096C199.621 27.9905 200.042 26.8137 200.011 25.4057C199.979 23.9523 200.803 23.4689 202.164 23.9978C202.701 24.2079 203.175 24.5161 203.624 24.8839C205.841 26.6981 208.741 26.8347 211.12 25.2481C211.835 24.7718 212.54 24.285 213.249 23.8017C213.81 23.4199 214.428 23.2448 215.112 23.2588C216.392 23.2833 217.251 23.9628 217.234 25.2271C217.209 26.7787 217.55 28.106 218.749 29.1497C219.019 29.3844 219.023 29.7101 218.942 30.0253C218.118 33.2054 217.655 36.4906 216.381 39.5342C215.154 42.4796 213.098 44.5985 209.836 45.292L209.829 45.2885ZM211.642 46.9451C210.976 47.8732 210.418 48.5807 209.934 49.3407C209.552 49.9396 209.264 50.5981 208.927 51.225C208.812 51.4386 208.629 51.8204 208.426 51.3616C207.724 49.7925 206.739 48.4021 205.774 46.9416C207.689 47.488 209.566 47.4915 211.646 46.9416L211.642 46.9451ZM195.878 30.7328C195.893 30.5121 195.945 30.218 196.194 30.1794C196.524 30.1304 196.485 30.4736 196.531 30.6663C196.798 31.8816 197.043 33.1004 197.296 34.3157C196.25 33.3245 195.78 32.1302 195.878 30.7293V30.7328ZM186.702 49.3792C187.86 44.6966 190.726 41.3799 194.956 39.1664C195.538 38.8617 196.124 38.5605 196.71 38.2663C197.243 38.0036 197.397 38.2348 197.292 38.7461C197.124 39.5587 197.04 40.3817 196.962 41.2083C196.633 44.7141 197.257 48.0974 198.19 51.4456C198.236 51.6102 198.295 51.7713 198.362 51.9289C198.969 53.3229 199.456 53.4314 200.677 52.4963C201.266 52.0445 201.884 51.6277 202.512 51.232C203.347 50.7066 204.22 50.6086 205.114 51.1059C205.332 51.225 205.57 51.4386 205.809 51.1829C206.055 50.9203 205.886 50.6541 205.732 50.4019C204.757 48.7979 202.645 48.5597 200.916 49.8661C199.663 50.8117 199.677 50.8082 199.285 49.2426C198.576 46.4198 198.271 43.5619 198.422 40.6549C198.446 40.2066 198.404 39.7443 198.664 39.296C199.042 39.6042 199.042 40.07 199.214 40.4448C199.804 41.7266 200.709 42.7913 201.512 43.9366C203.908 47.3584 206.879 50.444 208.036 54.6257C208.124 54.9375 208.149 55.3963 208.559 55.4313C209.012 55.4698 209.033 54.9935 209.127 54.6923C210.039 51.7678 211.839 49.3827 213.596 46.9346C214.894 45.1274 216.448 43.5058 217.532 41.5515C217.932 40.8335 218.248 40.0665 218.598 39.3205C218.886 41.2153 218.925 43.0925 218.788 44.9663C218.661 46.6789 218.258 48.3496 217.841 50.0167C217.669 50.6961 217.416 50.9133 216.848 50.3389C216.445 49.9291 215.964 49.6069 215.445 49.3582C214.038 48.6893 212.597 49.022 211.677 50.2268C211.488 50.4755 211.232 50.7522 211.46 51.0709C211.692 51.3966 211.976 51.1234 212.225 51.0253C213.179 50.6471 214.084 50.7592 214.919 51.33C215.533 51.7468 216.118 52.2091 216.715 52.6504C217.69 53.3754 218.293 53.2458 218.795 52.1321C219.482 50.6086 219.798 48.9765 220.068 47.3374C220.535 44.49 220.521 41.6461 220.058 38.8022C220.001 38.4484 219.847 37.9266 220.531 38.2488C224.505 40.1226 227.961 42.5602 229.736 46.798C230.707 49.1131 231.104 51.5717 231.514 54.0268C231.84 55.9776 231.907 57.9495 232.026 59.9143C232.082 60.8074 231.956 60.8599 231.097 60.5902C228.595 59.8057 226.084 59.8267 223.572 60.5412C222.576 60.8249 222.548 60.7969 222.467 59.7357C222.317 57.7919 221.99 55.8796 221.313 54.0409C221.275 53.9323 221.243 53.8202 221.187 53.7221C220.963 53.3264 220.896 52.6399 220.243 52.8466C219.693 53.0217 219.865 53.6031 219.928 54.0479C220.093 55.2071 220.3 56.3629 220.443 57.5257C220.563 58.4888 220.626 59.459 220.703 60.4291C220.756 61.0665 220.675 61.6759 220.398 62.2678C220.051 63.0138 219.956 63.7809 220.198 64.6039C220.436 65.4164 219.907 66.1484 219.847 66.947C219.77 67.9732 218.816 67.9697 218.118 68.1938C215.361 69.0834 212.526 69.6858 209.654 70.0255C207.174 70.3197 204.753 69.7313 202.371 69.1079C200.989 68.7437 199.632 68.2814 198.264 67.8646C197.681 67.6895 197.432 67.3532 197.355 66.6983C197.232 65.6511 197.004 64.6249 197.201 63.5672C197.225 63.4341 197.211 63.266 197.155 63.1434C195.966 60.6217 196.847 58.0966 197.134 55.5749C197.204 54.9515 197.334 54.335 197.397 53.7081C197.432 53.3614 197.394 52.9761 196.994 52.8501C196.545 52.71 196.398 53.1022 196.254 53.4034C195.496 54.997 195.184 56.7131 194.942 58.4433C194.882 58.8671 194.826 59.2944 194.788 59.7216C194.679 60.8599 194.686 60.8564 193.63 60.5377C191.146 59.7952 188.659 59.8127 186.194 60.5937C185.555 60.7969 185.306 60.6883 185.317 59.9773C185.362 56.3909 185.832 52.8571 186.692 49.3792H186.702ZM183.875 63.6653C184.155 63.2415 184.58 62.9998 185.015 62.7827C186.702 61.9456 188.53 61.823 190.455 61.7845C191.617 61.9106 192.886 61.8581 194.114 62.2048C195.454 62.5831 195.703 63.1749 194.959 64.3517C194.735 64.7055 194.767 64.9857 195.023 65.2799C195.251 65.539 195.489 65.7912 195.587 66.1309C195.668 66.4111 195.707 66.7053 195.514 66.954C195.282 67.2482 194.998 67.0836 194.728 67.0065C191.294 66.0188 188.053 66.3691 185.06 68.4144C184.84 68.565 184.636 68.7262 184.366 68.537C184.12 68.3654 184.096 68.1203 184.12 67.8506C184.166 67.3462 184.359 66.9225 184.713 66.5547C185.481 65.7562 186.425 65.2273 187.4 64.7335C187.656 64.6039 188.123 64.5829 187.979 64.1486C187.856 63.7738 187.449 63.8859 187.148 63.9139C186.306 63.9875 185.541 64.2922 184.804 64.6985C184.562 64.8316 184.285 65.1818 183.991 64.779C183.745 64.4393 183.612 64.068 183.882 63.6653H183.875ZM182.493 85.2887C182.493 85.2887 182.507 85.2642 182.517 85.2537C183.415 85.0541 184.184 84.949 184.854 84.8754C184.875 85.0295 184.843 85.1836 184.745 85.3272C182.917 87.9295 183.51 90.7979 183.805 93.6348C183.836 93.9255 183.892 94.2127 183.896 94.5034C183.903 94.9727 183.77 95.4035 183.226 95.4735C182.724 95.5366 182.609 95.1163 182.454 94.752C181.784 93.211 181.497 91.5999 181.57 90.0729C181.542 88.3147 181.584 86.7247 182.5 85.2887H182.493ZM149.225 118.403C148.488 119.111 147.555 120.204 146.317 119.556C145.135 118.936 144.63 117.745 144.605 116.382C144.57 114.582 145.051 113.15 146.678 112.036C149.611 110.029 151.87 107.238 154.511 104.884C156.96 102.699 159.363 100.464 161.829 98.2999C162.278 98.3489 162.751 98.2859 163.239 98.1178C164.221 97.7851 165.143 97.3368 166.073 96.8955C167.722 96.1144 172.275 90.5492 176.431 87.7158C177.052 87.4321 177.68 87.1695 178.319 86.9243C179.511 86.4655 180.083 86.9453 179.988 88.2202C179.841 91.2497 179.943 94.2127 181.795 96.8534C182.265 97.5224 182.079 98.2929 181.314 98.7377C173.853 103.074 166.708 107.931 159.033 111.931C155.574 113.735 152.105 115.64 149.218 118.403H149.225ZM153.003 133.74C152.459 133.87 151.786 134.279 151.519 133.467C151.27 132.707 152.031 132.476 152.522 132.269C155.785 130.9 159.187 129.937 162.541 128.816C169.489 126.497 176.614 124.816 183.675 122.904C184.468 122.69 185.229 122.333 186.032 122.172C187.281 121.92 188.126 122.669 188.137 124.063C188.123 124.417 187.87 124.995 187.418 124.774C185.499 123.849 183.913 125.096 182.244 125.506C177.017 126.791 171.948 128.627 166.736 129.986C162.148 131.183 157.623 132.633 153.003 133.733V133.74ZM157.058 136.885C156.644 137.022 156.227 137.148 155.907 137.249C155.385 137.274 155.009 137.204 154.88 136.738C154.743 136.234 155.016 135.926 155.406 135.652C156.665 134.763 158.194 134.57 159.594 134.069C166.031 131.758 172.731 130.325 179.269 128.364C182.142 127.502 185.148 127.173 187.937 126.01C188.498 125.776 189.343 125.608 189.635 126.294C189.971 127.089 189.186 127.485 188.582 127.783C186.236 128.942 183.594 128.977 181.135 129.709C178.771 130.409 176.365 130.987 174.046 131.81C170.244 133.159 166.311 134.017 162.442 135.116C160.625 135.631 158.85 136.297 157.058 136.892V136.885ZM156.202 148.474C160.727 147.7 165.235 146.839 169.805 146.313C174.667 145.757 179.546 145.256 184.317 144.047C185.815 143.669 187.414 143.841 188.93 143.414C189.491 143.256 190.031 143.498 190.157 144.139C190.291 144.811 189.792 145.084 189.252 145.249C188.975 145.333 188.681 145.364 188.393 145.392C182.065 146.044 175.832 147.347 169.507 148.075C165.803 148.502 162.088 148.912 158.38 149.382C157.651 149.382 156.925 149.392 156.195 149.375C155.914 149.367 155.546 149.375 155.504 149C155.448 148.506 155.886 148.523 156.206 148.467L156.202 148.474ZM160.99 166.539C159.643 166.431 158.3 166.119 156.981 165.797C155.223 165.37 154.476 163.857 153.792 162.424C152.708 160.151 152.557 157.745 153.287 155.325C153.715 153.907 154.624 153.199 156.202 152.922C164.445 151.476 172.776 150.789 181.086 149.921C182.096 149.816 183.086 149.518 184.096 149.389C185.246 149.241 185.815 149.784 185.46 150.93C183.896 155.955 185.236 160.715 186.765 165.447C187.33 167.201 187.193 167.489 185.317 167.492C182.303 167.499 179.287 167.492 176.274 167.492C171.163 167.405 166.073 166.942 160.987 166.532L160.99 166.539ZM154.413 180.591C152.491 177.733 152.589 176.132 154.606 173.376C155.146 172.637 155.865 172.749 156.574 172.749C162.555 172.742 168.539 172.746 174.52 172.746C174.52 172.704 174.52 172.662 174.52 172.62C180.451 172.62 186.386 172.602 192.318 172.627C194.633 172.637 194.795 172.998 194.16 175.232C193.188 178.651 193.03 182.118 193.865 185.603C194.265 187.277 193.991 187.648 192.287 187.575C188.007 187.392 183.735 186.969 179.525 186.258C176.196 185.697 172.86 185.561 169.521 185.277C168.223 185.168 166.939 185.147 165.792 184.272C164.964 183.641 163.842 183.922 162.969 184.254C159.657 185.519 156.283 183.372 154.413 180.591ZM144.374 187.974C144.665 187.298 145.258 186.983 145.97 186.839C149.804 186.068 153.712 186.163 157.584 185.837C157.819 185.816 158.103 185.837 158.293 185.956C161.804 188.107 165.883 188.096 169.732 188.898C174.527 189.9 179.381 190.608 184.212 191.434C185.457 191.648 186.706 191.823 187.954 192.019C188.551 192.114 189.165 192.254 189.228 192.982C189.228 192.986 189.228 192.989 189.228 192.996C178.715 192.786 168.195 192.537 157.619 192.236C156.391 192.201 155.178 192.18 153.975 192.166C152.063 190.877 149.927 190.033 147.703 189.375C147.184 189.221 146.591 189.123 146.079 189.438C146.093 189.827 146.342 189.914 146.552 190.005C148.176 190.692 149.811 191.364 151.389 192.142C148.562 192.124 145.77 192.124 142.967 192.086C143.307 190.702 143.785 189.333 144.374 187.974ZM49.7411 675.349C49.6885 675.387 47.8645 675.363 47.2436 675.324H49.7657C49.7657 675.324 49.7516 675.338 49.7411 675.349ZM327.946 677.173C327.75 677.268 321.765 677.173 321.622 677.068C318.966 675.082 331.068 675.282 327.946 677.173Z" fill="#FB97AA"/>
</svg>
