<?xml version="1.0" encoding="UTF-8"?>
<svg id="Layer_2" data-name="Layer 2" xmlns="http://www.w3.org/2000/svg" viewBox="0 0 350.35 227.76">
  <g id="Layer_1-2" data-name="Layer 1">
    <g>
      <path d="M278.56,70.84c1.24,1.64,2.69,3.16,3.63,4.95.67,1.28.56,2.96-.74,4.06-1.42,1.19-2.77.42-3.98-.49-2.49-1.86-4.36-6.63-7.71-4.76-5.34,2.99-12.18,2.14-16.56,7.55-6.9,8.52-7.97,8.38-14.93.04-1.5-1.79-3.08-2.85-5.27-2.52-22.12,3.38-44.02,7.87-65.53,14.1-.75.22-1.31,1.06-2.69,2.23,8.48,3.55,20.82-4.08,24.82,10.16,5.35-8.11,8.68-16.93,19.81-18.08,12.79-1.32,25.02.64,34.49,8.5,10.2,8.47,19.03,4.76,28.46.76,4.51-1.91,8.46-6.57,10.72,2.38.81,3.21,5.3,3.14,8.48,3.81,1.47-2.4-2.43-2.15-1.58-4.84,19.07,4.21,37.18,10.66,52.81,22.82,5.5,4.28,7.1,10.73,7.48,17.42.78,13.96-3.62,26.34-12.5,36.93-20.86,24.9-47.1,39.36-80,42.25-11.64,1.02-23.09,4.82-34.79,6.7-25.4,4.07-50.63,3.56-76.13.74-30.88-3.42-62.14-4.05-92.09-13.49-21.42-6.75-38.33-19.91-49.53-39.14-9.79-16.82-5.37-34.49,9.7-46.64,11.33-9.13,23.22-14.53,32.33-14.64.66,2.81-1.65,3.61-3.35,4.42-4.6,2.18-4.49,3.99-.95,7.68,6.12,6.35,4.64,15.68-3.16,20.26-6.63,3.89-13.67,6.88-18.66,13.21-2.77,3.52-5.2,1.77-6.1-2-1.01-4.24-.02-8.18,2.3-11.86,2.92-4.63,5.73-9.33,8.09-14.33-7.94,5.51-17.23,9.85-17.33,21.56-.03,3.36.09,6.67,2.83,8.97,11.05,9.29,21.38,19.33,36.2,23.27,19.18,5.09,38.02,11.47,57.69,14.57,3.89.61,7.87,1.95,12.66-.86-12.96-1.14-18.22-10.92-24.8-19.41-3.18-4.1-7.12-7.93-13.4-7.37-2.85.26-4.8-2-6.37-4.26-1.9-2.73-4.19-5.51-7.36-6.16-14.07-2.87-13.12-14.7-15.49-24.73-2.36-9.98,2.02-19.65.94-29.61-.5-4.59-1.6-8.34-4.59-12.03-5.31-6.57-6.76-13.6-.22-20.7,3.36-3.65,2.12-23.53-1.45-27.79-2.18-2.6-7.79-3.87-6.29-7.6,1.66-4.13,7.3-6.54,11.27-6.96,9.64-1.02,14.06-4.58,14.15-14.82.07-7.28,7.01-9.16,13.1-9.27,7.14-.12,14.33,1.05,19.86,6.29,4.09,3.87,6.71,4.17,10.4-1.07,8.96-12.74,17.37-14.16,30.24-5.85,2.73,1.76,4.64,2.68,7.93.99,13.38-6.88,19.28-5.77,29.15,5.85,4.46,5.25,7.46,8.76,14.63,2.6,6.94-5.97,16.53-3.02,25.12,7.84,5.6,7.08,8.73,8.01,15.17,1.04,5.69-6.16,14.15-5.84,21.68-3.01,6.82,2.57,9.66,8.5,9.49,15.62-.14,5.93,1.35,8.31,8.26,7.21,12.47-1.99,15.64,1.61,13.81,13.83-.72,4.81.56,10.31-4.31,13.85.12-.88.22-1.76.35-2.64.87-6.04-.32-11.66-6.09-14.42-6.07-2.89-7.42,4.13-11.04,6.5-7.14,4.68-15.95,2.89-23.57,5.83-.53.2-1.56-.71-2.28-1.22-10.78-7.63-22.76-4.73-34.14-2.92-5.54.88-10.79,2.68-16.43,1.28-6.9-1.7-13.26-.42-19.81,2.24-9.29,3.77-18.77,7.31-28.47,9.81-12.7,3.27-14.28,5.81-9.81,18.27,2.6,7.22,4.94,7.74,10.69,2.21,10.09-9.69,21.74-15.68,36.86-13.03,7.03,1.23,14.53.72,21.71-2.25,7.09-2.94,14.55-3.35,22.54-2.62,8.65.79,17.57-4.21,26.43.68.82.45,2.9-1.9,4.56-2.34,9.43-2.5,18.07-9.15,28.68-5.55ZM266.73,194.7c-23.04,8.87-47.04,11.3-71.52,10.88-18.96-.32-37.93-.03-56.87-.57-43.76-1.26-86.11-7.99-123.22-33.66-1.29-.9-2.58-2.6-5.71-.97,9.77,15.46,22.78,28.82,38.97,34.59,23.78,8.48,48.8,14.07,74.58,15.28,39.8,1.87,79.35-.63,118.82-4.82,35.81-3.8,67.8-16.27,91.73-44.73,3.22-3.83,6.92-7.44,7.77-12.78-6.36,7.5-12.92,14.3-21.29,19.76-16.4,10.68-34.14,16.1-53.47,17.17,14.38-6.22,28.16-13.77,43.09-18.85,9.91-3.37,18.81-8.78,25.52-17.11,5.52-6.84,5.39-15.42-.27-22.22-1.91,5.3,2.78,11.23-1.69,16.25-2.62-10.12-2.62-10.07-13.32-11.66-4.1-.61-8.2-1.32-12.22-2.32-11.89-2.96-19.71-12.37-20.6-24.53-.2-2.8.56-6.17-3.88-6.59-1.86,3.22.13,6.42-.23,9.57-.38,3.29-.62,6.56-4.15,8.22-9.98,4.67-30.5-4.61-33.93-15.33-21.21,15.08-42.56,16.03-58.13,2.44-2.52,4.41-.86,11.61-7.52,13.1-13.66,3.06-26.9,10.27-41.58,4.78-2.26-.84-4.93-1.52-5.93,1.67-3.23,10.36-10.56,7.98-17.19,5.03-10-4.45-19.71-9.59-29.34-14.8-7.61-4.12-9.73-11.35-5.8-17.85,3.78-6.26,9.77-7.12,17.66-2.18,8.53,5.33,16.89,10.95,25.37,16.36,1.81,1.16,3.98,3.94,5.97.89,1.99-3.06-1.4-3.22-3.1-4.68-7.58-6.52-17.1-10.45-23.54-18.52-10.39-13.03-23.17-23.3-38.1-30.84-2.08-1.05-4-3.09-6.47-1.7-2.72,1.53-2.34,4.55-2.57,7.16-.34,3.9,2.44,5.59,5.15,7.57,5.7,4.15,12.17,7.6,14.9,14.74,2.02,5.28,2.19,10.7-1.32,15.22-3.49,4.49-8.07,1.95-12.24.53-2.22-.75-4.72-2.17-5.97,1.12-1.18,3.09.47,5.03,3.35,6.17,3.58,1.41,7.2,2.76,10.7,4.36,6.82,3.1,10.3,8.61,8.1,15.77-2.34,7.61-8.32,2.46-12.81,2.39-3.2-.05-7.95-2.91-8.85,2.17-.75,4.22.66,9.55,6.3,10.16,9.04.96,15.7,5.67,22.73,10.92,8.05,6.02,17.37,10.35,25.04,17.46,3.87-11.82.52-19.2-10.09-24.37-7.27-3.54-12.1-10.33-15.63-17.68-1.22-2.54-1.22-5.35,1.19-7.31,2.2-1.78,4.41-.66,6.55.62,13.96,8.33,28.01,16.39,45.23,15.03,1.74-.14,3.52.41,5.29.62,6.41.77,8.44,4.63,7.61,10.6-1.16,8.34-6.29,13.05-14.01,15.46-6.73,2.1-10.52,6.15-9.75,13.72.4,3.99,1.69,5.49,5.59,3.5,19.68-10.02,40.39-7.32,60.93-4.37,7.99,1.15,14.56-.29,18.53-7.08,6.54-11.18,16.2-14.39,28.43-14.26,7.29.08,15.03.06,23.18-5.02-9.48-2.81-17.47-4.27-25.63-5.04-7.23-.69-12.55-3.95-13.19-11.81-.62-7.67,4.28-13.35,12.42-14.68,12.83-2.1,25.39.33,37.9,2.71,5.29,1,7.46,4.19,5.88,9.72-2.32,8.12-1.39,16.51-.8,24.67.82,11.3-.88,14.66-12.14,17.44-9.19,2.26-18.79,2.5-27.73,6.09-11.07,4.43-22.43,7.49-34.61,6.64-4.46-.31-9.24-.17-14.75,5.63,27.15-3.2,51.92-4.52,76.68-5.82ZM63.28,34c-2.74,4.65,2.72,9.3-1.28,13-3.97,3.68-1.42,5.35,1.57,8.13,6.72,6.25,15.9,9.26,22.07,15.5,9.34,9.46,20.33,17.06,29.08,27.08,1.33,1.53,3.7,3.77,5,1.44,2.67-4.79,1.57-10.38.82-15.56-.62-4.26-4.62-5.84-8.08-5.02-6.13,1.45-7.58-1.9-9.29-6.47-2.24-5.98-7.26-12.78-12.11-13.14-9.92-.74-12.85-8.1-18.03-13.5-3.36-3.51-6.32-7.4-9.74-11.45ZM274.7,145.35c1.7-7.06-1.29-10.08-7.85-10.99-4.93-.69-9.73-2.24-14.58-3.48-6.54-1.66-12.3-.02-17.23,4.33-5.58,4.92-4.72,10.77,2.29,12.52,9.1,2.27,18,5.22,27.38,6.73,8.94,1.44,11.4-1.37,9.98-9.11ZM173.64,102.1c-12.56.51-21.92,7.63-30.79,15.67-1.66,1.5-4.41,2.74-3.4,5.58.87,2.44,3.55,3.02,5.83,3.57,12.83,3.09,22.92-4.01,32.95-9.83,3.32-1.93,5.2-7.58,4.05-12.02-1.03-3.98-5.4-2.5-8.64-2.96ZM217.62,95.62c-4.3,1.04-8.7,1.69-12.78,3.21-3.9,1.46-5.06,5.52-6.3,9.1-.72,2.07.96,3.01,2.59,3.95,9.82,5.66,31.45,3.47,39.2-4.01,2.98-2.88,2.62-5.24-1.32-6.42-7.02-2.1-14.13-3.87-21.4-5.83ZM94.19,140.31c8.04,12.88,30.07,14.81,23.69,36.1,7.06-4.3,12.59-7.42,17.85-10.95,3.77-2.53,7.44-5.9,5.57-10.93-1.71-4.6-6.76-5.33-10.64-4.44-10.27,2.36-18.49-1.21-26.49-6.93-2.27-1.62-4.73-3.66-9.97-2.86ZM131.34,63.02c.05,4.96,2.42,7.45,8.29,4.53,8.72-4.32,17.32-8.91,26.74-11.63,2.46-.71,4.71-1.62,2.59-4.84-2.72-4.13-17.24-8.2-23.1-6.44-7.41,2.22-14.25,10.43-14.54,18.38ZM191.41,57.36c6.62-1.43,14.12-3.07,21.63-4.66,3.78-.8,3.57-2.95,2.47-5.94-4.97-13.45-19.81-15.07-30.66-3.12-2.71,2.98-6.74,6.31-4.88,10.63,1.78,4.15,6.82,2.21,11.44,3.1ZM121.33,133.49c-.86-.14,1.13.66,2.11-1.45,1.15-2.46.06-5-1.66-6.49-8.72-7.49-17.41-15.08-28.11-19.79-2.56-1.12-4.66-.6-6.22,1.62-1.37,1.95-1.18,4.22.47,5.69,9.24,8.23,17.82,17.53,33.41,20.41ZM254.76,175.41c4.11,0,6.78.21,9.41-.06,2.2-.23,5.24-.14,4.96-3.54-.19-2.35-2.43-3.5-4.53-3.41-12.91.57-25.89.46-38.65,2.85-1.9.36-3.74,1.75-5.29,3.06-1.98,1.67-4.69,3.67-3.45,6.53,1.45,3.33,4.62,1.36,7.01.89,10.66-2.07,20.82-6.69,30.53-6.31ZM185.66,191.13c-13.97-.48-26.28-1.11-38.59.35-5.01.6-9.87,1.76-14.12,4.63-2.1,1.42-3.04,3.87.24,4.18,9.15.87,18.76,4.55,27.39-.84,4.21-2.63,8.34-3.98,13.04-4.61,3.63-.49,7.63.29,12.04-3.71ZM103.65,37.4c-5.1-.22-8.5,3.3-9.22,8.12-.76,5.06,4.26,3.45,7.07,4.06,5.13,1.11,10.75.53,15.21,3.94,3.03,2.32,5.36,3.42,7.7-.85,1.94-3.55,1.49-6.05-2.03-8.08-5.67-3.26-11.86-5.15-18.73-7.18ZM173.58,35.24c-.8-3.74-4.68-6.13-9.21-7.86-6.67-2.56-11.06.7-15.25,5.47-2.58,2.93-3.58,4.52,1.14,5.89,4.79,1.39,9.42,3.31,14.16,4.88,6.35,2.11,9.51-.25,9.17-8.38ZM149.88,17c.57,3.58,3.38,4.03,5.97,4.1,6.63.17,12.94,1,18.17,5.64,1.06.94,2.55,1.74,3.93.36,1.23-1.23.71-2.71.32-4.14-1.61-5.72-13.36-15.12-19.54-15.32-6.36-.21-7.07,5.11-8.84,9.36ZM229.84,38.35c9.84,1.16,18.47,3.14,26.23,8.45-1.21-7.82.71-17.47-8.07-19.96-7.64-2.16-13.21,4.09-18.17,11.51ZM100.51,32.39c11.4-3.8,20.05-2.41,27.67,3.7,1.45,1.16,3.29,1.39,4.74-.27,1.37-1.58,1.04-3.28.06-4.89-3.49-5.75-8.11-11.08-14.91-11.33-6.94-.26-12.33,4.18-17.57,12.8ZM68,97.61c-2.47-7.04-9-11.74-14.85-16.95-1.43-1.28-3.31-3.04-5.41-1.25-1.74,1.47-2.01,3.92-.94,5.68,3.46,5.71,6.94,11.49,11.12,16.66,1.63,2.02,5.14,2.97,8.15,1.43,1.8-.92,1.91-2.8,1.92-5.57Z" fill="#fb97aa"/>
      <path d="M176.56,166.04c-2.5-.55-4.88-.84-7.09-1.59-6-2.03-15.16-1.75-16.09-8.8-.98-7.4,7.7-10.28,13.51-13.25,12.16-6.21,23.49-14.87,38.87-11.63,7.08,1.49,12.49,3.61,14.38,10.9,2.01,7.74-2.7,12.66-8.54,15.86-10.85,5.95-23.43,5.6-35.04,8.52ZM164.4,150.31c2.18,3.69,5.05,3.84,7.57,4,10.6.67,21.22.56,31.78-.6,1.99-.22,3.97-1.19,5.79-2.13,3.36-1.73,5.9-4.18,4.77-8.43-1-3.76-4.07-4.48-7.5-5.02-16.16-2.57-28.55,6.6-42.41,12.18Z" fill="#fb97aa"/>
    </g>
  </g>
</svg>