<?xml version="1.0" encoding="UTF-8"?>
<svg id="Layer_2" data-name="Layer 2" xmlns="http://www.w3.org/2000/svg" viewBox="0 0 352.25 294.92">
  <g id="Layer_1-2" data-name="Layer 1">
    <g id="EhdXsW.tif">
      <g>
        <path d="M31.59,10.14c.82,1.57,2.38,2.43,3.5,3.72,2.7,3.09,4.83,6.52,6.39,10.32,2.97,7.26,7.25,13.75,11.41,20.37,3.53,5.61,8.25,9.48,13.5,13.07,1.42.97,2.94,1.71,4.59,2.22,2.8.87,5.6,1.74,8.34,2.77,2.32.87,4.52,1.56,7.07.64,1.6-.58,3.41-.23,5,.51,7.85,3.61,15.08,1.51,22.09-2.4,1.56-.87,3-1.94,4.51-2.9,2.78-1.77,5.07-3.9,6.79-6.83,4.12-7.01,8.54-13.84,12.79-20.77,2.32-3.79,5.29-7.01,8.57-9.95,2.83-2.54,4.98-5.58,5.62-9.22,2-11.37,16.22-14.7,24.44-8.85,9.13,6.5,18.43,12.77,27.23,19.72,2.84,2.24,5.98,3.9,9.21,5.47,1.4.68,2.54.68,3.85-.17,5.5-3.57,11.62-5.8,17.73-8.03,8.13-2.96,13.94-.94,19.78,7.31,5.83,8.24,5.11,16.41.33,24.7-.67,1.17-.63,2.02.35,3.01,1.03,1.03,1.84,2.31,3.22,2.93,5.07,2.28,9.44,5.67,14.1,8.61,5.98,3.78,11.69,7.95,17.64,11.76,9.4,6.01,17.72,13.48,26.59,20.21,5.57,4.22,11.52,8.07,16.31,13.15,4.64,4.92,10.15,8.84,14.73,13.8,2.24,2.43,3.53,5.07,3,8.38-.25,1.56-.02,2.85,1.12,4.02,1.35,1.39.84,3.01.37,4.6-2.1,7.13-5.91,13.32-10.31,19.24-5.09,6.84-11.54,12.31-17.46,18.33-5.08,5.17-10.15,10.28-15.86,14.77-2.22,1.74-3.82,4.24-5.05,6.82-4.8,10.11-11.46,19.05-17.42,28.45-6.68,10.54-14.7,20.05-21.6,30.4-4.72,7.08-9.97,13.83-14.62,20.98-.81,1.25-1.89,2.25-3.47,2.47-1.21.17-2.01,1.01-2.89,1.73-5.81,4.72-11.85,8.93-19.72,9.31-.89.04-1.79.29-2.65-.07-5.25-2.17-10.71-3.93-15.36-7.35-.91-.67-1.75-1.46-2.54-2.27-2.8-2.84-5.56-5.7-9.38-7.24-1.5-.61-2.75-1.69-3.98-2.78-2.13-1.88-4.3-3.72-6.95-4.9-.81-.36-1.61-.83-2.27-1.41-9.7-8.66-20.97-15.29-30.68-23.94-4.07-3.63-8.65-6.63-13.2-9.59-6.46-4.21-11.79-9.71-17.63-14.61-7.55-6.33-15.4-12.25-23.96-17.16-8.04-4.61-14.86-10.83-21.43-17.2-3.76-3.64-6.18-8.33-6.6-14.21-.67-9.32.9-18.1,3.78-26.8,1.09-3.29,3.3-5.95,5.06-8.87,2.77-4.6,5.37-9.3,8.08-13.93.79-1.34,1.02-2.64.59-4.18-.57-2.07-.06-4.21.04-6.3.19-3.92-.32-7.62-2.3-11.05-1.03-1.78-1.71-3.67-2.06-5.7-.69-4.02-2.88-6.83-6.81-8.16-1.48-.5-2.27-1.38-2.31-3.03-.06-2.38-1.21-4.19-2.85-5.97-3.87-4.19-8.09-7.74-13.55-9.68-1.05-.37-2.06-1.01-2.94-1.72-9.26-7.5-20.26-11.93-30.65-17.45-4.1-2.18-8.27-4.26-11.9-7.15C-.57,34.54-3.4,23.17,4.93,13.02c1.21-1.48,2.69-2.57,4.4-3.4,2.27-1.1,4.52-2.24,6.74-3.42,5.2-2.76,11.44-1.38,15.07,3.36.15.19.3.39.45.58ZM226.65,239.97c-.23-1.52-.35-3.02.05-4.56.31-1.21,1.95-2.43,1.06-3.42-.77-.85-2.52-.83-3.84-1.18-.47-.12-.96-.17-1.41-.34-1.19-.44-2.08-.31-2.35,1.12-.23,1.23-1.36,2.55.69,3.44,2.4,1.05,4.41,2.68,5.85,4.94.25,1.92,1.29,2.39,3.07,1.79.93-.31,1.78-.71,2.61-1.24,2.24-1.46,1.16-3.23.45-4.91-.32-.77-.8-2.08-1.77-1.54-1.5.82-2.45,2.3-2.39,4.19,0,.24.04.49.09.72.16.66.24,1.36-.47,1.71-.75.38-1.16-.3-1.63-.72ZM157.12,188.2c-2.38,3.18-4.4,6.59-6.3,10.07-.43.79-.74,1.65-.57,2.56.33,1.79,1.46,2.34,3.2,2.07,1.55-.24,2.36-.75,1.86-2.54-.42-1.5-.16-3.06.33-4.55.81-2.48,1.18-5.04,1.46-7.62,2.97-1.01,4.43-4.1,7.11-5.35,2.8-1.31,3.5-3.86,4.69-6.2.28-.55.23-1.45-.55-1.04-1.69.87-3.86.94-5.02,2.75-2.08,3.27-4.14,6.56-6.21,9.85ZM306.83,96.11c-3.77-2.38-7.29-5.01-10.16-8.52-1.62-1.99-4.01-3.14-6.84-4.34.38.66.49.93.67,1.14,4.28,5.01,9.77,8.44,15.39,11.69.24.14.63.01.95,0,.17.85.71,1.4,1.39,1.92,2.39,1.82,4.7,3.75,7.13,5.53,10.91,7.97,21.29,16.52,29.99,26.94.05.06.27-.04,1.08-.17-2.22-2.87-4.02-5.73-6.34-8.09-2.78-2.83-6.07-5.15-9.01-7.83-6.62-6.04-14.33-10.67-21.1-16.5-.92-.79-1.86-1.6-3.14-1.78ZM151.92,79.97c-3.96,1.49-6.88,4.89-11.06,5.99-.38.1-.75.66-.91,1.09-.71,1.98-2.17,2.89-4.14,3.34-1.69.39-3.09,1.39-4.42,2.48-2.86,2.33-3.32,4.39-1.74,7.71,6.83-7.48,13.24-15.46,22.26-20.63,3.85-1.47,8.01-.73,11.97-1.66,2.01-.47,4.15.32,6.04,1.46,1.84,1.11,3.45,2.46,4.84,4.04,2.32,2.63,4.98,4.1,8.64,4.2,5.51.15,10.69,1.92,15.66,4.25,3.59,1.68,7.32,2.99,11.18,3.97-.18-.29-.42-.45-.68-.57-7.96-3.7-16.03-7.17-23.34-12.11-1.52-1.03-3.13-1.58-5.04-1.4-2.45.23-4.62-.63-6.54-2.18-1.66-1.34-2.95-3-4.29-4.64-2.65-3.23-8.31-3.85-11.18-1.08-2.24,2.17-4.8,3.87-7.26,5.74ZM251.34,264.74c-1.2.98-2.35,2.01-3.27,3.27-2.47,3.38-5.95,4.59-9.89,3.9-3.61-.64-6.91-.13-10.22,1.23-3.04,1.25-6.14,1.36-9.28.18-4.26-1.6-8.56-3.08-12.83-4.65-4.47-1.64-8.67-3.82-12.02-7.26-3.44-3.52-7.65-5.74-12.08-7.64-5.49-2.36-9.49-5.9-9.99-12.29-.11-1.4-.33-2.44-2.29-2.19-1.66.22-2.81-1.13-3.78-2.35-1.49-1.86-3.19-3.58-5.22-4.72-3.56-2.01-6.61-4.76-10.09-6.81-10.11-5.95-19.43-13.03-28.98-19.77-6.66-4.7-12.01-10.94-18.3-16.1-4.64-3.81-9.73-7.12-13.64-11.78-5.04-6.01-7.88-12.61-5.92-20.68,1.61-6.63,4.18-12.82,7.7-18.64,2.94-4.87,6.32-9.55,8.36-14.87,3.51-9.13,8.81-17.37,12.72-26.32,2.27-5.2,5.97-9.87,9.47-14.43,8.12-10.59,15.93-21.38,22.91-32.76,3.11-5.07,6.63-9.82,10.85-14.04,2.01-2.01,4.59-3.39,6.23-5.8,1.23-1.8,2.79-2.37,4.82-1.21,1.02.58,2.19.49,3.34.42,1.87-.13,3.73-.2,5.6-.28,6.86-.29,11.42,4.03,15.23,8.66,2.29,2.78,4.94,5.08,7.33,7.68,1.23,1.34,1.95.91,2.57-.66,1.32-3.33,3.08-6.42,5.66-8.98.72-.72.73-1.39-.22-1.98-.9-.55-1.77-1.15-2.65-1.74-3.03-2.04-6.45-3.51-9.18-5.99-4.81-4.38-9.74-8.51-15.52-11.7-3.45-1.9-6.51-1.66-9.41.06-4.68,2.77-9.22,5.82-13.52,9.14-6.55,5.06-11.79,11.4-16.45,18.21-6.3,9.2-11.69,18.96-17.67,28.37-7.37,11.6-14.62,23.26-20.32,35.83-4.7,10.36-9.71,20.58-14.72,30.8-2.83,5.77-6.02,11.35-8.87,17.11-1.94,3.93-3.84,7.92-3.73,12.5.17,7.22,3.89,12.8,8.41,17.92,3.31,3.75,7.85,6.02,11.78,9.03,15.09,11.59,30.08,23.29,44.97,35.14,7.82,6.22,16.02,11.96,23.69,18.4,3.92,3.29,7.87,6.69,12.28,9.21,8.49,4.86,15.59,11.39,22.94,17.66,2.1,1.79,3.75,4.21,6.24,5.42,5.34,2.59,10.72,5.11,16.31,7.13,1.95.7,3.79.46,5.63-.51,2.3-1.21,4.57-2.64,7.03-3.37,8.62-2.57,13.81-8.79,17.98-16.21.28-.5.61-1.01,0-1.52,1.28-.38,1.9-1.41,2.57-2.45,6.34-9.83,12.18-20,19.83-28.94,3.29-3.84,6.45-7.83,8.37-12.53,5.42-13.26,15.03-23.7,23.44-34.91,6.76-9.02,16.78-14.83,24.29-23.18,4.33-4.82,9.58-9.05,10.25-16.19.05-.55.32-1.1.6-1.59,1.3-2.32,1.66-4.9,2.03-7.47.31-2.21-.18-4.22-1.75-5.87-1.06-1.12-2.16-2.2-3.27-3.28-8.42-8.24-17.73-15.44-26.75-22.98-1.3-1.09-2.69-2.18-4.22-2.87-3.58-1.62-6.94-3.61-10.06-5.94-2.95-2.2-6.95-2.9-9.25-5.77-2.53-3.16-5.8-5.13-9.03-7.3-2.83-1.9-5.56-3.96-8.28-6.01-5.71-4.31-11.3-8.81-18.21-11.18-2.4-.83-4.69-1.87-6.57-3.63-.8-.75-1.63-1.03-2.64-.48-3.07,1.65-6.07,3.44-9.34,4.72-1.09.43-.87,1.01-.08,1.55.67.46,1.36.89,2.05,1.32,6.28,3.91,12.74,7.52,18.57,12.13,5.7,4.51,11.84,8.25,18.6,11.03,9.16,3.77,17.5,8.95,24.82,15.67,4.42,4.06,8.37,8.61,12.88,12.61,4.35,3.86,7.85,8.59,9.33,14.32,1.18,4.58,2.05,9.62-1.93,13.31-6.2,5.75-10.2,12.79-13.35,20.45-1.55,3.77-3.17,7.4-6,10.51-3.91,4.3-8.16,8.44-9.73,14.38-.18.68-.66,1.32-1.1,1.89-3.54,4.56-6.58,9.5-10.12,14.03-8.01,10.25-15.88,20.6-22.99,31.51-1.55,2.38-2.08,4.6-1,7.32,1.96,4.93,1.42,9.72-1.27,14.28-.28.48-.45,1.04-.67,1.56ZM285.34,135.51c-1.87-3.45-5.45-6.11-8.37-9.37-1.13-1.26-2.32-2.17-3.97-2.61-11.64-3.11-22.85-7.55-34.32-11.18-11.03-3.49-21.36-8.77-32.26-12.57-2.3-.8-4.83-1.26-6.83-2.54-4.15-2.65-8.86-3.63-13.43-3.77-6.28-.19-11.15-2.4-15.23-6.89-1.71-1.88-3.83-2.6-6.34-2.47-2.03.1-4.13.37-6.08-.04-5.21-1.1-9.11,1.38-12.41,4.65-3,2.97-5.75,6.19-9.27,8.59-1.56,1.07-2.47,2.54-2.77,4.41-.34,2.09-1.42,3.84-2.83,5.31-2.5,2.59-4.18,5.57-5,9.06-.21.9-.55,1.64-1.51,2.05-3.2,1.37-3.64,4.58-.96,6.97,1,.89,2.04,1.87,1.88,3.26-.68,5.88,1.59,11.18,3.06,16.66,1.82,6.78,5.49,12.07,11.76,15.43.71.38,1.35.91,2.05,1.31,5.52,3.17,11.11,5.64,17.4,1.89.9-.54,1.92-.88,2.88-1.31,5.57-2.49,11.52-3.93,17.22-6.11,5.17-1.98,10.36-.92,14.77,2.86,1.22,1.05,2.67,1.85,4.09,2.63,2.85,1.56,5.86,2.87,8.45,4.85,1.81,1.39,3.25,1.14,5.3.31,8.53-3.46,14.42-11.15,23.15-14.25.84-.3,1.65-1.85,2.41-.9.9,1.14-.8,1.61-1.44,2.31-.32.36-.76.61-1.14.91-6.55,5.26-13.58,9.8-20.85,13.96-1.82,1.04-1.58,1.7,0,2.64,1.61.96,3.2,1.92,4.97,2.57,12.92,4.71,25.47,10.32,38.11,15.7.67.28,1.5.55,1.87,1.09,1.43,2.05,3.64,2.61,5.79,3.33,7.29,2.46,13.37-2.64,12.16-10.2-.15-.96-.22-1.94-.29-2.91-.28-3.77.17-4.84,3.79-6.08,3.73-1.28,6.41-3.72,8.9-6.56,2.66-3.04,4.26-6.71,6.2-10.18.8-1.43.83-2.68.15-4.14-2.98-6.43-6.09-12.77-11.03-18.69ZM199.08,59.37c-.15-1.76-.57-3.55-.38-5.27.22-1.95-.47-3.2-1.8-4.46-2.42-2.29-5.11-4.41-6.83-7.27-2.47-4.11-6.24-6.51-10.25-8.73-3.79-2.09-12.63-1.57-15.6,1.14-4.72,4.3-9.33,8.73-14,13.09-1.07,1.01-1.99,2.12-2.83,3.34-7.75,11.26-14.62,23.11-22.8,34.06-8.04,10.75-14.44,22.44-19.79,34.63-3.98,9.06-8.94,17.47-14.07,25.84-1.75,2.86-3.1,5.9-4.21,9.05-1.59,4.49-1.5,8.93.46,13.32.5,1.12.98,1.97,2.51,1.61,1.16-.28,2.24.2,2.03,1.65-.28,1.99.77,3.28,2.07,4.43,11.76,10.36,22.83,21.51,35.73,30.55,4.53,3.17,8.41,7.25,13.26,9.94,4.46,2.47,8.76,4.98,12.78,8.25,4.51,3.68,9.47,6.85,13.75,10.86,1.5,1.41,2.27,1.43,3.33-.56,2.58-4.88,6.11-8.81,11.81-10.17.6-.14,1.75.14,1.64-.93-.09-.86-1.13-.76-1.83-.88-1.01-.17-1.94.17-2.82.6-1.34.65-2.78.91-4.23,1.1-2.32.3-3.87-.51-4.74-2.82-1.1-2.93-3.07-3.82-6.13-3.07-2.9.71-3.65.14-3.59-2.93.05-2.84.13-5.48-1.99-7.97-3.92-4.61-2.92-3.79-7.37-1.51-1.15.59-2.15,1.03-3.39.19-2.22-1.5-3.3-3.91-2.77-6.55.37-1.86,1.14-3.56,2.2-5.13,3.44-5.13,6.47-10.52,10.15-15.49.31-.42.92-1.07.33-1.48-.85-.6-.93.38-1.28.88-3.37,4.96-6.27,10.22-9.9,15.01-2.09,2.76-2.96,3.12-5.98,1.31-.69-.42-1.23-1.11-1.95-1.44-2.05-.93-1.99-2.35-1.41-4.22,1.53-4.9,4.44-9.02,7.18-13.25.48-.75,1.94-1.5.34-2.53-1.22-.78-2.21-.94-3.21.63-3.02,4.73-6.22,9.34-9.36,13.98-.95,1.41-4.72,2.72-6.56,2.15-2.02-.62-2.49-2.44-2.8-4.22-.37-2.15.06-4.2,1.23-6.08,2.57-4.14,5.11-8.31,7.68-12.45.63-1.01,1.34-2.21.05-2.99-1.44-.88-1.69.85-2.16,1.58-3.29,5.04-6.48,10.14-9.74,15.2-.58.91-.97,2.14-2.43,2.1-5.28-.14-7.26-3.54-4.77-8.12,3.54-6.5,6.88-13.11,11.21-19.15.93-1.3,1.23-2.62.45-4.1-.3-.57-.42-1.32-1.17-1.44-.92-.14-1.2.67-1.58,1.28-3.4,5.35-6.82,10.7-10.2,16.06-1.87,2.97-3.77,5.91-6.65,8.02-.66.48-1.78,1.47-2.19.23-.57-1.71-1.72-2.33-3.13-3.04-1.22-.62-1.41-1.94-1.21-3.21.23-1.46.72-2.86,1.55-4.08,3.01-4.42,5.37-9.32,9.5-12.93.85-.74,1.44-1.74,1.83-2.85,1.13-3.2,2.89-5.92,5.44-8.26,1.78-1.63,3.31-3.66,3.13-6.35-.06-.97-.31-2.07-1.38-2.39-1.12-.34-1.54.79-1.98,1.48-4.7,7.32-10.23,14.08-14.42,21.75-1.48,2.7-3.35,5.19-5.45,7.48-2.1,2.29-2.23,2.24-6.07.31-2.05-1.03-2.58-2.56-2-4.63,1.05-3.77,2.29-7.47,4.44-10.79,2.16-3.35,4.42-6.64,6.45-10.07,7.29-12.31,13.71-25.15,22.21-36.72,1.02-1.39,1.29-2.95,1.3-4.61.01-1.82.36-3.58,1.43-5.09,3.23-4.57,6.49-9.11,12.32-10.71.77-.21,1.48-.67,2.17-1.09.56-.34,1.25-.84.88-1.54-1.08-2.08.38-3.03,1.69-3.96,2.53-1.77,4.31-4.04,5.73-6.81,2.59-5.08,5.76-9.79,9.76-13.95,2.82-2.94,5.23-6.33,6.84-10.03,1.05-2.42,2.45-2.53,4.38-2.02,4.49,1.2,6.07,5.53,3.29,9.28-3.58,4.83-7.41,9.48-10.38,14.74-.74,1.3-1.05,1.87.93,2.03,2.61.21,4.55-.66,6.27-2.52,2.85-3.08,4.09-6.99,5.71-10.7,1.29-2.96,4.67-4.6,7.79-3.68.7.21,1.38.69,2.11.4,2.18-.89,2.42.49,2.69,2.1.26,1.53-.17,2.92-1.2,3.8-4.04,3.46-6.93,7.66-8.84,12.6-.25.65-.88,1.16-1.33,1.74-1.58,2.02-1.32,2.92.9,4.52,1.94,1.39,2.92.76,3.96-1.14,2.75-5,5.95-9.7,9.72-14q2.99-3.41,7.04-1.85c.13.05.3-.03.53-.06ZM300.55,118.27c-7.48-7.27-15.09-15.31-25.76-19.73-8.25-3.42-16.17-7.71-23.26-13.26-7.13-5.58-14.95-10.09-22.53-14.98-1.36-.88-2.61-1.05-4.13-.62-2.97.85-6.01,1.43-9.11,1.53-1.28.04-2.17.49-2.51,1.83-.57,2.26-1.95,4.09-3.28,5.94-1.67,2.31-3.33,4.62-4.97,6.94-.55.77-1.05,1.75.24,2.16,1.78.57,3.34,2.08,5.42,1.42.16-.05.19-.75.17-1.15-.07-1.62.53-3.02,1.37-4.35,2.13-3.37,4.33-6.7,6.35-10.13,1.03-1.75,2.22-1.87,3.84-1.05,1.43.72,2.25,1.83,2.37,3.44.2,2.51-.49,4.81-1.68,7-1.55,2.86-3.07,5.73-4.6,8.6-.48.9-.53,1.67.58,2.22.99.49,1.92.66,2.52-.45,2.17-4,5.5-7.24,7.17-11.58,1.4-3.65,6.05-4.24,8.6-1.26,1.71,1.99,1.82,4.28.04,6.97-2.01,3.05-4.25,5.96-6.3,8.99-.58.86-2.03,1.81-.12,2.93,2.72,1.6,3.4,1.52,4.63-.38,2.24-3.48,4.58-6.9,6.95-10.29.53-.76,1.41-1.88,2.33-1.3,1.09.69.05,1.79-.4,2.52-2.02,3.33-4.19,6.58-6.24,9.9-.44.72-1.62,1.67-.29,2.44,1.23.71,2.67,1.82,4.04-.09,1.52-2.11,3.17-4.13,4.82-6.14,1.56-1.91,2.2-3.78.19-5.81-.44-.44-.95-1.06-.47-1.73.51-.7,1.31-.54,2.02-.34,1.22.34,1.83,1.26,2.12,2.45.64,2.59-.16,4.77-1.79,6.78-1.59,1.96-3.08,3.99-4.64,5.97-.72.92-.62,1.44.5,2.04,2.11,1.13,3.39.07,4.52-1.47,1.98-2.68,3.9-5.41,5.9-8.08.57-.76,1.24-1.72,2.39-.87,3.79,2.78,4.5,6.51,2.48,9.53-.81,1.21-1.7,2.38-2.63,3.5-.9,1.1-.56,1.62.64,2.14,1.91.83,3.28.67,4.54-1.27,1.5-2.31,3.33-4.4,5.08-6.54,1.17-1.44,2.72-1.21,4.27-.76,1.18.34,2.16.95,2.17,2.3.02,2.97-.25,5.84-2.52,8.15-2.18,2.22-1.98,2.85.78,4.16,1.26.6,1.96.12,2.65-.85,1.51-2.11,3.04-4.2,4.59-6.29.52-.7,1.21-1.24,2.08-.72.97.58.52,1.46.09,2.13-.61.95-1.34,1.83-2.04,2.73-1.05,1.34-2.22,2.61-2.84,4.24-.32.85-.23,1.61.55,2.17.47.34,1.07.71,1.55.23,2.55-2.53,5.93-4.6,5.59-8.9-.13-1.71.65-1.65,1.7-1.04,1.78,1.03,1.54,2.55.66,4-1.56,2.57-3.27,5.05-4.82,7.62-1.02,1.68-.18,3.72,1.79,5.19,1.9,1.43,2.57-.2,3.46-1.26,1.36-1.62,2.77-3.21,3.96-4.95,1.48-2.17,3.08-1.55,4.81-.52,1.74,1.04,2.17,2.39,1.37,4.33-1.28,3.12-3.05,5.94-5,8.63-1.37,1.89-1.24,3.42-.08,5.31,1.02,1.66,1.73,1.92,2.97.28,1.9-2.53,3.9-4.99,5.88-7.46.46-.57,1.13-1.3,1.82-.82.81.57.03,1.35-.33,1.89-2.01,3.06-4.06,6.09-6.14,9.11-.57.83-1.09,1.65-.78,2.7.35,1.21,1.21,2.15,2.23.96,3.38-3.93,9.22-6.62,7.18-13.47-.17-.56-.34-1.42.61-1.57.74-.11,1.16.49,1.44,1.1,1.17,2.63,1.25,5.21-.61,7.59-2.35,3-4.32,6.32-7.31,8.8-.95.79-1.72,1.97-.93,2.98,3.26,4.16,1.88,7.93-.64,11.7-.09.13-.13.3-.18.45-1.38,4.68-4.48,8.26-7.7,11.71-1.84,1.98-4.07,3.59-6.87,3.93-1.92.23-2.41,1.2-2.31,2.95.14,2.44-.04,4.88-.57,7.28-1.41,6.39-6.15,10-12.65,9.56-2.72-.18-4.33,1.21-5.81,3.27-5.91,8.24-10.38,17.51-17.72,24.73-1,.98-.74,1.91.59,2.43,1.06.41,2.15.74,3.21,1.17,2.05.84,1.91,2.56,1.74,4.33-.18,1.8-1.3,2.23-2.88,2.23-1.05,0-2.11.1-3.16.26-.81.12-1.27.72-1.35,1.53-.11,1.02.66,1.18,1.41,1.3,1.63.25,3.27.65,4.49,1.75,1.69,1.53,2.58,1.03,3.76-.69,4.55-6.64,8.75-13.52,13.85-19.78,6.92-8.51,14.18-16.78,19.55-26.42,2.97-5.32,5.63-10.83,9.7-15.45,2.1-2.39,4.1-4.83,5.17-7.91,3.02-8.7,7.75-16.44,13.53-23.55,1.9-2.34,2.67-4.89,2.13-7.94-1.12-6.42-4.31-11.5-9.56-15.3-2.06-1.49-4-3.08-5.7-5.9ZM72.43,77.54c.76,3.26,4.82,3.86,7.42,6.13.21.19.64.28.91.21,2.76-.68,5.63-1.14,7.72-3.32,2.56-2.67,3.42-6.46,1.73-8.39-1.61-1.83-3.52-3.24-6.02-3.92-2.73-.74-5.68-.68-8.2-2.04-1.95-1.06-3.9-2.27-6.05-2.49-4.42-.44-7.66-2.78-10.76-5.62-2.03-1.86-4.48-3.34-6.07-5.61-3.75-5.39-8.09-10.32-11.77-15.77-3.16-4.69-6.28-9.41-7.5-14.94-.95-4.31-3.5-7.45-6.12-10.63-1.56-1.89-3.53-2.47-5.88-1.31-2.49,1.23-5.18,1.9-7.8,2.78-3.23,1.08-6.42,2.49-8.64,5.25-3.98,4.95-2.58,12.11,1.84,17.23,3.92,4.54,8.84,7.84,14.2,10.55,10.44,5.28,21.4,9.53,31.38,15.75,7.04,4.39,14.34,8.43,19.61,16.17ZM116.45,64.09c-3.23.79-6.31,1.74-8.89,3.54-3.12,2.18-6.32,3.6-10.17,3.28-1.4-.12-1.6.71-1.45,1.87.27,2.07-.09,4.04-.97,5.93-2.21,4.77-6.45,7.44-10.72,9.91-1.49.86-1.81,1.49-1.38,2.95.75,2.58,1.46,5.15,2.65,7.58,1.56,3.2,2.29,6.57,2.01,10.15-.14,1.83-.19,3.66-.27,5.49.29.12.59.24.88.36,8.13-17.74,16.45-35.37,28.31-51.06ZM119.36,116.68c-1.38.57-1.72,1.54-2.19,2.35-2.69,4.64-5.31,9.32-8.01,13.95-4.25,7.3-8.57,14.56-12.8,21.86-.93,1.61-1.72,3.33-1.86,5.24-.05.76.06,1.62.8,1.9.96.36,1.2-.64,1.48-1.23,1.23-2.6,2.71-4.97,5.17-6.62.51-.34.91-.94,1.21-1.5,4.21-7.81,9.29-15.07,13.99-22.57.78-1.25,1.49-2.56,1.37-4.09-.25-3.02.04-5.99.84-9.29ZM205.18,221.47c2.37.14,4.3.2,6.23.39,1.32.13,2.08-.3,2.65-1.54,1.23-2.67,2.54-5.27,1.88-8.39-.16-.75.06-1.63.3-2.39,1.59-5.13,9.38-11.37,14.82-11.66,1.98-.11,3.03-.87,3.96-2.55,2.9-5.24,2.7-5.77-3.23-7.19-1.01-.24-1.8-.08-2.37.73-5.25,7.57-12.4,13.77-16.05,22.48-.57,1.36-1.47,2.5-2.6,3.49-2.08,1.82-3.8,3.96-5.59,6.63ZM107.98,208.26c-7.27-6.08-14.35-12.47-22.52-17.34-4.08-2.44-6.93-5.8-9.52-9.57-6.24-9.1-6.75-18.5-1.6-28.27,4.02-7.62,7.93-15.3,11.89-22.95.33-.64.85-1.24.56-2.36-.43.59-.67.91-.9,1.23-4.15,5.75-7.26,12.13-10.86,18.2-4.67,7.88-7.32,16.44-5.59,25.83.34,1.84.64,3.62,1.73,5.26,5.08,7.57,12.58,12.66,19.33,18.44,5.26,4.5,11.81,7.39,17.48,11.54ZM107,170.61c1.26-1.37,2.79-2.94,3.91-4.85,4.09-6.92,8.17-13.84,12.24-20.77.28-.48.62-1.01.66-1.54.06-.8-.07-1.75-.9-2.1-.76-.32-1.06.55-1.47,1.01-2.6,2.92-4.95,6-6.44,9.68-.93,2.29-2.51,4.19-4.24,5.9-3.15,3.1-4.94,7-6.73,10.92-.34.75-.6,1.59.27,2.19.84.58,1.69.46,2.71-.43ZM144.89,77.83c6.16-3.21,11.22-7.58,14.55-13.68,3.02-5.53,6.85-10.38,11.27-14.82.58-.58,1.23-1.3.29-2.05-.79-.63-1.67-1.51-2.75-.4-.34.35-.6.77-.9,1.15-7.59,9.82-15.88,19.1-22.46,29.79ZM239.93,227.02c.16-.18.33-.36.49-.54,7.34-8.53,13.59-17.81,19.22-27.53.37-.63.86-1.33.04-1.93-.65-.48-1.43-.4-2.04.11-.62.51-1.19,1.1-1.69,1.73-4.32,5.41-8.25,11.07-11.19,17.37-.75,1.61-1.91,3-3.13,4.33-1.31,1.44-2.57,2.93-3.78,4.46-.46.58-1.31,1.25-.35,2.07.78.66,1.64.62,2.43-.07ZM217.99,198.62c2.67-3.3,5.57-6.88,8.46-10.46.81-1-.05-1.43-.71-1.88-1.71-1.17-3.75-.81-5.63-1.17-1.2-.23-2.02.15-2.63,1.2-1.75,3.01-3.57,5.98-5.28,9.01-1.08,1.9-.04,3.41,1.15,4.82,1.39,1.64,2.02-.33,2.99-.65.45-.15.86-.44,1.66-.86ZM188.9,189.11c.58.78,1.05,1.88,2.05.3,2.73-4.33,5.51-8.62,8.26-12.94.4-.63.72-1.27.04-1.97-2.08-2.16-6.52-1.67-8.09.92-.8,1.32-1.62,2.63-2.42,3.95q-2.95,4.81.04,9.53c.04.07.09.14.13.21ZM129.58,158.99c-1.06-1.7-2.02-1.79-3.05-.03-.94,1.61-2,3.15-3,4.73-2.47,3.91-4.99,7.8-7.38,11.76-.71,1.18-1.8,2.61.09,3.79,1.85,1.15,2.81-.02,3.66-1.48.45-.77.96-1.51,1.54-2.18,3.31-3.83,5.96-8.09,8.49-12.45.89-1.53.93-2.91-.35-4.13ZM127.47,186.31c1.24,1.53,3.39,1.66,4.22.19,2.84-5.02,6.09-9.77,9.24-14.59.72-1.1,1.03-2.21-.22-2.93-1.2-.7-2.74-1.68-3.89,0-3.24,4.75-6.39,9.57-9.53,14.4-.61.93-.65,2,.17,2.94ZM120.93,217.91c3.83,4.75,63.9,50.68,68.96,53.01-2.45-2.09-4.87-4.25-7.55-6.01-8.02-5.27-15.57-11.15-22.99-17.22-5.16-4.21-9.41-9.52-15.21-12.91-6-3.5-11.43-7.74-16.87-11.99-2.1-1.64-4.22-3.26-6.33-4.88ZM206.36,238.11c.08-.2.35-.52.29-.77-.72-3.21,1-5.8,2.14-8.52.54-1.3-.06-1.7-1.21-1.98-2.83-.69-5.66-1.39-8.44-2.24-1.74-.54-2.72,0-3.52,1.53-.91,1.72.35,2.28,1.37,3.07,3.11,2.37,6.91,4.11,7.7,8.59.16.91.91.72,1.67.34ZM142.83,191.81c1.43,1.79,2.16,1.76,3.42-.21,2.84-4.43,5.65-8.88,8.45-13.34,1.17-1.87.8-2.63-1.34-3.12-1.46-.33-2.29.5-3.04,1.51-1.43,1.96-2.74,4.02-4.29,5.89-1.7,2.05-2.69,4.4-3.57,6.85-.33.91-.34,1.75.36,2.42ZM194.47,62.74c-3.83,3.8-7.17,7.96-9.47,12.89-.35.76-1.14,1.72-.09,2.38,1.11.7,2.5,1.14,3.59-.04,3.59-3.9,6.75-8.12,9.25-12.81.51-.96.54-1.87-.42-2.61-1-.77-1.95-.67-2.86.19ZM243.93,207.21c.76,1.54,1.45,1.66,2.14.81,2.92-3.6,5.6-7.35,7.62-11.54.39-.82.26-1.27-.7-1.62-4.42-1.64-4.92-1.5-7.39,2.49-.56.9-1,1.9-1.72,2.64-2.69,2.75-1.55,5.25.06,7.22ZM98.32,104.94c.51-1.01,1.07-2,1.54-3.03,7.7-16.84,18.47-31.86,28.15-47.53,3.03-4.9,6.18-9.73,9.25-14.61.37-.6.92-1.47.15-1.96-.97-.62-1.17.54-1.47,1.1-2.38,4.34-4.44,8.89-7.14,13.02-5.99,9.18-12.18,18.22-17.89,27.59-4.95,8.12-9.79,16.26-12.59,25.42ZM191.17,193.21c2.39-1.48,4.73-2.71,7.39-3.34,1.16-.27,1.97-1.1,2.65-2.04,1.53-2.1,3.01-4.24,4.58-6.3.78-1.02,1.4-2-.15-2.73-1.27-.59-2.5-2.56-4.09-.28-3.42,4.92-6.92,9.79-10.38,14.68ZM201.95,85.19c2.93-3.99,5.9-7.95,8.77-11.98.59-.82.77-1.99-.51-2.43-1.21-.41-2.6-1.39-3.71.27-2.57,3.85-5.16,7.69-7.71,11.56-.54.82-1.05,1.77.15,2.52.96.6,1.93.91,3.01.07ZM200.61,66.51c-.79.62-1.44,1.14-1.7,1.95-1.19,3.65-3.5,6.57-6.04,9.34-1.02,1.11-1.85,2.1.02,3.3,1.54.98,2.65,1.28,3.82-.56,2.27-3.56,4.58-7.12,7.15-10.47,1.2-1.57.33-2.25-.5-3.27-.95-1.17-1.88-1.09-2.75-.3ZM234.44,83.48c-.92.14-1.82-2.79-3.01-.54-2.17,4.12-5.33,7.54-7.63,11.54-.41.72-.98,1.57.2,1.97,1.22.42,2.54,2.36,3.79.57,2.5-3.58,4.72-7.35,7.02-11.07.44-.72.54-1.54-.38-2.48ZM152.42,22.31c2.74-2.11,5.41-4.33,8.24-6.31,2.29-1.6,5.13-2.65,4.64-6.26-.12-.9,1.58-1.86.4-2.48-1.2-.63-2.82-.82-4.21.04-1.01.63-1.68,1.52-2.02,2.65-.66,2.15-1.84,3.91-3.53,5.44-1.95,1.75-3.03,4.09-3.51,6.93ZM208.45,182.52c-.84,1.1-1.77,2.32-2.7,3.54-3.55,4.71-3.24,3.69,1.91,6.08,1.47.68,2.45.27,3.19-1.12.83-1.57,1.76-3.09,2.64-4.64.52-.91,1.27-1.88-.15-2.64-1.47-.78-2.68-2.6-4.89-1.22ZM220.43,76.46c-.16.18-.35.35-.48.55-2.6,4.22-5.2,8.44-7.8,12.65-.22.36-.37.67,0,1.07.98,1.06,3.07.97,3.97-.24,2.51-3.36,4.05-7.21,5.76-10.99.39-.86.27-1.75-.05-2.62-.28-.77-.68-1.13-1.4-.43ZM174.34,69.73c.59-.86,1.58-1.9,2.11-3.14,1.49-3.46,3.3-6.66,6.11-9.23,1.06-.97.59-1.74-.47-2.24-1.48-.69-2.73-.42-3.35,1.23-.72,1.91-1.73,3.65-2.92,5.3-1.47,2.03-2.94,4.06-4.39,6.11-.48.68-.55,1.34.25,1.87.75.5,1.47,1.1,2.65.11ZM185.28,172.21c-1.58,2.02-3.48,4.23-4.8,6.85-.47.94-1.43,2.07.44,2.67,1.35.43,2.73,1.79,3.79-.55,1.23-2.72,2.69-5.34,4.03-8.01.24-.49.74-1,.4-1.56-.36-.58-1.03-.31-1.57-.28-.73.04-1.45.15-2.3.88ZM214.37,268.54c3.37.84,6.59,2.46,10.19,1.84,4.03-.69,4.24-1.22,1.77-4.3-.51-.63-1.04-1.25-1.52-1.91-.61-.82-1.28-1.08-1.93-.13-2.04,2.98-5.28,3.56-8.5,4.49ZM185.48,210.68c-1.11,1.35-2.47,2.95-3.76,4.6-.73.93-.16,1.24.75,1.34,2.09.23,4.17.5,6.26.74.65.07,1.31.14,1.71-.57.39-.7.48-1.41-.1-2.02-.81-.86-1.12-1.89-1.41-3.01-.41-1.58-1.99-2.14-3.44-1.08ZM179.04,174.21c-.28-.05-.52-.11-.75-.14-2.76-.34-7.13,2.9-7.55,5.55-.12.78.07,1.19.91,1.38,3.06.69,7.49-2.87,7.51-6.1,0-.23-.08-.45-.12-.69ZM240.25,192.63c-.99,1.04-1.94,2.74-2.97,4.37-.98,1.54.42,1.92,1.23,2.6.96.8,1.75.62,2.39-.43.93-1.52,1.92-3,2.78-4.55.41-.75,1.65-1.53.51-2.49-1.13-.95-2.4-.82-3.92.5ZM254.01,108.07c1.78-1.68,3.59-3.36,3.82-5.99.08-.88-.1-1.89-1.05-2.28-.86-.36-1.28.47-1.71,1.03-1.23,1.6-2.48,3.2-3.65,4.84-.5.7-1.71,1.49-.52,2.39.87.66,2.08,1,3.11,0ZM269.33,105.17c-2.04,1.64-3.47,3.39-4.57,5.4-.39.71-.92,1.52.15,2.07.82.42,1.75,1.23,2.66.32,1.81-1.8,3.22-3.87,3.49-6.5.06-.6.23-1.42-.5-1.72-.55-.23-1.04.3-1.24.43ZM292.6,123.95c-1.13,1.43-2.51,3.11-3.83,4.85-.66.86-1.07,1.84-.46,2.92.42.76,1.06,1.17,1.66.25,1.52-2.36,3.27-4.6,4.37-7.22.19-.46.3-.98-.16-1.33-.49-.36-.9,0-1.58.53ZM184.04,206.72c-1.38.65-2.77,1.27-4.14,1.94-1.61.79-2.31,3.85-1.23,5.24.48.61,1.06.51,1.44,0,1.64-2.17,3.28-4.36,3.94-7.19ZM236.74,209.15c-1.04-1.38-2.22-2.59-3.92-3.13-.72-.23-1.46-.25-2,.42-.28.35-.18.77.05,1.13.4.61.99.79,1.69.67.32-.06.63-.13.94-.22,1.7-.5,2.08.39,1.76,1.79-.2.87-.6,1.7-.34,2.6.27.94.61,2.11,1.76,1.99,1.32-.13,1.39-1.42,1.4-2.48.02-1.12-.75-1.93-1.35-2.79Z" fill="#fb97aa"/>
        <path d="M53.05,123.4c3.84-5.24,7.93-10.28,10.32-16.39.67-1.7,1.08-3.95,3.77-2.91,2.04.79,2.51,3.26,1.07,5.63-3.65,5.97-7.62,11.73-11.63,17.45-.14.2-.33.37-.44.58-.42.81-1.59,1.65-.62,2.55.99.91,1.76-.33,2.46-.86,4.79-3.64,9.54-7.35,14.31-11.02.58-.44,1.18-.88,1.82-1.22.71-.37,1.42-.26,2.02.32.55.55.47,1.17.16,1.8-2.06,4.22-4.64,8.03-8.56,10.76-5.81,4.04-11.89,7.64-18.21,10.83-.28.14-.54.32-.74.85,2.82-.3,5.65-.59,8.47-.91,1.84-.21,3.59-.09,5.06,1.19.52.45.87.99.54,1.71-.27.58-.83.98-1.37.8-3.57-1.18-6.46.91-9.57,1.91-1.97.64-3.96,1.23-5.91,2.14,5.29-.11,10.47.21,15.67,1.9-1.22,1.4-2.85,1.67-4.36,2.04-8.99,2.22-18.12,3.4-27.33,2.22-4.38-.56-8.84-.21-13.04-.92-3.98-.68-7.23.65-10.78,1.27-.76.13-1.79.74-2.14-.29-.38-1.14.79-1.51,1.61-1.73,5.66-1.49,11.3-3.07,17.02-4.31,5.12-1.11,9.67-3.2,13.82-6.37,2.19-1.68,4.56-3.12,6.86-4.65,1.27-.84,1.7-1.75.91-3.26-.99-1.88-.8-3.95-.36-5.97,1.02-4.7,2.11-9.48,4.62-13.57,2.1-3.42,4.12-6.9,6.33-10.26.26-.4.61-.78.98-1.08.71-.57,1.57-1.08,2.46-.66.92.43.57,1.41.53,2.19-.29,5.56-2.42,10.59-4.58,15.6-.38.87-.75,1.75-1.13,2.62ZM70.97,122.97c-4.76,3.67-9.52,7.34-14.28,11.02,6.06-2,10.92-5.54,14.28-11.02Z" fill="#fb97aa"/>
        <path d="M37.65,123.61c-1.93,1.16-3.6,1.38-5.26.65-2.6-1.13-5.15-2.38-7.7-3.62-1.34-.65-2.04-1.82-2.33-3.24-1.07-5.23-.33-10.18,2.43-14.77,1.51-2.51,3.49-2.93,5.97-1.38,1.41.88,2.47,2.1,3.43,3.42,2.12,2.93,4.5,5.54,7.88,7.07,1.03.46,1.91,1.34,1.38,2.5-1.6,3.47-3.82,6.57-5.78,9.37ZM29.87,105.7c-1.57,3.85-.76,6.5,2.46,8.75,1.08.75,2.04,1.55,2.73,2.7.33.56.52,1.85,1.33,1.31,1.02-.68,1.8-1.84,2.42-2.95.52-.93-.51-1.16-1.13-1.47-1.7-.85-3.01-2.16-4.17-3.63-1.18-1.5-2.33-3.02-3.64-4.71Z" fill="#fb97aa"/>
        <path d="M7.54,125.94c6.72-4.76,12.65-4.65,18.66.13,1.75,1.39,3.53,2.25,5.81,1.6.6-.17,1.3-.15,1.93-.06.74.1,1.84-.15,1.92.99.06.88-.67,1.44-1.47,1.74-4.04,1.52-7.72,3.76-11.54,5.71-1.48.76-2.96,1.27-4.63.41-.51-.26-1.28-.17-1.89-.05-4.73.91-8.14-1.41-11.18-4.55-1.3-1.34-1.07-2.86.14-4.13.77-.81,1.77-1.41,2.25-1.78ZM11.98,126.98c-2.07,1.56-2.1,2.8-.12,4.48,3.05,2.58,10.08,2.58,13.25.07,1.11-.88.99-1.5-.1-2.21-2.53-1.65-5.18-3.05-8.21-3.51-1.76-.27-3.39.05-4.82,1.17Z" fill="#fb97aa"/>
        <path d="M160.68,140.66c-6.47,4.63-11.6,9.46-17.95,12.58-2.09,1.03-2.72.73-2.78-1.61-.05-2.28,1.33-3.61,3.13-4.55,4.97-2.6,9.84-5.38,14.53-8.47.88-.58,1.84-1.07,2.64-1.75,8.92-7.59,19.03-13.26,29.3-18.78,6.79-3.65,13.15-8.09,19.7-12.18.41-.26.78-.59,1.2-.83.73-.41,1.59-.79,2.19.04.57.8-.24,1.4-.73,1.84-1.38,1.25-2.71,2.71-4.34,3.52-7.01,3.51-12.87,8.85-19.83,12.41-9.95,5.1-19.32,11.09-27.06,17.78Z" fill="#fb97aa"/>
        <path d="M137.96,135.16c4.79-2.73,9.56-5.51,14.39-8.18,8.67-4.79,17.04-10.07,25.46-15.28,5.27-3.26,10-7.22,14.96-10.9,1.44-1.07,2.82-1.57,4.44-.45.88.61.88,1.13-.1,1.56-8.8,3.89-15.58,10.79-23.58,15.88-5.2,3.31-10.31,6.79-15.82,9.57-3.88,1.96-7.02,4.96-10.72,7.17-2.86,1.72-5.82,3.22-8.78,4.74-.61.32-1.38.88-2.04.35-.78-.64-.21-1.5.02-2.24.3-.96.89-1.72,1.76-2.23Z" fill="#fb97aa"/>
        <path d="M283.07,155.02c-9.43,6.39-15.88,14.6-24.46,20.25-2.24,1.47-4.4,3.05-6.6,4.58-1.08.75-2.11.86-2.97-.32-.91-1.26.02-1.97.9-2.56,2.83-1.89,5.92-3.37,8.64-5.46,5.23-4.03,9.66-8.91,14.49-13.37,3.57-3.31,7.19-6.57,10.8-9.84,1.1-.99,2.37-1.7,3.79-2.15,1.02-.32,2.01-.29,2.58.71.57.99.18,2.15-.64,2.61-2.91,1.6-4.98,4.12-6.52,5.55Z" fill="#fb97aa"/>
        <path d="M227.63,119.71c-7.92,5.7-16.13,10.95-24.4,16.12-6.27,3.91-12.34,8.15-18.86,11.65-.94.51-2.09,1.8-2.99.92-.91-.87.04-2.28.49-3.38.42-1.01,1.27-1.64,2.24-2.14,11.22-5.74,22.07-12.14,32.68-18.92,4.04-2.58,7.84-5.52,11.8-8.21,1.2-.81,2.87-2.5,3.98-.96.99,1.38-1.4,1.91-2.28,2.81-.78.81-1.78,1.41-2.68,2.11Z" fill="#fb97aa"/>
        <path d="M276.39,142.22c.97-.66,1.8-1.33,2.73-1.81.75-.4,1.69-.99,2.45-.11.71.82.6,1.89.04,2.74-1.09,1.63-2.34,3.29-4.23,3.9-4.69,1.53-7.83,5.15-11.39,8.15-8.01,6.75-15.88,13.66-23.81,20.5-.61.53-1.29.99-1.99,1.4-.96.55-1.92.49-2.6-.45-.72-.99-.01-1.68.68-2.27,2.66-2.27,5.31-4.54,8.01-6.75,7.29-5.97,15.07-11.34,22.06-17.69,2.76-2.51,5.44-5.12,8.07-7.61Z" fill="#fb97aa"/>
        <path d="M229.01,137.9c-7.14,5.25-14.39,9.6-21.64,13.94-.14.08-.29.15-.44.21-1.22.5-2.82,1.23-3.6.04-.92-1.43.85-2.17,1.78-2.93,5.8-4.77,12.5-8.19,18.73-12.3,5.96-3.93,11.89-7.98,18.45-10.89,1.23-.55,2.99-2.18,3.87-.72.89,1.48-1.4,2.19-2.45,2.98-4.81,3.61-10.68,5.6-14.71,9.67Z" fill="#fb97aa"/>
        <path d="M163.99,104.67c-6.45,3.31-12.18,8.33-18.56,12.38-.75.48-1.55.89-2.37,1.27-.71.33-1.67.99-2.18.09-.59-1.03.26-1.83,1.14-2.35,6.48-3.76,12.27-8.52,18.55-12.58.75-.49,1.52-.95,2.31-1.35.89-.45,2.02-.88,2.59.21.5.95-.46,1.58-1.49,2.33Z" fill="#fb97aa"/>
        <path d="M259.56,135.54c2.79-2.37,5.99-4.14,8.94-6.29.51-.37,1.12-.69,1.73-.83,1.08-.26,2.28-.18,2.7.98.38,1.04-.68,1.62-1.46,1.93-5.73,2.26-10.34,6.31-15.43,9.59-.34.22-.67.46-1.02.65-.43.23-.95.47-1.34.07-.53-.54-.09-1.08.26-1.5,1.31-1.58,3.11-2.58,4.68-3.85.31-.25.64-.5.96-.74Z" fill="#fb97aa"/>
        <path d="M235.91,124.07c-.8-.38-1.12.17-1.5.57-.38.41-.72,1.02-1.38.65-.62-.34-.77-1.01-.7-1.7.24-2.3,2.68-3.45,4.58-2.16.54.36,1.03.8,1.6,1.11,1.91,1.06,1.67,2.34.42,3.72-1.01,1.11-2.27,1.39-3.49.53-1.55-1.09.75-1.62.48-2.73Z" fill="#fb97aa"/>
        <path d="M151.56,115.83c1.52-1.07,3.04-2,4.95-1.68.36.06.82.3.98.59.25.47-.22.66-.6.81-.15.06-.31.09-.46.15-1.32.56,1.27,1.42-.18,2.04-1.1.47-1.28-1.31-2.28-.82-.53.26-.99.69-.53,1.34.37.52,1.04.98.05,1.5-.99.52-2,.67-2.95-.08-.71-.56-.94-1.29-.59-2.15.32-.79,1.05-1.2,1.6-1.69Z" fill="#fb97aa"/>
        <path d="M133.31,123.93c-1.23,1.06-2.41,1.76-3.7,2.27-.6.24-1.31.51-1.76-.17-.49-.72-.15-1.43.44-1.94,1.48-1.27,3.04-2.43,4.98-2.9.69-.17,1.59-.52,1.99.26.41.8-.48,1.24-.99,1.72-.35.33-.76.6-.96.75Z" fill="#fb97aa"/>
        <path d="M30.21,26.82c3.69,3.92,4.18,8.52,2,13.57-.72,1.66-1.65,2.22-3.4,1.34-3.41-1.72-6.97-3.15-10.3-4.99-4.29-2.37-6.39-6.54-8.19-10.87-.43-1.05-.81-2.13-1.27-3.17-1.62-3.7.62-6.8,4.68-6.46,6.22.53,10.91,3.52,16.47,10.58ZM26.2,34.84c-3.3-4.68-6.88-8.19-10.25-11.89-.48-.53-.99-1.31-1.8-.88-1.01.54-.45,1.43-.14,2.13,2.3,5.15,6.08,8.67,12.19,10.64Z" fill="#fb97aa"/>
      </g>
    </g>
  </g>
</svg>