<?xml version="1.0" encoding="UTF-8"?>
<svg id="Lag_1" xmlns="http://www.w3.org/2000/svg" viewBox="0 0 178.64 148.43">
  <path d="M178.08,48.6c-.72-4.81-1.77-9.56-2.71-14.33-.78-3.94-1.39-7.91-1.84-11.9-.26-2.27-.27-4.57-.43-6.85-.08-1.03-.09-2.2-1.08-2.79-1.01-.6-2.03-1.27-3.21-1.54-.23-.05-.57-.05-.62-.34-.06-.34.27-.48.51-.6,1.56-.85,2.95-1.92,4.09-3.28,1.19-1.42,2.43-2.81,2.8-4.72.26-1.33-.47-2.2-1.82-2.24-1.42-.05-2.65.46-3.75,1.3-2.09,1.57-4.05,3.28-5.66,5.35-.54.69-.98.73-1.74.37-1.4-.65-2.88-1.13-4.42-1.26-3.15-.27-6.32-.3-9.48-.21-3.84.11-7.24,1.42-10.36,3.55-1.18.81-2.03,1.94-1.99,3.45.12,3.77-.43,7.51-.51,11.28-.02.79-.28,1.16-1.11,1.31-3.44.62-6.02,2.55-7.88,5.46-1.9,2.97-2.74,6.32-3.3,9.73-.91,5.58-.89,11.09,1.86,16.25,1.5,2.81,3.51,5.13,6.77,5.98.29.07.57.16.6.5.11,1.1-.05,2.2.24,3.51-.76-.46-1.24-.75-1.72-1.04-3.01-1.8-6.11-3.14-9.71-1.85-.06.02-.12.02-.19.03-.63.14-1.01-.08-1.2-.72-.15-.51-.38-.99-.72-1.42-1.6-2.09-5.98-2.57-8.04-.8-.67.58-.87.44-1.08-.32-.22-.81-.41-1.64-.81-2.4-.8-1.53-1.56-3.08-2.31-4.63-1-2.06-2.43-3.72-4.47-4.81-.46-.25-1.13-.26-1.44-.61-.39-.43.28-.95.27-1.48-.02-.59.15-1.24-.43-1.65-.56-.4-1.14-.18-1.69.09-.73.36-1.48.7-2.2,1.08-.54.28-.71.22-.64-.44.11-1.03.19-2.07-.3-3.05-.48-.97-.83-1.04-1.63-.33-1.08.97-1.8,2.24-2.69,3.37-.18.23-.26.67-.64.6-.34-.07-.33-.49-.44-.78-.6-1.54-.58-3.2-.89-4.8-.12-.64-.22-1.37-1.03-1.52-.81-.15-1.26.42-1.65,1.02-.81,1.28-.77,2.68-.61,4.1.11,1.08.38,2.12.83,3.31-.66-.33-1.1-.56-1.55-.78-.46-.22-.94-.47-1.42-.12-.52.38-.39.95-.34,1.48.1,1.03.89,1.64,1.5,2.33.49.55.33.66-.27.79-1.2.25-2.39.53-3.43,1.23-.4.27-.81.59-.7,1.12.12.59.65.73,1.17.76.66.04,1.32,0,1.98.04.65.04,1.09.22.8,1.06-.22.62-.21,1.34.64,1.48.75.12.78.55.76,1.14-.06,1.19-.08,2.38.36,3.52.25.65-.19.67-.64.65-1.24-.05-2.46.05-3.57.66-2.24,1.24-4.58,2.16-7.09,2.7-1.92.41-3.73,1.13-5.3,2.35-1.15.9-2.28,1.89-2.12,3.55.11,1.14-.42,1.65-1.39,1.98-2.59.87-5.16,1.78-7.74,2.68-.98.34-1.11.26-.99-.76.33-2.99-.55-5.61-2.54-7.8-.86-.94-1.06-1.77-.41-2.83.08-.13.14-.28.2-.43,1.12-2.99,2.08-6.01,1.16-9.25-.74-2.61-2.39-4.29-5.11-4.8-1.61-.3-3.2-.16-4.74.35-.79.26-.97.04-.98-.74-.04-2.36-1.07-4.3-2.83-5.82-2.79-2.42-6.21-3.41-9.74-3.93-4.65-.68-9.22-.08-13.59,1.67-2.94,1.18-5.46,2.95-6.61,6.04-.64,1.69-.95,3.51-1.13,5.33-.41,4.06-.84,8.11-.69,12.2.02.53-.19.91-.68,1.13-3.27,1.45-5.86,3.75-8.01,6.54-1.89,2.46-3.06,5.22-2.37,8.42.77,3.61,3.12,6.08,6.09,8.03,3.97,2.61,8.46,3.79,13.07,4.53,4.64.74,9.31.85,13.97.06.21-.04.47-.15.62.05.19.24-.03.49-.15.68-.8,1.29-1.38,2.68-1.92,4.08-1.46,3.77-2.1,7.67-1.9,11.71.02.48.26.93.3,1.52.31.52.55,1.08.72,1.69.65,1.11.98,2.3.99,3.58.07.24.11.48.15.72,1.57,3.39,3.62,6.45,6.23,9.14,4.82,4.98,10.72,8.31,17,11.06,4.03,1.77,8.17,3.23,12.39,4.45,4.4,1.27,8.87,2.3,13.37,3.14,2.52.47,5.08.76,7.63,1.07,2.43.3,4.86.62,7.3.77,3.19.2,6.37.53,9.57.63,3.65.12,7.28.02,10.9-.34,5.5-.56,10.93-1.51,16.27-2.98,7.85-2.17,15.3-5.27,22.18-9.68,4.69-3.01,9.12-6.34,12.77-10.6,2.28-2.67,4.08-5.63,5.37-8.91,1.09-2.77,1.62-5.65,1.9-8.61.58-6.18-1.19-11.5-5.77-15.74-3.25-3.01-6.88-5.55-10.6-7.96-.64-.41-1.37-.7-1.9-1.27.13-.23.3-.2.45-.22,3.39-.49,6.75-1.08,9.99-2.26,4.29-1.55,7.24-4.4,8.8-8.68.92-2.51,1.44-5.12,1.96-7.74.97-4.93.88-9.89.14-14.8ZM168.36,12.71c.58.37,1.24.59,1.72,1.11.15.16.33.29.33.56-.06.4-.34.51-.67.31-1.28-.79-2.67-.99-4.14-.9-.18.01-.41.05-.51-.14-.11-.21.1-.33.22-.47,1.12-1.33,1.57-1.42,3.05-.48ZM167.04,17.19c.03.37-.43.38-.69.52-1.12.59-2.36.77-3.59.99-.25.04-.49.09-.73.14-.32.06-.71.41-.93.05-.19-.33.26-.58.45-.85.27-.38.57-.74.82-1.14.32-.51.77-.71,1.36-.63.87.07,1.74.16,2.57.46.28.1.72.12.75.46ZM163.83,11.31c1.63-2.4,3.57-4.52,5.71-6.48.68-.62,1.45-1.09,2.25-1.51.16-.09.35-.23.52-.09.22.19.06.41-.04.6-.4.76-1,1.36-1.61,1.94-2.3,2.17-4.88,4.05-6.97,6.44-.82.94-1.57,1.94-2.35,2.92-.06-.04-.12-.07-.19-.11.89-1.23,1.82-2.44,2.68-3.7ZM139.94,11.34c2.13-1.76,4.61-2.84,7.32-3.23,3.66-.52,7.32-.19,10.96.29,1.07.14,2.06.55,3.05.96.26.1.59.2.53.56-.06.37-.39.48-.72.48-.78,0-1.57,0-2.35-.04-2.25-.14-4.5-.31-6.76-.45-1.45-.09-2.88.09-4.3.36-.83.16-1.65.41-1.75,1.3-.11.92.77,1.18,1.46,1.48.16.07.35.1.52.15-1.33.43-2.62.7-3.88,1.1-1.13.36-2.18.81-3.01,1.66-.39.4-.67.32-.98-.11-.63-.87-.93-1.84-1.03-2.89-.08-.77.44-1.22.94-1.64ZM155.17,18.87c-.29.45-.64.65-1.16.64-.85,0-1.69,0-2.54,0-2.49.04-4.95-.09-7.34-.87-.29-.09-.71-.11-.74-.48-.03-.33.38-.38.61-.5,2.43-1.26,5.07-1.85,7.76-2.05,1.64-.12,3.3-.37,4.96-.1.65.11.66.26.29.74-.65.84-1.27,1.71-1.85,2.6ZM155.56,23.44c-1.71,2.44-3.24,4.99-4.79,7.54-.03.05-.06.11-.1.16-.18.21-.35.61-.62.45-.39-.22-.04-.57.1-.8,1.37-2.17,2.75-4.34,4.16-6.49.42-.65.64-1.5,1.49-1.85.24.47-.05.73-.24.99ZM154.2,13.01c1.74-.21,3.36-.4,4.98-.6.24-.03.54-.18.69.08.16.27-.15.43-.28.63-.49.76-1.13.96-2.02.7-1.08-.32-2.18-.53-3.37-.81ZM138.16,18.42c1.4,1.37,2.67,2.46,4.3,3.05,2.38.86,4.83,1.3,7.36,1.28.69,0,1.38-.01,2.07,0,.61,0,.82.28.5.84-1.43,2.43-2.88,4.85-4.3,7.27-.22.38-.5.49-.94.43-.75-.11-1.45-.4-2.16-.62-.34-.11-.72-.16-.9.24-.18.39.09.66.4.85.48.29.97.57,1.48.81.87.41.99.62.35,1.38-.68.8-1.49,1.49-2.32,2.3-.27-.56-.17-1.03-.18-1.48-.02-3.89-1.43-7.01-4.91-9.02-.32-.19-.52-.44-.58-.81-.31-2.08-.13-4.17-.18-6.51ZM145.93,43.68c-.84-.3-1.3-.93-1.54-1.76-.58-2.07-.02-4.03,1.72-5.26.93-.66,1.58-1.48,2.13-2.43.14-.23.24-.6.58-.51.34.09.3.48.22.73-.44,1.38-.26,2.61.57,3.82.5.73.11,1.59-.06,2.37-.22,1.04-.83,1.9-1.57,2.63-.56.56-1.28.79-2.07.4h.01ZM130.57,59.33c-2.42-1.75-3.86-4.17-4.65-6.99-1.16-4.19-1.15-8.41-.3-12.66.61-3.02,1.24-6.03,3.07-8.61,1.57-2.22,3.64-3.68,6.34-4.2.59-.11.97.09,1.32.49.39.45.83.68,1.38.25.44-.34.83-.12,1.22.1,1.13.63,1.77,1.71,2.29,2.8,1.11,2.32,1.34,4.74.39,7.21-.7,1.83-1.49,2.04-2.76.57-1.17-1.35-1.61-3.02-1.69-4.8.25.63.46,1.28.76,1.88.22.45.55.92,1.16.72.55-.18.58-.7.54-1.18-.14-1.58-.83-2.89-2.1-3.84-.85-.63-3.07-.11-4.16.91-1.63,1.54-2.57,3.5-3.08,5.62-.89,3.71-1.25,7.49-.74,11.3.24,1.77.69,3.52,1.62,5.08.78,1.33,1.79,2.4,3.36,2.85.57.16,1.1.46,1.62.74.66.36.67.82.17,1.37-1.48,1.67-3.81,1.84-5.79.41ZM132.41,52.18c-.44-1.15-.84-2.24-.91-3.38-.23-4.21-.25-8.4,1.4-12.39.35-.85.83-1.62,1.35-2.36.15-.2.31-.44.6-.36.25.07.23.34.29.54.39,1.21.06,2.36-.3,3.5-1.37,4.39-2.09,8.89-2.39,13.47-.02.3.17.6-.05.99ZM121.49,64.99c2.58-.44,4.83.33,7.05,1.66,1.7,1.02,2.95,2.4,4.18,3.85.41.48.83.94,1.27,1.39,1.09,1.11,1.14,1.97.07,3.17-1.49,1.66-3.37,2.64-5.58,2.78-2.47.16-4.96-.06-7.43.25-.08.01-.17-.04-.42-.12,1.39-.98,2.1-2.3,2.62-3.77.9-2.54.36-6.34-2.12-8.12-.25-.18-.62-.39-.54-.71.1-.39.57-.32.89-.37ZM116.98,90.1c.97.69,1.91.72,2.99.2,1.67-.8,3.53-.38,5.28-.71,3.07-.57,6.23-.86,8.84-2.87.71-.55,1.11-1.33,1.75-1.95.03.91-.26,1.72-.91,2.29-1.61,1.41-2.82,2.97-3.02,5.22-.08.92-.84,1.58-1.78,1.9-1.56.53-3.17.81-4.8.83-3.17.03-6.34.25-9.5-.15-1.49-.19-2.98-.44-4.48-.48-2.47-.08-4.91.3-7.23,1.06-3.1,1.01-6,.58-8.88-.65-.7-.3-1.41-.55-2.18-.54-.6.01-.86-.29-.94-.82-.39-2.41-.86-4.81-.84-7.27,0-.82.32-1.28,1.09-1.53,1.3-.42,2.53-.39,3.86.05,3.43,1.14,6.93,1.84,10.53.72.8-.25,1.61-.24,2.41-.02.85.24,1.72.36,2.61.34.46-.01.88.03.96.64.07.58-.19.7-.71.93-1.64.73-3.26,1.45-5.04,1.78-3.14.58-6.18.59-8.91-1.43-1.28-.95-2.69-.93-4.14-.54-.47.13-.96.37-.84.95.11.55.6.7,1.12.6,1.32-.24,2.42.15,3.55.86,1.36.86,2.87,1.32,4.54,1.35,3,.05,5.9-.23,8.56-1.77.16-.09.34-.17.49-.28.41-.28.8-.77,1.24-.81.56-.06.55.72.9,1.06.67.66,1.42.64,2.03-.07.73-.86.85-1.94,1.02-2.99.33-1.94.55-2.11,2.46-1.66.95.23,1.82.68,2.7,1.09,3.51,1.62,6.78,1.09,9.86-1.09.66-.47,1.09-1.14,1.41-1.86.24-.53.32-1.14-.19-1.57-.49-.42-1.05-.27-1.58.03-1.17.67-2.13,1.63-3.38,2.2-1.78.81-3.54.68-5.33.18-1.57-.43-3.1-1.05-4.78-.76-.37.06-.55-.09-.47-.47.12-.58.33-1.03,1.03-1.16,2.89-.52,5.79-.66,8.72-.59,1.32.03,2.63-.1,3.93-.32,1.55-.26,2.74.73,3.96,1.45.49.29.28.87-.04,1.25-1.16,1.39-2.47,2.6-4.23,3.2-2.09.71-4.21,1.14-6.44,1.24-2.04.09-4.13.28-6.04,1.22-.3.15-.66.2-.99.29-.35.09-.66.24-.73.64-.06.42.26.57.55.78ZM94.81,106.88c3.34-.17,6.56.44,9.71,1.45.54.17,1.06.39,1.59.57,1.74.6,3.47.36,5.19-.11,2.57-.71,5.15-1.36,7.8-1.74,1.21-.17,2.38-.02,3.56.1,2.85.28,5.72.23,8.56.04,2.47-.16,4.72-1.2,6.78-2.88.03,2.66-1.19,5.47-3.48,6.45-1.66.7-3.32,1.32-5.17,1.22-1.83-.1-3.61.39-5.44.42-2.08.04-4.14-.23-6.19-.41-4.5-.39-8.87.46-13.27,1.1-3.11.46-6.18.43-9.24-.37-1.26-.33-2.16-1.26-3.24-1.88-.46-.26-1.13-.46-1.29-.85-.24-.58.6-.75.9-1.16,1.52-2.09,2.44-4.35,2.27-7-.1-1.62.06-1.66,1.66-1.75,2.38-.14,4.6.54,6.79,1.33,2.71.97,5.41,1.38,8.3.79,2.48-.5,5-.89,7.56-.79,1.17.05,2.27.4,3.37.8,1.51.55,3.1.98,4.69.89,4.18-.23,8.08-1.22,10.85-4.73.48-.61.64-.32.83.2.56,1.54.03,3.17-1.38,4.26-1.67,1.29-3.61,1.71-5.65,1.79-4.36.16-8.71.43-13.07.47-2.32.02-4.51.78-6.66,1.57-1.46.54-2.87.5-4.33.12-2.18-.57-4.29-1.42-6.55-1.69-1.89-.22-3.76-.12-5.62.19-.52.09-1.18.18-1.08.91.09.68.73.72,1.27.69ZM125.25,127.34c-1.59-.64-3.2-1.25-4.87-1.65,3.14-.35,5.81.71,8.16,2.72.61.52.27.79-.3.93-1.88.47-3.8.63-5.67.09-1.77-.51-3.42-1.35-5.24-2.19,2.82-.56,5.14.44,7.49,1.32.45.17,1.07.71,1.39,0,.35-.77-.46-1.03-.96-1.23ZM114.77,124.04c1.4-1.97,3.24-3.07,5.2-4,.34-.16.7-.3.99-.52.38-.28.63-.69.34-1.14-.28-.42-.69-.16-1.02,0-1.92.88-3.76,1.88-5.19,3.49-.41.46-.84.91-1.34,1.28,1.44-2.48,3.4-4.36,6.19-5.22.78-.24,1.58-.41,2.38-.56.76-.14,1,.14.79.89-.19.7-.44,1.37-.91,1.95-1.88,2.28-4.22,3.68-7.44,3.84ZM109.13,132.08c.23-.41,1.31-.46,1.55-.06.33.56.8.99,1.08,1.61.31.67,1,.98,1.84.63.78-.33,1.42-.77,1.81-1.55.67-1.37.34-2.88-.79-3.6-1.01-.64-2.47-.31-3.44.84-.09-1,.69-1.18,1.26-1.38,1.33-.46,2.59-.21,3.73.62.33.24.56.47.37.93-.33.8-.31,1.65-.34,2.5-.1,2.89-3.67,4.76-6.12,3.23-.88-.55-1.46-2.86-.95-3.76ZM107.6,128.54c-1.05.54-1.91.39-2.73-.45-1.54-1.6-1.46-4.11.18-5.63.05-.05.11-.11.16-.16.36-.31.78-.53,1.23-.67,1.65-.51,2.71.06,3.26,1.73.75,2.29.02,4.1-2.11,5.18ZM90.94,99.46c-.3-1.36-.73-2.66-1.13-3.97-.15-.49-.35-.94-.65-1.35-.27-.37-.59-.69-1.1-.5-.47.17-.66.56-.67,1.04-.01.75.02,1.48.22,2.23.34,1.26.66,2.56.32,3.89-.03.11-.09.22-.18.33.06-1.25-.27-2.41-.64-3.57-.48-1.5-.51-2.99-.12-4.53.6-2.38.92-4.81-.41-7.04-1.13-1.9-.63-3.57.3-5.32.61-1.14,1.01-2.38.8-3.69-.27-1.69-1.38-2.7-2.96-3.21-1.02-.33-2.05-.59-3.06-.92-.57-.19-1.17-.45-1.28-1.12-.12-.71.49-1.03.97-1.37.92-.66,2.04-.78,3.09-1.07.51-.14,1.05-.21,1.57-.31,1.59-.32,2.79-1.14,3.34-2.71.28-.8.64-.79,1.21-.29.75.67,1.53,1.3,2.29,1.95.22.19.39.4,0,.56-2.28.9-3.17,2.74-3.07,5,.11,2.5,1.47,4.21,3.92,4.96.05.02.08.09.12.13,0,.16-.11.22-.22.27-2.75,1.32-3.66,3.71-3.82,6.54-.25,4.46.83,8.73,1.95,12.97.61,2.31.66,4.59-.03,6.86-.4,1.29-1.25,2.31-2.35,3.09-.61.43-1.14.29-1.65-.27-1.03-1.14-1.54-2.35-.66-4,.31.8.6,1.45,1.09,1.99.51.56,1.02.55,1.55.06.2-.19.42-.41.51-.67.72-1.92,1.23-3.84.77-5.95ZM96.53,71.18c-.29-.39-.53-.81-.86-1.33,2.29.91,2.98,1.92,2.61,3.64-.4,1.86-2.25,3.33-4.07,3.23-1.48-.08-2.93-1.41-3.14-2.92-.04-.26-.17-.62.15-.76.3-.14.5.17.71.36,1.43,1.3,2.68,1.41,4.2.37.96-.66,1.1-1.66.41-2.59ZM102,79.62c.68.08,1.36.25,2.04.34,1.06.15,2.12.16,3.17-.15.99-.3,1.99-.5,3.05-.36,2.02.27,3.16,1.74,2.88,3.78-.07.53-.3.69-.82.59-.83-.15-1.62-.46-2.46-.61-1.2-.21-2.4-.18-3.55.1-3.32.84-6.52.31-9.7-.69-1.18-.37-2.37-.61-3.61-.25-.19.06-.42.18-.67-.09.61-.94,1.52-1.51,2.49-2.02,2.3-1.2,4.74-.95,7.18-.66ZM134.57,98.1c-2.89,2.55-6.44,3.05-10.16,2.7-1.1-.1-2.15-.39-3.21-.71-3-.91-6.02-1.08-9.08-.2-1.08.31-2.2.52-3.31.66-1.93.24-3.8-.14-5.64-.73-1.94-.63-3.91-1.14-5.95-1.38-.87-.1-1.7.03-2.52.21-.93.2-1.38-.09-1.5-.99-.02-.15-.1-.3-.11-.46-.02-.27-.25-.61-.04-.81.28-.26.57.08.84.19,2.22.87,4.41,1.88,6.86,1.78,1.54-.06,3.02-.52,4.51-.89,2.53-.63,5.08-.75,7.66-.58.91.06,1.81.16,2.72.19,4.38.16,8.74.7,13.13.01,3.66-.58,6.16-2.32,6.92-6.22,2.37,2.93,1.03,5.34-1.12,7.24ZM112.36,61.52c.57-.37,1.06-.56,1.74-.31.43.15.92.12,1.39.15.72.05,1.45.09,2.07.52,1.62,1.11,1.89,2.46.85,4.14-.42.67-.94,1.24-1.59,1.7-1.2.84-2.45,1.11-3.79.4-1.52-.79-2.04-1.7-2.04-3.49-.04-1.25.22-2.34,1.37-3.09ZM110.44,68.97c.25-.48.47-.56.92-.19,2.51,2.11,5.78,1.34,7.55-.99.46-.6.76-.55,1.36-.13,2.52,1.74,2.21,7.24-.44,8.88-2.52,1.56-3.81,3.8-4.12,6.7-.12,1.09-.42,2.15-.65,3.22-.06.29-.09.74-.5.66-.37-.08-.14-.47-.14-.73.04-1.53.59-3.01.28-4.58-.61-3.14-2.82-4.47-5.49-4.05-3.09.49-6.04.28-9.05-.23-.67-.11-1.36-.09-2.32-.15.99-.94,1.63-1.82,2.02-2.87.38-1.03.59-2.06.16-3.12-.29-.72.03-.74.59-.59,1.91.52,3.83.9,5.85.62,1.72-.24,3.14-.86,3.98-2.46ZM98.65,46.98c.25-.1.52-.39.77-.16.28.27,0,.59-.13.85-.37.72-.97,1.22-1.58,1.72-.2.16-.39.31-.58.48-.39.35-.99.72-.57,1.3.4.55.98.13,1.45-.07.37-.16.76-.36,1.04-.64,1.03-1.03,2.09-.64,3.09-.06,1.71.99,2.8,2.6,3.78,4.24,1.42,2.38,2.64,4.86,3.21,7.59.36,1.69.54,3.42.13,5.14-.34,1.39-2.03,2.51-3.45,2.32-.28-.04-.48-.1-.51-.43-.04-.42-.26-.73-.71-.72-.45.01-.53.33-.52.73.01.43-.31.3-.54.27-2.16-.27-4.26-.77-6.27-1.62-.4-.17-.35-.31-.18-.62.29-.54,0-.92-.47-1.14-.51-.23-.78.08-.87.54-.1.5-.38.42-.68.24-2.74-1.71-5.37-3.52-6.43-6.82-.19-.6-.38-1.19-.45-1.82-.16-1.35.12-2.44,1.57-2.91.2-.07.37-.23.55-.35.31-.2.52-.74.87-.62.43.14.3.7.33,1.09.05.62.61,1.45-.62,1.61-.2.03-.25.36-.13.57.17.32.48.63.82.51.6-.22.83.09,1.11.51.31.47.76.75,1.36.68.6-.07.71-.57.84-1.01.63-2.2.85-4.43.41-6.7-.12-.63-.42-1.11-1.14-1.16,1.31-1.44,2.65-2.84,4.52-3.56ZM87.04,49.75c-.27-.19-.55-.41-.72-.85.53.03.88.32,1.27.51.59.3,1.16.62,1.77.86.45.17.93.18,1.28-.28.35-.46,0-.75-.23-1.08-.72-1.03-1.3-2.14-1.65-3.36-.05-.17-.17-.35.05-.59.24.57.44,1.12.69,1.64.22.45.47.89.78,1.28,1,1.24,1.71,1.17,2.42-.24.47-.93.99-1.81,1.85-2.64.26,1.05-.27,1.83-.54,2.64-.15.44-.47.81-.67,1.24-.44.94-.24,1.34.77,1.62-.38.49-.48,1.01-.43,1.66.1,1.22.23,2.47-.18,3.93-.79-1.36-.88-2.69-1.21-3.94-.08-.32.02-.77-.46-.8-.45-.03-.53.37-.58.72-.16,1.16-1.35,1.17-2.02,1.76-.33.29-.84.36-1.41.58.32-.84,1.02-1.12,1.54-1.55.33-.28.75-.45,1.14-.66.28-.16.57-.33.54-.69-.04-.42-.41-.42-.71-.47-1.19-.22-2.3-.63-3.29-1.3ZM71.62,69.62c1.11-.74,2.34-1.17,3.64-1.47,1.98-.45,4.04-.65,5.83-1.75.8-.49,1.62-.95,2.43-1.44.99-.61,2.05-.93,3.08-.82.3,0,.46-.02.62,0,.42.04,1.03-.2,1.22.22.21.46-.37.79-.64,1.14-.41.53-1.05.65-1.65.84-1.58.51-3.23.78-4.79,1.37-1.05.4-1.86,1.07-2.45,1.97-1.04,1.59-.54,3.64,1.07,4.7.96.63,2.05.91,3.14,1.22.88.25,1.75.53,2.34,1.3.2.26.39.53.2.85-.21.34-.49.11-.75.06-.31-.06-.62-.09-.93-.09-1.77-.01-3.48-.24-5.05-1.19-1.45-.88-3.09-1.19-4.75-1.41-.79-.11-1.51-.34-2.24-.67-2.39-1.1-1.75-3.87-.3-4.84ZM86.98,118.72c.82.05.81,1.06,1.52,1.18.2.03.2.21.17.38-.13.64-.03,1.11.75,1.22.25.03.21.3.08.45-.6.71.24,1.1.31,1.63.06.48-.99.91-.2,1.58.25.21-.1.41-.07.58.14.81.22,1.56-.07,2.39-.18.52-.67,1.23.02,1.81-.52.62-1.02,1.25-1.57,1.84-.16.17-.34-.02-.45-.18-.18-.25-.4-.39-.72-.29-.21.06-.48.33-.61-.08-.09-.28-.1-.67.17-.77.65-.24,1.01-1.36,1.98-.65.19.14.45.05.52-.22.09-.32-.07-.62-.34-.7-.64-.2-.6-.59-.44-1.09.11-.33.17-.6.62-.42.28.11.6.06.67-.3.07-.37-.25-.46-.52-.54-.62-.18-1.16-1.1-1.01-1.69.06-.22.19-.31.4-.3.31,0,.6-.06.59-.44-.02-.37-.3-.53-.64-.58-.27-.04-.59.08-.74-.26-.16-.35-.32-.72.22-.92.23-.08.55-.13.53-.45-.02-.36-.38-.35-.64-.43-.2-.07-.45.02-.63-.19.1-.51.92-1.15.16-1.52-.59-.29-.48.69-.84,1.04-.63-.66-.79-1.46-.77-2.32,0-.31.01-.74-.32-.82-.47-.12-.4.36-.46.64-.05.24-.18.31-.4.26-.42-.1-.91-.35-1.18.15-.3.54.14.93.5,1.34-.27.24-.74,0-.87.44-.11.37.03.67.17.99.39.92,1.07,1.71,1.22,2.74.03.2.21.4-.03.68-.83-.64-1.7-1.24-2.41-2.04-.44-.5-.88-.64-1.17.16-.23-.12-.21-.32-.26-.49-.09-.31,0-.79-.48-.78-.5,0-.63.46-.7.87-.22,1.2.45,2.12,1.06,3.02.42.62.44,1.06-.33,1.54.14-.56.34-1.13-.47-1.21-.21-.02-.2-.19-.17-.36.02-.12.02-.34-.01-.35-1.33-.36-.99-1.77-1.41-2.61-.46-.91-.37-2.38.31-3.5.1-.17.28-.08.42-.13,1.43-.45,2.84-.95,4.03-1.9.37-.29.84-.32,1.14-.28.63.09,1.16.32,1.56-.43.11-.2.29.06.38.23q.46.96,1.3.47c.25.28-.04.52-.06.78-.03.32-.07.83.2.84ZM77.24,116.4c-.54.32-1.09.64-1.53.57-1.45-.12-2.63-.4-3.79-.82-.17-.06-.39-.12-.39-.35,0-.18.18-.23.33-.28,1.83-.61,3.59-.09,5.35.36.37.09.34.34.04.52ZM80.06,110.11c-2.06.07-3.38-.67-4.36-2.03-.66-.9-1.51-1.49-2.61-1.71-.09-.02-.18-.05-.27-.08-2.97-.85-4.72-2.93-4.94-6.04-.07-1.02.4-1.96.88-2.84.3-.56.82-.29,1.27-.19.54.11.96.34.95.97-.02.92.2,1.78.49,2.66.73,2.24,3.14,3.35,5.37,3.02,2.04-.31,3.79,0,5.28,1.46.13.13.28.32.44.35,1.61.25,2.05,1.56,2.64,2.78.22.45.26.7-.29.8-1.73.31-3.46.61-4.84.86ZM57.31,97.82c-.21-.03-.4-.17-.26-.38.62-.89-.2-.95-.75-1.23.74-.9.71-1.03-.32-1.32-.25-.07-.52-.15-.53-.44-.02-.36.31-.36.55-.36.58,0,.79-.38.91-.96.55.55.76,1,.32,1.63-.32.46-.19.78.44.75.74-.04.64.29.32.72-.15.2-.37.41-.18.66.2.25.46.1.68-.01.6-.29.91.27,1.34.46.32.14.55.61.98.3.43-.31.45-.8.42-1.28-.02-.3-.31-.56-.11-.97.34.21.67.42,1.01.62.32.19.65.36.99.54-.22.63-1.25.79-.87,1.72-1.4-.47-1.58-.34-2.01,1.43-.26-.46-.66-.63-1.04-.85-.49-.29-.83-.33-1.44.3.38-.89.17-1.24-.46-1.34ZM55.48,91.13c-.32-.23-.74-.34-.99-.76.3-.3.85.1,1.05-.36.2-.45-.27-.65-.39-1.03.84-.22,1.16.08,1.09.88-.05.57.11,1.1.27,1.65.26.88-.34,1.56-1.17,1.4-.39-.07-.64-.29-.66-.68-.02-.44.34-.35.61-.35.19,0,.39,0,.47-.22.09-.26-.09-.4-.27-.53ZM72.62,88.2c.84.42,1.77.61,2.71.71,1.78.19,3.22,1.16,4.63,2.15,1.16.82,2.42,1.28,3.86,1.21.36-.02.98-.21.95.4-.03.57.23,1.4-.72,1.62-.52.12-1.04.22-1.58.2-.64.04-1.24-.09-1.82-.38-1.21-.6-2.48-.81-3.83-.61-.28.04-.56.04-.84.06-3.7.28-4.34-1.82-4.22-4.84.02-.52.13-.91.86-.54ZM72.01,84.88c-.14-.45.03-.69.49-.63.77.1,1.6.09,2.26.57,1.31.94,2.59,1.94,3.88,2.91-1.56-.58-3.22-.76-4.83-1.12-.95-.22-1.53-.81-1.81-1.72ZM74.8,95.46c2.15.04,4.24.16,6.28.91.87.32,1.79.22,2.69-.01.43-.11.83-.17.93.43.09.5-.09.78-.6.99-1.84.75-3.67.4-5.27-.41-2.17-1.1-4.43-1.78-6.78-2.13-3.05-.46-4.63-3.91-2.63-6.73.24-.34.41-.78,1.01-.99-.12.82-.19,1.53-.33,2.23-.21.99-.04,1.94.25,2.87.6,1.98,1.73,2.78,4.45,2.83ZM84.91,100.77c-.12.69-.22,1.47-.38,2.24-.14.66-.54.82-1.1.43-.44-.3-.84-.65-1.27-.97-1.68-1.26-3.61-.97-5.45-.7-2.62.38-3.67-1.15-4.29-3.1-.21-.65.06-.95.76-.87,1.51.18,3.01.58,4.27,1.36,2.15,1.33,4.36,1.46,6.69.83.7-.19.85.09.77.77ZM70,86.07c-.46.11-.35-.31-.4-.56-.21-.89-.58-1.73-1.03-2.51-.72-1.24-2.41-1.64-3.62-.88-1.08.67-2.22,1.3-2.56,2.72-.18.75.05,1.41.26,2.39-.5-.4-.78-.64-1.07-.86-1.16-.89-1.15-1.01-.25-2.23,1.4-1.89,3.23-2.91,5.6-2.93.65,0,1.16.17,1.44.82.28.62.84,1.01,1.36,1.41.64.5.75,1.21.88,1.91.08.44-.28.64-.6.72ZM60.81,90.07c.05.63.7-.02,1.15,0-.09.83-.12,1.68,1.33,1.18-.57.94-.38,1.38.52,1.41.33,0,.49.08.38.42-.23.73.3.75.85.84-.24.43-.68.68-.74,1.33-1.13-1.6-2.32-2.94-3.48-4.3-.45-.52-.93-1.01-1.4-1.51-.13-.14-.29-.29-.15-.49.18-.25.29,0,.44.08.46.25,1.02.2,1.08,1.06ZM60.92,105.44c.15,1.13.99,1.6,1.81,2.1,1.14.69,1.99.52,2.69-.5.59-.85.41-1.8-.48-2.56-.09-.08-.18-.16-.38-.32.22,0,.26-.01.28,0,1.56.67,2.1,1.54,1.62,2.58-.69,1.48-2.78,2.4-4.02,1.77-1.1-.56-2.08-1.5-1.51-3.07ZM64.18,88.78c1.07.27,2.1.29,3.26-.14-.44.99-.72,1.87-.77,2.85-.89-.9-1.62-1.85-2.49-2.71ZM66.71,87.2c1.49-1.78,1.04-2.88-1.43-3.93.43-.5.94-.41,1.42-.24.6.2,1.57,1.87,1.51,2.66-.06.77-.58,1.2-1.5,1.51ZM84.36,90.34c-1.29.03-2.39-.45-3.44-1.09-.77-.47-1.5-1.01-2.25-1.51.27.05.58.03.81.16,1.51.88,3.12.82,4.74.49.77-.16,1.13.14,1.19.89.06.77-.29,1.05-1.05,1.07ZM82.46,82.44c-.84-.05-1.69-.12-2.53-.2-.84-.07-1.5-.47-1.88-1.22-.79-1.54-2.09-2.36-3.74-2.73-.82-.18-1.55-.58-2.19-1.2,1.17.4,2.36.77,3.51,1.22,1.14.45,2.28.85,3.44,1.24,1.58.53,3.17.7,4.81.61.78-.05.92.23.63.94-.57,1.41-.54,1.43-2.05,1.34ZM70.42,78.02c1,1.43,2.47,2.05,4.07,2.51.93.27,1.69.8,2.14,1.71.89,1.81,2.38,2.59,4.37,2.47.73-.04,1.44.09,2.15.21.36.06.65.24.83.55.29.51.31.91-.45.92h-.94c-2.44.15-4.23-1.21-5.93-2.66-1.11-.96-2.31-1.49-3.76-1.42-.78.04-1.47-.26-2.19-.45-1.08-.28-1.85-2.92-1.25-3.76.33-.45.66-.52.96-.08ZM46.38,52.43c1.32-.29,2.66-.55,4-.23,2.99.71,4.54,2.97,4.17,6.38-.37,3.46-1.48,6.6-3.83,9.23-1.25,1.4-2.75,2.37-4.61,2.75-.71.14-1.42.28-2.13.41-.32.06-.72.31-.93-.11-.21-.42-.1-.91.25-1.21.47-.41.99-.77,1.53-1.09,2.95-1.76,5.11-4.21,6.56-7.31.31-.66.46-1.37.55-2.09.31-2.53-1.37-3.82-3.52-3.87-.35,0-.69,0-1.04,0h0c-.25,0-.51.03-.75,0-.58-.08-1.41.38-1.52-.72-.14-1.36.12-1.88,1.26-2.13ZM45.36,58.57c.83-.41,1.7-.6,2.36-.62,1.89-.04,2.42.75,1.71,2.25-.33.7-.55,1.46-1.06,2.08-.3.37-.56.49-1.03.28-.71-.33-1.45-.58-2.24-.66-.22-.02-.44-.05-.58-.25-.38-.53.23-2.78.82-3.08ZM43.67,66.25c.08-.59.17-1.2.23-1.82.06-.67.39-.88,1.01-.65.52.19,1.22.27,1.42.78.23.58-.49.85-.82,1.23-.31.35-.68.64-1.05.92-.23.18-.43.61-.75.44-.33-.18,0-.57-.05-.89ZM16.85,46.76c1.74-1.47,3.78-2.32,5.92-3.01,2.62-.84,5.32-1.16,7.33-1.2,4.22-.02,7.59.56,10.8,1.97.8.35,1.36.78,1.41,1.77.03.64.35,1.26.55,1.89.1.33.26.65.31.98.05.42.23.97-.19,1.22-.45.26-.69-.3-.96-.55-2.43-2.22-5.45-2.99-8.57-3.49-3.25-.53-6.49-.51-9.72.16-2.97.62-5.75,1.57-7.78,4-.1.12-.2.28-.37.21-.22-.08-.18-.3-.2-.49-.14-1.43.43-2.56,1.5-3.47ZM35.75,50.41c-1.36,2.1-2.72,4.2-3.64,6.54-.09.23-.15.49-.67.53.68-1.4,1.31-2.69,1.94-3.97.48-.98.98-1.95,1.46-2.93.08-.17.13-.36.24-.51.26-.36.47-1.09.97-.79.59.36-.09.81-.3,1.13ZM24.88,54.29c.85-1.64,1.77-3.23,2.67-4.85.14-.24.29-.48.46-.71.16-.21.41-.37.65-.19.29.2.08.45-.05.65-.77,1.18-1.55,2.35-2.33,3.52-.96,1.42-1.86,2.88-2.73,4.38.21-1.04.86-1.88,1.34-2.8ZM21.98,56.36c-.1.2-.17.42-.46.39-.38-.11-.39-.35-.2-.64,1.5-2.34,3-4.69,4.51-7.03.17-.26.43-.6.74-.32.27.25-.12.5-.26.7-1.57,2.22-3.13,4.44-4.32,6.9ZM25.25,57.28c1.59-2.38,2.74-5,4.21-7.44.18-.29.34-.6.5-.9.16-.28.38-.63.71-.42.35.22-.01.51-.15.71-1.08,1.58-2.05,3.23-2.92,4.94-.51,1-1.15,1.95-1.41,3.06-.08.32-.25.58-.7.58-.33-.01-.46-.2-.24-.54ZM13.58,54.27c1.28,2.28,3.19,3.82,5.42,4.98,4.67,2.41,9.56,2.84,14.62,1.53,3-.78,5.84-1.9,8.24-3.94.42-.36.64-.22.61.28-.05.91-.08,1.82-.23,2.72-.74,4.42-1.18,8.89-2.15,13.27-.72,3.29-2.06,6.26-5.04,8.19-.88.57-1.81,1.03-2.83,1.24-2.43.51-4.88.87-7.38.74-4.59-.23-7.95-2.98-9.3-7.37-1.14-3.69-1.63-7.45-1.9-11.28-.24-3.44-.2-6.88-.08-10.36ZM33.62,91.41c-1.84.13-3.66.49-4.75.65-6.18.04-11.52-.71-16.68-2.38-3.17-1.03-6.13-2.53-8.37-5.19-2.11-2.5-2.59-5.94-1-8.86,1.24-2.28,2.82-4.29,4.89-5.91.94-.74,1.87-1.46,2.89-2.09.58-.36.78-.34.88.39.3,2.36.49,4.74,1.16,7.05.71,2.45,1.51,4.85,3.2,6.84,1.66,1.96,3.69,3.28,6.26,3.7,4.08.68,8.07.39,11.94-1.08,2.03-.77,3.55-2.21,4.89-3.87,1.26-1.55,2.21-3.28,2.8-5.18.28-.92.87-1.27,1.74-1.46,1.53-.33,3.07-.65,4.54-1.2,2.15-.8,3.6-2.47,5.07-4.11.46-.51.65-.54.97.08,1.34,2.62,1.87,5.28.72,8.15-.42,1.05-1.12,1.66-2.09,2.15-5.29,2.68-10.31,5.78-14.46,10.06-1.34,1.39-2.72,2.13-4.61,2.26ZM166.54,93.36c3.07,2.74,5.08,5.97,5.38,10.28.55,7.71-2.07,14.14-7.24,19.68-3.64,3.9-7.85,7.1-12.4,9.93-.16-.32.07-.44.2-.57.74-.74,1.29-1.62,1.74-2.56.14-.29.36-.68.03-.96-.35-.3-.65.03-.9.25-.61.54-1.21,1.09-1.8,1.66-.81.79-1.6,1.6-2.39,2.41-1.13,1.17-2.53,1.65-4.12,1.8-2.35.22-4.45-.37-6.46-1.56-2.07-1.22-4.22-1.03-6.33-.1-1.62.71-3.15,1.56-4.33,2.93-.21.25-.62.53-.33.86.33.37.63-.07.86-.28.97-.88,2.11-1.48,3.29-2,2.28-.99,4.53-1.15,6.71.37,1.63,1.13,3.46,1.75,5.51,2.01-.53.26-1.06.52-1.6.76-.54.25-1.08.51-1.63.73-7.09,2.75-14.41,4.61-21.95,5.55-5.36.67-10.77.67-16.17.38-4.48-.24-8.95-.59-13.41-1.09-6.69-.76-13.3-1.97-19.78-3.76-7.24-2.01-14.29-4.59-20.8-8.43-3.71-2.18-7.1-4.77-9.81-8.13-2.81-3.48-4.99-7.31-5.77-11.8-.59-3.38-.14-6.68.79-9.95,1.6-5.61,5.14-9.8,9.62-13.36,6.43-5.09,13.69-8.58,21.36-11.33,1.33-.48,2.66-.94,4-1.4.31-.11.73-.3.92.11.17.38-.26.53-.5.68-.76.47-1.2,1.19-1.52,1.98-.18.46-.46.64-.91.64-1.09,0-2.14.22-3.08.75-1.64.93-3.48.69-5.23.97-2.01.32-3.87,1.03-5.7,1.87-.2.09-.47.2-.53.37-.37,1.04-1.4,1.18-2.18,1.61-2.58,1.4-4.38,3.5-5.71,6.06-.16.3-.38.71-.03.94.35.23.64-.15.87-.39.71-.75,1.4-1.53,2.1-2.29,1.89-2.06,4.13-3.52,7.06-4.02-2.71,2.04-2.39,4.77-1.73,7.42.87,3.53,2.73,6.6,5.21,9.26.57.62,1.28,1.11,2.14,1.32.47.11.53.3.2.71-1.71,2.08-1.58,4.32.32,6.1,1.82,1.7,4.57,1.7,6.4-.02.6-.56,1.15-1.16,1.5-1.91.24-.53.53-.72,1.08-.33.83.59,1.76.95,2.76,1.15.87.18,1.55.63,2.04,1.39.25.39.54.79.9,1.08.54.44.99.81.64,1.62-.2.45.31.77.52,1.26-1.72-.53-3.39-.64-5.07-.26-.89.2-1.83.41-2.06,1.51-.2.94.33,1.79,1.4,2.43.91.55,1.9.83,2.93.96.69.09,1.03.36.67,1.04-1.81,3.43.26,8.39,3.26,10.74,1.95,1.53,3.84,3.17,6.2,4.04,3.53,1.3,6.24.39,7.29-3.59,1.01-3.82,1.01-7.64-.29-11.39-.91-2.64-2.79-4.41-5.46-5.33-.39-.13-1.12,0-.97-.72.14-.69.31-1.5,1.23-1.59.87-.09,1.75-.13,2.61.17,1.46.5,2.86,1.11,4.11,2.03,2.24,1.64,4.89,1.87,7.53,2.02,3.29.19,6.5-.54,9.72-1.02,3.22-.49,6.44-.4,9.67-.09.84.08,1.69.07,2.59.44-4.86.79-7.75,3.93-9.8,8.31-.38-1.22-.91-2.07-1.68-2.79-1.07-1-3.79-1.49-5.2-.07-.62.62-1.25,1.21-1.85,1.86-1.7,1.86-1.1,5.52,1.08,7.37.57.48,1.24.69,2,.69,1.22,0,1.25.03.96,1.18-.44,1.76-.24,3.37.97,4.77.62.72,1.4,1.22,2.53,1.53-4.26,1.56-8.32,2.43-12.6,1.11-1.98-.61-3.91-1.36-5.87-2.02-3.56-1.2-7.12-1.39-10.83-.59-4.98,1.08-9.87.86-14.36-1.95-.11-.07-.21-.14-.32-.19-.23-.1-.5-.28-.69-.04-.2.25.04.47.2.66.74.89,1.75,1.45,2.75,1.94,2.98,1.45,6.1,2.15,9.47,1.92,2.32-.16,4.57-.72,6.92-.74,2.69-.02,5.14.72,7.56,1.71.87.35,1.83.49,2.58,1.11h-.01c1.96.54,3.87,1.28,5.91,1.55,1.11.15,2.19.11,3.28-.08,3.13-.56,6.18-1.44,8.62-3.51,1.54-1.31,3.33-2.47,4.29-4.38.78-1.54,1.38-3.1.82-4.87-.06-.17-.15-.39.06-.5.19-.11.35.08.51.15,2.11,1.02,4.25,1.89,6.67,1.69,1.38-.11,2.73-.42,4.05-.8,1.33-.39,1.78-2.01.84-3.03-2.09-2.26-4.44-4-7.79-3.54-.51.07-1.05.12-1.76-.11,3.03-2.09,4.49-4.78,3.73-8.53,1.99-.25,4.17-.45,6.32-.81,2.14-.35,4.26-.82,5.9-2.45.63-.62.61.08.7.41.43,1.68,1.42,2.83,3.09,3.37.84.27,1.65.03,2.48-.17.07.48-.25.76-.37,1.1-1.22,3.43,1.38,6.64,5.2,6.41,2.96-.18,4.69-2.06,4.53-4.98-.04-.77.29-.61.71-.37,2.34,1.34,4.62,1.13,6.85-.28,1.63-1.03,2.29-2.62,2.53-4.42.08-.61.28-1.06.71-1.47.68-.65,1.31-1.36,2.01-1.99,1.17-1.06,2.06-2.27,2.38-3.87.34.16.27.43.27.65,0,.3,0,.59.36.66.39.07.55-.21.69-.51.61-1.27.78-2.65.89-4.02.19-2.33-.73-4.15-2.62-5.51-3.15-2.26-6.07-4.76-8.51-7.79-.12-.15-.26-.28-.4-.4-.14-.13-.3-.27-.5-.15-.24.14-.19.38-.11.59.33.83.9,1.51,1.41,2.22,1.83,2.5,3.95,4.73,6.53,6.45,2.45,1.64,2.9,3.84,2.19,6.5-.12-.99-.1-1.98-.48-2.95-.49-1.24-1.28-2.17-2.38-2.83-2.53-1.53-4.76-3.39-6.43-5.84-1-1.48-1.86-3.06-2.88-4.52-2.84-4.06-6.69-6.23-11.72-6.12-.48.01-.93.13-1.34.38-.23.14-.41.33-.29.62.1.24.33.26.56.24,4.41-.34,7.77,1.75,10.5,4.89,1.13,1.3,1.77,3.02,2.61,4.56,1.61,2.95,3.79,5.37,6.6,7.21.37.24.71.55,1.1.72,2.26.97,2.14,5.25.45,6.46-.6.43-1.07,1.06-1.54,1.64-.31.37-.51.43-.75-.03-.41-.8-1.06-1.39-1.66-2.03-1.09-1.16-2.38-1.29-3.8-.82-.77.26-1.54.56-2.28.9-.52.24-.72.24-.68-.43.07-1.06.09-2.13-.24-3.26.75-.04,1.28.34,1.85.62.48.24,1.02.55,1.5.14.5-.43.58-1.03.45-1.72-.36-1.98-1.48-3.21-3.41-3.7-.68-.17-.83-.44-.54-1.13.26-.62.32-1.34.45-2.01.1-.48.08-.97-.36-1.28-.44-.31-.91-.12-1.35.07-.17.07-.31.21-.45.33-.39.35-.53,1.13-1.05,1.09-.35-.02-.65-.68-.99-1.04-.93-.95-2.12-1.46-3.35-1.83-.57-.17-1.25-.18-1.63.4-.35.53.03,1.01.32,1.46.3.47.59.94.91,1.44-2.78.3-3.89.66-5.74,3.44-.48-1-.95-1.97-1.4-2.96-.18-.4-.03-.8.08-1.2.54-1.97-.23-4.38-1.87-5.55-.45-.32-.41-.52-.12-.88,1.4-1.65,1.57-3.49.85-5.47-.21-.58-.34-1.12,0-1.79.32-.63-.02-1.36-.44-1.93-.37-.5-.22-.71.3-.85,1.4-.35,2.79-.47,4.12.25,1.92,1.04,3.94,1.76,6.09,2.19,2.04.41,3.73,1.63,5.5,2.63,4.81,2.69,9.34,5.78,13.46,9.44ZM145.29,119.18c.74.89,2.42,1.46,3.22.94,1.48-.95,1.19-2.45,1.02-3.89,1.33.59,1.84,2.62.85,3.69-1.74,1.88-4.79,1.87-6.13-.59-.78-1.44.05-3.58,1.52-3.95.15-.04.31-.08.56.16-1.29.93-2.42,1.98-1.04,3.64ZM150.75,114.15c.07.36-.19.38-.49.25-.71-.31-1.43-.6-2.4-1,1.07-.55,1.83-1.31,2.9-2.02-.06,1.05-.17,1.91,0,2.77ZM150.7,108.38c-2.13,2.47-4.84,4.15-8.04,4.95-.51.13-1.04.16-1.67,0,.37-.46.85-.9.24-1.38-.59-.47-.95.07-1.37.49-.27-.71-.42-1.39-.36-2.06.28-3.56,1-7.01,2.83-10.14.99-1.7,2.45-2.28,4.31-1.7.7.22,1.26.63,1.46,1.34.19.66.63,1.05,1.19,1.38,2.8,1.61,3.48,4.7,1.39,7.12ZM155.21,111.48c.2.21.25.49.32.77.34,1.37,1.32,2.01,2.81,1.85,1.15-.12,1.87-.96,1.88-2.31,0-.84-.16-1.68-.38-2.5-.18-.65-.69-.93-1.24-1.2-.22-.11-.5-.27-.32-.57.14-.24.39-.1.59,0,1.24.57,2.33,2.85,2.2,4.62-.14,1.96-1.2,3.43-2.83,3.95-1.91.61-3.71.17-4.81-1.16-1.34-1.62-.87-4.55,1.02-5.88-.21,1,.14,1.76.77,2.43ZM176.31,57.93c-.23,4.45-1.24,8.75-2.9,12.89-1.06,2.65-3.2,4.2-5.66,5.39-3.09,1.49-6.46,2-9.78,2.65-2.11.41-4.23.52-6.37.25-.64-.08-1.23-.23-1.79-.52-2.77-1.44-5.64-2.55-8.75-3.12-1.8-.33-3-1.74-3.81-3.26-.58-1.1-1.06-2.25-1.75-3.31-.86-1.33-.82-2.94-1.13-4.44-.06-.31-.07-.63-.14-.93-.15-.65.06-.98.74-1.14,1.47-.34,2.62-1.19,3.38-2.51.89-1.55.51-3.05-1.03-3.95-.62-.36-1.28-.67-1.96-.92-.59-.22-.71-.59-.7-1.16.08-4.39.31-8.77,1.08-13.1.14-.79.35-1.58.56-2.54,2.3,3.83,3.31,4.17,6.06,2.11.24.88.45,1.75.73,2.6.74,2.24,2.91,3.36,5,2.6.99-.36,1.57-1.19,2.28-1.93-.3,1.48-.68,2.92-.98,4.39-.65,3.17-1.26,6.34-1.33,9.58-.05,2.29-.23,4.6.23,6.86.57,2.78,1.44,5.47,3.14,7.8.28.38.58,1.03,1.12.84.64-.23.46-.94.42-1.5-.15-2.37-1-4.59-1.56-6.87-1.04-4.23-.84-8.51-.62-12.81.13-2.58.66-5.1.99-7.65.09-.71.29-1.41.44-2.11.14-.66.23-1.3-.44-1.78-.31-.23-.2-.64-.2-.98,0-.93-.09-1.82-.69-2.58-.22-.28-.28-.62-.29-.98-.03-1.3.36-1.66,1.61-1.38,4.31.99,8.6.84,12.83-.37,2.18-.62,4.28-1.5,5.8-3.33.22-.26.53-.51.35-.9-.19-.42-.6-.44-.98-.38-1.08.16-2.17.3-3.21.72-3.1,1.27-6.3,2.02-9.7,2.04-1.43,0-2.86.18-4.3,0-.77-.09-.91-.31-.47-.98,1.85-2.8,3.64-5.64,5.51-8.42.78-1.16,2.16-1.19,3.37-1.41,1.98-.36,3.95-.71,5.79-1.57,1.02-.47,1.86-1.15,2.63-1.95.18-.19.29-.61.6-.49.35.13.22.55.21.84-.01,1.89.16,3.75.34,5.63.34,3.6.98,7.15,1.7,10.68.88,4.27,1.82,8.53,2.69,12.8.71,3.49,1.1,7.02.91,10.57Z"/>
  <path d="M31.06,33.07c.1-1.59.46-3.06,1.58-4.31,1.52-1.69,1.61-2.91.48-5.07-.32-.61-.47-1.22-.41-1.89.06-.64.45-.94,1.04-1.02.63-.09.93.29,1.03.85.16.91.69,1.67.99,2.53.77,2.19.35,4.08-1.32,5.66-1.02.97-1.92,1.97-2.14,3.43-.06.38-.1.74-.04,1.12.04.26.03.54-.25.64-.36.14-.49-.18-.65-.4-.32-.47-.32-1-.32-1.54Z"/>
  <path d="M35.65,34.47c.07-1.13.49-2.02,1.29-2.71.68-.58.95-1.26.76-2.17-.12-.57-.27-1.16-.11-1.77.13-.5.43-.76.94-.73.48.03.62.38.61.8-.03.69.3,1.28.49,1.9.38,1.27.05,2.34-.76,3.32q-1.07,1.29-.17,2.76c.32.53.69,1.05.81,1.68.11.58,0,1.13-.31,1.62-.38.61-1.08.73-1.36.12-.69-1.5-1.82-2.78-2.14-4.46-.03-.15-.05-.31-.06-.38Z"/>
  <path d="M105.6,47.72c-.47-.11-.75-.46-.9-.87-.46-1.25-1.08-2.38-2.14-3.24-.43-.35-.41-.81-.15-1.28.53-.96.94-1.97,1.16-3.06.08-.43.3-.77.78-.81.44-.03.7.25.83.63.5,1.39,1.05,2.74,2.23,3.73.38.32.27.8,0,1.2-.6.89-1.13,1.79-1.11,2.93,0,.42-.29.67-.72.76Z"/>
  <path d="M28.26,28.03c.02,1.69-.57,3.14-1.66,4.4-1.06,1.22-1.85,2.49-.93,4.15.14.25.08.5-.16.66-.27.18-.55.15-.78-.06-.33-.3-.54-.69-.65-1.13-.42-1.65-.23-3.28.9-4.53,1.33-1.47,1.29-3.11,1.07-4.84-.08-.63-.14-1.25-.13-1.87,0-.41-.02-.89.5-.99.52-.11.91.19,1.16.63.31.56.35,1.2.44,1.82.09.59.16,1.18.23,1.77Z"/>
  <path d="M20.17,32.99c-.13.82.11,1.49.62,2.17.92,1.22.31,3.87-.97,4.64-.2.12-.41.17-.62.06-.26-.13-.33-.38-.27-.64.1-.39.18-.8.36-1.16.35-.72.22-1.29-.33-1.86-.79-.83-1.22-1.81-1.02-2.99.03-.15.06-.31.12-.45.28-.71.66-1.57,1.47-1.48.95.11.5,1.1.64,1.72Z"/>
  <path d="M77.05,60.04c.83-.99-.03-1.61-.7-2.3-.22-.23-.34-.57-.13-.87.25-.35.64-.54,1.06-.47.33.05.66.2.96.36.3.16.5.33.71-.13.21-.45.64-.7,1.16-.6.26.05.41.3.43.57.05.55-.16,1.11-.65,1.25-.81.22-.82.66-.69,1.33.12.66-.17,1.22-.65,1.68-.28.26-.59.36-.95.21-.4-.16-.55-.49-.57-1.02Z"/>
  <path d="M113.58,50.62c-.05.32-.05.61-.14.87-.22.64-.64.72-1.09.21-.45-.51-.72-1.09-.7-1.79.02-.55.25-1,.82-1.1.6-.11.81.37.94.84.09.33.12.67.17.97Z"/>
  <path d="M80.53,58.4c.78.08,1.19.46,1.2,1.21,0,.61-.36.95-.94.91-.68-.04-1.2-.44-1.24-1.16-.04-.63.42-.92.97-.96Z"/>
  <path d="M113.78,55.23c-.05.52.01,1.14-.78,1.09-.76-.05-.96-.58-.94-1.24.02-.61.23-1.18.91-1.18.84.01.76.74.81,1.32Z"/>
  <path d="M105.21,122.29c.31-.07.62-.1.91-.2.93-.32,1.71-.18,2.32.66.65.89,1.18,1.78.59,2.93-.39.76-1.76,1.42-2.56,1.17-.2-.06-.5-.18-.53-.33-.32-1.35-1.71-2.47-.89-4.06.05-.05.11-.11.16-.16Z"/>
  <path d="M51.13,108.54c-.83-1.91-1.37-3.68-1.67-5.5-.27-1.64-.28-3.31,0-4.96.1-.62.36-1.14,1.12-1.18.76-.04,1.07.42,1.24,1.04.7,2.6,2.47,4.63,3.63,7,1.13,2.32,1.74,4.76,1.67,7.35-.01.48-.08.94-.24,1.38-.1.27-.31.65-.54.59-.85-.22-1.02.34-1.39.89-.46.68-1.24.44-1.91.28-2.94-.72-5.55-2.09-8-3.85-1.99-1.43-3.77-3.11-5.68-4.64-.48-.38-.88-.92-.61-1.55.3-.7,1.01-.56,1.58-.43,3.51.82,7.05,1.55,10.22,3.41.1.06.23.07.6.17ZM50.95,101.12c.28,3.43,1.22,6.76,2.2,7.91.18-2.84-.05-5.6-2.2-7.91ZM43.62,107.82c1.21,1.49,5.33,4.4,6.53,4.7-.66-.69-1.37-1.31-1.77-2.12-.99-2.02-2.97-2.13-4.76-2.58Z"/>
  <path d="M143.77,134.55c-1.25-.04-2.64-.63-4.06-1.12-1.36-.47-2.7-.97-4.16-1.15-2.43-.3-4.66.34-6.85,1.25-2.11.87-4.02,2.05-5.59,3.73-.22.23-.5.47-.81.21-.33-.28-.07-.57.11-.82,1.53-2.11,3.6-3.56,5.9-4.71,1.95-.98,4.01-1.6,6.19-1.8,1.62-.15,3.19.11,4.74.53,1.18.32,2.34.7,3.52,1.01,2.28.6,4.11-.22,5.7-1.82.94-.94,1.62-2.07,2.39-3.14,1.41-1.94,2.88-3.81,4.91-5.14,1.98-1.29,4.1-2.18,6.54-2.05.31.02.68-.04.8.34.11.32-.18.51-.38.7-.6.57-1.28,1.05-2.06,1.3-3.87,1.27-6.56,3.93-8.69,7.28-.99,1.56-1.97,3.14-3.64,4.13-1.33.79-2.72,1.26-4.56,1.28Z"/>
  <path d="M58.22,132.5c-.82-.09-1.58-.4-2.34-.7-2.97-1.18-5.71-2.72-7.71-5.33-1.05-1.37-1.62-2.96-2.19-4.56-.48-1.34-.69-2.82-1.91-3.81-.9-.73-1.99-1.05-3.04-1.45-1.78-.67-3.48-1.44-4.65-3.05-1.47-2.03-1.89-4.34-1.72-6.78.18-2.61.97-5.05,2.35-7.26.57-.91,1.29-1.71,2.37-2.05.19-.06.39-.1.51.1.13.2-.02.36-.17.48-2.4,1.85-2.89,4.57-3.4,7.3-.26,1.39-.13,2.74.16,4.1.59,2.8,2.54,4.18,5.08,5,.89.29,1.77.66,2.61,1.07,1.7.83,2.54,2.35,3.12,4.06.36,1.07.72,2.14,1.15,3.18,1.05,2.54,3.15,4.1,5.39,5.46,1.64.99,3.25,2.01,4.65,3.34.18.17.4.35.3.64-.09.25-.34.24-.56.24Z"/>
  <path d="M66.77,118.21c.02,3.31-2.37,6.17-5.21,6.18-2.95,0-6.11-2.62-6.17-6.56-.04-2.56,2.47-5.36,5.18-5.3,3.21.07,6.49,2.36,6.21,5.69ZM59.5,114.78c.84-.07,1.53.33,2.19.75.91.58,1.11,1.41.69,2.47-.37.92-1.64,1.79-2.43,1.63-.17-.03-.4-.12-.48-.25-.62-.95-1.95-.91-2.57-2.16-.12,2.34,1.16,4.15,3.2,4.88,1.37.49,2.97-.08,3.88-1.37,1.02-1.44,1.13-3.49.26-4.59-1.03-1.28-3.38-1.98-4.74-1.36Z"/>
  <path d="M95.51,141.17c.26.36.69.41,1.04.6.24.14.57.23.53.58-.05.38-.39.46-.71.49-1.11.11-2.18-.08-3.26-.31-2.41-.52-4.76-1.36-7.3-1.14-.99.08-1.89.43-2.84.62-2.75.55-5.35-.26-7.96-.89-.7-.17-1.38-.41-2.07-.63-.27-.09-.58-.25-.5-.58.09-.39.44-.24.71-.2,1.98.29,3.94.71,5.95.86,1.78.13,3.44-.19,5.09-.65,2.03-.57,4.01-.53,6.02.01,1.76.47,3.54.84,5.31,1.25,0,0-.01,0-.01,0Z"/>
  <path d="M33.71,111.09c0-.13,0-.25,0-.38.01-.18-.01-.42.21-.48.3-.09.38.19.42.39.21,1.01.76,1.85,1.3,2.7,1.34,2.06,3.16,3.45,5.58,4.02,1.43.33,2.36,1.17,2.76,2.64.55,1.99,1.63,3.73,2.9,5.35.54.69,1.09,1.37,1.45,2.19.16.36.59.74.21,1.1-.42.39-.82-.03-1.14-.3-2.13-1.78-3.76-3.94-4.68-6.59-.13-.38-.33-.75-.42-1.15-.2-.82-.72-1.25-1.51-1.51-3.11-1.03-5.18-3.21-6.62-6.06-.3-.6-.44-1.29-.45-1.91Z"/>
  <path d="M175.01,51.82c.08,2.17-.19,4.26-1.29,6.17-.17.29-.38.59-.65.79-.57.44-1.15.24-1.41-.44-.44-1.14-.53-2.31-.41-3.52.19-1.84.33-3.68.33-5.53,0-3.34-.69-6.59-1.38-9.83-.08-.37-.15-.74-.18-1.11-.02-.35.03-.73.42-.86.42-.15.65.18.81.48.32.57.63,1.16.88,1.77,1.54,3.89,2.86,7.83,2.88,12.08Z"/>
  <path d="M164.84,72.72c-.31.04-.46,0-.55-.15-.15-.26-.02-.49.14-.69.53-.66,1.07-1.31,1.59-1.97,2.01-2.53,3.8-5.21,5.61-7.87.31-.46.59-1.39,1.34-1.03.76.36.05,1.07-.06,1.58-.61,2.63-2.3,4.64-4.01,6.6-1.02,1.18-2.07,2.36-3.45,3.18-.24.14-.49.27-.62.34Z"/>
  <path d="M92.59,64.46c-.6-.16-1.11-.46-1.12-1.17,0-.53.3-.91.89-.85.71.08,1,.59,1.02,1.24.01.47-.28.74-.79.77Z"/>
  <path d="M149.7,105.42c.2-.17.39-.33.59-.48.18-.14.38-.21.61-.19.33.04.53.26.53.56.01.73-.04,1.47-.75,1.92-.3.19-.65.1-.81-.23-.21-.42-.46-.4-.84-.26-.44.17-.8-.04-1.06-.4-.39-.51-.19-1.01.08-1.49.21-.38.51-.67.97-.61.75.09.71.67.66,1.18Z"/>
  <path d="M144.12,101.63c.05-.86.19-1.75,1.16-2.21.63-.29,1.12-.03,1.1.63-.02.77-.09,1.58-.63,2.21-.29.34-.57.85-1.13.65-.54-.2-.48-.74-.51-1.29Z"/>
  <path d="M146.23,111.15c-.56.02-.9-.21-.9-.81,0-.74.94-1.62,1.77-1.64.44-.01.72.17.74.64.03.78-.87,1.79-1.61,1.81Z"/>
  <path d="M143.42,107.84c0,.77-.55,1.58-1.1,1.54-.5-.04-.91-.27-.94-.86-.03-.61.79-1.46,1.39-1.42.46.03.66.3.65.75Z"/>
  <path d="M145.39,103.6c.45.02.76.14.75.65-.01.68-.59,1.44-1.12,1.42-.61-.03-.79-.48-.78-.97.01-.72.53-1,1.15-1.09Z"/>
  <path d="M144.17,110.97c.02.84-.54,1.66-1.07,1.65-.46-.01-.65-.32-.68-.74-.05-.65.69-1.59,1.23-1.56.47.03.47.41.53.64Z"/>
  <path d="M114.87,64.03c.31-.25.29-.97.88-.62.79.47.37,1.13.14,1.79.54-.36.75-1.7.4-2.43-.15-.33-.55-.66.03-.9.44-.19.68.14.87.5.52.97.48,2.01.27,3.02-.17.84-.89,1.18-1.7,1.21-.4.02-.81-.06-1.2-.15-1.99-.46-2.72-2-1.81-3.84.31-.63,1.51-1.1,2.13-.82.14.06.29.14.31.32.03.19-.1.27-.24.36q-.83.55-.07,1.55Z"/>
  <path d="M145.93,43.68c-1.28-1.31-1.74-2.8-1.05-4.56.21-.54.57-.97.96-1.38.25-.26.56-.31.85-.09.33.25.21.53,0,.81-.88,1.14-.79,2.3-.13,3.51.51.93.31,1.39-.64,1.69,0,0,.01,0,.01,0Z"/>
</svg>