<?xml version="1.0" encoding="UTF-8"?>
<svg id="Layer_2" data-name="Layer 2" xmlns="http://www.w3.org/2000/svg" viewBox="0 0 327.04 324.08">
  <g id="Layer_1-2" data-name="Layer 1">
    <g>
      <path d="M255.14,34.71c.27.97.8.95,1.13,1.19.45.33.76.7.48,1.27-.25.51-.77.83-1.25.56-2.95-1.71-4.56-.03-6.02,2.25-.46.71-1.08.54-1.63-.03-.49-.51-.94-1.13-1.83-.82-.22,1.21.76,1.37,1.49,1.77.68.37.98,1.4.13,1.28-2.21-.31-2.8,1.54-3.67,2.59-1.14,1.37-1.95,1.06-3.08.39-.7-.41-1.45-.62-2.33-.53-.18.5.31.5.53.65.42.29.94.56.76,1.16-.21.69-.86.66-1.44.64-6.08-.2-12.11-.06-17.89,2.18-.71.28-1.74.3-1.45,1.45.36,1.4,1.29.48,1.88.27,1.09-.39,1.72.34,2.56.7.87.38,1.61.46.95,1.75-.37.71.6.53,1.01.66.49.15,1.05.24,1.02.9-.02.59-.54.82-1.01,1-1.11.4-2.46.39-3.05,1.93,1.21.29,2.35-.23,3.62.23,1.63.59,1.2,1.09.53,1.84-.51.57-1.26.94-1.92,1.37-.35.23-.86.28-.81.86.04.59,1.2,1.37-.08,1.71-1.03.27-1.99,1.41-3.22.47-.22-.17-.59-.39-.77-.31-2.3,1.06-4.6,1.32-7.08.57-.68-.21-.58,1.82-1.7,1.37-1.53-.61-2.88.57-4.36.19-1.16-.3-1.23.95-2.31,1.79,1.96-.47,3.29-1.12,4.92-.17.77.45,2.38-.63,3.63-.9.9-.19,2.4-.35,2.34.66-.06.93,1.27,2.71-1.29,3,1.66.71,4.58-1.65,3.99,2.27.63-.13,1.12-.23,1.61-.33.79-.16,1.67-.41,1.94.69.23.92-.52,1.25-1.2,1.52-.95.39-1.97.43-2.46,1.76-.2.54-1.74,1.44-2.68.21-.96-1.25-2.8-.74-3.72-2-.96,2.03-3.46-.95-4.45,1.4-.25.6-1.03-.03-1.47-.36-.75-.55-1.34-.86-2.25-.07-1.02.87-1.92.11-2.84-.6-2.63-2-5.55-3.45-8.95-2.78-2.63.51-5.04,1.73-7.23,3.29-1.7,1.21-3.32,2.53-4.92,3.86-.84.7-2.28,1.6-1.11,2.7.58.55,2.24-.03,3.21-.76.32-.24.5-.7.72-1.07.65-1.09,1.26-1.66,2.09-.1.41.77,1.2.92,1.78.19,2.18-2.71,4.79-.89,7.22-.7.68.05.67.73.16,1.11-.49.37-1.09.61-1.6,1.27,1.18,0,2.35.04,3.53,0,2.58-.09,2.61-.14,4.17,1.48.92.95-.01,1.4-.69,1.7-2.48,1.09-4.98,2.11-7.48,3.16-.59.25-1.13-.01-1.66-.21-.51-.19-.97-.26-1.36.24-.42.52-.19.81.23,1.25.97,1.01.14,1.34-.73,1.49-1.1.19-2.28,0-3.13-.6-1.41-1-2.69-.96-4.11-.2-2.16,1.17-4.34.51-6.37-.25-2.04-.76-3.73-.53-5.49.65-4.86,3.27-8.89,7.31-11.6,12.54-.81,1.56-1.7,2.99-3.17,4-2.97,2.04-4.71,5.2-7.09,7.78-1.16,1.25-.93,2.24.29,3.26,3.05,2.55,4.75,5.91,4.7,9.82-.05,3.66-.74,7.35-2.09,10.77-2.98,7.51-7,14.48-11.56,21.14-3.66,5.34-7.09,10.84-10.89,16.08-2.96,4.1-5.51,8.4-7.85,12.87-1.54,2.95-2.33,6.18-3.85,9.14-1.85,3.6-4.35,6.36-8.04,8.11-3.61,1.7-6.36,4.18-7.87,8.14-1.12,2.92-2.98,5.57-4.65,8.26-3.06,4.94-3.79,10.33-3.29,15.99.05.62.45,1.43-.35,1.72-.96.34-1.09-.66-1.45-1.23-.04-.06-.04-.16-.09-.19-3.19-2.18-1.15-4.75-.53-7.21.09-.35.18-.69.26-1-.48-.59-.81-.07-1.16.07-.35.13-.74.29-.93-.13-.09-.2,0-.61.15-.79,3.57-4.09,3.98-9.66,6.73-14.17,2.3-3.78,2.33-7.89,1.11-12.29-1.18-4.24-2.76-8.6-2.04-13.13.55-3.48.94-7,1.62-10.45,1.34-6.79,1.39-13.76,2.99-20.49,1.15-4.83,2.78-9.43,5.04-13.93,4.28-8.51,10.24-15.99,14.35-24.58,1.45-3.03,4.01-5.42,6.59-7.61,2.54-2.15,5.62-1.98,8.66-1.58,4.26.57,4.9.23,6.55-3.71.83-1.99,1.76-3.94,2.71-5.88.92-1.88.93-3.92.99-5.9.14-4.68,1.01-9.2,3.06-13.37,1.36-2.77,1.31-5.17-.24-7.72-.9-1.47-1.96-3.06.38-4.31.13-.07.25-.46.18-.57-1.31-1.88-.29-4.2-1.22-6.16-.34-.72-1.27-1.72-.21-2.23.7-.33,2.12-.03,2.7.52.73.68.83.99,1.74.18.69-.61,1.8.35,2.78.41.59.04-.06,1.35-.45,2.02-1.65,2.79-2.15,5.82-1.7,9.13,1.19-1.94,2.49-3.82,3.53-5.84.9-1.74.77-3.62.08-5.46-.35-.94-.65-1.91-.9-2.88-.1-.39-.14-.94.06-1.24,1.11-1.67,1.13-1.66.25-3.65-.06-.13-.13-.26-.18-.39-.21-.6-.66-1.23-.27-1.84.62-.95,1.22.4,1.98.07.13-2.08-.85-4.07-.93-6.2,1.09.04,1.1.85,1.48,1.32.37.46,0,1.8,1.54.91.78-.45.29,1.3.92,1.84.64.03,1.16-1.13,1.87-.48.77.71.12,1.53-.28,2.14-1.34,2.08.6,4.46-.59,6.53,1.72-5.66,4.77-11.16,2.17-17.35-.67-1.6-.04-3.18.19-4.6.32-1.92.12-3.67-.12-5.51-.09-.73-.44-1.84.53-2.06.82-.19.62.93.87,1.47.14.3.21.94.56.74,2.32-1.31,1.31.84,1.39,1.43.28,2.3-.24,4.66.36,7.23,2.09-4.72,2.46-8.53-1.69-11.82-1.45-1.15-.68-1.82.82-2.16-.99-.53-1.87-1-2.75-1.47-.42-.23-1.09-.33-1.03-.95.07-.69.75-.5,1.22-.59.26-.05.52-.13.82-.21-.29-1.07-1.24-1.25-1.87-1.78-1.06-.9-3.17-1.17-1.96-3.42.11-.21-.37-.73-.56-1.11-.29-.56-.86-1.24-.16-1.72.67-.46,1.18.26,1.61.71,1.03,1.08,1.97,1.93,2.57-.33.09-.34.35-.71.77-.62.52.11.57.59.58,1.03.02.79-.06,1.59.03,2.37.08.7-.31,2.03,1.32,1.25.55-.26.7.26.81.7.19.72-.6,2.23,1.37,1.55.4-.14.4.96.37,1.51-.14,1.92.28,3.71,1.27,5.87.98-2.94,1.71-5.46.42-8.12-.47-.97-1.03-1.9-1.56-2.84-.25-.44-.66-1.17-.27-1.37,1.61-.86,1.03-2.25,1.04-3.5.02-1.58,1.7-1.14,2.41-1.92.15-.17.43.58.39,1.01-.08,1.07-.16,2.13-.26,3.4q2.36-2.41,1.65-5.76c-.48-2.28-.17-2.61,2.01-1.99-.42-1.61-2.17-3.32.33-4.68.1-.05-.04-.67-.16-.99-.22-.62-.58-1.33.08-1.76.55-.36,1.37-.68,1.95-.53.83.21.59,1.18.66,1.87.08.75-.12,1.55.32,2.42,1.15-.76,1.54-1.87,2.16-2.79.23-.34.45-.85.98-.62.48.21.43.74.29,1.13-.21.61-.54,1.17-.8,1.76-.29.64-.79,1.26.18,1.83.78.46.32.98-.12,1.38-.51.46-1.01.7-.12,1.42.64.52-.21.97-.62,1.29-1.49,1.15-2.26,2.73-2.91,4.45-1.67,4.44-3.93,8.66-5.01,13.33-.11.49-.32.96-.39,1.46-.07.5-.55,1.28.33,1.41.7.1.82-.66.91-1.24.03-.21.03-.43.06-.65.07-.56,0-1.26.59-1.53.71-.32.65.89,1.34.83.49-.75.39-1.64.62-2.45.27-.97-1.1-3.48,1.94-2.23.66.27.75-.86.63-1.3-.76-2.82,1.79-5.05,1.34-7.91-.12-.79,1.74-1.57,2.8-1.25,1.13.34,1.25-.1,1.41-.89.01-.07.03-.14.03-.21.17-2.77.04-5.7,3.85-6.52.24.21-.47,2.14,1.19.97.24-.17.58-.17.78.11.25.35.07.69-.16.98-.64.77-1.3,1.53-1.99,2.33.3.8,1.55-.17,1.67.82.12.94-.78,1.09-1.35,1.47-2.54,1.68-3.92,4.1-4.78,7.54,1.54-1.68,2.6.36,4.06-.55-.26,1.44-1.24,1.92-1.84,2.66-.55.68-1.51,1.13-.53,2.31.55.67-.39,1.09-.91,1.4-.87.51-1.83.87-2.65,1.44-.61.42-1.75.8-.49,1.89.74.64-.07,1.02-.59,1.16-2.84.77-4.27,3.03-5.7,5.3-.56.9-1.14,1.83.76,1.51.48-.08,1.14-.2,1.34.37.29.81-.58.82-1.02,1.11-.3.2-.65.33-.92.56-.75.6-2.19,1.02-1.76,2.14.4,1.05,1.45-.55,2.37,0-.11.93-.93,1.34-1.58,1.77-2.48,1.63-3.8,3.97-4.67,6.75-1.62,5.18-4.25,9.9-7,14.56-.42.72-1.65,1.67-.76,2.36.72.55,1.53-.67,2.15-1.34,5.21-5.58,10.07-11.44,14.46-17.69,1.98-2.81,3.05-5.83,2.55-9.33-.18-1.29-.72-3.21,1.91-1.78.86.47,1.21-.56,1.09-1.11-.64-2.84,1.56-4.58,2.5-6.8.33-.79.94-1.35,1.35-.04.26.82.67.78,1.29.56.52-.18,1.17-.6,1.51.13.3.65-.36,1.04-.78,1.39-2.18,1.81-3.26,4.12-3.4,6.95,3.6-1.08,6.26-6.28,5.11-9.88-.17-.55-.43-1.07-.6-1.62-.42-1.33-.09-2.1,1.47-1.81.11-1.11-1.53-2.51.88-3.09.69-.17-.17-1.52-.36-2.32-.21-.86-1.3-1.78-.42-2.55.79-.69,2.01-.66,2.97.1.64.51,1.04.08,1.51-.28.44-.34.92-.92,1.48-.33.51.53.06,1.12-.26,1.56-1.21,1.68-1.58,3.64-2.09,5.79,1.04-.53,1.74-1.04,1.79-2.12.1-2.37,1.15-1.58,2.27-.58.31-1.33.42-2.59.38-3.88-.03-.93-.19-1.92,1.05-2.3.52-.16.48-.63.42-1.08-.17-1.36.07-1.71,1.78-1.95,2.35-.33,1.65.55,1.76,1.91.15,1.79,1.6,3.08,2.76,4.4.26.3.94.46.57.94-.69.9-1.98,1.52-.51,2.88.29.27-.56.7-1.03.81-1.12.26-2.28.43-3.26,1.09-.68.46-1.64.76-1.21,1.96.26.72-.38.99-.85,1.32-.35.24-.93.62-.56.98,2.33,2.29-.33,1.56-1.06,1.65-1.94.22-3.63.81-4.96,2.3-4.1,4.61-8.22,9.21-12.38,13.86.61.52.93-.37,1.13-.18,1.55,1.46,2.03.09,2.85-.89.82-.99,1.4-.46,1.45.62.04,1,.41,1.82,1.39,1.87,1.02.05.99-1.08,1.25-1.76.41-1.07.62-2.22,1.05-3.29.37-.91.97-1.67,1.76-.3.66,1.15.97.14,1.11-.22.51-1.34.86-2.74,1.36-4.09.31-.84.32-2.19,1.94-1.04.98.7.76-.64,1.01-1.06.59-.97.04-3,2.44-2.15.65.23.42-1.18.81-1.75.31-.46.41-1.21,1.16-1.03.6.14.55.75.54,1.26-.01.46-.43,1.15.24,1.31.76.18,1.24-.56,1.32-1.15.23-1.59.31-2.88,2.64-2.31.82.2,1-1.38,1.05-2.31.05-1.01.05-1.76,1.56-1.59,1.45.16,1.33-1.26,1.29-2.2-.03-.69-.45-1.35-.67-2.04-.15-.47-.42-.98.01-1.42.44-.45.92-.21,1.39.02.41.21.81.83,1.31.28.43-.48.18-1.1.05-1.65-.05-.2-.17-.39-.28-.58-.44-.73-1.2-1.58-.37-2.31.83-.73,1.41.28,1.93.79.74.73,1.39.48,2.13.06.44-.25.98-.49,1.35.05.29.41-.1.78-.27,1.17-.3.7-2.05,1.13-.73,2.13,1.14.86,2.05.05,2.83-1.03,1.26-1.73,1.14-3.45.45-5.32-.22-.58-.93-1.46.03-1.86.7-.3,1.04.61,1.32,1.16.79,1.54,1.38,1.17,1.91-.16.16-.4.34-.79.5-1.2,1.34-3.41,1.61-3.47,4.12-1.04.43.42.37.88.21,1.39-.57,1.83.37,1.99,1.81,1.63.55-.13,1.13-.21,1.7-.22.47,0,.99.38.79.79-.47.98-1.54,1.53-1.81,2.76-.15.65-1.15.25-1.77.23-1.21-.04-2.44-.23-3.54.47-.14,1.06,2.84.86,1.08,2.12-1.17.84-.19,1.84-1,2.54-1.75,1.53-2.24,4.27-4.89,4.9.32,1.16,2.45.14,1.81,1.48-.44.92-.76,2.71-2.73,2.32-1-.2-2.11.02-3.09.75.77.7,1.61.26,2.33.46.49.14,1.05.23,1.04.88-.01.66-.58.74-1.08.82-.92.15-2.37-.35-1.55,1.64.25.6-.88.81-1.48.93-3.39.71-5.82,2.66-7.71,6.02,1.05-.56,2.1-.77,2.44-1.37,1.19-2.16,3.79-1.8,5.37-3.26.88-.81.97.75,1.45.9,2.98.98,1.05,1.87,0,2.65.05.58.42.71.71.91.36.25.78.52.64,1.01-.18.61-.77.56-1.26.57-.65.02-1.3,0-1.94.01-.74.02-1.41-.21-1.66,1.05-.22,1.13-1.44.45-2.2.26-2.69-.67-3.73-.6-5.75.52.24.58.81.49,1.27.61.55.15,1.26.15,1.32.88.06.74-.67.56-1.11.72-.13.05-.36.16-.35.22.61,3.9-2.36,1-3.39,1.77-.14.11-.38.09-.66.15,1.05.71,2.72.32,3.13,1.69.29.98-1.12.53-1.49,1.12,1.67.9,3.34.36,3.39-1.49.08-2.46,2.65-2.44,3.43-4.17.28-.63,1.23.1,1.55.85.71,1.64,2.38,1.89,2.77.29.71-2.93,4.09-3.24,4.94-5.84.14-.44.69-.79,1.26-.51.55.27.58.83.45,1.32-.23.88-.55,1.74-.89,2.77,1.55-.13,1.73-1.08,1.76-2.11.03-1.16.15-2.31.64-3.37.36-.8.73-1.65,1.9-1.2.48.18.85-.02,1.12-.4,1.41-1.95,1.45-.14,1.84.79,1.15-.86,1.55-2.11,2.1-3.25.22-.46.51-.92,1.09-.93.71-.02.77.5.74,1.05-.02.29-.02.54.3.71q2.12,1.11.2,2.92s-.06.13-.09.19c2.81.51,3.19.17,3.52-2.99.08-.75-.27-1.81.6-2.14,1.08-.41,1.2,1.01,2.04,1.46.6-.74.67-1.66.81-2.55.1-.6-.39-1.42.4-1.75.86-.37.97.89,1.86,1.05,0-2-.05-3.94.03-5.86.03-.79-.19-2.26,1.47-1.19.29.19.69.14.74-.14.51-2.95,2.3-.46,3.42-.79.46-.14.8.41.75.85-.1.89-.53,1.79.88,2.13.43.1.23.77-.11,1.09-.58.54-1.18,1.05-1.79,1.56-.44.36-1.08.65-1,1.3.1.78.79.35,1.24.41,1,.13.71.77.4,1.25-.27.4-.72.68-1.12.98-.58.45-1.81.79-1.08,1.67.65.78,1.43-.23,1.94-.73,1.62-1.59,3.58-2.93,3.83-5.54.09-.86.69-1.83,1.72-.64.65.75.97.19,1.36-.21.6-.61,1.12-1.34,1.81-1.83.53-.38,1.46-.87,1.56.42.06.75.44.77.96.85.58.08,1.04.39.66,1.01-.42.69-.4,1.13.29,1.62.44.31.36.93-.07,1.08-1.9.66-1.69,4.13-4.72,2.93ZM153.14,80.95c.16.11.31.23.47.34,2.11-2.25,4.09-4.63,6.34-6.72,6.33-5.86,13.19-11.13,19.13-17.41.74-.78,2.3-1.55,1.47-2.73-.92-1.31-2.51-.59-3.76-.04-.5.22-.87.74-1.32,1.1-5.21,4.14-9.26,9.43-13.95,14.08-3.34,3.32-6.02,7.27-8.38,11.37ZM155.75,94.31c4.85-3.43,8.74-7.9,13.28-11.65,3.88-3.2,7.77-6.39,11.26-10.02.98-1.02,2.86-2.24,1.51-3.71-1.24-1.35-2.56.42-3.65,1.18-5.09,3.56-9.18,8.24-13.55,12.58-3.46,3.44-6.34,7.39-8.85,11.63ZM170.87,70.64c.26-.1.55-.16.77-.32,6.58-4.85,13.3-9.52,19.45-14.94,1.64-1.45,3.12-3.02,3.26-5.37.04-.69.23-1.64-.83-1.65-1.15-.02-2.4-.06-3.33.9.53.74,2.29.98,1.58,1.4-1.22.73-1,2.42-2.71,2.79-3.14.68-5.41,2.9-7.19,5.5-1.27,1.84-2.68,3.53-4.2,5.17-2.14,2.32-4.87,3.96-6.81,6.51ZM208.13,37.37c.07-1.16-.24-1.97-.57-2.76-.38-.92-1.02-1.18-1.88-.59-3.57,2.44-7.04,5-9.97,8.21-.66.72-.69,1.27.49,1.39.6.06,1.54-.26,1.62.6.07.86-.93.94-1.56,1.23-.38.17-.78.33-1.27.54.34.51.61.91.88,1.32,1.38,2.03,1.79,2.09,3.52.24,1.34-1.43,2.47-3,2.81-5.01.12-.73.34-1.6,1.2-1.58,2.23.06,1.16-1.16.87-2.06-.17-.52-.78-.96-.37-1.57.67-1.01,3.13-1.05,4.23.04ZM202.2,55.17c-5.89-1.14-8.48,2.9-11.8,6.25q2.8.08,4.15-2.21c.52-.88,1.14-1.67,2-2.22.5-.32,1.18-.57,1.43.2.47,1.47,1.26.6,1.78.23.81-.57,1.48-1.34,2.44-2.25ZM154.47,103.95c-.24-.34-.35-.62-.55-.77-1.08-.84-3.24-.04-3.43,1.35-.12.91.06,1.76-1.32,1.54-.46-.07-.82.3-.77.82.06.64.15,1.34.78,1.68.51.28.79-.12.96-.55.19-.49.69-.44,1.04-.65,1.39-.84,1.78-2.58,3.28-3.42Z" fill="#fb97aa"/>
      <path d="M53.45,106.46c.4,2.07-1.14,3.81-1.17,5.88,0,.55-.57,1.01-1.09,1.29-.9.48-.97,1.1-.51,1.96,3.75,6.92,8.52,12.84,15.69,16.58,2.06,1.07,3.93,2.41,6.38,2.38.32,0,.69.27.95.51,1.42,1.35,3.01,2.47,4.66,3.5,1.25.78,1.46,1.77.99,3.1-1.08,3.08-2.16,6.15-3.6,9.08-.8,1.62-2.01,2.15-4.28,1.65-2.36-.52-4.7-1.17-7.05-1.75-.56-.14-1.14-.36-1.69-.32-2.31.17-4.2-.5-6.13-1.88-1.73-1.24-4.08-1.37-6.22-1.52-7.58-.55-14.97.46-22.17,2.94-1,.34-1.44.75-.97,1.82.39.89-.07,1.4-.9,1.66-.45.14-.88.26-1.25.62-1.71,1.66-1.72,1.65-.6,3.95.6,1.24.09,2.38-.44,3.46-.46.94-1.33.86-2.2.59-.44-.14-.81.09-1.2.26-.33.15-.77.42-1.03.31-2.49-1-5.73-.16-7.47-3.07-.44-.74-1.27-1.25-1.89-1.89-1.03-1.07-2-2.18-2.03-3.79,0-.38-.13-.73-.43-.98-.63-.52-.9-1.14-.65-1.95.11-.37.03-.74-.18-1.06-.8-1.16-.8-2.31-.16-3.56.41-.8.1-1.64-.25-2.43-.5-1.17-.58-2.32.19-3.45.98-1.44,0-2.8-.47-4.01-1.19-3.05.1-5.37,1.81-7.63.32-.42.68-.75.74-1.33.33-3.09.47-6.18-.14-9.24-.26-1.29.02-2.18,1.21-2.71.75-.33,1.15-.89,1.31-1.66.28-1.36,1.48-2.37,1.57-3.76.12-1.83,1.03-3.47,1.17-5.28.1-1.24.76-2.05,1.96-2.38.67-.18,1.32-.39,1.81-.9,2.11-2.2,4.6-3.57,7.72-3.68.59-.02,1.15-.52,1.76-.64,1.65-.33,3.18-1.23,5.04-.45.84.35,2.06,0,2.96-.72,1.52-1.21,3.19-1.43,5.16-1.21,2.23.24,4.44.6,6.65.93.93.14,1.59.5,2.15,1.36.96,1.47,2.48,2.46,3.17,4.24.66,1.7,1.21,3.35,1.09,5.24ZM39.82,140.04c-1.49-.54-3.07-.33-4.24-1.13-1.54-1.06-3.17-.95-4.84-.85-.84.05-1.67.18-2.51.19-1.37.01-2.32.45-2.57,1.97-.1.6-.43,1.2-.79,1.7-.58.79-1.2,1.44-.39,2.49.8,1.04,1.72.77,2.7.45,3.5-1.13,7-2.25,10.49-3.42.77-.26,1.62-.45,2.17-1.39ZM36.76,132.06c-.91-1.07-1.6-2.14-2.54-2.92-.78-.65-1.68-1.63-2.93-.95-1.43.77-2.81,1.62-4.21,2.45-.33.2-.56.52-.42.93.13.38.52.38.8.33,1.01-.2,2.37.65,2.93-1,.12-.36.67-.25,1.01-.11.73.29,1.47.58,2.15.96.97.53,1.94.64,3.21.32ZM40.5,112.38c-.53.23-1.34.47-1.01,1.24,1.09,2.61,2.42,5.1,4.51,7.1.22.21.52.46.83.25.33-.23.09-.57,0-.86-.85-2.61-2.24-4.95-3.69-7.25-.14-.22-.28-.44-.64-.47Z" fill="#fb97aa"/>
      <g>
        <path d="M236.22,216c0,.95,0,2.1,0,3.25,0,1.27.26,2.19,1.58,2.97,1.21.71,2.27,1.87.94,3.83-1.1,1.63-1.45,3.79-2.03,5.75-1.7,5.81-5.51,10.59-7.76,16.09-1.83,4.47-3.67,8.87-6.44,12.85-.66.95-1.34,1.93-2.33,2.5-5.52,3.22-9.3,8.45-14.32,12.24-3.12,2.36-6.25,4.74-9.09,7.42-5.09,4.8-11.11,8.36-16.44,12.83-4.62,3.88-10.44,5.69-15.72,8.44-14.03,7.31-28.58,13.37-43.57,18.39-4.24,1.42-8.72,1.75-13.11,1.38-3.3-.28-6.52.13-9.76.07-4.29-.07-8.61-.47-12.85-1.16-9.79-1.59-18.88-5.35-27.61-9.89-6.73-3.5-13.29-7.32-18.74-12.76-.97-.96-2.25-1.62-3.42-2.37-1.24-.79-2.45-1.04-3.84-.08-1.48,1.02-3.33.69-5.02.83-5.15.44-10.31.46-15.44-.27-9.75-1.39-14.51-13.07-8.72-20.46,3.08-3.93,6.19-7.82,10.92-9.92.96-.43,1.3-1.1,1.34-2.1.43-9.73,2.38-19.17,6.14-28.13,2.82-6.73,6.89-12.76,11.33-18.59,6.42-8.41,14.34-15.26,22.52-21.72,6.52-5.16,13.07-10.39,20.21-14.75,5.37-3.28,10.73-6.58,16.14-9.78,9.1-5.38,18.61-9.9,28.46-13.73,4.81-1.87,9.93-2.82,14.64-4.85,9.16-3.95,18.88-5.12,28.6-6.37,5.11-.66,10.29-.12,15.41-.84,7.02-.98,14.03.15,21.04.37,2.82.09,5.58,1.21,8.27,2.23,1.15.44,2.27,1.02,3.45,1.26.87.18,1.8,1.25,2.7.21.85-.98-.39-1.59-.62-2.38-.87-2.97.99-6.68,3.45-8.41,4.66-3.28,9.42-6.49,14.3-9.32,3.75-2.18,6.88-5.55,11.65-6.34,2.66-.44,5.3-2.28,7.68-4.09,2.65-2.01,5.52-3.74,8.42-5.39,3.87-2.2,6.82-5.35,9.5-8.76,1.96-2.5,4.24-4.82,6.46-6.91,2.8-2.64,5.94-5.07,8.17-8.16,4.7-6.52,11.49-9.82,18.52-12.61,4.96-1.97,10.38-3.7,15.56-.31,4.97,3.26,9.01,7.29,9.56,13.69.02.24-.03.51.05.73,2.37,7.36-2.41,11.41-7.13,15.52-1.79,1.56-3.51,3.21-5.2,4.87-2.63,2.58-5.79,3.64-9.41,4.16-5.03.71-9.57,3.08-13.55,6.09-5.95,4.49-12.03,8.79-18.26,12.84-3.68,2.39-6.23,6.13-10.3,7.93-.7.31-1.09.96-1.28,1.72-.64,2.46-2.45,3.94-4.34,5.44-2.23,1.76-4.1,3.98-6.27,5.78-3.12,2.61-4.53,6.51-7.65,9.09-2.95,2.44-6.16,2.73-9.42,1.58-2.07-.73-2.97.5-4.34,1.27-1.44.8-1.06,1.9-.77,2.96.39,1.41.8,2.85,1.48,4.14,1.79,3.42,1.93,7.25,2.83,10.88,1.92,7.73,1.98,15.72,3.26,23.53.28,1.73,0,3.43.18,5.34ZM203.76,243.59c-.26.19-.53.39-.79.58-.67.5-1.15,1.67-2.22.98-1.17-.75-.45-1.78-.04-2.62.68-1.38,1.49-2.7,2.43-4.38-1.22.27-2.26.31-2.78-.67-.6-1.13.4-1.82.95-2.57.7-.95,1.61-1.76,1.84-3.02-12.33,14.85-26.36,27.75-42.9,37.96,1.02.24,1.64-.46,2.41-.63.96-.22,2.19-1.58,2.79-.44.58,1.11-.77,2.14-1.8,2.84-.4.27-.88.44-1.31.66-3.78,1.93-7.56,3.86-11.34,5.8-7.41,3.81-14.69,7.9-22.97,9.72-3.97.87-8.11.46-11.98,2.03-1.88.76-3.93,1.11-5.91,1.57-8.04,1.88-16.37,2.34-24.3,4.79-1.19.37-2.47.27-3.62-.25-1.39-.62-2.82-.71-4.32-.69-4.75.06-9.51.05-14.26.02-3.2-.02-6.36-.25-9.38-1.57-1.37-.6-2.96-.61-4.53-.16,2.7.72,5.37,1.38,7.93,2.56,6.89,3.17,14.52,2.99,21.8,4.4,2.3.44,4.73.43,7.09.32,4.5-.21,8.99-.62,13.48-.98.85-.07,1.64.02,2.38.43.6.34,1.66.46,1.43,1.36-.2.8-1.21.73-1.91.77-1.14.06-2.32-.21-3.42-.02-10.98,1.91-21.92,2.04-32.93.09-3.35-.59-6.57-1.81-10.02-1.96,1.9.85,3.84,1.62,5.84,2.13,5.43,1.39,10.97,1.83,16.56,1.93.88.02,2.38-.12,2.4,1.07.02,1.29-1.47,1.37-2.49,1.42-4.65.19-9.27.45-13.94-.27-5.26-.82-10.23-2.45-15.12-4.46,9.34,7.06,19.83,11.79,30.82,15.45,3.7,1.23,7.56,2.28,11.28-.32,1.17-.82,2.68-.67,4.07-.65,7.79.12,15.36-1.01,22.87-3.19,8.95-2.6,17.55-6.3,26.66-8.39,2.21-.51,4.43-1.29,6.43-2.36,4.61-2.47,9.34-4.77,13.38-8.18.31-.26.64-.64.99-.68,3.76-.41,6.5-2.93,9.45-4.83,5.17-3.34,10.04-7.15,14.66-11.23,2.54-2.25,5.53-4,7.68-6.69,2.05-2.56,4.45-4.82,7.06-6.7,3.83-2.76,7.28-5.77,10.19-9.54,4.71-6.1,7.85-13.02,10.89-19.98,1.51-3.47,1.83-7.32,1.95-11.15-.66.85-1.35,1.72-1.6,2.69-2.08,8.39-7.53,15.2-10.85,23.02-.51,1.21-2.13,2.54-3.55,1.72-1.6-.93-.51-2.28.28-3.53,1.97-3.11,4.04-6.2,5.55-9.53,3.14-6.89,6.11-13.87,8.38-21.11,1.61-5.14,3.46-10.27,1.44-16.29-.33,5.76-2.06,10.73-3.77,15.67-2.49,7.19-6.05,13.92-9.7,20.6-1.74,3.19-4.66,5.47-6.37,8.67-.45.84-1.45,1.47-2.52,1.06-1.08-.4-.92-1.41-.8-2.32.04-.32.04-.65.06-.98.83-.21,1.44-.71,1.99-1.35,6.37-7.26,9.8-16.17,13.43-24.87,3.1-7.43,3.76-15.62,5.53-23.46.16-.7.42-1.51-.36-2.41-2.22,8.13-4.43,15.97-7.38,23.54-2.09,5.38-3.99,10.83-6.8,15.96-2.26,4.11-4.05,8.51-6.39,12.6ZM194.97,155.57c-2.54-.86-4.59-.49-6.61-.48-3.42.01-6.26-1.94-9.31-3.01-1.72-.6-3.14-.93-4.79-.63-3.68.66-7.36,1.32-11.01,2.09-8.32,1.75-16.62,3.62-24.94,5.34-2.63.54-5.12,2.45-8.04.89-.37-.2-1.08.23-1.62.39-10.07,2.95-19.73,6.87-28.97,11.9-7.76,4.23-15.48,8.55-22.79,13.5-5.2,3.52-10.36,7.14-15.46,10.82-8.97,6.48-16.77,14.1-24.08,22.29-3,3.36-5.86,6.89-8.12,10.78-5.63,9.68-8.42,20.28-9.67,31.33-.97,8.57,1.73,15.49,9.34,20.06,8.14,4.89,16.63,8.67,26.46,8.48,3.72-.07,3.72.18,3.39-3.41-.06-.65-.06-1.31-.13-1.96-.43-4.35-.43-4.34-4.88-4.41-.89-.01-1.79-.29-2.68-.26-7.56.29-14-2.78-20.2-6.61-.95-.59-1.71-1.43-1.1-2.66.65-1.32,1.84-1.29,2.97-.8,2.1.91,4.1,2.04,6.22,2.9,5.69,2.3,11.41,4.6,17.74,3.68,1.25-.18,2.99.2,3.48-1.85.45-1.89,1.33-3.68,1.77-5.58,1.52-6.56,4.82-12.27,8.24-17.94.26-.43.57-.99,1.08-.86,1.5.41,1.78-.8,2.34-1.63.55-.81.96-1.74,1.61-2.46,5.31-5.94,10.14-12.34,16.39-17.42,2.92-2.37,5.73-4.9,8.47-7.49,1.88-1.77,4.29-1.62,6.45-2.36,4.28-1.49,8.28-3.79,12.36-5.83,1.12-.56,2.47-1.08,2.16-2.85-.11-.62.49-.99.95-1.33,1.91-1.41,3.87-2.71,6.02-3.79,5.65-2.85,11.61-4.86,17.62-6.76,1.72-.54,2.18-1.71,2.13-3.25-.1-3.13-.68-6.19-1.94-9.07-1.6-3.66-3.28-7.3-4.95-10.93-.62-1.35-1.12-2.83.34-3.75,1.64-1.04,2.48.51,3.31,1.59.45.58.88,1.21,1.17,1.87,1.77,4.06,3.22,8.23,4.31,12.52.57,2.22,1.04,4.45,1.6,6.67.22.88.71,1.53,1.77,1.15,1.34-.48.36-1.08.04-1.64-.26-.45-.37-.96-.15-1.42,1.23-2.69.34-5.31-.21-7.94-.84-4.05-1.74-8.08-2.57-12.13-.18-.86-.37-1.95.77-2.3,1.22-.38,2,.44,2.55,1.42.2.35.26.77.41,1.15,2.22,5.63,3.07,11.53,3.28,17.53.06,1.6.44,2.04,2.03,1.24,2.32-1.16,2.6-2.95,2.03-5.15-.77-2.96-1.08-5.95-.65-8.98.15-1.03.16-2.44,1.54-2.4,1.36.04,1.33,1.48,1.47,2.49.46,3.41.81,6.83,1.26,10.24.1.75.03,1.88,1.14,1.89,1.15.01,2.55.53,3.34-.86.65-1.13,1.29-2.25,1.14-3.67-.21-2.12-.3-4.25-.39-6.37-.04-1.07.35-1.99,1.53-2.19,1.23-.22,1.68.56,2.03,1.62.91,2.78.86,5.64.78,8.5-.02.64-.56,1.55.83,1.48,1.93-.09,3.88.23,5.89-.31-2.2-1.7-1.77-6.12.65-7.86.46-.33.93-.79,1.54-.39.56.37.52.99.38,1.56-.27,1.11-.64,2.21-.88,3.33-.5,2.3.22,3.18,2.58,3.22,1.8.03,3.61-.02,5.41.07,1.06.05,2.33.22,2.3,1.65-.04,1.56-1.41,1.46-2.41,1.32-1.81-.26-3.58-.23-5.35.09-6.92,1.24-13.98,1.88-20.68,4.17-6.58,2.24-13.08,4.7-19.59,7.15-1.5.56-3.51.8-3.24,3.26.04.38-.32.75-.77.84-5.38,1.04-9.81,4.3-14.72,6.44-5.45,2.37-10.57,5.47-15.86,8.21-4.97,2.58-9.07,6.4-13.57,9.63-1.69,1.22-3.73.96-5.32,2.08-5,3.53-8.43,8.57-12.27,13.17-4.06,4.86-6.93,10.5-8.95,16.49-1.17,3.49-3.33,6.57-4.05,10.23-1.21,6.13-.33,12.14.96,18.15.18.85.6.56,1.03.54,6.27-.27,12.54-.52,18.81-.83.89-.04,1.79-.25,2.63-.53,6.65-2.22,13.38-4.08,20.25-5.53,2.5-.53,4.99-1.32,7.37-2.57-.79-.9-1.83-1.56-1.12-2.82.61-1.06,1.62-.84,2.62-.79,2.76.12,5.32-.79,7.82-1.79,7.58-3.03,14.9-6.62,22.24-10.19,6.68-3.25,12.69-7.57,18.82-11.68,3.99-2.67,7.65-5.89,11.2-9.13,2.97-2.71,6.82-4.32,9.35-7.53,3.23-4.1,6.82-7.89,9.89-12.14,5.67-7.85,9.16-16.76,13.1-25.46.33-.72.25-1.61.45-2.4.46-1.79-.31-2.89-1.96-3.37-1.5-.44-2.33-1.19-1.81-2.84.5-1.6,1.97-2.56,3.21-1.89,3.02,1.65,3.34.17,3.26-2.26,0-.08.08-.16.07-.23-.17-2.78.67-5.78-1.51-8.14-3.37-3.66-7.59-5.85-12.41-6.99-2.8-.66-5.64-.95-8.52-1.09-1-.05-2.06-.5-2.11-1.68-.05-1.14,1-1.17,1.8-1.15,7.81.14,15.31,1.39,21.76,6.25.86.65,1.58.7,1.56-.66-.05-3.65.12-7.27.96-10.84.21-.9-.28-1.67-.88-2.44-2.9-3.76-7.07-3.17-11.04-3.38,2.21,1.94,4.41,3.84,7.57,3.84,1.56,0,2.4,1.22,3.31,2.17.5.52-.01,1.24-.45,1.75-1,1.17-2.08.39-3.17.16-3.63-.76-7.03-2.13-10.31-3.82-.42-.22-.92-.33-1.4-.37-3.42-.3-6.84-.29-10.27-.19-3.36.09-6.72.04-10.08.02-.73,0-1.56-.06-1.78-.97-.25-1,.4-1.55,1.21-1.87,2.02-.79,3.9-1.6,6.33-1.17,2.9.51,5.96.12,9.48.12ZM222.63,150.7c-1.32.02-3.14.55-4.76,1.82-.8.63-1.21,1.13-.14,1.85,2.94,2,3.98,5.63,6.89,7.8,1.93,1.43,2.28,1.44,3.94-.61,1.29-1.6.13-2.78.34-4.11.73-4.47-1.01-6.62-6.27-6.75ZM21.54,288.78c.92.23,1.65-.31,2.16-.85.68-.72-.17-1.37-.57-1.89-.97-1.26-2.5-2.26-1.42-4.23.2-.37-.14-.81-.51-1.01-1.28-.71-1.93-1.92-2.63-3.13-.39-.66-.92-1.48-1.91-.64-2.17,1.83-2.6,4.58-2.92,7.03-.26,1.99,2.11,2.91,3.78,3.68,1.24.57,2.67.71,4.01,1.05ZM164.51,259.94c2.39.6,3.82-.18,5.18-1.39,1.09-.98,2.29-1.84,3.46-2.72,2.03-1.53,4.07-3.05,5.64-5.13-5.1,2.37-9.08,6.4-14.27,9.24Z" fill="#fb97aa"/>
        <path d="M46.36,213.73c.58-.06.96.06,1.12.51.26.72-.16,1.28-.55,1.79-1.84,2.4-3.74,4.75-5.55,7.17-2.31,3.09-3.9,6.53-5.52,10.03-1.69,3.67-3.54,7.33-5.55,10.87-.41.72-1.11,1.73-2.13,1.11-1.03-.63-.66-1.8-.24-2.68,1.63-3.48,3.36-6.9,4.79-10.48,1.81-4.53,3.78-9,7.07-12.74,1.73-1.97,3.62-3.75,5.81-5.21.27-.18.58-.29.76-.38Z" fill="#fb97aa"/>
        <path d="M97.91,178.5c-.14.75-.71,1.1-1.26,1.45-5.47,3.57-10.77,7.36-15.8,11.55-2.39,2-5.43,3.23-8.21,4.75-.51.28-1.31.72-1.7-.13-.29-.64.42-.98.84-1.33,6.74-5.57,13.76-10.76,20.88-15.82,1.21-.86,2.52-1.56,4.09-1.41.59.06,1.16.18,1.16.94Z" fill="#fb97aa"/>
        <path d="M197.18,184.64c2.6.36,5.05.36,7.23,1.76,1.48.95,2.06,2.22,1.33,3.71-.79,1.59-2.19.67-3.17.16-2.06-1.07-4.05-1.94-6.5-1.43-1.52.32-2.14-.99-2.42-2.22-.32-1.41.86-1.53,1.8-1.74.63-.14,1.28-.18,1.74-.23Z" fill="#fb97aa"/>
      </g>
      <path d="M113.91,96.3c-3.35,5.28-8.21,9.01-14.96,9.83-4.38.53-8.43-.37-11.97-3.16-.25-.2-.73-.23-1.08-.18-5.73.84-10.79-.49-14.97-4.61-1.28-1.26-2.14-2.81-2.7-4.53-.1-.3-.36-.65-.64-.79-1.62-.81-2.89-1.93-3.7-3.58-.12-.24-.5-.4-.79-.51-1.84-.65-3.77-1.13-5.53-1.94-4.17-1.93-6.63-5.36-7.52-9.78-1.71-8.48.56-15.72,7.19-21.46,3.66-3.16,7.73-5.58,12.62-6.08,2.59-.27,5.24-.2,7.85-.09,2.66.12,5.3.18,7.9-.49,4.26-1.08,7.51-3.6,10-7.14.9-1.28,1.71-2.62,2.53-3.95.8-1.31,2.04-1.79,3.47-1.27,2.73,1.01,5.46,2.03,8.19,3.06,1.68.64,2.33,2.26,1.53,3.89-1.24,2.52-2.46,5.06-3.82,7.52-1.54,2.79-1.67,5.64-.7,8.6.75,2.27,1.95,4.28,3.41,6.15,3.03,3.9,5.31,8.18,6.41,13.02,1.37,6.02.64,11.74-2.7,17.46ZM64.64,83.45c-.04-.16-.08-.31-.13-.45-2.18-6.16-.95-11.64,3.35-16.47,3.16-3.55,7.15-5.86,11.5-7.6.57-.23,1.14-.45,1.72-.61.7-.2,1.37.17,1.62.81.26.67-.04,1.4-.72,1.73-.21.1-.45.17-.67.25-2.81,1.01-5.47,2.31-7.89,4.06-2.75,1.99-5.06,4.38-6.36,7.58-1.64,4.04-.96,7.89.99,11.64.31.59.48,1.28.6,1.94.16.85.56,1.41,1.4,1.64,1.03.28,1.91,0,2.71-.71,7.09-6.36,12.16-14.09,15.48-22.99.35-.94,1.03-1.34,1.82-1.05.8.29,1.12,1.03.72,1.96-1.05,2.46-2.05,4.95-3.26,7.33-3.3,6.47-7.68,12.12-13.14,16.93-1.37,1.2-1.47,1.48-.67,3.14.32.68.76,1.34,1.26,1.91,1.33,1.5,3.08,2.34,5,2.77,3.9.87,7.38.18,10.34-2.73,3.39-3.34,5.71-7.28,6.97-11.86,1.36-4.95,1.39-9.95.5-14.97-.18-.99.25-1.68,1.06-1.82.8-.14,1.44.39,1.61,1.36.62,3.38.84,6.79.52,10.22-.67,7.21-3.26,13.56-8.48,18.71-.76.75-1.59,1.44-2.57,2.33.87.52,1.59,1.07,2.4,1.41,3.88,1.61,7.65,1.13,11.23-.89,6.13-3.44,9.41-10.91,7.99-18.06-.9-4.53-3.02-8.46-5.82-12.06-1.49-1.92-2.74-3.97-3.62-6.23-1.53-3.9-2.01-7.86-.44-11.86.56-1.43,1.32-2.78,2-4.16.47-.96.95-1.92,1.45-2.92-1.2-.45-2.28-.85-3.41-1.28-.18.3-.31.56-.48.8-2.28,3.22-4.47,6.52-6.89,9.63-1.52,1.96-3.36,3.66-5.1,5.44-.62.63-1.46.57-1.98-.01-.54-.6-.49-1.37.14-1.98.47-.46.98-.89,1.44-1.36.59-.6,1.16-1.23,1.74-1.84-.77.12-1.43.38-2.1.61-3.92,1.33-7.95,1.47-12.03,1.03-6-.64-11.21,1.01-15.78,5.02-4.54,3.98-6.37,8.88-5.61,14.77.67,5.18,4.53,8.71,9.59,8.9Z" fill="#fb97aa"/>
    </g>
  </g>
</svg>