<?xml version="1.0" encoding="UTF-8"?>
<svg id="Layer_2" data-name="Layer 2" xmlns="http://www.w3.org/2000/svg" viewBox="0 0 311.05 472.52">
  <g id="Layer_1-2" data-name="Layer 1">
    <path d="M293.65,325.36c-4.67-2.74-9.62-4.83-14.84-6.32-14.25-4.06-28.82-5.01-43.53-4.76-5.59.09-5.59.02-6.24-5.6-1.72-14.92-14.44-26.33-29.46-26.14-10.6.13-19.89,4.18-28.41,10.25-1.07.76-2.12,2.3-3.57,1.47-1.32-.75-.45-2.3-.27-3.44,3.89-25.04-.6-48.99-9.47-72.34-6.88-18.12-16.94-34.44-28.85-49.65-1.89-2.42-2.04-4.2-.27-6.92,5.88-9.06,10.65-18.7,14.08-29.01,2.71-8.14,2.15-15.37-3.96-21.93-4.34-4.66-4.47-10.18-1.99-15.86.72-1.64,1.53-3.25,2.33-4.86,12.37-24.74,27.36-48.04,39.66-72.82,2.15-4.34,4.22-8.73,6.33-13.09-.61-.31-1.22-.63-1.84-.94-1.6,3.67-3.03,7.43-4.83,10.99-14.35,28.35-32.14,54.84-45.44,83.81-2.48,5.41-2.58,9.77.57,13.74,6.15,7.74,5.9,15.65,2.55,24.17-1.18,2.99-2.14,6.05-3.21,9.08.2.08.4.15.61.23.59-.73,1.17-1.46,1.76-2.19-1.68,6.54-4.81,12.35-8.52,17.85-.59.88-1.11,1.93-2.61,1.37-3.75-1.39-6-7.15-4.17-10.77,2.01-3.96,3.74-8.03,4.09-12.53.14-1.83.08-3.74-1.79-4.74-2.11-1.13-3.68.23-5.17,1.51-2.82,2.42-4.19,5.78-5.79,9-.56,1.11-1.17,2.45-2.77,1.71-1.41-.65-2.7-1.65-2.24-3.5.3-1.2.86-2.33,1.33-3.48,1.55-3.84,3.33-7.63,3.57-11.85.11-1.92.3-4.16-2.04-4.9-2.11-.67-3.28,1.07-4.29,2.55-2.02,2.98-3.63,6.18-4.95,9.55-.78,1.99-.87,5.05-4.6,3.49-3.72-1.56-1.65-3.59-.7-5.61,1.95-4.12,4.12-8.16,5.2-12.63.45-1.85,1.26-4.18-.97-5.18-2.11-.95-3.09,1.29-4.08,2.69-3.03,4.31-5.67,8.83-7.54,13.79-1.25,3.29-4.38,4.47-8.11,2.79-3.49-1.57-.67-3.82.01-5.48,1.94-4.73,4.13-9.36,6.39-13.94,2.98-6.07,5.8-12.24,10.58-17.24,3.4-3.56,7.19-4.4,11.64-2.39,1.39.62,2.75,1.29,4.12,1.95,5.11,2.5,7.92,1.81,11.42-2.78,3.04-3.99,5.18-8.49,7.21-13.03,8.63-19.31,16.71-38.85,24.35-58.56,2.57-6.62,5.07-13.27,7.61-19.9-.35-.17-.7-.34-1.05-.51-.53,1.19-1.08,2.38-1.58,3.59-5.47,13.29-11.04,26.54-16.36,39.89-5.74,14.38-11.67,28.68-18.59,42.53-4.66,9.32-6.52,9.75-15.58,5.3-5.48-2.68-10.04-1.99-14.39,2.26-2.39,2.33-4.29,5.05-5.97,7.93-4.96,8.5-8.84,17.52-12.73,26.53-1.15,2.67-2.81,4.33-5.17,6.05-9.11,6.61-14.53,15.87-14.01,27.07.27,5.67.06,10.83-1.64,16.13-1.43,4.47-2.54,9.05-3.77,13.58-.84,3.09-1.23,6.24-1.08,9.44.07,1.5.07,3.29,1.83,3.83,1.82.56,2.72-.97,3.51-2.27.79-1.29,1.6-2.61,2.14-4.02,1.77-4.65,3.37-9.36,5.15-14,.45-1.17.77-3.13,2.68-2.38,1.81.71,3.44,2.01,3.03,4.37-.16.92-.74,1.77-1.14,2.65-2.69,5.78-4.97,11.71-6.59,17.87-.54,2.04-1.83,4.79.75,5.95,2.76,1.25,4.07-1.6,5.37-3.45,3.11-4.44,5.46-9.28,7.39-14.33.44-1.16.57-2.67,2.63-3.09-.33,3.13-1.74,5.51-2.66,8.05-1.46,4.03-3.02,8.01-4.42,12.06-.53,1.54-1.18,3.55.55,4.54,2.11,1.2,3.21-.92,4.28-2.24,2.37-2.9,4.24-6.13,5.88-9.5.79-1.61,1.49-3.27,2.3-4.87.55-1.08,1.06-2.53,2.71-1.77,1.44.67,1.89,1.99,1.36,3.5-.32.91-.83,1.74-1.24,2.62-1.87,4.01-3.7,8.05-4.82,12.34-.47,1.81-1.18,4.07.99,5.23,1.91,1.03,3.46-.49,4.67-1.78,1.98-2.11,3.85-4.34,5.61-6.64,3.28-4.27,3.75-4.41,6.77-.12,11.87,16.88,20.17,35.25,22.3,56,.92,8.95,1.12,17.93-.42,26.87-.61,3.57-1.95,5.52-6.23,5.39-5.88-.17-11.47,1.6-16.37,5.07-1.6,1.13-3.33,1.96-5.19,2.54-5.75,1.8-10.38,5.17-13.69,10.2-1.25,1.9-2.71,2.72-5,3.03-7.84,1.05-13.78,7.18-14.9,15.11-.79,5.64.33,11,2.8,16.1.8,1.65,1.65,3.33-.09,4.9-6.43,5.79-11.35,12.96-18.71,18.02-14.54,9.99-27.71,21.62-36.51,37.33-11.19,19.96-5.2,37.67,15.77,46.8,2.15.94,4.37,1.73,6.6,2.47,14.51,4.82,29.52,5.9,44.64,5.59,40.99-.84,80.17-10.56,118.3-24.99,30.54-11.56,59.42-26.25,84.84-47.05,11.96-9.79,22.78-20.63,28.88-35.24,6.51-15.59,1.83-29.48-12.72-38.03ZM54.6,203.39c-.84.62-1.35.49-1.62.03-.31-.22-.45-.71-.46-1.26-.05-1.5.02-3.04.35-4.5,1.38-6.02,2.83-12.03,4.38-18.01.35-1.33.15-3.65,2.06-3.53.76.05,1.28.46,1.69,1.01.75.82,1.16,2.12,1.71,3.01.66,2.47-6.2,21.84-8.12,23.25ZM197.56,285.31c9.07-.68,17.08,2.86,22.44,9.38,2.51,2.98,4.47,6.6,5.69,10.74,2.03,5.36,1.16,11.05-.31,16.72-.3,1.15-.63,2.64-2.17,2.68-.65.02-1.08-.32-1.41-.78-.44-.46-.73-1.13-1.07-1.68-1.26-2.02-2.63-3.93-4.1-5.72-4.43-5.32-9.79-9.63-16.01-13.02-10.58-5.76-21.27-6.22-32.06-.51-1.01.54-2.31,1.96-3.28.77-.04-.05-.05-.09-.08-.14-.05-.05-.1-.07-.15-.13-1.18-1.45.61-2.43,1.51-3.3,8.68-8.4,18.78-14.12,31.01-15.03ZM249.93,337.24c-.55-.76-1.47-1.58-.82-2.57.67-1.02,1.75-.37,2.66-.17,5.64,1.27,10.04,3.97,12.89,7.67,3.84,4.78,5.05,11.28,2.97,18.54-3.29,11.43-10.82,20.12-19.36,27.91-18.4,16.77-39.95,27.98-63.58,35.41-7.96,2.42-16.04,4.26-24.28,5.29-1.25.16-3.06.94-3.85-.23-.18-.16-.34-.36-.44-.66-.51-1.46,1.66-1.85,2.66-2.7,9.72-8.21,21.67-11.94,33.18-16.56,17.57-7.05,34.19-15.61,47.44-29.6,5.68-6,10.19-12.73,12.86-20.58,2.58-7.57,2.54-14.94-2.32-21.75ZM46.86,424.4c1.1,1.3,2.33,2.53,3.74,3.67,9.09,7.31,18.71,7.22,28.63,1.97,11.67-6.17,21.58-14.86,32.18-22.56,5.58-4.06,11.19-8.09,16.83-12.05,1.07-.75,2.09-1.84,4.48-1.61-.05.09-.1.16-.15.25.13,0,.24,0,.38.01-2.91,5.1-6.7,8.91-10.09,12.97-10.02,12.02-20.4,23.68-34.83,30.7-11.53,5.62-23.23,7.85-35.4,1.79-3-1.49-5.64-3.63-7.85-6.16-6.58-7.37-9.31-18.27-5.65-26.72.55.12.86.36,1.05.66.71.63.41,1.74.54,2.57.86,5.49,2.76,10.39,6.12,14.51ZM64.76,405.94c-1.58,1.18-3.21,2.43-4.73.66-.23-.22-.46-.49-.68-.85-1.54-2.45-3.41-5.2-.36-7.73,2.1-1.75,4.59-3.06,6.99-4.42,7.59-4.31,15.54-7.83,23.91-10.36,9.45-2.93,19.14-4.2,29.02-4.03,1.21.02,2.9-.44,3.61.6.16.14.3.31.4.55.69,1.75-1.51,1.93-2.44,2.78-4.27,3.88-9.53,5.15-15.08,6.11-14.74,2.56-28.53,7.61-40.64,16.68ZM106.02,393.19c.3.78-.39,1.27-.91,1.7-7.87,6.5-15.28,13.66-25.27,17.03-3.78,1.27-7.56,1.57-11.41.53-.95-.26-2.08-.45-2.66-1.24-.25-.24-.45-.53-.54-.94-.32-1.44,1-2.17,1.97-2.9,7.84-5.9,16.76-9.57,27.52-13.13,1.92-.43,5.42-1.24,8.93-1.99.68-.15,1.46-.22,1.91.38.18.12.34.3.44.57ZM120.54,375.05c-.07.41-.14.82-.21,1.22-2.86.12-5.72.21-8.58.38-17.91,1.03-34.19,7.09-49.51,16.08-1.26.74-2.65,2.29-4.06,1.28-.21-.15-.36-.33-.47-.51-1.05-1.08-.04-2.69.39-3.96,2.46-7.3,6.58-13.62,11.67-19.36,2.07-2.34,4.19-3,7.3-1.75,8.07,3.25,16.55,3.93,25.2,3.46,6.21-.34,12.14,1.36,18.05,2.89-.01.07-.02.13-.03.2.09.02.17.05.26.07ZM116.33,363.85c.15-.11.3-.22.45-.33-.23.02-.45.06-.68.06,1.52-1.07,3-2.2,4.57-3.19,15.87-9.95,27.72-23.5,36.02-40.21,2.23-4.48,4.62-8.81,8.72-11.92,9.83-7.45,20.47-8.95,31.5-3.37,7.03,3.56,12.99,7.94,17.54,13.31,5.91,6.88,9.47,15.41,9.9,25.99.55,13.54-5.1,23.93-17.53,29.87-15.75,7.53-32.36,8.22-49.28,5.32.13-.07.26-.11.4-.17-.21-.03-.41-.06-.62-.1,2.38-1.19,4.86-.72,7.3-.79,15.5-.43,29.59-4.28,39.66-17.12,6.44-8.21,9.37-17.55,6.85-27.97-1.12-4.61-3.11-8.55-5.73-11.71-7.95-9.35-21.44-11.69-33.61-4.25-6.67,4.08-12.05,9.64-17.15,15.49-8.45,9.68-16.91,19.37-27.73,26.58-3.18,2.12-6.31,4.38-10.58,4.5ZM227.16,342.65c0-.91.48-1.73,1.51-1.47.62.16,1.05.5,1.39.95.63.66.94,1.64,1.31,2.67,1.02,4.47-.82,8.41-3.31,12.15-.26.38-.95.74-1.38.68-.35-.05-.56-.22-.68-.44-.41-.31-.41-.92-.29-1.44.98-4.32,1.48-8.68,1.46-13.1ZM182.62,387.22c-2.91,6.07-7.22,11.11-12.02,15.7-11.55,11.05-24.98,19.04-40.17,24.02-6.35,2.11-12.85,3.22-19.55,3.05-1-.02-2.27.18-2.89-.72-.14-.12-.26-.26-.35-.45-.74-1.49.84-2.1,1.59-2.99,3.93-4.67,8.72-7.28,14.89-8.74,19.3-4.57,35.2-14.82,47.2-30.82,1.62-2.17,7.92-3.76,10.56-2.71.58.23.91.5,1.09.8.84.82.13,1.89-.33,2.84ZM164.75,333.24c10.92-.21,20.99-3.79,26.44-14.75,1.56-3.13,3.76-1.35,5.61-.42,1.32.67,2.6,1.42,3.41,2.42,1.11,1.18,1.54,2.71.45,4.91-2.91,5.88-7.41,10.29-13.26,13.22-2.21,1.11-4.61,1.83-6.93,2.74-9.57,2.61-19.47,2.38-29.2,3.55-.68.08-1.59.39-1.98-.3-.16-.12-.28-.29-.35-.57-.13-.51.3-1.31.7-1.8,3.92-4.81,7.63-8.85,15.1-9ZM161.68,328.92c6.43-6.57,13.27-12.59,23.04-13.44,1.33-.12,2.98-.46,3.93.75.17.15.32.33.45.57.88,1.58-.46,2.88-1.25,4.11-3.25,5.07-8.31,7.48-13.79,9.23-3.46,1.09-7.02,1.49-10.6,1.72-1.08.07-1.91-.21-2.22-.74-.53-.46-.53-1.22.43-2.2ZM169.72,345.16c10.7-1.08,20.6-3.98,28.15-12.31,1.69-1.86,3.02-3.93,4.29-6.07,1.02-1.71,2.11-1.72,3.18-.4.17.18.34.38.51.63,1.73,2.5,2.49,5.14,1.51,8.21-2.41,7.56-8.29,11.44-15.06,14.37-1.51.65-3.16.98-4.75,1.45-7.19,2.3-14.63,2.7-22.1,2.66-8.29-.04-16.58-.34-24.71,1.73-.74.19-1.64.51-2.14-.27-.11-.09-.22-.21-.31-.38-.47-.94.44-1.46.97-2.05,2.64-2.97,5.67-5.15,9.84-5.51,6.87-.6,13.73-1.37,20.6-2.06ZM162.06,355.51c9.13.42,18.24,0,27.06-2.81,6.57-2.1,12.43-5.3,16.9-10.72.63-.76,1.19-2.31,2.52-1.48.19.12.31.26.41.42.79.7.3,1.95.17,2.94-.4,2.92-2.19,5.01-4.25,6.91-5.9,5.47-12.91,8.92-21.91,11.61-7.06,2.39-15.77,2.52-24.48,2.21-10.38-.38-20.71-.09-31,1.36-.97.14-2.36.78-2.92-.13-.13-.1-.25-.23-.33-.43-.64-1.58,1.16-1.92,2.16-2.45,11.18-5.84,23.1-8,35.66-7.42ZM125.51,369.41c.09-1.81,2.15-1.25,3.38-1.45,11.67-1.9,23.43-1.41,35.17-1.18,12.02.24,23.28-2.61,33.83-8.33,1.9-1.03,3.71-2.21,5.57-3.31.07.09.14.18.22.27,0,0,0,0,.01,0,.27.34.54.67.8,1.01-3.81,6.75-9.58,11.42-16.6,14.6-9.29,4.22-19.16,5.13-29.21,4.57-10.1-.56-20.05-2.2-29.92-4.34-.94-.2-2.39-.21-2.85-.96-.25-.2-.41-.47-.39-.88ZM148.37,384.27c1.82.07,4.8-2.18,6.15-.29.15.15.3.33.42.57,1.14,2.24-2.2,4.03-4.01,5.57-3.8,3.22-8.11,5.69-12.66,7.7-.84.37-1.86,1.06-2.66.21-.06-.06-.09-.13-.14-.19-.03-.03-.06-.04-.09-.07-.88-.94.02-1.83.6-2.53,3.51-4.15,6.01-9.4,12.4-10.97ZM159.17,384.64c1.09-1.65,7.35-1.98,8.39-.53.02.03.03.06.05.09.07.06.13.11.18.18,1.22,1.7-.36,2.87-1.26,3.9-5.1,5.83-10.72,11.11-17.31,15.26-6.08,3.83-12.39,7.22-19.8,9.51-2.04.24-5.28,2.9-6.88.85-.11-.11-.22-.23-.32-.38-1.28-1.87,2.49-4.03,3.88-6.15,1.48-2.26,3.65-3.57,6.22-4.5,10.48-3.78,20.4-8.43,26.85-18.23ZM95.1,436.81c1.24-.88,2.64-1.55,3.79-2.53,2.59-2.22,5.29-2.77,8.76-2.19,5.62.94,11.31.32,16.86-1.07,19.82-4.97,36.74-14.94,50.87-29.66,4.33-4.52,8.19-9.44,10.46-15.31,1.62-4.19,5.2-4.59,8.48-4.47,1,.04,1.48.28,1.65.63.92.73-.57,2.34-1.06,3.15-4.27,7.13-9.21,13.79-14.96,19.79-14.03,14.64-30.43,25.52-50.03,31.26-10.93,3.35-22.12,4.84-33.54,4.41-1.05-.04-2.54.36-3.21-.56-.25-.2-.44-.5-.53-.95-.26-1.37,1.48-1.8,2.46-2.49ZM251.15,351.67c-.82,7.95-4.5,14.77-9.3,20.96-10.72,13.82-25.13,22.68-40.78,29.77-5.54,2.51-11.2,4.73-16.84,7.02-1.24.5-2.45,1.35-5.02.59.06-.06.12-.11.17-.17-.13-.03-.26-.05-.4-.1,6.12-5.63,9.32-13.05,17.96-15.75,13.09-4.09,24.38-11.71,33.92-21.66,8.96-9.35,16.76-19.3,15.52-33.68.55.48,1.04.99,1.48,1.5,2.93,3.25,3.72,7.24,3.28,11.51ZM239.51,356.92c-7.18,12.38-17.6,21.5-29.93,28.5-3.59,2.04-7.43,3.63-11.19,5.37-.83.39-1.88.97-2.66.02-.03-.04-.05-.08-.07-.12-.05-.05-.11-.09-.16-.15-.63-.77.07-1.54.45-2.25,2.78-5.1,5.37-10.23,11.79-11.92,2.3-.6,4.39-2.31,6.34-3.82,4.86-3.78,8.91-8.45,14.03-12.03,4.19-2.93,5.93-7.89,6.22-13.06.18-3.14-.72-5.79-2.64-7.91-.68-.71-1.48-1.35-2.4-1.93-.79-.5-1.81-.91-2.36-1.55-.21-.18-.38-.37-.49-.6-1.05-2.16-2.76-4.58-.88-6.92,1.78-2.22,4.16-.78,6.08.05,3.23,1.39,6.13,3.15,8.23,5.71,1.32,1.54,2.36,3.37,2.97,5.61,1.68,6.2-.32,11.79-3.33,16.99ZM111.86,148.78c-.37-2.07,5.88-11.66,8.07-12.29.85-.19,1.43.06,1.77.57.41.37.62,1,.6,1.76-.12,4.96-2.07,9.35-4.58,13.51-.46.76-1.32,1.09-2.15.57-.97-.61-1.99-1.23-2.69-2.12-.49-.54-.87-1.18-1.02-2ZM100.1,138.43c1.91-4.11,3.82-8.25,6.49-11.95.41-.56.91-1.09,1.69-.97.42.07.69.29.87.6.3.29.46.73.57,1.26.13,2.15-.46,4.28-1.23,6.34-.86,2.32-1.9,4.57-2.87,6.85-.65,1.54-1.47,2.72-3.42,1.72-.66-.34-1.25-.74-1.64-1.23-.67-.66-.97-1.49-.45-2.6ZM88.44,133.45c1.91-5.59,4.72-10.64,9.11-14.78,0,.19-.04.36-.05.54.1-.09.18-.19.28-.28-.17,6.24-3.63,11.18-5.87,16.57-.32.77-1.3,1-2.18.61-.36-.16-.61-.39-.81-.64-.58-.51-.75-1.24-.48-2.02ZM67.74,142.65c3.42-4.27,8.02-5.65,13.29-5.26,8.88.66,16.57,4.41,23.35,9.84,6.29,5.04,11.97,10.59,17.18,16.53,8.59,9.75,15.89,20.57,22.43,31.94,14.54,25.26,22.93,52.34,22.22,81.79-.37,15.3-5.53,32.25-13.38,42.59.13-.38.27-.76.4-1.14-.21.29-.41.59-.63.88,1.2-3.47,2.46-6.92,3.59-10.42,5.85-18.12,4.63-36.31.24-54.44-7.66-31.59-20.97-60.5-41.82-85.65-7.55-9.04-16.41-16.54-27.65-20.7-5.48-2.03-11.14-3.25-17.08-2.33-.94.15-2.18.74-2.85-.24-.14-.12-.26-.26-.36-.46-.55-1.12.42-2.09,1.1-2.94ZM74.25,192.48c-1.69,7.08-4.99,13.42-9.22,19.29-.15.21-.43.33-.68.52-.7.05-1.04-.16-1.2-.47-.48-.36-.36-1.11-.2-1.72.83-3.06,1.73-6.11,2.72-9.12,1.08-3.28,2.26-6.52,3.47-9.75.46-1.23.82-2.95,2.77-2.2.69.27,1.32.68,1.73,1.24.53.57.82,1.3.6,2.21ZM82.63,199.19c-2.34,5.38-4.63,10.8-9.03,15.07.03-.21.07-.41.1-.61-.11.11-.21.24-.33.35.75-6.09,3.51-11.48,5.36-17.17.34-1.06,1.22-1.53,2.3-.96.48.26.89.58,1.17.96.6.62.85,1.42.44,2.36ZM93.42,211.25c-2.33,3.03-4.66,6.07-7.08,9.04-.57.7-1.41,1.56-2.45.85-.16-.11-.27-.23-.35-.37-.64-.56-.39-1.44-.14-2.16,1.5-4.26,3.04-8.51,4.57-12.75.36-.99,1.2-2.03,2.07-1.39.84.62,1.55,1.39,2.2,2.14.25.28.48.55.7.82.24.29.48.57.71.81,0,0,0,0,0,0,.07.08.15.18.23.26.33,1.31.06,2.09-.45,2.75ZM123.06,301.95c5.15-26.67-.14-51.51-13.1-75.05-3.97-7.21-8.58-13.89-13.75-20.09-5.13-6.13-10.82-11.81-17-17.08-3.46-2.95-6.71-6.16-9.87-9.43-.34-.35-.72-.74-1.06-1.15-1.04-1.17-1.9-2.57-.89-4.18,1.28-2.04,3.54-1.1,5.34-.7,4.42.97,8.26,3.22,11.44,6.37,3.71,3.69,7.28,7.48,10.68,11.38,14.51,16.57,25.97,35.1,32.93,56.5,5.43,18.16,4.58,36.31.33,54.48-.37,1.6-.77,3.46-3.18,2.82-.74-.2-1.2-.52-1.47-.94-.67-.69-.62-1.74-.39-2.93ZM106.36,308.81c.04-1.61,2.09-1.41,3.02-1.85,4.68-1.53,8.93-.7,13.14.83,1.03.37,1.73.85,2.15,1.44.87.95.92,2.23.25,3.97-1,2.56-2.44,2.92-4.79,1.91-3.4-1.45-6.91-2.65-10.32-4.08-.94-.39-2.45-.34-3-1.17-.28-.23-.46-.55-.44-1.05ZM79.4,336.15c-1.47-7.08.94-13.21,6.51-17.73,7.5-6.07,15.91-8.04,25.18-4.33,2.56,1.03,5.11,2.11,7.63,3.23.76.34,1.49.74,1.9,1.31.55.56.78,1.3.28,2.39-.84,1.8-1.86,3.5-4.37,2.78-2.78-.8-5.53-1.86-8.37-2.29-4.53-.68-8.93-.28-11.77,4.08-1.48,2.28-1.41,4.6.31,6.76,2.67,3.08,7.45,3.93,12.52,2.16,6.66-2.32,11.12-7.2,14.36-13.12,8.1-14.84,10.35-31.08,10.38-47.67.03-19.45-6.24-37.18-15.89-53.82-6.28-10.83-13.46-20.99-21.62-30.39-2.72-3.12-5.54-6.15-8.47-9.1-4.13-4.15-8.86-7.48-14.81-8.63-2.95-.57-5.8-.74-8.18,1.54-1.17,1.12-1.93.95-2.55.1-.27-.28-.52-.68-.75-1.19-1.52-3.31-.06-7.09,3.45-8.59,3.05-1.3,6.22-1.15,9.36-.38,6.02,1.48,11.31,4.37,15.93,8.49,5.43,4.84,10.5,10.08,15.2,15.68,14.16,16.81,24.87,36.88,31.16,59.13,4.1,16.36,7.89,34.68,4.77,53.49-2.92,17.61-10.74,32.8-25.12,43.88-6.96,5.37-15.05,7.61-23.83,5.08-4.07-1.17-7.57-3.11-9.98-6.1-1.54-1.83-2.67-4.06-3.24-6.78ZM114.19,328.96c-1.65,1.51-3.52,2.68-6.21,3.41-2.06.49-4.65,1.04-7.18-.22-.8-.4-1.39-.91-1.8-1.47-1.41-1.62-1.14-3.84.94-5.41,2.81-2.12,11.75-1.66,14.3.68.17.16.3.31.4.45.95,1.02.38,1.81-.44,2.57ZM64.51,346.25c-1.68-7.34,1.43-14.93,7.32-17.82,3.17-1.56,5.12-.8,4.61,2.16-2.32,13.55,12.88,25.13,28.64,21.49,12.51-2.88,20.53-11.39,27.31-21.45,11.98-17.78,14.38-37.47,12.07-58.33-4.21-38.02-20.02-70.34-46.79-97.46-5.98-6.05-12.51-11.31-20.94-13.63-4.65-1.28-9.26-1.65-13.7.76-2.91,1.57-3.39-.03-3.22-2.45.41-5.92,5.92-10.79,12.69-10.79,10.23,0,19.16,3.93,27.1,10.06,14.06,10.87,23.76,25.32,32.34,40.56,8.43,14.99,14.89,30.84,18.21,42,5.79,20.18,8.79,35.26,6.99,50.74-3.08,26.57-15.92,48.1-36.3,64.87-8.21,6.75-18.1,11.21-29.46,10.35-13.08-.99-24.27-9.7-26.87-21.05ZM56.41,371.78c2.19-3.01,4.54-5.92,7.4-8.37,1.6-1.37,3.05-1.78,4.72-.21.25.23.44.45.59.67,1.33,1.59.27,2.82-.9,4.14-6.28,7.13-11.33,14.91-13.65,24.32-1.6,6.49.02,12.53,3.65,16.9,4.76,5.5,12.78,8.21,21.54,5.48,8.52-2.65,15.36-8.05,22.07-13.63,8.39-6.98,16.47-14.38,26.35-19.31,4.66-2.33,9.4-4.13,14.66-1.93.66.28,1.59.31,1.96.92.23.19.39.46.4.89.02.94-.95,1.27-1.69,1.64-17.21,8.56-31.76,21-47.11,32.28-7.56,5.56-14.94,11.45-20.14,13.19-11.18,3.57-20.97.5-26.86-6.23-3.59-3.98-5.79-9.28-6.06-15.3-.59-13.56,5.36-24.89,13.07-35.45ZM303.16,363.97c-5.51,11.92-14.28,21.29-24.08,29.74-23.95,20.66-51.6,35.01-80.71,46.75-11.02,4.44-22.17,8.58-30.17,10.88-32.16,9.56-61.31,15.72-91.39,16.46-16.52.41-32.9-.61-48.64-6.31-5.23-1.9-10.12-4.47-14.31-8.18-1.08-.95-2.05-1.95-2.93-2.99-6.04-6.91-7.63-15.54-4.51-24.73,2.02-5.95,5.07-11.36,8.86-16.33,7.08-9.3,15.53-17.23,24.82-24.27.92-.7,1.94-2.29,3.12-1.37.17.13.29.27.37.42.96.96-.34,2.15-.83,3.1-3.23,6.31-5.74,12.84-7.06,19.84-2.18,11.52.88,21.81,7.25,28.95,7.38,8.09,19.08,12.03,32.2,8.91,6.69-1.59,13.16-2.18,20-1.76,16.27,1.01,31.91-2.11,46.91-8.47,2.17-.92,4.33-1.74,6.75-1.83,30.01-1.05,56.93-11.46,81.94-27.42,12.43-7.94,23.67-17.28,32.21-29.48,2.05-2.93,3.88-6.07,5.39-9.31,4.79-10.27,3.92-19.78-1.68-26.49-3.42-3.96-8.51-6.93-15.11-8.46-6.88-1.6-13.67-3.24-20.16-6.04-1.06-.46-2.16-.81-2.69-1.63-.47-.51-.7-1.22-.44-2.34.5-2.14,1.12-3.99,3.84-4.08,18.92-.6,37.61.36,55.32,8.01,1.89.82,3.72,1.85,5.45,2.98,3.34,2.18,6.05,4.58,8.14,7.18,6.43,7.77,7.21,17.33,2.15,28.27Z" fill="#fb97aa" stroke="#fb97aa" stroke-miterlimit="10" stroke-width="3.6"/>
  </g>
</svg>