<?xml version="1.0" encoding="UTF-8"?>
<svg id="Layer_2" data-name="Layer 2" xmlns="http://www.w3.org/2000/svg" viewBox="0 0 272.8 365.51">
  <g id="Layer_1-2" data-name="Layer 1">
    <g>
      <g id="E3uS2n.tif">
        <g>
          <path d="M7.44,258.85c-1.93,17.76,2.63,33.66,11.96,48.97,14.12,23.16,35.56,36.54,59.28,47.15,22.3,9.97,45.61,13.22,69.72,8.24,13.1-2.71,24.47-9.15,34.93-17.33,2.53-1.98,2.6-3.22-.75-4.03-.76-.18-1.61-.57-2.13-1.13-4.49-4.77-9.21-5.06-14.79-1.66-3.71,2.26-7.5,1.56-10.61-1.87-3.72-4.11-8.35-5.22-13.66-3.74-1.3.36-2.63.63-3.94.94-7.21,1.68-11.19.38-15.29-5.8-2.91-4.38-6.54-6.53-11.82-6.31-2.54.11-5.11-.43-7.66-.67-3.45-.32-6.18-1.88-8.04-4.82-2.58-4.09-6.45-5.58-11.06-5.48-3.12.06-6.21.08-9.22-.95-3.88-1.32-6.59-3.72-7.17-7.96-.77-5.54-4.2-8.55-9.3-10.03-1.3-.37-2.6-.85-3.93-1-6.46-.72-10.77-3.55-11.95-10.51-.66-3.87-4.06-5.67-7.6-6.51-6-1.42-10.51-4.16-11.61-10.8-.23-1.36-1.2-2.62-2.57-2.92-4.55-1.01-8.62-2.81-11.43-6.89-1.51,1.85-1.18,3.55-1.35,5.09ZM157.5,248.38c.78-4.23.79-8.46-.64-12.42-5.49-15.15-2.62-29.19,4.87-42.86,4.31-7.87,4.07-16.14.77-24.3-2.07-5.13-4.64-10.06-6.81-15.15-2.18-5.13-3.47-10.51-3.92-16.09-.47-5.98.17-12.07,3.99-16.6,8.8-10.43,8.27-22.08,5.78-34.18-.76-3.69-1.95-7.31-3.14-10.9-1.3-3.94-8.08-6.77-11.81-5.12-1.98.87-.94,2.22-.55,3.4,1.38,4.24,2.9,8.43,4.23,12.69,3.76,12.06,2.66,23.33-4.77,33.96-6.62,9.47-6.19,19.87-2.29,30.26,1.42,3.78,3.24,7.46,5.31,10.93,3.24,5.45,4.09,11.37,4.31,17.5.15,4.18-.92,8.04-3.21,11.53-3,4.58-4.87,9.64-6.26,14.88-1.23,4.67-1.56,9.4.38,13.93,4.46,10.41,6.16,20.76,2.04,31.88-1.49,4.01,3.13,1.37,4,2.14,5.22,1.1,6.98-1.42,7.73-5.48ZM173.39,238.79c-5.31-15.89-2.13-30.88,5.47-45,4.7-8.73,4.7-16.85.65-25.54-2.57-5.5-5.33-10.96-7.1-16.8-3.57-11.82-3.24-23.11,2.31-34.63,5.63-11.69,3.86-23.98-.63-35.85-.37-.97-1.15-1.86-1.94-2.56-1.71-1.51-3.89-3.81-5.88-2.66-1.94,1.13.21,3.62.67,5.45,1.83,7.41,2.96,14.83,1.9,22.49-.66,4.78-1.97,9.3-5.03,13.09-9.29,11.5-9.28,23.7-2.93,36.43,2.95,5.92,6.36,11.61,8.5,17.94,2.81,8.32,2.67,16.26-2.47,23.64-7.6,10.9-9.3,22.4-4.71,35.02,2.56,7.04,2.27,14.42-.1,21.54-.99,2.97-.1,4,2.68,4.89,9.36,2.99,9.34,3.08,9.6-6.99.01-.41,0-.81,0-1.22.09-3.13.01-6.29-.98-9.24ZM178.12,233.32c2.1,8.51,3.13,17.05.51,25.62-1,3.27,1.21,4.65,3.15,6.31,6.34,5.4,6.6,5.3,8.51-2.93,1.61-6.95.96-13.78-1.66-20.3-5.42-13.53-4.34-26.42,3.14-38.85.9-1.5,1.54-3.18,2.5-4.64,8.06-12.16,6.54-24.28-.05-36.41-4.37-8.03-7.9-16.26-7.69-25.7.13-5.78,1.26-11.29,3.59-16.52,5.05-11.34,4.64-22.57-.36-33.77-.49-1.1-.9-2.33-1.69-3.2-1.83-2.04-4.63-3.23-6.92-2.43-2.48.86-.54,3.51-.31,5.32.32,2.54.93,5.05,1.55,7.54,2.65,10.6,2.24,21.03-2.58,30.88-5.14,10.5-4.77,20.51,1,30.56,1.54,2.68,2.58,5.65,3.83,8.5,4.93,11.31,4.45,22.32-1.81,33.04-4.23,7.24-6.77,14.99-6.96,23.42-.16,4.69,1.15,9.12,2.25,13.57ZM13.13,225.68c9.64,13.53,21.08,25.39,34.38,35.31,37.13,27.68,77.83,47.59,123.71,55.98,10.94,2,21.95,3.06,33.06,1.47,1.06-.15,2.2-.29,3.13-.76,2.08-1.06,4.59-2.79,4.27-4.9-.3-2.02-3.27-.92-4.99-.9-21.53.2-42.07-4.98-62.34-11.47-37.1-11.89-71.65-28.9-102.93-52.26-12.18-9.09-23.19-19.43-31.32-33.76-1.4,5.2.87,8.25,3.03,11.29ZM204.8,208.1c8.57-15.53,9.14-31.32,2.32-47.6-2.19-5.23-3.62-10.74-4.8-16.32-1.31-6.2-1.26-12.31.3-18.47,1.63-6.41,3.64-12.74,4.48-19.34.62-4.91.11-9.71-1.14-14.46-.53-2.01-1.41-3.88-3.29-4.93-2.17-1.21-4.86-2.21-6.89-.77-1.77,1.25.14,3.45.52,5.2,1,4.48,2.08,8.95,3.24,13.39,1.19,4.53.47,8.86-1.1,13.11-.98,2.66-1.88,5.39-3.2,7.88-4.32,8.16-3.24,16.2.25,24.22,1.46,3.34,3.05,6.63,4.64,9.91,5.93,12.16,6.25,24.49.86,36.85-2.37,5.44-5.31,10.64-7.99,15.94-3.25,6.43-4.01,13.05-1.97,20.05,1.62,5.57,3.11,11.2,4.31,16.88,1.58,7.42,1.27,14.79-1.58,21.93-.3.75-.55,1.53-.77,2.31-.85,3.05,1.15,5.3,3.16,6.4,1.92,1.05,2.58-1.84,3.31-3.2,5.89-10.88,7.77-22.36,4.68-34.48-1.5-5.87-4.07-11.52-3.68-16.99.05-6.73,1.49-12.37,4.32-17.52ZM128.49,264.44c-1.75,1.28-2.21,2.23-.09,3.52,2.55,1.55,4.95,3.32,6.65,5.84,1.26,1.88,2.63,1.14,4.21.41,9.94-4.66,19.91-2.52,27.09,5.68,5.11,5.83,6.66,12.3,3.26,19.47-1.21,2.56-.66,3.58,2,4.19,8.85,2.04,17.82,3.13,26.84,3.94,2.76.25,3.24-.86,2.51-3.36-5.02-17.27-16.21-29.67-31.06-39.04-6.02-3.8-13.59-5.22-24.56-5.45-5.45-.63-11.46.84-16.85,4.8ZM129.21,273.67c-1.18-.89-2.41-1.86-3.77-2.35-10.23-3.63-14.83-11.1-15.07-21.66-.02-1.07-.29-2.14-.49-3.2-1.83-9.8-7.04-12.77-16.29-9.05-3.5,1.41-6.68,1.17-9.52-1.14-2.72-2.21-5.16-4.74-7.75-7.12-7.12-6.55-16.71-5.76-22.67,1.86-4.92,6.28-6.82,6.75-14.15,3.85-2.16-.86-5.14-2.82-6.56-.42-.98,1.66,2.51,2.96,3.92,4.48.82.88,1.82,1.61,2.78,2.36,5.92,4.65,12.14,4.27,17.42-1.05,5.89-5.93,10.33-6.16,16.9-.84,1.05.85,2.13,1.68,3.06,2.65,3.03,3.16,6.73,4.18,11.03,4.04,8.28-.28,12.63,2.9,13.74,11,.94,6.87,3.93,10.96,10.82,12.83,6.59,1.79,9.51,6.96,9.14,13.99-.17,3.19,4.99,7.39,8.08,6.58,1.05-.28,1.43-1.18,1.77-2.06.83-2.15,1.49-4.35,1.43-6.7.17-3.37-1.18-6.06-3.83-8.07ZM79.14,32.21c-.92,2.86,1.53,3.38,3.39,4.01,17.38,5.95,34.77,11.86,52.17,17.76,30.31,10.29,60.62,20.6,90.97,30.77,1.79.6,4.54,3.23,5.79-.02,1.17-3.06-2.04-3.91-4.29-4.74-43.67-16.25-87.36-32.48-131.03-48.72-4.05-1.5-8.08-3.03-11.85-4.44-3.57.38-4.37,2.99-5.14,5.38ZM11.18,234.93c23.34,24.16,47.65,47.11,77.11,63.94,28.07,16.03,58.12,25.24,90.35,27.45,6.47.44,12.92,1.24,19.4.2,1.05-.17,2.13-.35,3.12-.71.76-.27,1.55-.92,1.45-1.77-.16-1.37-1.38-.98-2.25-.97-41.35.37-78.7-13.15-114.43-32.59-20.6-11.21-40.56-23.26-57.35-39.92-5.48-5.44-10.54-11.22-15.18-17.38-.93-1.24-1.57-2.86-3.44-3.28-1.14,2.12-.13,3.65,1.23,5.05ZM82.23,220.59c-1.75,1.25-4.56,2.64-2.35,5.78,3.06,4.35,5.01,5.1,8.41,3.21,15.16-8.45,32.12-5.64,43.66,7.35,2.05,2.31,3.64,5.01,5.54,7.46.86,1.11,1.12,3.5,2.66,3.09,1.85-.49,1.59-2.87,1.77-4.56.17-1.63-.1-3.22-.89-4.7-7.92-14.82-19.76-23.59-36.67-24.05-8.2.19-15.65,1.82-22.13,6.43ZM73.41,244.64c-1.68-1.81-3.6-3.3-6.06-3.88-2.49-.59-4.5.18-6.02,2.29-1.92,2.67-4.09,5.03-7.42,5.99-2.03.59-1.91,1.52-.34,2.7,2.89,2.18,5.62,3.72,9.62,2.22,6.68-2.5,12.75-.77,17.96,4.06,2.2,2.04,4.61,3.64,7.6,4.46,4.18,1.14,6.69,4.24,7.44,8.32.91,4.91,3.45,7.88,8.18,9.42,2.93.96,5.63,2.62,8.48,3.85,1.04.45,2.27,1.39,3.33.16,1.08-1.26.93-2.76.27-4.2-.59-1.28-1.53-2.37-2.85-2.75-10.99-3.17-15.15-11.79-17.58-21.82-.68-2.79-1.97-4.78-6.36-4.09-6.07,1.23-11.56-1.7-16.26-6.75ZM8.35,11.09c14.32,4.88,28.65,9.72,42.96,14.63,2.22.76,3.09,0,3.76-2.13,2.09-6.64,2.19-6.66-4.29-9.11C38.66,9.89,26.46,5.49,14.4.73c-3.61-1.42-5.53-.94-6.45,2.92-.4,1.7-1.15,3.31-1.6,4.56-.41,2.11.85,2.47,2.01,2.87ZM143.37,79.75c-.67-2.79-1.9-4.82-5.06-5.58-19.28-4.65-38.53-9.47-57.79-14.18-4.26-1.04-7.32,1.52-7.39,5.97-.04,2.42,1.92,2.32,3.39,2.63,10.3,2.14,20.63,4.2,30.94,6.3,10.18,2.08,20.35,4.19,30.53,6.28,1.19.24,2.38.47,3.58.7,1.73.24,2.19-.56,1.81-2.13ZM43.62,59.2c.41-1.29.79-2.59,1.32-3.83,1.17-2.7.58-4.17-2.51-4.89-10.52-2.45-21.03-4.98-31.48-7.71-4.58-1.2-4.3,2.44-5.32,4.78-1.24,2.84.63,4.94,2.83,5.27,10.37,1.55,19.54,7.48,30.14,8.05.67.04,1.33.22,2,.33,1.64.27,2.55-.52,3.02-2.01ZM15.03,205.79c9.69-6.73,20.39-8.86,31.97-7.14.97.14,1.96.08,2.61-.73,3.21-4.01,7.05-2.96,11.04-1.55,1.2.42,3.05,2.04,3.78-.04.73-2.09-.88-3.59-3.01-3.93-12.31-1.99-24.66-3.33-36.95-.08-5.51,1.45-10.44,3.94-11.87,10.27-.12.52-.17,1.06-.23,1.4.03,2.16.68,3.18,2.66,1.8ZM108.72,235.1c3.92,5.55,8.96,8.73,14.74,11.56,3.3,1.62,5.4,4.87,7.34,7.98,1.3,2.08,2.81,2.19,4.79,1.14,1.86-.99,1.94-2.43,1.18-4.11-5.67-12.62-16.41-22.07-30.95-22.74-3.98-.18-7.73.74-11.32,2.9,5.29-1.07,11.08-1.18,14.23,3.27ZM17.34,210.69c-1.34,1.16-2.96,2.47-1.53,4.41,1.48,2.01,2.92.17,4.17-.57,12.63-7.48,26.65-5.97,37.35,4.07.78.73,1.57,1.6,2.52,1.98,1.56.62,3.53.54,4.56-.63,1.12-1.28-.62-2.43-1.39-3.37-6.21-7.58-12.68-14.78-22.29-13.39-9.75.04-17.15,2.12-23.4,7.5ZM213,303.24c-1.11-6.33-3.11-12.31-6.76-17.64-.84-1.22-1.62-3.64-3.37-2.7-1.96,1.05-3.25,3.29-2.34,5.89.45,1.27,1.09,2.47,1.66,3.69,1.79,3.81,3.04,7.79,3.85,11.92.36,1.88,1.01,3.45,3.39,3.08,3.13.22,4.08-1.31,3.57-4.24ZM53.45,63.75c1.7.43,3.41.81,5.13,1.16,6.56,1.35,6.37,1.27,8.83-4.66,1.13-2.72.47-3.61-2.13-4.1-2.51-.47-4.97-1.25-7.48-1.77-4.28-.9-7.11,1.5-7.02,5.86-.08,1.91.87,3.06,2.67,3.51ZM229.36,282.84c-.98-1.7-2.36-1.91-4.15-1.56-2.61.52-3.92,1.44-2.54,4.36,2.15,4.56,3.44,9.38,3.77,14.44.05.79-.06,1.78.88,2.07.86.27,1.49-.44,2.08-.99,2.32-2.16,3.31-4.87,3.29-8.41-.24-3.31-1.48-6.7-3.33-9.91ZM146.36,278.34c10.28,2.38,14.44,7.44,14.98,18.06.06,1.24-.68,3.23.96,3.51,1.66.28,2.24-1.73,2.7-3.07,1.97-5.76.67-10.93-3.37-15.35-4.67-5.11-10.49-5.89-17-4.39.36,1.13,1.11,1.1,1.73,1.25ZM218.63,286.33c-1.47-3.59-4.37-1.72-6.2-1.07-1.93.69-.04,2.47.48,3.58,1.99,4.31,3.42,8.76,4.27,13.42.26,1.41-.36,3.77,2.07,3.68,2.6-.1,3.04-2.23,3.02-4.42,0-.4,0-.81,0-.21-.11-5.95-1.8-10.49-3.64-14.99ZM254.15,263.15c2.45-3.17,1.87-7.69-.52-9.61-1.33-1.08-2.83-1.68-3.26.68-1.35,7.47-5.42,12.73-12.32,15.86-.15.07-.14.47-.35,1.27,6.64-.86,12.41-2.99,16.44-8.2ZM61.74,27.26c-.07,1.78,5.02,4.66,8.45,4.77,1.52.05,4.92-5.04,4.37-7.33-.84-3.48-4.49-2.62-6.55-3.73-2.85.03-6.16,3.54-6.27,6.29ZM105.02,186.61c-1.43-2.45-3.23-4.67-5.48-6.42-.89-.69-1.99-1.91-3.15-.84-.96.89-.01,2.06.5,2.93,2.28,3.81,4.69,7.55,7,11.34,1.87,3.07,3.66,6.18,5.49,9.27.33-.1.67-.2,1-.3.38-5.99-2.46-11.01-5.36-15.99ZM87.84,272.23c.58.32,1.41.65,1.75-.13.22-.5.02-1.34-.27-1.88-.95-1.78-2.62-2.69-4.49-3.18-3.79-.99-6.82-3.02-9.3-6.07-2.62-3.22-6.02-3.65-10.12-1.33,7.48,4.2,14.95,8.41,22.43,12.59ZM63.99,167.83c-.39.22-.78.44-1.17.67,4.28,7.88,8.56,15.76,12.84,23.64.41-.31.83-.62,1.24-.93-2.08-9.07-5.79-17.21-12.92-23.37ZM230.77,98.62c.18-1.4-.97-1.84-2.02-2.1-4.71-1.19-9.44-2.34-14.17-3.43-.97-.22-2.33-.79-2.7.75-.34,1.43.71,2.36,1.95,2.65,5,1.15,10.02,2.19,14.46,3.14,1.47.12,2.36,0,2.49-1ZM130.96,214.6c3.71,5.83,7.18,11.26,10.64,16.69-1.9-13.32-4.01-16.59-10.64-16.69ZM28.74,228.1c-.6.28-1.33.63-1.18,1.42.16.86.99.94,1.62.7,5.11-1.96,9.8-.55,14.45,1.59,1.07.49,2.61.97,3.28-.34.73-1.42-.79-2.09-1.76-2.68-2.73-1.66-5.77-2.2-8.93-2.18-2.59-.01-5.11.39-7.48,1.5Z" fill="#fb97aa"/>
          <path d="M213.95,236.11c-.04,5.21,2.04,8.8,5.45,9.82,3.98,1.19,8.06-.58,10.63-4.69,3.14-5.02,3.03-10.26.55-15.42-2.08-4.32-7.4-5.15-11.35-1.94-3.99,3.25-5.06,7.77-5.28,12.22Z" fill="#fb97aa"/>
          <path d="M256.98,281.97c-3.74.44-7.5.8-11.23,1.37-1.49.22-2.91.99-3.16,2.71-.23,1.64,1.13,2.33,2.26,3.04,4.56,2.88,9.2,5.63,14.29,7.53,2.59.97,5.22,1.29,7.95.92,2.97-.4,5.09-1.79,5.56-4.94.5-3.33-.13-6.22-3.49-7.83-3.84-1.85-7.91-2.65-12.18-2.79Z" fill="#fb97aa"/>
          <path d="M130.75,169.15c-.25-4.74-1.82-7.54-5.2-9.13-2.45-1.16-5.13-1.66-7.15.46-2.46,2.59-4.06,5.77-3.02,9.53,1.52,5.47,4.16,10.5,6.39,15.68.49,1.14,1.29,2.11,2.71,2.06,1.24-.05,2.02-.86,2.29-1.96,1.44-5.87,2.81-11.76,3.96-16.64Z" fill="#fb97aa"/>
          <path d="M8.33,171.54c-2.95.46-6.59,0-7.89,3.59-1.39,3.84.77,6.79,3.64,9.1,4.11,3.32,8.79,4.15,13.64,1.96,5.19-2.34,5.69-7.73,1.32-11.38-3.11-2.59-6.9-2.81-10.7-3.28Z" fill="#fb97aa"/>
        </g>
      </g>
      <path d="M63.41,139.35c1.54,1.28,2,2.49,1.76,4.5-.83,6.99,2.4,10.14,9.43,9.14,2.17-.31,3.13.56,4.31,2.06,4,5.11,8.16,5.15,12.32.09,1.34-1.63,2.52-2.33,4.77-1.98,6.22.95,9.52-2.34,8.98-8.8-.97-2.28.48-3.77,2.11-5.38,5.16-5.08,5.1-7.67-.42-12.16-1.61-1.31-1.85-2.7-1.86-4.56-.02-7.61-1.99-9.52-9.33-8.78-2.2.22-3.13-.87-4.27-2.3-3.98-5.05-8.28-5.15-12.32-.11-1.4,1.75-2.99,2-4.94,2.07-7.45.29-8.97,1.87-8.84,9.3.04,2.08-.79,3.53-2.2,4.98-4.9,5.03-4.81,7.57.47,11.94ZM71.78,132.83c.02-2.18,1.97-1.71,3.38-1.91,1.14-.16,2.75.56,3.3-.76.54-1.31-1.09-1.97-1.76-2.92-.31-.44-.68-.84-1.05-1.24-1.42-1.52-.65-2.66.61-3.74,1.46-1.25,2.38-.43,3.35.73.99,1.18,1.36,2.95,3.12,3.5,1.04-1.08.48-2.35.63-3.5.18-1.4-.3-3.38,1.96-3.26,1.88.1,1.44,1.91,1.65,3.18.23,1.37-.79,3.41.92,3.95,1.27.4,2-1.52,2.95-2.43.29-.28.54-.61.82-.9.99-1.04,2.04-1.28,3.17-.22,1.06.99.64,1.92-.15,2.82-.54.61-1.12,1.17-1.64,1.8-.58.7-1.72,1.27-1.28,2.32.44,1.06,1.65.54,2.54.67,1.62.23,3.98-.6,4.17,1.99.2,2.81-2.25,1.99-3.84,2.21-.91.13-2.09-.27-2.61.67-.69,1.25.64,1.86,1.24,2.68.16.22.38.38.56.59.92,1.11,2.45,2.24.88,3.76-1.66,1.62-2.56-.14-3.59-1.13-1.01-.97-1.5-2.63-3.31-2.61-.83,1.29-.39,2.68-.54,3.99-.16,1.42.26,3.39-1.85,3.46-2.49.08-1.87-2.09-2.06-3.6-.15-1.16.56-2.78-.65-3.36-1.52-.72-2.15,1.19-3.23,1.85-1.24.76-2.14,3.17-3.95,1.46-1.76-1.66.29-2.82,1.17-4.04.76-1.05,2.58-1.77,2.08-3.19-.54-1.53-2.36-.73-3.63-.92-1.39-.21-3.37.33-3.35-1.9Z" fill="#fb97aa"/>
    </g>
  </g>
</svg>