<?xml version="1.0" encoding="UTF-8"?>
<svg id="Layer_2" data-name="Layer 2" xmlns="http://www.w3.org/2000/svg" viewBox="0 0 980.37 1501.21">
  <g id="Layer_1-2" data-name="Layer 1">
    <g>
      <g>
        <path d="M902.18,1281.34c-.27-.16-2.11-.65-5.24-1.46-.89-.92-1.08-1.94-6.02-2-.54.03-1.11.08-1.65.11-43.2-10.61-180.19-43.02-186.94-45.26-.03,0-186.32-48.6-186.32-48.6,0,0-.03-.14-.11-.35,0-.03,0-.05-.03-.08-.05-1.65,1.11-7.64.14-7.67,5.08.62,437.41,111.36,442.36,111.36.08,6.48-.89,12.96-5.56,16.9-6.72,5.7-8.4.59-13.61.08-4.86-.49-9.8.19-14.69-.14-2.19-.16-4.05-2.13-5.67-2.3-13.74-1.3-12.53,19.79-14.12,28.54-5.56,30.38-12.15,60.27,2.24,89.84,5.27,10.77,17.44,22.55,23.36,31.94,1.73,2.78,2.16,8.42,3.21,9.67,2.21,2.65,26.62,2.78,32.05,5.08,6.86,2.89,2.27,13.15,5.29,17.34,1.43,1.97,7.32.65,9.05,6.24,2.43,7.72-5.64,5.81-9.23,7.13-18.25,6.64-31.21,2.27-50.25-.41l-514.51.11c-13.2-2-26.41-3.94-39.75-4.32l.27-13.69c1.94,0,3.7-.3,5.1-.97-3.75-8.34-17.69-5.45-21.9-12.5-7.91-24.41-15.45-49.01-18.58-74.58-1.51-12.21-3.65-31.3-2.78-43.23.78-10.75,3.29-32.84,5.86-42.8.92-3.48,5.16-10.26,8.69-11.5,5.97-2.08,26.57-5.18,33.46-5.72,6.91-.54,14.96.84,21.6,0,1.97-.24,4.16-1.03,2-2.67,22.33,2.38,44.96-3.16,67.97-4.13,39.13-1.7,78.12-1.78,117.27-1.78h93.94c37.05,2.11,75.69,1.16,114.41,0h57.25c12.96,0,25.76-.68,38.53-1.51,3.05.76,5.64,1.38,7.67,1.89.65.68,1.65,1.3,5.21,1.46h.03ZM941.96,1489.34c4.29-.14,10.37-4.46,7.4-8.13-.81-.97-21.76-3.94-24.87-4.16-39.1-2.75-87.06-1.05-126.99-1.3-15.58-.08-31.05.86-46.58,2.03,23.14,6.94,47.31,3.51,70.96,4.67,26.54,1.3,52.98,3.05,79.66,4.05,12.12.46,28.76,3.24,40.42,2.84ZM895.97,1447.3c5.86-4.05-.57-7.32-1.57-10.37-2.05-6.1-2.38-15.04-7.13-20.58,0-.03-.03-.03-.05-.03l-1.27-4.02c.76-9.86-1.3-19.5-2.19-29.24-.3-3.19,2.11-10.77-1.81-13.34-1.35-.89-14.28-1.3-18.12-2.13-1.49-.32-2.94-.62-4.4-.92-39.02-7.97-71.34-8.67-111.93-8.42-111.57.59-223.2,2.38-334.72,6.86-16.53.68-38.15-.24-54.06,2.65-7.67,1.38-1.27,11.67-.76,15.61.68,5.24,1.22,10.67,1.76,16.15,1.65,16.44,3.54,33.43,11.18,47.88,9.53,18.06,9.86.92,16.96-3.24,4.89-2.86,10.42-4.02,16.12-4.35,8.48-.49,17.34.84,24.9.92,26,.32,54.33-3.48,79.71-1.4,10.15.84,22.9,5.67,32.35,6.8,35.91,4.27,87.08-.14,124.21-.11,64.83.05,130.4,3.13,194.42,2.7,6.99-.05,32.35,1.4,36.4-1.4ZM885.36,1324.43c7.32-.38,9.42-18.42,8.69-24.19-23.2-2.11-46.34-1.94-69.59-2.65-78.47-2.35-157.59-1.7-236.27-1.35-73.18.35-146.97-.35-219.85,8.21-8.13.95-10.67,3.65-12.83,11.48-1.3,4.7-1.89,9.32-2.08,13.91-.41,8.72.59,17.39.57,26.44,2.21,7.07,4.48.95,7.78-.32,9.69-3.7,36.43-2.46,48.23-3.05,64.13-3.29,128.75-6.59,193.04-6.8,46.9-.16,94.86,4.13,141.87,1.46,12.31-.7,25.25-4.35,37.8-4.16,18.63.27,39.94,5.29,59.35,5.56,7.21.11,14.88-2.75,22.9-1.4,5.78,1,14.28,9.75,17.58,9.5,5.78-.46,4.89-17.2-1.59-18.74-138.04-11.96-277.18-5.91-415.62-5.72-32.65,2.59-65.51,2.92-98.4,2.78-.76-1.92-1.11-3.59-1.11-5.08,0-5.08,4.13-7.72,10.42-8.48,76.07-.7,152.67.14,228.25-3.97,55.84-3.02,107.82-1.03,163.37,1.24,31.59,1.3,64.4-.84,95.86,1.35,5.81.41,17.88,4.21,21.63,4ZM568,1483.86l14.18-2.7c-21.87-.35-43.53-3.92-65.54-2.75l-58.7,3.43c36.53,3.78,73.37,4.56,110.06,2.03Z" fill="#fb97aa"/>
        <path d="M949.36,1481.21c2.97,3.67-3.11,7.99-7.4,8.13-11.67.41-28.3-2.38-40.42-2.84-26.68-1-53.11-2.75-79.66-4.05-23.65-1.16-47.82,2.27-70.96-4.67,15.53-1.16,31-2.11,46.58-2.03,39.94.24,87.89-1.46,126.99,1.3,3.11.22,24.06,3.19,24.87,4.16Z" fill="#fff9cb"/>
        <path d="M890.92,1277.88c4.94.05,5.13,1.08,6.02,2-2.03-.51-4.62-1.13-7.67-1.89.54-.03,1.11-.08,1.65-.11Z" fill="#2a5945"/>
        <path d="M894.41,1436.93c1,3.05,7.43,6.32,1.57,10.37-4.05,2.81-29.41,1.35-36.4,1.4-64.02.43-129.59-2.65-194.42-2.7-37.13-.03-88.3,4.37-124.21.11-9.45-1.13-22.2-5.97-32.35-6.8-25.38-2.08-53.71,1.73-79.71,1.4-7.56-.08-16.42-1.4-24.9-.92l-.32-8.21c13.53-.49,29.54-3.92,41.42-4.48,69.5-3.35,143.33-.22,213.43-1.24,60.46-.89,121.54-5.27,182.27-2.81,9.37.38,27.52,5.35,35.67,2.03,2.05-.81,9.91-8.75,10.77-8.75.03,0,.05,0,.05.03,4.75,5.54,5.08,14.47,7.13,20.58Z" fill="#fff9cb"/>
        <path d="M894.06,1300.24c.73,5.78-1.38,23.82-8.69,24.19-3.75.22-15.82-3.59-21.63-4-31.46-2.19-64.27-.05-95.86-1.35-55.54-2.27-107.52-4.27-163.37-1.24-75.58,4.1-152.19,3.27-228.25,3.97-6.29.76-10.42,3.4-10.42,8.48l-12.39-.46c.19-4.59.78-9.21,2.08-13.91,2.16-7.83,4.7-10.53,12.83-11.48,72.88-8.56,146.68-7.86,219.85-8.21,78.69-.35,157.8-1,236.27,1.35,23.25.7,46.39.54,69.59,2.65Z" fill="#fff9cb"/>
        <path d="M885.96,1412.3l1.27,4.02c-.86,0-8.72,7.94-10.77,8.75-8.15,3.32-26.3-1.65-35.67-2.03-60.73-2.46-121.81,1.92-182.27,2.81-70.1,1.03-143.92-2.11-213.43,1.24-11.88.57-27.89,4-41.42,4.48-4.43.16-8.56,0-12.23-.68-1.27-.24-14.37-4.78-15.04-5.21-4.32-2.84-1.54-7.16,2.62-7.97,161.04-.62,322.28-8.91,483.26-5.37,8.07.19,15.39-1.81,23.68-.05Z" fill="#fb97aa"/>
        <path d="M883.77,1383.06c.89,9.75,2.94,19.39,2.19,29.24-8.29-1.76-15.61.24-23.68.05-160.99-3.54-322.22,4.75-483.26,5.37-4.16.81-6.94,5.13-2.62,7.97.68.43,13.77,4.97,15.04,5.21,3.67.68,7.8.84,12.23.68l.32,8.21c-5.7.32-11.23,1.49-16.12,4.35-7.1,4.16-7.43,21.3-16.96,3.24-7.64-14.45-9.53-31.43-11.18-47.88l11.83-.73c11.83,2.78,25.09-.97,37.07-1.38,87.92-2.94,177.41.97,264.73-2.59,53.25-2.16,114.49-13.61,167.33-8.13,8.15.84,21.17,9.23,28.46,2.75,9.4-8.37-3.67-13.04-11.45-14.45l1.73-8.32c1.46.3,2.92.59,4.4.92,3.83.84,16.77,1.24,18.12,2.13,3.92,2.57,1.51,10.15,1.81,13.34Z" fill="#fff9cb"/>
        <path d="M880.96,1338.31c6.48,1.54,7.37,18.28,1.59,18.74-3.29.24-11.8-8.51-17.58-9.5-8.02-1.35-15.69,1.51-22.9,1.4-19.41-.27-40.72-5.29-59.35-5.56-12.56-.19-25.49,3.46-37.8,4.16-47.01,2.67-94.97-1.62-141.87-1.46-64.29.22-128.91,3.51-193.04,6.8-11.8.59-38.53-.65-48.23,3.05-3.29,1.27-5.56,7.4-7.78.32.03-9.05-.97-17.71-.57-26.44l12.39.46c0,1.49.35,3.16,1.11,5.08,32.89.14,65.75-.19,98.4-2.78,138.44-.19,277.59-6.24,415.62,5.72Z" fill="#fff9cb"/>
        <path d="M857.71,1374.98c7.78,1.4,20.85,6.08,11.45,14.45-7.29,6.48-20.31-1.92-28.46-2.75-52.84-5.48-114.09,5.97-167.33,8.13-87.33,3.56-176.81-.35-264.73,2.59-11.99.41-25.25,4.16-37.07,1.38,1.67-2.62,5.59-5.72,8.24-7.26,17.44-10.04,44.53-5.7,64.05-6.16,103.85-2.43,207.89-3.08,311.88-6.75,32.73-1.16,66.86-7.45,99.69-3.94.68.08,1.46.19,2.3.32Z" fill="#fb97aa"/>
        <path d="M859.44,1366.67l-1.73,8.32c-.84-.14-1.62-.24-2.3-.32-32.84-3.51-66.97,2.78-99.69,3.94-103.99,3.67-208.03,4.32-311.88,6.75-19.52.46-46.61-3.89-64.05,6.16-2.65,1.54-6.56,4.64-8.24,7.26l-11.83.73c-.54-5.48-1.08-10.91-1.76-16.15-.51-3.94-6.91-14.23.76-15.61,15.9-2.89,37.53-1.97,54.06-2.65,111.52-4.48,223.15-6.26,334.72-6.86,40.58-.24,72.91.46,111.93,8.42Z" fill="#fff9cb"/>
        <path d="M889.28,1277.99c-12.77.84-25.57,1.51-38.53,1.51h-57.25c-38.72,1.16-77.36,2.11-114.41,0h-93.94c-39.15,0-78.15.08-117.27,1.78-23.01.97-45.63,6.51-67.97,4.13l-.16-.03c-17.77-1.89-35.37-5.37-52.84-11.23-5.29-1.78-9.8-4.62-13.56-8.15-51.82-8.1-101.34-24.3-149.59-44.74-23.06-9.77-46.01-19.66-69.61-28.06-.38-.14-.78-.24-1.24-.38-1.08-.32-2.13-.65-3.21-.95,73.55-1.57,408.28-7.56,406.33-7.75,0,0,186.29,48.6,186.32,48.6,6.75,2.24,143.73,34.64,186.94,45.26Z" fill="#fff9cb"/>
        <path d="M582.18,1481.16l-14.18,2.7c-36.7,2.54-73.53,1.76-110.06-2.03l58.7-3.43c22.01-1.16,43.66,2.4,65.54,2.75Z" fill="#fff9cb"/>
        <path d="M516.02,1176.03c.97.03-.19,6.02-.14,7.67-.46-1.67-1.97-7.67,0-7.67h.14Z" fill="#2a5945"/>
        <path d="M515.91,1183.78c0,.22.03.35.11.35,1.94.19-332.78,6.18-406.33,7.75-1.81-.54-3.65-1.08-5.45-1.59-5.78-1.59-11.58-3.02-17.44-4.27-.41-.08-.68-.14-.86-.14l-.05-5.21c109.93-.89,421.81-4.7,430.02-4.64-1.97,0-.46,5.99,0,7.67.03.03.03.05.03.08Z" fill="#fb97aa"/>
        <path d="M399.91,1285.42c2.16,1.65-.03,2.43-2,2.67-6.64.84-14.69-.54-21.6,0-6.89.54-27.49,3.65-33.46,5.72-3.54,1.24-7.78,8.02-8.69,11.5-2.57,9.96-5.08,32.05-5.86,42.8-.86,11.94,1.27,31.03,2.78,43.23,3.13,25.57,10.67,50.17,18.58,74.58,4.21,7.05,18.15,4.16,21.9,12.5-1.4.68-3.16.97-5.1.97-9.1,0-22.66-6.59-25.79-12.58-4.46-8.53-6.56-24.95-8.67-34.54-9.56-43.47-11.56-88.22-4.67-132.47.57-5.35,6.83-4.75,10.37-7.13,5-3.32,5.54-7.75,13.34-8.37,3.4-.24,5.89,1.13,8.99,1.13,13.23,0,26.49-.14,39.72-.05l.16.03Z" fill="#fff9cb"/>
        <path d="M399.75,1285.39c-13.23-.08-26.49.05-39.72.05-3.11,0-5.59-1.38-8.99-1.13-7.8.62-8.34,5.05-13.34,8.37-3.54,2.38-9.8,1.78-10.37,7.13-6.89,44.26-4.89,89,4.67,132.47,2.11,9.59,4.21,26,8.67,34.54,3.13,5.99,16.69,12.58,25.79,12.58l-.27,13.69c-4.73-.16-9.45-.11-14.2.22-5.48.38-10.02,3.46-16.09,2.65-1.49-.19-24.01-10.29-27.38-11.83-79.95-37.07-161.8-69.64-241.13-108.55-5.7-2.81-17.31-5.99-21.95-9.1-4.75-3.21-5.02-11.67-7.26-15.34-1.27-2.11-7.45-3.78-10.1-7.8-1.43-2.19-3.83-8.48-4.89-11.31-13.29-35.35-11.58-94.54,1.03-130.04.89-2.51,6.32-15.12,7.45-16.17,1.43-1.32,9.21-3.13,16.39-5.02.65.14,14.82.08,37.83-.11l.05,5.21c-2.05,0,10.42,5.4,9.94,6.29-.7.03-1.08.05-1.08.05.7.08,1.05.05,1.08-.05,2.03-.05,6.78-.16,13.83-.3,1.08.3,2.13.62,3.21.95.46.14.86.24,1.24.38,23.6,8.4,46.55,18.28,69.61,28.06,48.25,20.44,97.78,36.64,149.59,44.74,3.75,3.54,8.26,6.37,13.56,8.15,17.47,5.86,35.08,9.34,52.84,11.23ZM304.11,1464.31c5.97-2.67-.95-13.56-2.11-18.25-10.5-42.77-10.83-102.74-1.38-145.87,1.05-4.78,4.56-9.4,3.27-14.64-4.62-1.08-8.78-3.59-13.26-4.97-21.44-6.62-39.56-12.34-60.86-20.14-32.78-12.02-70.21-21.39-100.29-38.1-13.69-7.61-47.28-20.63-62.78-24.3-9.37-2.24-22.01-5.1-27.54,4.05-8.34,13.74-11.5,59.3-10.5,75.85,1.67,28.14,11.56,45.36,21.85,69.96.65,1.51,2.78,5.89,3.7,6.75,1.43,1.32,17.34,6.89,21.25,8.8,68.45,33.38,138.17,65.37,208.35,94.08,2.81,1.13,19.04,7.34,20.31,6.78Z" fill="#fb97aa"/>
        <path d="M302,1446.05c1.16,4.7,8.07,15.58,2.11,18.25-1.27.57-17.5-5.64-20.31-6.78-70.18-28.7-139.9-60.7-208.35-94.08-3.92-1.92-19.82-7.48-21.25-8.8-.92-.86-3.05-5.24-3.7-6.75-10.29-24.6-20.17-41.83-21.85-69.96-1-16.55,2.16-62.11,10.5-75.85,5.54-9.15,18.17-6.29,27.54-4.05,15.5,3.67,49.09,16.69,62.78,24.3,30.08,16.71,67.51,26.08,100.29,38.1,21.3,7.8,39.42,13.53,60.86,20.14,4.48,1.38,8.64,3.89,13.26,4.97,1.3,5.24-2.21,9.86-3.27,14.64-9.45,43.12-9.13,103.1,1.38,145.87ZM208.06,1270.97c3.43-10.75-21.3-16.01-28.22-18.66-20.66-8.02-41.45-14.72-62.11-22.95-4.35-1.76-8.86-5.94-12.72-7.53-7.43-3.08-31.97-10.94-39.37-11.91-4.83-.65-11.99-1.38-14.07,3.89,5.08,1,9.4,4.54,14.12,6.83,37.51,18.06,77.74,32.05,116.81,46.55,3.05,1.13,6.78.57,10.26,1.89,3.05,1.16,12.53,10.53,15.28,1.89Z" fill="#fff9cb"/>
        <path d="M179.84,1252.31c6.91,2.65,31.65,7.91,28.22,18.66-2.75,8.64-12.23-.73-15.28-1.89-3.48-1.32-7.21-.76-10.26-1.89-39.07-14.5-79.31-28.49-116.81-46.55-4.73-2.3-9.05-5.83-14.12-6.83,2.08-5.27,9.23-4.54,14.07-3.89,7.4.97,31.94,8.83,39.37,11.91,3.86,1.59,8.37,5.78,12.72,7.53,20.66,8.24,41.45,14.93,62.11,22.95Z" fill="#fb97aa"/>
        <path d="M104.23,1190.29c1.81.51,3.65,1.05,5.45,1.59-7.05.14-11.8.24-13.83.3.49-.89-11.99-6.29-9.94-6.29.19,0,.46.05.86.14,5.86,1.24,11.67,2.67,17.44,4.27Z" fill="#fb97aa"/>
        <path d="M506.72,1229.3c-.09.31,25.8,7.24,25.76,7.39-2.18,7.59-52.71-13.34-54.41-7.42-.1.36,26.14,7.13,26.05,7.47-.99,3.44-43.59-15.53-45.9-7.49-.09.3,26.1,7.31,26.06,7.47-1.32,4.6-51.5-10.98-52.5-7.5-.06.19,26.12,7.29,26.07,7.47-1.99,6.92-53.98-10.87-54.95-7.51-.04.13,26.15,7.22,26.08,7.48-1.87,6.53-45.83-12.42-47.24-7.51-.04.14,26.19,7.13,26.09,7.48-1.35,4.7-37.97-11.17-39.03-7.5-.05.17,26.14,7.32,26.1,7.48-1.73,6.02-49.78-17.15-52.54-7.52-.06.22,26.17,7.25,26.11,7.49-1.4,4.87-41.52-13.97-43.37-7.51-.08.27,26.18,7.25,26.11,7.49-2.97,10.36-54.77-17.3-57.57-7.53-.08.28,26.23,7.15,26.13,7.49-2.49,8.67-46.81-11.3-47.92-7.41-.07.23,25.81,7.21,25.76,7.39" fill="none" stroke="#fb97aa" stroke-linecap="round" stroke-linejoin="round" stroke-width="1.99"/>
      </g>
      <g>
        <path d="M957.35,1287.01c.14,2.59.46,5.7.68,8.91-7.13.86-14.28,1.38-21.47,1.65.24-.32.43-.68.54-1.13.43-2.05-1.59-3.02-3.38-3.35-12.88-2.3-35.62.62-50.01.05-64.97-2.48-128.72-10.1-194.42-6.86-5.48.27-15.15.73-20.12,1.49-1.13.16-2.24.59-3.4,1.11-9.18-.22-18.39-.43-27.57-.7-58.62-1.76-117.27-3.59-175.92-3.75-28.68-.05-57.35.78-86.03.68-12.83-.05-25.65-.27-38.48-.97-1.22-.11-4.05-.3-4.64-.35-4.27-.43-8.53-.78-12.8-1.27-7.7-.86-15.39-1.92-23.06-3.16-5.97-.97-11.88-2.32-17.74-3.81-.84-.54-1.67-1.11-2.57-1.62-26.54-15.42-56.92-19.2-86-27.16-5.08-3.54-11.02-5.99-17.28-7.37-5.27-2.46-10.45-5-15.69-7.51-16.01-7.67-32.38-14.04-49.55-18.71-17.15-6.43-33.56-13.18-47.61-24.71-5.05-6.13-14.96-6.18-21.44-9.59-24.55-12.83-19.68-52.09-10.1-73.28,4.02-8.88,10.18-15.47,14.28-24.17,6.53.08,12.83-2.75,19.25-3.05,6.18-.3,486.64,12.96,482.89,3.16l.05.08,10.75,18.82c-13.1-.05-383.65-5.51-478.73-6.02-12.45-.05-20.17-.03-21.76.11-16.96,11.23-21.82,42.1-13.72,59.84,2.11,4.64,12.31,12.64,16.77,15.63,9.99,6.75,20.06,9.29,30.46,14.1,53.33,24.73,107.77,47.36,164.39,63.78,3.73,1.08,4.94,3.46,10.07,3.43,1.97,0,4.05.84,3.4-2.05-.43-1.86-5.37-5.91-6.94-9.23-5.48-11.42-9.67-35.16-7.94-47.55.68-4.91,6.16-13.8,10.58-20.14l12.56,1.54c-1.08,2.21-3.59,7.61-3.78,8.26-3.4,11.15-1.54,23.98-.41,35.37,6.24-4.97,5.99-16.34,8.8-24.28,2.75-7.83,5.59-15.15,14.77-16.28,22.01-2.75,53.09.95,75.66,1.4,85.95,1.73,171.95,5.05,257.85,6.78,84.57,1.67,169.52,2.73,253.9,3.97,6.05.08,15.39,4.46,19.52-1.27-14.45-2.78-29.38-.11-43.85-1.4-11.99-1.05-26.95-5.83-39.21-6.7-24.98-1.81-50.04-2.81-75.09-3.4l.22-8.26c20.33.7,40.75.41,60.78.41,2.05,0,100.72,5.21,102.72,4.89,2.08.14.49-.43-4.08-1.57l.65-2.46c21.12,5.51,34.94,9.4,37.4,10.67,8.78,4.59.97,29.49-7.61,27.84-1.76-.32-5.4-5.72-9.48-4.91-6.91,1.35-5.18,25.81-4.94,31.51.22,5.35.73,15.28,1.49,20.12,2.24,14.37,16.63,5.94,26.17,7.59,13.31,2.27,9.77,14.74,10.21,24.9ZM904.1,1260.76c2.67-3.81-1.54-10.4-2-14.37-1.08-8.75-2.19-20.87-1.35-29.49.32-3.4,5.1-11.07,1.32-13.69l-58.76-4.7c-31.19.62-62.35.76-93.48.54-140.98-.97-281.72-8.91-422.37-8.53-2.67.03-5.16-1.32-7.75-1.11-13.2,1.16-6.37,15.88-5.13,23.38v.05c.46,2.89-.27,6.05.43,9.02,1.86,8.1,6.53,15.36,8.18,23.57,3.11,4.4,24.09,7.99,30,8.45,11.18.89,22.9,1.11,34.7,1.11,14.69.05,29.54-.22,43.64.22,146.97,4.43,293.81,1.94,441.49,5.4,5.24.14,28.49,3.83,31.08.14Z" fill="#fb97aa"/>
        <path d="M903.48,1171.76c4.56,1.13,6.16,1.7,4.08,1.57-2,.32-100.67-4.89-102.72-4.89-20.04,0-40.45.3-60.78-.41-18.25-.59-36.48-2-54.28-5.13-25.49-2.57-51.12-2.48-76.74-2.67-23.22-.76-46.44-2.59-69.26-3.4-49.71,6.48-101.56-1-151.24-4.86-19.82-1.54-44.55-3.08-70.88-2.43-16.36.41-16.17.57-32.46-.51,3.27.62-5.4,0-9.61,1.62-6.67,2.59-8.8,9.96-9.59,10.69-2.05,1.89-1.86,4.13-3.08,5.7-1,1.32-2.35,3.16-3.81,5.27l-7.4-.16c1.4-2.43,1.73-4.91-.43-6.67-12.83-5.75-26.35-9.59-39.5-14.47-20.41-7.56-41.37-14.91-61.48-22.22-21.76-7.94-45.34-24.84-68.45-27.41-1.7-.19-4.75-.41-8.07-.41l.03-6.56c95.08.51,465.63,5.97,478.73,6.02,0,0,304.18,60.73,346.96,71.34Z" fill="#fff9cb"/>
        <path d="M902.1,1246.4c.46,3.97,4.67,10.56,2,14.37-2.59,3.7-25.84,0-31.08-.14-147.68-3.46-294.52-.97-441.49-5.4-14.1-.43-28.95-.16-43.64-.22l.05-8.94c4.21,0,7.99-.14,9.83-.19,120.62-2.75,241.13-4.13,361.83-.11,17.34.57,39.77,4.32,56.71,2.81,13.04-1.16,9.72-12.5,4-13.56-22.52-.35-45.07.43-67.56.05-63-1.03-126.18-2.3-189.34-2.65l.05-9.67c95.97.62,191.99-.08,287.98.03,5.02.68,7.32,5.83,13.34,5.43,5.62-.38,10.75-7.94,7.07-13.02-4.73-6.51-9.56-3.16-15.04-3.08-11.42.19-22.6-1.24-33.75-1.46-24.44-.49-48.87-.7-73.28-.78l.05-10.83c31.13.22,62.29.08,93.48-.54l58.76,4.7c3.78,2.62-1,10.29-1.32,13.69-.84,8.61.27,20.74,1.35,29.49Z" fill="#fff9cb"/>
        <path d="M904.13,1169.3l-.65,2.46c-42.77-10.61-346.96-71.34-346.96-71.34l-10.75-18.82-.05-.08s259.41,61.94,358.4,87.79Z" fill="#fb97aa"/>
        <path d="M901.99,1187.8c-4.13,5.72-13.47,1.35-19.52,1.27-84.38-1.24-169.33-2.3-253.9-3.97-85.9-1.73-171.9-5.05-257.85-6.78-22.57-.46-53.65-4.16-75.66-1.4-9.18,1.13-12.02,8.45-14.77,16.28-2.81,7.94-2.57,19.31-8.8,24.28-1.13-11.4-3-24.22.41-35.37.19-.65,2.7-6.05,3.78-8.26.27-.51.46-.84.51-.92,2.19-2.67,12.1-.89,16.15-1.43,29.41-3.81,60.32-1.03,90.59-1.22,64.83-.38,129.42,2.08,194.42,3.94,55.46,1.59,111.06.81,166.5,2.08,25.06.59,50.12,1.59,75.09,3.4,12.26.86,27.22,5.64,39.21,6.7,14.47,1.3,29.41-1.38,43.85,1.4Z" fill="#fff9cb"/>
        <path d="M871.86,1215.21c3.67,5.08-1.46,12.64-7.07,13.02-6.02.41-8.32-4.75-13.34-5.43-95.99-.11-192.01.59-287.98-.03-67.02-.43-133.99-1.49-200.9-3.89-6.89-2.51-38.05-.7-41.26-4.64-.68-.84-1.08-1.67-1.24-2.48-.84-4.29,5.35-7.59,9.37-8.53,14.66-3.4,27.43,2.51,41.23,3.51,37.21,2.7,79.25.05,117.46,1.35,87.3,2.94,174.38,1.57,261.65,1.81,24.41.08,48.85.3,73.28.78,11.15.22,22.33,1.65,33.75,1.46,5.48-.08,10.31-3.43,15.04,3.08Z" fill="#fb97aa"/>
        <path d="M820.31,1235.03c5.72,1.05,9.05,12.39-4,13.56-16.93,1.51-39.37-2.24-56.71-2.81-120.7-4.02-241.21-2.65-361.83.11-1.84.05-5.62.19-9.83.19-7.75,0-17.04-.49-18.69-2.89-.95-1.38.24-6.97,1.11-7.83,3-3.05,41.48-1.43,49.01-1.62,47.93-1.27,95.97-1.54,144.03-1.3,63.16.35,126.34,1.62,189.34,2.65,22.49.38,45.04-.41,67.56-.05Z" fill="#fb97aa"/>
        <path d="M749.84,1199.06l-.05,10.83c-87.27-.24-174.36,1.13-261.65-1.81-38.21-1.3-80.25,1.35-117.46-1.35-13.8-1-26.57-6.91-41.23-3.51-4.02.95-10.21,4.24-9.37,8.53l-5.48,1.05c-1.24-7.51-8.07-22.22,5.13-23.38,2.59-.22,5.08,1.13,7.75,1.11,140.66-.38,281.39,7.56,422.37,8.53Z" fill="#fff9cb"/>
        <path d="M744.06,1168.04l-.22,8.26c-55.44-1.27-111.03-.49-166.5-2.08-65-1.86-129.59-4.32-194.42-3.94-30.27.19-61.19-2.59-90.59,1.22-4.05.54-13.96-1.24-16.15,1.43-.05.08-.24.41-.51.92l-12.56-1.54c1.46-2.11,2.81-3.94,3.81-5.27,1.22-1.57,1.03-3.81,3.08-5.7.78-.73,2.92-8.1,9.59-10.69,4.21-1.62,12.88-1,9.61-1.62,16.28,1.08,16.09.92,32.46.51,26.33-.65,51.06.89,70.88,2.43,49.68,3.86,101.53,11.34,151.24,4.86,22.82.81,46.04,2.65,69.26,3.4,25.63.19,51.25.11,76.74,2.67,17.79,3.13,36.02,4.54,54.28,5.13Z" fill="#fb97aa"/>
        <path d="M563.46,1222.77l-.05,9.67c-48.06-.24-96.1.03-144.03,1.3-7.53.19-46.01-1.43-49.01,1.62-.86.86-2.05,6.45-1.11,7.83,1.65,2.4,10.94,2.89,18.69,2.89l-.05,8.94c-11.8,0-23.52-.22-34.7-1.11-5.91-.46-26.89-4.05-30-8.45-1.65-8.21-6.32-15.47-8.18-23.57-.7-2.97.03-6.13-.43-9.02v-.05l5.48-1.05c.16.81.57,1.65,1.24,2.48,3.21,3.94,34.37,2.13,41.26,4.64,66.91,2.4,133.88,3.46,200.9,3.89Z" fill="#fff9cb"/>
        <path d="M267.41,1249.23c.65,2.89-1.43,2.05-3.4,2.05-5.13.03-6.35-2.35-10.07-3.43-56.62-16.42-111.06-39.05-164.39-63.78-10.4-4.81-20.47-7.34-30.46-14.1-4.46-3-14.66-10.99-16.77-15.63-8.1-17.74-3.24-48.6,13.72-59.84,1.59-.14,9.32-.16,21.76-.11l-.03,6.56c-6.05,0-12.96.73-14.2,3.78,4.54,4.05,10.64,4.4,15.8,7.16,10.96,5.81,9.72,5.78,22.3,10.1,32.94,11.31,64.29,24.82,96.89,36.78,8.51,3.13,32.73,8.15,38.78,13.23,2.43,2.03,3.83,8.29,8.86,7.51,2.78-.43,7.4-3.81,9.53-7.37l7.4.16c-4.43,6.35-9.91,15.23-10.58,20.14-1.73,12.39,2.46,36.13,7.94,47.55,1.57,3.32,6.51,7.37,6.94,9.23Z" fill="#fff9cb"/>
        <path d="M255.28,1165.47c2.16,1.76,1.84,4.24.43,6.67-2.13,3.56-6.75,6.94-9.53,7.37-5.02.78-6.43-5.48-8.86-7.51-6.05-5.08-30.27-10.1-38.78-13.23-32.59-11.96-63.94-25.46-96.89-36.78-12.58-4.32-11.34-4.29-22.3-10.1-5.16-2.75-11.26-3.11-15.8-7.16,1.24-3.05,8.15-3.78,14.2-3.78,3.32,0,6.37.22,8.07.41,23.11,2.57,46.69,19.47,68.45,27.41,20.12,7.32,41.07,14.66,61.48,22.22,13.15,4.89,26.68,8.72,39.5,14.47Z" fill="#fb97aa"/>
      </g>
      <g>
        <path d="M798.64,981.77c4.68.82,7.27,1.25,7.32,1.25,5.21-.2,1.7-.64-7.32-1.25ZM798.54,981.77c-27.58-4.72-126.14-21.85-196.89-35.84-45.04-8.88-76.47-18.3-76.47-18.3,0,0-2.55-6.35-8.51-10.42,4.91.98,318.91,64.89,319.06,65.4,1.33,4.56-2.56,22.57-6.01,24.77-3.29,2.09-21.25-.24-27.06,1.71-5.19,1.77-13.92,20.52-15.66,25.82-9.51,28.71-7.8,47.02,7.64,72.75,1.84,3.06,9.91,14.81,12.12,16.45,7.6,5.67,32.17-5.56,32.88,12.17v.05c.13,2.91-2.03,5.44-4.94,5.76-6.11.67-12.89-1.77-19.19-1.82-2.76-.8-7.65-.53-8.16-.56-13.55-.76-8.75.24-18.88.82,5.07-.33-38.48,1.35-33.44,1.75-19.78,1.29-39.55,2.93-59.19,4.35-44.7,3.24-89.45,6.42-134.29,6.48-4.57,0-9.19.02-13.76-.08-.65-.11-8.08-.49-9.48-.56-12.08-.64-24.17-1.46-36.23-2.18-24.39-1.51-48.82-2.61-73.25-2.5-25.54.08-51,2.56-76.5,4-2.59.14-5.35.04-7.93.43-.56.08-.99.15-1.34.22-.19-.02-.33-.04-.54-.06-5.24-.5-10.45-1.01-15.66-1.59-13.42-1.5-27.27-2.52-40.81-1.26-11.62-2.39-17.92-5.09-29.79-6.95-22.2-8.31-44.32-16.08-66.73-22.27-10.26-6.66-19.63-15.09-32.56-16.72-.45-.33-.82-.72-1.26-1.03-5.16-3.72-11.47-7.15-18.05-9.27-4.9-3.19-9.9-5.84-15.31-7.69-.06-.08-.06-.16-.12-.24-9.2-17.63-12.97-22.9-15.16-44.26-3.52-34.44-1.47-65.07,9.78-97.35,1.08-3.07.4-6.4,2.03-9.82,4.53-9.6,17.17-6.12,25.73-7.47,7.38-1.16,16.04-4.13,24.24-5,5.09-.52,339.81-2.18,347.77-4.28l8.56,10.44s-310.21,4.03-311.26,4.1c-22.13,1.34-49.55,2.26-71.03,7.41-10.81,2.58-8.25,5.98-11.16,13.08-.32.74-.61,1.46-.96,2.18-1.72,3.89-3.62,7.43-4.86,11.89-4.12,14.67-6.15,55.67-2.75,69.99.89,3.69,7.73,7.58,8.33,10.72.45,2.25-5.64,6.97-4.29,14.46,1.91,10.38,9.82,15.09,17.67,19.69,12.59,7.32,12.17,3.96,23.72,7.3,4.3,1.25,8.37,7.23,11.98,9.56,4.45,2.86,28.82,13.99,32.99,13.49,2.21-.26,3.16-1.35,3.22-3.57-1.05-28.6-11.84-56-10.49-84.74.41-8.64,5.19-17.42,6.81-24.84,2.19-10.04-2.39-5.95-7.14-8.28-1.19-.6-1.81-2.38-3.63-3.36-13.67-7.43-28.98-14.39-43.66-20.21-8.53-3.39-19.11-3.22-25.53-11,6.74-1.67,13.97-2.58,20.9-2.34,12.97.44,24.87,8.3,37.49,11.37l27.97,20.44c4.75,1.71,17.57-8.09,21.44-2.96,5.16,6.88-24.09,28.51-17.76,39.83,1.5,2.69,6.1,4.06,7.87.69,4.12-7.8,5.86-19.36,10.63-26.49,1.45-2.14,11.51-13.07,13.49-14.83,9.06-8.07,82.58-9.83,98.26-9.62,26.15.38,57.13,5.55,82.63,3.23.94-.09,2.69-.33,4.35-.7,16.93,2.02,33.95,3.26,51.22,3.13,26.21-.22,52.41-1.87,78.56-3.25,12.19-.64,24.4-1.33,36.62-1.83,1.75-.08,11.69-.21,11.69-.35,6.85.24,13.71.81,20.52,1.46,19.11,1.85,126.25,6.25,159.51,8.51ZM778.75,1011.74c.26-4.66-.23-7.26-5.3-8.09-16.61-2.74-37.97.67-55.13.8-15.78.12-31.62.16-47.49.06-24.25-.14-48.52-.62-72.62-1.82-51.03-2.57-101.53-2.16-152.95-.01-13.73.57-25.98-.06-39.07.34-40.03,1.22-80.3,2.59-120.14,3.78-12.74.39-6.36,4.25-9.62,9.44-2.38,3.78-11.49,2.44-7.29,7.72,1.89,2.35,10.13.43,13.6.71,127.24,9.86,259.21-7.17,387.96-6.21,8.46.07,16.9.21,25.32.44,14.26.38,41.02,1,53.96,4.71,3.17.89,9.89,6.84,6.17,10.22-6.29,5.76-37.74-1.55-47.41-1.97-109.87-5.02-222.1,6.58-332.16,7.68-16.72.16-34.85-2.03-51.33-1.93-19.21.1-38.52,2.35-57.76,2.53-5.78,6.31-3.61,16.54.92,23.02,106.53-3.49,212.99-10.95,319.54-13.97,32.15-.94,87.36-5.55,116.95,2.38,6.73,1.82,14.41,4.4,7.86,11.15-8.85,9.09-14.13,1.32-23.64-1-5.3-1.28-14.19-2.38-19.68-2.55-56.04-1.6-119.87,4.96-176.86,6.43-34.15.89-68.17-.64-102.63,1.64-34.69,2.29-70.17,8.56-105.09,7.37-4.22-.14-12.9-4.01-14.93-.81-.79,1.2,2.79,18.8,3.64,21.6,1.07,3.41,9.09,20.85,10.93,23.39,6.1,8.49,21.22,1.92,29.43,1.7,50.35-1.4,102.71,9.33,153.08,9.74,74.54.6,149.69-10.39,224.14-4.32,29.91-2,60.2.77,89.89-1.9,4.61-3.36-6.12-10.17-8.29-13.64-2.38-3.87-3.05-11.63-8.62-11.76-1.71-.06-3.74,2.87-7.71,2.93-4,.07-8.6-3.25-13.72-3.59-27.46-1.84-63.44-.22-91.85-.12-8.13.03-51.53,3.99-54.62-.47-.55-.79-.81-6.83-.33-7.72.63-1.11,9.05-3.18,11.09-3.43,15.78-2.01,37.77.9,54.08.46,29.08-.75,57.45-4.06,86.31-5.29,5.67-.22,11.41,2.53,17.01.15,1.54-1.2,2.66-33.44,3.9-39.14,1.8-8.32,10.04-22.65,10.45-30.64Z" fill="#fb97aa"/>
        <path d="M798.64,981.77c9.03.61,12.53,1.05,7.32,1.25-.05,0-2.64-.43-7.32-1.25Z" fill="#2a5945"/>
        <path d="M773.46,1003.65c5.06.83,5.55,3.43,5.3,8.09-.41,7.99-8.65,22.32-10.45,30.64-1.24,5.7-2.35,37.94-3.9,39.14-5.6,2.38-11.34-.37-17.01-.15-28.87,1.23-57.24,4.54-86.31,5.29-16.31.44-38.3-2.47-54.08-.46-2.04.25-10.47,2.32-11.09,3.43-.48.89-.21,6.93.33,7.72,3.09,4.46,46.48.5,54.62.47,28.4-.1,64.39-1.71,91.85.12,5.12.35,9.73,3.66,13.72,3.59,3.97-.06,6.01-2.99,7.71-2.93,5.57.14,6.23,7.89,8.62,11.76,2.18,3.47,12.91,10.28,8.29,13.64-29.7,2.67-59.98-.1-89.89,1.9-74.45-6.07-149.6,4.92-224.14,4.32-50.37-.41-102.73-11.14-153.08-9.74-8.21.22-23.33,6.8-29.43-1.7-1.84-2.54-9.87-19.98-10.93-23.39-.85-2.8-4.43-20.4-3.64-21.6,2.02-3.2,10.71.67,14.93.81,34.92,1.19,70.4-5.08,105.09-7.37,34.47-2.28,68.48-.76,102.63-1.64,56.99-1.47,120.82-8.03,176.86-6.43,5.49.17,14.38,1.27,19.68,2.55,9.51,2.32,14.79,10.09,23.64,1,6.55-6.74-1.13-9.33-7.86-11.15-29.59-7.93-84.8-3.32-116.95-2.38-106.55,3.03-213.01,10.49-319.54,13.97-4.52-6.48-6.7-16.71-.92-23.02,19.24-.19,38.54-2.43,57.76-2.53,16.48-.09,34.61,2.09,51.33,1.93,110.06-1.1,222.29-12.7,332.16-7.68,9.67.42,41.12,7.73,47.41,1.97,3.72-3.38-3-9.33-6.17-10.22-12.95-3.71-39.7-4.33-53.96-4.71-8.42-.23-16.85-.38-25.32-.44l.12-13.95c15.87.1,31.71.06,47.49-.06,17.16-.12,38.52-3.54,55.13-.8ZM551.14,1090.03c-1.1-11.09-21.48-4.82-30.49-5.6-6.73-.55-13.79-5.67-19.44-5.67-3.51,0-6.7,2.64-10.54,3.08-59.84,6.95-121.68-4.26-179.66,3.69-2.61.36-16.44,4.2-16.67,5.64-1.92,11.22,22.12,5.93,29.45,5.97,64.12.22,130.24-.89,194.41-4.38,2.37-.13,4.69.96,6.74.84,8.36-.52,17.73-3.15,26.2-3.57Z" fill="#fff9cb"/>
        <path d="M618.5,971.8c0,.13-9.93.27-11.69.35-12.22.5-24.44,1.2-36.62,1.83-26.16,1.38-52.36,3.03-78.56,3.25-17.27.13-34.29-1.11-51.22-3.13-1.66.37-3.41.61-4.35.7-25.49,2.32-56.48-2.85-82.63-3.23-15.69-.21-89.21,1.55-98.26,9.62-1.98,1.76-12.04,12.69-13.49,14.83-4.77,7.13-6.51,18.69-10.63,26.49-1.77,3.37-6.37,2.01-7.87-.69-6.33-11.32,22.92-32.94,17.76-39.83-3.87-5.13-16.69,4.67-21.44,2.96l-27.97-20.44c-12.62-3.07-24.53-10.94-37.49-11.37-6.93-.24-14.16.67-20.9,2.34l-2.37-1.09c.35-.72.64-1.43.96-2.18,2.91-7.1.36-10.5,11.16-13.08,21.48-5.15,48.9-6.07,71.03-7.41,1.05-.07,311.26-4.1,311.26-4.1,0,0,31.44,9.42,76.47,18.3,70.74,13.98,169.3,31.11,196.89,35.84-33.26-2.26-140.4-6.66-159.51-8.51-6.81-.65-13.67-1.22-20.52-1.46Z" fill="#fff9cb"/>
        <path d="M670.84,1004.5l-.12,13.95c-128.75-.95-260.72,16.07-387.96,6.21-3.47-.28-11.71,1.64-13.6-.71-4.2-5.28,4.91-3.94,7.29-7.72,3.26-5.2-3.12-9.05,9.62-9.44,39.84-1.19,80.11-2.56,120.14-3.78,13.09-.41,25.33.22,39.07-.34,51.42-2.15,101.92-2.56,152.95.01,24.11,1.2,48.37,1.68,72.62,1.82Z" fill="#fff9cb"/>
        <path d="M520.66,1084.43c9.01.77,29.38-5.49,30.49,5.6-8.47.42-17.84,3.04-26.2,3.57-2.05.12-4.37-.97-6.74-.84-64.18,3.49-130.29,4.6-194.41,4.38-7.33-.03-31.37,5.25-29.45-5.97.23-1.44,14.07-5.29,16.67-5.64,57.98-7.95,119.82,3.26,179.66-3.69,3.85-.44,7.03-3.09,10.54-3.08,5.65,0,12.71,5.12,19.44,5.67Z" fill="#fb97aa"/>
        <path d="M525.18,927.63l-8.56-10.44s.03.03.06.02c5.96,4.07,8.51,10.42,8.51,10.42Z" fill="#2a5945"/>
        <path d="M205.96,990.06c4.75,2.33,9.33-1.76,7.14,8.28-1.62,7.42-6.41,16.2-6.81,24.84-1.35,28.74,9.44,56.13,10.49,84.74-.07,2.22-1.02,3.31-3.22,3.57-4.17.51-28.54-10.63-32.99-13.49-3.61-2.33-7.69-8.32-11.98-9.56-11.55-3.34-11.13.02-23.72-7.3-7.85-4.61-15.76-9.32-17.67-19.69-1.35-7.48,4.74-12.21,4.29-14.46-.6-3.14-7.44-7.03-8.33-10.72-3.4-14.31-1.37-55.32,2.75-69.99,1.24-4.46,3.14-8,4.86-11.89l2.37,1.09c6.42,7.78,17.01,7.61,25.53,11,14.69,5.82,29.99,12.78,43.66,20.21,1.83.97,2.44,2.76,3.63,3.36Z" fill="#fff9cb"/>
      </g>
      <path d="M435.16,790.02l309.29-106.98c-20.69-4.64-41.4-5.49-62.46-7.34-20.09-1.78-42.42-1.99-61.93-4.64-22.09-3.01-40.83-8.67-64.31-8.99-4.79-.09-14.9.16-23.15.73-27.71-3.84-55.54-6.84-83.49-5.99-1.11.05-2.2.11-3.32.21-12.37-1.14-26.15-1.93-34.42-1.74-.43,0-.84.05-1.25.07-10.39-5.17-22.61-6.89-35.29-4.19-27.55,5.9-77.41,22.01-101.37,35.59-26.95,15.28-52.65,19.96-81.01,32.41-24.22,10.61-33.5,9.46-57.44,20.69-.03.02-.06.05-.11.07-.28.06-.55.15-.8.21-2.62.7-5.26,1.53-7.86,2.23l-.17.07c-4.61,1.22-8.92,3.34-12.81,6.11-9.12,6.46-18.73,9.62-33.53,14.84-4.27,1.63,355.44,26.64,355.44,26.64ZM437.25,798.3s-389.58-23.41-395.31-30.01c-14.51-16.68-15.31-59.1,1.74-69.41,24.56-14.84,46.66-32.19,56.97-36.43,8.69-3.6,117.37-69.87,181.96-102.91,8.93-4.58,18.3-11.49,28.14-12.68,6.75-.82,20.58-3.95,25.69-3.49,4.01.38,33.5-5.1,37.74-4.56,33.01,4.26,65.21,3.21,98.41,4.64,75.36,3.21,153.61,15.22,228.25,26.64,29.42,4.48,58.77,8.85,87.94,14.99,9.43,4.66,4.45,20.48-1.55,25.39-4.36,3.6-14.74,2.69-18.36,4.31-.42.19-4.6,5.75-4.87,6.78-1.66,6.19-4.2,26.06-3.85,32.26.46,8,11.03,10.71,14.51,17.71,7.92,1.3,36.57,3.12,40.01,10.28.68,1.38.18,2.97.07,4.42l-26.28-.59c-7.18-.67-351.2,112.64-351.2,112.64ZM744.28,623.54c5.49-2.81,5.37-11.97-.44-13.65l-351.4-26.34c-2.37-.18-6.28,7.22-1.43,10.05,61,5.9,122.56,9.73,183.78,14.51,48.51,3.77,98.25,5.66,146.6,12.29,6.16.87,17.71,5.77,22.89,3.15ZM727.96,641.19c4.78.47,9.49,4.94,12.99-1.71-1.15-2.04-20.58-6.52-24.5-7.25-47.51-8.79-99.91-8.84-147.92-12.41-54.74-4.08-117.14-12.71-171.11-12.93-11.31-.06-10.09,8.48-3.38,9.03,111.06,9.25,222.92,14.6,333.93,25.27ZM700.77,587.73l14.39-1.63c-14.6-6.02-30.78-4.09-46.22-6.23-57.68-7.87-114.58-18.93-172.95-22.36-39.55-2.34-79.12-3.68-118.69-3.59-8.75,10.88,13.42,6.58,19.5,6.88,101.87,4.63,202.81,17.4,303.97,26.93ZM322.93,577.14c1.29-2.75,11.38-11.98,5.23-14.1-9.08-3.17-17.21,18.26-18.48,25.07-1.02,5.66-1.62,14.07-1.49,19.85.28,9.99,4.94,18.65,4.49,28.28,2.91.6,5.13.25,5.69-2.96-.13-16.99-2.79-40.47,4.56-56.14ZM293.81,661.85c4.25-2.2,10.78-1.11,10.87-9.2.02-2.81-6.86-13.29-8.36-18.09-4.33-13.78-4.5-29.5-3.24-43.79.26-2.69,4.28-12.7-2.15-12.83-2.81-.05-17.86,5.65-21.63,7.15-50.09,20.1-82.26,42.25-128.17,71.95-20.14,9.7-40.06,19.31-59.39,29.72-13.35,10.07-30.99,9.94-34.21,29.77-1.13,7.12,3.14,37.22,10.11,41.1,9.62,5.35,37.15-9.67,45.69-14.18,11.73-6.19,36.13-15.6,48.63-21.59,49.91-23.96,65.52-20.79,115-46.59,8.85-4.62,17.91-8.81,26.87-13.42Z" fill="#fb97aa"/>
      <path d="M744.45,683.04l-309.29,106.98s-359.7-25.01-355.44-26.64c14.8-5.23,24.4-8.38,33.53-14.84,3.89-2.77,8.19-4.88,12.81-6.11l.17-.07c2.6-.7,5.23-1.53,7.86-2.23.25-.06.53-.15.8-.21.06-.02.08-.05.11-.07,23.94-11.23,33.22-10.07,57.44-20.69,28.36-12.44,54.06-17.12,81.01-32.41,23.95-13.59,73.82-29.7,101.37-35.59,12.69-2.7,24.9-.98,35.29,4.19.41-.02.82-.07,1.25-.07,8.27-.19,22.05.6,34.42,1.74,1.12-.11,2.21-.16,3.32-.21,27.95-.86,55.78,2.15,83.49,5.99,8.25-.57,18.37-.82,23.15-.73,23.48.32,42.23,5.98,64.31,8.99,19.51,2.65,41.84,2.87,61.93,4.64,21.06,1.85,41.77,2.7,62.46,7.34Z" fill="#fff9cb"/>
      <path d="M743.84,609.88c5.8,1.68,5.93,10.84.44,13.65-5.18,2.62-16.73-2.28-22.89-3.15-48.35-6.63-98.09-8.52-146.6-12.29-61.22-4.78-122.78-8.61-183.78-14.51-4.85-2.83-.94-10.22,1.43-10.05l351.4,26.34Z" fill="#fff9cb"/>
      <path d="M740.95,639.48c-3.5,6.64-8.21,2.17-12.99,1.71-111.01-10.68-222.87-16.03-333.93-25.27-6.7-.56-7.93-9.1,3.38-9.03,53.98.23,116.37,8.86,171.11,12.93,48.01,3.57,100.41,3.63,147.92,12.41,3.93.73,23.36,5.22,24.5,7.25Z" fill="#fff9cb"/>
      <path d="M715.16,586.1l-14.39,1.63c-101.15-9.53-202.09-22.3-303.97-26.93-6.07-.29-28.24,4-19.5-6.88,39.57-.09,79.14,1.25,118.69,3.59,58.37,3.43,115.27,14.49,172.95,22.36,15.44,2.13,31.61.2,46.22,6.23Z" fill="#fff9cb"/>
      <path d="M328.15,563.05c6.15,2.11-3.94,11.35-5.23,14.1-7.35,15.67-4.69,39.16-4.56,56.14-.57,3.21-2.78,3.56-5.69,2.96.45-9.63-4.21-18.3-4.49-28.28-.14-5.78.47-14.18,1.49-19.85,1.27-6.81,9.4-28.24,18.48-25.07Z" fill="#fff9cb"/>
      <path d="M304.68,652.65c-.09,8.09-6.62,7-10.87,9.2-8.96,4.61-18.02,8.8-26.87,13.42-49.48,25.81-65.09,22.63-115,46.59-12.5,6-36.9,15.4-48.63,21.59-8.54,4.5-36.07,19.53-45.69,14.18-6.97-3.88-11.24-33.99-10.11-41.1,3.22-19.82,20.86-19.69,34.21-29.77,19.33-10.41,39.25-20.02,59.39-29.72,45.9-29.7,78.08-51.85,128.17-71.95,3.77-1.5,18.82-7.2,21.63-7.15,6.43.13,2.41,10.15,2.15,12.83-1.26,14.28-1.08,30,3.24,43.79,1.51,4.8,8.39,15.28,8.36,18.09Z" fill="#fff9cb"/>
      <path d="M319.62,871.66l352.76-22.06c5.72.03,12.18.16,19.87.46,7.7.3,16.2-2.7,16.2-2.7l.3-9.23c16.96.49,33.92.86,50.9,1.08.81.03,1.59-.27,2.24-.76,11.91-9.29,21.41-13.15,23.65-29.92,2.08-15.55-.95-22.79-3.38-36.43-.7-3.83.38-8.24-.59-11.56-1.35-4.54-5.81-5.43-6.53,1.03-1.24,10.96,1.81,24.63,1.46,36.56-.16,5.97-1.78,12.02-1.76,18.12.03,1.35-.76,2.62-2,3.13-3.83,1.62-6.05,5.64-9.77,7.07-29.54,11.37-48.87-.84-76.44-3.19l1.08-14.2c10.18.81,20.31,1.54,30.13,1.81,20.49.59,22.79.62,22.3-20.98-.19-8.91-2.92-23.63-5.45-32.02-.43-1.43-2.81-1.4-3.27-2.38-2.35-5.08-1.67-9.13-6.83-13.47-6.97-5.83-8.83-2.57-14.88-2.94-19.85-1.19-39.45-3.24-59.43-2.43-1.62.05-5-1.03-4.7,1.32,14.07,1.13,30.54,1.38,41.07,11.56,2.24,2.13.84,5.94-2.27,6.1-2.38.14-4.81,0-5.81-.03-5.45-.16-11.04-.68-16.69-1.4-20.52-2.65-41.91-8.07-61.57-9.45-24.49-1.67-50.87,1-75.63.05-33.62-1.3-67.59-5.21-101.15-6.86-15.39-.76-30.97-.95-46.39-1.05-1.27-.03-2.43.65-3.08,1.73l-1.51,2.48c-.54.95-.57,2.08-.16,3.11,1.3,3.32,1.89,9.67,3.08,13.5.7,2.21,3.27,3.13,5.24,1.97,1.86-1.11,3.43-2.48,6.26-2.84,38.42-4.86,94.08,1.38,133.66,2.81,41.04,1.49,82.38,3.08,122.94,5.35,3.11.16,10.75-.54,16.9.22,6.7.84,11.67,3.38,7.37,10.61-2.3,3.89-17.66,2.84-30.3,1.54-6.8-.7-12.83-1.49-15.55-1.62-45.53-2.24-90.86-4.24-136.39-5.37-30.19-.73-71.99-4.75-101.31-1.35-3,.35-5.83,1.22-7.61,3.56-.54.68-.84,1.54-.76,2.43.16,2.4-.19,6.21-.54,10.23l-14.61-1c.92-14.5-2.73-32.19-8.67-43.07-.54-.97-4.78-7.83-5.45-8.72-6.72-8.53-21.09-8.99-31.05-7.83-17.36,2.08-39.13,11.45-56.19,16.69-26.41,8.13-53.74,14.82-80.39,22.25-22.14,6.16-44.58,11.21-66.05,19.68-.95.38-1.73,1.11-2.05,2.05-1.76,4.81,2.7,9.86,2.75,14.07.08,8.96-4.67,19.17-5.27,28.41-.14,1.97,1.4,3.67,3.4,3.75,5.35.27,15.2-.16,17.31-.41,1.13-.14,2.3-.27,3.46-.43l1.73,12.18c-6.72.95-13.42,1.94-20.12,3.02-3.75.62-10.26.03-15.26,1.03-4.43.86-3.16,7.53,1.32,6.97,5.18-.68,10.31-2.05,15.42-2.46,20.36-1.67,45.8-3.38,65.75-7.16,6.02-1.16,11.23-4.19,16.74-4.86,10.21-1.3,15.36.86,25.33-2.3,17.93-5.7,44.28-6.75,63.78-9.86,2.54-.41,5.16-.14,7.75-.14l-.05,9.91h-1.76c-2.03,0-77.39,11.48-82.47,13.1-.49.16-.86.27-1.22.38-3.11.49-6.24,1-9.34,1.49-15.28,2.4-30.43,5.51-45.36,9.56-1.86.51-3.73,1-5.59,1.49-.62.16-1.16.3-1.65.41-6.7,1.08-49.31,2.81-49.31,2.81l221.42,5.4ZM333.12,877.06s-288.33-4.83-288.68-6.7c-1.86-9.94-10.29-21.17-3.13-29.76,3.13-3.78,11.21.11,14.91.05,4.7-.11,17.55-.73,21.49-1.46,15.74-2.94,19.47-29.19,16.63-42.18-1.16-5.27-10.1-6.75-15.34-7.61-11.72-1.94-21.28-.3-32.32-.08-11.13.19-3.19-10.31-3.24-18.25,0-3.35-.32-5.78-.84-7.53.35-.27.73-.49,1.03-.7,2.3-1.46,4.7-2.78,7.02-4.19.49-.27.89-.51,1.24-.73,9.83-4.48,19.79-8.48,29.97-12.04,25.87-9.13,52.11-17.39,78.33-25.46,25.65-7.88,51.44-14.8,76.9-23.28,12.15-4.08,24.84-5.97,36.83-10.5,4.4-1.65,8.69-3.48,13.07-5.18.7.38,1.38.46,2.05-.16.05-.05.08-.22.08-.43,2.59-.27,5.21-.65,7.86-1.22-7.24,1.54-1.43.65,2.67.43,3.83-.19,7.64-.19,11.48-.16,6.86.03,13.72.35,20.55.08,14.91-.59,27.03-.05,41.93-.05,5.4,0,9.61-2.7,13.5-2.7,5.4,0,15.53-.08,16.2,0,8.61,1.03,5.78-.41,14.45.27,19.55,1.49,39.15,2.57,58.76,3.38,17.01.7,34.02,1.24,51.03,2,3.59.16,7.18.32,10.75.49,1.86.11,3.21.19,4.16.24.22.03.41.03.68.05,8.13.68,16.26,1.54,24.38,2.43,34.56,3.75,70.72,1.94,104.45,4.89,2.24.19,4.4-.54,6.51-1,.27-.05.54-.08.84-.08,15.47.78,30.76.54,46.34-.68,8.26-.65,14.99-3.97,24.38-2.46,1.05.16,13.04,6.62,14.15,7.45,12.96,9.56,35.43,47.79,37.56,63.7.89,6.56-.57,13.8.43,19.82.65,3.86,3.75,8.13,4,13.64.41,10.64-4.89,25.79-8.48,36.05-.89,2.51-2.73,4.24-3.94,6.86-2.57,5.64-6.75,10.45-11.91,13.91-.38.24-448.73,28.87-448.73,28.87ZM731.24,712.37c3.86-.51,5.89-7.07,2-8.78-5.32-2.32-31.62-.35-39.88-.65-113.25-3.89-226.42-12.58-340.07-10.91h-.32l-27.46,2.73c3.08.38,5.81,2.3,8.88,2.62,22.09,2.35,42.77,1.57,64.64,1.4,93.29-.7,186.4,11.13,279.48,13.61,17.55.46,35.18-.49,52.74-.03ZM620.53,733.95c1.62-.08,5,1.03,4.7-1.35l-61.51-2.62c-2.59.24-4.46-2.51-6.75-2.7-28.95-2.51-58.16-4.59-87-.08-.3,2.38,3.08,1.27,4.73,1.35,5.37.22,10.8-.24,16.2,0,28.03,1.35,55.9,4.35,83.65,5.45,14.5.59,31.46.54,45.99-.05ZM281.25,707.92c5.94-1.86,19.58-4.94,19.14-11.85-.08-1.51-1.3-2.81-2.81-3.08-5.45-1-8.13,3.43-11.8,4.62-28.22,9.21-60.27,14.99-89.14,22.93-38.37,10.53-75.63,22.25-113.57,34.94-4.94,1.65-18.44,3.02-21.55,8.15-5.16,8.61,6.75,4.62,11.5,3.4,56.6-14.77,112.49-35.86,168.85-49.87,12.91-3.21,26.46-5.18,39.37-9.23Z" fill="#fb97aa"/>
      <path d="M782.17,772.1c2.43,13.64,5.45,20.87,3.38,36.43-2.24,16.77-11.75,20.63-23.65,29.92-.65.49-1.43.78-2.24.76-16.98-.22-33.94-.59-50.9-1.08-113.38-3.32-226.55-12.02-340.1-12.56-.43,0-.92-.11-1.35-.27-5.89-2.46-4.67-4.48,2.03-5,31.73-2.4,64.29.03,95.86.11,71.75.22,146.11-.95,217.48,2.59,1.3.05,2.59.16,3.86.27,27.57,2.35,46.9,14.55,76.44,3.19,3.73-1.43,5.94-5.45,9.77-7.07,1.24-.51,2.03-1.78,2-3.13-.03-6.1,1.59-12.15,1.76-18.12.35-11.94-2.7-25.6-1.46-36.56.73-6.45,5.18-5.56,6.53-1.03.97,3.32-.11,7.72.59,11.56Z" fill="#fff9cb"/>
      <path d="M740.05,789.9c.49,21.6-1.81,21.58-22.3,20.98-9.83-.27-19.95-1-30.13-1.81-11.64-.86-23.33-1.84-34.64-2.27-69.23-2.7-138.63-2.78-207.92-4.08l.14-7.48c50.33.95,103.61-1.35,152.43-.59,11.1.16,23.49,2.65,35.13,1.49,10.83-1.08,9.56-11.15,4-12.26l.73-6.51c12.64,1.3,28,2.35,30.3-1.54,4.29-7.24-.68-9.77-7.37-10.61l1.4-11.02c5.64.73,11.23,1.24,16.69,1.4,1,.03,3.43.16,5.81.03,3.11-.16,4.51-3.97,2.27-6.1-10.53-10.18-27-10.42-41.07-11.56-.3-2.35,3.08-1.27,4.7-1.32,19.98-.81,39.59,1.24,59.43,2.43,6.05.38,7.91-2.89,14.88,2.94,5.16,4.35,4.48,8.4,6.83,13.47.46.97,2.84.95,3.27,2.38,2.54,8.4,5.27,23.11,5.45,32.02Z" fill="#fff9cb"/>
      <path d="M733.24,703.6c3.89,1.7,1.86,8.26-2,8.78-17.55-.46-35.18.49-52.74.03-93.08-2.48-186.18-14.31-279.48-13.61-21.87.16-42.56.95-64.64-1.4-3.08-.32-5.81-2.24-8.88-2.62l27.46-2.73h.32c113.65-1.67,226.82,7.02,340.07,10.91,8.26.3,34.56-1.67,39.88.65Z" fill="#fff9cb"/>
      <path d="M708.75,838.12l-.3,9.23-36.08,2.24c-22.22-.11-33.4,1.35-63.29.49-.35-.03-.7-.08-1.03-.22-6.48-2.3-15.15-2.3-22.57-2.3-1.03,0-2.81-.16-3.32-.19-.08-.03-.19-.03-.27-.03l-86.76-5.4c-18.71,0-43.37-.62-63.7-1.3-19.82-.65-73.2-4.46-77.34-5.24-6.78-1.24-14.15-1.62-21.03-1.24-6.94.35-13.72,2.11-20.63,2.86-2.11.22-12.29.05-17.55,0l.05-9.91c1.67,0,3.35-.11,5-.62,4.29-1.35,7.97-5.16,1.86-7.53-8.4-3.29-36.37,4.51-46.2,6.4-39.61,7.67-80.71,11.72-121.38,17.5l-1.73-12.18c17.44-2.43,36.26-7.97,53.41-10.21,10.23-1.32,21.17-.46,30.81-1.59,25.19-3,52.76-11.58,78.55-14.61,19.36-2.27,39.23-2.05,58.68-3.43,2.97-1.03,4.13-2.94,5-5.83.95-3.24,1.51-6.89,1.76-10.77l14.61,1c-.57,6.94-1.13,14.45.81,16.23,3.56,3.24,8.02-.27,12.18-.14,18.9.59,37.83,1.05,56.76,1.38,69.29,1.3,138.68,1.38,207.92,4.08,11.31.43,23.01,1.4,34.64,2.27l-1.08,14.2c-1.27-.11-2.57-.22-3.86-.27-71.37-3.54-145.73-2.38-217.48-2.59-31.57-.08-64.13-2.51-95.86-.11-6.7.51-7.91,2.54-2.03,5,.43.16.92.27,1.35.27,113.55.54,226.71,9.23,340.1,12.56Z" fill="#fb97aa"/>
      <path d="M672.38,849.6l36.08-2.24s-8.51,3-16.2,2.7c-7.7-.3-14.15-.43-19.87-.46Z" fill="#2a5945"/>
      <path d="M672.38,849.6l-352.76,22.06-221.42-5.4s42.61-1.73,49.31-2.81c.49-.11,1.03-.24,1.65-.41,1.86-.49,3.73-.97,5.59-1.49,14.93-4.05,30.08-7.16,45.36-9.56,3.11-.49,6.24-1,9.34-1.49.35-.11.73-.22,1.22-.38,5.08-1.62,80.44-13.1,82.47-13.1h1.76c5.27.05,15.45.22,17.55,0,6.91-.76,13.69-2.51,20.63-2.86,6.89-.38,14.26,0,21.03,1.24,4.13.78,57.52,4.59,77.34,5.24,20.33.68,44.99,1.3,63.7,1.3l86.76,5.4c.08,0,.19,0,.27.03.51.03,2.3.19,3.32.19,7.43,0,16.09,0,22.57,2.3.32.14.68.19,1.03.22,29.89.86,41.07-.59,63.29-.49Z" fill="#fff9cb"/>
      <path d="M661.79,754.2l-1.4,11.02c-6.16-.76-13.8-.05-16.9-.22-40.56-2.27-81.9-3.86-122.94-5.35-39.59-1.43-95.24-7.67-133.66-2.81-2.84.35-4.4,1.73-6.26,2.84-1.97,1.16-4.54.24-5.24-1.97-1.19-3.83-1.78-10.18-3.08-13.5-.41-1.03-.38-2.16.16-3.11l1.51-2.48c.65-1.08,1.81-1.76,3.08-1.73,15.42.11,31,.3,46.39,1.05,33.56,1.65,67.53,5.56,101.15,6.86,24.76.95,51.14-1.73,75.63-.05,19.66,1.38,41.04,6.8,61.57,9.45Z" fill="#fff9cb"/>
      <path d="M636.74,783.87c5.56,1.11,6.83,11.18-4,12.26-11.64,1.16-24.03-1.32-35.13-1.49-48.82-.76-102.1,1.54-152.43.59-14.8-.27-29.35-.84-43.45-1.84-1.46-.08-6.89-.84-7.29-1.49-2.78-4.43,8.53-7.43,11.5-7.91,23.65-3.92,50.44-1.51,74.09-1.4,52.3.24,104.31,1.86,156.7,1.27Z" fill="#fb97aa"/>
      <path d="M637.46,777.37l-.73,6.51c-52.38.59-104.39-1.03-156.7-1.27-23.65-.11-50.44-2.51-74.09,1.4-2.97.49-14.28,3.48-11.5,7.91.41.65,5.83,1.4,7.29,1.49,14.1,1,28.65,1.57,43.45,1.84l-.14,7.48c-18.93-.32-37.86-.78-56.76-1.38-4.16-.14-8.61,3.38-12.18.14-1.94-1.78-.35-9.29.22-16.23.35-4.02-.32-7.83-.49-10.23-.08-.89.22-1.76.76-2.43,1.78-2.35,4.62-3.21,7.61-3.56,29.32-3.4,71.12.62,101.31,1.35,45.53,1.13,90.86,3.13,136.39,5.37,2.73.14,8.75.92,15.55,1.62Z" fill="#fff9cb"/>
      <path d="M625.23,732.6c.3,2.38-3.08,1.27-4.7,1.35-14.53.59-31.48.65-45.99.05-27.76-1.11-55.63-4.1-83.65-5.45-5.4-.24-10.83.22-16.2,0-1.65-.08-5.02,1.03-4.73-1.35,28.84-4.51,58.06-2.43,87,.08,2.3.19,4.16,2.94,6.75,2.7l61.51,2.62Z" fill="#fff9cb"/>
      <path d="M352.02,741.18c5.94,10.88,9.59,28.57,8.67,43.07-.24,3.89-.81,7.53-1.76,10.77-.86,2.89-2.03,4.81-5,5.83-19.44,1.38-39.32,1.16-58.68,3.43-25.79,3.02-53.36,11.61-78.55,14.61-9.64,1.13-20.58.27-30.81,1.59-17.15,2.24-35.97,7.78-53.41,10.21-1.16.16-2.32.3-3.46.43-2.11.24-11.96.68-17.31.41-2-.08-3.54-1.78-3.4-3.75.59-9.23,5.35-19.44,5.27-28.41-.05-4.21-4.51-9.26-2.75-14.07.32-.95,1.11-1.67,2.05-2.05,21.47-8.48,43.91-13.53,66.05-19.68,26.65-7.43,53.98-14.12,80.39-22.25,17.07-5.24,38.83-14.61,56.19-16.69,9.96-1.16,24.33-.7,31.05,7.83.68.89,4.91,7.75,5.45,8.72ZM309.11,755.36c2.57-4.54-4.94-6.64-8.51-6.62-13.42.16-40.69,8.48-54.68,11.61-20.09,4.48-39.59,9.99-59.43,14.82-18.06,4.37-41.91,5.91-58.43,13.12-6.83,2.97-11.61,6.37-7.64,14.37,2.92,2.03,16.66-5.72,20.55-6.86,7.91-2.27,17.63-2.38,25.54-4.16,38.78-8.75,79.98-23.84,119.16-29.35,3.81-.51,7.8.49,11.85-.32,1.46-.3,11.23-6.02,11.58-6.62ZM303.98,786.03c1.22-1.38,1.35-4,2.57-5.54-2.19-3.24-5.32-1.84-8.32-1.62-45.66,3.4-95.51,13.64-140.06,24.68-3.86.95-29.27,4.51-16.8,12.61,2.65,1.7,17.15-.7,21.12-1.54,28.03-5.94,56.14-13.29,84.41-18.2,10.83-1.89,51.6-4.19,57.08-10.4Z" fill="#fff9cb"/>
      <path d="M300.61,748.74c3.56-.03,11.07,2.08,8.51,6.62-.35.59-10.13,6.32-11.58,6.62-4.05.81-8.05-.19-11.85.32-39.18,5.51-80.39,20.6-119.16,29.35-7.91,1.78-17.63,1.89-25.54,4.16-3.89,1.13-17.63,8.88-20.55,6.86-3.97-7.99.81-11.4,7.64-14.37,16.53-7.21,40.37-8.75,58.43-13.12,19.85-4.83,39.34-10.34,59.43-14.82,13.99-3.13,41.26-11.45,54.68-11.61Z" fill="#fb97aa"/>
      <path d="M306.55,780.5c-1.22,1.54-1.35,4.16-2.57,5.54-5.48,6.21-46.26,8.51-57.08,10.4-28.27,4.91-56.38,12.26-84.41,18.2-3.97.84-18.47,3.24-21.12,1.54-12.48-8.1,12.93-11.67,16.8-12.61,44.55-11.04,94.4-21.28,140.06-24.68,3-.22,6.13-1.62,8.32,1.62Z" fill="#fb97aa"/>
      <path d="M301.8,818.98c6.1,2.38,2.43,6.18-1.86,7.53-1.65.51-3.32.62-5,.62-2.59,0-5.21-.27-7.75.14-19.5,3.11-45.85,4.16-63.78,9.86-9.96,3.16-15.12,1-25.33,2.3-5.51.68-10.72,3.7-16.74,4.86-19.95,3.78-45.39,5.48-65.75,7.16-5.1.41-10.23,1.78-15.42,2.46-4.48.57-5.75-6.1-1.32-6.97,5-1,11.5-.41,15.26-1.03,6.7-1.08,13.39-2.08,20.12-3.02,40.67-5.78,81.76-9.83,121.38-17.5,9.83-1.89,37.8-9.69,46.2-6.4Z" fill="#fff9cb"/>
      <path d="M300.39,696.06c.43,6.91-13.2,9.99-19.14,11.85-12.91,4.05-26.46,6.02-39.37,9.23-56.35,14.01-112.25,35.1-168.85,49.87-4.75,1.22-16.66,5.21-11.5-3.4,3.11-5.13,16.61-6.51,21.55-8.15,37.94-12.69,75.2-24.41,113.57-34.94,28.87-7.94,60.92-13.72,89.14-22.93,3.67-1.19,6.35-5.62,11.8-4.62,1.51.27,2.73,1.57,2.81,3.08Z" fill="#fff9cb"/>
      <g>
        <path d="M822.75,832.11c22.81,1.39,29.01,28.85,13.75,32.23-7.23,1.59-12.72-3.62-19.35-4.4-1.17,5.94-7.28,10.36-9.6,14.45-6.07,10.74-14.39,35.28-12.07,47.77.89,4.71,4.68,15.24,9.35,16.84,2.43.82,5.29.27,7.79,1.25,3.86,1.52,17.17,6.86,18.59,9.23,4.65,7.83,4.88,19.2,1.86,27.62-3.32,9.19-12.64-.57-15.57-2.01-8.85-4.32-26.52,1.19-37.05,1.58-38.97,1.51-80.65-2.12-120.33-.73-1.92.07-3.86.19-5.77.28-16.37-6.56-39.2-2.21-56.71-2.69-2.3-.05-4.63,0-6.97.16-5.36.39-10.76.13-16.1-.49-3.84-.44-7.73-.74-11.66-.82-26.41-.52-47.63-2.31-73.9-.19-46.46,3.79-92.97,4.66-139.48,7.17-3.09-1-6.36-1.71-9.79-2.04-54.7-5.2-108.87-13.51-163.88-15.71-27.42-1.08-54.69-1.44-82.04-4.11-20.14-1.96-40.2-3.8-60.34-4.44-1.26-1.08-2.57-2.11-3.9-3.08.49-.33.91-.65,1.15-1.05,2.01-3.43-7.7-3.71-9.03-4.25-4.16-1.61-5.78-9.33-8.57-13.29-4.45-6.3-10.87-7.74-12.41-17.73-3.72-23.68,7.64-34.21,11.82-55.28,3.82-4.3,9.68-2.74,13.93-4.79,1.89-.88,4.71-6.92,9.21-8.53,5.29-1.9,12.94-1.54,18.93-4.1,7.27.25,14.56.09,21.83-.03,3.05-.05,6.1-.19,9.15-.27,0,0,4.08-.09,6.64-.17,1.66.09,4.18.15,4.66.17,3.2.15,6.38.33,9.58.4,30.7.69,61.16-1.86,91.8-3.04,27.66-1.07,55.4-1.48,83.04-3.85,9.85-.86,19.65-2.09,29.41-3.46,3.63.45,7.37.57,11.2.36,51.05-3.04,89.45.46,142.61.48,6.9,0,13.8-.05,20.69-.13,2.25,0,3.7-.04,4.62-.04.78,0,1.71.03,2.87.04,11.46.21,22.87.96,34.29,1.87,26.89,2.17,53.97,1.72,80.95,1.26,6.11-.11,12.24-.22,18.38-.31-.16.01,10.09.02,10.04-.03,11.57.23,23.11.89,34.65,1.55,25.99,1.55,52.06,3.2,78.13,2.09,15.11-.64,30.03-2.66,44.84-5.53,11.63,0,24.67-.48,28.77-.22ZM781.41,912.49c.99-8.39,12.06-39.68,10.52-43.94-.36-1.06-1.21-1.6-2.25-1.86-5.2-1.33-22.5,1.51-29.49,1.67-25.72.65-51.53,1.48-77.4,2.25-48.01,1.42-96.21,2.61-144.13,2.03-15.89-.2-32.8-2.8-48.8-2.43-18.94.45-37.77,4.81-56.42,6.33-25.11,2.08-50.38,2.62-75.49,4.7-6.89,2.32-8.23,11.28-.84,13.85,7.14,2.5,12.71-1.03,19.11-1.57,14.91-1.23,29.89-.56,44.56-1.31,87.11-4.43,175.21-11.62,262.24-13.96,12.45-.34,24.85-.57,37.24-.7,7.65-.07,30.5-2.9,35.55,2.25,3,3.06.69,8.05-3.75,8.03-95.7-1.91-190.49,8.7-286.06,13.76-34.11,1.8-68.4,3.02-102.5,5.03-7.52.44-13.05-4.49-12.4,8.16.46,9.14,5.25,14.77,7.97,22.8,1.29,3.82-.99,8.91,4.3,9.55,3.57.45,8.2-.86,12.13-.73,57.93,1.78,113.77,2.25,171.89,1.47,72.74-.99,146.3-.62,219.02-2.9,5.56-.16,16.95,4.14,17.67-4.73.24-3.13-2.84-7.4-3.27-11.65-.43-3.82.14-12.13.59-16.11ZM380.75,856.78l103.08-6.42-4.77-1.06c-25.59-.3-54.33,5.95-79.5,4.95-8.46-.34-16.04-5.17-25.21-2.46.71,1.77,4.9,4.78,6.4,4.99ZM346.23,856.87l15.99-4.32c-12.21,2.9-31.14-5.15-40.3,4.51-5.91,6.27-3.29,9.21-4.75,14.91-.69,2.75-2.6,4.33-3.19,7.37-2.1,10.57.29,21.11,1.86,31.54,2.09.09,1.66-3.67,1.92-5.29,2.03-13.09.67-20.98,7.87-33.5,5.3-9.15,12.46-9.76,20.61-15.22ZM304.15,950.88c4.03-3.85-.39-5.9-1.59-9.86-6.88-22.7-7.92-45.09-3.34-68.35,1.66-8.49,10.17-18.65-2.53-20.19l-267.86,18.36c-2.43.91-10.42,19.86-10.99,23.41-2.73,16.92,11.34,32.14,24.05,41.25,28.32,20.29,38.28,2.08,63.96,4.75,5.06.52,8.37,5.3,12.67,5.84,7.26.95,16.81-.29,24.19,0,45.78,1.86,92.46,6.33,138.45,6.17,6.65-.04,17.78,3.6,22.99-1.41Z" fill="#fb97aa"/>
        <path d="M791.93,868.55c1.54,4.26-9.53,35.55-10.52,43.94-.46,3.98-1.02,12.29-.59,16.11.43,4.25,3.51,8.52,3.27,11.65-.72,8.86-12.11,4.57-17.67,4.73-72.72,2.28-146.27,1.92-219.02,2.9-58.12.78-113.96.31-171.89-1.47-3.93-.13-8.56,1.18-12.13.73-5.29-.64-3.01-5.74-4.3-9.55-2.72-8.03-7.51-13.66-7.97-22.8-.65-12.65,4.88-7.72,12.4-8.16,34.1-2.02,68.38-3.23,102.5-5.03,95.57-5.06,190.36-15.67,286.06-13.76,4.44.02,6.75-4.97,3.75-8.03-5.06-5.15-27.9-2.32-35.55-2.25-12.38.12-24.79.35-37.24.7l-.23-7.64c25.87-.77,51.68-1.6,77.4-2.25,7-.17,24.3-3,29.49-1.67,1.04.26,1.89.8,2.25,1.86ZM720.17,920.91c8.63.06,19.86-2.56,17.49-13.32l-109.4,2.78,8.97,7.13c19.64,2.94,38.72,3.54,58.55,2.17,2.59-.19,5.08-1.8,7.97-1.9,4.99-.18,10.39,3.11,16.43,3.14ZM563.59,915.05c-.08-1.65-4.32-2.92-6.2-3.05-37.28-2.63-83.13,10.13-121.36,6.21-19.52,2.35-39.89,1.16-59.25,3.88-4.51.63-3.75,3.59-7.22,4.4,4.41,7.76,9.4,3.18,14.37,3.14,49.17-.3,106.59,1.26,155.19-5.61,4.18-.61,24.66-5.03,24.47-8.96Z" fill="#fff9cb"/>
        <path d="M737.66,907.59c2.37,10.76-8.85,13.38-17.49,13.32-6.04-.03-11.43-3.32-16.43-3.14-2.89.1-5.39,1.72-7.97,1.9-19.83,1.37-38.91.77-58.55-2.17l-8.97-7.13,109.4-2.78Z" fill="#fb97aa"/>
        <path d="M682.79,870.62l.23,7.64c-87.03,2.34-175.13,9.53-262.24,13.96-14.67.75-29.65.09-44.56,1.31-6.41.53-11.98,4.07-19.11,1.57-7.38-2.57-6.05-11.53.84-13.85,25.11-2.08,50.38-2.62,75.49-4.7,18.65-1.51,37.48-5.88,56.42-6.33,15.99-.37,32.9,2.23,48.8,2.43,47.92.59,96.12-.6,144.13-2.03Z" fill="#fff9cb"/>
        <path d="M557.4,912c1.87.13,6.12,1.4,6.2,3.05.19,3.94-20.28,8.35-24.47,8.96-48.6,6.87-106.02,5.31-155.19,5.61-4.98.04-9.97,4.62-14.37-3.14,3.47-.81,2.71-3.77,7.22-4.4,19.36-2.72,39.73-1.53,59.25-3.88,38.23,3.92,84.08-8.84,121.36-6.21Z" fill="#fb97aa"/>
        <path d="M483.83,850.35l-103.08,6.42c-1.5-.2-5.69-3.22-6.4-4.99,9.17-2.71,16.74,2.12,25.21,2.46,25.17,1,53.92-5.25,79.5-4.95l4.77,1.06Z" fill="#fff9cb"/>
        <path d="M362.22,852.55l-15.99,4.32c-8.16,5.46-15.31,6.07-20.61,15.22-7.2,12.52-5.84,20.41-7.87,33.5-.25,1.61.17,5.37-1.92,5.29-1.57-10.43-3.96-20.96-1.86-31.54.6-3.04,2.5-4.62,3.19-7.37,1.46-5.69-1.16-8.64,4.75-14.91,9.16-9.66,28.09-1.61,40.3-4.51Z" fill="#fff9cb"/>
        <path d="M302.56,941.03c1.19,3.96,5.62,6.01,1.59,9.86-5.21,5-16.34,1.37-22.99,1.41-45.98.16-92.66-4.32-138.45-6.17-7.38-.3-16.93.95-24.19,0-4.31-.54-7.61-5.32-12.67-5.84-25.68-2.67-35.64,15.53-63.96-4.75-12.72-9.11-26.78-24.33-24.05-41.25.56-3.55,8.55-22.5,10.99-23.41l267.86-18.36c12.7,1.54,4.19,11.7,2.53,20.19-4.58,23.26-3.54,45.65,3.34,68.35Z" fill="#fff9cb"/>
      </g>
      <g>
        <path d="M896.94,553.18c-26.03-21.54-27.14,12.34-36.93,16.52-12.15,5.18-30.73.71-43.46,8.63-34.03-49.04-90.82-200.81-165.73-116.59-.28.31-.58.62-.89.9l-2.28,2.06c-.16.18-1.26-5.17.29-8.25,2.07-4.01,2.88-8.42,1.58-12.64-1.51-4.85-1.02-9.11,1.05-13.6,1.05-2.27,1.61-4.49,1.68-6.64.18-4.19-1.43-8.12-4.77-11.64-3.37-3.52-4.47-7.53-4.26-12.35,1.12-26.14-1.74-51.89-8.01-77.32-6.43-26.04-19.73-47.53-41.48-63.43-10.26-7.5-22-12.33-33.69-17.1-3.14-1.28-3.85-2.3-1.1-4.98,7.68-7.5,12.1-16.82,13.45-27.41,1.12-8.91-.84-17.18-8.81-22.39-3.96-2.6-4.62-5.41-3.7-9.47,1.91-8.3,3.42-16.72,3.62-25.14.18-6.76-.18-13.3-1.63-19.32,0-4.03.1-8.07,0-12.1-.05-2.25.64-3.44,2.86-4.11,4.77-1.43,9.14-3.88,13.07-6.87,6.25-4.77,12.25-9.88,17.46-15.8,4.01-4.6,7.96-9.24,7.22-16-.26-2.45-.94-4.75-1.74-7.04-4.16-12.25-11.18-22.44-21.57-30.2-.92-.69-1.23-1.56-1.35-2.63-.77-6.33-2.09-12.51-4.11-18.58-2.78-8.42-7.96-14.29-16.69-16.74-8.37-2.35-16.85-3.45-25.58-2.73-13.53,1.1-26.6,3.7-38.82,9.8-1.61.79-2.96.66-4.44-.18-7.17-4.14-15.11-5.1-23.15-5.21-8.91-.1-17.2,2.48-25.12,6.28-8.73,4.21-16.31,10.23-22.87,17.2-4.8,5.05-9.57,8.42-15.19,6.66-9.01-.28-16.31.26-23.38,2.81-5.08,1.81-9.88,4.16-13.6,8.14-3.55,3.83-6.1,8.42-8.35,13.1-5,10.41-8.6,21.36-11.84,32.44-2.32,7.91-4.01,15.95-5.85,23.97-.66,2.96-.71,6.15.18,9.14,2.81,9.32,7.4,17.82,12.63,25.96,4.59,7.2,11.18,8.53,19.17,6.64,4.52-1.07,8.78-2.91,12.89-5.03,1.94-1,3.09-.84,3.96,1.35.59,1.58,1.25,3.11,1.94,4.67.46,6.69,1.48,13.35,2.73,19.99.77,4.01.28,6.64-3.7,8.81-5.56,3.04-7.61,8.63-8.24,14.7-1.35,12.97,2.71,24.25,11.41,33.74,3.32,3.6,3.22,5.03-1.45,6.94-13.45,5.54-26.44,12.02-37.78,21.31-22.05,18.05-32.21,42.63-37.57,69.66-4.44,22.44-6.51,45.1-5.77,68,.1,3.7-.26,7.05-3.27,9.78-6.48,5.82-7.3,12.86-3.65,20.55,1.68,3.55,2.14,6.99.94,10.87-1.43,4.62-1.66,9.57,1,13.73,2.58,4.06.84,5.21-2.73,6.08l-.63.09c-16.68-2.52-20.18-19.5-40.21-19.4-46.29.24-73.6,84.44-92.37,115.12-17.43,28.49-24.99-1.57-37.85-5.06-5.29-1.43-7.82,2.29-15.12-.56-19.11-7.47-19.49-41.88-44.38-23.72-24.25,17.7-5.66,63.34,8.12,83.8,2.22,3.3,23.15,28.38,24.92,29.1,8.76,3.59,17.25-6.49,21.01-1.02,4.44,6.45-8.15,16.08-8.73,19.34-1.62,9.08,28.36,32.57,38.62,32.75,17.24.3,26.73-17.68,35.09-21.01,13.54-5.4,17.89,4.04,34.89-11.11,36.55-32.57,29.7-85.56,96.63-99.32,4.04-.83,7.76-1.43,11.17-1.58l3.87.12c2.5-.66,11.23,17.8,13.06,19.33,1.15.97.92,2.37.38,3.83-.41,1.18-1,2.4-1.23,3.5-2.86,12.79-4.19,25.63-1,38.59,2.81,11.36,13.4,14.22,21.65,19.4,2.09,1.3,5.9-.46,8.83-.13,11.18,1.2,11.56,1.15,16.34-9.52.89-2.02,1.46-2.42,3.65-1.38,7.91,3.75,14.35.84,16.95-7.56,1.35-4.34,1.89-8.83,1.17-13.43-.92-5.79-.92-11.64-.71-17.48.33-9.49,3.24-11.74,12.35-9.67,6.13,1.4,12.15,2.55,18.22-.46,8.81-4.39,9.93-13.5,2.12-19.43-3.4-2.58-7.1-4.72-10.85-7.17,13.27-5.44,60.85-5.59,77.62-.13-4.54,3.22-9.09,5.21-12.58,8.65-5.08,5-4.59,12.56,1.07,16.72,4.01,2.91,8.6,3.83,13.43,3.14,3.73-.51,7.48-1.17,11.1-2.14,4.47-1.2,6.76.82,8.22,4.65.79,2.09,1.2,4.24,1.35,6.36.23,3.27-.13,6.56-.56,9.85-.84,6.2-1.23,12.46-.23,18.61,1.51,9.24,8.37,13.22,16.77,9.9,2.99-1.17,4.01-.54,4.65,2.4.87,4.08,2.96,8.12,7.2,8.58,6.76.74,13.76.56,20.34-1.46,2.71-.82,4.67-4.01,7.38-5,7.33-2.68,10.08-8.35,11.79-15.31,3.19-13.07,1.3-25.83-1.53-38.62-1.33-5.95-2.78-31.14,3.24-29.46l1.49-.29c1.65-1.21,30.18,8.32,34.35,9.58,53.67,16.35,79.32,108.57,101.42,114.52,5.42,1.46,10.92-.64,16.46,1.54,9.37,3.69,19.16,24.4,35.07,25.08,11.88.51,44.47-17.09,42.12-30.13-1.09-6.06-10.51-12.2-9.15-19.96,6.1-2.12,15.54,6.5,20.07,4.95,1.88-.65,28.25-22.01,30.96-24.91,14.8-15.78,37.45-65.42,17.4-82.02Z" fill="#fb97aa"/>
        <g>
          <path d="M639.3,421.61c.13.56.2,1.07.2,1.58,0,1.76-.79,3.29-2.09,4.59-1.84,1.89-3.45.41-5.05-.51-4.95-2.76-10.01-5.31-15.77-5.82-1.91-.15-4.67-1.1-5.28,1.66-.51,2.32,2.14,2.76,3.78,3.47,7.15,3.17,13.55,7.33,18.79,13.25,1.43,1.58,2.42,3.32,2.83,5.41.46,2.37.28,4.67-1.58,6.28-2.25,1.94-3.83-.41-5.41-1.4-18.07-11.36-37.34-14.29-57.76-9.75-1,.23-1.99.46-2.99.71-2.35.61-5.33,2.86-7.25-.05-1-1.53-1.15-3.17-.77-4.7.41-1.51,1.35-2.91,2.58-4.03,3.6-3.32,4.21-5.85.59-9.78-3.42-3.73-1.61-8.78,3.68-10.72,4.39-1.61,9.06-2.68,13.71-3.32,5.56-.77,11.26-.84,16.44-1.17,12.92.61,25.3,1.68,36.27,8.55,2.27,1.4,4.42,2.94,5.1,5.74Z" fill="#fff9cb"/>
          <path d="M629.53,395.08c.36,5.87-.46,6.23-6.1,4.44-16.46-5.18-33-5.03-49.54-.31-6.56,1.86-6.74,1.68-7.27-5.33-1-12.81-3.14-25.42-7.61-37.55-.26-.71-.46-1.45-.82-2.09-1.48-2.63-1.91-7.15-6.2-5.79-.51.15-.92.38-1.28.64l-11.84-.15c1.3-1.02,2.45-2.76,3.55-5.18,4.54-10.06,6.61-20.8,8.37-31.6,3.09-18.79,2.99-37.52-.05-56.31-.38-2.32-1.4-5.77,3.11-3.62,26.16,12.35,48.91,28.43,60.57,56.36,6.41,15.29,9.04,31.47,11.74,47.66,2.14,12.86,2.58,25.88,3.37,38.85Z" fill="#fff9cb"/>
          <path d="M619.26,457.14c3.5,1.79,4.62,4.01,4.06,8.12-3.5,26.06-13.76,49.65-25.93,72.54-.61,1.17-1.17,2.4-1.94,3.45-9.9,13.58-9.42,27.98-3.52,42.88,1.17,2.94,1.66,6.18,2.65,10.08-5.82-2.58-6.53.87-6.66,4.57-.28,7.33.18,14.7-1.35,21.98-.87,4.16-1.51,8.4-4.67,11.84.74-5.33,1.51-10.64,2.25-15.95,1.02-7.38.28-14.68-1.12-21.93-.46-2.3-1.25-5.31-4.49-4.8-2.76.43-2.83,3.27-2.94,5.49-.33,9.04.28,18.12-1.76,27.03-.71,3.11-1.68,6.18-2.76,9.19-.38,1.15-.84,2.81-2.55,2.55-1.56-.26-1.63-1.86-1.91-3.14-1.76-8.45-.71-16.87.48-25.3.77-5.46.87-10.9-.48-16.28-.56-2.17-1.02-4.85-3.91-4.82-3.06.05-3.06,2.86-3.37,5.03-1.23,8.96-1.43,18.1-5.49,26.44-1,2.02-1.91,4.08-3.01,6.07-.64,1.15-1.63,2.25-3.14,1.91s-1.94-1.76-2.17-3.06c-.56-2.99-.13-5.97.13-8.98.51-5.85,1.07-11.69.66-17.51-.18-2.42-.54-4.85-1.15-7.25-3.11-12.43-8.76-15.8-21.06-12.56-3.83,1.02-7.63,2.09-11.66,1.61-1.43-.2-3.32-.1-3.6-2.02-.2-1.53,1.38-2.17,2.45-2.78,8.83-5.1,16.31-12.28,25.58-16.62,11.1-5.21,16.28-14.63,19.12-25.83,5.77-22.74,8.47-45.92,10.59-69.2.66-7.2,1.1-8.47,7.45-9.57.43-.08.87-.15,1.35-.23,15.37-2.35,29.99,0,43.88,7.04Z" fill="#fff9cb"/>
          <path d="M593.08,78.73c.71,6.87-2.02,12.33-6.97,16.92-6.36,5.85-13.63,10.29-21.26,14.24-1.81.92-2.6.43-2.32-1.48.13-.74.18-1.4.15-2.07-.54-.15-.79-.71-.61-1.84.05-.31.03-.59.05-.89-1.05-2.86-3.55-4.8-6.64-6.41-4.34-2.3-8.93-3.85-13.58-5.31-.84-.26-1.58-.59-2.42-1.23,1.38-.74,2.78-1.38,4.21-1.94-.74-.23-1.51-.48-2.25-.71-.84-.28-1.61-.59-2.45-1.23,4.44-2.42,9.16-3.65,13.71-5.26.36-.13.66-.26.97-.41-.33-.05-.66-.1-1.05-.1-7.43.1-14.42,2.09-21.11,5.1-3.7,1.68-7.22,2.53-11.33,1.74-3.52-.64-7.2-.48-10.82-.69-.69-.05-1.53.2-1.97-.46-.51-.82.23-1.48.64-2.12.28-.43.56-.87.84-1.33-.66-.03-1.53.23-1.97-.46-.48-.82.26-1.48.64-2.09,2.6-4.03,5.23-8.04,7.84-12.07.23-.38.46-.77.69-1.15-.05.03-.13.08-.2.1-6.53,3.11-11.54,8.09-16.08,13.58-4.57,5.54-4.49,5.67-11.64,5.97-10.54.43-21.01,1.43-31.27,3.91-2.76.64-5.49,1.35-8.17,2.27-1.51.51-2.45.28-3.5-.89-4.82-5.26-9.62-10.57-15.14-15.16-1.35-1.1-2.71-2.17-4.14-3.11-1-.66-1.97-1.45-3.09-.15-.13.15-.2.31-.31.43,2.42,3.32,4.85,6.64,7.27,9.95,1.53,2.12,3.19,4.11,4.98,5.97-.71.33-1.4.69-2.09,1.02,1.15,1.43,2.35,2.81,3.7,4.06.97.92.89,1.56-.38,2.04-1.84.71-3.65,1.48-5.46,2.2-1.07.43-2.17.31-3.27,0-9.47-2.58-18.81-2.02-28.03,1.28-2.32.82-4.36,2.14-6.48,3.37-.51.31-1,.64-1.38,1.02.97.59,2.09-.13,3.06-.54,5.97-2.48,12.23-3.19,18.61-3.45,1.15-.05,2.22.18,3.24.77-.82.74-1.63,1.51-2.4,2.32-.46.28-.92.56-1.35.84.33-.03.64-.03.97-.05,1.35-.05,2.6.26,3.83,1.1-3.34,2.48-7.12,4.19-10.03,7.12-.51.54-1.45.92-1.02,1.89.36.77,1.2.61,1.89.64,4.19.26,7.86-1.58,11.41-3.29,11.89-5.69,24.33-9.78,37.19-12.51,4.9-1.05,9.95-1.25,14.86-2.25,9.8-1.94,19.71-1.79,29.58-1.74,10.67.03,21.08,1.84,31.42,4.26l.31.08c-1.02-1.66-2.14-3.17-3.37-4.57.87.2,1.71.38,2.58.59,6.05,1.43,11.97,3.24,17.66,5.74,2.02.87,2.78,2.14,2.76,4.36v1.53c.31.66.48,1.4.48,2.35-.1,8.27,0,16.51,0,24.78,0,2.78-.54,3.06-3.27,2.37-4.8-1.2-9.7-1.86-14.6-2.42-4.14-.48-8.24-1-12.35-1.48-.94-.13-1.86-.31-2.81-.33-10.69-.23-21.39-.36-32.06.08-6.48.26-12.94,1.12-19.4,1.97-8.17,1.07-16.28,2.5-24.27,4.49-14.96,3.68-29.61,8.32-42.98,16.34-3.8,2.27-3.83,2.22-5.82-1.84-.2-.43-.41-.84-.61-1.25-1.53-3.09-1.4-2.94,1.2-5.18,3.6-3.09,7.61-5.92,9.5-10.59.33-.84,1.15-1.81.31-2.6-.84-.74-1.58.28-2.3.66-8.65,4.77-17.28,9.65-26.52,13.27-4.24,1.66-8.63,3.04-13.3,1.81-2.4-.61-4.34-1.97-5.67-3.98-3.8-5.87-7.45-11.82-9.62-18.53-.64-1.99-.94-3.98-1.02-5.97-.82-3.83-.56-7.68.23-11.44,2.45-11.44,5.74-22.64,9.6-33.67,3.17-9.09,6.84-17.94,13.09-25.42,5.1-6.07,11.77-9.14,19.63-9.9,3.78-.38,7.53-.46,11.28.08.51.08,1.2-.15,1.51.38.36.71-.31,1.15-.66,1.63-.43.59-.87,1.17-1.28,1.76.31.05.59.05.89.1.54.08,1.23-.15,1.53.41.36.69-.33,1.12-.69,1.61-3.17,4.31-6.2,8.73-8.63,13.5,1.33.77,2.22,0,3.01-1.1,6.02-8.09,12.79-15.54,20.04-22.54,7.25-6.99,15.26-13.12,24.27-17.74,5.33-2.73,11.1-4.16,17.05-5.23,6.05-1.07,11.69.03,17.36,1.68.82.23,1.97.38,2.14,1.25.2,1.02-1,1.28-1.68,1.74-.31.2-.59.43-.87.66.31.08.59.15.89.26.82.23,1.97.36,2.14,1.25.2,1-1.02,1.28-1.68,1.71-2.68,1.81-4.82,4.21-7.07,6.46.71.46,1.48.31,2.37-.31,10.62-7.38,22.36-12.46,34.74-15.98,5.49-1.56,11.15-2.35,16.8-3.27,5.44-.89,10.82-.97,16.21-.64,5.46.33,10.85,1.58,15.75,4.26,5.9,3.24,8.83,8.81,11.21,14.7,2.5,6.1,3.98,12.43,4.57,18.94.48,3.27.74,6.56.77,9.9.08.08.13.13.23.18.71.28,1.17-.26,1.53-.79,1.33-2.04,2.71-4.08,2.99-6.59.15-1.45.66-1.94,1.84-.69,6.87,7.3,12.92,15.06,14.01,25.52.05.48.05.94.08,1.43.15.82.31,1.61.41,2.45Z" fill="#fff9cb"/>
          <path d="M559.38,201.81c1,6.56-.28,12.74-3.68,18.43-1.4,2.32-3.17,4.44-4.77,6.66,0-9.24,3.04-17.54,4.67-26.14.18-.92.61-1.99,1.71-1.89,1.66.13,1.89,1.66,2.07,2.94Z" fill="#fff9cb"/>
          <path d="M555.02,398.43c.33,4.21-.2,8.22-2.02,12.12-2.27,4.93-2.91,9.98-1.33,15.39,1.02,3.45-.05,6.69-1.07,9.95-.56,1.81-1.1,3.65-1.23,5.51-.51,6.74-6.82,6.74-11.38,8.22-18.17,5.87-36.83,9.83-55.72,12.07-16.34,1.94-32.26-1.94-47.96-6.07-9.11-2.37-18.05-5.44-27.06-8.17-3.83-1.17-5.46-3.37-5.97-7.68-.08-.64-.15-1.25-.23-1.86-.82-6.28-1.94-12.46-.79-18.81.18-.87.08-1.97-.31-2.78-7.84-16.62-2.02-33.26-.15-49.9.48-4.11,1.33-8.19,1.76-12.3.23-2.27-.05-4.82-2.68-5.64-.43-.13-.82-.2-1.15-.2l10.54-4.9c3.78,8.3,7.04,8.73,14.8,2.78,3.88-2.96,7.94-5.72,12.07-8.32,5.49-3.47,11.23-4.11,17.13-.84,1.45.79,3.01,2.2,4.57.51,1.35-1.45.79-2.91-.03-4.34l2.02-1.25c5.36,8.76,9.85,18.02,12.71,28.31.56,2.04.71,5.08,3.45,5.31,2.99.26,3.11-2.88,3.73-4.88,3.29-10.54,8.32-20.06,14.14-29.12l1.63,1.05c-.89,1.28-1.48,2.65-.41,4.19,1.53,2.14,3.42.36,5.05-.31,6.28-2.48,12.25-1.74,17.74,2.02,4.06,2.76,7.91,5.79,11.84,8.7,4.29,3.19,7.48,3.88,10.13,1.76l11.84.15c-2.07,1.58-1.17,4.77-.79,7.27,1.1,7.66,2.42,15.26,3.37,22.95.79,6.33,1.2,12.74,1.74,19.12Z" fill="#fff9cb"/>
          <path d="M542,192.19c1.79,1.53,1.81,3.7,1.28,5.77-5.44,20.96-8.47,42.63-16.85,62.71-8.09,19.4-21.62,33.39-43.11,37.96-1.1.23-2.22.41-3.34.51-1.51.13-3.01.13-5.26.23-17.43-.28-30.22-10.29-41.35-23.28-7.71-9.01-11.44-19.96-14.52-31.01-4.08-14.7-7.15-29.66-10.85-44.46-.89-3.65-.48-6.51,2.07-9.34,6.05-6.74,8.81-14.5,8.6-23.76-.2-9.6,5.23-12.79,14.17-9.29,3.55,1.38,6.66,3.42,9.62,5.82,14.57,11.97,33.67,12.86,49.34,2.42,4.7-3.14,9.34-6.36,14.01-9.55,3.7-2.53,7.76-3.68,12.25-3.57,8.45.15,14.09,4.62,13.96,12.97-.15,10.24,2.09,18.99,9.98,25.88Z" fill="#fff9cb"/>
          <path d="M541.08,259.29c1.91,12.48,2.17,24.89,1.25,37.24-.82,11.28-3.47,22.31-6.23,33.28-1.12,4.49-2.81,5.92-6.53,2.12-2.65-2.71-5.82-4.82-9.24-6.46-9.24-4.42-18.74-2.22-24.78,5.72-.33.43-.71.89-1.05,1.38l-1.63-1.05c4.77-7.5,10.08-14.73,15.29-22.03,8.55-11.92,18.76-22.62,25.91-35.51,2.63-4.75,4.7-9.8,7.02-14.7Z" fill="#fff9cb"/>
          <path d="M495.26,309.55c-4.39,6.1-8.07,10.8-11.26,15.8-2.5,3.93-4.42,8.27-6.64,12.43-.74,1.4-1.94,3.91-3.29.89-4.62-10.36-11.1-19.53-17.46-29.15,12.61,3.6,24.96,3.62,38.64.03Z" fill="#fff9cb"/>
          <path d="M458.84,331.91l-2.02,1.25c-.15-.26-.33-.54-.48-.79-6.41-10.59-20.32-12.15-31.68-3.55-8.24,6.23-8.17,6.2-10.75-4.11-4.67-18.61-6.69-37.47-5.69-56.61.15-2.96-.1-6.02,1.61-8.96,2.5,2.04,2.5,5.1,3.62,7.56,3.88,8.47,9.83,15.49,15.11,23.05,9.9,14.14,21.26,27.41,30.27,42.17Z" fill="#fff9cb"/>
          <path d="M439.8,571.49c1.12.54,2.6,1.28,2.4,2.83-.28,1.97-2.09,1.89-3.55,2.04-4.62.48-8.96-.71-13.35-1.94-9.67-2.73-16.16,1.05-18.63,10.9-1.68,6.82-2.53,13.71-1.48,20.75.71,4.85.82,9.75.38,14.65-.13,1.53-.41,3.19-2.09,3.73-2.17.66-2.99-1.25-3.75-2.65-4.67-8.42-6.25-17.71-7.25-27.13-.1-1.12.03-2.27-.2-3.37-.56-2.63.03-6.59-3.83-6.48-3.5.13-3.75,3.93-4.01,6.64-.64,6.56-.51,13.17.33,19.73.84,6.59.89,13.17-.08,19.73-.18,1.23-.38,2.94-1.91,3.19-1.89.33-2.55-1.43-3.06-2.78-2.07-5.69-2.91-11.66-3.24-17.71-.33-6.02-.56-12.05-.87-18.07-.13-2.32-.36-4.95-3.24-5.16-2.99-.23-3.47,2.5-3.85,4.7-1.91,10.69-1.71,21.39.13,32.08.31,1.79,1.28,3.57-.28,6.43-3.62-6.82-3.8-13.45-4.29-19.96-.38-5.05-.15-10.16-.46-15.24-.13-1.97-.26-4.52-2.73-5.13-2.73-.69-2.88,2.37-4.75,4.08.38-4.19,1.17-8.17,2.22-12,1-3.7,2.2-7.3,3.42-10.82,3.19-9.29,1.97-17.56-2.55-26.04-8.58-16.16-16.72-32.52-23.28-49.65-4.26-11.13-6.71-22.74-8.73-34.46-.54-3.09.56-5.1,3.09-6.61,14.98-8.73,31.17-9.24,47.73-7.02,5,.66,5.72,4.67,6.07,8.86,1.68,19.35,4.24,38.57,8.12,57.61,1.45,7.2,3.45,14.27,6.02,21.19,2.71,7.33,7.35,12.79,14.29,16.03,9.8,4.57,17.54,12.38,27.26,17.05Z" fill="#fff9cb"/>
          <path d="M407.84,342.43c.15.33.28.64.43.94l-10.54,4.9c-2.09,0-2.91,2.14-3.7,3.85-5,10.52-7.04,21.82-8.65,33.23-.38,2.78-.77,5.59-1.02,8.42-.71,7.5-.66,7.48-7.61,5.39-16.36-4.9-32.72-4.77-48.98.38-4.21,1.33-5.82.61-5.77-4.06.31-23.66,3.39-46.94,9.06-69.89,7.61-30.89,26.47-52.76,54.34-67.33,3.83-2.02,7.66-4.01,11.54-5.92,3.52-1.74,4.54-.2,3.85,3.14-1.1,5.36-1.66,10.77-2.17,16.23-2.17,23.13,1.94,45.41,8.07,67.51.31,1.07.69,2.14,1.15,3.19Z" fill="#fff9cb"/>
          <path d="M395.77,202.22c1.76,8.01,3.37,16.06,5.05,24.07-6.89-6.53-10.01-14.4-9.34-23.64.1-1.45.43-3.39,2.09-3.65,2.17-.33,1.91,1.94,2.2,3.22Z" fill="#fff9cb"/>
          <path d="M389.97,438.02c.1,1.2-.08,2.4-.92,3.47-1.51,1.94-3.39.87-5.18.36-1.17-.33-2.37-.66-3.55-.94-21.29-5.31-41.43-2.55-60.11,10.24-1.43.97-2.78,2.04-4.57.79-1.61-1.12-1.79-2.73-1.63-4.52.31-3.32,1.58-6.13,3.91-8.55,5.05-5.28,11.28-8.76,17.69-12,1.71-.87,4.75-1,3.83-3.85-.79-2.48-3.5-1.74-5.49-1.56-5.54.48-10.57,2.48-15.42,5.16-1.61.89-3.42,3.19-5.36.54-1.63-2.22-2.48-4.67-.71-7.33,1.84-2.78,4.62-4.39,7.5-5.82,11.1-5.51,23.13-6.33,35.81-6.59,7.66.82,16,.48,24.07,2.76,8.83,2.5,10.47,6.41,5.56,14.17-1.45,2.35-1.25,4.19.43,6.13,1.48,1.71,3.06,3.37,3.7,5.62.18.64.36,1.3.43,1.94Z" fill="#fff9cb"/>
        </g>
      </g>
    </g>
    <path d="M79.34,918.06s-5.81-33.55-5.33-33.63c15.75-2.49,27.36,34.45,32.29,33.67,0,0-6-33.53-5.33-33.64,13.68-2.17,5.62,37.04,26.9,33.67.68-.11-6.01-33.54-5.33-33.64,0,0,22.86,35.73,35.74,33.69.69-.11-5.59-33.62-5.33-33.66l33.91,33.7c.69-.11-5.33-33.67-5.33-33.67,10.29-1.63,9.97,37.42,33.4,33.71.7-.11-6.03-33.57-5.33-33.68,22.72-3.6,24.05,34.87,31.3,33.72.7-.11-5.84-33.61-5.34-33.69" fill="none" stroke="#fb97aa" stroke-linecap="round" stroke-linejoin="round" stroke-width="8"/>
  </g>
</svg>