<?xml version="1.0" encoding="UTF-8"?>
<svg id="Lag_1" xmlns="http://www.w3.org/2000/svg" viewBox="0 0 166.14 125.87">
  <path d="M97.49,125.48h-.25c.03.17-.28.12-.31.23.06.03.14,0,.11.11.11-.06.26.03.31-.06,0,.06.11-.03.11,0,0,.03-.08.08-.11.06,0,.09.06.03.09.03.06-.03.17,0,.23,0,.03,0,0-.06.03-.06,0-.06-.09-.09-.09-.14.03-.03.03-.14.03-.2-.11.03-.14.03-.14.03Z"/>
  <path d="M56.31,72.67c-.09.15-.18.33-.16.49.02.16.22.16.36.1.87-.4,1.54-1.22,1.89-1.92.31-.61.79-1.49.52-2.27-1.37.83-1.86,2.31-2.61,3.6Z"/>
  <path d="M38.48,68.63c0,.22,0,.49.29.48.27-.01.47-.19.49-.5.03-.51-.25-.92-.54-1.28-.27-.33-.48-.64-.3-1.08-.11-.82-.2-1.65-.33-2.47-.04-.23-.15-.54-.47-.51-.24.03-.31.29-.34.51-.13.99-.13,1.99.45,2.85.41.62.76,1.23.75,2Z"/>
  <path d="M38.31,72.85c-.77-.11-1.22-.56-1.68-1.08-.23-.27-.59-.67-.88-.39-.35.34-.05.76.22,1.15.81,1.16,1.94,1.68,3.39,1.82-.15-.68-.3-1.38-1.05-1.5Z"/>
  <path d="M59.47,25.94c-.55,1.35-1.8,2.32-2.04,3.84-.05.34-.33.77.23.87.44.08.67-.29.68-.68.03-1.38,1.82-1.96,1.55-3.47.8-.35.35-1.03.3-1.6-.25.34-.57.66-.72,1.04Z"/>
  <path d="M61.65,21.71c-.25-.25-.57-.91-1.02-.47-.39.38-.34.96.06,1.47.5.64,1.17,1.07,1.78,1.56.43.35.65.11.67-.46-.12-.91-.87-1.48-1.5-2.11Z"/>
  <path d="M98.99,58.92c.43-1.01.91-1.95,1.68-2.77.46-.49.36-1.32.87-1.87-.11-.15-.16-.33-.26-.36-.37-.11-.5.22-.67.44-.99,1.22-1.27,2.85-2.29,4.06-.04.05-.04.15-.02.21.06.23-.3.51.05.69.38.2.54-.15.64-.39Z"/>
  <path d="M48.72,33.22c-.23.3-.61.11-.92.04-.37-.08-.86-.44-1.06.04-.2.48.33.81.65,1.13.31.31.79.08,1.15.32.69-.03,1.1-.62,1.65-.94.13-.07.11-.31-.05-.36-.46-.13-.77-1.1-1.42-.25Z"/>
  <path d="M75.93,52.19c.11.24.4.41.63.58.18.13.41.24.6.07.22-.21.14-.47-.05-.68-.45-.49-.79-1.02-.62-1.96-.04-.17-.08-.57-.2-.95-.18-.52-.56-.97-1.13-.78-.69.23-.67.95-.35,1.36.57.72.77,1.57,1.13,2.36Z"/>
  <path d="M152.59,62.4c.19-1.38.07-2.76-.04-4.15-.6-7.76-3.56-14.54-8.85-20.17-6.32-6.73-13.47-12.43-22.01-16.18-.62-.27-1.08-.68-1.48-1.24-4.46-6.37-8.83-12.81-12.95-19.41-.17-.28-.36-.55-.57-.8-.4-.49-.85-.6-1.44-.23-.6.38-1,.85-1.1,1.54-.26,1.74-.2,3.49-.17,5.24.04,3.31,1.32,6.33,2.43,9.38.29.81.1,1-.69.87-1.05-.17-2.1-.3-3.22-.46.18.67.68.66,1.06.79,1.07.36,2.16.67,3.23,1.04,1.71.6,2.23,2.19,3,3.6-1.08-.88-2.41-.64-3.58-.94-1.21-.31-2.51-.03-3.42-1.39-2.91-4.31-6.56-8.02-10.08-11.82-.19-.21-.37-.72-.74-.42-.32.27.05.61.24.84.88,1.16,1.88,2.25,2.54,3.56,2.18,4.31,4.7,8.41,7.38,12.42.1.15.33.32.08.64-1.23-1.28-2.26-2.69-3.31-4.08-3.03-4.03-5.78-8.26-9.12-12.05-.38-.43-.72-1.31-1.41-.84-.57.38-.03,1.1.23,1.57,2.84,5.16,6.09,10.04,9.7,14.69.7.9,1.28,1.96,1.44,3.17-1.33-.73-2.21-1.88-3.07-3.04-3.5-4.72-6.68-9.68-10.69-14.01-.4-.43-.8-1.37-1.34-1.03-.56.35.11,1.12.37,1.62,2.94,5.9,6.37,11.49,10.55,16.6.48.58.87,1.21,1.07,1.98-.55.05-.82-.31-1.09-.56-1.21-1.1-2.44-2.2-3.41-3.55-2.49-3.47-4.98-6.94-7.23-10.58-.81-1.31-1.69-2.56-2.8-3.64-.2-.19-.4-.51-.72-.4-.34.12-.4.51-.45.82-.1.72.26,1.36.53,1.98,3.12,7.37,7.5,13.95,12.73,19.95,2.21,2.54,5.03,4.25,8.6,4.17,2.9-.06,5.13,1.17,6.86,3.43.11.14.23.28.35.42,4.85,5.82,9.13,12.05,13.14,18.46,4.4,7.02,8.51,14.23,13.47,20.9.58.78,1.73,1.54,1.58,2.38-.15.85-1.17,1.6-1.9,2.29-5.27,4.98-11.22,9-17.8,12.04-10.66,4.93-21.93,7.54-33.61,8.38-8.08.58-16.13-.07-24.17-.83-5.31-.5-10.31-2.33-15.4-3.73-.17-.05-.36-.09-.35-.38.82-.51,1.78-.75,2.69-1.09.34-.13.56-.03.79.16.8.64,1.77.92,2.74,1.01,3.4.33,6.63-.02,8.81-3.08.6-.84,1.27-1.2,2.19-1.37,1.37-.25,2.68-.65,3.78-1.58,1.86-1.57,2.88-3.63,3.65-5.88.6-1.76,1.25-3.5,2.06-5.19.4-.84.85-.87,1.51-.36.6.47,1.21.93,1.73,1.5,2.02,2.26,4.54,2.97,7.44,2.18,1.31-.35,2.48-.28,3.7.31,3.01,1.45,5.95,1.04,8.6-.83.89-.63,1.66-.7,2.62-.59,1.44.16,2.82-.1,4.14-.73,2.14-1.02,3.16-2.93,4.06-4.96.25-.55.37-1.18.97-1.54,1.75-1.07,2.71-2.71,3.25-4.64.71-2.54,1.53-5.04,2.6-7.44.69-1.54,1.05-3.09.89-4.77-.08-.83,0-1.64.29-2.47.51-1.49.49-2.99-.22-4.47-.72-1.53-1.81-2.74-3.08-3.79-.98-.81-1.71-1.74-2.23-2.91-.97-2.15-2.66-3.59-4.96-4.11-1.27-.29-2.62-.25-3.18-1.76-.04-.12-.22-.19-.32-.29-1.5-1.46-3.35-1.99-5.38-2.09-.3-.01-.75.06-.84-.35-.07-.35.36-.39.57-.58.28-.25.57-.52.44-.93-.15-.48-.61-.45-1.01-.47-.18,0-.37.03-.54.09-.71.24-1.12.1-1.13-.75,0-.41-.13-.83-.59-.95-.5-.13-.68.32-.93.61-1.34,1.56-.84,3.74-1.85,5.41-.14.23.63.45.03.65-.36.12-.59-.16-.77-.47-.31-.51-.66-1.04-.38-1.63.57-1.2.24-2.43.27-3.65,0-.37-.05-.75-.47-.9-.4-.14-.65.16-.82.41-.55.83-1.04,1.01-1.61.02-.22-.38-.63-.53-1.05-.43-.53.13-.48.6-.44.99.05.52-.12.73-.66.71-.65-.03-1.18.07-.59.91.17.23-.02.42-.27.46-.39.07-.79.16-1.19.17-2.77.1-4.93.98-5.52,4.06-.11.59-.49.86-1.13.53-.76-.4-1.62-.49-2.59-.56.74-.91.99-1.92,1.4-2.85,1.45-3.25,2.97-6.46,3.57-10.04.5-2.94-.15-5.34-2.52-7.21-.44-.35-.84-.75-.89-1.33-.15-1.44-.22-2.9-1.6-3.92,1.07.16,1.92-.31,2.83-.28,2.19.07,4.38.05,6.57.02.68,0,1.29-.2,1.27-1.11-.02-1-.7-.66-1.24-.66-2.85,0-5.69.17-8.53.39-.52.04-.92.06-1.03.7-.08.45-.36.37-.62.11-.8-.77-1.84-.97-2.85-1.3-1.26-.41-2.72-.43-3.82-1.65.78-.13,1.41-.24,2.05-.33,4.05-.6,8.11-1.04,12.19-1.28.56-.03,1.4-.07,1.37-.78-.03-.8-.88-.56-1.42-.57-4.03-.08-8.01.53-12.01.87-1.12.1-2.33-.03-3.31.58-.7.44-1.11.26-1.61-.17-.99-.86-2.17-1.19-3.46-1.09-.64.05-1.19-.12-1.98-.58.32-.18.53-.26.69-.41.31-.28.82-.48.58-1.04-.25-.58-.83-.54-1.23-.38-1.16.44-1.36-.09-1.39-1.09-.02-.7-.51-.95-1-.39-.84.97-1.6,2.09-1.39,3.43.21,1.3-.57,2.13-1.09,3.1-.14.25-.52.39-.54.02-.05-.87-.79-1.57-.36-2.6.46-1.1.37-2.36.15-3.55-.07-.39-.38-.97-.76-.55-.39.43-1.2.57-1.05,1.41-.62-.2-.68-.74-.96-1.1-.39-.49-.98-.79-1.54-.52-.55.26-.39.86-.18,1.36.07.16.21.31.09.52-.28.16-.55-.06-.83-.07-.52-.03-.81.15-.54.71.4.81-.01.93-.7.91-1.44-.04-2.83.24-4.2.66-1.44.44-2.55,1.16-2.79,2.86-.15,1.09-.95,1.68-2.08,1.76-.51.03-1.02.07-1.53.08-2.89.07-4.52,1.31-5.29,4.06-.17.62-.5,1.06-1.08,1.43-2.26,1.46-5.05,2.28-6.25,5.05-.07.16-.22.3-.37.39-1.49.89-2.7,2.12-3.97,3.27-2.49,2.26-4.89,4.64-6.98,7.25-2.22,2.77-3.74,5.99-5.18,9.24-6.26,14.03-4.14,26.96,5.01,38.99,1.89,2.48,4.2,4.56,6.45,6.7,4.97,4.73,10.5,8.65,16.63,11.72,9.58,4.8,19.84,7.35,30.36,8.85,11.72,1.68,23.46,1.28,35.14-.56,9.8-1.55,19.27-4.14,28.05-8.89,6.96-3.77,13.33-8.3,18.26-14.61.65-.83,1.17-.99,2.17-.69,3.79,1.12,7.63-1.73,7.74-5.67,0-.27-.13-.59.23-.81.69.46,1.37.95,2.08,1.38,1.87,1.12,3.77,2.04,6.08,1.79,3.08-.34,5.78-3.55,3.56-6.87-.65-.98-1.36-1.91-2.15-2.76-3.43-3.69-6.85-7.39-9.96-11.36-.49-.62-.73-1.22-.62-1.99ZM123.6,24.21c6.63,3.79,12.73,8.26,17.9,13.92,4.81,5.27,7.72,11.45,8.67,18.53.13.94.24,1.88.36,2.82,0,.06-.05.13-.11.31-.97-.56-1.79-1.18-2.08-2.32-.31-1.2-.64-2.4-.99-3.59-1.21-4.13-3.56-7.56-6.51-10.63-.23-.24-.55-.42-.83-.62.11-1.08-.72-1.69-1.26-2.42-1.1-1.5-2.28-2.93-3.42-4.4-1.17-1.52-2.71-2.6-4.24-3.71-1.59-1.16-3.18-2.34-4.94-3.23-.47-.24-.66-.67-.94-1.03-.96-1.26-1.89-2.54-2.86-3.86.58-.21.91.04,1.25.23ZM145.58,54.38c-.21.12-.29-.13-.4-.27-3.08-3.93-6.14-7.87-9.24-11.79-2.63-3.32-5.19-6.68-7.7-10.09-.35-.48-.73-.93-1.02-1.46,5.01,3.15,8.99,7.37,12.75,11.84,2.7,3.25,4.39,7.03,5.71,11,.09.26.24.59-.1.78ZM105.59,5.06c0-.8-.02-1.61,0-2.41,0-.24-.1-.58.19-.68.38-.14.47.27.61.49,1.67,2.61,3.33,5.23,4.98,7.86,5.08,8.06,10.52,15.88,16.01,23.65,1.7,2.41,3.57,4.71,5.42,7.02.65.82.51,1.14-.44,1.5-2.69,1.02-2.7,1.08-4.4-1.15-.79-1.03-1.72-1.66-3.03-1.65-.79,0-1.38-.35-1.89-.93-1.37-1.53-2.37-3.32-3.48-5.03-2.78-4.29-5.48-8.65-8.66-12.67-2.89-3.65-5.56-10.31-5.28-16ZM105,22.22c.05-.09.23-.12.32-.16.27.07.5.09.69.19,1.35.68,2.85.88,4.28,1.28.54.15.89.4,1.22.82,1.95,2.52,3.54,5.27,5.24,7.96,1.11,1.76,2.19,3.53,3.29,5.3,1.21,1.96,2.78,3.37,5.23,3.48.54.02.94.34,1.32.7,1.06.99,1.77,2.22,2.45,3.48,1.82,3.37,3.6,6.77,5.46,10.12,1.88,3.39,4.13,6.53,6.37,9.69,1.14,1.61,2.12,3.32,3.16,4.99.1.15.19.32.25.49.11.32.15.7-.12.92-.39.31-.58-.15-.78-.34-3.51-3.3-6.89-6.73-10.1-10.33-4.69-5.26-9.46-10.45-14.09-15.76-2.38-2.72-4.41-5.74-6.94-8.33-1-1.02-1.53-2.1-1.48-3.42.1-2.73-1.15-4.9-2.64-7-.88-1.25-1.7-2.54-2.87-3.56-.15-.13-.38-.29-.25-.54ZM46.37,98.11c-3.1,1.19-6.15,1.38-9.16-.3-.76-.42-1.1-1.11-1.42-1.86-.59-1.34-.47-2.87-1.26-4.22-.3-.51-.34-1.55-.48-2.36-.09-.56.31-.43.64-.25.92.5,1.83,1.04,2.78,1.49,1.79.85,3.66.77,5.52.29.87-.23,1.29-.12,1.35.88.04.68.25,1.36.41,2.03.07.32.17.69.61.61.37-.06.38-.39.38-.69,0-.47,0-.95,0-1.7.12-.42-.48-1.54.36-1.72.47-.1.31,1.18.42,1.83.26,1.51.43,3.03.67,4.54.12.73-.11,1.18-.81,1.45ZM60.48,90.4c-.12.83-.36,1.66-.37,2.49-.04,2.71-1.54,5.32-4.17,5.99-2.13.54-4.33.63-6.41-.39-.55-.27-.79-.67-.85-1.28-.25-2.41-.1-4.81.13-7.2.05-.55.26-.64.69-.37,2.19,1.42,4.6,1.95,7.2,1.83,1.03-.05,1.33.92.74,2.19-.18.39-.37,1.7-.3,2.52,1-1.21,1.25-2.46,1.54-3.68.21-.9.43-1.76,1.1-2.45.17-.18.32-.49.6-.35.27.14.14.46.11.7ZM65.27,93.41c-.75.82-1.84,1.53-3.09,1.72-.43.07-.82.05-1.12-.26-.37-.38-.03-.71.11-1.08.74-2,1.09-4.09,1.22-6.2.05-.86.35-.96,1.05-.79.42.1.85.09,1.29.04.71-.07,1.45-.03,1.16,1.09-.14.52.76.86.23,1.43,1.26-.7.75-2.63,2.47-3.11-.81,2.62-1.51,5.19-3.32,7.15ZM71.12,75.78c-.52.45-.73.82-.65,1.46.08.69.18,1.39.14,2.07-.22,3.3-1.97,4.56-5.52,5.57-.83.24-1.71.31-2.6.05-.7-.2-1.24.2-1.52.8-1.33,2.76-4.14,4.22-7.23,3.72-1.25-.2-2.39-.69-3.48-1.29-1.61-.88-3.19-1.03-4.9-.26-1.5.68-3.12,1.03-4.75,1.24-1.71.22-3.34-.23-4.68-1.2-1.25-.9-2.53-1.85-3.48-3.12-.46-.61-1.03-.92-1.78-.87-2.43.19-4.41-.81-6.17-2.35-1.96-1.71-2.02-3.95-.7-6.51.52-1.01.3-1.52-.54-1.92-3.6-1.76-3.11-4.87-.49-7.04,1.19-.98,2.6-1.47,4.02-1.93.45-.15.75-.25.8-.84.25-3.38,1.07-4.23,4.4-4.68.98-.13,1.96-.18,2.94-.31.54-.07.67.1.49.59-.2.55-.56.94-1.12,1.11-.77.24-1.54.46-2.31.67-2.09.58-3.16,2.03-2.94,4.21.1.95.03,1.38-1.12,1.24-1.05-.12-2.09,1.3-2.38,2.91-.31,1.69-.11,3.11,1.47,4.21,1.2.85,1.77,1.83.48,3.54-.99,1.31-.63,2.55.76,3.42,1.15.72,2.44,1.15,3.75,1.05,1.94-.15,3.15.93,4.14,2.25,1.35,1.81,3.16,2.21,5.22,2.1,1.73-.1,3.37-.65,5-1.17,1.19-.38,2.32-.41,3.52.02,1.13.41,2.32.68,3.5.86,2.51.39,4.64-.72,6.6-2.07,1.03-.71,1.94-1.65,2.71-2.68.76-1.01,1.7-1.76,2.95-2.14,1.18-.35,1.78-1.43,2.28-2.41.88-1.72,1.23-3.59.74-5.52-.36-1.41-.81-1.78-2.26-1.88-.68-.05-.77-.35-.64-.94.64-2.97-1.3-5.8-4.29-6.45-.82-.18-.98.39-1.2.79-.28.51.35.51.61.68.7.46,1.45.84,2.12,1.35,1.41,1.07,1.62,3.27.08,5.1-1.31,1.56-1.71,3.07-1.4,5.02.25,1.6-1.42,3.22-3.45,3.57-1.59.27-3.2.26-4.71-.44-.5-.23-.92-.09-1.34.17-1.29.82-2.68,1.03-4.19.91-1.03-.08-1.76.76-2.65,1.12-1.53.63-3.04,1.39-4.78.59-.91-.41-1.49-1.04-1.79-1.94-.21-.64-.52-1.21-.96-1.7-.56-.64-1.28-.83-2.09-.64-1.7.41-2.7-.24-3.07-2.02-.22-1.07.09-2.05.53-2.97.62-1.3.3-2.29-.7-3.23-.49-.46-1.13-.81-1.35-1.54-.49-1.67.07-3.06,1.64-3.83.62-.31,1.27-.57,1.94-.75,1.38-.37,2.21-1.22,2.5-2.6.08-.39.16-.79.24-1.18.42-1.94,1.22-2.66,3.17-2.92.86-.12,1.75-.11,2.56-.5.21-.1.45-.12.62.04.56.52,1.33.78,1.79,1.41.2.28.65.53.42.91-.19.34-.61.02-.92.07-.11.02-.22.01-.33,0-.35-.04-.78-.25-.92.26-.16.56.27.76.69.94,1.23.52,2.43,1.13,3.69,1.56.59.2.77.55.78,1.02.03,1.01.19,2.03-.21,3.03-.21.53-.67,1.2.28,1.64.2.09.24.53-.31.51-.56-.02-.27.73-.92.99.09-1.85-.43-3.51-.69-5.22-.08-.51.03-1.15-.69-1.1-.57.03-.64.59-.63,1.09,0,.1-.04.2-.06.3-.57.02-.86-.3-1.17-.7-.69-.89-1.32-1.84-2.24-2.53-.35-.26-.75-.6-1.16-.17-.43.45-.23.95.1,1.39.41.54,1.12.68,1.59,1.14.1.09.17.22.33.45-.99.02-1.74-.61-2.69-.39-.47.11-.59.39-.73.62-.22.34.22.45.44.6.81.58,1.73.75,2.7.76.86.01,1.66.24,2.35.77.21.16.52.4.42.71-.12.37-.49.2-.77.19-.55-.02-1.09-.12-1.64.01-.47.12-1.01.29-.96.87.05.55.6.67,1.08.75,1,.15,1.97-.1,2.92-.3.95-.21,1.27.1,1.24,1.03-.04,1.31-.02,2.63,0,3.94,0,.29-.15.76.33.79.38.03.33-.43.41-.68.47-1.45.8-2.95,1.8-4.18,1.75-2.15,2.23-2.06,3.36.07.39.73.82,1.57,1.85,1.7.35.04.68.06.85-.3.15-.32.16-.74-.1-.92-.7-.48-.73-1.39-1.38-1.91,1.22.14,2.39.37,3.56.07.29-.07.73.15.82-.33.09-.47-.11-.84-.51-1.13-.73-.54-1.57-.55-2.41-.56-1.35-.01-1.38-.03-1.25-1.32.04-.34.16-.7-.31-.78-.42-.07-.81-.01-.84.57-.03.44-.32.89-.72.8-.64-.15-1-.78-1.31-1.32-.19-.32-.18-.79.27-1.05.09-.05.23-.19.27-.16.77.47,1.46-.34,2.21-.11.14.04.35.03.4.11.91,1.52,2.26.7,3.45.64.5-.02.74-.24.4-.79-.22-.36-.37-.76-.08-1.23.21-.34.3-.52.8-.41.81.17,1.66.12,2.49.2,2.75.27,4.51,1.89,4.86,4.63.17,1.33.72,2.15,1.98,2.72,1.43.64,2.66,1.69,3.61,2.95,1.67,2.22.77,4.93-1.35,6.76ZM28.28,86.75c-.12-.46-.02-.87.42-.99.46-.13.74.24.85.65.32,1.23.64,2.47,1.22,3.62.16.32.25.81.72.64.43-.15.24-.59.18-.95-.18-1.08-.34-2.16-.48-3.24-.03-.24-.01-.59.3-.63.43-.05.24.34.3.55.66,2.75.95,5.59,2.13,8.2.12.26.14.51-.08.7-.28.25-.61.13-.93.05-2.51-.59-4.07-2.33-5.23-4.46-.8-1.47-1.39-3.06-1.7-4.72-.07-.36-.68-1.02.1-1.16.62-.11,1.47.03,1.64.91.19,1.05.51,2.04,1.08,3.01-.16-.74-.31-1.48-.5-2.21ZM30.54,69.49c.22-.13.44-.31.7-.12.2.14.18.38.16.6-.16.93-.3,1.86-.49,2.78-.13.62-.4.7-.85.17-.84-1.02-.61-2.77.48-3.43ZM51.14,80.78c1.06-1.09,1.95-1.94,3.4-1.62.38.08.8-.01,1.2.03.47.05,1.22-.33,1.35.25.13.58-.67.82-1.13,1-1.5.57-3.06.51-4.81.35ZM56.64,57.09c-.25-.44-.58-.24-.93-.06-.51.26-.91.61-1.15,1.12-.21.44-.53.77-.89,1.08-.35.3-.77.62-1.13.25-.26-.27-.09-.76.18-1.09.86-1.05,1.8-2,2.95-2.72.69-.43,2.09-.23,2.64.33.21.21.36.42.13.76-.68.96-1.45,1.8-2.72,2.21.01-.58.41-.7.67-.91.33-.26.45-.6.24-.96ZM83.89,84.96c-.94.32-1.86,1.08-2.96.89-.72-.12-1.37-.37-1.97-.85-.78-.63-1.1-1.03-.74-2.25.37-1.23-.02-2.79-.56-4.12-.27-.68-.37-1.36-.18-2.09.38,1.14.6,2.3,1.07,3.39.23.53.35,1.46,1.01,1.32.41-.09.14-1.07-.03-1.57-.31-.92-.21-1.79-.04-2.69.15-.76.58-.73,1.09-.35.43.32.59.8.7,1.31.23,1.05.49,2.1.85,3.14.15-1.07.27-2.12-.04-3.16-.06-.21-.17-.41-.18-.62-.02-.32-.04-.84.28-.86.52-.03.17.46.25.71.54,1.6.85,3.27,1.23,4.91.03.14.12.28.12.42-.01.88.83,2.24.12,2.49ZM95.84,77.7c-.21,1.77.05,3.56-.22,5.34-.12.78-.67,1-1.12,1.43-2.13,2.02-4.62,2.47-7.39,1.87-.89-.19-1.49-.69-1.81-1.55-.79-2.09-.79-4.28-.98-6.46,0-.69.03-1.39-.02-2.07-.07-.91.29-1.03,1.01-.65,1.09.58,2.05,1.37,3.3,1.67,1.35.33,2.71.58,4.1.53.65-.02.85.2.82.81-.04.62-.06,1.24-.05,1.86,0,.32,0,.73.45.74.37.01.4-.36.46-.64.2-.96.39-1.93.6-2.89.07-.31.24-.56.6-.5.29.04.28.31.25.52ZM105.54,77.55c-1.28,2.3-2.36,4.85-4.65,6.47-1.35.95-2.81.88-4.28.43-.58-.18-.65-.74-.42-1.27.83-1.94,1.13-4.01,1.19-6.07.05-1.48,1.11-2.09,2-2.78.5-.39,1.38.12,2.1.14.91.02.9.63,1.17,1.31.59,1.46-.23,2.58-.49,3.83-.09.45-.32.91-.03,1.36.04.06.23.08.29.04.43-.32.69-.76.64-1.31-.02-.27-.03-.49.16-.71,1.11-1.25,1.55-2.8,1.8-4.39.15-.97.79-1.26,1.55-1.62-.11,1.65-.33,3.32-1.02,4.56ZM76.73,44.84c1.39-3.18,1.44-3.15,5.01-2.89.62.05,1.27.37,1.72-.53.26-.51,1.71,0,2.08.78.51,1.08.81,2.24,1.42,3.29-.09.05-.19.1-.28.15-.34-.54-.67-1.1-1.04-1.62-.16-.22-.37-.49-.73-.29-.3.18-.36.46-.28.76.11.42.23.84.4,1.24.16.36.39.69.68,1.19-1.23-.31-1.87-1.07-2.35-2.01-.27-.52-.46-1.08-.75-1.58-.25-.43-.73-.53-1.16-.36-.49.19-.15.51-.04.81.22.6-.27.5-.54.43-.69-.16-1.38-.16-2.07-.18-.37-.01-.73,0-1.02.29-.2.2-.54.35-.5.67.04.38.39.46.72.57.8.25,1.69.03,2.53.57-.46.26-.87.51-1.37.59-.42.07-.63.38-.66.77-.04.53.44.54.76.61.7.17,1.38.05,2.01-.31,1.08-.61,2.18-.44,3.27-.06.31.11.85.23.58.71-.17.3-.61.57-1.04.33-.38-.21-.75-.66-1.07-.02-.26.52.27.76.58,1.05.37.35.83.43,1.32.33.29-.06.58-.13.86-.13.33,0,.69.09.71.52.02.46-.33.55-.67.51-.91-.08-1.84-.09-2.7-.35-.59-.18-1.07-.18-1.66-.07-.47.09-.78.13-.76.66.02.55.39.7.88.76.69.09,1.33-.29,2.04-.14-.77.56-1.68.72-2.58.79-.73.06-1.49.48-1.38,1,.12.59.98.34,1.54.18q1.98-.55,1.49,1.4c-.04.18-.1.36-.1.54-.02.4-.42.98.16,1.14.57.15.97-.26,1.21-.86.35-.88.78-1.73,1.21-2.57.22-.43.51-.82.89-.1.14.27.39.55.69.28.98-.88.85.03.89.55.11,1.23.17,2.47.26,3.71.02.24-.09.6.28.6.34,0,.32-.36.31-.6-.07-1.39.06-2.76.2-4.14.11-1.13.33-1.18,1.47-1.07,1.05.1,2.08.31,3.13.39.7.06.95-.73,1.61-.56.11.03.1-.22,0-.35-.71-1.03-2.26-1.29-3.28-.48-.48.39-.85.49-1.34.04,1.96-.97,3.9-1.93,5.83-2.89.2-.1.38-.21.56-.34.3-.22.63-.48.36-.89-.25-.38-.58-.09-.88,0-.29.1-.52.42-1,.26.35-.42.7-.77.96-1.18.31-.48.76-1.09.12-1.54-.56-.4-1.01.12-1.36.56-.39.48-.75.99-1.12,1.48-.15.2-.32.39-.65.45-.14-.53.23-.84.4-1.21.18-.4.45-.76.61-1.16.16-.38.5-.88-.03-1.17-.53-.28-.83.14-1.09.59-.59,1.05-1.14,2.12-1.61,3.23-.23.56-.54,1.07-1.2,1.35.3-.68.59-1.37.91-2.04.13-.28.27-.56.07-.82-.23-.29-.53-.08-.8,0-.38.1-.7.4-1.22.3.31-.7.8-1.21,1.29-1.72.28-.29.59-.56.82-.88.28-.4.9-.72.69-1.28-.24-.63-.89-.17-1.48-.23.7-.85,1.58-1.12,2.41-1,1.83.27,3.75.41,5.1,1.99.48.56.96,1.1,1.24,1.78.3.72.83,1.12,1.64.92,2.17-.51,3.64.52,4.63,2.26,1.14,2,2.64,3.63,4.4,5.1,2.01,1.68,2.4,3.55,1.47,6.06-.25.69-.18,1.36-.06,2.05.42,2.41-.27,3.91-2.46,5.05-.75.39-1.18.95-1.38,1.69-.66,2.42-2.36,3.62-4.73,3.62-2.27,0-4.03.73-5.92,2.01-3.11,2.12-6.6,2.46-9.99.3-1.83-1.17-3.66-1.64-5.88-1.03-1.9.52-3.83-.11-5.64-.88-.45-.19-.56-.53-.54-.96.09-1.87-.81-3.31-2.09-4.52-.92-.87-1.85-1.76-2.98-2.39-.79-.44-1.35-1.07-1.48-2.03.51-.14.55.34.73.53,1.18,1.27,2.7,1.93,4.34,2.12,1.65.2,2.4,1.37,3.03,2.54,1.04,1.92,2.95,3.21,5.19,3.11.22,0,.44-.01.65-.06,1.87-.44,3.57-.17,5.39.58,2.41.99,4.94.47,6.89-1.21,1.45-1.25,2.95-1.58,4.71-1.55,1.49.02,2.88-.24,4.06-1.3.73-.65,1.12-1.42,1.33-2.32.26-1.14.76-1.97,1.82-2.67,2.56-1.7,4.48-6.22,1-8.54-1.23-.82-1.96-1.63-2.55-2.93-.67-1.48-2.06-2.44-3.51-3.19-.46-.24-1.1-.44-1.38.04-.34.59.25.86.75,1.07,1.04.44,1.8,1.23,2.42,2.15.7,1.05.97,2.21.05,3.23-.79.87-.71,1.74-.45,2.73.54,2.05.35,2.62-1.61,3.4-1.58.63-2.5,1.79-3.5,3.03-1.27,1.57-4.81,1.61-6.31.23-1.35-1.24-3.26-1.25-4.75-.12-1.87,1.42-4.08,1.45-6.27,1.34-.9-.05-1.28-1.03-1.8-1.66-1.24-1.48-1.41-1.56-3.23-.99-1.54.48-3.05-.46-3.32-2.16-.13-.86-.05-1.75.29-2.59.07-.17.17-.35.38-.33.22.02.23.24.28.41.36,1.29,1.29,2.08,2.62,2.23.21.02.47.15.59-.09.16-.32-.15-.41-.35-.57-.89-.73-1.89-1.32-2.44-2.43-.5-1.01-.32-1.91.23-2.79.53-.86.63-1.57-.17-2.4-1.22-1.26-1.13-2.04.19-3.23,1.18-1.07,2.53-1.93,3.21-3.5ZM72.31,45.74c.29-.08.74-.17.89.17.18.41-.3.5-.53.7-.47.4-.97.77-1.46,1.16-.48.37-.96.85-.91,1.43.09,1.05-.42,1.5-1.29,1.78-1.1.35-.84,1.4-1.07,2.18-.1.34-.07.73-.18,1.06-.09.28-.35.42-.56.07-.18-.28-.14-.83-.67-.66-.43.14-.46.62-.56,1-.06.25-.13.49-.15.55-.05.46.04.76.24.88.72.42.23,1.05.22,1.52-.01.5-.51.64-1,.35-1.03-.6-2.17-.88-3.33-1.03-1-.13-1.37-.67-1.47-1.57-.1-.93.36-1.48,1.13-1.91,1.19-.66,2.47-1.06,3.73-1.54,1.24-.48,2.35-1.09,2.05-2.73-.17-.92.66-1.12,1.14-1.52,1.09-.92,2.39-1.5,3.76-1.89ZM70.95,40.53c-.57.92-.81,1.93-.91,2.99-.1.98-.84,1.34-1.65,1.69-1.34.58-2.65,1.24-3.26,2.72-.11.27-.25.52-.21.83.1.81-.46,1.07-1.08,1.27-.73.23-1.47.43-2.19.68-1.75.6-2.66,1.94-3.15,3.63-.07.24-.01.54-.32.62-.46.12-.23-.36-.36-.46-.66-.5-1.44-.41-2.17-.25-.41.09-.73.15-.92-.26-.21-.47-.34-.93.48-.95.69-.02,1.38-.11,2.07-.18.23-.02.45-.1.48-.37.04-.33-.23-.31-.44-.34-.75-.09-.57-.48-.31-.91.08-.12.17-.23.25-.36.27-.45.32-.92-.1-1.29-.4-.36-.83-.11-1.22.08-.45.22-.6.72-.94,1.06-.44-.24-.17-.66-.27-.97-.19-.62-.43-1.27-1.21-1.16-.73.1-.79.8-.79,1.38,0,.5.15,1.01.21,1.51.03.24.12.56-.22.65-.31.08-.44-.21-.55-.43-.19-.39-.36-.8-.53-1.2-.26-.61-.69-1-1.36-.77-.62.21-.52.76-.47,1.3.04.57.67,1.17.26,1.62-.37.41-1.02-.07-1.55-.12-.33-.03-.66-.03-.93.32.6.5,1.12,1.06,1.84,1.45.96.52,1.06,1.57,1.26,2.54.08.38-.23.95.51,1.05.21.03.12.31.02.47-.26.44-.51.88-.8,1.3-.15.22-.2.64-.59.51-.34-.11-.32-.47-.27-.76.18-1.04-.04-2.03-.26-3.03-.09-.41-.05-1.03-.65-.95-.64.09-.3.7-.33,1.1-.01.17.04.34.06.51-.72-.45-1.01-1.08-1.02-1.78-.03-1.35-.39-2.55-1.26-3.59-.3-.36-.59-.8-1.17-.59-.6.22-.67.7-.59,1.26.03.17.14.35-.03.53-.46-.02-.67-.51-1.1-.63-.29-.08-.54-.21-.77.13-.57.85-1.27,1.02-2.17.49-1.95-1.14-3.23-2.65-3.83-5-.4-1.57-.73-3.27-1.62-4.74-.27-.44-.53-.96-.35-1.66.44.44.55,1,.75,1.42.84,1.72,2.4,2.26,4.04,2.66.69.17,1.06.44,1.23,1.16.24,1.01.61,1.99.99,3.18.14-1.14-.44-1.95-.43-2.86,0-.61-.03-1.29.66-1.35.66-.06,1.69-.38,1.72.96.02.85.43,1.61.72,2.4.09.23.22.52.53.46.35-.06.27-.38.28-.62.03-.65.06-1.31.1-1.96.01-.22.02-.48.28-.53.25-.05.4.16.49.35.2.42.45.85.51,1.29.18,1.13.26,2.27.39,3.41.03.29.09.71.41.67.39-.05.35-.47.3-.8-.21-1.65-.35-3.3-.17-4.95.11-1.01.32-1.1,1.12-.46.82.65,1.79.8,2.77.88,3.17.27,5.88-.79,8.17-2.96.1-.1.22-.18.39-.32.28.58.02,1.11.02,1.62,0,.29-.14.58-.12.86.03.49-.09,1.28.42,1.35.64.08.31-.74.43-1.12.28-.89.16-1.89.64-2.74.21-.38.47-.84.99-.7.55.15.3.69.26,1.04-.14,1.23-.23,2.46-.25,3.7,0,.28-.03.54.27.62.36.09.39-.25.47-.47.48-1.33.94-2.66,1.44-3.98.23-.61.31-1.41,1.38-1.05.42.14.79-.27,1.08-.62.3-.36.65-.58,1.15-.42.65.21.17.67.23,1.01.06.33-.19.83.32.92.43.08.74-.26.87-.68.27-.86.57-1.71.98-2.53.13-.25.19-.51.51-.4.35.12.25.41.12.63ZM32.15,45.66c-.57-.22-.59-.49-.44-1.01.09-.31-.05-.72-.17-1.06-.28-.77-.03-1.54-.01-2.31.01-.76.72-.29,1.08-.46.56-.27.68.25.79.62.4,1.32.75,2.67,1.16,3.99.37,1.18.73,2.37,1.23,3.51.39.9-.02,1.04-.73,1.02-1.73-.04-3.09-.77-3.99-2.28-.79-1.32-1.29-2.76-1.72-4.24-.41-1.39-1-2.72-1.54-4.15,1.62.64,1.93,1.9,2.23,3.31.28,1.3.93,2.52,1.47,3.75.17.39.48.75.99.75.16,0,.33-.07.28-.24-.13-.45-.17-1.02-.64-1.21ZM24,25.97c1.44-1,2.9-1.96,4.36-2.93.67-.44.99-.93.31-1.84.88.29,1.16-.13,1.32-.71.35-1.23,1.33-1.66,2.44-1.92.5-.12.77.01.71.6-.12,1.27-.23,2.54-.3,3.82-.03.49-.13.62-.57.32-.8-.55-1.57-.72-2.27.18-.1.13-.31.19-.48.26-1.65.66-2.38,2.12-1.91,3.86.06.21-.04.75.57.39.29-.17.31.29.38.51.36,1.14.6,2.32,1.19,3.38.93,1.68,2.25,2.85,4.1,3.39.87.26,1.77.45,2.59.87.66.34,1.19.8,1.61,1.43,1.08,1.6,2.53,2.53,4.54,2.62,1.93.09,3.79-.21,5.64-.63.6-.14,1.08-.08,1.65.22,2.45,1.28,4.82,1.35,7.18-.4,1.24-.92,2.88-.97,4.38-1.24,3.24-.59,4.7-1.94,5.21-5.16.22-1.38.91-2.36,1.92-3.18,2.27-1.84,2.41-4.3.33-6.4-.18-.18-.36-.38-.57-.51-1.4-.84-2.79-1.7-4.02-2.79-.24-.21-.58-.31-.88-.43-.24-.09-.53-.12-.71.1-.25.31.11.44.26.61.69.75,1.41,1.47,2.09,2.23.48.53.74,1.18.7,1.9-.04.79-.17,1.38-1.13,1.72-1.69.59-2.6,1.96-3.02,3.71-.34,1.43-.3,3.01-1.58,4.1-.6.5-1.19.91-2.02.97-.98.07-1.94.35-2.92.44-1.11.1-1.84.85-2.68,1.39-.64.41-1.19.42-1.81.05-.37-.22-.72-.52-1.21-.43-2.15.42-4.19-.26-6.28-.56-.35-.05-.66-.14-.86-.4-.78-.97-1.84-1.35-3.01-1.58-2.87-.57-4.88-3.53-4.64-6.31.03-.34.28-.93-.18-1.02-.67-.12-.64.53-.69,1-.11.99.28,1.85.7,2.7.17.34.39.73.01.97-.43.28-.64-.22-.84-.47-.53-.69-.76-1.52-.68-2.35.04-.45.06-.88-.04-1.29-.33-1.37.37-2.29,1.28-3.16.66-.63,1.08-1.47,1.04-2.33-.11-1.98.73-3.43,2.19-4.63.48-.39.72-.82.62-1.51-.14-1.02.43-1.67,1.42-1.87,1.79-.36,3.54-.84,5.24-1.53.91-.37,2.39.4,2.94,1.42.58,1.09,1.11,2.21,1.7,3.41-.78-.2-.89-.94-1.31-1.36-.24-.24-.38-.75-.83-.52-.46.23-.32.74-.17,1.08.27.63.66,1.21,1,1.81-1.11-.22-2.27-1.25-2.59-2.27-.12-.38-.26-.76-.47-1.09-.21-.32-.6-.46-.96-.36-.4.12-.4.5-.28.83.25.65-.14.61-.54.5-.8-.21-1.6.04-2.4-.02-.51-.04-.73.34-.83.72-.13.48.3.6.64.72.77.28,1.65.05,2.42.49-.34.56-1.01.22-1.38.61-.25.26-.63.46-.53.89.09.43.49.5.86.54.67.08,1.3-.06,1.91-.34.95-.43,1.92-.35,2.89-.09.28.07.65.19.61.52-.05.41-.47.4-.79.4-.41,0-1.05-.29-1.11.26-.05.43.49.85.98,1.06.56.24,1.14.18,1.73.16.28,0,.69-.07.71.3.03.4-.28.69-.71.64-.87-.1-1.77-.11-2.57-.4-.63-.23-1.13-.08-1.68.06-.39.1-.69.32-.62.77.08.51.5.61.92.54.6-.1,1.17-.34,2.02-.27-.87.55-1.7.6-2.45.86-.27.09-.58.1-.86.18-.46.13-.95.53-.89.88.09.49.7.41,1.13.33.64-.13,1.28-.31,1.92-.46.68-.16.9.08.65.75-.21.58-.38,1.18-.56,1.77-.12.36-.24.77.18.96.43.2.81-.08.99-.46.41-.85.75-1.73,1.13-2.59.12-.27.24-.53.4-.77.2-.29.43-.54.73-.07.4.64.88.51,1.38-.02.47,1.74.17,3.48.58,5.14.47-.06.52-.38.5-.65-.1-1.36.32-2.68.28-4.03-.02-.69.27-.83.85-.77,1.26.14,2.53.22,3.77.45.62.11,1.15-.06,1.72-.14.3-.04.55-.21.59-.56.03-.36-.24-.49-.5-.64-1.27-.71-2.52-.75-3.76.08-.06.04-.14.06-.21.05-.07,0-.13-.05-.26-.1.11-.53.55-.72.95-.92,1.44-.73,2.88-1.43,4.32-2.17.25-.13.48-.34.68-.54.17-.16.21-.39.07-.6-.14-.22-.37-.23-.59-.14-.44.19-.86.4-1.29.59-.17.08-.38.13-.49-.06-.11-.2.06-.36.22-.42.5-.19.9-.55,1.19-.94.31-.42.59-1.04,0-1.46-.5-.36-.98-.07-1.32.38-.4.52-.76,1.07-1.17,1.59-.19.24-.34.57-.81.58.15-.95.84-1.63,1.09-2.48.12-.4.44-.87-.12-1.15-.6-.29-.81.16-1.03.63-.61,1.32-1.27,2.63-1.91,3.94-.12.25-.2.56-.61.63-.04-.71.46-1.22.64-1.82.1-.34.37-.74.08-1.04-.28-.28-.68-.06-1.03.04-.27.08-.58.56-.83.1-.19-.34.24-.57.44-.8.57-.66,1.2-1.28,1.77-1.94.27-.31.74-.66.36-1.13-.41-.51-.85-.1-1.26.12-.09.05-.19.07-.44.16.42-.9,1.33-1.25,1.64-2.05.02-.06.23-.13.26-.1.96.96,2.33.58,3.47,1.04,1.5.61,2.59,1.42,3.18,2.9.74,1.88.96,2.03,2.92,1.66,1.87-.35,3.62-.25,5.17,1.03.86.71,1.64,1.39,1.55,2.69-.08,1.19.39,2.2,1.38,2.95.34.26.62.61.91.94,2.17,2.49,1.73,4.95-1.18,6.56-.29.16-.59.29-.89.41-1.04.43-1.16.72-.64,1.7s.21,2.52-.67,3.53c-1.97,2.26-4.57,2.78-7.35,2.58-1.48-.11-2.43.44-3.42,1.46-2.6,2.71-5.81,3.57-9.46,2.65-.67-.17-1.33-.42-1.96-.69-2.1-.91-4.25-.34-6.38-.21-1.21.07-2.42.2-3.52-.47-1.06-.64-1.88-1.45-2.08-2.77-.19-1.27-1.08-1.99-2.44-2.01-2.03-.03-3.72-.98-5.39-1.94-.83-.48-1.09-1.35-.91-2.3.08-.43.25-.84.41-1.25.52-1.35.44-1.66-.86-2.37-.64-.35-1.34-.57-1.99-.9-2-1.03-2.08-2.31-.22-3.59ZM140.39,86.39c-2.11,2.36-4.39,4.53-6.81,6.58-1.23,1.04-2.56,1.9-3.83,2.87-1.94,1.49-4.15,2.54-6.26,3.76-3.89,2.25-8.03,3.98-12.27,5.45-4.94,1.71-10.01,2.92-15.13,3.95-.32.07-1-.24-.85.58,0,.02-.2.13-.25.1-1.4-.84-2.76.16-4.15.15-1.58-.01-3.19.24-4.78.41-3.37.36-6.75.41-10.14.41-7.36,0-14.61-.92-21.81-2.43-2.57-.54-5.06-1.25-7.56-2-5.7-1.72-11.23-3.86-16.47-6.7-8.99-4.86-16.4-11.45-22.1-20-5.9-8.84-6.7-18.4-3.97-28.3,1.1-3.98,2.79-7.82,5.27-11.35,2.14-3.05,4.33-5.94,7.15-8.34,1.27-1.08,2.59-2.11,3.99-3.25.28,1.38.89,2.36,2.04,2.96.41.21.52.67.31,1.04-.31.56-.39-.09-.58-.17-.21-.08-.32.13-.46.22-6.4,4.53-11.24,10.3-13.8,17.78-1.82,5.32-2.44,10.8-1.75,16.41.13,1.08.5,2.1,1.13,3.02-.55-3.41-.69-6.81-.44-10.25.36-4.84,2.07-9.23,4.44-13.4,2.8-4.92,6.52-9.03,10.87-12.62.45-.37.73-.52.82.22.11.92.53,1.75.88,2.58,1.51,3.56,3.04,7.11,4.69,10.61,1.29,2.75,3.47,4.44,6.58,4.53,1.71.05,2.62,1.27,3.81,2.1.33.23.14.49-.17.52-1.39.12-2.1,1.23-3.02,2.03-.58.5-1.18.8-1.96.82-1.64.04-3.28.19-4.85.73-1.92.65-3.1,1.91-3.21,3.98-.05.93-.42,1.4-1.35,1.68-2.02.59-3.68,1.77-4.86,3.53-.95,1.43-1.21,3-.62,4.65.35.96.77,1.89,1.11,2.86.43,1.23.9,2.42.82,3.8-.1,1.68.7,3.19,1.4,4.67,1.07,2.25,1.95,4.55,2.62,6.95.32,1.15,1.07,2.11,1.76,3.09-.32.12-.49-.08-.62-.21-1.81-1.9-4.07-3.27-6.03-4.96-2.58-2.23-5.01-4.67-7.13-7.4-1.67-2.15-3.07-4.44-4.39-6.8-.17-.31-.38-.59-.71-1.1-.07,1.28.32,2.18.76,3.02,2.2,4.29,5.15,7.99,8.61,11.37,4.44,4.34,9.53,7.7,14.95,10.58,3.53,1.88,7.08,3.75,10.89,5.08,1.75.61,3.46,1.39,5.24,1.87,3.2.87,6.45,1.54,9.7,2.2,6.79,1.37,13.67,1.89,20.58,1.94,3.59.03,7.2-.36,10.77-.87,1.51-.22,3.03-.43,4.55-.53,1.59-.1,3.04-.75,4.59-.99,6.48-1.01,12.64-3.14,18.66-5.63,5.73-2.36,10.85-5.76,15.58-9.77,2.14-1.82,4.28-3.64,5.93-5.94.27-.37.46-.28.7-.09.39.32.76.68,1.14,1.02.36.32.28.63,0,.94ZM150.96,81.73c-.8,4.09-4.11,5.02-6.73,3.66-2.9-1.51-5.1-3.76-6.96-6.38-4.07-5.71-7.99-11.52-11.63-17.52-4.42-7.28-9.12-14.37-14.76-20.79-1.02-1.16-2.17-2.16-3.37-3.12-.64-.51-1.39-.8-2.2-.9-.69-.09-1.38-.19-2.07-.24-3.52-.3-6.25-1.96-8.51-4.62-4.2-4.95-7.84-10.26-11.01-15.92-.12-.22-.21-.45-.32-.68.06-.03.11-.06.17-.09,2.15,3.08,4.25,6.19,6.45,9.23,1.71,2.36,3.42,4.75,5.96,6.34.4.25.87.75,1.36.4.56-.4.52-1.1.36-1.72-.16-.64-.47-1.22-.89-1.74-3.46-4.31-6.53-8.88-9.37-13.62-.12-.2-.33-.39-.24-.79.62.54.95,1.22,1.4,1.8,2.57,3.28,4.84,6.77,7.18,10.21.74,1.09,1.56,2.11,2.49,3.05.1.1.19.24.31.31.67.38,1.43.87,2.13.4.67-.45.39-1.27.15-1.92-.45-1.24-1.1-2.38-1.9-3.43-2.6-3.44-5.25-6.84-7.43-10.57-.16-.27-.44-.49-.41-.95.46.2.65.58.89.91,2.69,3.82,5.37,7.65,8.06,11.47.63.9,1.39,1.69,2.26,2.36.58.44,1.19.86,1.86.3.85-.72.96-1.63.3-2.4-1.36-1.59-2.3-3.46-3.48-5.18-.1-.15-.16-.32-.17-.53.79.51,1.18,1.37,1.74,2.07,2.08,2.63,4.07,5.34,5.83,8.2.56.91.69,1.66-.28,2.47-1.16.97-.92,1.94.17,3,1.4,1.37,2.67,2.89,3.88,4.43,6.4,8.08,13.4,15.64,20.32,23.26,5.7,6.27,11.7,12.25,17.93,18,.37.34.63.72.52,1.24ZM163.36,78.47c.63,1.08.3,1.92-.9,2.29-1.99.61-3.67.03-5.26-1.29-5.47-4.55-9.35-10.4-13.27-16.2-3.55-5.26-6.95-10.63-10.43-15.95-.1-.15-.22-.27-.34-.4-.08.05-.16.11-.24.16,1.77,3.01,3.48,6.07,5.34,9.03,3.83,6.12,7.42,12.42,11.8,18.18,1.59,2.09,3.25,4.14,5.28,5.83,1.82,1.51,3.84,2.49,6.33,2.19.76-.09,1.4-.35,2.02-.75.15-.1.32-.24.49-.07.2.2.07.41-.07.58-.09.11-.2.23-.33.28-2.02.73-3.93,1.71-6.21.54-2.55-1.31-4.44-3.29-6.22-5.42-3.2-3.83-5.64-8.16-8.32-12.34-2.3-3.59-5.13-6.83-7.14-10.63-1.7-3.23-3.5-6.41-5.3-9.58-.34-.6-.17-.81.37-1.03.87-.36,1.79-.58,2.62-1.08.48-.29.75.19,1,.51,1.49,1.89,2.96,3.79,4.45,5.69,7.31,9.35,14.75,18.59,22.76,27.34.59.64,1.11,1.36,1.55,2.11Z"/>
</svg>