<?xml version="1.0" encoding="UTF-8"?>
<svg id="Lag_1" xmlns="http://www.w3.org/2000/svg" viewBox="0 0 169.81 134.77">
  <g id="cBBhfi.tif">
    <g>
      <path d="M146.96,87.11c-.49,1.32-.9,2.51-1.38,3.69-5.15,12.63-12.56,23.58-23.75,31.65-9.41,6.79-19.89,10.82-31.46,11.98-9.55.96-18.87-.1-27.9-3.29-11.49-4.05-21.15-10.8-28.77-20.32-6.5-8.12-11.21-17.2-13.98-27.25-1.83-6.63-2.42-13.42-2.14-20.27.15-3.59.51-7.18,1.38-10.68.18-.72.05-1.22-.61-1.61-.54-.33-1.03-.76-1.55-1.13-.2-.14-.37-.46-.68-.26-.23.15-.15.42-.15.65-.05,2.75,0,5.51-.15,8.26-.15,2.82-.5,5.62-.39,8.45.18,4.5.35,9,.62,13.49.39,6.57.72,13.15,1.37,19.71.16,1.61.44,3.21,1.13,4.68.86,1.84,2.2,3.03,4.37,3.24,1.54.14,3.08.2,4.62.32,1.28.1,2.52.36,3.71.89,1.2.53,1.84,1.4,1.81,2.74-.03,2-.63,3.85-1.67,5.53-2.46,3.98-6.13,6.3-10.58,7.5-3.06.83-6.16,1.13-9.27.48-4.88-1.02-8.83-3.46-10.7-8.24-1.65-4.23-.85-4.64,2.65-5.92,2.11-.77,4.29-1.37,6.35-2.29,1.63-.73,2.51-2.02,2.82-3.68.58-3.03.43-6.11.03-9.14-1.01-7.8-1.76-15.62-2.61-23.44-.29-2.64-.48-5.29-.76-7.92-.07-.7-.2-1.41-.44-2.06-1.87-4.92-2.53-10.1-3.14-15.26-.71-6.07-1.32-12.16-1.28-18.29.02-3.36-.12-6.73.38-10.06.18-1.23.43-2.45,1.35-3.41,1.49-1.55,3.85-1.3,4.99.53,1.18,1.91,1.53,4.08,1.94,6.21,1.16,6.15,1.98,12.34,2.34,18.58.01.19-.05.47.17.53.32.09.45-.24.6-.44,1.44-1.9,2.88-3.8,4.29-5.72,1.98-2.68,3.93-5.36,5.9-8.05.87-1.19,1.29-1.33,2.47-.44.79.59,1.16.49,1.75-.29,7.99-10.66,18.25-18.31,30.77-22.87,5.84-2.13,11.88-3.31,18.1-3.72,10.49-.7,20.59.96,30.22,5.1,14.9,6.4,26,16.92,33.41,31.33,1.21,2.36,2.25,4.81,3.13,7.32.1.28.1.6.5.85.27-1.29.06-2.55.06-3.78-.01-6.42-.06-12.84-.15-19.25-.01-.97.28-1.54,1.22-1.77.1-.02.19-.08.28-.11,2.16-.79,3.09-.55,4.64,1.18.38.43.34.92.33,1.43-.32,13.44-.65,26.88-.96,40.32-.49,21.13-.96,42.27-1.45,63.4-.01.64-.03,1.28-.05,1.91-.04,1.25-.68,1.91-1.79,1.86-.8-.04-1.37-.81-1.38-1.89-.1-13.24-.2-26.48-.31-39.73,0-.35.13-.74-.27-1.21ZM84.96,4.81c-12.46.13-22.72,2.92-32.2,8.47-7.22,4.23-13.32,9.74-18.34,16.44-.46.62-.48.97.21,1.43,1.75,1.18,3.48,2.41,5.17,3.69.72.54,1.14.46,1.74-.22,6.89-7.91,15.3-13.6,25.32-16.73,13.64-4.26,27.08-3.5,40.12,2.34,9.01,4.03,16.39,10.15,22.21,18.16,5.15,7.09,8.47,14.95,9.89,23.58,1.85,11.27.47,22.16-4.26,32.59-3.72,8.19-9.14,15.07-16.17,20.68-6.07,4.85-12.88,8.24-20.36,10.26-4.83,1.3-9.76,1.88-14.76,1.88-.35,0-.9-.11-.91.37,0,.55.56.3.87.31,3,.04,5.97-.2,8.94-.63,13.5-1.92,25.14-7.69,34.75-17.29,11.08-11.05,17.18-24.51,18.03-40.16.96-17.64-4.65-33.07-16.77-45.9-12.13-12.85-27.3-19.02-43.47-19.27ZM149.18,66.95c-.06-9.05-1.57-16.91-4.55-24.45-4.01-10.16-10.16-18.82-18.52-25.88C114.4,6.69,100.83,1.51,85.51,1.04c-10.42-.32-20.35,1.84-29.78,6.36-9.42,4.51-17.29,10.92-23.65,19.17-1.58,2.04-1.71,1.43.54,3.15.61.46.91.32,1.36-.26,3.09-4.13,6.62-7.85,10.62-11.13,7.98-6.55,17.04-10.82,27.14-12.84,8.13-1.63,16.29-1.57,24.43.07,10.33,2.08,19.56,6.49,27.56,13.31,11.94,10.2,19.19,23.09,21.48,38.67,1.5,10.21.49,20.19-2.98,29.89-3.99,11.12-10.66,20.35-19.9,27.71-8.63,6.88-18.45,11.08-29.32,12.77-6.25.97-12.51.88-18.77-.1-9.33-1.45-17.9-4.83-25.61-10.22-11.98-8.38-20.11-19.63-24.32-33.65-2.68-8.94-3.14-18.06-1.68-27.23.32-1.99-.25-2.97-1.77-3.88-.65-.39-.93-.45-1.01.39-.01.17-.08.33-.11.49-3.19,17.6-.11,33.99,9.74,48.95,7.01,10.64,16.45,18.56,28.14,23.68,13.38,5.86,27.22,7.01,41.42,3.72,8.18-1.89,15.69-5.35,22.53-10.22,8.89-6.34,15.84-14.38,20.7-24.17,2.29-4.61,3.97-9.42,5.11-14.49,1.13-5.03,1.73-10.05,1.81-14.23ZM44.34,67.99c.3.47.17.91.2,1.33.02.37.01.73.37.99.73.53,1.44,1.08,2.16,1.62.23.17.38.29.64-.05,1.02-1.3,1.62-2.64,1.41-4.39-.17-1.41-.05-2.86.96-4.1.7-.86,1.51-1.08,2.43-.43.26.19.53.36.86.58.11-.92.78-1.48,1.26-2.07.43-.53.12-1.63,1.19-1.67.04,0,.11-.25.09-.37-.08-.7.16-1.14.9-1.28.16-.03.35-.23.41-.4.62-1.74,1.89-3.08,2.86-4.6.21-.34.35-.72.04-1.01-.28-.26-.48-.78-.89-.7-.38.07-.1.61-.31.88-.02.02-.05.02-.22.09-.01-1.02-.03-2.03-1.03-2.61-.43-.25-.86-.54-1.2-.89-1.98-2-4.28-3.62-6.45-5.4-1.51-1.24-3.13-2.35-4.67-3.56-.78-.61-1.58-1.35-2.42-1.69-.87-.36-1.15-1.91-2.47-1.27-.02-.06-.03-.12-.06-.17-.64-1.37-2.04-1.92-3.15-2.74-1.02-.76-1.12-.62-1.47.63-.24-.38-.15-.74-.15-1.1,0-.55-.2-1.1-.73-1.2-.55-.11-.68-.82-1.35-.72-.44.07-.25-.66-.7-.78-.21-.06-.37-.28-.57-.41-1.25-.85-2.55-1.63-3.73-2.6-.66-.54-1.45-.18-1.69.74-.09.35-.09.73-.09,1.1,0,1.71.01,3.41.02,5.12-.08,0-.15,0-.23,0l-.03-5.67c-.97.73-1.44,1.65-1.99,2.45-1.25,1.78-2.44,3.59-3.82,5.28-.84,1.02-1.66,2.07-2.38,3.17-.56.86-1.18,1.67-1.85,2.43-.68.77-1.72,1.34-1.19,2.65.05.12-.02.33-.24.35-.28-.21.12-.86-.48-.82-.4.03-.82,1.58-.53,1.88.58.62,1.39.95,2.02,1.55.68.65,1.59,1.03,2.32,1.65.75.64,1.76,1.02,2.38,1.75.58.69,1.43.86,2.07,1.48.94.9,2.03,1.79,3.2,2.5.16.1.29.33.51.25.29-.1.22-.39.22-.61,0-.8,0-1.6,0-2.39.17.56.16,1.13.17,1.7.04,1.23.42,2.29,1.52,2.97,1.21.75,2.28,1.73,3.44,2.51,2.52,1.68,4.51,4.01,7.15,5.51,1.45.82,2.41,2.32,3.92,3.11.4.21.42,1.04,1,.78.47-.21-.05-.9.37-1.37ZM101,95.56c-.16-.31-.2-.41-.26-.48-4.72-5.65-4.49-12.94.6-18.22,5.57-5.78,15.56-5.13,19.97.67,2.11,2.77,2.72,5.75,1.35,8.99-1.35,3.21-3.67,5.11-7.3,5.25-3.59.14-6.34-1.28-7.75-4.17-1.39-2.84-.95-5.89,1.19-8.35,2.07-2.38,6.35-2.62,8.55-.49,2.1,2.03,2.22,4.78.25,6.35-1.34,1.07-2.88,1.36-4.45.69-1.25-.53-1.84-1.64-1.93-2.97-.07-1.08.3-1.98,1.19-2.63.21-.15.49-.34.7-.02.18.27-.08.43-.26.57-.71.58-.99,1.34-.89,2.24.19,1.7,1.58,2.64,3.45,2.34,1.89-.29,3.17-1.9,2.78-3.53-.43-1.8-1.46-3.12-3.29-3.59-2.07-.53-3.98-.07-5.47,1.48-2.83,2.94-2.27,6.75-.06,9.21,2.32,2.58,7.61,2.93,10.09.81,3.97-3.4,4.25-8.67.65-12.46-3.59-3.78-9.6-4.87-14.61-2.4-8.18,4.03-9.04,12.16-5.15,18.55.83,1.37,1.96,2.51,3.8,2.42.25-.01.58.16.74-.13.17-.3-.15-.47-.29-.69-1.49-2.29-2.43-4.78-2.83-7.48-.05-.35-.11-.83.41-.87.45-.03.48.41.51.74.15,1.77.86,3.37,1.49,5,1.09,2.8,3.2,4.28,6.05,4.69,3.6.53,7.23.58,10.86.23,1.71-.16,3.37-.52,4.73-1.76,2.01-1.82,3.15-4.07,3.62-6.7.61-3.4.92-6.82-.34-10.14-.77-2.01-1.7-3.96-2.96-5.71-2.31-3.21-5.17-5.75-9.14-6.71-2.82-.68-5.7-.9-8.59-1.04-8.02-.38-14.81,6.38-16.79,12.54-1.8,5.58.2,10.46,3.32,14.96,1.35,1.95,3.61,2.52,6.08,2.8ZM12.87,49.21c.01-.35.26-.45.37-.63.2-.34,1.2-.75-.12-1.03-.21-.04-1.04-.92-.8-1.41.49-1.02.68-2.33,1.85-2.86.68-.31.75-.72.69-1.35-.29-2.91-.53-5.82-.86-8.73-.37-3.2-.82-6.38-1.44-9.55-.45-2.28-.8-4.55-1.87-6.64-.85-1.66-2.72-2-4.01-.69-.81.82-1.02,1.88-1.15,2.95-.59,4.96-.42,9.93-.23,14.9.33,8.41,1.35,16.73,3.12,24.96.35,1.63,1.19,3.08,1.43,4.7.29,1.89.47,3.8.66,5.7.44,4.24.81,8.49,1.29,12.73.51,4.54.92,9.09,1.56,13.61.42,2.99.61,6.02.16,9.04-.24,1.64-.93,3.07-2.23,4.18-.33.28-1.02.34-.78,1.08.03.1-.3.31-.38.17-.38-.71-.84-.18-1.2-.07-1.12.34-2.2.9-3.34,1.1-1.73.31-2.75,1.77-4.3,2.34-.11.04-.2.18-.27.29-.19.29-.04.52.16.71.24.23.46.58.83.48.32-.09.07-.39.05-.61-.03-.43.16-.54.56-.38.39.15.67.38.88.77.17.3.27.77.79.78.08-.58-.68-.81-.43-1.47.52.5.85.19,1.08-.29.65.63.66,1.68,1.57,2,.31-.42-.36-.68-.06-1.05.48.21.42.95,1,.99.25-.36-.23-.59,0-.96.22.34.36.73.63.92,1.31.92.2-.68.68-.67.27.31.31.93.83.91,2.04-.06,4.09.15,6.1-.42.53-.15.5-.47.38-.84-.22-.71-.22-1.41-.09-2.13.19.65.21,1.31.38,1.96.25.96.89.76,1.57.72.76-.04.74-.52.75-1.04,0-.57,0-1.14.03-1.71.03-.81.08-1.61.13-2.42h.28c0,1.62.02,3.23.02,4.84.49-1.08.51-2.22.67-3.54.12.72-.02,1.25.26,1.86.39-.74.16-1.44.44-2.18.27,1.42-.05,2.68-.09,3.96.8-1.32.79-2.82,1.03-4.24.33,1.17-.3,2.33-.13,3.7.19-.51.3-.84.43-1.17.14-.33.03-.74.37-1.07.13.67-.05,1.25-.18,1.83-.05.21-.19.49.1.63.55.26,1.92-.51,2.09-1.13.16-.58.2-1.19.61-1.91.04.82-.12,1.4-.25,1.99-.04.16-.05.36.14.43.25.1.36-.09.45-.28.15-.33.07-.77.39-1.01.36.35-.45.85.17,1.06.48.16.29-.5.58-.67.19.23.18.61.67.58,1.38-.11,2.09-.65,2.46-2.01.14-.54.07-1.28.41-1.61.44-.42,1.09.31,1.77.15-.3-.36-.65-.51-1.04-.63-1.26-.41-2.55-.53-3.86-.64-1.57-.12-3.17.06-4.7-.39-3.43-1.01-4.43-4.07-5.46-6.94-.44-1.24.32-2.71.02-4.11-.22-1.03-.4-2.14-.39-3.12.03-2.09-.29-4.13-.35-6.2-.15-5.07-.66-10.12-.75-15.2-.05-2.82-.53-5.64-.26-8.45.38-3.99.53-7.97.5-11.97,0-1.11-.03-2.22-.02-3.33,0-.52-.15-.94-.62-1.17-.52-.26-.69.25-.97.49-.2.17-.35.41-.77.43ZM66.23,37.91c.16,8.84,8.19,15.07,16.44,12.77,8.98-2.51,14.39-8.65,16.57-17.63.78-3.21.19-6.31-2.03-8.9-1.95-2.27-4.58-3.31-7.47-3.52-7.85-.58-14.43,2.19-19.72,7.95-2.46,2.69-3.73,5.95-3.78,9.32ZM73.97,93.16c.22.85-.02,1.21-.84.91-.86-.31-1.6-.15-2.17.57-.56.71-.6,1.45-.1,2.24.29.45.19.75-.42.79-1.49.11-2.15.94-1.7,2.42.25.82.2,1.27-.5,1.84-.99.81-.88,2.31.16,3.04.47.33.46.59.28,1.08-.64,1.77-.13,2.72,1.66,3.07.65.13.78.44.82,1.03.12,1.92,1.7,2.75,3.35,1.74.59-.36.87-.28,1.16.32.89,1.83,2.56,2.27,4.2,1.05.76-.57,1.06-.44,1.34.4.3.94,1.12,1.19,1.99,1.28.82.09,1.59-.11,1.98-.9.46-.94.88-1.01,1.62-.25.66.67,1.54.86,2.42.43.79-.38,1.06-1.08.94-1.94-.09-.63.17-.81.8-.79,2.02.06,2.76-1.08,1.89-2.9-.23-.49-.23-.74.32-1.02,1.12-.55,1.37-1.23.83-2.28-.36-.71-.29-1.17.23-1.78.7-.82.47-1.86-.49-2.26-.85-.35-.83-.73-.45-1.45.76-1.41.28-2.42-1.28-2.76-.52-.11-.82-.29-.91-.88-.28-1.8-1.31-2.53-3.13-2.17-.65.13-.97-.04-1.28-.61-.73-1.38-1.92-1.7-3.3-.87-.65.39-.95.32-1.33-.35-.77-1.36-2.08-1.71-3.32-.83-.71.5-1.19.49-1.87,0-.65-.47-1.43-.38-2.1.04-.66.42-.83,1.1-.78,1.78ZM108.79,43.67c-2.9-.12-5.59.57-8.11,2-3.85,2.18-6.64,5.37-8.39,9.37-1.81,4.14-1.2,8.28.7,12.28.07.15.11.36.31.34.3-.03.31-.31.4-.52.69-1.76,1.59-3.42,2.75-4.91.93-1.2,1.69-2.5,2.57-3.72,2.86-3.96,6.64-6.56,11.6-7,4.26-.38,8.08.65,10.96,4.1.21.25.5.47.8.6,2.88,1.27,5.13,3.28,7.01,5.76.15.2.26.56.58.48.34-.09.22-.45.22-.7,0-.6-.04-1.21-.09-1.81-.21-2.49-1.42-4.61-2.58-6.72-2.23-4.06-5.39-7.15-9.94-8.45-2.85-.81-5.83-.95-8.78-1.1ZM130.78,82.68c.65-.41.74-.96.9-1.44,1.89-5.76,1.63-11.29-1.61-16.57-2.11-3.44-4.71-6.31-8.54-7.8-3.21-1.25-6.62-1.44-10.02-1.52-8.3-.2-16.17,6.42-17.49,14.63-.07.41-.4.99.03,1.2.46.23.65-.45.92-.74,3.53-3.76,7.7-6.13,13-6.09.45,0,.87-.09,1.27-.27,2.11-.96,4.34-1.16,6.61-.95,5.11.47,8.7,2.92,10.22,8,.09.31.28.61.46.89,2.1,3.23,4.09,6.49,4.23,10.66ZM37.44,103.98c.42-.59.23-1-.09-1.46-2.73-4.03-4.85-8.36-6.42-12.97-.16-.47-.66-.74-.6-1.33.12-1.19-.9-2.12-.83-3.33.01-.19-.19-.34-.39-.42-.2-.07-.25-.22-.12-.39.39-.52.11-1.05.01-1.55-1.52-7.55-1.49-15.09.05-22.63.12-.59-.03-.94-.5-1.27-1.39-1-2.75-2.05-4.13-3.06-.92-.68-1.02-.65-1.2.47-.77,4.89-1.1,9.8-.73,14.76.77,10.22,3.76,19.71,9.26,28.35,8.67,13.64,20.83,22.59,36.42,26.86,4.2,1.15,8.49,1.72,12.83,1.96.33.02.88.16.87-.37,0-.43-.53-.32-.83-.3-1.75.08-3.45-.26-5.17-.5-6.11-.85-11.93-2.68-17.41-5.51-7.94-4.1-14.62-9.73-19.86-17.01-.31-.43-.61-.57-1.16-.3ZM31.32,112.89c-.76.35-1.43.73-2.15.96-4.62,1.5-9.38,2.27-14.2,2.79-2.46.27-5.02-.49-7.38.77-.13.07-.33.03-.5,0-1.85-.34-3.8-.32-5.44-1.47-.14-.1-.31-.2-.46-.08-.2.16-.02.36,0,.55.1.92,1.02,1,1.55,1.46,1.11.98,2.16,2.02,2.52,3.46.29,1.15,1.13,1.47,2.09,2.09-.3-.92-.63-1.56-1.12-2.13.48.29,1.1.54,1.28.97.53,1.25,1.7,1.75,2.73,2.07,2.64.83,5.41,1.17,8.15.46,2.85-.74,5.82-1.07,8-3.59,1.01-1.17,2.19-2.32,3.48-3.28,1.47-1.1,1.97-2.68,2.18-4.45-.44.05-.85.06-1.07.39-.66.97-1.66.98-2.94,1.11,1.2-.82,2.49-.98,3.26-2.09ZM98.62,118.6c1.43-.03,3.31-.09,5.09-.83,1.9-.79,2.85-1.99,2.69-3.35-.17-1.47-1.6-2.67-3.53-2.95-.17-.02-.33-.04-.5-.05-1.32-.1-2.61.15-3.89.43-2.38.52-4.63,1.41-6.77,2.55-.34.18-1.84-.34-.91,1.05.06.1-.15.43-.3.6-.6.73-1.42,1.12-2.32.92-1.01-.23-1.83.09-2.67.53-.77.4-1.56.8-2.37,1.12-4.54,1.74-9.19,2.56-14.01,1.3-2.69-.7-5.12-1.9-6.84-4.18-4.86-6.44-2.2-15.34,5.38-18.12.56-.21,1.07-.54,1.61-.81.43-.22.42-.6.31-.95-.17-.52-.55-.22-.83-.12-.82.29-1.62.65-2.46.9-4.95,1.52-7.86,5.07-8.36,10.22-.53,5.39,2.03,10.31,6.86,12.49,7.04,3.18,14.21,3.03,21.36.28,2.95-1.14,5.66-2.8,8.52-4.14,1.96-.91,3.96-1.7,6.15-1.77,1.34-.04,2.14.38,2.22,1.1.08.72-.59,1.32-1.86,1.67-1.68.47-3.42.52-5.1.22-1.21-.22-2.16.12-3.14.66-.2.11-.5.16-.47.45.03.31.34.26.56.3,1.69.28,3.4.44,5.57.48ZM129.72,97.41c1.5-1.49,2.97-2.99,4.49-4.45.68-.65,1.12-1.4,1.43-2.27,2.71-7.53,3.88-15.26,3.31-23.27-.53-7.52-2.49-14.61-5.89-21.31-.87-1.71-.84-1.67-2.24-.38-.54.5-.52.82-.14,1.42,1.4,2.16,1.92,4.51,1.03,7.01-.21.61-.04.93.41,1.27.77.6,1.46,1.29,2.01,2.11,4.37,6.51,4.45,13.24.95,20.11-.34.66-.5,1.26-.43,2,.33,3.25.05,6.44-1.08,9.53-1.04,2.84-2.37,5.55-3.86,8.22ZM149.89,128.19c.03-.36.05-.56.05-.76.09-3.96.18-7.93.27-11.89.55-23.75,1.09-47.51,1.64-71.26,0-.37.06-.75,0-1.11-.12-.67-.72-1.16-1.23-1.17-.62-.02-.34.73-.35,1.14-.19,11.52-.12,23.05-.29,34.57-.24,16.4-.3,32.8-.44,49.2,0,.38-.11.8.34,1.28ZM48.49,109.38c-.02-.49-.33-.62-.55-.81-3.67-3.2-4.24-8.08-1.4-12.05.53-.74,1.08-1.45,1.36-2.34.98-3.14.92-6.31.05-9.43-.54-1.94-1.61-3.62-3.3-4.82-2.24-1.6-5.65-1.45-7.59.31-1.94,1.76-2.28,4.56-.84,7,1.44,2.43,6.41,3.67,8.9,2.21.2-.12.46-.22.33-.52-.1-.23-.34-.18-.53-.15-.23.04-.46.12-.69.16-2.17.33-4.23.17-5.94-1.42-1.37-1.27-1.82-3.74-1-5.3.85-1.6,2.8-2.39,4.79-1.88,1.95.5,3.18,1.81,3.75,3.72,1.31,4.39.62,8.57-1.37,12.59-1.22,2.46-1.52,4.99-.68,7.62.77,2.4,2.37,4.02,4.69,5.12ZM97.08,120.76c1.65.04,3.55-.09,5.44-.46,2.21-.43,4.28-1.2,5.86-2.89,2.28-2.44,1.98-5.98-.82-7.37-2.26-1.12-4.64-2.11-7.31-1.87-1.66.15-3.24.55-4.79,1.11-1.38.5-1.41.65-1.41,2.13,0,1,.38.93,1.1.68,1.9-.68,3.83-1.27,5.86-1.39,1.65-.1,3.22.11,4.6,1.12,1.95,1.43,2.1,3.81.33,5.44-1.24,1.14-2.76,1.62-4.39,1.84-3.06.42-6.11.22-9.12-.35-1.3-.25-2.36.01-3.43.64-.2.11-.51.16-.48.45.03.3.35.25.57.28,2.56.38,5.13.61,8,.64ZM45.52,101.9c.03,1.19.27,2.33.8,3.4,1.55,3.14,6.43,5.95,9.86,5.67.28-.02.52-.06.63-.38.34-.95-.08-1.64-1.07-1.75-1.89-.21-3.68-.7-5.29-1.79-3.49-2.38-3.71-6.74-.41-9.24,1.13-.86,2.45-1.39,3.83-1.73,2.8-.7,5.66-1.12,8.5-1.69.38-.08,1.05-.05.71-.74-.25-.5.33-1.63-.98-1.42-3.31.52-6.67.74-9.92,1.67-4.32,1.24-6.72,4.08-6.65,7.99ZM112.83,36.59c-.06-1.7-.95-3.67-2.59-5.31-2.44-2.45-5.48-3.72-8.82-4.3-1.97-.34-1.48.04-1.24,1.45.1.61.66.58,1.11.67,3.18.64,6.06,1.83,8.1,4.48.8,1.04,1.3,2.23.9,3.58-.69,2.3-3.31,2.98-5.44,1.43-1.02-.74-1.87-1.65-2.58-2.68-.55-.8-1.03-1.65-1.56-2.47-.16-.24-.43-.66-.59-.07-.17.63-.48,1.29-.15,1.96,1.1,2.28,2.35,4.48,4.41,6.06,1.76,1.35,3.66,1.6,5.67.58,1.94-.98,2.81-2.61,2.78-5.38ZM68.25,94.94c-1.1-.24-2.19-.69-3.27-.4-2.7.73-5.47,1.06-8.2,1.61-2.1.43-4.2.89-6.06,2.07-2.49,1.57-3.1,4.44-1.32,6.78,1.73,2.27,4.25,2.98,6.92,3.12,1.01.05.55-1.02.71-1.58.15-.53-.21-.67-.69-.71-.67-.05-1.35-.09-1.99-.28-1.42-.4-2.64-1.14-2.92-2.72-.27-1.55.6-2.62,1.75-3.49,1.05-.8,2.31-1.05,3.55-1.34,2.97-.71,6.02-1.08,8.94-1.97.88-.27,1.82-.4,2.58-1.08ZM149.5,78.07c-.1,0-.2,0-.3,0-.13.65-.25,1.3-.39,1.95-.44,2-.93,3.96-.9,6.05.17,13.7.26,27.4.38,41.1,0,.2-.01.4,0,.6.01.27,0,.59.39.58.34,0,.43-.29.46-.57.03-.37.04-.74.04-1.11.12-15.04.23-30.09.34-45.13,0-1.16,0-2.32-.02-3.48ZM74.16,119.64c-.48-.49-1.09-.46-1.67-.53-6.23-.79-10.49-6.58-9.31-12.68.47-2.42,1.66-4.32,4.04-5.27.47-.19.61-.45.55-.92-.05-.4-.08-.8-.08-1.2,0-.52-.27-.58-.65-.39-.54.26-1.08.54-1.59.86-5.34,3.41-6.51,11.18-2.39,15.99,2.86,3.33,6.73,4.2,10.89,4.3.05,0,.1-.07.22-.16ZM127.55,96.39c-.18-.22.21-1.15-.35-.73-1.03.79-2.32,1.33-2.56,3.08-1.01,7.31-5.51,13.76-13.35,14.9-.47.07-.67.3-.76.77-.31,1.66-.26,1.72,1.44,1.33.13-.03.26-.07.39-.1,8.98-2.18,14.57-11.3,15.19-19.26ZM42,90.69c-.88.04-1.91-.11-2.9-.44-2.24-.73-3.73-2.23-4.29-4.54-.54-2.25-.1-4.27,1.64-5.9,2.32-2.18,6.11-2.36,8.74-.39,2.4,1.81,3.51,4.35,3.94,7.24.35,2.38.35,4.75-.32,7.09-.06.19-.13.41.06.56.15.12.31,0,.47-.06,1.09-.39,1.84-2.74,1.1-3.6-1-1.18-.87-2.46-.38-3.77.11-.28.29-.52.22-.85-.7-3.14-2-5.93-4.73-7.83-3.74-2.61-9.14-1.49-11.06,2.26-1.55,3.02-.97,6.6,1.37,9.15,1.74,1.9,5.86,2.64,9,1.61.29-.1.61-.26.49-.64-.13-.42-.5-.24-.77-.18-.79.18-1.59.28-2.57.28ZM115.29,37.55c.01-1.67-.38-3.17-1.09-4.62-1.87-3.77-5.13-5.85-8.9-7.29-1.88-.72-3.83-1.25-5.84-1.52-.3-.04-.95-.25-.78.32.22.71.48,1.56,1.52,1.65,1.34.12,2.67.36,3.95.78,3.69,1.21,6.83,3.15,8.64,6.77,1.5,2.99.97,6.38-1.22,8.24-.3.25-1.05.4-.76.85.26.41.98.27,1.49.09.25-.09.48-.25.69-.41,1.64-1.23,2.25-2.95,2.3-4.86ZM65,37.96c-.89.72-1.57,1.76-2,2.81-2.15,5.26-1.32,10.23,1.38,15.05.42.75.98.9,1.75.84.56-.05.79-.2.37-.72-.36-.45-.61-.96-.83-1.49-1.37-3.32-1.49-6.78-.58-10.17.6-2.21-.31-4.22-.1-6.34ZM109.76,109.11c.34,0,.67.01,1.01,0,1.82-.13,3.49-.67,4.91-1.85.22-.18.62-.36.49-.69-.16-.41-.52-.07-.78-.05-1.21.1-2.38.37-3.55.7-1.36.38-2.74.24-4.09-.1-4.16-1.06-7.37-4.51-6.58-9.3.08-.48.05-.87-.57-.94-.6-.07-1.14-.13-1.3.68-.61,2.94-.03,5.66,1.82,7.98,2.18,2.74,5.31,3.47,8.64,3.57ZM111.21,112.97c1.26-.21,2.53-.55,3.72-1.12,5.67-2.68,8.08-7.58,9.07-13.44.04-.23.11-.5-.2-.59-.28-.08-.58.03-.7.28-.15.29-.21.63-.27.96-.44,2.22-1.46,4.1-3.2,5.57-.23.19-.47.4-.62.65-1.88,3.1-4.81,4.57-8.23,5.29-.34.07-.9-.06-.87.58.03.79.76,1.81,1.3,1.81ZM113.73,105.98c4.1-.09,7.38-2.72,8.28-6.66.09-.38.41-.95-.25-1.08-.53-.1-1.15-.1-1.27.74-.52,3.54-4.26,5.85-7.69,5.5-3.85-.39-6.65-3.39-5.83-6.59.08-.3,0-.51-.3-.65-1.07-.51-1.87-.02-1.86,1.16,0,.3.03.6.08.9.8,4.55,4.66,6.56,8.84,6.68ZM82.69,89.5c.03.37.05.74.09,1.1.04.39,0,.89.62.8.52-.07.87-.28.74-.93-.49-2.42.4-4.26,2.41-5.63,1.99-1.35,3.37-2.98,3.55-5.6.12-1.7-.16-3.14-1.11-4.45-1.52-2.07-4.6-1.98-5.62.11-.15.32-.45.66-.16,1.02.27.34.69.18,1.04.21.41.04.55-.28.75-.56.49-.66,1.19-.89,1.83-.34,1.05.9,1.97,1.91,1.71,3.5-.24,1.5-.85,2.82-1.9,3.91-.63.65-1.32,1.24-1.98,1.86-1.43,1.35-2.08,3.02-1.97,4.98ZM136.68,68.42c-.02-.44-.03-.81-.06-1.18-.36-3.99-1.52-7.64-4.47-10.52-.36-.35-.69-1.1-1.38-.66-.82.53-.33,1.26-.09,1.89.09.23.33.41.52.6.72.71,1.44,1.41,1.93,2.31,2.06,3.81,2.11,7.77.9,11.82-.35,1.17-.38,2.3-.07,3.46.06.22.04.54.31.59.34.07.41-.28.52-.51,1.26-2.47,1.81-5.11,1.88-7.8ZM67.38,108.01c-1.01,3.08,1.19,7.64,4.43,9.68,3.48,2.18,8.72,1.84,11.17-.1-.95-.14-1.67-.77-2.73-.49-2.42.63-4.79.21-6.87-1.12-1.38-.89-2.8-1.92-3.03-3.81-.04-.3-.25-.46-.53-.53-1.56-.4-2.31-1.39-2.2-3.01.01-.19.01-.41-.24-.61ZM53.83,33.46c-.04-1.09.17-1.82.58-2.5,1.11-1.86,3.84-2.59,6.3-1.7,1.87.68,3.24,1.99,4.5,3.45.23.26.35.79.78.66.4-.12.43-.64.57-1.01.17-.44-.1-.77-.35-1.09-1.13-1.46-2.54-2.59-4.23-3.32-2.85-1.23-5.61-1.29-8.16.74-1.88,1.5-2.48,4.03-1.54,6.08.34.75.9.75,1.5.57.7-.21.23-.69.17-1.07-.06-.36-.11-.73-.12-.8ZM55.96,35.97c-3.33.01-6.45.85-9.38,2.39-.29.15-.91.21-.6.81.31.6,1.36.95,1.96.68,4.69-2.09,9.47-2.66,14.39-.83.93.35,1.07-.52,1.36-.99.34-.56-.33-.64-.64-.76-2.27-.91-4.65-1.3-7.09-1.3ZM113.57,103.78c2.53-.06,4.85-1.49,5.78-3.57.71-1.58.54-1.84-1.19-1.8-.53.01-1.02-.08-1.14.74-.24,1.62-1.63,2.61-3.45,2.61-1.74,0-3.29-1.17-3.58-2.69-.17-.88-.92-1.51-1.8-1.32-.97.2-.59,1.05-.61,1.66,0,.29.12.59.23.87.86,2.14,3.19,3.56,5.75,3.49ZM70.16,117.76c0-.54-.36-.68-.57-.91-2.67-2.87-3.88-6.16-2.85-10.07.08-.3.12-.59.05-.89-.2-.96-.17-1.93-.08-2.9.02-.2.13-.42-.08-.55-.27-.18-.43.08-.6.22-.75.6-1.31,1.36-1.65,2.25-1.44,3.78-.76,7.19,1.9,10.21,1.05,1.19,2.31,2.08,3.88,2.65ZM100.57,57.7c.49.06.64-.15.82-.28,2.84-1.93,5.93-3.08,9.42-3.02,2.82.04,5.62.28,8.39.85.24.05.57.28.71-.05.13-.31-.23-.44-.42-.6-.96-.82-2.03-1.42-3.24-1.77-4.27-1.24-8.29-.76-12.03,1.72-1.31.87-2.55,1.82-3.66,3.15ZM54.4,33.1c.01.54.08,1.07.3,1.57.4.91,1.23.58,1.86.52.79-.08.22-.68.18-1.02-.17-1.19.34-2.27,1.38-2.61.85-.28,1.66-.03,2.41.38,1.65.89,2.99,2.14,4.18,3.57.15.17.27.45.54.39.26-.06.25-.36.33-.58.45-1.13-.42-1.75-1-2.44-1.46-1.72-3.13-3.12-5.5-3.41-2.59-.31-4.68,1.31-4.67,3.64ZM61.3,97.94c-2.6.51-5.28.58-7.63,1.96-.29.17-.55.39-.78.64-1.2,1.3-.93,3.05.61,3.91.96.54,2.03.71,3.11.68.55-.02,1.13-.92,1.05-1.6-.09-.67-.63-.29-.96-.38-.26-.07-.54-.05-.79-.14-.39-.12-.77-.31-.8-.8-.02-.44.31-.64.64-.82.54-.29,1.13-.52,1.72-.54,1.98-.06,2.67-1.75,3.82-2.92ZM80.44,20.42c1.22.15,2.3-.36,3.43-.49.28-.03.72.06.76-.31.04-.37-.42-.39-.68-.46-3.99-1.13-7.73-.74-11.04,1.93-1.61,1.3-2.74,2.95-2.94,5.09-.02.23-.09.5.2.6.22.07.37-.12.51-.25.58-.55,1.17-1.08,1.51-1.85.41-.94,1.12-1.66,1.95-2.26,1.89-1.38,4.06-1.87,6.29-2ZM121.55,39.6c-.04-3.11-1.94-5.76-4.73-6.82-.51-.19-1.29-.64-1.52-.1-.25.59.23,1.34.82,1.79.26.2.59.31.88.49,1.41.88,2.17,2.15,2.23,3.82.06,1.57-.35,3-1.38,4.2-.6.7-.26.87.4,1.03.44.11.77-.03,1.11-.29,1.47-1.11,2.18-2.59,2.19-4.12ZM133.43,78.82c-.26,1.98-1.54,3.62-1.54,5.67,0,3.13-1.76,5.71-2.93,8.48-.31.74-.78,1.41-.63,2.27.04.25-.13.6.22.69.33.08.41-.28.57-.48,2.74-3.46,4.32-7.39,4.73-11.77.15-1.62.17-3.25-.42-4.86ZM88.71,126.4c2.28-.18,4.25-.65,6.23-.81,2.62-.21,4.16-1.9,5.74-3.62.12-.13.25-.24.21-.43-.05-.21-.24-.21-.4-.19-1.34.14-2.74.03-3.67,1.4-.52.76-1.29,1.36-1.97,2.01-.15.14-.25.43-.57.29-.1-.34.2-.45.37-.63.67-.7,1.36-1.39,2.03-2.1.17-.18.52-.33.33-.64-.16-.26-.49-.14-.75-.13-.49.01-.77.37-1.07.68-1.11,1.12-2.23,2.25-3.51,3.54,0-.64.27-.8.47-1,.8-.82,1.61-1.62,2.4-2.45.18-.19.62-.39.31-.72-.3-.32-.62-.03-.85.22-.71.78-1.59,1.31-2.5,1.84-1.06.61-1.88,1.54-2.79,2.73ZM55.88,38.49c-2.23.07-4.71.6-7.08,1.61-.31.13-.8.21-.55.75.27.61,1.41.99,2.05.71,1.52-.66,3.11-1.04,4.77-1.13,2.1-.11,4.16.13,6.18.7.84.24.97-.39,1.2-.88.29-.65-.28-.71-.67-.84-1.79-.62-3.64-.9-5.89-.91ZM111.09,106.46c-.63-.22-1-.35-1.37-.49-3.43-1.24-5.66-4.31-5.6-7.8.01-.73-.07-1.12-.93-1.15-.75-.02-1.24,0-1.4.95-.65,4.02,2.24,7.86,6.55,8.55.81.13,1.63.33,2.75-.07ZM39.26,72.36c.1,0,.2,0,.3,0,1.13-.02,1.41-.29,1.34-1.34-.07-1.04-.85-.5-1.3-.49-2.61.04-4.63-.91-5.84-3.32-.48-.95-.7-1.97-.64-3.02.04-.74-.28-1.27-.93-1.3-.72-.04-.54.74-.6,1.16-.65,4.43,2.98,8.35,7.67,8.32ZM149.39,56.34c.32-.1.33-.29.33-.44.05-4.66.09-9.32.13-13.99,0-.2-.02-.41-.24-.51-.46-.2-1.98.66-1.96,1.16.08,2.27-.28,4.56.32,6.81.61,2.29,1.15,4.59,1.42,6.96ZM56.03,41.01c-1.8-.07-3.52.3-5.18.99-.38.16-.64.34-.26.7.65.62,1.27,1.18,2.37.89,2.48-.67,4.98-.49,7.44.17.5.14.96.29,1.01-.44.04-.57.7-1.31-.43-1.62-1.63-.43-3.26-.76-4.96-.69ZM107.12,38.77c1.16.02,2.1-.64,2.43-1.62.4-1.17.05-2.21-.65-3.12-1.98-2.57-4.79-3.67-7.85-4.3-.31-.06-.64-.08-.7.34-.05.36.18.55.51.63.42.11.85.19,1.26.33,1.83.63,3.59,1.36,4.74,3.04.99,1.46.78,2.68-.59,3.66-.18.13-.5.16-.45.46.05.32.36.36.61.43.26.07.52.11.67.14ZM116.38,115.2c-.25-.17-.42-.08-.56-.01-1.54.81-3.21,1.22-4.9,1.45-1.16.16-1.69.81-2.19,1.77-.68,1.3-1.86,2.17-2.99,3.05.22-.86,1.2-1.11,1.51-1.96-1.27.38-3.51,2.46-3.73,3.39,3.82-.68,6.39-3.31,8.93-5.99-.47,1.16-1.66,1.73-2.15,2.85,2.37-1.04,4.44-2.45,6.08-4.54ZM64.64,58.06s0-.05,0-.08c.36,0,.73,0,1.09,0,.91,0,1.81,0,2.72-.03.3,0,.69-.07.67-.45-.02-.38-.42-.24-.65-.24-1.17,0-2.35.07-3.52.01-.84-.04-1.31.4-1.68,1.02-.56.92.11,2.74,1.05,2.8,1.4.09,2.82.07,4.22.07.3,0,.69-.05.47-.51-.28-.6-.12-1.19-.06-1.78.06-.63-.19-.85-.79-.84-1.17.02-2.35.02-3.52.02ZM87.95,50.96c.07-.48-.11-.52-.62-.32-.96.37-1.44.96-1.44,2.03,0,1.04,0,2.08.21,3.11.4,2,1.29,3.73,2.9,5.04.24.19.56.65.87.1.38-.65.14-2.1-.39-2.69-1.15-1.27-1.76-2.76-1.81-4.47-.03-.91.05-1.81.28-2.79ZM55.73,24.03c-.07-.07-.14-.15-.21-.22-1.23.73-2.52,1.4-3.54,2.42-2.71,2.7-5.38,5.43-8.07,8.15-.49.5-.98,1.01-1.47,1.52-.19.2-.35.45-.09.7.23.22.51.35.81.12.16-.12.31-.26.45-.4,3.16-3.19,6.33-6.38,9.48-9.58.88-.9,1.75-1.81,2.63-2.71ZM47.75,75.68c-.22-.8.2-1.81-.73-2.45-.37-.25-.59-.2-.54.26.23,2.07.41,4.16,1.75,5.89.75.96,1.36,1.99,1.86,3.1.55,1.2,1.29,2.26,2.1,3.3.64.81,1.41,1.07,2.37,1.01.19-.01.43.06.54-.16.15-.29-.15-.39-.29-.57-1.13-1.47-2.49-2.71-3.9-3.91-.63-.53-.8-1.19-.57-1.99.37-1.27.26-1.41-1.03-1.64-1.48-.27-2.03-.64-1.64-2.1.06-.22.04-.47.06-.75ZM79.24,122.38c.11.19.14.25.18.29.08.06.16.12.25.16,3.79,1.44,7.58,1.58,11.37,0,.52-.22.99-.56,1.44-.9.37-.28.38-.55-.16-.65-.77-.14-1.5-.1-2.25.24-2.11.93-4.35,1.24-6.59.67-1.45-.37-2.77-.01-4.25.2ZM59.21,21.76c-.63.35-1.3.63-1.82,1.15-4.48,4.53-8.96,9.06-13.43,13.6-.29.29-.87.57-.23,1.11.57.48.9.29,1.29-.25,1.66-2.33,3.6-4.42,5.78-6.29.31-.27.55-.58.72-.95.47-1.04,1.25-1.83,2.13-2.51,2.03-1.56,3.63-3.57,5.49-5.31.12-.11.22-.25.07-.56ZM65.98,44.13c-1.51,3.33-.41,10.63,1.72,11.84-.13-.45-.28-.86-.36-1.28-.15-.81-.44-1.65.51-2.25.35-.22.12-.61.02-.93-.4-1.29-.61-2.62-.51-3.97.11-1.38-.82-2.24-1.38-3.42ZM133.54,70.77c.43-.26.42-.59.45-.87.17-1.54.18-3.08-.07-4.61-.31-1.88-.96-3.63-2.16-5.13-.14-.17-.24-.47-.53-.35-.28.11-.16.4-.16.62.02.84.11,1.68.03,2.51-.11,1.15.15,2.17.7,3.17.8,1.44,1.41,2.96,1.74,4.67ZM150.01,23.65s.04,0,.06,0c0-.67-.01-1.34,0-2.01.02-1.73.02-1.73-1.58-1.1-.43.17-1.03.16-1.02.89.03,2.01.03,4.02.05,6.02,0,.22,0,.48.27.59.57.24,2.21-.76,2.22-1.39.02-1,0-2.01,0-3.01ZM118.5,39.02c-.02-1.24-.43-2.29-1.4-3.1-.23-.19-.48-.45-.79-.31-.32.14-.13.47-.11.72.17,2.33-.29,4.47-1.94,6.23-.37.39-.22.54.2.68,1.35.44,2.34.11,3.11-1.09.62-.95.93-2,.93-3.13ZM81.98,65.19c.42.22.73,0,1.04-.07,1.56-.34,1.91-.15,2.37,1.4.14.48.22.98.28,1.48.03.27.08.51.24.74.66.93,1.27,1.89,1.96,2.8.74.98,1.64,1.78,2.86,2.11.4.11.99.52,1.17-.2.14-.58.26-1.24-.61-1.57-1.74-.66-2.97-1.88-3.77-3.57-.3-.63-.68-1.23-1.02-1.85-.44-.78-1.06-1.38-1.82-1.83-.9-.53-1.96-.32-2.7.57ZM58.98,84.95c-.68.13-.92.65-.99,1.16-.08.54-.75,1.19.18,1.64,1.05.51,2.1,1.04,3.15,1.55,1.3.63,1.98.36,2.64-.98.31-.63.16-1.09-.47-1.26-.77-.2-1.39-.64-2.07-.98-.8-.41-1.63-.76-2.42-1.13ZM65.13,68.48c-.19-1.09-.37-2.18-.57-3.27-.17-.96-.68-1.33-1.76-1.31-.77.02-1.46.63-1.49,1.48-.04,1.25.17,2.47.55,3.66.14.43.37.52.83.45.72-.11,1.34-.62,2.14-.45.43.09.29-.32.31-.57ZM75.1,55.72c.98.21,1.98.54,2.66,1.4.58.73-.18,1.29-.43,1.91-.02.06-.08.11-.1.17-.14.38.04.48.39.44.33-.04.55-.22.72-.49.65-1.03,1.12-2.14,1.5-3.29.18-.56.02-.8-.56-.88-1.61-.24-3.15-.67-4.54-1.57-.16-.1-.4-.21-.55-.16-.3.11-.16.41-.11.62.22,1.1-.04,1.85-1.3,1.99-.54.06-.53.35-.13.63.54.37,1.11.78,1.52-.18.16-.36.44-.59.93-.59ZM40.69,81.34c-.27-.3-.51-.2-.73-.14-1.67.47-2.56,2.19-2.01,3.92.73,2.3,3.16,3.52,5.89,2.94.49-.1,1.01-.14,1.42-.46.2-.15.32-.36.2-.61-.11-.24-.32-.19-.52-.14-.66.15-1.33.19-2,.11-1.41-.18-2.61-.7-3.17-2.12-.54-1.35-.11-2.49.91-3.49ZM56.15,43.78c-.94.01-1.88.05-2.79.3-.25.07-.77.17-.37.55.72.65,1.34,1.51,2.53,1.43,1.61-.1,3.21.08,4.76.57.22.07.45.17.66-.03.45-.43.15-1.94-.45-2.15-1.41-.48-2.86-.69-4.35-.67ZM59.06,26.15c1.44.22,2.6,1.06,3.97.14.98-.66,2.17-.89,3.33-1.09.5-.08.77-.31.94-.77.15-.41.38-.78.56-1.18.09-.2.32-.41.12-.64-.18-.21-.44-.08-.67-.03-2.12.46-4.09,1.31-6.03,2.23-.71.34-1.46.65-2.23,1.34ZM73.07,65.96c.45,1.16.93,2.4,1.43,3.64.08.21.32.3.48.08.48-.66,1.23-.64,1.9-.78.67-.14.77-.41.58-1.05-.29-.98-1.07-1.7-1.37-2.65-.25-.8-.71-1.18-1.54-1.04-.65.11-1.51,1.11-1.48,1.8ZM39.53,69.94c.16-.02.56-.07.95-.12.31-.05.6-.16.69-.5.1-.37-.17-.55-.42-.72-.44-.32-.89-.54-1.47-.52-1.97.04-3.04-.72-3.68-2.57-.18-.53-.56-.82-1-1.06-.24-.13-.45-.52-.78-.28-.27.2-.15.56-.12.85.25,2.95,2.46,4.9,5.82,4.93ZM66.21,73.59c-.61.04-.86.41-1.11.77-.22.31-.44.7-.12,1.01.98.95,1.35,2.42,2.96,2.89.87.26,1.16.24,1.65-.45,1.16-1.63,1.2-1.61-.48-2.6-.61-.36-1.23-.69-1.84-1.03-.38-.21-.76-.42-1.06-.59ZM124.46,69.39c-1.34-2.8-3.54-4.46-6.49-5.19-2.44-.59-5.93-.51-6.82.35,4.98.3,9.63,1.22,13.31,4.84ZM71.56,84.43c-.16.07-.38.12-.52.24-1.12,1.02-2.43,1.79-3.66,2.66-.39.28-.8.62-.38,1.03.48.47,1.02,1.44,1.71,1.05,1.39-.78,2.63-1.84,3.9-2.84.63-.49-.05-.98-.14-1.45-.08-.41-.44-.64-.92-.7ZM59.13,116.94c-.67-1.08-1.08-2.31-2.37-2.88-.85-.38-1.67-.91-2.27-1.64-.68-.85-1.55-1.1-2.56-1.1-.22,0-.49-.13-.64.12-.15.25.08.44.21.62.68.93,1.51,1.71,2.43,2.39,1.56,1.17,3.26,2.05,5.21,2.48ZM57.29,33.67c.01.41.14.78.32,1.15.25.51.72.56,1.19.57.5,0,.41-.39.49-.71.16-.71.66-.56,1.09-.33.77.41,1.46.95,2.09,1.56.29.28.59.55,1,.65.3.07.62.08.81-.22.19-.29-.02-.51-.19-.71-.65-.77-1.38-1.46-2.16-2.1-.84-.68-1.7-1.32-2.81-1.47-1.08-.15-1.85.54-1.84,1.6ZM61.25,61.87c-.75.03-1.27-.19-1.76-.45-.64-.34-1.06-.18-1.35.47-.51,1.13-1.04,2.24-1.57,3.36-.17.36-.07.61.18.9.64.72,1.38-.06,2.07.15.19.06.45-.24.57-.51.58-1.28,1.01-2.62,1.87-3.93ZM84.76,89.36c.06.39.11.85.22,1.31.15.68.81.79,1.27.74.55-.06.14-.6.11-.91-.08-1.1.23-2.06.91-2.91.71-.89,1.46-1.75,2.2-2.62.27-.32.46-.67.34-1.1-.04-.16-.07-.36-.18-.44-.22-.16-.35.09-.49.21-.98.82-1.94,1.66-2.93,2.45-1.03.83-1.4,1.92-1.44,3.27ZM57.55,83.22c.2-.62-.13-1.01-.65-1.35-.44-.29-.82-.67-1.22-1.03-1.43-1.27-1.41-1.26-2.6.22-.41.51-.38.83.11,1.24.9.75,1.74,1.56,2.61,2.34.28.25.58.51.98.32.4-.2.68-.54.76-1,.04-.23,0-.46,0-.74ZM150.43,24.13s-.03,0-.04,0c0,.77.08,1.55,0,2.31-.1.93.26,1.54,1.01,2,.22.13.38.45.69.27.24-.14.15-.42.16-.65.04-1.74,0-3.5.14-5.23.09-1.04-.38-1.63-1.14-2.14-.19-.13-.37-.32-.63-.21-.27.12-.21.39-.2.62,0,1.01,0,2.01.01,3.02ZM39.89,98.86c.13.14.26.27.39.41-.73.62-1.45,1.26-2.2,1.86-.56.44-.27.81.05,1.18.38.45.63.09.89-.17.45-.45.9-.9,1.34-1.36q1.35-1.41.03-2.76c-.26-.26-.48-.56-.73-.82-.21-.22-.46-.3-.7-.06-.73.74-1.48,1.46-2.16,2.23-.51.58.06,1.01.36,1.4.4.52.69,0,.96-.24.61-.54,1.07-1.25,1.79-1.68ZM84.87,52.67c-.02-.33.13-.77-.32-.74-.52.03-1.13.12-1.21.82-.33,2.76-1.12,5.38-2.54,7.78-.23.39-.15.67.26.91.45.26.74.17.98-.28,1.42-2.69,2.49-5.49,2.83-8.49ZM58.87,79.92c.3-.01.63-.02.8-.31.64-1.08,1.54-1.96,2.29-2.95.18-.24.32-.4-.08-.6-.44-.22-.84-.53-1.23-.83-.46-.37-.8-.33-1.16.16-.7.93-1.45,1.82-2.16,2.75-.65.84-.46,1.4.55,1.67.32.08.66.09.99.13ZM48.33,76.43c-.15,1.34.84,1.25,1.46,1.44.62.19.98-.21,1.09-.85.19-1.15.41-2.3.61-3.46.09-.5.06-1.13-.53-1.05-.65.08-1.46-.21-1.97.48-.04.05-.03.13-.05.19-.32,1.13-.54,2.28-.61,3.25ZM89.66,65.93c.23.02.51.09.59-.21.09-.37-.11-.65-.42-.84-2.05-1.25-4.12-2.48-6.16-3.75-.49-.3-.72-.13-.96.27-.41.68-.09,1.7.86,2.02,1.2.4,2.21,1.09,3.3,1.65.87.44,1.82.67,2.78.85ZM91.86,47.52c-1.02.84-2.25,1.37-2.67,2.28-1.08,2.32-1.21,4.8.2,7.12.19.32.4.87.85.71.47-.18.44-.78.45-1.23,0-.21-.14-.44-.25-.64-.72-1.24-.78-2.55-.42-3.89.28-1.04.76-2,1.3-2.93.21-.36.52-.68.54-1.42ZM69.4,65.38c.23,0,.47,0,.7,0,1.14,0,.93-.97,1.07-1.59.14-.65-.31-.9-.97-.94-1.07-.06-2.12-.25-3.19-.35-1.2-.12-1.43.27-1.27,1.45.14,1.02.59,1.34,1.56,1.29.69-.03,1.4.09,2.1.14ZM53.13,90.17s0,.05,0,.07c.54,0,1.07-.01,1.61,0,1.14,0,1-.91,1.09-1.58.1-.72-.36-1-1.06-1-.87,0-1.75-.05-2.62-.11-1.86-.14-2.02.07-1.54,1.86.14.53.39.71.9.7.54,0,1.07.05,1.61.07ZM67.21,94.05c1.25.07,1.65-.32,1.79-1.41.11-.84-.46-1.01-1.11-1.11-1.12-.18-2.24-.37-3.37-.54-.65-.1-.95.23-.93.86.03,1.49.15,1.63,1.64,1.9.76.14,1.52.23,1.98.3ZM72.33,69.15c-.03-1.57-.56-1.91-2.04-1.32-.87.34-1.74.69-2.62.98-.53.18-.96.37-.81,1.03.13.58,1.23,1.54,1.62,1.41,1.17-.38,2.33-.82,3.41-1.42.27-.15.55-.29.45-.68ZM85.61,79.72s0,.02,0,.03c.43,0,.87,0,1.3,0,1.15,0,.79-.98.95-1.55.15-.53-.21-1-.81-1.04-1.27-.07-2.53-.09-3.8-.11-.59,0-.85.34-.81.9.09,1.33.32,1.56,1.67,1.68.5.04,1,.06,1.5.09ZM105.17,42.87c-.74-.57-1.44-1.03-2.04-1.59-1.35-1.24-2.33-2.76-3.17-4.39-.14-.27-.33-.78-.65-.27-.34.54-.68,1.17-.27,1.88.82,1.43,1.77,2.76,2.91,3.97.96,1.03,1.96,1.13,3.23.4ZM73.33,54.2c.01-1.42-.38-1.72-1.65-1.44-.92.2-1.85.35-2.77.52-.52.1-1.14.07-1,.91.17,1.04.78,1.69,1.51,1.57.96-.15,1.92-.33,2.88-.46.71-.1,1.3-.26,1.03-1.09ZM55.2,66.7c.03-.47-.25-.64-.47-.83-.82-.69-1.63-1.39-2.48-2.04-.23-.18-.5-.68-.81-.35-.47.49-1.27.7-1.37,1.53-.03.22.11.37.27.51,1.09.89,2.17,1.78,3.26,2.68.31.26.65.26.87-.08.3-.48.52-1,.74-1.42ZM84.77,67.3c-.07-1.44-.22-1.56-1.63-1.24-.94.21-1.89.42-2.83.67-.51.14-1.08.27-.9,1.05.23.96.86,1.6,1.55,1.45,1.04-.24,2.06-.56,3.1-.83.59-.15.86-.47.7-1.09ZM82.15,86.38c-.02-.39-.1-.78-.76-.84-1.06-.11-2.1-.36-3.12-.7-.55-.18-1.14-.39-1.39.43-.23.77.21,1.95.78,2.08.91.22,1.82.42,2.74.63,1.06.23,1.73-.33,1.75-1.59ZM79.64,77.54c.65.17,1.06-.28,1.39-.88.36-.64.67-1.31,1.12-1.88.83-1.07.86-1.04-.28-1.83-.11-.08-.23-.14-.34-.22-.48-.33-.82-.27-1.15.26-.6.97-1.27,1.88-1.88,2.84-.22.34-.65.69-.3,1.16.31.43.76.64,1.44.54ZM63.74,82.72s0,.06,0,.08c.63,0,1.27,0,1.9-.01.91-.03.61-.79.74-1.28.13-.47.05-.88-.53-.98-1.39-.26-2.79-.23-4.19-.19-.94.03-.91.82-.97,1.48-.06.67.39.88.94.9.7.03,1.4,0,2.1,0ZM131.26,51.66c-.17-3.2-2.01-5.41-4.73-7.03-.25-.15-.6-.56-.87-.18-.27.38-.11.86.27,1.16.26.2.59.32.88.49,1.6.96,2.93,2.16,3.3,4.1.25,1.29.23,2.56-.68,3.64-.48.58-.14,1.11.25,1.4.53.39.61-.31.8-.59.59-.86.72-1.87.78-3ZM81.9,63.45c.02-.46-.33-.62-.65-.81-.93-.54-1.85-1.08-2.79-1.6-.44-.25-.9-.73-1.37-.03-.45.65-.42,1.89.1,2.2.86.52,1.74,1.01,2.61,1.5.84.48,2.09-.27,2.1-1.27ZM74.85,61.89c.16-.2.32-.36.43-.55.53-.93,1.06-1.85,1.56-2.8.4-.77-.5-2.04-1.37-1.97-.28.02-.5.12-.64.4-.59,1.2-1.18,2.39-1.92,3.51-.26.4-.07.68.31.9.5.29,1.15,0,1.63.51ZM106.74,35.68c-.11-.9-.65-1.57-1.33-2.14-1.04-.89-2.25-1.45-3.57-1.79-.37-.09-.92-.57-1.11.02-.14.43.25.96.76,1.17.4.17.83.27,1.24.41.71.24,1.37.58,1.77,1.25.29.48.32.94-.17,1.34-.23.18-.82.08-.62.59.17.43.54.78,1.03.88.89.18,2.01-.77,1.99-1.72ZM31.86,71.61c-.51,3.02-.2,5.68,1.22,8.17.14.25.37.5.61.17.41-.57,1-1.08.45-1.96-.64-1.04-.91-2.26-.83-3.48.08-1.18-.52-1.95-1.45-2.9ZM134.19,93.8c-.37.09-.59.33-.82.56-1.6,1.62-3.14,3.32-4.81,4.86-.98.9-1.17,2.02-1.53,3.22,2.12-.97,6.8-6.63,7.16-8.64ZM75.79,82.2c1-.33,2.17-.72,3.34-1.09.43-.14.88-.24.77-.84-.11-.62-.4-1.37-1.05-1.26-1.3.22-2.67.23-3.88.89-.54.29-.51.75-.29,1.21.21.43.12,1.15,1.11,1.09ZM95.17,107.51c.09.21-.36,1.09.67.81,1.55-.43,3.11-.79,4.72-.86.33-.01.51-.12.29-.5-1.01-1.72-1.67-1.98-3.62-1.4-.42.12-.81.32-1.23.43-.7.19-1,.62-.83,1.53ZM101.88,43.77c-.06-.1-.1-.2-.17-.27-1.27-1.13-2.26-2.48-3.13-3.93-.1-.16-.24-.22-.43-.13-.41.2-.93,1.73-.7,2.15.5.91,1,1.83,1.71,2.6.63.69,2.06.59,2.6-.18.05-.08.07-.18.1-.26ZM79.51,124.32c.12.11.23.22.35.33-.44.34-.91.65-1.3,1.04-.36.36-.28.59.27.73,1.22.32,1.85-.48,2.54-1.22.42-.45.4-.79-.24-.89-.91-.15-1.7-.56-2.52-.93-.35-.16-.69-.3-1.02.03-.63.64-1.27,1.29-1.89,1.94-.26.27-.29.59.14.68.81.17,1.64.38,2.3-.45.39-.49.8-.98,1.38-1.27ZM73.5,89.4c.02.26.04.59.07.92.02.21.08.39.34.41.62.02,1.52-.87,1.51-1.52-.04-1.41.02-2.81.45-4.18.1-.33.52-.77.19-.99-.39-.26-.88.09-1.28.32-.34.19-.45.57-.57.92-.46,1.31-.64,2.67-.72,4.12ZM32.79,70.57c.03.37.01.48.05.56,1.1,2.28,5.03,4.28,7.51,3.86.6-.1.52-.49.51-.9-.02-.49-.12-.87-.74-.82-2.75.2-5.16-.6-7.33-2.69ZM54.72,70c.11.65.26,1.15.5,1.63.18.37.42.5.8.34,1.2-.51,2.4-1.02,3.59-1.54.57-.25.6-.66.28-1.14-.17-.25-.29-.61-.6-.64-.51-.05-1.07-.11-1.52.06-.76.29-1.63.44-2.11,1.23-.25.4-.58.05-.93.06ZM88.94,90.65c-.39-.02-.59-.03-.79-.03-.29,0-.65-.19-.84.11-.23.36.12.62.3.88,1,1.45,2.47,1.6,4.03,1.4,1.3-.17,1.28-.29.72-1.49-.44-.95-.96-1.33-2.01-1-.5.16-1.06.11-1.41.14ZM82.53,53.07c.02-.24,0-.54-.45-.52-.53.02-.91.2-.97.8-.21,2.21-.98,4.24-2.09,6.15-.24.42-.16.65.24.89.41.26.66.19.89-.22,1.26-2.18,2.06-4.51,2.37-7.1ZM41.49,72.43c.01,1.19.12,2.05.31,2.9.15.7.75.67,1.27.76.27.05.51-.07.44-.38-.36-1.64-.17-3.25.01-4.89.07-.67-.77-1.03-1.34-1.12-.48-.08-.44.57-.49.94-.09.7-.15,1.4-.19,1.79ZM98.84,23.1c.37.05.68.05.92-.18.97-.97,1.94-1.94,2.9-2.92.2-.21.35-.52.03-.67-.6-.3-1.22-.76-1.89-.03-.79.86-1.68,1.64-2.46,2.5-.26.29-.89.51-.64,1,.21.4.8.21,1.15.3ZM55.77,26.16l.33.39c3.22-1.16,4.86-4.16,7.16-6.39-3.42.92-4.95,4.05-7.49,6ZM71.42,20.98c-1.07.38-1.75,1.22-2.35,2.1-1.2,1.75-1.69,3.71-1.56,5.82.02.26.02.57.36.65.3.07.38-.2.53-.38.46-.57.73-1.17.64-1.94-.1-.98.09-1.93.39-2.87.41-1.28,1.26-2.28,1.99-3.38ZM113.55,101.02c1.38-.03,2.38-.65,2.68-1.59.11-.36.25-.76-.24-.94-.37-.14-.73-.07-.93.35-.22.46-.56.73-1.09.77-.69.05-1.28-.08-1.6-.76-.29-.61-.85-.76-1.34-.48-.6.33-.23.89,0,1.32.56,1.05,1.57,1.27,2.52,1.34ZM44.01,73.52c.05.58.16,1.15.15,1.71,0,1.2.88,1.63,1.73,2.09.23.13.54.12.44-.25-.43-1.59-.5-3.23-.76-4.84-.08-.49-.56-.94-1.07-.9-.51.04-.34.64-.4,1-.07.39-.06.8-.08,1.18ZM69.51,52.22c.59-.1,1.2-.17,1.78-.3.3-.07.76.04.83-.4.05-.36-.3-.59-.55-.79-1.01-.78-2.04-1.52-2.88-2.49-.1-.12-.22-.29-.41-.18-.17.1-.14.29-.14.45.05,1.08.19,2.13.55,3.16.14.4.38.62.83.55ZM59.41,91.81c.74-.08,1.68-.17,2.61-.3.37-.05.94,0,.97-.5.03-.59-.63-.45-.98-.65-.08-.05-.2-.05-.3-.04-1.58.1-3.15.09-4.69-.4-.55-.17-.67.32-.83.67-.2.44.14.59.46.73.81.35,1.67.49,2.75.49ZM59.58,72.52c-1.4.42-2.69.95-3.33,2.37-.46,1.02-.7,2.09-.95,3.17-.31,1.36.56,2.03,1.4,2.74.13.11.3.19.45.07.19-.16.14-.38,0-.54-.14-.18-.34-.32-.5-.49-1.02-1.01-1.1-1.68-.24-2.8,1.12-1.45,1.77-3.23,3.16-4.52ZM95.41,104c-.02,1.36-.02,1.35,1.28.96.51-.16,1.03-.3,1.56-.4.51-.1.7-.31.5-.83-.15-.41-.24-.84-.35-1.26-.06-.25-.19-.41-.46-.47-1.42-.32-2.51.54-2.53,2ZM85.36,56.99c.36,2.72,1.1,4.97,3.31,6.46.34.23.83.82,1.17.29.26-.41.18-1.12-.26-1.58-.23-.24-.52-.41-.79-.61-1.25-.91-2.14-2.09-2.72-3.52-.12-.3-.2-.63-.71-1.04ZM124.76,46.47c-.08-2.17-.57-4.14-1.63-5.94-.13-.22-.21-.58-.54-.48-.29.09-.25.44-.28.7-.02.16-.02.35.05.49.82,1.6,1,3.33,1.06,5.08.02.68.53,1.2,1.01,1.2.69,0,.18-.75.34-1.04ZM46.32,37.57c1.64-.53,2.95-1.37,4.08-2.57.49-.52.76-.99.54-1.68-.08-.24.05-.6-.3-.67-.25-.06-.41.2-.57.35-1.11,1.07-2.19,2.17-3.13,3.39-.25.32-.68.57-.63,1.17ZM42.92,97.92c-.02-.33-.15-.52-.34-.67-1.44-1.12-2.4-2.59-3.06-4.26-.19-.49-.55-.74-1.04-.83-.36-.07-.55.08-.42.43.83,2.27,2.14,4.22,4.07,5.72.16.12.37.23.54.06.13-.13.19-.34.25-.45ZM88.84,89.92s0,.03,0,.05c.63-.08,1.26-.14,1.88-.24.38-.06.54-.27.42-.72-.44-1.66-.53-1.73-2.19-1.46-.07.01-.13.01-.2.02-.66.11-1.72,1.26-1.56,1.82.23.79.99.41,1.53.52.03,0,.07,0,.1,0ZM37.02,93.1c-.27.02-.41.22-.57.39-.52.52-1.04,1.04-1.55,1.57-.55.58-.42,1.82.22,2.28.24.17.38.03.51-.1.68-.69,1.35-1.39,2.02-2.09.49-.51.05-.93-.14-1.36-.11-.25-.11-.62-.49-.68ZM62.26,58.32c-.08-1.46-.34-2.85-.69-4.21-.07-.27-.12-.88-.57-.5-.43.37-.95.94-.84,1.54.21,1.12.45,2.23.69,3.34.11.51.75.92,1.23.84.47-.07.08-.69.17-1.01ZM129.52,51.56c0-2.05-1.46-4.21-3.16-4.86-.2-.07-.39-.16-.54.04-.13.17-.15.4-.04.57.13.19.32.34.5.48,1.39,1.04,2.46,2.2,1.84,4.16-.15.47.16,1.03.6,1.16.5.14.54-.48.68-.82.11-.27.1-.59.12-.72ZM97.37,17.88c-.08-.1-.14-.26-.24-.28-.65-.17-1.31-.58-1.94.1-.54.59-1.15,1.12-1.68,1.71-.23.25-.86.53-.39.91.41.32,1.01.86,1.61.33.84-.75,1.61-1.59,2.4-2.4.09-.09.14-.22.24-.37ZM86.48,80.45c-.79-.17-1.11.05-1.33.5-.42.86-1.11,1.51-1.78,2.17-.36.35-.73.69-1.09,1.05-.21.21-.35.47,0,.66.28.15.56.68.93.21,1.03-1.34,2.51-2.24,3.51-3.6.17-.24.45-.48.31-.8-.16-.35-.53-.18-.53-.18ZM116.98,115.43c2.53-1.3,9.78-8.52,10.11-10-1.3,1.28-2.68,2.5-3.89,3.87-1.56,1.78-3.2,3.44-5.2,4.72-.51.32-.88.7-1.02,1.41ZM131.37,99.13c-2.09,2.27-4.88,3.93-5.92,7.07,2.15-2.21,4.74-4.04,5.92-7.07ZM98.94,124.28c2.23.05,4.73-1.64,5.56-3.59-2.61-.1-3.86,1.88-5.56,3.59ZM98.27,100.14c.19-.86-.21-1.11-.99-.96-.56.1-1.13.15-1.68.27-.49.11-1.16.09-1.03.91.11.7.92,1.28,1.57,1.16.39-.08.78-.21,1.18-.22.79-.03,1.08-.42.95-1.16ZM63.31,22.61c2.89-.27,3.97-2.82,5.85-4.4-.78-.13-1.5.03-1.99.5-1.33,1.25-2.58,2.6-3.86,3.9ZM41.38,85.25c1.06-.13,2.01-.52,2.84-1.19.63-.51.19-.94-.1-1.38-.3-.46-.62-.55-1.06-.15-.58.53-1.27.88-2.01,1.12-.4.13-.84.21-.65.78.15.46.38.88.98.82ZM96.76,42.16c-.45-.04-1.1,1.17-.83,1.69.4.77.84,1.53,1.35,2.23.56.77.99-.03,1.42-.25.46-.23.46-.59.1-.98-.64-.69-1.21-1.44-1.65-2.27-.09-.17-.16-.38-.39-.42ZM101.33,23.53c.42.02.66-.21.9-.45.7-.72,1.42-1.42,2.11-2.14.2-.22.7-.41.39-.79-.3-.36-.79-.53-1.27-.31-.23.1-.42.32-.61.51-.66.66-1.32,1.33-1.96,2.01-.23.25-.74.43-.52.85.17.34.67.21.96.31ZM55.71,74.13c-.54.17-.82.37-1.04.32-1.32-.28-1.37.67-1.52,1.52-.06.33-.08.67-.13,1-.14.94.71,1.11,1.22,1.53.18.14.38-.06.4-.29.09-1.34.47-2.61,1.07-4.07ZM73.48,72.67c-.43,0-.4.47-.55.78-.18.36-.08.65.3.81.89.38,1.78.77,2.67,1.14.34.14.66.15.86-.24.21-.41.32-.87-.09-1.19-.91-.7-2-1.02-3.19-1.3ZM71.9,125.32c.09-.02.3,0,.4-.09.75-.71,1.52-1.41,2.2-2.19.34-.39-.09-.46-.39-.54-1.36-.41-2.22.35-3,1.29-.27.33-.88.56-.74.99.15.45.81.36,1.24.5.06.02.13.03.28.05ZM67.67,90.49c.62.15,1.08.13,1.3.35,1.26,1.25,1.79-.06,2.45-.7.43-.41.74-.94,1.07-1.44.19-.29.53-.69.22-.99-.36-.34-.62.18-.91.35-1.29.79-2.32,2.01-4.14,2.42ZM76.32,122.56c-.47-.05-.85.1-1.18.43-.49.5-1.01.97-1.47,1.5-.26.29-.96.59-.57.97.4.39,1.13.56,1.75.13.16-.11.3-.27.44-.41.52-.52,1.04-1.04,1.54-1.58.21-.23.64-.41.41-.81-.19-.34-.59-.22-.91-.24ZM100.54,18.77c-.05-.24-.25-.29-.43-.37-.46-.19-.86-.06-1.19.28-.82.84-1.64,1.68-2.46,2.52-.28.28-.51.56-.09.92.36.31.67.39,1.04,0,.93-.97,1.89-1.91,2.84-2.86.14-.14.3-.28.3-.5ZM66.72,26.63c.03-.37.07-.8-.53-.66-.98.22-1.93.53-2.84.96-.23.11-.38.25-.17.54.35.47,1.87,1.04,2.38.96,1.1-.16,1.1-.98,1.15-1.8ZM103.35,24.03c.43.05.71-.17.98-.44.58-.6,1.18-1.18,1.74-1.8.23-.26.8-.5.3-.96-.43-.39-.92-.51-1.4.01-.66.7-1.37,1.37-2.03,2.06-.2.2-.55.4-.43.73.13.37.55.3.84.39ZM42.75,104c-.09-.51-.17-.94-.22-1.37-.07-.56-.3-.64-.69-.25-.57.56-1.13,1.14-1.69,1.7-.23.23-.4.5-.18.79.3.39.48.93,1.02,1.04.39.08,1.77-1.54,1.76-1.92ZM88.07,72.9c-.81-.91-1.4-1.72-1.92-2.57-.26-.43-.58-.82-.92-1.19-.26-.3-.61-.23-.92-.06-.25.14-.25.34-.18.6.48,1.9,1.71,2.97,3.94,3.22ZM80.69,84.48c.1-.04.29-.06.39-.17,1-1.08,2.22-1.95,3.04-3.19.15-.22.51-.48.11-.74-.3-.19-.67-.13-.92.15-.33.38-.56.85-.93,1.17-.71.61-1.49,1.13-2.22,1.71-.21.17-.57.36-.35.72.16.27.51.29.87.34ZM110.53,27.2c.3-.01.44-.2.61-.37.52-.52,1.06-1.01,1.55-1.55.25-.27.88-.52.27-1.01-.41-.33-.85-.7-1.39-.13-.55.58-1.14,1.12-1.69,1.7-.19.2-.54.4-.31.75.22.35.6.51.96.61ZM42.47,100.42c0-.25.16-.55-.17-.71-.17-.08-.34.01-.45.13-.96.97-1.93,1.94-2.87,2.94-.36.39-.07.76.2,1.06.34.38.6.07.83-.16.66-.66,1.28-1.36,1.96-2,.38-.36.53-.75.5-1.25ZM97.78,96.51c-.86.4-1.92.78-3.02,1.08-.37.1-.28.48-.22.78.07.32.28.43.59.39.96-.13,1.92-.23,2.87-.41.72-.13.59-.81.65-1.3.05-.43-.32-.53-.88-.53ZM74.56,52.26c.96.9,2.14,1.33,3.34,1.72.57.19,1.17.28,1.78.29.55,0,.65-.38.7-.8.05-.39-.08-.69-.53-.67-1.78.08-3.53-.13-5.29-.54ZM126.67,36.57c-.02-.4-.27-.59-.48-.8-.2-.2-.44-.14-.63.04-.81.8-1.63,1.59-2.4,2.43-.37.4.04.75.28,1.05.32.4.59.13.83-.12.71-.71,1.41-1.43,2.1-2.15.13-.14.22-.32.3-.45ZM72.87,90.98c-.08-.28.1-.63-.21-.76-.39-.17-.48.26-.68.44-.5.44-.93.99-1.48,1.34-.67.43-.95.99-1,1.73-.02.21-.23.49.07.62.24.11.44-.12.6-.28.42-.44.94-.74,1.42-1.1.65-.5,1.33-1.04,1.29-1.98ZM69.28,21.16c1.22-1.22,2.96-1.6,4.2-2.77.34-.32.66-.66.98-1,.11-.12.27-.23.19-.42-.08-.2-.28-.17-.43-.14-.69.11-1.36.22-1.88.81-.73.82-1.57,1.55-2.33,2.35-.3.32-.71.58-.73,1.17ZM38.9,96.34c-.06-.29-.25-.62-.54-.83-.34-.25-.54.09-.75.29-.6.58-1.16,1.22-1.8,1.76-.65.56-.04.91.17,1.28.3.53.62.15.88-.11.6-.59,1.18-1.19,1.77-1.79.14-.14.3-.28.27-.6ZM40.93,92.63c-.67-.05-.78.18-.5.7.59,1.1,1.24,2.15,2.19,2.98.24.21.49.71.88.19.27-.36.61-.77.03-1.2-.77-.57-1.34-1.31-1.77-2.15-.19-.37-.48-.54-.82-.52ZM110.06,22.9c0-.42-.31-.46-.52-.61-.36-.24-.68-.21-.99.11-.63.65-1.26,1.31-1.91,1.93-.54.52-.31.75.26.99.47.19.83.13,1.17-.25.54-.59,1.11-1.16,1.67-1.75.13-.14.24-.31.33-.42ZM118.36,28.44c.04-.35-.18-.48-.36-.61-.31-.23-.56-.09-.8.14-.78.78-1.58,1.54-2.35,2.34-.24.25-.78.53-.34.96.34.33.83.29,1.18-.06.84-.82,1.65-1.66,2.47-2.49.09-.09.15-.21.19-.28ZM105.36,24.67c.32.03.52-.14.71-.34.59-.6,1.2-1.16,1.76-1.78.22-.24.83-.49.29-.94-.39-.33-.85-.54-1.32-.02-.61.67-1.26,1.29-1.88,1.95-.19.2-.58.36-.41.71.15.32.55.33.85.42ZM114.04,30.49c.07-.05.17-.09.24-.15.89-.9,1.79-1.8,2.68-2.7.24-.24.17-.48-.07-.69-.28-.24-.58-.37-.89-.07-.82.83-1.64,1.66-2.45,2.5-.22.22-.24.46-.05.72.14.19.26.39.55.39ZM127.72,37.94c.02-.55-.61-1.02-.93-.72-.9.84-1.77,1.72-2.6,2.64-.3.33.01.7.19,1.01.17.29.41.18.58,0,.87-.87,1.74-1.75,2.6-2.64.09-.09.12-.23.15-.29ZM37,92.07c-.21-.38-.41-1.01-.91-.61-.88.7-1.65,1.57-2.42,2.41-.31.34.04.7.22,1,.15.24.41.26.6.06.78-.78,1.55-1.58,2.31-2.38.1-.11.12-.3.19-.48ZM66.61,21.58c.72.15,1.22.02,1.62-.38,1.05-1.03,2.09-2.08,3.12-3.13.15-.15.42-.32.22-.58-.14-.18-.37-.07-.57-.03-.41.09-.74.29-1.03.59-1.09,1.15-2.3,2.2-3.37,3.53ZM71.5,59.14c-.15-.7.01-1.79-.97-1.79-.86,0-.85,1.03-.92,1.76,0,.03,0,.07,0,.1.06.75-.05,1.83.91,1.81.88-.02.89-1.08.97-1.88ZM69.14,124.64c.52.05.73-.09.93-.29.45-.45.89-.9,1.34-1.35.52-.51.29-.7-.3-.82-1.02-.2-2.66.69-3.07,1.69-.12.29,0,.45.26.53.35.11.71.2.85.23ZM68.92,122.27c.05-.28-.07-.37-.22-.47-1-.58-2.87.14-3.27,1.25-.07.19-.03.36.14.42.56.19,1.13.71,1.7.41.7-.37,1.25-1,1.66-1.61ZM68.79,81.97c-.02-.18-.04-.52-.12-.84-.09-.36-.24-.73-.68-.78-.47-.05-.63.34-.76.68-.33.84-.35,1.71,0,2.55.11.28.3.56.64.57.35.01.51-.27.64-.55.22-.47.27-.97.29-1.63ZM70.02,78.95c0,.81.42,1.12.98.81.68-.37,1.57-1.99,1.48-2.72-.08-.62-.4-.84-.96-.49-.91.57-1.36,1.43-1.5,2.41ZM111.96,28.29c.31,0,.5-.21.69-.39.55-.54,1.09-1.09,1.63-1.65.27-.28.71-.54.23-.98-.39-.36-.79-.47-1.23-.02-.6.63-1.24,1.23-1.85,1.85-.19.19-.41.4-.19.69.19.24.41.44.71.5ZM33,81.65c-.03-.27-.13-.82-.58-.45-.85.69-1.67,1.45-2.28,2.38-.21.32.01.72.14,1.06.07.2.24.19.42.14.58-.16,2.29-2.41,2.3-3.12ZM92.13,16.61c-.42-.02-.72.19-.99.46-.52.52-1.05,1.04-1.55,1.57-.22.23-.66.44-.48.8.21.43.71.26,1.09.25.29,0,.47-.23.66-.42.57-.57,1.14-1.13,1.71-1.7.18-.18.49-.36.35-.66-.15-.31-.53-.23-.79-.3ZM65.88,19.11c-2.24,1.06-3.63,3.05-5.24,4.81,2.28-1.01,3.61-3.07,5.24-4.81ZM34.04,74.91c.04.3.06.6.13.89.13.52.28,1.03.46,1.53.1.3.17.76.6.65.4-.11.8-.39.94-.83.17-.55-.82-2.36-1.37-2.68-.55-.32-.8-.23-.76.44ZM149.08,33.71c-.25.52-.81.53-1.22.82-.3.21-.36.49-.23.8.14.35.44.26.68.14.82-.41,2.17-.45,1.47-1.99-.02-.04.04-.12.07-.18.12-.28.26-.59-.04-.83-.3-.23-.56.04-.83.16-.34.14-.69.26-1.02.42-.35.17-.48.49-.32.84.16.36.46.15.7.09.25-.07.5-.17.75-.26ZM88,66.35c-.47-.13-.64,0-.42.49.27.63,2.92,1.99,3.55,1.8.15-.04.29-.17.23-.27-.35-.57-.35-1.42-1.19-1.61-.72-.16-1.44-.28-2.17-.41ZM124.77,34.4c-.37.03-2.64,2.39-2.63,2.77,0,.3.05.62.36.77.27.13.44-.09.6-.25.71-.7,1.4-1.43,2.1-2.14.23-.24.35-.49.13-.8-.14-.19-.29-.37-.56-.36ZM90.25,16.33c-.35-.05-.6.04-.8.23-.78.77-1.56,1.55-2.32,2.34-.37.39-.12.59.27.68.43.1.79-.03,1.09-.34.7-.72,1.4-1.42,2.08-2.15.14-.15.44-.3.26-.57-.14-.22-.42-.16-.58-.19ZM60.85,121.59c.63-.14.9-.7,1.3-1.08.26-.25.9-.54.3-1.01-.46-.37-.99-.95-1.62-.16-.21.26-.48.47-.7.73-.22.26-.74.45-.5.87.24.41.78.48,1.2.65ZM93.68,46.57c-.55.32-.68.97-.91,1.54-.07.17,1.54,1.36,1.78,1.29.53-.15.85-.54.9-1.07.04-.4-1.34-1.76-1.77-1.75ZM74.38,82.73c-.11-.71-.22-1.42-.65-2.01-.19-.27-.44-.58-.82-.48-.38.1-.43.48-.45.82-.04.76.13,1.47.57,2.1.22.31.48.65.89.49.38-.14.42-.57.46-.93ZM60.7,118.71c-.02-.12-.19-.19-.37-.28-.87-.44-1.58-.27-2.16.52-.22.31-.75.53-.53.97.19.38.68.51,1.1.61.31.07,1.94-1.38,1.97-1.82ZM33.48,93.28c.06-.04.16-.07.23-.14.64-.63,1.3-1.24,1.92-1.9.26-.28.07-.56-.21-.75-.28-.2-.55-.59-.94-.22-.55.53-1.09,1.08-1.58,1.66-.33.39.04.75.16,1.11.06.17.2.26.42.23ZM130.4,41.88c-.07.03-.18.05-.24.11-.66.67-1.32,1.33-1.95,2.01-.22.24-.16.5.12.68.27.18.55.51.88.2.62-.56,1.2-1.16,1.78-1.76.25-.26.14-.56-.03-.83-.13-.2-.24-.41-.55-.42ZM91.83,20.04c.4.04.71-.13.98-.42.51-.53,1.04-1.04,1.52-1.6.21-.25.74-.52.37-.89-.34-.34-.86-.32-1.26.08-.66.67-1.31,1.34-1.97,2-.15.15-.29.32-.23.52.08.27.37.23.59.29ZM32.78,84.97c-.05-1.02-.08-1.19-.29-1.18-.47,0-.61.47-.91.72-.23.19-.44.41-.64.63-.43.47-.41,1.58,0,2.02.14.14.27.15.44.07.58-.26,1.41-1.62,1.38-2.26ZM88.24,16.13c-.53-.08-.85.07-1.12.36-.42.44-.86.85-1.26,1.3-.21.24-.79.44-.36.86.36.35.87.52,1.33.02.53-.56,1.09-1.09,1.63-1.65.2-.2.57-.36.38-.72-.15-.28-.48-.15-.6-.17ZM76.34,71.48c.94-.03,2.08-.78,2.05-1.38-.03-.66-.56-.66-1.03-.65-1.04.02-2.11.75-2.05,1.41.06.68.65.53,1.03.62ZM66.31,121.57c-.04-.17-.03-.27-.06-.29-.48-.3-1.01-.74-1.54-.44-.64.36-1.26.85-1.5,1.62-.02.05.09.19.16.22.45.19.94.62,1.39.32.59-.39,1.06-.97,1.54-1.43ZM122.64,45.17c-.04-.78-.2-1.53-.42-2.27-.09-.32-.23-.6-.62-.26-1.35,1.2-1.27,2.17.26,3.06.19.11.37.36.62.2.27-.17.16-.48.15-.74ZM126.16,43.28c.06-.02.14-.02.19-.06,1.06-.92,2.05-1.91,2.95-2.99.14-.17,0-.38-.13-.54-.17-.19-.38-.18-.53-.03-.97.96-1.93,1.94-2.9,2.91-.12.12-.19.27-.09.45.12.19.29.26.51.26ZM92.22,95.79c1.37,1.3,2.62,1.17,3.92.61.52-.22.59-.41.06-.79-1.37-1.01-2.5.2-3.98.18ZM96.88,46.9c-.4-.64-.81-1.32-1.24-1.99-.17-.27-.3-.87-.76-.43-.37.35-1.17.71-.58,1.44.46.57,1.03,1.04,1.54,1.56.19.19.4.25.63.11.24-.14.42-.33.4-.69ZM69.62,84.25c1.63-.37,2.32-1.88,2.11-4.17-1.89.81-1.2,2.78-2.11,4.17ZM61,73.04c-.63.04-1,.29-.64.89.49.83,1.27,1.31,2.22,1.36.6.03.88-.38.54-.94-.49-.79-1.24-1.19-2.12-1.31ZM82.04,126.61c.81.04,1.71-.49,2.14-1.23.22-.38.12-.5-.29-.59-1.15-.25-2.25.23-2.84,1.26-.17.29-.11.44.2.49.26.04.53.05.8.07ZM63.73,73.61c.84-.36,1.74-.73,2.43-1.45.27-.29.58-.61.47-1.06-.06-.25-.28-.76-.56-.31-.64,1.02-1.65,1.31-2.67,1.66-.28.09-.65.22-.52.6.11.3.39.54.85.56ZM122.04,36.24c.06-.03.17-.05.24-.12.67-.66,1.34-1.31,1.98-2,.27-.3.02-.55-.2-.77-.23-.23-.49-.41-.78-.13-.58.56-1.14,1.14-1.7,1.72-.3.31-.14.62,0,.93.09.18.17.37.45.38ZM63.28,71.69c.61-.04,1.17-.23,1.66-.6.26-.2.58-.42.47-.81-.13-.43-.53-.45-.9-.48-.62-.04-1.2.15-1.7.5-.31.21-.79.44-.64.91.15.5.68.45,1.12.49ZM53.25,79.3c.05-.72-.29-1.04-.81-.77-.85.44-1.36,1.16-1.54,2.1-.05.27.01.54.26.71.27.19.51.05.74-.1.72-.49,1.17-1.17,1.35-1.94ZM60.76,61.04c.26-.03.78.04.93-.49.13-.47-.3-.7-.63-.93-.61-.41-1.29-.61-2.01-.45-.61.13-.8.48-.34,1,.5.56,1.15.8,2.04.86ZM111.42,23.65c.01-.3-.14-.43-.32-.52-.28-.14-.52-.05-.73.15-.64.64-1.27,1.28-1.9,1.92-.21.21-.51.43-.19.75.31.3.65.3.97-.02.63-.64,1.27-1.28,1.89-1.93.11-.12.2-.26.27-.35ZM52.75,71.39c.09.71.42,1.47,1.04,2.06.5.47.85.29.93-.36.12-.93-.26-1.69-.91-2.33-.2-.2-.41-.5-.77-.32-.33.17-.27.5-.31.95ZM81.78,70.52c-.32.03-.6.02-.76.29-.19.32-.04.59.15.82.54.66,1.29.92,2.1,1.02.28.03.54-.08.68-.34.15-.27.04-.52-.14-.73-.55-.63-1.25-.97-2.03-1.06ZM48.74,28.71c-1.81,1.09-6.76,6.13-6.95,6.81,2.16-2.12,4.55-4.46,6.95-6.81ZM31.29,88.32c.18.41.14,1.06.58,1.28.46.24.67-.4,1.01-.64.19-.13.34-.32.48-.51.43-.59-.15-1.06-.23-1.59-.03-.21-.2-.34-.44-.31-.34.05-1.41,1.36-1.39,1.76ZM127.42,43.97c.07-.01.15,0,.19-.04.9-.74,1.74-1.56,2.46-2.49.16-.2.05-.46-.14-.63-.22-.2-.44-.11-.62.07-.76.76-1.52,1.52-2.27,2.28-.15.15-.24.32-.12.54.11.2.3.26.51.28ZM28.66,71.28c.02.09-.17.42.16.55.27.1.41-.16.56-.32.51-.53,1.03-1.05,1.53-1.59.45-.49.3-1.12-.05-1.45-.36-.33-.52.31-.77.53-.35.31-.66.66-1.01.97-.37.31-.5.69-.42,1.32ZM119.95,33.47c.1.1.2.19.3.29.44-.58.87-1.17,1.34-1.73.31-.37.54-.67.08-1.1-.4-.37-.72-.38-1.1.03-.4.44-.84.86-1.26,1.29-.19.2-.4.41-.16.68.22.25.44.51.81.54ZM47.38,109.93c-.29,0-1.38.89-1.46,1.19-.15.57.35.77.67.99.78.56,1.01-.31,1.41-.65.25-.22.73-.45.52-.87-.22-.42-.73-.54-1.14-.67ZM92.84,51.23c.7.03.93-.44,1.08-.92.11-.34-.96-1.18-1.45-1.2-.36-.01-1.46,1.3-1.28,1.73.33.8,1.21-.19,1.65.38ZM119.53,29.24c-.02-.23-.19-.35-.36-.44-.25-.13-.45-.02-.63.16-.61.62-1.23,1.23-1.82,1.86-.2.21-.71.38-.36.77.33.36.77.34,1.15-.04.56-.57,1.13-1.14,1.69-1.71.16-.16.34-.33.34-.59ZM128.07,38.48c-.06.02-.14.03-.18.07-1.03,1-2.12,1.95-2.99,3.11-.15.2-.08.46.11.64.19.18.38.07.53-.08.96-.98,1.92-1.97,2.88-2.95.15-.16.18-.35.07-.55-.09-.15-.22-.25-.41-.24ZM77.3,16.37c-1.4-.18-2.1.82-2.92,1.65-.09.09-.21.2-.11.34.11.16.29.12.45.11,1.13-.12,2.11-.54,2.84-1.45.12-.15.32-.27.23-.5-.1-.24-.33-.17-.5-.14ZM88.78,68.81c.55,1.21,1.46,1.75,2.41,2.23.36.18.82.39.93-.25.08-.45.33-1.03-.43-1.23-.9-.23-1.8-.46-2.91-.75ZM51.26,113.33c-.28-.35-.41-.93-1.02-1.03-.26-.04-1.53,1.33-1.44,1.55.22.5.62.87,1.16.97.29.05,1.31-1.12,1.3-1.48ZM58.31,118c-.33-.5-.97-.68-1.49-.66-.64.03-1.21.66-1.24,1.23-.03.58.75.74,1.28.89.34.09,1.46-1.03,1.45-1.46ZM67.47,84.89c-.53-.11-.92-.06-1.2.38-.34.53-.72,1.04-1.09,1.55-.12.17-.28.36-.13.54.19.22.43.09.63-.04.69-.46,1.38-.92,2.04-1.42.25-.19.61-.46.53-.79-.11-.44-.57-.12-.78-.22ZM86.61,126.55c1.38.23,2.03-.8,2.82-1.6.08-.08.14-.25.1-.35-.07-.19-.27-.13-.43-.13-1.25,0-2.13.66-2.86,1.58-.07.09-.15.25-.12.34.08.25.32.17.5.16ZM92.06,51.78c-.7.15-1.1.64-1.37,1.29-.28.68-.15,1.34.2,1.92.17.29.42,0,.51-.2.33-.81.75-1.56,1.18-2.32.28-.48-.04-.66-.52-.7ZM84.19,121.54c1.65.36,3.05.08,4.44-.23.17-.04.33-.13.33-.32,0-.23-.21-.21-.36-.25-1.5-.38-2.9-.19-4.41.81ZM120.41,33.95c.03.26.19.48.39.65.23.19.44.07.62-.11.52-.52,1.04-1.04,1.55-1.56.18-.19.23-.42.06-.63-.16-.2-.32-.44-.64-.42-.25.02-1.97,1.8-1.98,2.07ZM29.35,80.57c.36.06-.19,1.11.6.68.67-.36,1.15-1.1,1.67-1.71.25-.3,0-.64-.11-.95-.06-.18-.2-.25-.4-.21-.35.07-1.76,1.72-1.76,2.19ZM44.15,109.63c.35.52.68,1.16,1.29,1.14.52-.02.96-.56,1.16-1.11.09-.23-1.09-1.24-1.36-1.15-.52.18-.84.6-1.09,1.11ZM92.46,95.09c.42-.11.9-.22,1.38-.35.59-.16.52-.43.21-.87-.56-.81-1.23-.42-1.87-.22-.31.1-.91-.06-.79.49.1.44.34.97,1.06.95ZM61.27,49.23c0-1.36-.86-2.19-2.23-2.15-.31,0-.51.12-.28.4.59.71,1.23,1.39,1.86,2.07.13.13.34.26.54.13.16-.1.13-.29.11-.45ZM59.73,50.39c.06-.07.12-.13.18-.2-.67-1.17-1.52-2.18-2.63-2.97-.4-.28-.94-.79-1.3-.3-.28.39.46.61.75.88.98.89,2,1.73,3,2.59ZM63.63,82.99s0-.04,0-.05c-.6,0-1.2,0-1.8.02-.18,0-.45,0-.41.3.02.19.22.23.39.25,1.18.12,2.34.53,3.56.3.27-.05.67.21.68-.29.01-.43-.34-.53-.71-.53-.57,0-1.14,0-1.71,0ZM113.01,29.22c.1-.06.26-.12.37-.24.73-.73,1.45-1.48,2.17-2.22.19-.19.4-.41.12-.68-.24-.23-.49-.15-.7.06-.76.75-1.52,1.5-2.27,2.26-.15.15-.22.33-.13.54.07.17.2.26.45.27ZM98.68,18.31c-.02-.23-.1-.32-.24-.36-.26-.06-.46.05-.63.22-.8.8-1.6,1.6-2.39,2.41-.18.18-.46.4-.22.67.27.3.55.09.77-.13.83-.82,1.65-1.64,2.47-2.48.11-.11.18-.26.23-.34Z"/>
      <path d="M151.31,127.2c.53-4.61,1.05-9.21,1.58-13.82.85-7.48,1.71-14.96,2.56-22.43,1.6-13.95,3.21-27.91,4.81-41.86,1.06-9.25,2.13-18.49,3.14-27.74.12-1.06.57-1.52,1.56-1.74,2.66-.6,2.73-.59,4.52,1.51.38.45.34.91.27,1.42-.73,5.05-1.46,10.11-2.19,15.16-.79,5.45-1.58,10.91-2.38,16.36-1.93,13.1-3.87,26.19-5.78,39.29-1.58,10.84-3.13,21.68-4.7,32.53-.08.56-.17,1.13-.27,1.69-.14.78-1.04,1.39-1.88,1.26-.62-.09-1.26-.93-1.24-1.62ZM152.14,126.47c.01.25-.16.64.3.69.37.04.5-.29.55-.6.15-.96.29-1.93.41-2.89,1.05-8.19,2.08-16.38,3.16-24.57,1.06-8.09,2.17-16.17,3.23-24.26,1.11-8.42,2.18-16.85,3.28-25.27.32-2.5.68-4.99,1-7.49.04-.3.26-.69-.19-.89-.63-.28-2.06.53-2.15,1.24-.15,1.27-.26,2.54-.4,3.81-1.54,13.41-3.09,26.83-4.64,40.24-.91,7.87-1.81,15.75-2.71,23.63-.62,5.44-1.23,10.88-1.84,16.35ZM153.37,127.02c.11.02.22.03.33.05.32-2,.65-4,.95-6.01,1.34-9.14,2.67-18.29,4-27.43,2.43-16.69,4.84-33.39,7.29-50.08.11-.74-.11-1.23-.64-1.67-.18-.15-.31-.39-.59-.31-.29.09-.25.36-.28.59-.81,6.16-1.64,12.32-2.44,18.48-.65,5.06-1.25,10.13-1.92,15.19-1.07,8.12-2.18,16.24-3.27,24.36-1,7.45-1.99,14.91-2.97,22.37-.19,1.48-.31,2.97-.47,4.46ZM166.91,20.78c.09-.73-.21-.99-.87-.68-.65.3-1.71.02-1.85,1.06-.27,1.99-.45,3.99-.66,5.99-.02.22-.06.48.22.61.51.24,2.19-.55,2.28-1.13.31-1.95.59-3.9.88-5.85ZM166.45,27.14c-.15.47.35.76.69,1.1.22.22.4.64.79.49.34-.12.24-.52.28-.8.25-1.62.35-3.28.75-4.87.31-1.22-.35-1.81-1.06-2.47-.41-.38-.65-.23-.71.3-.24,2.03-.48,4.06-.74,6.25ZM164.47,33.48c.01.06.03.13.04.19-.47.15-.95.28-1.42.45-.37.14-.52.47-.4.82.12.34.45.22.7.16.89-.24,2.1-.18,1.64-1.71-.01-.04.06-.12.09-.17.16-.27.3-.56.05-.83-.25-.28-.57-.12-.85-.04-.39.11-.78.22-1.14.38-.26.11-.43.36-.35.66.09.34.38.33.66.28.33-.06.65-.11.98-.17ZM165.23,29.23c-.7.21-1.18.34-1.65.5-.33.11-.48.38-.42.71.07.41.4.39.71.32.42-.09.85-.2,1.26-.34.31-.1.85-2.04.65-2.27-.07-.08-.24-.14-.35-.13-.63.1-1.26.2-1.82.51-.22.12-.34.33-.24.59.11.28.33.27.58.2.35-.11.7-.2,1.3-.09Z"/>
      <path d="M82.59,26.95c2.56.05,5.46,1.42,7.28,4.59,1.86,3.23,1.6,6.56-.17,9.71-2.47,4.39-7.64,6.67-12.15,5.55-5.36-1.33-8.28-6.43-6.72-11.74,1.38-4.7,5.87-8.09,11.77-8.12ZM76,31.62c-.05,0-.1-.02-.16-.03,0-.33,0-.66,0-1-.01-.22.07-.51-.23-.6-.23-.07-.35.14-.49.28-1.03,1.01-2.07,1.97-2.72,3.35-.36.76-.29,1.6-.67,2.26-1.18,2.09.03,3.94.49,5.85.23.95,1.16,1.61,1.84,2.25,1.34,1.25,3,2.02,4.91,2.13,2.83.17,5.33-.69,7.52-2.41.87-.69,1.85-1.49,1.53-2.89-.06-.26-.01-.54-.01-.82.11.33.1.67.12,1,0,.19-.07.44.2.51.25.06.35-.15.44-.33.8-1.47,1.04-3.13,1.51-4.72.08-.27.09-.66-.04-.89-.64-1.04-.46-2.31-1.08-3.39-.99-1.72-2.33-2.97-4.12-3.69-2.47-1-4.95-.63-7.38.2-1.36.47-1.6.89-1.63,2.35,0,.2-.02.39-.03.59Z"/>
      <path d="M80.61,95.27c-1.11.02-2.61.33-3.96,1.17-3.91,2.47-4.3,8.57-.75,11.82,2.14,1.96,4.8,2.59,7.58,2.87.43.04,1.2-.16,1.17.41-.04.71-.81.34-1.24.31-3.29-.29-6.34-1.15-8.66-3.72-3.96-4.38-2.02-11.52,3.61-13.21,2.68-.8,5.25-.61,7.59,1.06,3.68,2.62,3.7,7.72.05,10.14-1.98,1.31-5.02,1.04-6.51-.58-.98-1.07-1.17-2.65-.45-3.82.39-.63.94-1.06,1.69-1.13.35-.03.89-.11.94.33.06.5-.48.3-.77.35-.8.12-1.23.63-1.44,1.36-.29,1-.01,1.86.72,2.57,1.14,1.11,3.39,1.37,4.92.61,3.23-1.63,3.88-5.76,1.31-8.43-1.46-1.51-3.24-2.23-5.81-2.11Z"/>
    </g>
  </g>
</svg>