<?xml version="1.0" encoding="UTF-8"?>
<svg id="Lag_1" xmlns="http://www.w3.org/2000/svg" viewBox="0 0 108 108">
  <defs>
    <style>
      .cls-1 {
        fill: #ff90a8;
      }
    </style>
  </defs>
  <path class="cls-1" d="M76.53,0H31.47C14.16,0,0,14.16,0,31.47v45.05c0,17.31,14.16,31.47,31.47,31.47h45.05c17.31,0,31.47-14.16,31.47-31.47V31.47c0-17.31-14.16-31.47-31.47-31.47ZM75.85,59.08h-.76c-8.59-1.01-13.14-1.77-16.42-2.02.38,3.28,1.01,7.83,1.89,16.55l.13.88c0,3.54-3.03,5.31-6.06,5.31s-6.06-1.77-6.06-5.31v-.88c.88-8.72,1.52-13.26,1.89-16.55-3.16.25-7.71,1.01-16.42,2.02h-.76c-3.54,0-5.31-3.03-5.31-6.19s1.77-6.06,5.31-6.06h.76l16.42,2.02c-.38-3.16-1.01-7.71-1.89-16.42v-.88c0-3.54,3.03-5.3,6.06-5.3h.25c2.91,0,5.81,1.77,5.81,5.18l-.13,1.01c-.88,8.71-1.52,13.26-1.89,16.42l16.42-2.02h.76c3.54,0,5.43,3.03,5.43,6.06s-1.89,6.19-5.43,6.19Z"/>
</svg>