<?xml version="1.0" encoding="UTF-8"?>
<svg id="Layer_1" data-name="Layer 1" xmlns="http://www.w3.org/2000/svg" viewBox="0 0 400 400">
  <path d="M177.59,308.39c0,.17.17,0,.17,0,.09,0,.09.34.26.26.17-.42.68-.6.6-1.11-.68-.26-1.11.34-1.02.85Z" fill="#fb97aa"/>
  <path d="M177.68,307.28c-.09,0-.43.26-.43.26,0,0,.08.08.08.17s-.17.09-.17.26c0,.08-.25.68.09.6.08-.17.25-.26.25-.43-.08-.25.43-.51.17-.85Z" fill="#fb97aa"/>
  <path d="M176.4,310.18c-.08.34-.17.68-.08,1.19.08,0,.17-.08.17-.17s.08,0,.08-.09.26-1.11-.17-.94Z" fill="#fb97aa"/>
  <path d="M176.23,309.41c0-.08.17-.17.17-.26.09-.08.09-.17.17-.25-.08-.09-.08-.26-.17-.26-.08.43-.42.6-.34,1.19.34,0,.09-.34.17-.43Z" fill="#fb97aa"/>
  <path d="M181.17,308.56c0,.17-.09.25-.09.43.26.08.34-.43.09-.43Z" fill="#fb97aa"/>
  <path d="M179.89,312.06c.08.17-.09.26-.09.34s-.08.25-.08.34-.17.17-.17.25v.51h-.09s.09.08.09.17-.17.17-.17.26c-.08.34.17.51,0,.85.26.09,0-.25.09-.34.09-.08.34-.08.34-.17-.08-.34-.08-.6.09-.77.08.08.08.25.17.25,0-.25.25-.25.17-.6.17-.08-.09-.17-.17-.51-.09-.25.08-.77-.17-.6Z" fill="#fb97aa"/>
  <path d="M178.7,304.39c-.17.17-.34.59-.08.77.25.09.25-.26.25-.43,0-.09.17-.09.17-.17s-.17-.17-.17-.26c-.08,0-.17,0-.17.09Z" fill="#fb97aa"/>
  <path d="M164.13,345.1c.17.34.34.59.25.93.34,0,0-1.11-.25-.93Z" fill="#fb97aa"/>
  <path d="M169.84,357.88c.09-.17.17-.6-.17-.6.09.17-.08.51.17.6Z" fill="#fb97aa"/>
  <path d="M179.72,308.39c-.17,0-.34.09-.26.26.17,0,.26-.17.26-.26Z" fill="#fb97aa"/>
  <path d="M169.16,359.32c-.17.17-.17.68-.17.85,0,.08-.17.26,0,.34-.09-.43.6-.85.51-1.11s.17-.51.09-.85c-.26.17-.43,0-.6.17.08.34,0,.34.17.6Z" fill="#fb97aa"/>
  <path d="M166.86,349.7c-.08-.17,0-.68-.26-.68-.17.26.09.6.26.68Z" fill="#fb97aa"/>
  <path d="M165.66,349.7c0-.51-.25-.85-.34-1.11-.08-.17.09-.25,0-.42,0-.08-.17-.08-.17-.08-.08-.09,0-.26-.08-.34-.09-.17-.17-.17-.26-.34s-.09-.42-.17-.6c0-.17,0-.51-.26-.59,0,.17.17.34.17.51-.17,0-.17-.08-.17.17-.08.34.26.09.09.25.17.17.17.26-.09.17.26.59-.17.68.09,1.27.17,0,.17-.17.25,0,.26.17.26.6.34.94.42.34.51,1.28.59,1.87.17-.09.26.09.43.09,0-.43-.17-.94-.34-1.37,0,0-.09-.25-.09-.42Z" fill="#fb97aa"/>
  <path d="M167.29,359.24c0-.17.17-.59-.09-.68.09.25-.25.51.09.68Z" fill="#fb97aa"/>
  <path d="M166.18,347.57c0,.17.17.34.17.17s-.17-.34-.17-.17Z" fill="#fb97aa"/>
  <path d="M167.2,358.13c0-.17.34-.51,0-.6.17.26-.34.51,0,.6Z" fill="#fb97aa"/>
  <path d="M167.46,356.94h-.09v.17s-.08.25.09.25c.17-.25.08-.51.17-.85-.26-.08-.17.26-.17.43Z" fill="#fb97aa"/>
  <path d="M167.63,345.19c0,.08-.09.26-.09.34s.09.17.17.17c.17-.43.25-.77.34-1.19-.43,0-.34.51-.43.68Z" fill="#fb97aa"/>
  <path d="M167.63,358.13c.09-.25.26-.77,0-.94-.09.17-.34.68,0,.94Z" fill="#fb97aa"/>
  <path d="M179.12,308.05h.17c.08-.17.08-.34-.17-.34,0,.09-.09.17,0,.34Z" fill="#fb97aa"/>
  <path d="M215.93,306.09h-.08c-.09,0-.09.26-.17.26.08.17.34.17.51.25,0-.34-.26-.34-.26-.51Z" fill="#fb97aa"/>
  <path d="M213.71,305.5c0,.09-.08.09-.08.09h.08v-.09Z" fill="#fb97aa"/>
  <path d="M223.25,329.85c-.25,0-.25.17-.25.34v.26h-.09c-.08,0,.09.26-.08.26,0,.34-.09.43-.09.77h-.26c0,.25-.08.34-.08.59-.17.09-.17.43-.34.6,0-.09-.17-.09-.17-.26s.08-.08.17-.17c.08-.68.17-1.19.34-1.7,0,0-.09-.09-.09-.17.09-.09.34-.68.43-.68v-.09c0-.17.09-.51.09-.68,0-.43,0-.34.17-2.05-.09-.09-.17-.17-.17-.34v-.17c0-.26-.09-.6-.09-.85-.08,0-.17,0-.17-.34h.26v-.09c0-.43-.17-.68-.17-1.11-.17-.43-.17-.94-.17-1.53,0-.09-.25-.09-.25-.17.08-.17.17-.42.17-.76,0-.43-.09-.94-.09-1.11l-.08-.08v-.08c0-.09.08-.09.08-.26,0-.08-.17-.08-.17-.17l-.08-.43c.08-.09.17-.17.17-.34,0-.09,0-.17-.09-.17v-.26c-.17,0-.25.09-.42.09v.17c0,.26.08.51.17.68-.17,0-.17,1.02-.17,1.88v1.02q.08,0,.08.09c0,.17-.17.34-.26.34v.59h-.17l.09.09-.09.09c0,.25-.08.51-.17.59l-.08-.08c-.09,0,0,.26-.09.34,0-.08-.17-.08-.17-.26,0-.08-.26-.08-.26-.25-.08,0-.08.17-.17.17,0-.17.09-.26.09-.43h-.26c-.08,0-.17,0-.17.08.09,0,.09.43.17.43v.34c0,.09.09.17.09.26-.09,0-.09.17-.17.17,0,0,.08.26.08.51,0,.17,0,.25-.08.25h-.09v-.43q-.08,0-.08-.08v-.26c.08,0,.08-.09.08-.17s-.08-.08-.08-.17c-.09-.25-.09-.6-.09-.94,0,0,.09,0,.09-.08h-.09c.09,0,.09-.09.09-.09,0-.09-.09-.09-.09-.17,0,0,0-.77.09-.85-.09,0,0-.34-.09-.34v-.51c-.08,0-.08-.09-.08-.09v-1.36c0-.43-.09-.94-.09-1.36,0-.26-.09-.51-.09-.77h-.08c-.09,0,0,0,0,.08v.26q0,.08-.09.08c-.08-.08-.17-1.27-.17-1.53l-.6-4.17c0-.51-.08-1.11-.25-1.53h-.09c-.08,0,0,.17-.08.17-.34-.77-.6-1.53-.94-2.21h-.17c-.17,0-.26.09-.34.17h-.08c-.17.08-.26.08-.51.08l-.17.6c-.08-.09-.08-.34-.17-.43h-.17c-.94,0-1.45.77-2.47.77h-.25c-.09,0-.17-.09-.26-.09s-.08,0-.17.09c0,0-.94,0-1.28.25h-.09c-.17,0-.34.26-.34.26-.77,0,0-.68.43-.68,0-.08.08,0,.08-.08,0,0-.08,0-.08-.08.08,0,.08-.09.08-.17v-.08c.09,0,.17,0,.17-.08s-.17-.26-.17-.26c0,0,.17-.25.26-.25l.09.09c.25-.17.51-.51.59-.51h.09c0-.08,0-.17.09-.17h.08c.09,0,.17-.08.34-.08h.09c.08-.09,0-.26.08-.34.26-.43,2.64-1.11,2.64-1.53,0-.09,0-.17-.08-.17-.09-.08-.26,0-.26-.17h.26c0-.09-.17-.26-.17-.26h-.09q-.08-.08-.08-.26c-.26,0-.17-.09-.26-.25-.34.17-.68.25-.85.25v.17q-.08-.09-.17-.09c-.08,0-.17.09-.25.17,0-.26-.26-.08-.26-.34.09,0,.09-.08.09-.08v-.08h-.09c0-.09-.17-.17-.17-.17h.09c0-.08-.09-.08-.09-.08-.09,0,0,.08-.09.08,0,0-.08,0-.08-.08v.08h-.17c.08,0,.08.09.17.09,0,0,.08,0,.08.09s-.08,0-.08.17c.17,0,.08.26.17.26v-.09s0,.09.09.09l.08.17h-.17c0,.17-.09.17-.34.17,0-.09-.09-.34-.09-.43h.09c0-.09.08,0,.08-.09h-.34c0,.09-.08.09-.17.09v-.09c0-.09.09-.17.09-.25l-.09-.09c-.08,0-.26.17-.34.25v.09c0,.09-.09.09-.09.17,0,0,.17.17.17.25-.08.09-.08.25-.08.34l.08.09q0,.08-.08.08h-.17q-.09,0-.09.08s-.17.17-.25.17l-.09-.09h-.09c-.08,0-.08.17-.17.17l-.08-.09c.08-.26.34,0,.34-.34-.09,0-.17.08-.17.08v-.08c.08-.09.08-.17.08-.17,0,0,0,.09.09.09,0-.09.17-.34.26-.34s.08.09.17.09c0-.09.08-.26.08-.43q0-.09-.08-.17c0,.09-.09.09-.17.09-.09.17-.26.43-.26.43-.17.09-.34.09-.43.17v-.26c0-.08,0-.25-.08-.25,0,.17-.17.34-.17.43h.17c0,.08.08.08.08.17,0,0,0,.09-.08.09v-.09s-.09.09-.17.09c0,.09-.09.09-.09.17h.26v.77c-.17-.08-.17-.34-.34-.42v.25c-.17-.09-.85-.17-.94-.17,0,0,0,.08-.26.17v-.68c.17,0,.43-.26.43-.26-.09,0-.17-.08-.26-.08h-.09c-.08,0,0,.25-.08.25h-.34c0-.34-.17,0-.43.09v-.26h-.09c-.08,0-.08.26-.25.26,0,.25-.17.34-.26.34,0-.09-.08-.26-.08-.34,0-.77.08-.43.25-.43.09,0,0-.17.09-.17,0,.08,0,.34.08.34v-.42c0-.09,0-.17.09-.17.08-.09.17,0,.43,0,0-.09.17,0,.25-.09v.09h.09v-.09h.08c.09,0,0-.25.17-.25v.09s0-.09.09-.09l-.43-.25c-.08,0,0,.25-.08.25l-.09-.09.09-.08c-.09-.08-.17-.08-.17-.08.17,0,.25-.09.42-.09,0-.17-.08-.34-.08-.43s.08-.09.17-.09l.08.09c.09,0,0,.34.09.43.09,0,0-.26.17-.26l-.08-.08h.08v.43h-.26q.09.08.09.17v.09c0,.09,0,.25.09.25,0-.08,0-.25.08-.25v.09h.17v-.85s.09,0,.09-.09-.09-.17-.09-.25c.09-.09.26-.09.26-.25-.09-.09-.26,0-.26-.17v-.09c-.17,0-.25.26-.34.26-.09-.09-.17-.09-.26-.09-.42,0-1.11.43-1.28.59-.08.09,0,.26-.08.34-.17,0-.43.09-.6.09v-.09c-.09,0-.34.43-.34.43h.08c.17,0,.43-.08.68-.08.08,0,.17,0,.25.08-.17.09-.34.26-.6.26h-.17c-.17.17-.6.17-.85.17-.09,0,0,.09-.09.09-.25,0-.25-.09-.42-.09h-.51c0-.17-.08-.17-.17-.17-.34,0-1.28.77-1.36.85-.17.17-.25.43-.25.68-.26.26-.51.94-.6,1.36-.17,0-.34.51-.34.68-.68.34-.6,2.39-.77,2.73-.51.93-1.36,2.13-1.36,3.32v.17l-.68,2.13v.43c-.51.93-.43,2.38-.6,3.32-.26,1.28-.17,2.47-.26,3.57-.08,1.19-.17,2.3-.25,3.41.08.17.08.6.08.85h-.17v.6c0,.17,0,.34.17.51h-.08c.17.51.17,1.79.17,2.39,0,.25,0,.59.17.68,0,.59.25,1.19.25,1.79q.09,0,.09.17c0,.08.08.25.08.25.17.25.43,1.36.43,1.7.94.85,1.02,3.92,1.62,4.51v.08h.08v.09l.68,1.53c.17.43.59,1.02.76,1.36l.17.17c.08.09.25.17.25.25.34.6.94,1.11,1.28,1.79.09,0,.26.08.34.17,0,.17.17.17.17.34.17,0,.08.26.17.26v.08c0,1.02,2.98,1.11,3.83,1.19.51,0,1.28-.17,1.7-.25.6-.17,1.02-.43,1.45-.43h.17q0-.09.08-.09c.26-.77.68-1.62.94-2.38.17-.34.43-.94.43-1.28v-.09c.09,0,0-.17.09-.25.17,0,.25-.09.25-.17s-.08-.17-.08-.17c.08,0,.08-.34.17-.42v-.43c0-.26,0-.43.17-.51,0-.68.43-1.11.43-1.87v-.17s.08-.09.08-.17c.43-.09.09-.77.51-.85,0-.08,1.11-5.79,1.11-5.79v.25c.08,0,.17-.09.17-.17s-.09-.08-.09-.17c0,0-.08-.09-.08-.17,0-.26,0-.34.17-.34,0,0-.17-.17-.17-.34,0-.08.08-.08.08-.08.09.17,0,.17.17.17,0-.17-.17-.34-.17-.43l.09-.08c0,.08.17,0,.17.17-.09,0-.09.17-.09.25,0,.17,0,.34.09.51h-.09q.09.09.09.17v.42c-.09,0-.17,0-.17.09v.09c.08,0,.17,0,.17.09-.09,0-.09.25-.09.51v.6l.09.17-.17.51c.08.09.08.34.08.43v.43c0,.25-.08.68-.17.68l.26.51-.17.17c0,.09.25.17.25.25,0,.17.09.17.09.34v.51c.17-.09.34-.17.34-.59.09,0,.17,0,.17-.09,0-.43.26-.85.26-1.11v-.09l.17-.68s-.09-.09-.09-.17c0-.34.17-.93.17-.93,0-.26-.17-.26-.17-.51.09,0,.09.17.17.17v-.26c0-.26.09-.26.09-.34,0,0-.09-.08-.09-.17v-.09c0-.09.09-.09.17-.09v-.08c0-.17-.08-.26-.08-.26h.08c0-.25-.08-.34-.08-.43.17,0,.17-.34.26-.34v-.17c0-.34.34-.6.42-.68v.42c-.17.26-.34.94-.34,1.37v.51c0,.6,0,.94.26,1.11.08-.34.17-.51.17-.85v-.34c.34-.26.17-1.36.51-1.7v-.25q0-.09.09-.09c.17,0,.08.17.17.17,0-.17.17-.26.17-.34.08-.17,0-.26.08-.34-.17-.08-.08-.25-.17-.34h-.08s0,.09-.09.09c0-.25,0-.51.09-.6h.08v.26h.09c.08-.09.25-.17.25-.34l.09-.09s-.09.17-.09.25c0,.17-.17.17-.25.17h.08v.09c.17,0,.34.08.43.17v.09c0,.17-.08.25-.08.43s.08.25.08.43c-.08.17-.26.59-.26.93,0,.26.09.43.34.43.17,0,.17-.17.25-.25-.17,0-.25-.09-.25-.26.08-.08.17,0,.25-.08-.08,0-.17-.09-.17-.26.09-.17.26-.17.34-.17,0-.09-.25-.17-.25-.26h.08c.09,0,.26.08.26.42.08.09.26.09.26.26v.59c-.09,0-.09.09-.09.09,0,.09.09.09.09.17,0,0,0,.08-.09.08l-.09-.08-.08.08v.17c0,.17.08.17.08.34v.43c.43,0,.26-.6.43-.94.17,0,.34-.08.43-.17l-.09-.43c.26-.09.17-1.02.26-1.02.17-.17.43,0,.43-.42.25-.09.34-1.19.34-1.53,0-.09-.09-.09-.09-.17v-.77ZM208.94,305.33c0,.17.08.26.08.34s-.08.08-.08.08c-.09,0,0-.08-.09-.08-.17,0,0,0,0-.17,0-.09-.09-.09-.09-.17h.17ZM217.29,313.59v-.17h.09c0,.09-.09.17-.09.17ZM217.38,313.59v.34h-.09v.08s-.08-.08-.08-.17.08-.26.17-.26ZM217.29,312.99l-.08.09s-.09-.09-.09-.17h.09c.08,0,.08.09.08.09ZM217.04,312.4c.08,0,.17.08.17.25,0,.09,0,.17-.09.17,0-.17,0-.34-.08-.42ZM217.12,313.16v-.08s.09.08.09.17l-.09-.09ZM217.21,332.33c.08-.17.08-.26.08-.51.09,0,.09.09.09.17,0,.17-.09.34-.17.34ZM217.29,331.64c0-.08.09-.08.09-.26.08,0,.08.09.08.09,0,.09-.08.17-.17.17ZM218.4,318.36c.09,0,.09.08.09.17s0,.09-.09.09v-.25ZM218.48,319.04h.08c.09,0,.17.09.26.17,0,.08-.09.17-.09.26v-.17c-.08-.08-.25,0-.25-.25ZM218.99,326.02c-.17-.08-.26-.51-.34-.77.08,0,.26-.08.26-.17,0,0,.08.09.08.17s-.08.08-.08.08c.08.17.25.26.25.34s-.17.17-.17.34ZM219.76,324.57c0,.09-.17.09-.17.09l.08.09h-.08v.93q-.09,0-.09-.08c-.08,0-.08.08-.17.17-.08,0-.08-.09-.08-.17s0-.26.08-.34v-.17c0-.17,0-.26.09-.34,0-.26,0-.43.08-.51,0-.08-.08-.17-.08-.25s.08-.17.08-.26c.09,0,.09.08.09.17s0,.17-.09.26c0,.17.26.17.26.34v.08ZM220.44,331.22q-.08,0-.08-.08c.08,0,.08.08.17.08h-.09ZM220.87,330.03q-.17-.17-.17-.26c0-.17.17-.17.17-.34v-.08c.09,0,.09.08.09.17,0,.17,0,.43-.09.51ZM221.63,330.71c0-.17,0-.34.09-.43q-.09-.09-.09-.17c0-.08.09-.17.09-.42,0-.09.08,0,.08-.09.09,0,.09.09.09.25v.85h-.26Z" fill="#fb97aa"/>
  <path d="M218.65,336.5h.08c.09,0,.26-.17.26-.34-.26,0-.17,0-.34.34Z" fill="#fb97aa"/>
  <path d="M261.33,327.81h.08v-.09s0,.09-.08.09Z" fill="#fb97aa"/>
  <path d="M216.95,335.9v-.25c0-.09,0-.17-.09-.17,0,.17,0,.34.09.43Z" fill="#fb97aa"/>
  <path d="M264.14,334.71c0,.26.17.51.34.6,0-.17-.26-.6-.34-.6Z" fill="#fb97aa"/>
  <path d="M211.5,309.5q.08,0,.17-.08h-.17v.08Z" fill="#fb97aa"/>
  <path d="M225.47,307.62c0,.09,0,.17.17.17,0-.26-.09-.34-.17-.43v.25Z" fill="#fb97aa"/>
  <path d="M192,319.47c-.26,0-.26.43-.34.68.17,0,.34-.51.34-.68Z" fill="#fb97aa"/>
  <path d="M190.63,320.4c0-.17.17-.34.17-.51v-.09c0,.17-.26.34-.26.51l.09.08Z" fill="#fb97aa"/>
  <path d="M190.89,319.47c.08-.26.25-1.11.25-1.45v-.09c-.08.17-.25,1.19-.25,1.45v.09Z" fill="#fb97aa"/>
  <path d="M190.21,323.47v-.85c0,.08-.08.26-.08.26,0,.17,0,.51.08.59Z" fill="#fb97aa"/>
  <path d="M221.29,323.38c0-.08-.09-.26-.17-.26l.08.34q.09,0,.09-.08Z" fill="#fb97aa"/>
  <path d="M189.7,325.51c0,.25.08.43.08.68-.08,0-.08.17-.08.25,0,0-.09.09-.09.17s.09.25.26.25c0-.09.09-.34.09-.59,0-.43-.09-.85-.17-.94,0,.09-.08.17-.08.17Z" fill="#fb97aa"/>
  <path d="M192.34,316.57c-.09.17-.17.26-.17.43.08.17.17.51.25.51v-.43c.34,0,.68-2.47.68-2.64v-.08c-.26.42-.85,1.11-.85,1.79,0,.17,0,.25.09.42Z" fill="#fb97aa"/>
  <path d="M193.44,319.21h.09q.08,0,.08.08v.17s.26-.77.26-1.19c0-.17-.09-.25-.17-.25-.09.42-.26.77-.26,1.19Z" fill="#fb97aa"/>
  <path d="M182.7,310.18c-.09-.17.25-.17.08-.42-.25-.09-.34.42-.08.42Z" fill="#fb97aa"/>
  <path d="M263.97,304.64h-.09c-.26-.25-.43-.85-.6-1.02-.08-.09-.17-.17-.17-.25,0-.17-.43-.43-.51-.6-.26-.34-.68-.59-1.02-.85l-.17-.17c-.43,0-1.79-.68-2.64-.68-.25,0-.51.08-.68.25-.34.43-.94.6-1.62.6-.94,0-2.04-.34-2.3-.6-.85.09-1.62.17-2.47.17h-.43c-1.62,0-1.7,1.11-2.72,1.7-.43.26-.51.26-.51.85,0,.77.09,2.3.09,2.47v.34c0,.26.08,1.19.08,1.53h-.08c0,.09.08.17.08.26.09,1.45.09,2.56.09,3.75v.93l.09,1.11h-.09c0,.51.17,1.11.17,1.62v1.11c0,.25.09.43.09.51,0,.26-.09.34-.09.51.09.26.26.6.26,1.02v2.9c0,.59.08,1.28.08,1.87v.59h.09c.43,0,1.28-.93,1.45-1.11h.09l-.09-.08c.09,0,.09-.08.17-.08,1.02-.85,1.79-1.96,2.98-2.73.77-.51,1.19-1.19,1.87-1.62.09-.08.43-.34.43-.43.09-.08.09-.17.17-.25.34-.25.77-.43,1.02-.77.08-.17.17-.17.25-.25.34-.43.77-.77,1.19-1.11l-.09-.09c.26-.34.77-.68,1.02-1.02.51-.68.94-1.28,1.45-1.96.17-.26.6-.77.6-1.02,0-.17.34-.26.34-.51v-.09c1.28,0,2.3-5.79,2.3-6.39,0-.09-.08-.09-.08-.17v-.26Z" fill="#fb97aa"/>
  <path d="M192.34,317.85v-.17c-.09.43-.17.94-.26,1.36.17,0,.26-.77.26-1.19Z" fill="#fb97aa"/>
  <path d="M106.72,351.91c.26,0,.26-.26.26-.42v-.09c0-.09.09-.09.09-.17,0,0,0-.08-.09-.08-.08.08-.26.6-.26.77Z" fill="#fb97aa"/>
  <path d="M105.7,349.19c0,.08-.09.08-.09.17-.25.34,0,1.02-.34,1.19,0,.17-.08.26-.08.34v.09c-.09,0-.09.09-.17.09v.08c0,.34-.17,1.02-.17,1.19.17-.17.17-.6.43-.68l.17.17c0-.09.09-.09.09-.17v-.08c0-.26.17-.43.25-.68.17-.43,0-1.02.26-1.53h-.26c0-.08,0-.17-.08-.17Z" fill="#fb97aa"/>
  <path d="M119.92,305.41c0,.09,0,.17.09.17q.08-.09.08-.17v-.08h-.08q-.09,0-.09.08Z" fill="#fb97aa"/>
  <path d="M107.23,349.7c0,.08,0,.17.08.17v-.17c.09,0,.09-.08.09-.17s0-.17-.09-.17c0,.09-.08.26-.08.34Z" fill="#fb97aa"/>
  <path d="M108.42,345.36c-.08,0-.51,1.02-.51,1.45,0,.09,0,.17.09.17,0-.17.17-.26.25-.34.09-.08.26-.94.43-1.02,0-.17-.26,0-.26-.08v-.17Z" fill="#fb97aa"/>
  <path d="M107.49,350.98c.09,0,.17-.17.17-.25-.09,0-.17.17-.17.25Z" fill="#fb97aa"/>
  <path d="M119.67,304.82c-.09.08-.17.17-.17.25,0,0,0,.09.08.09,0,0,0-.09.09-.09,0-.09.08-.34.08-.51,0-.08-.08-.08-.08-.08v.34Z" fill="#fb97aa"/>
  <path d="M108.42,348.08c-.08,0-.25.51-.25.68.08-.17.25-.43.25-.68Z" fill="#fb97aa"/>
  <path d="M107.66,350.72c0,.08.08.08.17.08,0-.08.08-.08.08-.17,0,0-.08-.09-.17-.09,0,0-.08.09-.08.17Z" fill="#fb97aa"/>
  <path d="M82.36,340.59c0-.09,0-.17-.08-.17-.09.09-.09.26-.09.51,0,.59.09,1.62.09,2.13v.26c.08,0,.17-.17.17-.51,0-.51-.09-1.45-.09-1.87v-.34Z" fill="#fb97aa"/>
  <path d="M110.21,348.68c0-.09,0-.17-.09-.17s-.17,0-.25.17c0,0,0-.09-.09-.09,0,.17.17.09.17.17-.08.09-.17.25-.25.34,0,.17.17.25.17.43.17-.09.34-.6.34-.85Z" fill="#fb97aa"/>
  <path d="M119.33,305.41v.34c.17,0,.17-.08.17-.17v-.17q0-.08.08-.17h-.08c-.09,0,0,.17-.17.17Z" fill="#fb97aa"/>
  <path d="M82.28,350.46h.08c.09,0,.09-.08.09-.17s0-.17-.09-.17c0,.09-.08.17-.08.34Z" fill="#fb97aa"/>
  <path d="M108.17,296.47c-.17,0-.34.09-.34.17.17,0,.34-.08.34-.17Z" fill="#fb97aa"/>
  <path d="M81.85,325.77v.43h.08c.09,0,.17-.09.17-.17s-.08-.26-.25-.26Z" fill="#fb97aa"/>
  <path d="M165.58,355.15c.08-.17.08-.43,0-.68-.09-.26-.17-.68-.34-.77,0,.08.08.25,0,.25.17.34.08,1.02.34,1.19Z" fill="#fb97aa"/>
  <path d="M106.81,348.34c0,.17-.17.09-.17.25v.43h.08c.26,0,.17-.59.26-.77,0-.08,0-.25-.08-.25,0,.09,0,.25-.09.25v.09Z" fill="#fb97aa"/>
  <path d="M107.91,345.44s-.08.08-.17.08v.34c.09-.08.09-.26.17-.34v-.08Z" fill="#fb97aa"/>
  <path d="M90.19,356.26c0,.09-.08.43-.08.51,0,.6.51.26.51-.17-.08,0-.34,0-.34-.09s0-.25-.09-.25Z" fill="#fb97aa"/>
  <path d="M89.85,356.43c-.17,0-.34,0-.42.08,0,.09.08.17.08.26,0,.17-.17.34-.26.51.26,0,.17.26.43.26h.09c.08-.17.08-.26.08-.34,0-.17-.08-.26-.17-.51.17,0,.17-.09.17-.26Z" fill="#fb97aa"/>
  <path d="M168.05,344.08c-.09,0,0,.26-.17.26.17.34.08-.17.17-.26Z" fill="#fb97aa"/>
  <path d="M151.95,321.51c0,.17.17.42.17.26s-.17-.43-.17-.26Z" fill="#fb97aa"/>
  <path d="M170.61,333.17c0,.43-.17.68-.08,1.03.08.34-.26.76.17.76.08-.68.34-1.11.25-1.87,0-.08,0-.17-.08-.17,0,.17-.17.17-.26.25Z" fill="#fb97aa"/>
  <path d="M132.78,328.66c-.17,0-.26,0-.34.09q.08,0,.08.09c-.17.09-.34,0-.43.17,0,0,.09,0,.09.08-.17,0-.26.09-.34.17-.09,0-.17.08-.17.08,0,0,.08.08.08.17-.08,0-.17.09-.17.17,0,0,0,.08.09.08,0,0,.17-.17.25-.17v.09c0,.08-.17,0-.17.17h.26c-.17.17-.43.17-.6.26v.08q0,.09-.17.26h-.17v.09h.08c.09,0,.34-.09.43-.09,0-.08.34-.26.34-.26v.09c.34,0,.43-.17.68-.34h.17q.17-.09.34-.25c0,.08.09.08.09.08.08,0,.08-.08.08-.26,0-.34-.08-.77-.17-1.02-.26,0-.17.08-.34.17Z" fill="#fb97aa"/>
  <path d="M163.2,348.42c-.09.08.08.08.08.08.09,0-.08.26,0,.34,0,0,.17-.09.26,0-.09-.26-.09-.77-.34-.85,0,.25.08.34,0,.43Z" fill="#fb97aa"/>
  <path d="M162.85,349.62c0,.17.17.68.17.34,0-.17-.17-.68-.17-.34Z" fill="#fb97aa"/>
  <path d="M129.63,331.05c-.09,0,0-.09-.09-.09,0,.26-.34.09-.34.26v.08c.17,0,.26-.08.43-.08.08-.08,0-.17.08-.17.09-.09.26-.09.26-.25-.17,0-.09.08-.26.08,0,.08,0,.17-.08.17Z" fill="#fb97aa"/>
  <path d="M162.26,349.27c0,.17-.09.26,0,.43,0,.08.17.08.17.17.08.17-.09.25.08.34s.09.43.34.25c-.42-.51-.34-1.87-.85-2.21.08.34.26.68.26,1.02Z" fill="#fb97aa"/>
  <path d="M158.26,345.61c.17.34,0,.77.08,1.02,0,.08.09.08.17.26.17.43.09.77.43.94-.17-.85-.43-1.36-.6-2.13,0-.09-.08-.25-.08-.09Z" fill="#fb97aa"/>
  <path d="M112.17,330.19l.08.09h-.17v.34c.26,0,.17-.34.26-.43-.09,0-.09-.08-.09-.08,0,0-.08,0-.08.08Z" fill="#fb97aa"/>
  <path d="M110.38,347.32c.09-.09.09-.43.17-.51v-.09l-.26.43c0,.09,0,.17.09.17Z" fill="#fb97aa"/>
  <path d="M110.21,349.27h-.09v.17l-.17.09v.17c-.08.08-.17.17-.17.26,0,0,.09.08.17.08v-.08c0-.09.09-.09.09-.17v-.08h.08c.17,0,.26-.51.26-.68v-.08s0-.08-.09-.08c0,.08-.08.42-.08.42Z" fill="#fb97aa"/>
  <path d="M111.32,333.6c0-.08.26-.68.26-.93v-.09c-.09.09-.34.59-.34.85,0,.08,0,.17.09.17Z" fill="#fb97aa"/>
  <path d="M110.13,347.66v.17c0,.17-.08.26-.08.42.08,0,.34-.59.34-.77v-.08c0,.08-.17.26-.26.26Z" fill="#fb97aa"/>
  <path d="M120.44,316.49h-.09c0,.08-.09.08-.17.08,0,.17-.09.08-.09.34-.25,0-.42.76-.42.93-.09,0-.09.09-.17.09v.34c-.17,0-.09.34-.17.34l-.17.34c.17,0,.26-.17.43-.17.09-.17.17-.51.34-.6,0-.17.09-.17.09-.34.17-.09.17-.25.17-.25,0-.17.17-.26.17-.51,0-.08.09-.25.17-.34q-.08-.09-.08-.17v-.08Z" fill="#fb97aa"/>
  <path d="M128.61,329.69c0-.09,0-.17.09-.17l.08.09c.09,0,.09-.17.17-.17l.09.09c-.09,0-.43.26-.43.34h.09c.25,0,.51-.25.77-.25h.08c0-.34,2.38-.94,2.38-.94v-.08q.09-.08.17-.08c.17,0,.26.08.34.08s.08-.26.17-.26c.17-.08.25-.08.42-.17v-.09c0-.6-.51-2.3-.59-2.3.08-.09.08-.17.08-.34,0-.34-.25-.94-.25-1.11-.17-1.19-.77-2.21-.77-3.41v-.25c-.43-.26-.26-1.62-.34-2.13v-.51c-.59-.09-.94-4.94-1.02-5.2-.09-.42-.51-1.79-.94-1.79-.51,1.02-.77,2.22-1.36,3.15-.08.09,0,.25-.08.34l-.17.09c-.25.51-.68,1.11-.76,1.7-.94.09-1.87,5.71-1.96,5.88-.09.43-.6,1.11-.68,1.45v.34c-.34.77-.51,1.36-.77,2.04-.09.68-.26,1.28-.43,1.87-.09.08-.26.34-.26.6,0,.08.09.17.09.17-.17,0-.17.26-.17.34,1.62-.26,2.89-.68,4.09-1.11.94-.34,1.79-.6,2.55-1.02.51-.34,1.28-.59,1.87-.59h.17c0-.09,0-.17.08-.17h.09c.17,0,.51-.25.68-.25h.09c-.09.34-1.19.51-1.36.59l-.34.34c-.51.26-2.64.85-2.64,1.28.17,0,.34-.09.51-.09h.26c0,.17-.26.09-.26.26.17,0,.77-.17,1.11-.26,0,0-.08.09-.26.09,0,.09-.08.09-.08.09h-.09c-.08,0-.17.17-.34.17,0,.26-.51.26-.68.26-.09,0-.26.17-.26.26.17-.09.51,0,.68-.17v.09s.09-.09.17-.09c-.17.26-.68.26-.85.51h.09c.34,0,1.02-.43,1.28-.43.08,0,.26-.25.34-.34.09,0,.17-.09.26-.09-.09.09-.17.09-.17.26.08,0,.17-.17.25-.17l.09.09c-.09,0-.09.08-.09.08h.09l.25-.26v.26c-.08,0-.08.08-.08.08v-.08c-.26,0-.34.51-.6.51h-.08c0-.08-.09-.25-.09-.25-.09,0-.17.09-.17.17-.17,0-.09.08-.26.08v.17c-.17.08-.94.25-.94.51h.09l.42-.08c0,.17-.42.08-.42.25.25,0,.34-.17.51-.25Z" fill="#fb97aa"/>
  <path d="M120.61,315.89c0,.26-.09.34-.09.51.17,0,.17-.09.26-.09q0-.17.08-.17c0-.17,0-.26-.08-.34,0,.08-.09.08-.17.08Z" fill="#fb97aa"/>
  <path d="M116.26,322.02v-.25c-.34,0-.09.51-.34.59,0,0-.09-.09-.09-.17,0-.42.6-1.19.6-1.62,0-.09-.09-.17-.09-.17q.09,0,.09-.08h-.17c0,.26-.34.17-.34.6-.17,0-.09.25-.26.25-.09.6-.26.77-.26,1.45.26,0,.26.42.51.51.17-.17.34-.68.59-.77,0-.17-.17-.25-.25-.34Z" fill="#fb97aa"/>
  <path d="M128.52,331.47c0,.09-.25,0-.25.17h.08c.09,0,.17-.08.26-.08.17,0,.6-.09.6-.26q-.09-.08-.17-.08c-.17,0-.43.26-.51.26Z" fill="#fb97aa"/>
  <path d="M160.56,353.87c.08.26,0,.68.34.6,0-.17-.17-.34-.26-.68-.08-.34-.34-1.96-.25-.85.08.17.08.59.17.93Z" fill="#fb97aa"/>
  <path d="M285.44,357.02h.26c.09-.34.17-.68.17-1.02-.17,0-.34.68-.43,1.02Z" fill="#fb97aa"/>
  <path d="M286.55,353.7c-.09-.09-.09-.26-.17-.43.08-.17.08-.26.08-.43-.08,0-.17.09-.17.17,0-.08,0-.17.09-.17,0,0-.17-.17-.26-.17-.17.42-.26.94-.26,1.36,0,.25.09.51.09.77.08,0,.08.08.08.17.09,0,.17-.17.17-.25q.09,0,.09.09.09-.09.09-.17c0-.08-.09-.25-.09-.34v-.17c.09-.17.17-.34.26-.43Z" fill="#fb97aa"/>
  <path d="M286.89,298c0-.09-.09-.17-.09-.26,0,0-.08,0-.08.09s0,.17.08.17h.09Z" fill="#fb97aa"/>
  <path d="M284.5,355.49v.09c0,.08.17,0,.17.08-.09.17-.09.08-.09.26.17,0,.51-1.19.51-1.79-.08,0-.17,0-.17-.09-.34,0-.43.93-.43,1.45ZM284.68,355.15v-.17s.08,0,.08.09l-.08.09ZM284.76,354.72v-.17l.09.08-.09.09Z" fill="#fb97aa"/>
  <path d="M284.08,305.58s.08-.17.08-.26c0-.17-.08-.26-.17-.26.09.09,0,.43.09.51Z" fill="#fb97aa"/>
  <path d="M287.14,297.75c0,.09.09.26.09.26.09,0,.09-.09.17-.09,0-.17-.08-.25-.17-.43,0,0-.09.17-.09.26Z" fill="#fb97aa"/>
  <path d="M286.89,356.43v-.17c-.09,0-.17.09-.17.17h.17Z" fill="#fb97aa"/>
  <path d="M287.06,353.02c.08-.08.08-.26.08-.42h-.08v.17c-.09.17-.09.51-.26.51,0,0,.09.17.09.34q0,.09-.09.17c.09,0,.17.17.17.34,0,.25-.17,1.27-.25,1.27.08.09,0,.34.17.34v.17c.17,0,.17-.51.34-.6.09-.26.09-.6.09-.77v-.17c-.09.09-.17.34-.26.43v-.09c0-.17.08-.43.08-.59q0-.09-.08-.09c.08-.26.26-.43.26-.85-.09-.09-.17-.09-.26-.17ZM286.89,355.49v-.09c0-.17.08-.17.17-.25,0,.17-.09.25-.17.34Z" fill="#fb97aa"/>
  <path d="M283.14,354.64h-.17c-.17.17-.17.51-.17.85.08-.17.25-.25.25-.51.09-.08.26-.17.26-.34-.09,0-.17,0-.17.09v-.09Z" fill="#fb97aa"/>
  <path d="M273.85,305.07c0,.09.09.17.09.17.08-.09.08-.17.08-.26s0-.08-.08-.08c0,0-.09.08-.09.17Z" fill="#fb97aa"/>
  <path d="M283.65,302.52l.09.09c.08,0,.08-.09.17-.26-.09.08-.26,0-.26.17Z" fill="#fb97aa"/>
  <path d="M273.85,305.58s.09,0,.09-.09,0-.17-.09-.17v.26Z" fill="#fb97aa"/>
  <path d="M289.19,351.15l.08.08v-.08c0-.08,0-.17.09-.17-.09,0-.17,0-.17.09v.08Z" fill="#fb97aa"/>
  <path d="M289.19,352.17v-.34c0-.17.08-.34.08-.6-.08,0-.17.26-.17.51,0,.17.09.43.09.43Z" fill="#fb97aa"/>
  <path d="M283.82,302.26q0-.08-.08-.08t-.09.08v.09h.17v-.09Z" fill="#fb97aa"/>
  <path d="M282.29,355.24v-.26c-.08,0-.08.09-.08.09q0,.09.08.17Z" fill="#fb97aa"/>
  <path d="M288,354.13c-.09.08-.17.08-.17.25h.08c0-.09.09-.17.09-.25Z" fill="#fb97aa"/>
  <path d="M257.88,133.04c-1.83-1.68-3.59-3.45-5.57-4.93-.31-.23-1.63.88-3.4,1.9,2.73,2.14,4.68,3.77,6.79,5.16.18.12,1.42-1.38,2.17-2.13Z" fill="#fb97aa"/>
  <path d="M196.87,129.4c-5.34-1.86-10.73-3.54-16.11-5.28-.45.59-.89,1.19-1.34,1.78,2.46,1.48,4.93,2.95,7.39,4.43-.48.56-.95,1.13-1.43,1.69-3.1-1.89-6.2-3.78-9.87-6.01-1.7,7.08,5.24,7.68,7.05,12.1-3.68-1.37-7.36-2.73-11.48-4.26-.1,5.42,3.01,7.19,6.85,8.38q8.57,2.68,4.74,9.52c3.8.46,11.48-2.69,12.22-5.54,1.25-4.81,1.97-9.76,2.78-14.67.11-.68-.32-1.99-.8-2.16Z" fill="#fb97aa"/>
  <path d="M201.91,130.42c-1.33,3.72-2.21,7.59-3.5,12.23.96,1.19,2.03,2.53,3.1,3.86.86-1.36,2.14-2.62,2.5-4.11.24-1,.46-2.02.66-3.03.06-.2.12-.39.18-.59.07-.21.08-.4.04-.57.38-2.17.68-4.35.93-6.54.14-1.23-.51-2.55-.8-3.83-1.07.85-2.71,1.49-3.1,2.58Z" fill="#fb97aa"/>
  <path d="M180.05,154.22c.24-2.15.49-4.3.7-6.45.03-.29-.19-.61-.29-.91-12.6-4.39-17.8-14.57-3.59-24.2,1.64-1.11,4.33-1.52,6.3-1.1,4.04.85,7.87,2.67,11.88,3.75,4.28,1.15,7.5.02,9.29-2.64.97-.12,1.93-.27,2.89-.45.11,0,.22,0,.33,0,1.15-.05,2.27-.2,3.37-.4.59,0,1.25-.03,2.05-.12,3.73-.42,7.38-.31,10.97.17,4.07-3.86,8.02-7.85,11.74-12.09,6.74-7.67,12.07-16,13.91-26.21,3-16.67-.4-31.41-13.82-42.64-9.27-7.75-20.34-10.45-32.16-8.75-13.79,1.98-23.69,9.94-30.57,21.84-1.43,2.47-3.33,2.54-4.81.12-1.1-1.81-2.16-3.64-3.45-5.33-13.06-17.16-36.98-22.95-55.64-10.41-12.1,8.13-18.47,19.5-18.67,35.12.44,14.51,6.58,27.52,17.04,38.59,8.3,8.78,17.56,16.55,26.68,24.45,12.55,10.87,24.87,21.95,34.87,35.34,1.45,1.94,1.62,1.94,2.99.03,4.7-6.57,10.13-12.43,15.9-17.96-.08.02-.17.04-.25.05-2.47.47-5.08.17-7.63.21Z" fill="#fb97aa"/>
  <path d="M288.76,352.76c-.09,0-.09-.08-.09-.17-.08,0,0,.08-.08.08l.08-1.28h-.34c-.08.17-.08.25-.08.43,0,.08-.09,0-.09.08-.17,0,0-.17-.17-.17h-.09v.43c0,.17,0,.34-.08.43h-.09c0,.08.09.17.09.25.08-.09.17-.09.17-.17,0,.08.08.17.17.26,0,.08-.09,0-.09.08v.51c0,.09,0,.26.09.26q-.09.17-.17.43l.08-.08c.09,0,0,.25.09.34-.09.08-.34.08-.34.25-.09,0-.09-.09-.09-.09,0-.08.09-.17.09-.25,0,0-.09-.17-.09-.34s.09-.34.09-.43c-.17.09-.09.43-.26.51,0,.08.09.25.09.34,0,.25-.17.59-.17.85,0,.08.08.26.08.34.09,0,.17-.08.26-.08,0,.17-.26.43-.26.68,0,.09,0,.17.09.17q-.09.08-.09.17v.09c-.08.08,0,.08-.08.17v.51c.08-.09.08-.17.17-.17h.08l-.08.17h.08q.17,0,.17-.09v-.42h.09v.17c.17-.09.08-.34.26-.43,0-.17,0-.34-.09-.43.17-.25.09-.43.17-.68.09,0,.09.17.17.25.43-.08.17-1.36.34-1.79.09-.17.09-.34.09-.51v-.94h-.09c-.08,0,0,.25-.08.25ZM288.34,353.87q0-.08.09-.17c0,.17,0,.25-.09.34v-.17ZM288,352.51c0-.17,0-.34.08-.43l.17.26c.08.17-.17.17-.26.17ZM288.34,354.47v.08c0,.08-.17.26-.17.42l.09.09c0-.09.08-.25.17-.25v.17h.08c0,.09,0,.34-.08.34v-.08c0-.09,0-.17-.09-.17s-.17.09-.17.09v-.34c-.09,0-.17,0-.17-.09l.08-.09c0,.09.09.09.09.09.09,0,0-.25.17-.25,0-.17-.08-.17-.08-.26v-.08c.17,0,0,.17.08.17h.09c.08,0,.08-.17.17-.17,0,.17-.09.34-.26.34ZM288.51,354.04v-.34l.09-.09v-.25c0-.09,0-.17.08-.17-.08.26,0,.77-.17.85Z" fill="#fb97aa"/>
  <path d="M267.12,298.26h-.09c0,.26.26.43.34.68.17,0,.26.08.43.08.17.26.43.51.6.77,0-.08-1.02-1.45-1.02-1.45-.08-.09-.17-.09-.25-.09Z" fill="#fb97aa"/>
  <path d="M283.43,0H116.57C52.45,0,0,52.45,0,116.57v166.87c0,64.11,52.45,116.57,116.57,116.57h166.87c64.11,0,116.57-52.45,116.57-116.57V116.57C400,52.45,347.55,0,283.43,0ZM240.92,20.65c4.41.25,12.59,7.5,13.02,13.01-1.39-.97-2.76-1.98-4.18-2.91-3.31-2.17-6.69-4.24-9.92-6.52-.75-.53-1.01-1.78-1.49-2.69.86-.31,1.73-.94,2.56-.89ZM245.07,36.98c-4.89-3.75-9.12-7-13.36-10.25,6-1.81,12.4,3.49,13.36,10.25ZM90.71,125.01c.29.33.27.93.4,1.41-.43.05-.9.25-1.28.13-2.01-.59-5-4.82-4.61-7.42.54.6,1.06,1.21,1.61,1.79,1.29,1.36,2.63,2.68,3.88,4.08ZM88.2,107.1c1.13,1.26,2.24,2.55,3.4,3.78,2.72,2.87,5.55,5.65,8.17,8.61.61.69.58,1.96.84,2.96-.9.11-1.9.52-2.7.28-4.24-1.24-10.55-10.17-9.72-15.64ZM101.69,328.75c-.68,0-4.43-.25-5.11-.25-.17,0-1.45,0-1.7.08-.6.17-1.02.43-1.53.6-.09.34-.09.68-.09,1.02v1.71c0,.34-.08.68-.08,1.02s.08.77.08,1.02v1.71c0,.34,0,.59.09.85.25.94.17,2.81.25,3.83.09.51.09,1.37.09,2.3,0,1.28,0,2.56-.09,3.07-.08,1.62-.25,2.98-.51,4.43-.17.94-.34,1.79-.43,2.47-.08.34,0,.68-.08,1.11-.26,1.11-.51,2.21-.51,3.83v1.11c-.08-.09-.17-.17-.25-.17s-.17,0-.17.17c-.09-.09-.17-.34-.17-.6v-.25h-.09c-.26,0-.34.17-.34.43v.51h-.09c-.25,0,0,.34-.25.34h-.09v-.17s-.08.09-.08.17c-.17,0-.43-.6-.43-.6,0-.09.08-.09.08-.17,0,0-.08-.08-.17-.08v.51c0,.08-.08.17-.08.34v.08c-.43,0-.26-.51-.6-.59h-.09c-.17,0-.17.17-.34.17h-.08c0-.17-.34-.17-.43-.26-.09,0-.09.17-.09.26-.08-.08-.17-.08-.17-.17s.09-.17.09-.17c-.17,0-.17-.25-.26-.34,0-.08.09-.08.09-.08v.17h.34c0-.17.09-.17.17-.17s.09-.08.17-.08c.17,0,.26.25.43.34.08-.09.08-.17.08-.26,0-.17-.08-.43-.08-.68v-.17c0-.17.08-.34.08-.6,0-.08-.25-.17-.42-.17-.26,0-.51.08-.6.08,0-.17-.17-.34-.26-.34-.25,0-1.19.17-1.79.17-.26,0-.34.25-.34.51,0,.17.08.34.25.43-.08.08-.08.17-.08.26,0,.34.25.51.25.93v.17c-.25,0-.25-.26-.51-.26v-1.53c-.09-.17-.26-.17-.26-.34v-.08c-.08-.09-.34,0-.42-.09-.09-.17-.17-.25-.43-.34v-1.02s.08.08,0-.08c0-1.28-.17.68-.34.68-.34,0-.34.34-.68.34.09-.09.09-.17.09-.17,0-.08-.17-.17-.34-.17-.09,0-.17.09-.26.09,0-.26-.08-.6-.26-.68-.08,0-.08.26-.08.34-.09-.09-.17-.43-.17-.68,0-.42.08-.85.08-1.02v-.68s-.08,0-.08-.09c0-.77-.26-1.19-.26-2.21-.08.17-.51.09-.6.26-.08.08,0,.34-.08.42h-.09c0,.17.09.09.09.17,0,.25-.26,1.96-.34,2.04,0,.17.17.08.17.26v.08c-.09,0-.09.17-.09.34-.17-.17-.17-.43-.17-.77,0-.26,0-.51.09-.68,0-.08-.26-.08-.34-.08.09-.17.09-.34.09-.51,0-.34-.09-.59-.09-1.02v-.26c-.25.26-.25,1.36-.34,1.7v2.13c-.17-.08-.25-.42-.25-.77,0-.42.08-.93.08-1.19,0-.77.09-6.05.09-6.73,0-.09.17-.17.17-.17.17-2.13.17-5.96.34-7.75.08-1.11,0-2.22.34-3.24h.09c.08,0,.08.17.08.34s.26,0,.26.17c-.09.59-.09,1.27-.34,1.7.08.17.42.09.59.17.09.17.09.42.17.68.17-.17.25-.43.34-.6.25,0,.51,0,.51-.17v-.09q.17.09.26.26c.25-.08.25-.42.51-.6h.26c.34,0,.25.26.42.26h.09c.08,0,.08-.26.17-.26h.09v-.94c0-.26,0-.51.25-.51-.17-.17-.17-.43-.17-.77v-2.64c0-.17.09-.34.09-.6v-1.79c-.77,0-.68.85-.94,1.45-.17-.17-.26-.51-.26-.94s.09-.94.09-1.36c0-.51-.17-.94-.17-1.28v-.17c-.25,0-.34.08-.42.26-.09,0-.17-.09-.26-.09,0,0-.08,0-.08.09-.17-.09-.09-.51-.34-.51s-.42,0-.42.26v.17c-.09-.09-.09-.17-.09-.34v-.34c0-.17,0-.34-.17-.34s-.09.34-.17.51c0,.09-.09.09-.09.09v-.25c-.08-.6-.17-1.28-.17-1.96,0-1.62.26-3.32.43-4.77,0-.09.17,0,.26-.09v-.43c0-.09.17-.09.17-.17v-.26c0-.08,0-.25.08-.25v-.09c0-.17-.17-.09-.17-.25v-1.79c0-.34.09-.68.09-1.11-.09-1.02-.43-2.3-.6-3.24-.09-.68-.09-1.36-.17-2.04,0-.17-.09-.26-.09-.51v-.17s.09,0,.09-.08c-.09-.08-.09-.26-.09-.42v-.85c0-1.19.26-2.3.43-3.41.17-.85.34-1.96.43-3.07.08-1.11,0-2.13.17-3.23,0,0,.34-1.11.34-1.28.09-.25,0-.51.09-.77,0-.08.25-.17.25-.34,0-.34.51-.59.94-.59h.17c.17-.17.51-.17.6-.34.17,0,.34,0,.34.17.17-.17.51-.25.68-.43h.17c.17,0,1.45-.08,1.7-.08.17-.17.51-.08.6-.26.08,0,.17.09.34.09s.34-.09.42-.34c.34.17,1.19-.09,1.19.51v.17c.09,0,.17.09.17.17l.09-.09.08.09v.76c.09-.08.26-.26.43-.26-.09-.51-.09-.59-.17-1.11.17,0,.34.09.34.17.17-.09.09-.43.34-.43.17,0,.43.34.6.34.09,0,.17-.09.17-.34.43.25.6.77.68,1.28h1.19c-.17.26-.85.17-1.11.34.09.08.17.08.34.08.43,0,1.11-.25,1.45-.25.17,0,1.19.09,1.36.09s.34-.09.51-.09h.17c-.34.34-2.04.34-2.47.51,0,.08.08.08.17.08s1.28-.08,1.45-.08h.17c-.25.25-1.87.34-2.21.51.09.09.26.17.51.17.34,0,1.87-.09,2.13-.09v.09c0,.25-.26.17-.34.34h1.36c0,.34-.43.25-.51.51.51-.08,4.17,0,4.6-.17h.77l1.79-.25c.09,0,.43-.51.43-.51q0-.09-.08-.09c.17-.17.59-.17.59-.51.77,0,1.79-.51,2.56-.51h.94v.09c0,.25-1.53.17-2.04.59,0,.09.08.09.17.09h.42c.26-.09.6-.09.68-.25.25,0,.08.42.34.42.68,0,.68-.34.68,0,.26.17.68.17.94.34,0,.42.17.25.17.76.08.09.34.26.42.34.34,0,.34-.34.68-.43.17.25.51.34.51.77-.34,0-.51-.17-.85-.17-.08.09-.08.17-.08.26,0,.51.51,1.45.51,1.45.09.51.34,2.13.34,3.06,0,.34-.08.68-.17.77.09.17.26.26.26.51,0,.43-.34.6-.51.94-.09.08,0,.17-.09.25-.77.68-1.79.43-2.9.85-.17.08-.94,0-1.11.17v.09h-.25c-.09,0-.17,0-.17.09h-.51c-.17,0-.42,0-.59.08l-.6.34s-.09.08-.26.08c-.77,0-2.98-.51-3.24-.51h-7.15c0,.17.26,1.02.26,1.53,0,.17-.09.34-.17.42v1.36c0,1.28-.09,2.81-.17,3.75-.09.43-.09.77-.09,1.02,0,.68.09,1.02.09,1.71v1.11c.51-.26,2.47-.34,3.49-.34,1.19,0,5.45.08,6.39.08h.85c1.36,0,2.72-.17,4.26-.17-.08.09-.17.09-.26.09h-.34c-.08,0-.17,0-.25.08.08.08.08,0,.17.08q0,.09-.09.09h-.26c0,.09.09.09.17.09h.51c-.17.25-.51.51-1.02.51,0,.08-.08.17-.25.17,0,.25.42.09.51.25,0,.09-.26.26-.26.26,0,.17.34,0,.34.25v.09c0,.08-.08.08-.17.08h-.51c-.17,0-.34,0-.34.17v.09h.17c.6,0,.94-.43,1.45-.43.09,0,.26.09.34.09.17.08.17.34.17.51v.17c0,.09,0,.17.08.25,0,.43-.43.34-.51.68,0,.26.26.34.26.6v.09c0,.59.34,2.98.51,2.98-.43.34-.34,1.02-1.02,1.11,0,.17.09.25.17.25-.17.26-.25.94-.51,1.11-.09.34,0,.26-.09.51-.42.08-.68.17-1.02.34v.09c0,.17.43,0,.43.17s-.26.26-.51.26c-.59,0-1.45-.34-1.87-.34-.08,0-.17.08-.17.08-.25.34-2.21.43-2.72.6-.34.08-.6.17-.85.17ZM111.34,252.58c4.17-.22,3.27,3.68,4.03,6.08.71,2.25.68,4.73,1.01,7.37-4.98,0-5.18-3.52-5.6-6.17-.39-2.45.2-7.26.56-7.28ZM136.53,353.45c0-.17-.17-.17-.17-.26l.08-.09c.09.09.43,1.45.43,1.45-.26,0-.34-1.02-.34-1.11ZM150.75,354.21c0,.42-.51.6-.6.94-.17,0-.42.25-.59.25l-.09-.08c-.09.08-.34.17-.43.26v.08c-.08.08-.51.08-.51.08-.09,0-.17.17-.43.17-.17,0-.17-.09-.25-.09h-.09c-.08-.09,0-.25-.08-.25-.17.08-.09.34-.17.51h-.34c-.08,0-.08-.17-.17-.17s0,.25-.17.25-.08-.17-.17-.17l-.09.08c-.08-.08-.17-.26-.17-.43-.59,0-.34.34-.51.77-.17,0-.26-.77-.34-.85l-.09.68.09.09-.09.08c-.08,0-.08-.17-.08-.17l-.09.09v-.17c-.08,0-.25-.17-.34-.17v-.34c0-.08-.17-.34-.26-.34-.17,0-.17.17-.25.34h-.34c-.09,0-.09.17-.26.17-.09-.17,0-.51-.17-.51-.26,0-.34.17-.43.34v.43h-.51c-.09-.08-.09-.26-.17-.26s-.09,0-.09.09v.34h-.34c.09.17,0,.34.09.43-.09,0-.09.08-.09.17,0,0-.09,0-.09-.09v-.17c0-.09,0-.25-.25-.25-.17.08-.09.25-.09.25l-.08-.09c0-.08-.17-.08-.17-.25-.09-.09-.09,0-.17-.09,0-.17,0-.34-.09-.43,0-.08-.17,0-.26-.08,0-.08-.08-.17-.17-.17q0-.25-.08-.25h-.17v.93l-.26-.34c-.09-.09-.26,0-.34-.09,0-.17.08-.25.08-.42,0-.08-.34-.51-.42-.51,0,0-.09,0-.09.17-.09,0-.17-.17-.26-.17s-.08.68-.17.77c-.08,0-.6-1.45-.68-1.45,0-.26-.09-.34-.17-.6-.43-1.7-.51-2.89-.77-4.6,0-.26-.09-.26-.09-.51v-.09s-.25-.68-.25-1.02c-.17-2.05-.68-3.58-1.11-5.45v-.17h-.09v-.17c-.17-.17,0-1.02-.17-1.19h-.09c-.08-.25-.08-1.11-.25-1.27-.26-.17-.26-1.37-.26-1.71-.85.26-2.3.6-2.98,1.02-.94.68-3.07.68-4.34.85h-4c-.94,0-.76.26-1.62.26-.51,0-1.87-.26-2.13,0v.34c0,.77-.34,1.79-.51,2.47-.08.68-.08,1.28-.26,1.87-.08.17-.08.68-.25.77-.09.43,0,1.02-.26,1.28-.6.34-.85,3.49-1.11,4.09-.17.43-.43.93-.43,1.45s-.25.94-.34,1.36v.85s-.17.26-.17.43c0,.77-.43,1.45-.85,1.7,0,.26-.43.51-.51.68h-.17c-.17,0-.6.34-.77.43-.42,0-.6.08-.85.26-.09.08-.51,0-.6.08-.34-.08-.6-.42-.94-.51-.34.09-.6,0-.85.17-.17,0-.51-.34-.68-.34,0-.09-.17-.17-.17-.34h-.09c-.25,0-.25-.17-.34-.34v-.08s-.08.08-.17.08c-.08-.17-.17-.43-.34-.51-.17,0-.17.08-.26.17-.08,0-.08-.17-.08-.17-.09-.08-.09-.17-.09-.17-.25,0-.17.43-.25.43v-.09c0-.17.08-.25.08-.34s0-.09-.08-.17c-.09.08-.09.6-.17.77h-.43c0-.34-.51-.43-.6-.68-.09,0-.09.17-.09.26-.17-.17-.34-.34-.34-.68,0-.17-.17-.08-.17-.25,0,0-.08.09-.17.09s-.17-.09-.17-.17v-.08h.26q0-.08-.09-.08h-.26c-.08,0-.08.08-.08.25-.09-.09-.17-.17-.17-.25-.17,0-.09.08-.26.08v-.6c0-.09,0-.17-.08-.17v.26c-.17.17-.17.77-.17.93s-.08.43-.08.68c-.09,0-.09-2.13-.17-2.3,0-.09-.17-.17-.17-.26-.09,0-.09.09-.09.17v.09h-.08v.34c0,.17.17.08.17.17,0,.17-.09.17-.09.34-.25,0-.17-.17-.34-.26,0-.17.09-.25.09-.51-.09,0-.17,0-.17.17-.17,0-.17.17-.25.25,0,.17-.09.26-.09.34v.08c0,.09-.17.34-.25.34-.17-.17-.17-.34-.17-.59,0-.34.08-.77.08-1.02v-.51c0-.17,0-.34.09-.51.34-.59.34-1.36.51-2.04.08-.17.34-.6.34-.85,0-.09-.08-.09-.08-.17.08,0,.25-.26.25-.34l.09.09-.09.09c0,.09.09.09.09.17.08,0,.08-.08.08-.17l.09.51c.08-.08.43-.51.43-.6h.08c0-.09.09-.17.17-.17,0-.26.26-.17.26-.34l.08.08v.09c.26,0,.09-.34.34-.34-.09-.09-.09-.17-.09-.25v-.17c-.09,0,0,.17-.17.17.17-.34.08-1.62.6-1.62-.09.25-.34,1.19-.34,1.53,0,.09.08.17.08.17.09,0,.26-.34.26-.6v-.09c.08-.08.17-.25.25-.25v-.26s.17,0,.17-.08c0,0,.08-.17.08-.34v-.09s.17-.09.17-.17-.08,0-.17-.09v.09c-.08,0-.08.17-.17.17-.09-.09-.09-.17-.09-.26,0-.42.51-1.02.51-1.36v-.68c-.17.17-.09.25-.17.43-.09,0-.09-.09-.09-.17-.17,0-.08.17-.26.17.09-.09.09-.26.17-.34v-.09c0-.17.17-.43.17-.59.08-.34.08-1.11.25-1.28.17-.09.17-.34.17-.6v-.76l-.08.08v-.08c-.09,0-.17.08-.17.08l.08.08c-.08.09-.08.17-.08.43-.26.09-.26,1.02-.51,1.02v-.42c-.08.08-.34.51-.34.6-.08,0-.08-.09-.08-.09,0-.09.08-.09.08-.17-.08-.08-.08-.34-.17-.42,0-.09.09-.17.09-.26,0-.43,0-.94.17-1.28,0-.09.17-.26.25-.26v.77c.17,0,.34-.34.34-.51h.08c.09,0,.09-.09.09-.26v-.34q.08,0,.08.09v.17c.09,0,.09-.26.17-.26l.09-.08.17.08c.26,0,.26-.51.34-.76.09,0,.17-.08.17-.17.09,0,.09.09.09.17v.17c.08-.09.25-.25.25-.68,0-.09,0-.17-.08-.17,0-.08.08-.17.08-.25s-.17-.17-.17-.34c-.17.17-.17.43-.25.68,0,0-.09-.17-.09-.25,0-.43.17-1.11.34-1.28v-.17l.43-1.45c0-.09.09-.26.09-.43.08-.08.17-.08.17-.26.17-.08.25-.25.25-.51.17,0,.77-1.28.85-1.28.08-.51,0-1.28.51-1.28.17-.25.43-.76.43-1.02,0-.17.17-.25.17-.43.09,0,0-.08.17-.08q-.08-.08-.08-.17c0-.26.25-.43.42-.51,0-.59.34-1.27.51-1.7,0-.09.08-.17.08-.34h-.08c-.17,0-.17.51-.34.59v.09c0,.17-.08.25-.08.43-.17-.17,0-.43-.17-.51-.09,0-.09.09-.09.09v.25c-.08,0,0,.09-.17.09v.25s-.17.26-.26.26c0,.17-.17.26-.17.43,0,0-.08-.08-.08-.17,0-.51.6-2.05.6-2.21l.25-.26h-.08c-.17,0-.17.17-.26.34-.17,0-.17.43-.26.51v-.34h-.08c.08-.51.43-1.11.43-1.53,0-.08.17-.08.17-.25.17,0,1.02-.51,1.02-.77l.17-.09v-.08c0-.09-.08,0-.08-.17v-.09h.17c0-.17-.09-.17-.09-.25.26,0,.26-.34.51-.34v.34h.08c.09,0,.09-.09.17-.09h.09v-.09q0-.08-.09-.08c0-.08.26-.08.26-.17s-.17,0-.17-.09q0-.25-.09-.25h-.17c.09-.09,0-.43.17-.43h.09v-.09c0-.09.17-.09.17-.25.34,0,.17-.34.26-.51.17-.17.25-.43.34-.68h.17c.17-.09.25-.34.25-.6.09,0,.09-.08.17-.08v-.09c0-.09-.09-.17-.17-.17s-.17,0-.17.17c-.17,0-.17.17-.25.17,0,.17-.17.43-.26.6h-.08c-.09.17-.09.68-.17.77h-.08c-.09,0,.08-.25-.09-.25h-.08c-.26,0,0,.42-.26.42v-.08c0-.26.26-.68.26-.77l.17-.26h.17s-.09-.08-.09-.17c0-.34.34-.09.34-.6.08,0,.17-.08.17-.17.17,0,.17-.09.25-.17,0-.43.51-.34.51-.6,0-.09,0-.17-.09-.25h-.26c.09-.09,0-.34.17-.34v-.08c0-.26-.17-.43-.17-.51.09-.09.17-.25.17-.43h.08c.09,0,.09-.17.26-.17.08,0,.17-.26.25-.26h.09s-.09.08-.09.17v.09c.43,0,.51-.6.68-.85l.08.09c0,.17-.34.51-.34.68,0,.09.09.17.26.17h.08c0,.34-.08.6-.25.77v.26c.08.08,0,0,.08.25h.09c.08,0,.25-.09.25-.25v.25l.09.09c.17,0,.34-.34.34-.51l-.08-.08s-.17.17-.26.17c.08-.17.08-.25.08-.43v-.09c.17-.08.17-.42.26-.42v-.17c0-.09,0-.25.09-.34.08.09.17,0,.17.09,0,.25-.26.68-.34.93h.08c.09,0,.17-.09.26-.09h.08v.34c-.17.26-.42.68-.42,1.11v.08c-.09,0-.09.09-.09.17,0,.17.09.34.09.34h-.26c0,.17-.17.25-.17.51-.09,0,0,.17-.17.17,0,.17.08.09.17.17,0,.08-.09.08-.09.17v.17c0,.08,0,.17-.17.25-.08,0,0,.17-.08.26v.08h-.09c-.08.26,0,.26-.26.43,0,.25-.17.34-.25.51v.34q0,.08-.09.08.09.08.17.08c0,.17-.25.17-.25.26,0,0,.17.08.17.17h.34c.26-.17.43-.68.68-.77v-.25c.26-.09.17-.43.43-.43v-.09c0-.17.17-.25.17-.42s-.25-.17-.25-.26c-.09,0-.09-.09-.17-.09,0-.08.17-.08.26-.08-.08-.08-.26-.08-.26-.26,0-.08.09-.08.17-.08,0-.26.08-.34.08-.51.09,0,.17,0,.17.08v.08c.17-.17.51-.93.77-.93v-.17q0,.09.09.09c.08,0,.17,0,.17-.09v-.08h-.26c0-.17-.17-.26-.25-.26,0-.08.17-.08.17-.25.08-.09.25-.09.34-.26h-.17v-.08s0-.09.42-.6c0-.59,1.02-1.96,1.02-2.3,0-.17-.17-.26-.17-.34.08-.34.17-.68.34-.94v-.26c.09,0,.09-.26.17-.26,0-.25.09-.77.26-.85v-.17c0-.25.08-.51.25-.68v-.09c0-.17.17-.25.17-.34v-.26c0-.08,0-.17.17-.17,0-.34.17-.59.34-.77v-.09c0-.17.08-.34.08-.42v-.08c-.25,0-.42.51-.42.77-.09,0,0,.08-.17.08-.09.26-.17.42-.34.6,0,.17-.08.17-.08.34-.17.17-.34.34-.34.68-.09.09-.43.77-.6.77v.26c-.09,0-.17.08-.34.08-.34.26-.26.85-.6,1.11,0,.09-.09.34-.26.34-.08,0-.08-.08-.08-.08,0-.08.08-.08.17-.08,0-.09.08-.26.08-.34s0-.09-.08-.09c.08-.09.25-.09.34-.26v-.26c.17,0,.26-.59.34-.77,0-.17-.08-.17-.08-.34.08-.08.08-.17.08-.34.09-.09.17-.34.17-.51q0-.08-.08-.08c-.34,0-.09.25-.26.25h-.09c-.25.09-.34.43-.42.6,0-.17.34-1.11.34-1.28-.26,0-.6.51-.68.77l-.09-.09c0-.09.17-.17.17-.25v-.09c0-.17.09-.26.09-.34v-.09c.08,0,.17-.09.17-.09l-.09-.08c-.08,0-.25.26-.25.26-.51,0-.85.59-.94,1.02,0,0-.08,0-.08-.09,0-.34.77-1.53.77-1.53.26-.51.26-.85.43-1.36v-.09h.08v-.08c.09-.17.17-.51.17-.68h-.08c-.26,0-.26.43-.43.43,0-.43.17-.68.26-1.11h-.09c-.26,0-.26.51-.34.51h-.09c-.08-.09-.08-.17-.08-.26,0-.6.85-2.22.85-2.56.51-.43.43-1.62.85-2.04.6-.51.77-2.39.94-2.98.17-.51.42-1.19.6-1.79.17-.42.51-.93.59-1.27.09-.17.34-.6.34-.77s.34-.26.51-.43c.17-.17.08-.34.26-.43,0-.17.34-.68.34-.94,0,0,.17.08.25.17l.26-.25c.26,0,.43-.09.6-.09.08,0,.08-.17.17-.25h.08c.17,0,.09.25.17.34.08,0,0-.17.08-.26h.09q.08,0,.08-.08v-.09c.09,0,.51,0,.6-.09.09,0,.26.17.26.17h.17c.08,0,.17.08.17.17.08-.08.34-.59.34-.68h.6c.17,0,.17-.17.34-.17q.09,0,.09.08v.26c.08,0,.34-.42.34-.51.08,0,.08.09.08.17.17,0,.09-.17.26-.17h.43c.17-.09.25-.17.34-.25.08,0,.17.17.17.34.17,0,.43,0,.51-.09.17.17.17.34.34.59.17,0,.26-.17.34-.25.17.09.08.34.34.34h.08s.09.09.09.17c.17,0,.26.08.43.08h.17c0,.17.17.08.17.17.08-.09.25-.09.43-.09.08.17.08.34.34.34h.17c-.09-.34-.26-.68-.26-1.11v-.25h.17q.09,0,.17.17c.09,0,.09.08.09.08h.34c.17.17.26.68.43.85h.17c.09,0,0-.09.17-.09.09.17.17.17.34.34v.09l.26.26v.08c.08.09.26.09.34.26.34,0,.68,0,.68.34,0,0,.34.68.43.77h.09c0,.68.77,1.11.94,1.62.25.51.85,1.28.85,1.71.17.42.34,1.11.68,1.45.17.25.25.34.42.59v.09c.09.26.34.34.43.51v.17h.09v.26h.08c.17.34.34.6.51.85v.09c.34.34.51,1.02.77,1.45.26.43.6.6.6,1.02v.17c.09.09.17.25.26.34,0,.26.25.94.25.94.26.25.26,1.11.34,1.27l.77,3.24c.25,1.19.59,2.72.94,3.91,0,.09.08.94.17,1.02.51.42.42,1.87.68,2.3.43.68.26,1.62.43,2.38.08.34.25.68.25,1.02s.17.94.26,1.28c0,.09.09.59.09.59,0,.51.25.85.34,1.28.08.77.17,1.36.34,1.96l.34,1.02c.17.68.26,1.11.43,1.7.6,1.7.51,3.41.94,5.2.08.42.26.93.34,1.45.09.25.17,1.02.26,1.11v.09c0,.17.17.51.17.68.25,1.79.85,3.41,1.11,5.02,0,0,.17.85.17.94.34,2.04.34,3.92.77,5.71.17.34.26.51.26,1.02s-.26,1.96-.68,2.13ZM121.11,251.15c.42,1.64.79,3.3,1.25,4.93,1.08,3.81,2.29,7.58,3.23,11.42.22.9-.4,2-.63,3.01-.85-.32-1.92-.42-2.52-1-3.18-3.07-4.61-13.91-1.33-18.36ZM163.88,354.3c0-.34.17.26.17.43,0,.34-.17-.25-.17-.43ZM165.32,359.75s0,.08-.08.08l.08.08c-.08.09-.08.26-.17.43-.34,0-.08-.25-.08-.43-.09-.51-.34-1.19-.26-1.62.17.08.26.43.26.6.08.34-.09.59.08.94h.09v-.08h.08c0-.09-.17-.26-.08-.34.08-.17-.09-.26,0-.42,0-.09.25-.09.17-.17.17.09,0,.43,0,.68,0,.09.08.17.08.26h-.17ZM165.92,359.07c0-.17.17-.17.17-.42,0,0,.26.59-.17.42ZM166.69,359.58c0,.17,0,.34-.26.43-.08-.25.09-.25.09-.51,0-.42-.26-.85-.34-1.27,0-.34.17-.6.08-.85.17-.09.26.09.26.17-.17.17,0,.51,0,.77v.34c0,.25.17.59.17.76v.17ZM187.82,329.69v.34c-.09,0-.09-.09-.09-.17s.09-.25.09-.25v.09ZM187.72,310.26c0,.09.09.09.09.17-.09.09-.26.17-.26.25l.09.17s-.26.08-.26.17l.08.17-.17.17.09.17-.17.17v.17c0,.09-.17.09-.17.09l.08.25-.17.09c-.08.17,0,.25-.08.43,0,.08-.17.17-.17.17,0,.09.08.09.08.17s-.17.17-.17.17v.17c0,.09-.17.17-.17.17,0,.08.08.08.08.17s-.17.17-.17.17v.17c0,.09-.17.17-.17.26-.08.08.09.34,0,.42-.08.26-.34.43-.51.6-.34,1.87-.85,3.83-1.11,5.79,0,.17-.09.34-.09.6,0,.17,0,.51-.08.77,0,.08-.09.25-.09.51,0,.17-.08.51-.08.68v.26c0,.08-.09.34-.09.59,0,.09-.08.09-.08.17s0,.51-.09.77c0,.08-.17.51-.17.77,0,.08-.09.08-.09.08v.42c0,.09-.08.17-.08.26s.08.25.08.34-.08.08-.08.17c0,0-.09.09-.09.17,0,.17-.08.25-.08.51,0,.08-.09.51-.17.68-.09.08,0,.51-.09.77,0,.08-.17.17-.17.25l.09.17c-.17.17-.17.34-.26.68,0,.08-.09.08-.09.08,0,.08-.08.26-.08.42l-.09.26q-.08.17-.08.42c0,.08-.09,0-.09.08s-.08.26-.08.43c0,0-.09.17-.09.26s-.17.08-.17.17l.09.25q-.09.17-.17.43c0,.09-.08,0-.08.09,0,0-.09.17-.09.25s-.17.17-.17.26v.25c0,.09-.17.17-.17.25-.08.17-.08.51-.17.68,0,.08-.17.08-.17.08,0,.17,0,.26-.09.43-.17.34-.34.85-.59,1.11.08.43-.17.85-.43,1.19-.09.09-.09.25-.17.34v.17h-.09c0,.08.09.25.09.25-.09.09-.17.09-.17.17s-.09.17-.09.17c-.08.25,0,.6-.08.85,0,.08-.09,0-.09.08,0,0-.09.26-.09.34s-.17.08-.17.08v.42c0,.09-.08.09-.08.17s-.09.08-.09.17v.26c0,.08-.08.25-.17.34,0,.08-.08.08-.08.17v.34h-.09v.26l-.17.17v.34c-.09.08-.26.17-.26.34s-.08.17-.08.34-.17.17-.17.34v.25c-.09.09-.17.25-.26.34v.17l-.08.34c-.09.08-.09.17-.17.25l-.17.09c0,.08.09.08.09.17-.17.42-.26.94-.43,1.45v.34q-.08.17-.17.42l-.08.34c-.17.17-.26.43-.34.77v.08c0,.17-.17.17-.25.34l.08.26-.17.08v.26s-.17,0-.17.08l.09.26c-.17.17-.26.25-.34.51-.08.17-.17.26-.17.34s-.08.17-.08.25-.09,0-.09.09c-.08.25-.08.51-.17.77,0,.08-.26.08-.26.17l.09.17h-.09c0,.17.09.25,0,.43,0,.08-.08.08-.08.17,0,.17-.17.09-.17.17-.09.17.08.25,0,.43,0,.08-.17.25-.26.34l.09.25-.17.09.08.17-.17.09.09.17c0,.08-.17.34-.17.51,0,.09,0,.34-.09.51s-.17.6-.26.94v.42c-.08.09,0,.09-.08.17l-.09.34h-.08l.08.25h-.08v.17l-.17.17.08.17h-.17l.09.25-.17.17v.34c-.09.09-.26.17-.26.34v.25c-.09.09-.17.26-.26.34l.09.17s-.17.09-.17.17c-.09.17-.09.26-.17.42l-.26.26c-.09.17-.17.51-.26.68-.17.25-.42.34-.51.59,0,.09,0,.17-.08.26-.09.17-.17.26-.26.43-.26,0-.51-.08-.85,0-.08-.34-.42-.43-.59-.68-.17,0-.26,0-.26.09-.17-.09-.26-.34-.43-.43-.25.09-.34-.08-.51-.08,0-.17,0-.26.17-.34.17,0,0-.17,0-.17,0-.26.26-.68.26-1.02-.09-.26-.09.17-.26.17.09.17,0,.17,0,.34-.09.09-.09.26-.26.26-.08-.08-.25-.17-.25,0-.17-.08.08-.26.08-.34l-.08-.17.17-.17v-.17c.08-.09.25-.26.17-.6.26-.17.26-.51.51-.68,0-.25-.17-.25-.17-.51.34,0,0-.51.34-.6-.25-.25,0-.51-.25-.77.85-.25.17-1.53.25-2.3.26-.08,0,.43.34.26.17.43.17.26.17.68-.17.34.17.25.25.59,0-.08.17-.08.26-.17s0-.26,0-.34.17-.08.17-.17v-.25c.08-.09,0,0,0-.17l.08-.34h.09c0-.17.09-.34.09-.51,0-.08.08-.17.08-.25v-.25c.09-.09.09-.26.17-.51,0-.17,0-.34.09-.51,0-.08.17-.17.17-.26s-.09-.25,0-.25c0-.26-.26-.09-.34-.17.08-.17-.17-.68-.43-.77.08-.17,0-.42.08-.59-.08-.09-.25-.09-.25-.26-.09-.51.25-.77.25-1.28-.08-.25-.08.17-.25.17-.17.34,0,1.02-.26,1.28,0,.26.26.26.26.51q-.17-.09-.34,0c.34.42-.09.85,0,1.36-.26.09-.09-.25-.09-.43s-.17-.42,0-.51c0-.26-.26-.17-.34-.34,0-.08,0-.34.08-.42.09-.17-.08-.17-.08-.51,0-.09.08,0,.08-.09,0-.17.17-.34.09-.68-.09-.17-.34.43-.26.68-.08,0-.08-.17-.25-.17.08.25-.09.34-.09.42v.26c-.08.09-.25,0-.25.09-.09.08.25.08.25.08.09.08-.17.08-.17.17-.08.17,0,.25-.08.43-.09,0-.09-.17-.09-.34,0-.26.09-.68.17-.94.09-.08,0-.51.09-.77,0-.08.17-.59.17-.85-.34.08-.43.6-.6.85-.09,0,0-.17-.17-.17-.09.51.08,1.11.08,1.62.17.17-.17.17-.17.26v.85c0,.51.26,1.11.43,1.53.34.08.09-.34.09-.51.34,0,.25.43.25.59,0,.09.09.34,0,.43,0,.09-.25,0-.25.09-.09.08,0,.34-.17.25-.25-.77-.51-1.62-.85-2.3-.17.17-.09.43,0,.77-.09.09-.26.09-.26.26.09.51.26,1.11.17,1.45.09.17.17-.09.26.08.09.08,0,.26,0,.26,0,.08.09.17.09.25,0,.34-.09.6.08,1.02.26,0,0-.34,0-.51.43,0,.09.42.09.59s.25.43.17.6c.25-.26.25-.68.25-1.02.26.17.34.77.26.94,0,.08,0,.34-.08.43.08.08.25.08.08.17.17.34-.26.17-.34.09-.26,0-.09.25-.26.34h-.17c-.34.34-.51.85-.6,1.45-.25-.08,0-.34,0-.51-.25,0-.25.17-.34.34-.17,0-.08-.09-.08-.17-.17-1.19-.34-1.79-.43-2.89.26.17.17.85.34,1.28.26,0,.09-.26.17-.34,0-.08.17-.17.17-.34,0-.08.17-.25,0-.59.34.17.09-.51.34-.6-.25-.94-.25-1.53-.59-2.3,0,0-.17-.08-.17-.17,0,0,.17-.09.08-.17,0-.08-.17,0-.26-.17-.17-.43-.17-.85-.34-1.45-.17.25.09.93.17,1.53,0,.17-.08.42,0,.59-.17,0-.08-.17-.17-.34-.17-.43-.51-1.28-.68-1.87-.09-.17,0,0,0,.09-.26-.17-.26-.85-.43-1.28-.17.26.09.6.09.85,0,0-.09,0-.09.09v.34c.17,1.53,1.02,3.41,1.02,4.85v.34c.08.25-.34-.17-.17.25-.26-.08-.26-.68,0-.77-.26-.25-.17-.85-.34-1.27-.34.08-.17.51-.08.93,0,.17-.17,0-.17-.17-.34-1.37-.68-2.81-1.02-3.75-.17.09,0,.34,0,.51,0,0-.08,0,0,.09.17.09,0,0,0,.17.09.6.34,1.28.43,1.96-.34-.08-.34-.68-.43-1.02-.08-.17-.08.17-.17,0-.26-.94-.17-1.36-.51-2.21-.26,0,.17.51-.26.43.17.59.34,1.28.51,1.87-.08,0-.25-.26-.34-.34,0-.09.09-.09.09-.17,0,0-.17,0-.17-.08-.09-.26-.17-1.02-.34-1.53-.43.08-.17.51-.09.94s.26.85.34,1.19c-.34-.09-.34-.77-.6-1.02-.17.17,0,.6.09.94.08.34.08.6.08.68-.25-.17-.17-.51-.25-.77-.09-.17-.17-.25-.26-.42-.17-.51-.17-1.11-.43-1.53,0,0,0,.68.09.77s0,.08.09.42c0,.17.08.34.08.43s.43.68.34.85l-.17.09c0,.17.17.25.17.42.09.26-.08.34,0,.51-.25-.17-.25-.85-.42-1.27-.09,0,0,.25,0,.34,0,.25.08.85.25,1.45-.25.09-.08-.51-.34-.43-.34-.94-.51-1.96-.85-2.81,0-.08,0-.34-.09-.43h-.09c-.08-.17-.08-.42-.08-.6-.09-.59-.26-1.28-.43-1.96-.08-.34-.17-.6-.34-1.11-.09-.17-.09-.25-.17-.34-.17-.42-.17-.93-.43-1.36-.08-.17-.17-.43-.26-.94-.08-.34-.17-.68-.34-.94-.25.25,0,.85.09,1.36.08.51.25.94.34,1.37.09.08.26.25.26.42.08.17.08-.17.17,0,.08.42.25.85.34,1.28-.17.09-.17-.34-.26-.51-.08-.08-.25-.26-.25-.51-.09.08,0,.43,0,.59,0,.09.08,0,.08,0v.43c.17.94.51,1.79.68,2.55.17.51.17.94.34,1.45.17.42.51,1.36.6,2.13.08.34.08.85.34,1.28-.17,0-.09-.26-.26-.26-.08-.68-.51-1.11-.6-1.79,0-.34-.34-.09-.34-.34-.25-1.19-.68-2.05-.85-3.24.08,0,.08.17.25.17-.34-.85-.68-1.87-1.02-2.73-.17.17.08.34.08.51.09.59.26,1.45.43,2.3,0,0,.17,0,.09.08-.26.34.42,1.7.51,2.21,0,.08.08.34.08.34h-.17c0,.08.09.25.17.51.26.94.51,2.13.6,3.07-.08,0-.17-.17-.17-.25-.17-.43-.25-.85-.51-1.36-.17-.34-.43-1.02-.6-1.45,0,0,.09-.08.09-.17,0,0-.09,0-.09-.09-.6-2.21-1.02-4.68-1.7-6.98-.08-.17-.08-.26-.17-.42-.09-.26-.17-.6-.26-.94-.17-.51-.34-1.02-.42-1.53-.09-.51-.26-1.27-.51-1.96-.17-.51-.51-1.02-.68-1.53-.17-.68-.17-1.19-.51-1.87-.09-.08-.17-.08-.17-.17-.09-.25-.09-.68-.17-.94-.17-.43-.43-1.28-.6-1.96-.09-.34-.43-1.19-.51-1.79-.08-.34-.08-.77-.17-1.11,0-.34-.08-.93-.25-1.53,0,0-.17-.08-.17-.17s.08,0,.08-.09-.08-.25-.17-.43c-.09-.34-.09-.68-.17-1.02-.17-.43-.34-1.19-.51-1.87-.09-.17-.17-.25-.26-.43-.34-.94-.51-2.04-.68-2.89v-.51c-.09-.43-.6-1.62-.34-1.87.09-.09.09-.25,0-.59-.08-.17-.17-.17-.17-.34v-.17q-.08-.25-.17-.59c-.08-.17,0-.17.17-.26,0-.42-.25-.42-.25-.85.51.43.34,1.36.6,1.88.17-.09,0-.34,0-.51-.09-.43-.34-1.19-.43-1.79,0-.17.08,0,.08.08.17.68.43,1.28.68,1.87.17-.17.08-.6.08-.77-.08-.51-.25-1.02-.51-1.45,0-.08-.09-.08-.09-.08l-.25-.77s-.26,0-.17-.09c.08-.09.08,0,0-.09-.09-.09-.09-.25-.17-.34-.09-.09-.09-.17-.17-.25,0-.09-.26-.17-.26-.17-.09-.17,0-.34-.09-.51-.08-.17-.34-.42-.51-.68v-.17c-.17-.09-.17-.17-.26-.51-.17-.34-.34-1.11-.51-1.7-.26-.94-.77-1.87-.85-2.73-.09-.6-.34-1.87-.43-2.64,0-.43-.09-.77-.09-1.36v-.26c-.08-.93-.34-1.62-.34-2.38v-.34q0-.17.09-.26c.08-.08,0-.08,0-.25,0-.09.08-.09.08-.17,0-.17-.08-.25,0-.42,0-.08.17-.08.17-.17s.09-.17.09-.26v-.08c.08-.26.26-.77.51-1.02.09-.08.17-.08.26-.17l.08-.17c.09-.08.17-.08.26-.17,0,0,0-.17.09-.17s.17-.08.25-.17l.17-.09v-.09h.17v-.17h.17c.08-.17.17-.09.34-.17.08,0,.17-.17.25-.17.09-.09.26.08.34,0,.08,0,.08-.17.17-.17.25-.09.59.6.85.51.17,0,.51.59.6.34.08-.17,0-1.19.08-1.28q.17-.08.26-.17s.43-.09.94-.09c.26,0,.51.09.77.09,1.02,0,1.45.59,1.62.51.09.09,0,.09.09.17l.09.25h.08c.17.17.17.34.34.51.09.08.09.25.17.43.26.34.68,1.53.94,2.13.09.09,0,.17.09.25,0,.09.17.34.26.6.08.25.42.85.51,1.27.17.43.17.77.34,1.19.94,2.13,1.19,3.92,1.87,6.3.77,1.11.77,2.56,1.19,4.85.77,1.96.68,4.17,1.36,6.64.09.25.34.25.43.51.26.85.34,1.87.68,2.72.08.34.34.6.51.94.08.17,0,.34.08.51l.17.34c.25.77.42,1.62.59,2.3.09.17.09.26.17.43,0,.09-.17.09-.08.17,0,0,.17,0,.17.08.09.34.09.68.17.94.09.25.43.34.51.6.09.42.17.77.26,1.19,0,.34.17.94.26,1.53.17.77.08,1.62.25,2.39-.08,0-.08-.26-.17-.34-.08-.26-.25-.51-.34-.77-.17.17-.34.43-.6.59.09.43.17.94.26,1.36,0,.34-.09.6-.09.94.09.6-.85,1.45-.68,2.13.08.17.17.17.26.34,0,.08-.09,0-.09.08s.09.09.09.09c0,.09-.09.09-.09.17,0,0,.17.25.26.42.08.26.34.42.42.6.17.51.17.68.34,1.11.08.17.08-.09.17-.09-.09-.17.17-.25.25-.34l-.08-.17.17-.17c.08-.17,0-.43.08-.6v-.26c.09-.08.34,0,.26-.17.34.17-.17.42,0,.85.17.26.17-.34.26-.43,0-.17.17,0,.17.08l.08-.08c.09-.08,0-.34.09-.42,0-.09.17-.09.17-.17s.08-.17.08-.25c.09-.17.09-.26.17-.34.25.08.08.34.08.51-.08.34-.17.51-.26.85v.34c0,.09-.17.17-.17.26s.09.17-.08.17c.17.17.43.26.25.51-.08,0-.17-.17-.17-.26-.25.34-.34.85-.42,1.36v.25c0,.26-.26.77.08,1.19.26.09,0-.25.09-.34h.08v-.17l.17-.17v-.43c0-.09.09,0,.09-.09v-.25c.34.25-.26.43.08.93.09.09.09-.08.17.09.08.09-.09.26.08.34.26-.08.09-.51.26-.59,0-.17-.09-.34-.26-.26.09-.08,0-.26.17-.34-.08-.51.09.09.17,0,.09,0,0-.25.17-.25,0-.43-.17-.68-.17-1.19-.34-.08,0,.34-.34.26.09-.34-.08-.6,0-.85,0-.17.34-.34.26-.6.17,0,0,.17,0,.26.34.17-.09.42,0,.77.08-.17.17-.26.25-.43s.17-.26.17-.43c.17-.26.17,0,.34-.17-.09-.42.17-.76.25-1.11.09-.17.17-.25.26-.42,0-.08.17-.17.17-.26s-.09-.17-.09-.17h.09v-.34c0-.08.26-.08.26-.17.08-.09-.09-.17,0-.26,0-.08.17-.08.17-.17v-.34c0-.09.08,0,.08-.09,0-.17.17-.34.17-.59-.25,0-.42-.09-.59.17-.09.17,0,.34-.34.34-.17-.26.26-.43.26-.6.09-.17,0-.25.09-.51l-.51-.25c-.08.09-.08.25-.17.34,0,.09-.08.17-.08.26v.17c-.09.09-.17.25-.17.51-.43,0-.09-.34-.17-.6.26-.08.26-.43.43-.51.09-.08-.08-.34,0-.42h.09v-.17l.17-.17c0-.09-.09-.43-.09-.51s.17-.34,0-.34c.26-.77.43-1.53.51-2.47-.17.17-.09.51-.34.68-.17.17-.08.25-.17.59,0,.09-.08,0-.08.09s-.17.59-.17.77v.17c-.09.43-.17.94-.43,1.37-.17,0-.09-.09-.09-.17v-.25h.09v-.51c0-.08.17-.08.17-.17l-.09-.17h.09v-.25h.09l-.09-.17c.17-.25.17-.93.34-1.36,0-.09.09-.09.09-.17,0-.17.08-.17.08-.42,0-.08.09-.26.09-.43s.08-.34.08-.51l.26-1.02c.09-.43.09-.85.17-1.37,0-.08.09,0,.09-.08v-.08c0-.09.17-.17.17-.26l-.09-.26c.17-.17.09-.34.09-.68,0-.09.08-.68.08-.94,0-.17-.25-.34-.25-.51-.09-.17,0-.26,0-.51v-.09c0-.08-.09-.08-.09-.08v-.42c0-.09.17-.17.17-.26s.09-.08.09-.17c.08-.17.08-.43.08-.6,0-.08.09-.08.09-.17v-.26c.08-.08.08-.26.08-.34v-.17c.17-.17.17-.77.26-1.11,0-.17.09-.34.09-.51,0-.08.17-.17.17-.25l-.09-.17c.09-.09.17-.26,0-.51.26-.09.09-.26.17-.43v-.34c0-.09.26-.09.26-.17.08-.17,0-.34.08-.51,0-.08.17,0,.17-.08l-.09-.26c.09-.08.09-.51.17-.77.09-.17.09-.51.17-.85l-.08-.17h.17l-.09-.17.09-.09v-.17l.17-.17c0-.17-.09-.17,0-.34,0-.09.08-.09.08-.17v-.17c.17-.68.43-1.28.51-1.96,0-.26.08-.51.08-.77v-.43c0-.17.26-.25.09-.43.25.17.25-.17.51-.25-.09-.6.17-1.02.34-1.53.17-.51.34-.94.34-1.53.17-.09.26-.25.43-.34,0-.26.09-.51.17-.85,0-.08.17-.17.17-.25v-.26c.09-.08.17-.34.17-.42v-.09c.09-.17.09-.26.17-.34.08-.26.25-.6.34-.94,0-.08.17-.08.17-.17l-.09-.26c0-.08.17-.26.26-.43,0-.34-.43-.08-.43-.34,0-.17,0-.43.09-.6,0-.09,0-.25.08-.34,0,0,.17-.51.17-.68,0-.09,0-.26.09-.43,0-.09.17-.51.17-.68,0-.09,0-.26.09-.43,0-.09.17-.43.17-.6,0-.08,0-.26.08-.43,0-.08.09-.26.17-.34l.09-.17c0-.17-.09-.26,0-.43v-.09l.08-.17c0-.09.17-.17.17-.26s.09-.17.09-.26,0-.25.09-.34c.08-.25.25-.43.34-.77.17-.43.17-.94.34-1.36.17-.6.43-1.19.68-1.87.09-.09.26-.51.26-.77.6-.26.51-1.19,1.02-1.37.26-.08.51.26.85,0,0,.17.08.26.08.43.43,0,.17-.34.6-.34.51,0,.6.68,1.28.34.08.17.25.26.34.51.08.25.08.51.25.68.43.17.51-.09.77-.25,0,.25.17.34.43.25.09.17.09.43.17.6.17.26.51.17.85.17.17.34-.09.51.08.85.34,0,.34-.26.77-.26.17.34.51.42.85.51,0,.43.34.17.34.51.08.08.42,0,.51.08s-.09.17.09.17h.34c-.09.34.08.77.25,1.02.34,0,.34-.17.68-.17.08.34.25.42.51.59-.09,1.28-.09,2.47-.43,3.58-.08.17-.17.17-.17.42,0,.17-.08.26-.17.42v.17h-.08c-.09.25.08.34,0,.59,0,.09-.17.17-.17.26-.08.17-.08.34-.17.59-.08.17-.17.17-.17.43,0,.09-.08.25-.08.34-.09.17-.09.34-.17.51,0,.08-.17.17-.17.25l.08.17c-.08.17-.26.34-.34.6,0,.09-.09.25-.09.43,0,.08-.34.34-.25.59l-.09.17-.17.17ZM170.18,353.7c0-.17.17-.34.09-.6.26,0,.17.6-.09.6ZM169.24,339.74c.17.09.09.17.09.25-.17-.08-.09-.17-.09-.25ZM188.59,326.53c-.09-.17-.17-.43-.17-.59,0-.51.25-.94.34-1.37.08-.42.17-2.21.17-2.21h.17c.09.17.09.34.09.51,0,.34-.09.59-.09.93,0,.09-.17.6-.26.6v.51c0,.68-.08,1.62-.25,1.62ZM188.67,327.3s-.08.25-.17.43c.09-.17.17-.34.17-.43ZM188.67,322.36c0,.34,0,.68-.17.94-.08-.09-.08-.26-.08-.43,0-.43.08-.94.17-1.36v-.26h.08c0,.09-.08.17-.08.26,0,.26.08.6.08.85ZM188.93,319.47c0-.6.09-.85.09-1.36h.17v.26c0,.43-.09,1.11-.26,1.11ZM188.93,326.19c0-.77.26-2.13.43-2.3,0-.25,0-.43.17-.59v.34c0,.51-.26.93-.34,1.36,0,.68,0,1.36-.17,1.7-.09,0-.09-.08-.09-.26v-.25ZM189.44,320.23v-.17c0-.17,0-.34.09-.42,0-.09.08-.17.08-.17,0,.08-.17.77-.17.77ZM188.25,324.91v.17c0,.25-.17.43-.17.68-.09,0-.09-.09-.09-.17,0-.26.17-.68.26-.68ZM188.42,329.85c-.09.09-.09.51-.09.77-.25.17-.34.77-.34,1.11,0,0-.09-.17-.09-.34,0-.43.09-1.19.09-1.53.26-.17.09-.93.26-1.28.08.08.08.26.08.34,0,.17-.08.42-.08.68h.25v-.34c.34,0,.26-1.62.34-1.96.09,0,0,.17.09.17v.51c0,1.02-.17,2.13-.26,3.07-.17,0-.25-1.02-.25-1.19ZM232.11,322.7c0,.94-.08,2.05-.08,2.3v.85c0,1.36-.09,2.55-.09,3.83v3.91c0,.34-.08,1.71-.08,1.87-.43,3.92-1.7,6.9-3.49,9.28-.51.51-.68,1.36-.94,2.13-.25.85-.85,1.45-1.11,2.3-.08.08-.08.25-.26.34v.09c0,.34-.34.93-.42,1.11-.6,1.19-1.36,2.3-2.13,3.23v.09c-.34.34-.6.85-.94,1.11-.17.17-.77.43-.85.59h-.09c-.34.77-1.28.85-1.87,1.11-1.02.51-1.87.76-2.98,1.02h-.17c-.26.42-2.13.42-2.47.59-.77.34-1.62.6-2.64.6-.77,0-1.7.17-2.55.17h-1.36c-.26.09-.6.09-1.02.09-1.02,0-2.3-.17-2.98-.34-.6-.17-1.19-.09-1.79-.26-.77-.17-1.7-.6-2.39-.85-.34-.17-.85-.68-1.19-.68-.26,0-.68-.77-.85-.85-.25-.17-.51-.51-.6-.85-.34-.17-.77-.51-1.02-.77h-.09v-.09c-.08-.17-.68-.68-.68-.93-.26,0-1.11-1.11-1.19-1.28l-.08-.17c-.85-.85-1.11-2.21-1.62-3.24-.17-.43-.77-1.36-.85-1.7,0,0-1.02-2.47-1.02-2.81-.08-.85-.25-1.62-.43-2.55-.08,0-.59-1.79-.76-2.98l.08-.09c0-.08-.08-.25-.08-.25,0-.43-.09-.94-.09-1.36-.09-1.19-.09-2.38-.09-3.32,0,0,.09-1.11.17-2.81,0,0,.08-1.79.08-1.87.09-.09.09-.17.09-.34v-.43c0-.17,0-.34.08-.43-.08-.34-.08-.68-.08-.94,0-.43.17-1.53.34-1.79.43-.93.25-2.55.43-3.66.08-.94.42-1.53.59-2.47.17-.42.34-1.53.51-1.87v-.68c-.09,0-.17.26-.17.26v-.09c.25-.17.42-1.45.42-1.7,0-.17-.17-.08-.25-.17.08-.94.85-1.79,1.11-2.47.43-1.02.43-1.96.85-2.98l1.02-2.72c.08-.26.43-.34.51-.6.17-.34.34-1.02.6-1.19,0-.34.17-.51.26-.68.25-.93.85-1.62,1.53-2.13h.26c1.53-1.53,3.15-2.64,4.94-3.75.6-.34,1.62-1.45,2.21-1.45.68-.09,1.28-.68,1.87-.94h.43c.43-.51,1.11-.59,1.7-.85.17-.08.94-.08,1.11-.26.17-.25,1.36-.25,1.53-.43.08-.08.25-.08.34-.08h.6c.08.08.17.26.25.34v.08h.17l.34.34.17.08.25.26c.09.26.51.51.68.77.08.17.25.17.42.17.26,0,.43-.09.6-.17v-.08c0-.17-.25-.09-.25-.17,0,0,0-.09.17-.17.25-.17.85-.26.94-.26,0-.08.08,0,.08-.08s.09-.26.17-.34c0,.08.17,0,.17.08.09.09,0,.17.09.26s.17.08.17.17h.34c0-.09.43-.17.43-.17.26.08.34.26.68.26,0,.25.17.25.17.51.08,0,.25.08.25.17v.09c.17.17.26.08.43.34.34.59.68.51.68.59h.51c.68,0,1.36.09,1.87.17.34,0,.34.34.51.59h.08c.26.26.68.51.68.94v.08c.25.17.94.85,1.11.85.43,0,1.28,1.11,1.45,1.45.26.6.85,1.19,1.45,1.62.17.26.51,1.11.68,1.28.17.17.68,1.19.68,1.36,0,0,1.36,2.9,1.7,4.85v.17c.34.51.34,1.7.51,2.38,0,.42.34,1.36.34,1.79.25,1.61.77,2.55.94,4.51,0,.34.08.68.08,1.11v.59l-.08.09c.08.09.25.34.25.77v.59ZM215.5,295.28c-.09,0,0,.17-.09.17h-.68c-.09,0-.09.08-.17.08,0,0-.09-.08-.09-.17h.09c.08,0,.25-.09.25-.17-.08,0-.17.08-.25.08,0,0-.09,0-.09-.08-.08.08-.17.08-.26.08h-.34c-.08,0-.25,0-.34.09v-.09c0-.17-.17-.17-.34-.25.08-.34.94-.17.94-.6v-.08h.77s.08,0,.43-.09c0,.17,0,.51-.09.59,0,.17.26.26.26.43ZM236.72,356c0-.09.08-.17.08-.26.09,0,.17.43.17.6-.08-.09-.25-.26-.25-.34ZM247.19,358.3v-.34s.08,0,.08.08-.08.26-.08.26ZM249.41,335.13c-.17,0-.34,0-.34-.17v-.08h.6c0,.17-.26.08-.26.25ZM260.48,355.66h-.17v-.42c0-.09-.08-.09-.08-.17.08,0,.08.09.17.09,0,.09.08.17.08.25l-.08.09c0,.09.08.17.08.17ZM265.76,357.79v-.17c.09,0,.09.09.09.17h-.09ZM266.7,358.47v-.25c.09,0,.09.08.09.25h-.09ZM276.06,308.05v.26c0,.08.09.26.09.43s0,.26-.09.26h-.08c0,.34-.17.59-.26.85,0,.08-.08.17-.08.26,0,.17.08.25.08.43-.08.34-.26.51-.26.93v.17c0,.17.09.34.09.51,0,1.11-.51,1.96-.85,2.73-.43.77-.77,1.45-1.19,2.13-.17.26-.17.34-.34.51,0,.68-.94,1.28-1.28,1.79-.17.26-.42.6-.68.77-.08,0-.26.09-.26.26-.25,0-.25.26-.42.34-.94.77-1.7,1.45-2.64,2.13l-1.36,1.19c-.26.17-.6.59-.94.68-.17.17-.43.34-.6.43-.17,0-.08.17-.17.17-.17.08-.34.17-.34.34-.26,0-.17.26-.43.26v-.26c-.51.17-.85.6-1.19.94-.08.09-.51.51-.68.51,0,.08-.26.17-.34.25-.09.09-.17.25-.26.34.09-.17.34-.25.43-.25s.09-.17.17-.26c.17,0,.26-.17.43-.26s.51-.25.6-.43c0,.17-1.62,1.37-1.79,1.37,0,.08,0,.17-.08.17v-.17c-.26.25-.43.42-.68.59-.08.09-.34.25-.34.43.17-.09.26-.26.43-.26-.09.08-.17.26-.34.26-.26.34-.43.43-.68.77,0,.09.6.43.68.43.34,0,.59.59.85.59.09,0,.43.26.43.34.25.09.51.26.68.43h.43c.08.17.85.43.94.51.26.17.85.85.94.93h.09v.09c.08.09.17,0,.25.09.17.17.26.51.51.51.17,0,.43.42.51.51.34.43.85.94,1.02,1.45l.09.09c.08,0,.08-.17.17-.17l.08.08c.77.77.77,1.71,1.11,2.47.08.17.51.85.51,1.02,0,.68.85,1.62.85,2.38s.26,1.7.43,2.3c0,.08.17.26.17.51,0,.17-.08.43-.08.68l.08.94c0,.25.17.68.34.85,0,.43-.08.94-.08,1.36v.34c0,.09.17.6.25.6-.08.85-.08,2.13-.08,3.24,0,.59.26,1.19.34,1.62.09.51.09,1.11.17,1.62-.08.09-.43.34-.51.34v.43c-.26.09-.68.77-.68,1.11-.26,0-.26.17-.34.34-.08,0-.25,0-.34.09-.17,0,0,.26-.17.26-.09,0-.17.08-.17.08-.17,0-.26-.08-.34-.08-.17,0-.26.08-.43.17-.17,0-.17-.17-.34-.17s-.26.08-.34.08h-.09c-.08.09-.26.17-.43.17s-.25-.09-.25-.34c-.17-.09-.43-.17-.51-.34,0-.26,0-.51-.08-.68-.17,0-.09.26-.17.34,0,0-.09-.08-.17-.08s-.09.08-.09.17v.09s-.08-1.11-.17-1.19c-.08,0-.17,0-.17.09s.09.34.09.51v.09q.08.08.08.17c0,.17-.17.25-.34.25s-.26-.34-.26-.51h-.25q-.09,0-.09.26v.34c-.26,0-.77-.94-.94-1.11-.08.09-.34.09-.34.25-.09-.08-.17-.08-.17-.08v.08c-.09-.08-.26-.17-.26-.25s.09-.09.09-.17c0,0-.26-.08-.26-.17q-.09,0-.09.09v.34c-.25,0-.08-.26-.34-.26,0-.17-.25-.34-.25-.51,0-.09-.17-.09-.26-.17,0-.08-.09-.08-.09-.25,0,0-.08.17-.17.17,0,0-.08,0-.08-.08s-.17-.09-.17-.17c-.17.09,0,.43-.26.43-.08-.25-.08-.68-.43-.68,0-.34-.34-.6-.34-.94l.09-.08c-.09,0-.26-.08-.34-.17,0,.17.17.25.17.34s0,.09-.09.09c0,0,0,.09-.08.09,0,.17-.17.34-.17.51,0-.08-.08-.25-.17-.25l-.08.09c0,.08.08.17.08.25v.34q-.08-.09-.08-.25c-.09,0-.09-.09-.26-.09s-.08-.17-.17-.17v-.08h.17c-.08-.09-.08-.26-.17-.34,0-.17-.08-.17-.08-.26-.09,0,0,.09-.09.17h-.09c-.08.09-.08.43-.08.77-.51,0-.77-2.47-.77-2.64,0-.43-.17-1.11-.17-1.71v-.85c.08-.34.08-.77.08-1.19,0-.6-.17-1.11-.25-1.45,0-.17-.09-.34-.09-.51,0-.43-.08-.94-.08-1.36v-.94c-.17-1.36-.51-2.47-.77-3.57,0,0-.77-1.53-.77-1.79,0-.34-.34-.6-.34-.77,0-1.02-1.28-1.53-1.87-2.04-.26-.26-.68-.34-1.11-.51-.17-.08-.6,0-.85-.17,0-.17.26-.17.43-.17s.43.09.51.09c0-.17-.34-.26-.77-.26h-1.02c-.09-.08,0-.34-.09-.42-.26,0-.77-.17-.94-.17l-.17.09c-.26,0-.68-.25-.94-.25-.09,0-.17.08-.26.17,0,.09-.08.09-.08.09,0,.17.17.17.17.34-.17,0-.09.09-.17.09-.17,2.04-.09,4-.17,6.05v3.75l-.09.08v3.83c0,.34.17.6.17.94,0,.51-.08,1.11-.08,1.62,0,.08.08.17.08.26v2.38c0,.08.09.17.09.26.08.43.17.85.17,1.28v1.19c-.09,0-.09.09-.26.09-.08,0-.08.09-.08.17h-.26s0,.17-.09.17h-.42c-.17,0-.26.17-.26.26v.08c0,.09,0,.17-.09.26h-.42c-.17,0-.17-.08-.26-.17-.34,0-.17.17-.26.34-.08,0-.17-.17-.25-.17-.26,0-.09.43-.26.43h-.08c0-.34-.17-.6-.26-.77,0,0-.26.26-.34.26l-.09-.09c-.08,0,0-.09-.08-.09-.09.26,0,.6-.09.77-.17,0-.17-.43-.17-.51s-.08-.08-.08-.17h-.51c-.17,0-.08.25-.17.34-.08,0-.08-.17-.17-.17,0-.08-.17-.08-.26-.08s-.08.08-.08.08v.17s-.26-.17-.34-.17v.26c-.09-.09-.09-.17-.17-.17h-.09c-.08.09-.08.17-.08.26,0,.25.17.42.17.68v.17c-.26-.17-.26-.77-.34-1.11-.17,0-.25.34-.34.43-.17-.08-.17-.34-.34-.43-.17,0-.26.17-.26.34s.17.42.17.68c-.26-.17-.34-.6-.43-.94,0-.09-.51-.25-.6-.34h-.09c-.17,0-.17.17-.25.17s-.17-.08-.26-.17c-.08-.09-.08-.17-.17-.17h-.09c-.08,0,0,.17-.08.17q-.34,0-.34.17v.26c-.34-.17-.09-1.11-.68-1.11,0-.17-.34-.43-.42-.51h-.34l-.42-.43h-.34c-.09-.08-.26-.42-.26-.42-.09-.34-.09-.43-.34-.68-.17.09-.17.17-.17.34-.09,0-.09-.17-.09-.25v-.17c0-.08,0-.17-.09-.17l-.17.09v.34c-.08.08-.08.25-.17.34.09.17,0,.17.09.34-.17,0-.26.17-.26.25v.09c-.08,0-.08.09-.08.09v.51c-.43,0-.68-2.47-.68-2.98v-4.26c0-.26-.08-.68-.08-.94v-.34c-.17-.08-.26-.43-.26-.85v-.77c0-1.28.26-2.98.26-3.32-.09-2.64-.09-5.11-.09-7.49,0-1.96,0-3.91.17-5.87v-.09c-.08,0-.08-.17-.08-.25v-1.62c0-.51-.09-1.11-.09-1.62v-1.11s.09-.08.09-.17h-.09c0-.09.09-.17.09-.17,0-.08-.09-.08-.09-.17h.09v-1.96c0-1.62,0-3.15.08-4.77v-.94c0-.51-.08-.94-.08-1.45,0-.43,0-.94.08-1.45.09-.26.09-.6.09-.85,0-.43-.09-.85-.09-1.28,0-.26,0-.6.09-.85,0-.09,0-.26.08-.34-.08-.09-.08-.17-.08-.26,0-.25.08-.51.08-.68,0,0,0-4.17.17-5.11l-.08-.6c0-.85.17-2.13.17-2.89.09-.85.34-1.87.6-2.64.08-.17,0-.43.17-.51,0-.26.08-1.02.26-1.11,0-.68.51-1.27.94-1.61.25-.17.51-.26.68-.51.34,0,.43-.25.77-.25.51-.26,1.53-.43,1.96-.43l.09.08h.17c.26,0,.51-.08.77-.08s1.28,0,1.36.08c.08-.08.51-.17.68-.17.26,0,.94.34,1.02.34.08.26.34.34.6.34.68,0,1.53-.51,1.87-.59h.17c.25-.09.85-.09,1.19-.17,1.02,0,2.13-.25,3.07-.42,0,0,2.81-.85,4.68-.85h.77c.51,0,.94,0,1.02.17.17,0,.34-.08.51-.08.68,0,1.36.26,1.87.34.68.08,1.11.08,1.7.26.43.09,1.28.25,1.45.43.43.42,1.45.59,1.87.85.26.17.85.68,1.19.68.43,0,1.02.93,1.36.93.08,0,.42.17.42.34.26.26.77.26.94.43.43.34.85.68,1.19,1.02.09.08,0,.17.17.17v.25c.09.43.85.68.85,1.11.34.34.51.85.85,1.19q.09,0,.09-.09c0-.08-.09-.25-.09-.34.17,0,.6.77.6.85,0,.6.85.94.94,1.45.08.09.17.09.26.17.08.17.08.34.25.42.09.43.43.85.51,1.19.26,1.02.6,2.13.77,3.06,0,.17.09.26.09.34,0,.43-.26.43-.26.43ZM261.24,328.07c0,.09-.17.34-.26.34.09-.17.17-.25.26-.34ZM289.61,357.19c0-.08-.08-.08-.08-.17h.08q.09,0,.09.09c0,.08-.09.08-.09.08ZM289.61,356.85c-.08,0-.17-.17-.25-.17.08-.09,0-.26.08-.43,0,0,.09,0,.09-.09v-.25s0-.09.08-.09v.77c.09,0,.09.09.09.17s-.09.09-.09.09ZM289.36,351.74c0-.17,0-.43.08-.43l.09.09c-.09.09,0,.25-.17.34ZM289.78,355.06c0,.26,0,.51-.17.68v-1.11c.09-.08.09-.25.17-.34v.77ZM290.3,352.76c0,.09,0,.17-.09.17l-.08-.09h-.09c-.09,0-.09-.09-.09-.09l.09-.08v.08s.09-.08.17-.08h.09v.08ZM291.23,350.12c0-.08-.09-.17-.09-.25s0-.17.09-.17c0,.08.08.26.08.34s0,.08-.08.08ZM292.25,307.46v5.62c0,.43,0,.77-.08,1.19v2.3c0,.94-.09,1.87-.09,2.81v1.36c0,.68.09,1.11.09,1.79,0,.77.08,1.53.08,2.3v4.6c0,.94,0,2.22-.17,3.24v1.02c0,.25-.08.51-.08.77h.08v1.11c.09.09.09.43.09.6v.17c0,.17-.09.25-.09.51v1.02c0,1.19-.08,2.47-.08,3.66h.08l-.08.17v1.02c-.09,1.45-.26,2.55-.34,3.75v.09c-.08.43-.08,1.11-.34,1.28h.09c0,.17,0,.51-.17.6v-.09h-.17v.34c-.17,0-.09.34-.17.34q0-.08-.09-.08c0,.51-.43.77-.43.94,0,.09-.17.17-.17.17-.17.17-.26.68-.26,1.19h.09c0,.09-.09.09-.09.17l.09.09c0,.25-.09.17-.09.42-.08.77-.08,1.11-.17,1.87,0,.17,0,.43-.08.43,0-.17-.09-.08-.09-.17l.09-.09v-.51c.08-.17.17-.51.17-.77-.09-.08-.09-.51-.09-.77.09,0,.09-.17.09-.34h-.09l.09-.17h-.09c-.08.09-.08.34-.08.51-.09,0-.17-.34-.17-.6,0-.09,0-.17.08-.25h.09c.08,0,0,.17.08.17v-.59c-.08,0-.34.25-.34.34h-.08c.08,0,.17.09.17.17v.08l-.17-.17v.08c-.09.17-.09.6-.09.94,0,.26,0,.51.09.51,0-.17,0-.34.08-.43v.77c0,.68-.17,1.36-.25,2.13,0,.26.08.6.08.94,0,.25-.08.42-.17.59q.09,0,.09.09c0,.08-.09.25-.09.34v.09c-.17,0,0-.17-.17-.17h-.09c-.08,0,0,.26-.08.26h-.09c-.17,0-.17.17-.34.17,0,.17-.17.25-.17.43-.17.09-.34,0-.43.09,0,.08.09.08.09.08,0,.08-.09,0-.09.08-.08.17-.17.09-.34.17-.08.08-.08.17-.17.25h-.17c-.17,0-.26.09-.34.34h-.43c-.09,0,0-.17-.09-.17h-.25c-.09,0-.26,0-.34.08v-.26h-.09c-.09.09-.17.09-.26.09s0-.09.17-.17c-.08-.08,0-.08-.17-.08-.08,0-.25.08-.34.08-.08-.08-.17-.25-.25-.34l-.09.09-.17-.09.08-.43q-.17.09-.25.09h-.17c-.26.43-.34.26-.77.34q0-.08-.09-.17c-.17,0-.08-.09-.25-.09,0-.17-.09-.26-.26-.26-.17.08-.26.26-.43.26-.08-.09-.42-.09-.6-.26v-.17h-.08c-.09,0-.26.25-.26.25-.08,0-.17.09-.17.09l-.08-.09c0-.08.08-.17.08-.25v-.09c-.08-.25,0-.77-.34-.85,0-.17-.17-.42-.34-.51v-.51c-.09-.08-.09-.17-.09-.17v-.17c-.17,0-.42-.93-.42-1.28,0-.08-.09-.26-.09-.34-.26-1.19-.26-2.22-.26-3.58v-1.45c0-.26.09-.51.09-.68,0-.85.08-1.71.08-2.56,0-.26-.08-.51-.08-.68,0-.59-.09-1.7-.09-2.38v-1.36c0-.43.09-.77.09-1.19s-.09-1.36-.17-1.7v-.26c-.09-.94-.09-1.79-.09-2.9l-.08-1.19c0-.08.08-.08.08-.17v-1.79c0-.68-.17-1.62-.17-2.39,0-.17.09-.25.09-.43v-.59c-.17-1.71-.17-3.49-.17-5.37v-.09s-.09-.34-.09-.68v-.59c0-.17.17-2.39.17-2.39v-1.19c0-1.36.43-2.98.43-4.34.08-.85.17-1.96.17-2.9v-5.45c0-2.73.09-5.45.17-5.45v.34c.09,0,.09.08.09.17.08.09.25.09.34.17.08.17.17.34.34.43l.09-.08c0-.09-.09-.09-.09-.17,0,0,0-.09.09-.09v.17c0,.25.17.68.17.94,0,.17.08.17.17.17h.17v.09c0,.17-.17.08-.17.17,0,0,0,.09.08.09.17,0,.17-.09.17-.17v-.68c0-.08.09-.42.17-.42v.08c0,.09.17,0,.17.09s-.09.25-.09.51c0,.34.09.76.17.85-.08.08-.08.17-.08.34,0,.34.08.94.17,1.19v.26c0,.34-.09.85-.09,1.02,0,.34.09.59.09.85,0,.08.08.08.08.08.09,0,.17-.08.17-.08v.76h.09q.08.08.08.17v.34c0,.09,0,.17.09.26v-1.36c.26-.43.34-.85.34-1.28v-.42c-.34-.34-.26-.85-.34-1.37.17-.17.26-.42.26-.68s-.09-.43-.26-.51c0-.17,0-.42.17-.42,0,.17.09.42.17.42.17-.08.17-.34.17-.6v-.25c0-.17,0-.34.09-.51h.42c.09-.17,0-.17.09-.34.09,0,.17.09.17.17s-.08.26-.08.26c.17,0,.17.59.25.68.09-.09.09-.17.09-.25v-.34q0-.09.08-.17c0,.17.09.26.17.34v.09c0,.25.17.25.17.51,0,.08-.17.08-.17.17v.09c0,.17-.08.34-.17.34v-.09c0-.17-.08-.51-.17-.59,0,.09-.08.17-.08.25,0,.26.17.51.17.68,0,.08-.09.08-.09.17.09,0,.17.09.17.17l-.08.08c0,.09.17.09.17.26.08.08.08.26.17.26,0,.25.08.77.26.77,0-.09.08-.34.08-.68s-.08-.6-.08-.6c-.17,0-.09.26-.17.26h-.08v-.08c0-.09.08,0,.08-.17,0-.08-.17,0-.17-.08.17-.17.51-.08.68-.17,0,.17.34.34.34.34.08-.09.08-.17.08-.25v-.26c0-.09-.17-.17-.17-.26v-.09c0-.08.17,0,.17-.17v-.6c0-.17,0-.42.09-.59,0,0,.09,0,.09-.09,0-.17-.09-.09-.09-.17l-.09-.08-.51-.17c0-.08,0-.34.09-.34l.17.17v-.09c0-.09.08,0,.17-.17,0,.08-.09.34-.09.34.09.08.09.17.17.26h.09v.08h.09c.08-.08.25-.17.25-.26s.09-.08.09-.08c-.09-.08-.09-.26-.09-.42v-.51h.09c.17,0,.25-.17.25-.34v-.17h.34c-.09-.08-.09-.42-.09-.68v-.17c.09,0,.09-.17.17-.17v.09h.09c.08,0,.17,0,.17-.09,0-.17,0-.25.08-.34l-.17-.17c.09,0,.17-.08.17-.08.09.08.09.34.26.34h.09v-.17c0-.17-.09-.43-.09-.59v-.09q0,.09.09.09h.17c.08,0-.09-.17,0-.17h.08c-.08-.17-.17-.17-.17-.34v-.17l.09-.08c.08,0,.17.17.25.17,0,0,0-.08.09-.08v-.6c.17,0,.43,1.02.51,1.02.09-.17,0-.43.09-.68.08-.17.17-.34.17-.59.25,0,.17.25.25.25h.09c.17,0,.08-.34.26-.34h.34c.17.17.17.43.34.43s.43-.34.51-.34c.17,0,.26.17.43.34.26.09.51.43.51.68.09,0,.26.17.26.26.17.34.17.85.43,1.11v.34c.17.26.25.77.25,1.28,0,.43-.08.85-.08,1.19s.08.6.08.85v4.6c0,.43.09.94.09,1.36,0,.17-.09.25-.09.43ZM285.36,299.62v-.17s.08,0,.08.09l-.08.09ZM286.78,213.54c5.73,2.53,7.15,10.72,3.48,16.47-1.27-6.03-2.38-11.25-3.48-16.47ZM283.64,158.81c-3.38,4.85-6.46,9.96-10.26,14.46-4.99,5.93-10.45,11.47-15.92,16.98-2.75,2.78-5.96,5.1-9.69,8.25,3.02,1.61,5.11,2.79,7.26,3.87,15.94,8.04,21.81,20.72,17.44,37.96-1.72,6.77-3.5,13.53-5.5,20.23-.88,2.93-.25,4.86,2.45,6.14,4.2,1.99,8.36,4.09,12.66,5.85,2.76,1.13,5.5,2.06,5.04,5.74-.48,3.84-3.6,3.27-6.19,3.34-5.33.15-10.66.15-15.98.32-4.38.14-8.54.23-11.82-3.68-2.05-2.45-4.69-1.49-6.4.77-2.32,3.06-5.32,3.62-8.83,3.38-6.33-.43-8.03-2.51-7.54-8.94.78-10.26,1.6-20.53,2-30.82.13-3.23-.59-6.67-1.74-9.71-.7-1.86-2.73-3.82-4.59-4.43-1.1-.36-3.51,1.48-4.52,2.91-3.83,5.43-7.48,11-10.93,16.69-4.87,8.03-12.81,11.45-21.26,12.3-9.67.96-19.55.26-29.3-.31-3.84-.23-6.63.43-8.34,3.8-2.33,4.6-4.16,9.46-6.7,13.93-.95,1.67-3.29,2.54-4.99,3.77-1.07-1.64-2.98-3.23-3.08-4.94-.43-7.14-.62-14.32-.26-21.46.12-2.36,1.83-4.88,3.41-6.85,2.19-2.73,2.47-5.17-.18-7.38-3.25-2.72-3.49-6.21-3.29-9.95.3-5.62,2.33-7.06,7.91-6.88,8.3.27,16.62.24,24.92-.08,6.99-.27,6.92-.53,6.95-7.7.06-13.06,1.29-25.96,6.45-38.15,1.44-3.41,3.41-6.6,5.61-10.8-.01,0-.02,0-.04,0,.31-.52.56-1.08.82-1.71.15-.22.3-.43.45-.64.89-1.29,1.14-3.59.66-5.06-.14-.45-.33-.86-.55-1.25,1.24-.79,2.29-1.88,3.16-3.21-2.37,2.23-4.7,4.5-6.97,6.84-4.29,4.42-7.93,9.36-11.78,14.13-.22.27-.41.58-.64.85-2.67,3.2-3.88,3.14-6.26-.25-7.1-10.11-15.76-18.8-24.81-27.13-12.25-11.28-25.36-21.6-37.08-33.48-10.39-10.53-17.16-22.95-18.92-37.71-1.95-16.34,3.01-30.23,15.84-40.95,8.57-7.17,18.49-10.95,29.64-10.62,13.65.41,25.12,5.89,34.16,16.23,1.16,1.33,2.28,2.7,3.26,4.16.83,1.23,1.31,1.35,2.23.05,3.81-5.43,8.42-10.1,14.07-13.59,10.45-6.46,21.71-8.24,33.75-5.65,6.1,1.31,11.71,3.61,16.81,7.17,9.76,6.82,15.34,16.32,17.86,27.8.73,3.34.99,6.7.92,10.11-.05,13.57-4.48,25.55-13.15,36-3.91,4.72-8.1,9.16-12.46,13.42,3.95.92,7.83,2.21,11.66,3.65,1.99.74,3.44.91,4.43.29,1.01.02,2.01-.19,2.9-.68.57-.15,1.13-.39,1.65-.75.09-.06.15-.1.2-.14.27-.13.52-.28.76-.44.32-.12.64-.24.96-.38.63-.27,1.19-.6,1.71-.96,2.78-1.02,3.69-3.57,4.83-5.92,2.75-5.68,5.23-11.52,8.43-16.94,7.95-13.46,19.93-17.36,36.27-12.16,5.23,1.66,10.61,3.07,15.52,5.43,3.29,1.58,6.25,4.31,8.69,7.12,2.65,3.05.8,6.17-1.19,9.06-1.18,1.71-2.25,3.61-2.87,5.58-1.6,5.13-3.07,10.32-4.27,15.56-.37,1.63.17,3.53.55,5.25.7,3.19,1.03,6.05-3.2,6.96-.78.17-2.05.66-2.11,1.13-.71,5.35-5.51,6.6-8.78,9.56-5.12,4.63-6.67,5.76-12.92,2.75-3.88-1.87-6.57-1.51-8.98,1.95ZM283.12,233.13c-.56.05-1.12.1-1.68.15-.52-5.06-1.05-10.13-1.66-16.04,5.5,3.56,6.63,11.29,3.33,15.89ZM303.16,302.18c-.34-.34-.85-.34-1.28-.26l.17-.17h.94c.17,0,.17-.09.34-.09s.43.17.51,0c.09,0,.09.17,0,.17-.17.08-.59,0-.68.34ZM303.67,302.6c-.08.08-.42.08-.68.08.17-.17.34-.17.68-.08ZM302.39,302.6c-.17.34-.43-.09-.68-.17,0-.08.17,0,.25,0,0-.17.09-.34.26-.25q0,.08-.09.08c.09.09.17.26.26.34ZM303.58,300.98c0,.09-.17.09-.26.09-.08.25.09.34.34.34-.25.34-.85-.09-1.11.25-.17-.08,0-.25,0-.34-.17-.17.68-.34,1.02-.34ZM303.07,297.92c-.08-.25.34,0,.43-.08v-.09c.09,0,.43,0,.34.09,0,.34-.59-.09-.77.08ZM301.62,301.92c-.17.08-.43.43-.77.26l.26-.26c.08-.08.34,0,.51,0ZM299.32,299.71c-.34-.08-.51.17-.85.08q-.09,0-.09.09c-.08,0-.08-.09-.08-.09,0-.08.25-.17.34-.08,0-.17.17-.43,0-.43.17-.17.43-.26.68-.26.17,0,.34.09.51.09-.09.25-.51.17-.68.25.09.09.26.17.17.34ZM299.15,298.86c.09-.51.6-.43,1.11-.34-.25.26-.68.26-1.11.34ZM334.41,298.86v.51c0,.09-.17.09-.17.17,0,0,.08,0,.08.09-.08.93-.17,2.04-.43,3.06-.08.26-.25.51-.34.77-.08.26-.17.6-.25.85,0,0-.09,0-.09.09-.09.17-.17.17-.26.25l-.08.17h-.09c-.08.08,0,.25-.08.34-.09.09-.26,0-.34.09l-.09.25c-.26.09-.6.34-.85.43-.09.09-.17.09-.26.17-.09,0-.26.08-.43.17-.08,0-.17.09-.25.09l-.09.08c-.26.08-.77,0-1.02.08h-.25c-.09,0-.17.09-.17.09-.43,0-.77-.17-1.11-.17s-.77.08-1.11.17c-.25,0-1.87.09-2.21.17-.08,0,0,.08-.08.08s-.43.17-.6.26c-.17.08-.26.08-.43.17-.08.09-.26.26-.43.34-.08,0-.17-.08-.25,0l-.17.17h-.51c-.42,0-1.02-.09-1.45,0-.26,0-.26.43-.34.59,0,0-.17,0-.17.09q-.09.26-.17.43c-.34.51,1.02,1.02.85,1.87-.17.51-.34,1.36-.34,2.13,0,.26.09.51.09.68,0,.08.08.26.17.42,0,.17.08.17.08.26.17,1.11-.85,1.36-.68,2.38,0,.26.08.34.17.6.17.68.17,1.62.17,2.3,0,.17-.09.34-.09.51-.08.43-.25.94-.34,1.37v.51c0,.26-.17,1.02.09,1.45,0,.08.17,0,.17.08,0,0,0,.43.08.51.09.08,0,.17.09.51,0,.17.17.34.17.51s-.08.26-.08.43v1.45c0,.26-.09.6,0,1.11.08.77.34,1.71.34,2.73,0,.25-.09.43-.09.68v.43c0,.51-.25,1.19-.34,1.7v.17c0,.09-.09.17-.09.25v.34c0,.08-.17.08-.17.08-.08.34,0,.6,0,.94-.08.59-.25,1.11-.34,1.7,0,.26.09.34,0,.68l-.08.09c0,.17.08.43.08.6v1.11c0,.6.09,1.02,0,1.62-.08.34-.17.68-.25,1.11v.51c0,.51-.09,1.11-.17,1.7,0,.17-.08.42-.08.6,0,.34.17.68.17,1.02.17,1.28.17,2.55.17,3.83,0,.17-.08.25-.08.43,0,.85.08,1.7.08,2.47,0,.17-.08.26-.08.43v.51s-.09,0-.09.08v.43c0,.26.09.6,0,1.11,0,.17-.09.42-.17.68,0,.17,0,.51-.09.68,0,0-.08,0-.08.08s-.09.09-.09.17,0,.34-.08.43c-.09.09-.17.09-.26.17s0,.26-.09.34l-.34.34h-.17v.08h-.25c-.09.08-.17.08-.43.17-.17,0-.34.17-.43.17-.6.08-1.11-.26-1.7-.17-.34,0-.51.26-.68.26-.6,0-.94-.17-1.45-.34-.34,0-.43.26-.77.26,0-.09-.09-.17-.17-.17-.34-.17-.85-.77-1.19-1.11-.17-.17-.43-.25-.43-.51h-.43c0-.26-.17-.17-.08-.43-.34-.08-.17.34-.51.17-.43-.09-.26-.68-.68-.77-.34-.09-.17.34-.51.26-.09-.17-.17-.26-.26-.34s-.17-.25-.34-.34c-.09.09-.26.17-.43.26-.08.08-.34.34-.6.34-.08-.26-.59,0-.68-.17-.17-.17-.43-.09-.68-.09.08-.42.08-.77.08-1.19,0-.68-.08-1.36-.08-1.96,0-.26.08-.6.08-.85,0-.09.09-.17.09-.25v-.17c.08-.09.08-.25.08-.43,0-.08.09-.08.09-.17v-.43c0-.09.08-.09.08-.17,0-.25-.08-.51-.08-.77,0,0,.08,0,.08-.08v-.26c.17-.17.26-.34.43-.43-.08-.42.17-.59.43-.68,0-.43.08-.68.08-1.11.34-.25.43-.77.85-.94-.09-.26.08-.26.17-.42v-.26h.09v-.17c.08-.09.17-.6.08-1.02-.17.08-.08.17-.17.43,0,.08-.09.26-.09.34,0,.17-.17.08-.17.34-.25-.26.09-.6.09-.94,0-.25,0-.43-.17-.59-.09-.17.08-.17.17-.17v-.43c-.09,0-.09.26-.09.34-.08.08-.17-.43-.08-.51.08-.09.08-.26.08-.6,0-.25,0-.59.09-.85,0-.26.08-.6.17-.76.34.08.34.51.26.85.42,0,.08-.34.17-.34.25-.08-.09.51.34.51.26-.26.09-.34,0-.68.09-.09.17-.43.17-.6,0-.25-.26-.42-.08-.59-.34.17-.17.94-.34,1.19-.08.17-.17-.17,0-.17,0-.17-.08-.34-.08-.59,0,0,.25-.09.17-.17-.09-.08-.09,0-.09-.17,0-.26-.08-.6,0-.85l.09-.09c0-.17-.17-.43-.17-.59,0-.26.08-.6.25-.85-.17-.34.09-.51,0-.94.09-.34-.34-.17-.34-.42,0-.17,0-.26-.08-.26v-2.81c0-.26,0-.51.08-.77,0,0,.09,0,.09-.09v-.09c.08-.17.08-.68.17-1.02,0-.25.08-.43.08-.68v-.34c0-.26.17-.51.17-.68.08-.42-.09-.85,0-1.28,0,0,.17,0,.17-.09l-.09-.08.17-.08c0-.26-.08-.43,0-.6l.09-.25c.17-.09,0-.26.08-.6,0,0,.09,0,.09-.08s.17-.26.08-.6c-.08-.17-.08-.34-.08-.68v-1.79c0-.34.08-.77.08-1.28,0-.17-.17-.34-.08-.59l.17-.09c0-.17-.17-.34-.17-.51s.08-.26.08-.43v-.68c0-.68,0-1.79.09-2.56,0-.25.08-.34.08-.59,0-.17.17-.43.17-.6v-1.11c0-.17.08-.17.08-.25,0-.43,0-.77.09-1.19,0-.34-.85-1.79-.68-2.13.09-.26.17-.51.17-.77,0-.43-.08-.85-.08-1.28,0-.25,0-.42.08-.68-.17-.25-.59-.25-.94-.34-.34-.09-.68-.09-.94-.17-.08-.08-.17-.26-.25-.34-.09-.08-.17-.25-.34-.25-.17-.09-.34-.09-.51,0-.08,0-.34.17-.51.25-.77-.08-.43.09-1.02.17-.08,0-.25-.09-.34-.09-.25-.09-.6-.09-1.02-.09h-.09c-.26-.08-.34,0-.6,0,0,0,0,.09-.08.09-.34-.09-.77,0-1.19,0-.17,0-.51-.09-.68-.09-.43-.08-1.02-.08-1.45-.08,0,0-.08.08-.17.08h-.25c-.09,0-.17.09-.17.09-.09,0-.34-.09-.43-.09q-.09.09-.17.09s-.68.09-.77-.17v-.08l-.17-.09c-.09-.09-.17,0-.34-.09-.08-.08-.51-.34-.85-.43-.34-.08-.68-.17-.77-.25l-.08-.17c-.17-.08-.17-.17-.34-.34-.25-.26-.34-.43-.34-.68,0-.43.26-1.11.43-1.45,0,0,.08.09.08,0,.09-.25.09-.43.17-.68,0,0,.17,0,.17-.09,0-.17.08-.34.17-.43l.17-.08c.08-.08.08-.26.17-.34.17-.17.43-.17.43-.43.25,0,.51,0,.68-.08.17-.26.17-.77.43-.85.17-.34.08-.6.17-.77.17,0,.34.09.51.09.09,0,.26-.09.26-.17.25-.17.94-.34,1.28,0-.17.26-.51.26-.85.34,0,.09.08.17.25.17-.08.09-.08.25-.25.25s-.17.17-.34.26c0,.43.6.17.85.26-.09.25-.34.09-.43.34,0,.17.17,0,.26,0,.17,0,.34.17.51.17.43.17.17.43.68.34-.17.34-.68,0-.85.34.26.08.08.17.08.25,0,.17.17,0,.17-.09.08.09.08.26.08.43.17.09.26,0,.43.09.08.09.08.25.17.25.26.09.43,0,.68,0h1.19s0-.08.09-.08c.17,0,.34.08.51.08-.09-.08.08-.08.08-.08,0-.08-.08-.08-.08-.08,0-.17.17-.17.17-.26,0,0,.08,0,.08-.08s-.25-.17,0-.17c.51,0,.6.25.6.6.51.17-.17.08.34.17-.08.09,0,.17.09.17h-.51c-.09,0-.26.17-.34.17s-.43-.09-.34.09c0,.09.09,0,0,.09-.08,0-.08.08-.17.08.26.26.43.34.68.34l.25.08v-.17l.17.08c.09-.08.09-.17.26-.17l.17.09s-.6,0-.17.08c-.09.26.6,0,.43.17v.34c.25.09.17-.17.25-.25.09-.17.17-.17.34-.26q0-.08-.09-.08c-.17-.09,0-.43-.34-.34-.34.08.25.17.08.42-.51-.08-.17-.51-.42-.77,0,0-.09-.08-.17-.08.08-.09.17-.17.34-.17,0-.34-.09-.59-.26-.85-.26-.08.51,0,.43-.17-.09-.26-.09-.68-.09-1.02.17-.09-.77-.17-.68-.26.26.17.26-.08.51,0,.17-.34-.34-.34-.25-.68.51-.25.94-.59,1.19-1.11.26-.09.51-.09.68-.17.08-.26-.17-.34-.43-.34.17-.26.51-.26.77-.51.08-.09.08-.26.17-.26h.17c.08-.08.17-.26.34-.34l.17.08c.09-.08.09-.25.26-.34.25,0,.43-.09.68-.09,0-.08-.17-.08-.25-.08-.09-.26.17-.17.34-.26.25-.17.25-.51.77-.43.17,0,.08-.34.25-.34.51-.08,1.11,0,1.7,0,.17,0,.09,0,.17-.08.09,0,.34,0,.51-.08.17.08.08.17,0,.17-.09.09-.51.17-.68.34-.17,0-.34,0-.34.09-.08-.09-.08-.17-.26-.25h-.68c-.08.08-.17.17-.26.17,0,.34.51.26.77.26q-.08.08-.08.25c.17,0,.34.17.6.17.08,0,.17-.17.34-.17.08,0,.17.09.25.09h.26c.43,0,1.28-.43,1.62-.68v-.17c.08-.09.25-.25.42-.34l.17.09c.17-.17.34-.17.68-.26.25-.08.51-.08.77-.17h.17c.08,0,.17-.09.25-.09.34,0,.77-.09,1.19-.09h.26l.08-.08c.09,0,.09.17.26.17h1.36c.34,0,.85.17,1.45.17.17,0,.43-.17.6-.26.6,0,1.28.34,2.04.17l.17.08h3.41c.08,0,.34-.08.43-.08s.17-.09.17-.09h.42c.17,0,.26-.09.34-.09.25,0,.51.09.76.09.77,0,1.45-.09,2.22-.09h.6c1.11.17,2.21.51,3.15.94.08.17.08.43.08.59,0,.51-.17,1.11-.25,1.71ZM306.14,347.83c0-.08,0-.17.09-.17-.09-.34.17-.34.08,0-.08,0-.08.17-.17.17ZM306.73,343.48c.43-.09.08.51.08.59v.34c-.25-.17-.08-.68-.08-.94ZM307.24,344.16c.09-.09.09,0,.09,0,.08.43-.17.43-.09,0ZM308.01,338.11c0-.17,0-1.19.09-1.53.17.09.08.34.08.43,0,.43-.17.94-.08,1.36-.09.08-.09-.08-.09-.26Z" fill="#fb97aa"/>
  <path d="M305.97,306.77c-.17.08-.43-.26-.34.08.34,0,.85.43.94.09-.09-.09-.26-.25-.51-.25l-.09.08Z" fill="#fb97aa"/>
  <path d="M300.56,147.37c-.42-1.1-1.49-1.95-1.58-2.08,3.68-1,7.82-.95,9.79-2.99,2.07-2.15,3.26-3.1,6.02-2.11,3.14,1.13,4.84.09,3.3-3.29-2.03-4.43-1.82-8.5.45-12.77,1.07-2.01,1.49-4.4,1.95-6.68.9-4.46-.5-5.74-5.02-4.94-5.92,1.06-11.82,1.78-17.37-1.55-.55-.33-1.38-.17-2.47-.27.88,1.75,1.5,3.01,2.77,5.54-4.54-1.88-7.9-3.26-11.44-4.73-.75,1.88-1.29,3.22-1.44,3.61-2.44-1.01-4.64-2.8-6.45-2.47-3.67.67-6.07,6.45-4.93,10.21,1.99,6.54,1.37,7.69-5.54,9.35-3.83.92-4.04,2.34-1.75,5.46,3.42,4.67,6.29,9.73,9.39,14.63.92,1.46,1.84,2.92,3.05,4.85,5.28-5.54,10.44-6.31,16.49-2.29,1.22.81,4.68-.48,6.12-1.84.72-.68-.61-3.78-1.33-5.65Z" fill="#fb97aa"/>
  <path d="M256.07,168c.89-1.89,2.3-3.32,3.79-4.65,6.69-5.96,6.95-11.62.54-17.81-4.06-3.92-8.25-7.72-12.61-11.3-5.56-4.57-11.73-6.8-18.22-7.7-1.25-.53-2.63-.77-3.97-.83-1.34-.06-2.68.13-4.02.22-.78.05-1.56.08-2.34.17-1.46.05-2.93.14-4.41.26-1.5.12-3.66,1.84-4.12,3.27-.46,1.42-.82,2.87-1.13,4.34-.04.08-.07.17-.1.25-.4,1.16-.56,2.41-.73,3.62-.17,1.23-.4,2.46-.52,3.7,0,.07-.01.15-.02.22-.47,3.56,1.27,5.38,5,4.92,6.04-.74,11.02,1.41,15.63,5.02,3.92,3.07,7.96,5.99,11.89,9.06.49.38.56,1.29.83,1.95-.26.33-.53.66-.79.99-2.2-1.22-4.5-2.28-6.57-3.68-3.57-2.42-6.91-5.2-10.53-7.55-3.01-1.95-8.69-.58-11.29,3.3-.9,1.34.23,4.45,1.1,6.46,1.59,3.68,3.68,7.14,5.56,10.69l-1.83,1.18c-3.67-5.01-7.35-10.03-11.02-15.04-.58.35-1.15.7-1.73,1.05,2.86,5.4,5.72,10.8,8.58,16.2-.59.37-1.17.74-1.76,1.11-1.01-1.18-2.1-2.3-3-3.55-2.04-2.83-3.75-5.94-6.07-8.49-1.06-1.16-3.26-1.29-4.95-1.88.4,1.56.33,3.53,1.27,4.61,7.61,8.67,15.88,16.49,26.99,20.66,4.66,1.75,9.04,4.31,13.75,5.84,2.35.76,5.78,1.01,7.68-.18,10.99-6.82,20.61-15.08,26.2-27.25,2.91-6.34,2.42-10.96-3.12-17.15-1.13,9.03-3.23,17.12-13.98,17.96Z" fill="#fb97aa"/>
  <path d="M320.34,98.46c1.64,2.96,3.01,5.43,4.77,8.6,2.26-4.64.88-7.04-4.77-8.6Z" fill="#fb97aa"/>
  <path d="M289.1,353.28c.09,0,.09-.26.09-.34s0-.34-.09-.34v.68Z" fill="#fb97aa"/>
  <path d="M288.85,351.66c0,.34,0,.51.09.68.08-.17.08-.26.08-.43v-.42h-.08c-.09,0,0,.17-.09.17Z" fill="#fb97aa"/>
  <path d="M287.74,105.05c-2.69-1.42-4.76-2.56-6.91-3.53-.16-.07-.87,1.08-1.32,1.66,2.16,1.09,4.32,2.18,6.49,3.24.06.03.25-.19,1.74-1.37Z" fill="#fb97aa"/>
  <path d="M271.26,127.17c-1.95-1.98-3.9-3.97-5.84-5.95-.69.7-1.38,1.4-2.07,2.1,2.08,1.86,4.17,3.72,6.25,5.57.56-.57,1.11-1.15,1.67-1.72Z" fill="#fb97aa"/>
  <path d="M301.93,100.41c4.22,2.03,8.44,4.07,13.48,6.49-1.35-5.57-5-7.25-13.48-6.49Z" fill="#fb97aa"/>
  <path d="M265.86,144.43c.34-.33.68-.65,1.01-.98-1.08-1.78-2.04-3.66-3.31-5.28-.37-.47-1.66-.21-2.53-.29.02.88-.33,2.11.12,2.58,1.41,1.48,3.12,2.67,4.71,3.97Z" fill="#fb97aa"/>
  <path d="M273.68,306.77c.08,0,.17.08.17.08.09-.08.09-.25.09-.34h-.17c0,.17-.08.17-.08.26Z" fill="#fb97aa"/>
  <path d="M268.49,299.88c0,.09.42.59.51.59,0-.17-.09-.17-.09-.25-.25,0-.25-.25-.42-.34Z" fill="#fb97aa"/>
  <path d="M273.51,307.2s.08.08.08.17v.09h-.08v.17c0,.09,0,.17-.09.17-.17,0-.08-.17-.17-.17-.17.17-.17.51-.25.68h.25c0-.08.26-.51.26-.51,0,.17-.09.17-.09.25,0,0,.09.09.09.17.17,0,.25-.43.25-.6,0-.08.09-.25.09-.34-.09,0-.17-.17-.26-.17l-.08.08Z" fill="#fb97aa"/>
  <path d="M271.38,302.6c-.17,0-.51-.43-.51-.6-.43-.25-.77-1.11-1.02-1.45-.08-.17-.34-.34-.34-.59-.26-.09-.34-.34-.51-.51-.34-.43-.68-.68-1.02-1.11-.08,0-.17,0-.17.09h.09c0,.17.17.25.25.34v.17c0,.42,1.11,1.02,1.19,1.28.77,1.62.6.85.94,1.45.34.6.43,1.53.85,2.05v.08c0,.26.42.77.51.77.08-.34.08-.6.08-.85,0-.17,0-.43-.08-.6,0-.17-.09-.51-.26-.51Z" fill="#fb97aa"/>
  <path d="M269.42,301.24c.08.17.25.34.25.51.09,0,.17.17.17.17v-.08s-.34-.43-.34-.6h-.08Z" fill="#fb97aa"/>
  <path d="M269.34,301.07c-.09-.26-.09-.43-.26-.51l.26.51Z" fill="#fb97aa"/>
  <path d="M273.25,306.52v-.08c.17,0,.17-.42.17-.94,0-.43-.08-.94-.17-.94h-.08v.34c0-.08-.09-.26-.17-.26v.51c0,.09.08.17.08.17.09-.08,0-.26.09-.34,0,.17-.26,1.45-.26,1.87,0,.09,0,.17.09.17.08-.09.25-.34.25-.51Z" fill="#fb97aa"/>
  <path d="M271.81,301.07c0-.43-.6-.68-.77-.94.09.77.68,1.02.85,1.62,0,.09.17.17.17.25l-.09.09c.17,0,.51.6.51.68,0,.17,0,.85.17,1.02v-.6c0-.85-.59-1.53-.85-2.04v-.08Z" fill="#fb97aa"/>
</svg>