<?xml version="1.0" encoding="UTF-8"?>
<svg id="Layer_1" data-name="Layer 1" xmlns="http://www.w3.org/2000/svg" viewBox="0 0 400 400">
  <path d="M270.12,341.91c-.17-.09-.09.17-.17.17,0-.34,0-.43-.08-.77-.08,0-.17.08-.17.08,0-.26.34-1.02.17-1.19-.08-.08-.08-1.28-.08-1.28v-1.02c0-.17-.08-.43-.08-.51l.09-.09c0-.68-.17-1.78-.17-2.12v-.17s-.08,0-.08-.08.08,0,.08-.17c-.08,0-.08-.59-.08-1.28s-.08-1.36-.08-1.61c-.17-.09-.51,0-.51,0,0,.25.09.25.17.43,0,.17.09.25.08.51,0,.09-.09.26-.09.43,0,0-.08,0,.09.43-.09,0-.17.09-.26.09,0,.08-.08.25,0,.25.09-.17,0-.17.17-.25q0,.17.09.25c-.17.09,0,.34-.09.51,0,.08.09,0,.09.08-.09.08,0,.26,0,.34-.26.17-.09.42-.09.68l.17.25c-.08.09-.08.17-.08.26v.34c0,.08-.17.26,0,.51,0,.09-.09,0-.09.17.09,0,.17.43.17.51-.08,0,.09.42-.08.34,0,.17.17.17.17.34-.26-.08-.17.34,0,.43,0,.34.08.42.08.6.17.51-.09,1.02,0,1.44,0,.09-.17.09-.17.25.09.34.08,2.13.42,2.13.17-.26.43.08.51,0,0-.17-.08-.34-.17-.51.26-.09,0-.51.09-.77ZM269.37,337.74c0-.08.08-.17.08-.25.09,0,.09.34-.08.25ZM269.95,342.93c-.09,0-.09-.25-.09-.25.17,0,.09.17.09.25Z" fill="#fb97aa"/>
  <path d="M270.23,333.57v-.34s-.08.09-.08,0c0-.17-.09-.34-.17-.43,0,.17.08.43.08.6,0,0,.09,0,.09.08s-.09.08-.09.17c.09,0,.09-.09.17-.09Z" fill="#fb97aa"/>
  <path d="M267.74,339.78c0-.09.09-.26,0-.26-.08.26-.51-.08-.51.25.26,0,.17,0,.17.17.09,0,.09.09.17.09.09-.09-.17-.34.17-.25Z" fill="#fb97aa"/>
  <rect x="268.21" y="340.59" width=".17" height=".08" transform="translate(-73.34 607.64) rotate(-89.78)" fill="#fb97aa"/>
  <path d="M264.94,338.15c-.08,0-.34-.17-.42-.09.17,0,0,.77,0,.85,0,.34.25.09.42.17v-.42c0-.17-.17-.17-.17-.34,0-.08.17,0,.17-.17Z" fill="#fb97aa"/>
  <path d="M268.03,332.89h-.17s-.09.26.17.26v-.26Z" fill="#fb97aa"/>
  <path d="M268.69,337.99h-.17s0,.08,0,.08c0,.26-.25.34-.34.26-.25.17.25.77-.34.68,0,.17,0,.43.08.51.17,0,.17-.17.17-.26.34.09,0-.51.26-.59.09.08.17.17.26.34,0,.08,0,.25.08.34.09-.09-.08-.34.09-.43,0,.09.17.09.17,0,0,0-.08,0-.17-.17.09,0,.17,0,.17-.08-.08-.09-.26.17-.26,0v-.09c.17-.17-.08-.34,0-.6Z" fill="#fb97aa"/>
  <path d="M269.02,340.8c.08-.09,0-.25-.09-.25q0,.17.09.25Z" fill="#fb97aa"/>
  <path d="M267.42,336.2c0-.17-.08-.25-.25-.25,0,.17.08.34,0,.43.17.08.17-.09.25-.17Z" fill="#fb97aa"/>
  <path d="M267.57,341.73c.09-.08.34.08.34-.08-.17.08-.17-.09-.34-.17-.08.09,0,.17,0,.26Z" fill="#fb97aa"/>
  <path d="M268.35,336.46c-.08.26,0,.34,0,.68-.08.08-.25.17-.25.25.08.09.08,0,.17-.09.08,0,.08.09.25.09.26-.25-.08-.77,0-.94h-.17Z" fill="#fb97aa"/>
  <path d="M265.37,337.81c.09-.17.26-.09.34-.17-.08-.08-.08-.43-.25-.43v.34c-.17,0-.26.17-.34.16v.26s.26,0,.26,0c.09-.08-.34-.17-.17-.26,0,.09.09.09.17.09Z" fill="#fb97aa"/>
  <path d="M265.2,339.59c.17,0,.26-.08.26-.34.08,0,.08-.09.08-.17-.17,0-.08-.26-.25-.26,0,.09-.17.09-.17.17.09.08,0,.17.09.25q-.09,0-.09.09c.09.09,0,.17.09.25Z" fill="#fb97aa"/>
  <path d="M265.7,339.51v.26c-.08,0-.08.17,0,.17,0-.08.26-.42,0-.42Z" fill="#fb97aa"/>
  <path d="M264.69,337.89v-.51s0-.17,0-.17q0-.08-.09-.08c-.08.34-.17.59.08.77Z" fill="#fb97aa"/>
  <path d="M266.76,331.95c0,.08-.09.34.08.26,0-.09.09-.34-.08-.26Z" fill="#fb97aa"/>
  <path d="M265.72,336.79c-.08.08.17.08.17,0h-.17Z" fill="#fb97aa"/>
  <path d="M264.53,312.81c.09-.08.17-.76.09-.85,0,.17-.09.85-.09.85Z" fill="#fb97aa"/>
  <path d="M266.67,332.63c.17,0,.17-.26.17-.34h-.17s0,.34,0,.34Z" fill="#fb97aa"/>
  <path d="M265.88,337.47s0-.34-.08-.34c-.09.08,0,.34.08.34Z" fill="#fb97aa"/>
  <path d="M268.6,339.69c-.09,0-.17,0-.17.09s.25,0,.34.17c.09-.08.09-.17.09-.34-.09,0-.09-.08-.17-.08,0,.08-.08.08-.08.17Z" fill="#fb97aa"/>
  <path d="M267.61,307.55c-.09,0,0,.26,0,.26,0-.09.08-.17.08-.26h-.08Z" fill="#fb97aa"/>
  <rect x="267.19" y="316.94" width=".08" height=".17" transform="translate(-50.79 583.07) rotate(-89.78)" fill="#fb97aa"/>
  <path d="M267.78,308.91h.17c0-.09-.25-.43-.25-.43.09.26,0,.17-.17.17,0,.17.34.08.34.17-.08,0-.17.09-.08.09Z" fill="#fb97aa"/>
  <path d="M267.07,315.2c0,.09,0,.26.08.26,0,0,.17-.17-.08-.26Z" fill="#fb97aa"/>
  <path d="M267.33,314.35c0,.08-.08.08-.08.08.08,0,.17,0,.17-.08h-.09Z" fill="#fb97aa"/>
  <path d="M267.69,307.89c.09.17-.08.25.09.42.08-.08.08-.26.17-.34-.09,0-.09-.08-.26-.08Z" fill="#fb97aa"/>
  <path d="M292.66,294.8c0,.17-.17.25-.17.34.43,0,.6-.25,1.02-.17,0-.25-.68-.26-.85-.17Z" fill="#fb97aa"/>
  <path d="M271.36,305.09c.08.26.08.77.17.77-.09-.17,0-.25,0-.43,0,0-.09-.34-.17-.34Z" fill="#fb97aa"/>
  <path d="M271.45,304.67c0,.09-.08.17-.08.34.17.08.17-.34.08-.34Z" fill="#fb97aa"/>
  <path d="M271.52,309.69l-.09-.17c-.08.17.09.17.09.17Z" fill="#fb97aa"/>
  <path d="M269.9,331.79c0,.25,0,.94.17.85.26-.17,0-.51,0-.85h-.17Z" fill="#fb97aa"/>
  <path d="M267.34,312.56c-.08.09-.17.09-.25.17,0,.08.08.08.17.08,0-.08.17-.26.08-.26Z" fill="#fb97aa"/>
  <path d="M270.46,341.23c.17-.51,0-1.02,0-1.36,0,0-.08-.6-.08-.77,0-.08.09-.08.09-.08.09-.6-.17-1.11-.16-1.62-.08-.94-.16-1.78-.08-2.64,0-.17-.17-.25-.08-.34,0-.17.25.17.17-.09.08-.25.08-.51-.17-.59,0,.08-.09,0-.09.08v1.19s-.1,2.64-.1,2.72c.08.34.25.6.25,1.19,0,.09,0,.17.09.25-.17.09-.09.68,0,.77-.17.09,0,.51.08.6-.25.17,0,.68.08.68Z" fill="#fb97aa"/>
  <path d="M270.46,341.66s-.09-.34-.17-.34c0,.34.08.42.17.68-.26.17,0,.43,0,.51-.09,0,0,.68,0,.68h.26c.25-.34-.25-1.11-.25-1.28v-.25Z" fill="#fb97aa"/>
  <path d="M270.12,341.48h-.17s0,.26,0,.26c.17,0,.08-.17.17-.26Z" fill="#fb97aa"/>
  <path d="M268.26,316.48c0,.17.09.17.09.25,0-.25.25-.43,0-.51-.09.08-.09.17-.09.26Z" fill="#fb97aa"/>
  <path d="M270.64,315.13c0-.17-.08-.17-.08-.26h.34c.17-.17-.08-.51.09-.76-.09,0-.17,0-.17-.08.17-.09.08-.09,0-.17.17-.09-.25-1.71-.25-1.71-.26.43.17,1.03-.17,1.28v-.17c-.09,0-.26,0-.26.08.17,0,.59.34.26.34-.09,0-.09-.17-.26-.08,0,.08,0,.34.17.34.09.17.09-.17.17-.08,0,.17-.08.34-.17.34,0-.17-.17-.09-.17-.26l-.25-.08v-.17c.25-.25-.17-.42-.17-.77-.08-.08-.17,0-.17-.08v-.34c.09,0,.17,0,.17-.08-.08,0,0-1.11,0-1.28,0-.09.09-.09.09-.17-.17-.08-.26-.34-.25-.68,0-.42.17-1.02.18-1.44,0-.17-.17-.34-.25-.43-.09.09-.09.26-.17.26,0-.09-.17-.17-.26-.17,0,.34-.17.51-.17.85-.09,0-.09-.09-.09-.09-.08.26.08.51,0,.68,0,0-.25-.08-.25,0q.17,0,.17.17c-.09,0-.09-.09-.17-.09,0,.09,0,.17-.09.17.17-.51-.08-1.02.09-1.27,0-.09,0-.25-.09-.25,0,.08-.17.08-.17,0,0-.17,0-.51-.08-.6-.17.34.08.6,0,.94,0,0-.17,0-.17.08s-.09.43-.26.34c.08-.17.17-.34-.09-.34q0,.17-.17.26c.26.34-.43,1.1-.34.09.09,0,.09.08.09.08v-.26c.25,0-.09-.17-.08-.25.09-.17,0-.34,0-.6.09,0,.09.09.17.09,0-.09,0-.17.09-.17.08-.34-.09-.34-.08-.51.17.09.09-.17.17-.17,0-.17-.08-.26-.08-.43.17,0,.08-.08.17,0,0,0-.25-.51-.09-.42l.09.08c.08-.08-.17-.17.08-.17.09.17.08.59.25.51-.08-.68.26-1.19.18-1.87,0-.08-.17-.26-.08-.34-.09,0-.17,0-.17-.08-.17,0-.25,0-.34.08-.42-.34-1.7-.26-1.95-.26l-1.02-.26c-.08.25,0,.25,0,.51-.17-.17-.08.08-.08.08.08.17,0-.08.17,0v.17s-.17,0-.17,0v.17c0,.09.08,0,.08.09.09.25,0,.51,0,.77,0,.17.17.43.08.77-.09.34-.26,1.02-.17,1.27,0,.08.08,0,.08.08s.08.68,0,.77c.09,0,.26,0,.26.09,0,.17-.26.17-.26.43.26.09.17-.34.34-.34v.43c-.08,0-.08-.09-.08,0,.25.08,0,.68,0,.68.08.09,0,.34-.09.34,0,0,.09-.25,0-.09-.08.09,0,.09,0,.17,0,0-.08,0-.08.08,0,.17.08.17.08.34-.08.08,0,.34,0,.59.09.09.17.09.26.17,0,.17.08.43.17.51,0,0-.09-.17,0-.17v.17s-.09,0-.09.09c.09.09-.08.09-.08.17,0,0,.25,1.11.42,1.02,0-.17,0-.26.08-.34,0,.08.17.17.17.25.09,0,.17.09.17.09,0,.08-.08,0-.17,0-.08.08,0,.17-.08.17,0-.17-.17,0-.26,0,0,.26,0,.51.08.76.08,0,.08-.08.17-.08,0,.26-.17.34-.17.51.08,0,0,.68-.09.77-.09-.08-.09,0-.17.09.08.09.17,0,.17.09,0,.25-.09.17-.17.17-.26,0,0,0-.17.09l-.09.09c.17,0,.17.08.26.08,0-.08,0-.17.08-.17,0,.09-.08.09-.08.25.26,0,0,.6.25.68.08-.17-.08-.51.17-.6,0,.09.08.09.08.17-.08.08.08.51-.08.51-.09,0-.17.09-.09.09,0,0,.09-.09.09,0,.08.26-.26.09-.17.34,0,.09.25.34,0,.43,0,.09.08.17.08.34h-.08c.08.26-.09.26-.09.34l.09.09s-.17.34,0,.34v.85c.34,0,.51-.17.59-.42,0-.09,0-.17.09-.25v.25c.26-.09.43,0,.6-.17.08-.08.25.08.25,0,0-.17-.08-.26-.08-.43.17,0,.08-.08.17,0q.09-.08.09-.17l.08-.09v-.85c0,.08-.25-.17-.25-.17,0-.09.17-.17.17-.34,0-.09.25.09.17-.09,0-.17-.17.17-.17,0v-.17c-.17,0-.09-.17-.17-.26,0,0,.09,0,.09-.08,0,0,.26-.08.09-.17-.09-.34,0-.43,0-.77-.09,0-.17.09-.26-.09.08-.08,0-.25,0-.34s.08-.17.08-.25c.09-.26,0-.43,0-.6,0,.09-.17.09-.17.26-.08.08-.17-.17-.08-.17s.08-.17.08-.25-.25,0-.17-.17c0,0,.09.09.17.09s0-.09,0-.09c.17-.08.09.09.17.09v.25c.09-.17.17-.42,0-.51.09,0,.09-.09.09-.17-.17-.08,0,.17-.17.09,0,0-.09-.09,0-.26l-.17-.34c.17-.08.08-.34.34-.34,0-.26,0-.43.09-.51,0-.17-.17-.09-.17-.17s.09-.59.18-.59c0,.08.17,0,.17.08s-.34.26-.17.34c.08-.09.08-.34.25-.34,0,.08,0,.17.09.17,0-.09.08-.25.17-.25v.34s-.17,0-.17,0c.08.25-.09.25,0,.59l-.17.17c.08.09.08.59.25.68,0-.09-.08-.17,0-.17,0,.08.17.17.17.26-.17,0-.17-.09-.25,0,0,.17.08.08.17.17-.09.17,0,.42,0,.6,0,.08-.09.17-.09.25.17,0,.17.6,0,.51,0,0,.09-.26,0-.26,0,.08-.08.17-.08.34.08,0,.17-.08.17,0s-.09.17-.17.17c.08.17,0,.34,0,.43v.51c-.09,0-.26.08-.09.17,0,0,.09-.09.09,0v.51s-.17.17-.09.25c.09-.17.09.17,0,.17.09,0,.26.08.26.17-.09,0-.09-.08-.17-.08.08.08,0,.42.08.51-.08,0-.17.09-.17.17,0,.26.17.43.17.77.09.08.17,0,.34,0,0-.08.09-.08.09-.17.17-.34.09-1.1.43-1.19v-.51c.08,0,.25.08.25.17s.09.26,0,.6c0,.08-.34.17-.17.26,0-.09.17-.17.17-.09-.08.17.08.51.17.6,0-.08.09-.08.17-.08,0-.34-.17-1.02.09-.94,0-.08.26-.08.17-.25.09,0,.09.17.17.17q-.08.17-.08.34c-.17-.08.08-.26-.26-.26v.26c.09,0,.09.08.09.08,0,0,.08-.08.08,0-.08,0,0,0,0,.09q.09,0,.09.09c-.09.59.68.17,1.02.26.09,0,0-.17.09-.17s.08-.08.08,0c-.08,0,0,0,0,.09h.34s-.26-.26,0-.26c0-.09-.09,0-.09-.09,0-.17.43-1.19.09-1.27,0,0-.09.08-.09,0,.09-.34-.09-.43,0-.6,0,0,.09,0,.09-.08-.17.08-.09-.17-.17-.17,0,.09-.25,0-.25,0v-.85s.26,0,.26,0l-.08.09s-.09.43,0,.43c0-.09.08-.17.17-.17,0,.09.09.26.17.34v-.43c.09,0,.17-.17.17-.34-.17.08-.34-.17-.43,0ZM266.33,308.39c-.34.09-.09-.17-.09-.17.17,0,0,0,.09.17ZM266.16,308.48c.26,0,0,.17,0,.17-.08,0,0-.09,0-.17ZM266.23,313.58c.17,0,0,.34,0,.34-.17-.17,0-.26,0-.34ZM266.25,307.88c-.17-.09,0-.26-.09-.43.17.08.17.34.09.43ZM265.99,307.88c.09,0,.17.17.09.17,0,.09.08.09.08.26,0-.08-.25-.08-.17,0h.09c0,.08-.17.26-.17.34-.09,0,0-.68.09-.77ZM266.21,319.19c-.09.08-.17.08-.17.26-.09.09-.09-.43-.09-.43-.08-.25-.08-.85,0-.94h.09c0,.08.08.08.08.17-.08.26.08.6.08.77.09,0,.09.09.09.17q-.09.08-.09,0ZM266.31,315.62c-.09,0,0-.25.08-.25.09.17-.08.17-.08.25ZM266.48,315.19c-.09,0-.09-.08-.26-.08,0-.08.09-.08.17-.08,0-.09.09-.09.09-.17.08.09.08.17,0,.34ZM266.31,314.85c-.17-.09,0-.25,0-.43.17-.08.17.17.17.26-.09,0-.17.08-.17.17ZM266.92,310.61c-.08,0-.08-.26.09-.17,0,.09-.09,0-.09.17ZM267.26,310.86c-.09.08-.17.17-.17.25-.09,0,0-.17,0-.17,0-.17.08-.26.08-.42,0-.09-.08-.17,0-.26-.17-.25.09-.08.17-.08-.08.08-.09.68-.09.68ZM267.59,313.5c-.09,0,0-.17,0-.17.17,0-.09.09,0,.17ZM269.31,308.91c0,.09-.34-.09-.26-.25.17,0,.17.25.26.25ZM268.62,310.78s.17.09.17.17c-.08,0-.17,0-.17.08-.08,0,.09-.17,0-.25ZM268.28,310.69c.09,0,0-.08.09-.17.17.17-.09.17-.09.34-.08,0-.08-.17-.08-.26,0,0,0,.08.08.08ZM267.76,312.65h.17c-.26,0,0-.51.09-.59-.09-.17,0-.26,0-.51.34.25-.09,1.02-.09,1.1v.17s-.17,0-.17,0v-.17ZM267.93,313.67q0,.17-.17.17c0,.08.08.08.08.17-.17,0-.17-.43.09-.34ZM269.29,315.04c0,.08-.09.08-.09.08,0,.17.09.26,0,.34,0,.08.09.17.09.17,0,.17-.26.51-.26.59-.09.6-.17,1.1-.17,1.27l-.09.17c-.08-.09,0-.09,0-.17.09.09.09,0,.09-.93,0-.08-.17.08-.17-.17-.26.09-.17.43-.34.85-.17-.09-.17.08-.17.25-.43-.17.17-1.1-.08-1.36,0-.09.09-.09.17-.09,0-.09-.17-.09-.25-.09.09-1.02,0-1.11,0-1.11-.17-.17,0-.17,0-.34,0-.09-.26.09-.26-.09.08.09.17-.08.26-.08-.09-.26.17-.34,0-.51.08-.09.17-.51-.08-.51q.09-.08.26-.08c-.09-.34,0-.68,0-.85l.08-.09v-.26c-.08-.08,0-.26-.08-.34.08,0,.08-.08.08-.17.17.09,0,.34,0,.51.09,0,0,.08.09.08l.26-.84c.09,0,.09.08.09,0,.26.25.08.68.17,1.19,0,.08.17.08.26.17.08,0,.08-.09.08-.17,0,.08.09.26-.17.26-.08.17,0,.08,0,.25-.08,0-.08.09-.17.09,0,.17,0,.34-.09.43-.42,0-.08-.85-.17-.94-.08,0-.51,1.1-.17,1.19-.08.09-.08.26-.08.43.08,0,.25-.34.25-.34.09,0,0,.17,0,.25v1.11c.17.09.17-.08.25,0,0-.08,0-.25.09-.25,0-.09-.17-.09-.26-.09,0-.09.08-.17.08-.25.09,0,.09.25.26.25q0-.09-.08-.09c.17-.25.08.26.17.34.17,0,0-.26.17-.17,0,.09-.09.09,0,.09ZM269.29,313.25c-.09,0-.09-.34-.09-.43.26,0,0,.26.09.43ZM269.29,312.57c-.09,0,0-.17-.09-.17v-.17c.09,0,0,.09.17.09,0,.09-.08.09-.08.25ZM270.21,318.18c-.09,0-.09.09-.17.09.08-.09.08-.17.08-.34.09,0,.17.17.26.17q-.09.08-.17.08ZM270.46,317.51v.34c-.08.09-.17-.17-.17-.17,0-.09.09-.17.17-.17ZM270.39,314.7c-.09.43-.17.85-.17,1.36-.17,0-.17-.34-.09-.43,0,0-.17.17-.34,0v-.17s.09,0,.09,0c0-.08-.09-.17,0-.26.17,0,.17.26.34.17,0-.09-.09-.09-.09-.09-.17-.09-.08-.17-.08-.25-.09-.17.17-.34.09-.6.09-.08.09-.25.26-.17-.17.17,0,.25-.17.34,0,.08.17.08.17.08Z" fill="#fb97aa"/>
  <path d="M268.29,307.72c0-.08.17-.34,0-.25,0,.17,0,.43-.09.59.17.09.08-.25.08-.34Z" fill="#fb97aa"/>
  <path d="M268.69,315.72h.08c0-.09.09,0,.09-.09h-.17s0,.09,0,.09Z" fill="#fb97aa"/>
  <path d="M268.78,312.99v.09c.09.09.09-.09,0-.09Z" fill="#fb97aa"/>
  <path d="M269.31,308.06c.08-.17.34-.51.26-.76,0-.08-.08-.08-.08-.17,0-.26.17-.51-.08-.6-.08,0,.09.26,0,.43-.34-.25-.25.34-.17.43.26.17-.17.6.08.68Z" fill="#fb97aa"/>
  <path d="M168.48,294.93c0,.09-.08,0-.08,0,0,0-.09.09-.09,0s-.17-.17-.17-.25c.09-.09.09-.26.09-.34-.09,0-.17-.09-.09-.17-.08-.17-.25-.34-.34-.51-.09-.17.17-.17,0-.34-.17,0-.26.08-.34.17.08,0,.17.17.08.17,0,.08.09.17.09.34,0,.08-.09.08-.09.25.09.25,0,.34,0,.51,0,.08-.08.08-.08.17,0,.26.08.6.08.85,0,.09-.08,0-.08.09v.34s.17.08.17.08c0,.09-.09.09-.09.17s.09.09.09.09c.08.17,0,.25,0,.34v.34c0,.34-.26.59-.09.77.17.09.17-.09.17-.17v-.77c0-.17,0-.26.09-.34-.17-.08,0-.17-.09-.34.09,0,.09-.09.09-.17.26-.09.17-.43.43-.59.17,0,.17-.08.34-.08.08-.09-.09-.17,0-.17h.34c0-.17-.34-.34-.42-.43Z" fill="#fb97aa"/>
  <path d="M167.6,304.02h-.09c0-.09.09-.17.09-.17,0-.08-.09,0-.09,0v-.08c0-.09-.08-.09,0-.17-.08-.09-.08-.17-.17-.25.09-.09.09-.17.09-.26,0-.26-.08-.6-.08-.94v-.25c0-.09-.08-.26-.08-.34s.08-.08.08-.08c0-.09-.08-.17-.08-.26,0-.43-.08-.94-.08-1.28v-.34c-.08-.09,0-.26-.17-.26-.08-.08-.08.08-.08.17,0,0-.09,0-.09.09,0,0,.17.08,0,.08v-.08s0-.85,0-.85c0-.09-.09-.09,0-.17v-.08c0-.26,0-.43-.08-.68v-.34s.17,0,.17,0c0-.08.08-.08.08-.17-.08,0,0-.09-.08-.09,0-.09-.09-.09-.09,0-.09,0-.26,0-.26-.09,0-.34,0-.59-.08-.76,0-.09-.09-.26-.09-.34v-.25c0-.09-.08-.09-.08-.17s-.09-.17-.09-.26v-.25c-.17-.43.09-.68-.08-1.02.08-.34-.26-.08-.26-.08-.09.25,0,.51,0,.77,0,.08-.09.17-.09.25v1.53c0,.09-.09.09,0,.09l-.08.17.08.26c0,.08-.08.17-.08.26v.85s-.17,0-.17,0c0,.17.17,0,.17.17v.43c0,.09-.09,0-.09.09-.08.17-.08.34,0,.51-.08,0,0,.08,0,.08,0,.09-.08,0-.08.09s-.09.17-.09.25l.09.09v.09s-.09,0-.09,0c0,.17.09.17,0,.25v1.7c0,.08.08,0,.08,0l-.09.08v.34c0,.17.08.34.08.43s-.09.17-.09.26c0,.17.09.17,0,.25l.09.09v.34c0,.17-.09.25-.09.25v.09c0,.09.09.17,0,.17v.34c0,.08-.08,0,0,.08l-.08.08v.68c0,.26,0,.94-.09,1.03v.08s-.08.08-.08.08c0,.09.08.09.08.17,0,0-.08,0-.08.08s-.09.08-.09.08c0,.09.09.17.09.26s-.09.09-.09.17.09.17.09.17v.17c0,.17.08.26.08.34v.43c0,.09-.08.09-.09.17s.08.17.08.25-.08.26-.08.34c0,.26,0,.51.08.68v.17c-.08.09.09.17,0,.25v.09c0,.17-.09.51.17.68l.26-.43c.17,0,.17-.08.26-.08,0-.42-.08-1.02,0-1.53.08,0,.25-.09.25-.09,0-.17-.17-.17-.17-.34.17,0,.09-.17.26-.17,0-.34.09-.68,0-.93,0-.09-.17-.09-.17-.17q0-.25-.09-.43l.09-.08-.09-.08c0-.17.09-.34.09-.51.17.09.17,0,.25-.09-.08-.25.17-.42,0-.51l.09-.09c0-.17-.09-.26-.09-.34v-.09s.09-.09.09-.09v-.34s.08,0,.08-.08-.08-.08-.08-.17c.17-.17.08-.26.08-.34,0-.17.09-.17,0-.26h.09c0-.17-.09-.26,0-.34v-.08c0-.17-.09-.08-.09-.17-.08-.17.09-.17,0-.25h.09c0-.09-.09-.26-.09-.34v-.08q0-.09.09-.17v-.08c0-.17-.09-.26,0-.34-.09,0-.09-.17-.09-.26-.08,0-.08-.17-.08-.09-.09,0-.17,0-.17-.08s.08,0,.08-.08c0,0-.17-.26,0-.26.09.08,0,.26.17.34,0-.08.09-.26.17-.26v-.25s0-.17,0-.17c0-.08-.08-.17,0-.17.09.08.09.17.09.25l-.09.09c0,.09.09,0,.09.09,0,.17.09.34.09.42v.26c0,.17.17.34.17.43v.08c0,.08.08.08.08.17s-.08.09-.08.17h.08c.09.17,0,.26,0,.34,0,.34.08.51-.09.68.08,0,.08.09.08.17v.17s-.08,0-.08,0v.34c0,.17.08.26-.09.34,0,.17.17.17.17.34-.08,0-.08.17-.08.17l-.09.08c0,.08.09.08.09.17,0,.26-.09.51,0,.85.17,0,.08-.09.08-.17h.09s0-.08,0-.08l.08-.08v-.17c0-.25,0-.68.09-.93.08,0,.08.08.17.17.08,0,0-.17.08-.08,0-.08.09-.34.09-.42s-.17-.09-.17-.17v-.34Z" fill="#fb97aa"/>
  <path d="M120.83,324.68c-.25-.6-.85-1.62-1.1-1.96-.17-.26-.59-1.02-.93-1.03-.17,0-.34-.43-.51-.43s-.25-.26-.25-.26h-.09c-.26-.17-.85-.85-1.1-.85s-.59-.34-.76-.43c-1.02-.35-2.38,0-3.23-.52-.42.17-1.53.08-1.78.16-.17,0-.34.08-.51.08-.51,0-.93-.17-1.36-.17-.17,0-.26.08-.43.08-.51.08-1.02.08-1.53.08-.6,0-1.27,0-1.78.17-.43.09-.85.17-1.28.33-.43.09-.85.25-1.11.34-.17,0-.25.25-.34.25v1.19c0,.77.08,1.53.07,2.21,0,.77.08,1.7.07,2.3v.77c0,.68.08,1.28.08,1.87v.85c0,.34,0,.59-.09.93-.08.26-.08.42-.09.68,0,.34-.09.93-.09,1.36,0,.09.08.51.08.77v.59c0,.51.24,1.62.24,2.21,0,.17,0,.26-.08.34v.08c0,.85.08,1.79.16,2.55.08.6.08,1.11.08,1.11,0,.51-.09,1.11-.09,1.79s.08,1.28.25,1.62v.34s.08.51.08,1.28h.51c.17,0,.26-.16.34-.16h.08c.17,0,.34-.26.51-.34h.17c.25,0,.51-.08.59-.08,0-.26.34-.34.68-.34s.77.09.93.09c.42-.08,1.02-.34,1.28-.42.6-.17,1.11-.42,1.53-.5.94-.08,1.36-.85,1.96-.84.34,0,.85-.59,1.11-.67l.68-.34c.34-.17.85-.59,1.11-.76l1.28-1.01c.43-.34.77-.68,1.11-1.02.51-.42.69-.93,1.11-1.44.34-.5.6-1.02.94-1.53.34-.5.43-1.1.77-1.69.17-.34.35-.85.43-1.1.09-.43.09-.68.17-1.02.26-1.02.52-1.61.77-2.46.09-.17,0-.34.09-.43,0-.25.08-.42.09-.68,0-.85-.25-1.78-.42-2.38-.08-.51-.25-1.19-.42-1.53Z" fill="#fb97aa"/>
  <path d="M168.32,293.91s.09,0,.09.09c.08.08,0,.17.08.25.17-.09.17,0,.34.09-.09-.34,0-.43-.08-.68-.17,0-.09-.17-.26-.17-.08,0,0,.09-.08.09,0-.17-.26-.26-.34-.17,0,.17.08.09.08.17,0,.25.09.25.17.34Z" fill="#fb97aa"/>
  <path d="M169.08,294.25v.17s.17,0,.17,0c0-.08,0-.26-.17-.17Z" fill="#fb97aa"/>
  <path d="M167.16,308.87c0-.09-.08-.17-.08-.25s.08,0,.08,0l-.08-.26v-.85c0-.09.09-.09.09-.26v-.6s-.17,0-.17,0v.17c-.08.08,0,.34-.17.34.25.85-.09,1.45.08,2.38-.09.17-.26.17-.17.43,0,.09.09,0,.17.09,0,0,.25.17.42,0,0-.34,0-.6-.08-.94,0-.08-.09-.17-.09-.26Z" fill="#fb97aa"/>
  <path d="M249.09,323.38c.26,0,.34-.16.51-.25-.26,0-.43.09-.51.25Z" fill="#fb97aa"/>
  <path d="M205.11,303.49c.17-.76,0-1.7-.16-2.3-.08-.51-.17-.6-.34-.94-.25-.43-.59-.94-.85-1.11-.08-.08-.34,0-.51-.08v-.08s-.17,0-.17,0v-.09s-.17,0-.17,0c-.34-.09-.77-.09-1.11-.17-1.02-.26-2.38-.94-3.48-1.04-.08,0-.08-.08-.08-.08-.51-.08-.93-.09-1.36-.09-.6-.09-1.45-.18-2.13-.18-.26,0-.43,0-.6.08-.77.17-1.44-.18-2.04.08.16,2.29.58,4.17.57,6.46v1.27c-.09.68-.44,1.62-.44,2.3,0,.09.09.09.09.25,0,.09-.09.09-.09.09,0,.09.09.25.09.25,0,.51-.17.94-.18,1.45v1.61c0,.6-.09.6-.09.6,0,1.02.08,1.02.08,1.02,0,.09-.09.09-.09.09,0,.08.09.08.09.08.08.94,0,1.7.07,2.55.08,1.02.16,1.87.25,2.89,0,.09.17.09.17.09.08,1.02.08,1.95.08,2.98,0,1.19,0,2.46-.1,3.65,0,.09-.17.09-.17.09,0,.08.17.08.17.08-.09,1.02-.26,2.13-.27,2.89v2.72c-.1.59.07,1.27.07,1.7.08,1.87.24,3.92.32,5.7,0,.17.09.25.09.43,0,.08-.09.08-.09.08,0,.08.09.17.09.26v2.12c-.01.6.07,1.28.07,1.87,0,.94-.09,1.79-.09,2.72,0,.51.08,1.11.08,1.44,0,.6-.09,1.36-.09,2.13.25.08.42-.08.59-.17.17-.09.43-.17.6-.25,0-.08-.08-.26,0-.34,0-.08.17,0,.26-.08.77-.76,1.96-1.01,2.81-1.61.26-.17.51-.34.6-.42.43-.25.94-.42,1.36-.76.08,0,0-.25.08-.25.17-.09.34-.17.43-.25.25-.42.6-.68.85-1.02.09-.08,0-.17,0-.25s.26-.17.34-.17v-.26c.09-.17.26-.17.34-.25.08-.09,0-.17.08-.26.17-.26.43-.42.51-.59.09-.25.09-.43.18-.59,0-.09.25-.17.25-.26.09-.08,0-.17.09-.25,0-.09.17-.09.17-.17.17-.43.34-.93.6-1.27.17-.17.34-.42.34-.59v-.17c0-.09.26-.17.26-.26.17-.42,0-1.19.09-1.79,0-.17.17-.34.17-.42.26-.68.43-1.36.35-1.95-.08-.85-.08-1.53-.16-2.21v-1.87c0-.68.01-1.36-.07-2.04,0-.34-.08-.77-.08-1.11s.09-.68.09-1.02c0-.85-.25-2.04,0-2.64,0-.09-.09-.17-.09-.17,0-.25.09-.34.09-.59,0-.09-.09-.09-.09-.09,0-.94.09-2.04.18-3.06.09-1.53.27-3.06.36-4.42,0-.09.09-.17.09-.17v-.85c.09-.6.44-1.53.44-2.21,0-.08.08-.08.08-.08,0-.34-.08-1.11-.08-1.53,0-.09.08-.17.08-.26,0-.17-.08-.43-.08-.6,0-.43.17-.76.17-1.02.09-.94.09-1.7.09-2.55,0-.17-.08-.26-.08-.42.17-.6,0-1.37,0-2.04h.08s-.08-.17-.08-.25Z" fill="#fb97aa"/>
  <rect x="169.12" y="295.31" width=".17" height=".26" transform="translate(-126.87 463.54) rotate(-89.78)" fill="#fb97aa"/>
  <path d="M169.16,295.87c.08,0,.17,0,.17-.17,0-.08-.09-.08-.17-.08v.26Z" fill="#fb97aa"/>
  <path d="M111.64,349.48l-.08-.08v.08c.17,0,.08.09.25.09,0-.09-.08-.09-.08-.09h-.09Z" fill="#fb97aa"/>
  <path d="M107.22,349.21s-.09,0-.09.09h.09q.08,0,.08-.09h-.08Z" fill="#fb97aa"/>
  <path d="M101.33,353.35c0,.09-.17.09-.17.17v.08c.17,0,.34.09.51.09h.09c0-.25-.17-.34-.42-.34Z" fill="#fb97aa"/>
  <path d="M106.02,350.9h.17c0-.08,0-.17-.08-.17,0,.09-.09.09-.09.17Z" fill="#fb97aa"/>
  <path d="M99.55,352.41l-.09-.08c-.09,0-.17.17-.34.16,0,.09.17.26.17.34.17,0,.26-.25.26-.42Z" fill="#fb97aa"/>
  <path d="M109,349.38s-.08.08-.17.08-.08-.08-.17-.08c0,.08-.08.08-.08.26.08.09.08.17.17.25,0,0-.09,0-.09.09h.09c.08,0,.17-.09.25-.09h.09c.08-.08,0-.17.08-.25-.08,0-.17-.17-.17-.26Z" fill="#fb97aa"/>
  <path d="M118.02,347.72c0,.09.17.17.26.17,0-.09-.17-.17-.26-.17Z" fill="#fb97aa"/>
  <path d="M228.37,338.1c0,.43.17.77.17,1.11.08,1.53.25,2.81.58,4,.09.26.08.77.42.77.09-.59-.08-1.11-.16-1.45-.08-.51,0-1.02-.08-1.53-.08-.25-.25-.68-.34-.94-.08-.34-.08-.68-.17-.94.09-.17.09-.43.17-.68-.08-.26-.08-.43-.17-.68,0-.09.09-.09.09-.09,0-.09-.09-.09-.09-.17-.17-.68-.25-1.28-.25-2.13-.08,0-.08-.17-.17-.17-.25.51,0,1.45,0,1.87v1.02Z" fill="#fb97aa"/>
  <path d="M107.55,350.14c0,.17-.17.26-.26.34.17,0,.34,0,.43-.08-.09-.09,0-.26-.09-.34q0,.08-.08.08Z" fill="#fb97aa"/>
  <polygon points="119.04 347.29 119.21 347.29 119.21 347.21 119.13 347.13 119.04 347.29" fill="#fb97aa"/>
  <path d="M268.81,305.94v.34c.09,0,.08.17.08.25v.17c0,.25,0,.17-.09.25,0,.17.17.68,0,.68,0,.08.08.85.17.85,0-.59.17-.76.09-1.27,0-.34,0-.68.09-.93.17,0,.25,0,.42-.09v-.43c-.25,0-.33-.93-.33-.93-.51,0-.43.17-.43.59v.43c-.08.09,0,0-.17,0,0,.26-.17.51,0,.68,0-.17,0-.51.17-.59Z" fill="#fb97aa"/>
  <path d="M268.3,305.85c0,.26-.17.76,0,.77.09.26-.08.34-.09.6.17,0,.34-1.36.09-1.36Z" fill="#fb97aa"/>
  <path d="M293.18,292.51c-.17.09-.43,0-.51.17.17-.08.6.17.51-.17Z" fill="#fb97aa"/>
  <path d="M264.25,343.42v.17c.17.08.17-.26,0-.17Z" fill="#fb97aa"/>
  <path d="M264.22,304.39c0,.09-.17.85-.17.85.08,0,.08.08.08.08h.09c.08-.34,0-.93,0-.93Z" fill="#fb97aa"/>
  <path d="M268.85,341.14c-.09-.09.08-.25.08-.34s-.26-.17-.26-.25c.17,0,.17-.17.17-.34-.17-.26-.34,0-.51,0,0,.26.17.17.26.34-.09.08.08.42-.17.42.08.17-.26.85-.26.93-.17.34-.43.17-.68.34v.51c-.09.25.25.43,0,.68-.09-.25-.17-.51-.17-.85h-.17c.17-.17-.17-.25-.08-.59.26,0,0-.26.09-.43h.25c0-.09.09-.17.09-.25-.09-.09.08-.17,0-.34,0-.08-.09-.08,0-.08.17,0,.17.08.17.17.26-.08.26-.93.17-.93h-.17c-.09,0-.09.25-.17.25s0-.08,0-.17c0,0-.34,0-.34-.08-.17.08-.26.08-.34-.09.09-.34,0-1.02.09-1.1.17,0,.09.25.26.34q0-.09.08-.17c0,.08.09.17.09.34.08,0,.42-.17.42-.26,0-.17-.08.09-.17-.08-.08-.26.17-.17.17-.34-.08,0-.25,0-.25-.08.08,0,.25-.26.25-.34-.17-.08-.08-.34-.08-.51-.43-.17-.17-.77-.08-1.19-.25,0-.25-.09-.42,0,0,.17.17.09.08.26,0,.08-.08.08-.08.26-.09,0-.09.08-.26.08,0,.34.09.26.08.6.17.09.25-.09.34,0-.09.17-.09.51-.09.68,0,0,.17.09.09.17-.17,0-.26.17-.43.16,0,0-.25-.93-.17-1.02-.09,0-.17,0-.17-.09s.17-.08.17-.25c-.17-.26-.08-.51-.17-.77.34-.09.17-.34.17-.6.08,0,.17-.08.17-.17s-.09.09-.17.09c0-.17-.09-.43.08-.51v.34c.09,0,.34.09.26-.08,0-.17-.17.08-.17-.09.09-.08.09-.34.17-.42,0,.08.26.17.26.25-.09.17-.09.34.08.43,0-.09.09,0,.17,0,0-.17-.08-.34-.17-.43.09,0,.17-.17.17-.25.09-.09.09-.17.09-.26-.17,0,0,0-.09-.08,0-.43-.08-1.62.09-1.53-.09-.34,0-.51-.08-.77.09,0,0-.09.09-.09.08.09.17,0,.34,0,0,.09.16,1.36.16,1.36h-.08s-.09.17-.09.17l.09.09h-.09c0,.08,0,.42.08.51-.09.09-.17.26-.17.51-.17,0-.17.09-.09.17,0,.08.26-.17.26.08,0,.17-.26.43.17.34,0,.08,0,.17.08.17s.09-.26.09-.34c0,0,.08-.09.08-.43-.34.09-.17-.85-.17-1.11v-.34c0-.17.09-.43,0-.6.17-.17.09-.6.09-.85-.26,0-.17-.26-.25-.43-.17,0-.17.08-.34,0,.09.17,0,.25-.17.34l-.08-.51h-.25c0,.17-.09.34,0,.43-.17.09-.09.51-.34.51.08.17.17.34.08.51l.26.34c-.17,0,0,.26-.17.17v.17c.08.43-.09,1.02-.09,1.02,0,.09,0,.17-.08.17.08-.26-.26-.08-.26-.08-.09-.09,0-.09-.09-.17-.08-.09-.17.17-.17,0l.09-.09c.08-.17,0-.42,0-.59l-.17-.17c.17-.17,0-1.02,0-1.11,0,0,.08-.08-.09-.42.09,0,0-.17.09-.17s-.09.25.08.17c.09-.08.09-.43.17-.51-.34,0-.42-.09-.34-.34-.17,0-.26-.09-.34,0-.09.17.08,0,.08.17-.25,0-.25.34-.42.09.08-.09.25-.34.08-.43,0,.09-.08.09-.17.09-.08-.25-.34-.34-.59-.26-.25.08-.08,0-.25-.26-.17,0-.34-.08-.43-.08,0,.08-.09.26,0,.34,0,0,.09,0,.09.08q0,.17-.09.26c.09.08.17.08.26.17v.68s.17,0,.17,0c0-.17,0-.26.08-.34.17,0,.17-.08.26-.08.08.08.08.26,0,.34.17.08.08.17.26.25-.09,0-.26,0-.26.09.08,0,0,.08,0,.17.26,0,.08.34,0,.43,0,.17.26.09.17.26h-.26c-.08.08.17.08.17.17l-.08.09c-.17.17.08.59-.09.77-.34.08-.25-.6-.17-.77-.17-.17-.17-.51-.17-.68,0-.09.09-.17.09-.26-.17,0,0-.34-.26-.25-.09.85.08,1.44.08,1.87,0,0-.26.59-.26.93,0,.17.09.34-.09.51.17.09-.08.09-.08.17,0,0,.17,0,.17.08,0,0-.26,0-.17.08,0,.09.08.17.08.26.17.08,0-.17.17-.17-.09.25.42.17.17.43.08,0,.42.09.42,0-.08,0-.08-.17,0-.17,0,.09.09.09.09.09v.17c.17,0,.26-.09.43-.09.08,0,0,.17.17.09.08-.09-.09-.17,0-.26,0,0,.17,0,.17-.08-.34,0-.09-.17-.17-.34.08,0,.25,0,.25-.08-.08-.09-.42-.17-.25-.34.17,0,.08.17.25.17.09.09.17-.17.26,0-.09,0,0,.26,0,.34s-.09.09-.09.17c0,.17.17.08.17.25,0,0-.17,0-.09.09s.26.09.26.17c-.17-.08,0,.26-.17.17,0,0,0,.25-.09.34.09,0,.17,0,.17.09s-.08.43-.17.43c-.09.08-.09-.34-.34,0-.09,0-.09-.09-.26-.09-.08.09.09.25-.17.25v.43c0,.09-.08.09-.09.17.08.08.17,0,.25,0,0,0,.26.08.34.08,0-.08.26,0,.17-.17,0-.09-.25,0-.17-.17,0-.08.17,0,.17-.08q-.08,0-.08-.08c-.09,0-.26.08-.26-.09.09,0,.09-.17.17-.17,0,.26.17.08.34.08.17.17.17,1.11.16,1.28-.17.09,0,.09-.09.25,0,.09-.08.09-.08.17.08.08.08.17.08.34.09,0,.17-.09.17,0s.09.08.09.08h-.26c0,.26.17.17-.08.42.08.17.08.08,0,.26,0,0,.08,0,.08.08-.17.17,0,.34,0,.6-.34.09-.43.25-.43.68-.25,0-.08.34-.17.43-.08,0-.17,0-.17-.09.17-.25.09-.42,0-.68.09,0,.34-.09.34-.09-.25,0,.09,0,0-.17-.25,0,0-.34-.08-.43h-.17c-.09,0,0,.17-.17.17,0-.17-.17-.08-.17-.26,0,0,.08-.25.08-.34-.08,0-.08-.17-.08-.17l.17-.26c-.09,0-.43-.25-.43-.25.08,0,.17-.43,0-.34-.09.08-.09.17-.26.08-.08.08,0,.17,0,.26l-.08.08c0,.09,0,.26-.09.26-.08-.17-.25-.09-.34,0,.09.43-.17,1.36-.09,1.44.26.17.17.17.17.43-.09,0-.17,0-.17.09.09,0,0,0,0,.08.09,0,.17,0,.17.08,0,.26.17.51.17.77.17,0,.34-.08.34.17-.17-.09-.34.34-.51.25,0,.17.17,0,.17.09,0,.43.25,0,.25,0,.09.34,1.02.09,1.27,0,.09-.17.09-.34.26-.34-.08.08-.08.25-.08.34.42-.09,1.02-.08,1.28-.33.25.34.43-.17.68-.17,0-.17-.25-.43-.08-.51-.17.08-.09-.26-.09-.26.09.09.34.17.34.26-.08,0,0,.17.09.17.08-.17-.09-.25-.17-.34,0,0,.34-.59.42-.25l-.08.08c0,.08.08.26.08.34,0,0-.68.59.09.43.17-.08.09-.68.17-.85l-.17-.34v-.43c-.17,0-.08-.34,0-.34,0,.08.09,0,.09-.09-.09,0-.17,0-.17-.09s-.08-.17,0-.17c0,.08.09.17.17.17ZM267.49,340.45c.08,0,.17.17.17.25h-.17s0-.25,0-.25ZM266.74,335.35q.08,0,.08.08l-.08.09c-.09,0,0-.09,0-.17ZM265.38,336.53h-.17c0-.17.09-.25.26-.25.08.17-.09.09-.09.25ZM265.89,334.58c-.08.08.42.68.08.68,0,.08.08.17.08.34-.17.08-.34,0-.51,0,.09-.26-.08-.94.09-1.1h.17c0-.17-.17-.43-.17-.6s.08-.42.26-.68c0-.08-.08,0-.08-.08l-.08-.51c0-.09-.25.08-.17-.17,0,0,.17.17.17,0,0-.34.09-.34.09-.34h-.09c0-.09.34-.09.34,0s-.08.17-.17.17c0,0,.09,0,.09.08s.08.08.17.08c0,.09-.09.09-.09.09l.09.09c0,.08-.09.25-.09.25,0,.17.25.77,0,.85,0,.17.17.17.17.34-.26.09-.17.34-.34.51ZM264.51,340.78c.08,0,.08.09.17.09,0,.08-.17.08-.26.08,0,0,.09-.08.09-.17ZM264.42,341.3c0-.09.17-.17.26-.17,0,.17-.17.26-.26.17ZM264.59,343.17c0-.09.09,0,.09-.17h.17c-.09.17,0,.26-.26.17ZM265.36,342.06h-.08s0-.09,0-.09h.08s0,.09,0,.09ZM265.44,341.89c-.09,0-.17-.09-.17-.17h.17s0,.17,0,.17ZM266.12,342.57c.17-.08.09.09.17.09,0,.09-.26.09-.17-.09ZM266.12,342.23c0-.25.17-.34.17-.59,0,0,.09.08.17.08,0,0-.25.51-.34.51ZM267.06,340.37c0,.09.09.17.09.26s-.09.08-.09.26c-.08,0-.51-.6,0-.51ZM266.8,341.04c.09,0,.17-.08.26-.08v.17c-.08,0-.34.09-.26-.09ZM268.67,341.9v.26c-.08,0-.17-.08-.25-.08,0-.17.08-.17.25-.17Z" fill="#fb97aa"/>
  <path d="M265.8,336.19c-.09.09-.09.26,0,.26.08-.08.08-.26,0-.26Z" fill="#fb97aa"/>
  <path d="M264.04,307.36v-1.19c0-.17,0-.77.09-.77v-.08s-.08,0-.08,0c-.09.17-.17.6-.17.76v.51s-.18,1.44-.09,1.44c0-.08,0-.17.09-.17,0-.17.17-.34.17-.51Z" fill="#fb97aa"/>
  <path d="M270.66,311.39c.17,0,.09-.26.09-.43,0-.08-.26-.08-.26,0v.77c0,.08.17.34.17.34,0-.26.18-.51,0-.68Z" fill="#fb97aa"/>
  <path d="M264.21,307.79h-.17c0,.25-.17.42-.17.68.08,0,.42-.34.34-.42v-.25Z" fill="#fb97aa"/>
  <path d="M231.33,342.02c-.17.34-.09.93.17,1.11.17-.34.09-.85-.17-1.11Z" fill="#fb97aa"/>
  <path d="M231.42,343.46c.09.43,0,.94.08,1.36.08.34.25.51.25.85.26,0,0,.76.51.76,0-.26-.17-.6-.25-.94-.08-.59-.16-2.21-.59-2.04Z" fill="#fb97aa"/>
  <path d="M229.87,346.94c-.08-.08-.08-.17-.17-.25.09,0,.17-.93.17-1.02-.43-.09-.51-.51-.51-1.03-.09,0,0-.17-.09-.25h-.17c-.17-.17-.25-.25-.25-.59,0-.09-.09-.17-.09-.17,0-.09.09-.09.09-.17,0,0-.09,0-.09-.08,0,0,.09,0,.09-.09-.26-.25-.25-.43-.17-.77-.43-.25-.34-1.02-.51-1.36-.17-.51-.59-1.02-.67-1.62,0-.09.17-.25.17-.43,0-.51-.17-1.02-.25-1.45-.34-.17,0,.43-.25.43-.26-.26-.17-.77-.16-1.28-.26,0,0-.51-.34-.34v2.04s.08.51-.09.59c-.17,0-.09-.25-.43-.17,0,.68.25,1.45.25,2.13,0,.25,0,.43-.09.68.51.77.59,1.96.92,2.98-.25,0-.51-.25-.6.08.34.17.25.59.34.85h.08s0,.17,0,.17h.09s0,.26,0,.26h.08c.09.08,0,.26.09.34.25,0,.34.17.42.34-.09.42.08.59.08.93.26.17.42.43.76.52.09.25.17.17.34.25v.17c.17.17.34.42.51.25-.08-.59.18-.85.18-1.36.17,0,.51.34.59.09-.17-.08-.08-.34-.17-.51,0-.09-.17-.09-.17-.17ZM227.75,346.34v-.17s.08,0,.08,0c.09,0,.09.09.09.26-.09,0-.09-.08-.17-.08Z" fill="#fb97aa"/>
  <path d="M231.59,341.76v-.51c.51-.17.17-.85.18-1.36v-.85c0-.25-.25-.08-.25-.25.17-.09.25-.17.25-.43-.17-.17-.08-.68-.08-.93,0-.09-.09-.17-.09-.17,0-.09.09-.09.09-.09,0-.08-.09-.08-.09-.25,0-.34.18-1.53,0-1.7-.08-.08-.17-.68-.17-.85,0-.09.09-.09.09-.09,0-.17-.17-.85-.42-.85.17.51,0,1.11,0,1.62,0,0,.08.51-.09.6-.08-.26-.08-.6-.08-1.02-.43,0-.17,1.1-.26,1.36,0,.17-.26.26-.26.42-.09.6-.09,1.62,0,2.38.08.77,0,2.47.5,2.47.08-.08.08-.17.17-.26,0,.26.08.6-.09.68.26-.08.34.09.6.09Z" fill="#fb97aa"/>
  <path d="M230.63,348.14c-.08.34.09.34.34.34.09-.34-.08-.34-.34-.34Z" fill="#fb97aa"/>
  <path d="M232.7,339.65c0-.09-.17-.09-.17-.09,0-.51-.16-1.45-.33-1.45.08.85-.18,1.87.07,2.55.26.17.17-.17.26-.34.09-.09.26-.17.26-.26l-.26-.08c-.08-.17.17-.34.17-.34Z" fill="#fb97aa"/>
  <path d="M233.29,341.52c-.17,0,0-.26-.17-.34h-.26s0,.93,0,.93c0,.09.09.09.09.09,0,.09-.09.17-.09.17.09.34-.09,1.36.42,1.45.34-.68-.25-1.62,0-2.3Z" fill="#fb97aa"/>
  <path d="M247.39,323.63c-.08,0-.34.17-.25.26,0,0,.77-.42.25-.34v.08Z" fill="#fb97aa"/>
  <path d="M232.02,341.09v.77c.17.09.25.34.51.34.09-.6-.25-.6-.25-1.11h-.25Z" fill="#fb97aa"/>
  <path d="M251.97,326.02c.25,0,.43-.16.51-.34-.34-.09-.43.17-.51.34Z" fill="#fb97aa"/>
  <path d="M102.61,307.52c0,1.11.33,2.12.33,3.15,0,.51.08,1.11.08,1.61h.08c.17,0,.26-.34.51-.34h.68s1.36-.08,1.36-.08h1.19s1.7-.07,1.7-.07c.34-.51,1.79-.51,2.13-.76.09-.09.34-.17.34-.34h.09c.51,0,1.02-1.02,1.28-1.27.51-.42,1.11-1.01,1.54-1.53.17,0,.08-.09.17-.09h.09c0-.25.51-.68.68-.85l.26-.26c.51,0,1.11-1.61,1.28-1.87.6-1.1.77-2.12.78-2.97-.08-1.44-.76-2.55-1.09-2.89,0-.26,0-.43-.34-.51,0-.25-.25-.34-.34-.42-.17-.17-.34-.68-.59-.68-.17,0-.76-.43-.85-.51h-.09c-.17,0-.34.08-.34.08-.85.08-1.61.17-2.38.25-1.36.16-2.73.58-3.91.92-.43.09-.85.59-1.28.59-.17.26-.51.42-.68.51-.26.17-.6.34-.85.51-.43.25-.77.42-1.11.67-.09,0-.17.09-.17.09l-.17.17c-.17,1.28-.26,2.3-.35,3.57h-.08s-.09.85-.09.93v.43c0,.17.16.94.25,1.02v.08c0,.26-.09.6-.09.85Z" fill="#fb97aa"/>
  <path d="M284.05.63L117.45,0C53.44-.24.87,51.94.63,115.95L0,282.55c-.24,64.01,51.94,116.58,115.95,116.82l166.6.63c64.01.24,116.58-51.94,116.82-115.95l.63-166.6c.24-64.01-51.94-116.58-115.95-116.82ZM108.48,351.25c-.26,0-.34.17-.51.17h-.09s0-.17,0-.17h.26c0-.08-.09-.08-.17-.08s-.09.08-.17.08c-.17,0-.09-.17-.17-.17-.25,0-.17.25-.42.25h-.09c0-.17.85-.59,1.19-.59l.08.34c0,.09.17,0,.17.17h-.09ZM109.42,351.76c-.09,0-.17,0-.17-.08h.51c0,.08-.17.08-.34.08ZM110.27,351.26c0-.08.09-.08.09-.08h.17c0,.08-.26.08-.26.08ZM110.19,350.24s-.09,0-.09-.08q.09-.08.17-.08s.09,0,.09.08c-.09,0-.09.08-.17.08ZM110.96,349.9c-.09.17-.09.34-.09.6h-.42c0-.08.08-.34.17-.34v-.34c.25,0,.51,0,.59.09h-.25ZM111.29,350.24c0-.08.09-.08.09-.08h.17c0,.08-.17.08-.26.08ZM113.85,349.66c0-.09-.17,0-.17-.17h.26c0,.09-.09.09-.09.17ZM115.47,349.15c-.09,0-.09-.08-.09-.08h.09s0,.08,0,.08ZM115.04,349.07c0-.08-.08-.08-.08-.17h.42q.09,0,.09.09c-.26,0-.26.08-.43.08ZM120.15,347.55h-.09s0-.08,0-.08h.09s0,.08,0,.08ZM121.16,347.98l-.08-.08h.08s0,.08,0,.08ZM121.08,347.81l-.09-.09c0-.09.09-.09.17-.09,0,.09-.08.17-.08.17ZM121.85,347.48c-.09,0-.26-.09-.34-.09s0,.09-.09.09c0-.17,0-.26.09-.26,0-.17.08-.08.17-.17l.17.17v.26ZM123.3,346.29c-.08,0-.08-.09-.17-.09.09-.08.17-.08.34-.08,0,.08-.08.17-.17.17ZM127.21,345.2c-.17,0-.51.42-.68.51-.26.17-.6.34-.85.51-.25.17-.68.42-.85.59-.26.17-.6.42-.94.42,0-.26.94-.59.94-.59.17-.09.34-.34.51-.42v-.08c0-.09.09-.09.09-.17.25,0,.34-.26.51-.34.09-.09.26-.09.34-.26-.08.08-.42,0-.42.17-.34,0-.51.34-.68.42-.25.08-.68.17-.85.34v-.09c0-.08.42-.34.42-.42.34-.08.51-.25.68-.5.08-.09.25-.09.25-.26h.09c.09,0,.09-.08.09-.08,0-.08-.09-.17-.09-.17l-.17.09c0-.09.08-.09.08-.09h.09s.6-.34.6-.34h.34c0,.09-.6.51-.6.51,0,.17.17.17.17.34v.08s.26,0,.26,0c.08,0,.26,0,.6-.25.17-.09.17-.25.34-.25,0,.25-.09.25-.26.34ZM124.06,346.38c0-.09.09-.17.17-.17,0,.09,0,.17-.17.17ZM125.26,345.11c0-.17.08-.09.17-.17l.17.08c0,.09-.26.09-.34.09ZM127.64,344.78h-.17s-.09,0-.09-.09l-.08-.08.08-.08c.09,0,.26.08.26.08v.17ZM134.16,330.09c0,.43,0,.85-.18,1.44-.08.26-.26.85-.26,1.02,0,.42-.26.84-.34,1.27-.17.6-.35,1.36-.6,1.96-.09.25-.43,1.19-.51,1.28-.34.25-.43.76-.6.93h-.17c-.09.09-.09.26-.26.25,0,.34-.34.59-.51.76v.08c0,.34-.43.25-.68.42-.25.17-.77.59-.85.93-.09.08-.17,0-.26.08-.17.43-.35,2.47-.69,2.81l-.17.17h-.09c-.08,0,0-.08-.08-.08-.68,0-1.45.42-1.79.84-.17.09-.68.34-.68.42-.34,0-.43.09-.43.34-.26.09-.51.34-.68.34h-.09s0,.26,0,.26h-.25s-.26.25-.26.25c-.26,0-.26.17-.43.17h-.08c-.09.09-.17.26-.43.25,0,.09.17.17.17.17,0,.17-.17.08-.26.26h-.25c-.09.08-.17.16-.34.16h-.08s0-.08,0-.08c0-.17.26-.26.43-.34-.17-.08-.17-.17-.43-.17,0,0-.17-.17-.26-.17v.08s.09,0,.09,0c-.17.09-.26.34-.34.51h-.09c-.43,0-.6.42-1.02.42h-.17s.09.08.09.08l-.09.08v-.17s-.34,0-.34,0c0,0-.08,0-.08.08h.08c0,.08-.08.08-.17.08,0,.09.09.09.09.09v.09c0,.17-.09.43-.26.43q-.08,0-.17-.09c-.09,0,0,.17-.09.17-.17,0-.17-.17-.34-.17h-.08s.08.09.08.09h-.17c-.17,0-.43.08-.6.16,0,.09-.17.09-.25.09s-.09.17-.17.17c0,0-.17-.34-.17-.42h-.08c-.09,0-.09.08-.26.08l.26.17c-.09.09-.26.09-.26.25-.17.09-.25,0-.34.09-.08,0-.08.09-.17.09s-.09-.09-.17-.09c-.17,0-.17.25-.26.25-.34.09-2.04-.09-2.04.25-.08,0-.17,0-.25.08v.08c0,.09-.09.09-.09.17h-.17c-.09,0,0,.08-.09.08-.17,0-.17-.08-.34-.08h-.08c-.09,0-.09.08-.09.08,0,.08.09.08.09.17v.09s-.09,0-.09.09v.08c0-.08-.17-.17-.17-.17h-.09s.09.09.09.17c0,0,0,.08-.09.08-.25,0-.51,0-.77-.09,0,.08.09.17.17.17-.09.09-.51.08-.6.08,0-.09.17,0,.17-.09l-.43-.09-.08-.08c0-.08.08-.17.08-.17,0,0,0-.09-.08-.09h-.26s-.17.09-.17.09h-.51s0,.08,0,.08c-.09-.09-.09,0-.17-.09v-.09s.17,0,.17,0c0,0-.51-.09-.6-.09-.09.09-.34.42-.34.6-.26.08-.34,0-.51.08,0,.17.17.17.26.26.17.17.51.25.85.26,0,.09-.25,0-.25.09l.34.17c0,.08-.09.08-.17.08,0,.09.08.09.08.17-.17,0-.34.34-.51.34h-.08s0-.09,0-.09c0-.09.08,0,.08-.09v-.08c.09,0,.17-.08.17-.17s-.08-.25-.17-.25v.08s-.08-.17-.08-.26c-.09,0-.43-.08-.43-.08-.09-.09-.26,0-.43-.09,0-.08.17-.08.17-.08v-.09c.09,0,.09-.09.17-.17h-.08c-.09,0-.17-.08-.26-.08h-.08s.17.17.17.25c-.09-.09-.09,0-.26-.09q.09.09.09.26c-.17,0-.43-.08-.6-.09q-.09,0-.09.08c-.08,0-.17,0-.17.09-.17,0-.17.08-.26.08h-.08s.17.09.17.09h-.09c-.08,0-.25.17-.25.17,0,0-.17-.08-.26-.08s-.26.08-.34.08c-.09.08-.09.17-.17.34,0,0,.25.08.43.08,0,.09-.17.17-.17.17-.08,0-.08.09-.17.17-.17,0-.08.08-.25.08l-.34.34h-.26c-.17.17-.43.26-.77.26v.17s-.09,0-.09,0c-.08,0-.08-.08-.17-.08h-.08c-.17,0,0,.17-.09.17h-.08c0,.09,0,.17.08.17q-.08.17-.08.34c-.09,0-.43.08-.43.08-.26-.08-.26-.34-.51-.34-.09,0-.26.34-.26.6,0,.08,0,.17.09.25,0,.09-.17.09-.17.17s0,.08.08.08c-.17.34-.77.34-1.36.34-.08-.08-.17-.17-.25-.34,0,0-.34.26-.6.26-.09,0-.17-.09-.17-.17v-.09s-.26,0-.26,0c-.08,0-.17-.08-.17-.17,0-.17.17-.34.17-.34h-1.11c-.17,0-.17-.18-.17-.35v-.26s-.09.09-.09.09h-.59c-.09-.09-.17-.26-.17-.43v-.25c0-.17-.17-.17-.42-.17h-1.19c-.43-.09-.93-.17-1.44-.26-.26,0-.93-.17-.93-.26h-.09c0-.17-1.1-.69-1.19-.69-.26-.34-.68-.51-1.11-.69-.08-.25-.68-.68-1.02-.68,0-.09-.09,0-.09-.17-.17-.17-.34-.42-.59-.51-.25-.09-.51-.09-.68-.34-.17-.26-.17-.6-.17-1.02v-1.27c0-.09.09-.34.09-.43,0-.68-.08-1.7-.08-2.72v-2.64c.1-.34.1-.68.1-1.02,0-.77-.08-1.62-.08-2.38s-.08-1.53-.08-2.21,0-1.19.09-1.7c.09-.34.09-.6.09-.94,0-.51-.08-1.11-.08-1.61,0-.26.09-.43.09-.68v-.26c.25-.25.26-1.02.26-1.87l.02-4.25c0-.08.09-.26.09-.43v-1.95c0-.43-.08-.85-.07-1.19v-3.23c.01-.17-.15-.85-.15-1.19,0-.09.09-.26.09-.26h.08s-.08-.08-.08-.08c.09-.94,0-2.04.18-3.06l.02-6.46c0-.25.17-.68.26-.93l.18-2.13c.09-.51.09-1.02.09-1.53v-.77c0-.77,0-1.44.18-2.12v-.09c.26-.17.26-1.44.35-1.78.09-.17.09-.51.09-.77,0-.17,0-.43-.08-.51,0-.08-.59-.34-.68-.34,0-.17-.09-.34-.08-.51s0-.26.17-.42c.17-.17.43-.51.68-.51.34-.51.68-1.02.86-1.7.17-.68.77-1.44,1.29-1.87l.25-.08c.51-.68,2.04-1.01,3.24-1.01h.34c1.02.09,1.87.09,2.63.35.26.08.51.34.76.34h.26c.34,0,.77-.08,1.02-.17,0,0,.6,0,2.81-.33.6-.08,1.28-.25,2.04-.33.43-.09.85-.08,1.36-.16s1.02-.08,1.53-.08c1.11,0,2.21.09,3.23.18,0,0,2.97.61,3.65.61.51,0,1.1.34,1.62.43.34,0,.51.17.68.34.76.17,1.1.43,1.79.6.42.17.85.34,1.19.6.17.08.68.34.76.51.85.17,1.53,1.02,2.03,1.54.26.25,1.1.68,1.1,1.02,0,.17.51.43.59.6.34.42.59.93.85,1.45.25.51.34.34.51.93,0,.17.42.77.51.85.17.17.17.68.34.85.51.51.68,1.62.76,2.38.08.51.25,1.19.25,1.87s0,1.27-.26,1.61v.09s-.08,0-.08,0l.08.09h-.08c0,.08,0,.42-.09.5-.08.26-.43.68-.43.94,0,.09-.25.43-.25.43-.26.42-.51.76-.77,1.1-.26.43-.6.68-.86,1.1-.25.51-.94.85-1.28,1.35-.17.26-.6.51-.77.85,0,.09-.17,0-.17.09-.25.42-.77.59-1.19.84l-.68.51c-.25.17-.68.42-.85.68.08.34.76.26.93.52.51.09.85.43,1.27.43,0,.08.17.08.17.17h.34c.17.18.34.26.59.43.51.34.85.52,1.27.86.09.09.34.25.43.25.34,0,.42.34.68.52,0,0,.17.17.26.17.26,0,1.02,1.19,1.19,1.19.08,0,.68.52.76.6.34.42.51.85.84,1.19.17.17.42.34.51.51.26.34.51.94.76,1.36l.76,1.53c.09.17.17.77.34.85.17.34.17.77.34,1.02,0,.08.08.17.08.26l-.08.08c.08.34.34.68.42,1.11.08.85.42,1.36.5,2.46v1.44ZM176.96,301.85c0,.25-.09.59-.09.93v.6c-.09.08-.09.34-.09.51v.08c-.09.09,0,.51,0,.68v.26c-.09.08,0,.08,0,.17v2.47s-.1.08-.1.08c0,.26.08.6.08.85v3.23q-.1.08-.1.17v.34c-.08.09,0,.43,0,.6s-.08.34-.08.51l.08.09v.43s-.08.09-.08.09c0,.17.08.34.08.51l-.08.09v.68c-.09.09-.09.17-.09.34v1.11s.08.26.08.26c-.17.17,0,.85,0,1.19,0,.09-.09.26-.09.34l.09.17c-.17.17-.09.51-.09.85,0,.09-.08.34-.08.43,0,.34,0,.85-.09,1.19,0,.08,0,.25-.17.25.09.17,0,.34,0,.51s-.08.25-.08.42c0,.08-.09.08-.09.17v.43c-.09.09,0,.17,0,.34,0,0-.09-.09-.09,0s-.08.34-.08.51v.08c-.09.08,0,.08,0,.26,0,.25-.09.42-.09.68v.77c-.09.09,0,.17,0,.34,0,.09-.08.09-.08.17,0,.17.08.34.08.51,0,0-.08-.08-.08,0s-.09.34-.09.43-.08.09-.08.17c0,.17.08.34.08.6l-.08.09v.51c-.09.08,0,.77,0,1.19,0,.09-.09.17-.09.34v.26c-.08.08-.17.5-.17.85v.08c-.08.09,0,.43,0,.6,0,.08-.08.17-.08.34s.08.42,0,.51c0,0-.09.09-.09.17v.17s-.09,0-.09,0c-.08.17-.08.42-.09.6,0,0-.09,0-.09.08v.17s-.08.17-.08.17c0,.08,0,.25-.09.34v.08c-.08.08-.08.34-.09.51,0,.26-.09.51-.17.76,0,.09-.09.09-.09.17v.25s-.08,0-.08,0v.09s-.09,0-.09.08v.08s-.09,0-.09,0l.09.17-.17.17v.17s-.09.09-.09.09c0,.08,0,.17-.08.25v.09s-.09,0-.09.09v.25c0,.09-.08.09-.08.17s-.09.17-.09.26v.08c0,.08-.17.26-.17.43s.09.26-.08.42v.26c0,.08-.09.08-.09.17-.09.26-.09.51-.17.76v.09s-.09,0-.09.09-.08.17-.08.34c-.09.17-.09.34-.17.59v.17s-.09,0-.09,0v.25c0,.09-.08.09-.08.09-.09.09-.09.25-.17.43v.08c0,.08-.09.08-.09.17s-.09.17-.09.17v.17s-.17.17-.17.17c0,.08-.08.17-.08.25h-.09s0,.25,0,.25c0,.09-.08.09-.08.17s-.09.09-.09.09v.17s-.08,0-.08.09v.09c-.17.5-.35.93-.52,1.44,0,.09-.08.17-.08.25s-.09.17-.09.26v.17s-.17.09-.17.17c0,0-.08.09-.08.17s-.52.68-.6.76c0,.09-.09.43-.09.6,0,0-.08-.08-.08,0l.08.17s-.08.17-.08.26c-.26.26-.52.59-.69.85,0,.09-.17.09-.17.17l-.17.17v.09s-.08.17-.17.17-.09.08-.17.17h-.09c-.08.09-.25.34-.34.42v.09s-.08.08-.17.08-.17.26-.26.26,0,.08,0,.08l-.34.34s-.08,0-.17.08c-.08.08-.08.17-.17.26h-.08c-.09.17-.26.34-.43.51h-.09c-.08.08-.08.17-.17.26s-.17.08-.25.17c0,0,0,.17-.09.17h-.26s0,.17,0,.17c-.08,0-.17.08-.25.08v.09s-.17,0-.17,0v.09s-.09,0-.09,0l-.09.17h-.08c-.09.09,0,.09-.09.09h-.17c-.17.17-.6.34-.77.42,0,.09-.08,0-.17.09h-.08c0,.08-.26.16-.34.25h-.09s-.26.09-.34.17c-.09,0-.09.08-.17.08h-.17c-.43.26-.77.42-1.28.59v.08c-.08,0-.17.08-.34.08h-.08c-.09.09-.17.09-.34.17h-.09c-.09,0-.09.08-.17.08h-.09s0,.08,0,.08h-.25c-.09,0-.17.09-.26.08h-.26c-.08,0-.17.09-.25.08-.17,0-.34.17-.51.17-.34.08-.59.08-.94.08h-.25c-.17,0-.26.08-.43.08-.43,0-.77-.09-1.19,0-.08,0-.08.09-.17.09,0,0,0-.09-.08-.09s-.09.09-.26.09c-.08,0-.25-.09-.34-.09-.17,0-.34.09-.43.09s-.25-.09-.34-.09h-.68c-.09,0-.09-.09-.17-.09s-.09.09-.17.09c-.17,0-.34-.09-.51-.09h-.17q-.08-.08-.17-.08h-.26c-.25,0-.42,0-.77-.09-.17,0-.34-.09-.51-.18-.08,0-.25,0-.34-.09h-.09c-.08,0-.25-.08-.34-.08,0,0,0-.08-.08-.08h-.26s0-.09,0-.09h-.08c-.09-.09-.09.09-.26,0,0,0,0-.09-.09-.09s-.08-.08-.17-.08l-.25-.08h-.09s0-.09,0-.09h-.17s0-.09-.09-.09h-.17s0-.17,0-.17c-.08-.09-.25,0-.42-.09v-.09c-.26-.17-.42-.25-.68-.43-.08,0-.17,0-.25-.08,0,0,0-.17-.09-.17-.09-.09-.09.09-.17,0-.09,0-.09-.17-.17-.17-.43-.17-.85-.51-1.19-.85-.08-.09-.17,0-.25-.09-.09-.09-.34-.43-.34-.43-.34-.17-.68-.52-1.02-.68-.09-.09-.09-.26-.17-.34l-.17-.09c0-.17-.17-.26-.26-.34,0,0-.25-.43-.42-.43v-.17c-.08-.08-.25-.17-.34-.26s-.09-.17-.17-.25c0-.17-.42-.34-.51-.51,0,0-.09,0-.09-.09s-.26-.34-.34-.42v-.08c-.09-.09-.17-.09-.26-.26,0,0-.34-.6-.42-.68v-.08c0-.08-.09-.08-.09-.08-.26-.26-.34-.94-.67-1.28v-.09s-.09,0-.09,0v-.17q-.17-.17-.25-.43v-.09s-.08-.09-.08-.17-.09-.08-.09-.17-.08-.09-.08-.17-.09-.08-.17-.26v-.17c-.09-.17-.09-.26-.17-.42,0-.77-.59-1.37-.76-2.05q0-.08-.09-.25c0-.09-.08-.09-.08-.17s.08-.25.08-.34c.09-.08.09-.17.09-.25v-.26c.08-.08,0,0,0-.17s-.09-.34-.09-.43c0-.25-.08-.43-.08-.77l-.09-.08c.09-.08,0,0,0-.08-.08-.85-.25-1.96-.33-2.9v-.08s-.09,0-.09-.08.09-.09.09-.17h-.09s0-.34,0-.34c0-.34-.08-.59-.17-.93,0-.17,0-.6-.08-.68h-.09s0-.17,0-.17q-.08,0-.08-.09v-.09s-.09,0-.09,0c0-.08-.09-.17-.09-.25,0,0-.08,0-.08-.09h.08c-.17-.17.09-.17.09-.34s-.09-.25-.09-.43c0-.08-.08-.17-.08-.25v-.68c0-.09-.08-.26-.08-.34v-.43c0-.09,0-.26-.08-.34h-.09c0-.09-.08-.26-.08-.34v-.43c0-.09.09-.34.09-.43s-.17-.51-.08-.6h.08c0-.17-.08-.42-.08-.6v-.85c.09,0,0-.59,0-.59,0-.25-.08-.51-.17-.77v-.17s-.09,0-.09,0v-1.11c0-.17.09-.34.09-.6,0-.09,0-.17-.09-.17,0-.08.17,0,.17-.17v-.26s.09,0,.09,0l-.09-.08c0-.17.09-.17.09-.34l-.09-.09c.09-.09,0-.17,0-.34v-.51c.17-.17.09-.25.09-.25.08,0-.09-.34-.08-.51,0-.77.09-.77.09-1.78,0-.17.09-.68.09-.85s-.25-.77-.34-.85c.09-.17,0-.6.09-.77v-.77c.09-.08,0-.51,0-.76v-.43c.08-.09,0-.43,0-.6,0-.34.09-.76.09-1.19v-1.11c0-.17.09-.43.09-.68v-.59c0-.34.18-.94.18-1.36v-.34c0-.17.09-.34.09-.6,0-.34.09-.68.09-1.02,0-.09.08-.17.08-.26v-.68c0-.17.09-.43.09-.68v-.34s.09,0,.09,0v-1.19s.09,0,.09,0c0-.25.09-.43.09-.68v-.68c0-.09.09-.26.09-.34v-.17s.09-.09.09-.09c0-.08-.09-.25-.09-.34,0-.25.17-.59.09-.93,0-.17.08-.17.17-.34v-.42c0-.17.09-.43.17-.6v-.08s.09-.17.09-.34v-.68s.09,0,.09,0v-.42c0-.08.09-.08.09-.08,0-.09.08-.09.08-.17v-.09c0-.08.09,0,.09-.08v-.26c.17-.17.17-.34.34-.51,0-.08.08-.08.08-.17v-.09s.09,0,.09,0c0-.08.09-.08.09-.17v-.09c0-.09.08-.09.08-.17s.09-.09.09-.09v-.08c.17-.17,0-.26.17-.34,0-.09,0-.26.08-.34,0,0,.09.08.09,0,0-.34.51-.76.68-.94h.09s.25-.25.25-.25h.09s.08-.09.08-.09c.09,0,.09-.09.17-.09l.08-.08c.09,0,.17,0,.34-.08.09,0,.26-.09.43-.09.26,0,.51-.08.77-.08h.77c.08,0,.17.09.34.09s.26.09.43.09h.08c.09,0,.17.08.26.08s.26.08.43.08v.09s.25,0,.25,0l.09.09c.08,0,.08.08.17.08,0,0,0,.08.09.08s.08.09.08.09h.17s.17.26.26.26,0,.08.08.08c.09.09.17.09.34.17l.25.43s.09,0,.09.08c.08.08.42.08.51.17.17.17.51.77.51,1.11,0,.09.09.34.17.51,0,.17.09.42.08.68v.25c.08.26.08.6.08.94,0,.08.09.17.09.25v.25c0,.09.08.26.08.34v1.02c0,.08.08.25.08.34h-.08c0,.08.08.51.08.68,0,.25.08.51.08.68,0,.09-.09.17-.09.26l.09.08v1.28c0,.09.16.25.16.34h.08s-.08,0-.08.09c0,.17.08.34.08.51v.77c0,.09.08.09.08.17s-.09.34-.09.51v3.48s-.29,5.95-.29,6.72c0,.17,0,.26.08.51,0,.17.09.25.09.43v.25c0,.09.08.09.08.17.09.25,0,.42.08.68,0,.09.08.17.08.25v.51c0,.17.17.43.17.59v1.87c-.01,1.19-.02,2.47.32,3.4v.09c.17.17.25,1.28.25,1.62v.08c0,.08.09.26.08.42l-.09.09c.17.09,0,.09,0,.26v.6c0,.08.08.43.16.68l-.08.09c0,.08.08.08.08.17.09.34.08.68.08.94v.68c0,.25.17.34.16.68v.09c.09.09,0,.34.08.51,0,.17.08.34.17.51.08.17,0,.34.08.51h.09c0,.17.08.25.08.43v.17s.09,0,.09,0c0,.09.08.09.08.26.09.25,0,.42.08.68.09.17.17.43.17.59v.43c0,.26.08.51.17.77,0,0-.08,0-.08.09.17.17.08.68.17,1.02,0,.09.08.09.08.17v.42s.25,1.02.25,1.02c0,.08.08.17.08.25l-.08.09c0,.09.17.17.17.25,0,0,0,.26.09.26.08.08,0,.17.08.26,0,0,0,.17.09.25.17.34.34.6.34.94.34.51.5,1.19.84,1.79.34.43.68.59,1.1,1.02.09,0,.09.17.17.17,0,0,.09.08.17.08s.17.08.25.17h.09c.08.09.34.09.51.18h.09c.08.08.25,0,.42.08.09,0,.26.08.43,0h.09c.08,0,.17,0,.25-.08h.09c.17-.17.68-.34.68-.68,0-.08.09-.08.09-.08v-.09s.08-.09.08-.17v-.08s.09,0,.09-.08v-.34s.08,0,.08,0v-.26q.09,0,.09-.08v-.26s.08,0,.08,0v-.08s.09-.26.09-.34v-.08c.09-.09.17-.17.17-.34v-.08s.09-.17.09-.26c0,0,.08.08.08,0s.09-.26.09-.42v-.26s.08-.08.08-.17v-.17s.09-.08.09-.08v-.08s.08-.09.08-.17.09-.25.09-.34l.26-1.02h.08c0-.26.09-.68.09-1.02v-.08s.08-.17.08-.34c0-.08.09-.26.09-.34v-.26s.08-.08.08-.08v-.34s.09-.08.09-.08v-.51s.09-.09.09-.09v-.25s.09-.09.09-.09v-.34s.09-.09.09-.09v-.25c0-.09.08-.09.08-.09v-.34c0-.09,0-.17.09-.25,0-.09.08-.17.08-.34v-.08c0-.09.09-.34.09-.51,0-.25.09-.68.17-1.02-.03-.03-.04-.09-.09-.09l.09.09s0,0,0,0c.03.03.08.04.08.09.09-.09-.17-.17-.17-.34.09-.17.17-.34.17-.6,0-.09.09-.17.09-.25v-.26s.08-.08.08-.08v-.77s.09.08.09,0v-.85s.09-.09.09-.09c0-.08,0-.17.08-.25-.08-.17,0-.43,0-.6s0-.34.09-.51c0,0,.08,0,.08-.09v-.17s.09,0,.09,0l-.09-.08.09-.09v-.09c0-.17.09-.59.09-.77v-.68c0-.09.09,0,.09-.09v-.77s.09.09.09,0v-.25c0-.09.09-.25.09-.34,0,0,.08,0,.08-.09v-2.12c0-.51.1-.94.19-1.36.08-.51,0-.94,0-1.45,0-.59,0-1.11.09-1.61v-.08s.09-.09.09-.09v-.94c0-.26.18-.76.18-1.02v-1.02c0-.09.09,0,.09-.17v-.68s.09-.08.09-.08v-2.13c0-.51-.08-.93.01-1.36,0-.09.08,0,.08-.09,0,0-.08,0-.08-.09v-.34c0-.09.08-.09.09-.25v-.77c0-.09.09-.26.09-.34h-.09s.09-.09.09-.09c0-.09-.09-.09-.09-.17l.09-.08v-1.37c0-.17,0-.42.09-.51s-.08-.43-.08-.77c0-.09.08-.51.09-.68.09-.17,0-.68,0-.94v-1.02c0-.26-.08-.51.09-.68-.17-.26-.08-.6-.08-.85v-1.02s.09-.08.09-.08l-.09-.09c0-.25.09-.51.09-.85v-.25c.09-.09,0-.09,0-.17v-.34s.09-.08.09-.17l-.09-.09.09-.09v-.77s-.08-.08-.08-.08c0,0,.09,0,.09-.08s.08,0,.08,0c-.08-.17-.08-.6,0-.77.09,0,.09.08.09.17s-.09.09-.09.09v.17c.09.08.17.26.17,0,.34-.93.6,0,.26.34.08.17,0,.25.17.34l-.09.25c.17.09-.08,0,.09.17.08,0,.08.17.08.25v.94s.08.08.08.08c0,0-.09-.08-.09,0,.17.17.26.17.26.17.09.25.08.59.08.85v.85c0,.26.08.51.08.77v.34c0,.17,0,.43.08.6,0,.08.08.08.08.17-.08.43.08.77.08,1.19l.08.09c-.08.09,0,0,0,.09l-.08.08s.08.08.08.17v.17c0,.08.09.08.09.08,0,.09-.09.09,0,.17,0,.08.17.08.17.17.09,0,0,0,0,.09,0,.26.17.26.17.43.17,0,.09-.17.09-.25l.08-.09c0-.17.09-.43.09-.68v-.17s.08-.08.08-.08v-.34c0-.08-.08,0-.08-.08l.08-.08v-.26c0-.26-.08-.68-.08-.94v-.09c0-.17.17,0,.08-.17,0-.08-.08-.17,0-.17-.08-.17-.08-.25-.08-.43.08,0,0-.08.08-.08-.08-.26-.08-.51.09-.6-.09-.09-.09-.25-.09-.34,0,0,.09-.09,0-.09s0-.09,0-.17c0,0,.09-.08,0-.08v-.09s.09,0,.09,0c0-.09-.09-.17-.09-.25,0,0,.09,0,.09-.09v-.17s.08-.17.08-.17c0,0-.08.09-.08,0,0,0,.17-.17.08-.17s-.08-.08-.08-.17.08-.09.08-.17v-.08s-.08-.08-.08-.08c0-.09.08-.09.08-.17v-.59c.09-.09.09-.34.09-.51v-.09c.08-.08-.09-.25,0-.34,0-.08,0-.17.08-.25-.08-.09-.08-.17-.08-.26.08,0,0-.17.08-.17-.25,0-.08-1.02-.08-1.19v-.08c.08-.08,0-.08,0-.34,0,0,.08-.08.08-.17v-.68s0-.26.09-.34c0,0,.09,0,.09-.08v-.34c0-.09-.09-.09-.09-.09,0-.09.17,0,.09-.17.17-.08.34,0,.51,0,.08-.17,0-.34-.08-.51.26.08.43.25.59.34.09,0,0-.09.17-.09,0-.09.09,0,.09-.09.17.09.43.09.6.09.17-.09-.09-.34,0-.51.34,0,.25.34.59.35.09-.17-.25-.26-.25-.51.17,0,.17.17.25.25.09-.09.26.17.26.17.17-.09.17,0,.51,0q.17-.09.26-.26v-.17s.09,0,.09,0c.08-.09,0-.17.08-.17h.26c0,.09.08.26.17.26s.08.08.17.08l.08.09.09-.09.09.09h.25c.09,0,.09.09.26.09,0,0,0-.09.08-.09,0,0,0,.17.09.17s.43,0,.51.08h.17s.17.08.26.17c0,0,0,.09.09.09l.17.08c.08,0,0,.08.08.08.17.09.43.17.59.35h.09s0,.08,0,.08c.08.09.17.09.25.09s0,.17.09.17h.08s0,.08,0,.08c.17.17.59.26.59.52v.09c.09.08.17.17.25.34,0,0,.08,0,.08.08s.17.08.17.17,0,.17.09.26c0,.17.25.42.34.6h.09c.08.08.08.25.17.34,0,.09.17,0,.17.09v.08s.08.08.08.08v.09c0,.09.09.09.09.09l.08.08v.17s.17.09.17.09v.09c.08.08.17.25.25.34,0,0,.09,0,.09.08l.08.17v.09c.26,0,.42.43.51.59v.09c0,.09.08,0,.08,0,.09.17.25.43.34.68v.09c.09.09,0,.17.09.25.08,0,.08.17.08.26s.09.25.09.34c.09.17.17.42.17.77v.68ZM217.8,321.56v2.64c-.01.17-.1.25-.1.42s.09.43.08.68c0,.17-.09.17-.09.34,0,0,.09.09.09.17,0,.42-.09,1.02-.18,1.79,0,.42-.26.76-.26,1.19v1.11c0,.26-.18.34-.09.68,0,.08.08.08.08.17l-.78,3.15c-.08.43,0,.94-.09,1.44,0,.09-.09.09-.09.17,0,0,.09.17.09.26,0,0-.09,0-.09.09-.09,1.02-.26,2.04-.44,2.8-.08.26,0,.85-.09,1.1-.09.34-.34.6-.51,1.02,0,.08,0,.34-.09.43l-.17.08c-.17.34-.43.6-.6.85-.08.09,0,.25-.08.43,0,.08-.17.08-.17.17-.08.09-.08.51-.34.51.17.34.25.6.25.85,0,.68-.51,1.1-.86,2.03-.08.26,0,.85-.17,1.19,0,.09-.17.09-.17.17s0,.25-.08.34c-.09.17-.34.16-.43.34-.17.25-.26.51-.43.76,0,.08-.17.17-.17.17-.08.09,0,.17-.08.26,0,.08-.17.08-.17.17-.25.51-.51,1.02-.94,1.36-.08.09-.17,0-.25.09-.09,0-.09.17-.17.26l-1.11.76h-.17s0,.08,0,.08c-.09.08-.26,0-.34.08-.08,0-.08.17-.17.17l-.51.25c-.09,0-.09.17-.17.17-.26.08-.34,0-.77.16-.26.09-.51.34-.77.42h-.26s0,.09,0,.09h-.17s0,.08,0,.08h-.17s0,.08,0,.08c-.34.17-.77.26-1.36.34,0-.17.26-.34.34-.34.25,0,.51-.16.68-.42-.09.08-.34,0-.43.08v.09c-.17.09-.42,0-.51.17-.51-.08-.85.17-1.28.34-.26.08-.51.08-.77.16-.77.25-1.7.51-2.47.84-.43.17-.85.34-1.45.5-.26.08-.6.08-1.02.08h-1.53c-.08-.17-.25-.09-.42-.17-.09,0,0-.17-.09-.17-.09-.08-.26-.08-.26-.17-.42.16-.59-.18-.85-.18-.17,0-.43.09-.6.08s-.17-.09-.34-.09-.26.09-.43.09-.25-.17-.51-.17c-.43,0-.51.25-1.02.17-.34.09-.17-.25-.34-.34-.26.09-.43.25-.94.17.17-.17.34-.17.68-.17-.08-.6-1.19.33-1.1-.43-.25.17-.59.17-.77.42-.68-.09-.94.17-1.45.25-.6.17-2.04.17-2.64.08,0,0,0,.17-.08.09h-.6s0,.16-.09.16c-.76-.17-1.61-.17-2.12-.51-.17-.09-.42-.34-.42-.43,0-.17-.09,0-.26,0,0-.34-.25-.51-.34-.77,0-.34-.26.25-.26-.09-.17-.25-.25-.59-.51-.77-.08-1.36-.16-2.89-.24-4.17-.08-1.11-.08-2.04-.16-3.15,0-.51-.08-1.19-.08-1.79v-.42c.09-.68,0-1.61.09-2.38.09-1.02.26-2.13.44-3.23,0,0,.09.08.09-.26.09-.85.18-1.87.18-2.98,0-.43-.08-.94-.08-1.36,0-.26-.08-.43-.08-.68s.08-.34.08-.51c.09-.94.09-2.04.27-2.89.17-.6.09-1.45.18-2.13v-1.02c0-.94-.08-1.96-.07-2.89,0-.34.09-.6.09-.93.09-.85.09-2.04.18-2.89.09-1.28.27-2.55.44-3.91,0,0,.08,0,.08-.08,0-.51.09-1.19.09-1.95,0-.26.08-.51.09-.94-.08-.85-.16-1.53-.16-2.38,0-.51.17-1.27,0-1.95-.08-.34-.08-.68-.08-1.11,0-1.11.18-2.21.26-3.15.09-1.36.01-3.15.19-4.59.09-.68.34-1.36.43-2.04.09-.51-.08-1.11,0-1.62.26-.25.34.25.68.17.25-.17.59-.25.85-.34.34-.17.68-.42,1.02-.59.34-.17.68-.17,1.02-.34.17-.17.17,0,.43,0s.43-.25.51-.42c.51-.08.85-.25,1.11-.51.43-.08.85-.17,1.28-.16.25,0,.17-.51.42-.51h.17c.26,0,.34.51.59.6.6.09.85-.08,1.19-.26.43.09.93.09,1.36.09,1.19,0,2.29-.24,3.49-.24.17,0,.43.08.6.09.6.09,1.11-.08,1.61.09.17,0,.34.17.51.18.85.09,1.61-.08,2.46.1.34.08.93.17,1.28.26,0,0,.34.17.42.17l.09.17c.17.09.43-.09.51.18h.51c.85,0,1.79.43,2.55.69.43.17.68.17.93.51.08.17-.17.26-.17.08-.34.17-.6,0-1.11,0-.34.09.25.17.25.34.09.17.09,0,.34.09-.08.17-.17,0-.25,0,0,0,0,.09-.43.09.09.25.43.25.59.51.17.51.85.69,1.19,1.11.08.17,0,.43.25.51-.17.17-.51-.08-.6.34-.34-.25-.42-.85-.93-1.02,0,0-.08,0-.76-.17-.17,0,0,.26.09.34h.17c.09.08-.08.17.09.17-.09.26-.42-.43-.68-.34.09.09.25.51-.08.43,0,.43.51.25.42.77-.59-.09-.68-.6-1.27-.68-.42-.09-.17.08-.34.25-.26,0-.34-.17-.6-.17-.08-.34-.17.08-.25.08,0,0,0-.17-.09-.08-.26.08.17.08.09.26.42.08.68.59.93,1.02.08.09.34.34.42.6.17,0,.26.17.26,0,.09-.17.17,0,.26,0,.17.17.17.42.25.68,0,.17.26.17.34.25v.25c.17.09.59.34.59.77.17-.08.26-.34.26-.59.17.17.34.43.59.51,0-.6-.25-.94-.33-1.36.25-.25.34.34.68.26.09.08,0-.51-.08-.6.34-.34.85,1.36,1.1,1.45.08,0-.08-.51,0-.93.34.08.34-.34.59-.08-.08-.51.09-.68.17-1.1,0,0-.17,0-.08-.09h.17c.26,0,.17.77.42,1.11,0,.09.25-.09.25,0,.09.09-.08.34.09.43.51-.34-.34-.68-.16-1.36.25.17.42.6.42,1.02.25.25.42.51.85.6.17-.17,0-.85-.17-1.02s-.42-1.02-.42-1.45c0-.26.26-.51.17-.85.34-.09.26.26.6.18.34-.17,0-.34.09-.77.42.34.51,1.02.76,1.62.17.17.42.17.59.34,0,.17.17.17.26.34v.17c.25.26.42,1.11.67,1.53,0,.17.17.09.34.09.25.93.33,1.7.58,2.64.25,1.02.5,2.3.58,3.49.16,2.13.5,4,.91,6.04.17,1.02.16,2.55.5,3.66.08.25-.09.77.08.85.26.26.25.77.25,1.19s.16,1.62.16,2.13c0,.17-.09.26-.09.34s.09.17.09.34ZM207,300.43c-.17,0-.26-.17-.25-.43h-.17c-.08,0,0,.17-.08.17s-.17-.17-.17,0c-.25,0-.17-.34-.34-.34.09-.26.43.26.34-.26.26.26.68.26.68.85ZM211.26,297.22l-.08.08c-.26,0-.17-.25-.42-.34-.17,0-.34,0-.34-.25-.43.09-.34-.34-.76-.26,0-.26-.17-.34-.17-.42,0,0-.09-.09,0-.17h.34c.08.26.43.18.59.34v.09c.25.17.93.34.84.94ZM256.38,330.21c-.34.17-.77.42-1.19.59h-.17c-.26.34-.85.51-1.11.76,0,0-.68.34-.77.34s-.08.08-.17.17h-.17s0,.09,0,.09c-.25.09-.34,0-.68.17s-.77.42-1.02.68c-.08.08-.17,0-.25.08-.17.08-.34.42-.52.59-.08.08-.42.51-.59.51.08.42,0,.94.08,1.44,0,0,.17.09.17.6v1.53c0,.17.08.43.08.59s-.09.17-.09.26c0,0-.17.85-.17,1.1v.68c0,.85.08,1.7.07,2.46,0,.43,0,.94-.17,1.36-.09.17-.17.42-.17.59v2.04c0,.34-.01.68-.18.93,0,0-.34.85-.34.94,0,.17-.17.59-.34.76-.17,0-.08.42-.17.5-.09.09-.26.09-.34.17-.09.09,0,.25-.09.34-.17.17-.34.17-.51.34s-.17.34-.34.51c-.26.25-.51.5-.77.85,0,0-.43.34-.43.51,0,.09-.17.26-.26.34h-.17s-.17.42-.42.34c-.17.34-.77.76-1.36.42-.17-.09-.76-.51-1.1-.17,0,0-.34.42.08.43-.08.08-.17.17-.25.17-.26,0-.68-.26-.85-.26-.6-.09-1.19-.26-1.7-.27-.17,0-.34.17-.42,0-.26,0-.17-.25-.43-.25h-1.27c-.43,0,0-.09,0-.26-.26-.17-.6-.09-.85-.18-.17,0-.34-.17-.51-.17h-.85c-.42,0-.85-.18-1.27-.27-.43-.08-.51,0-.85,0-.26,0-.34-.08-.6-.09s-.43,0-.43.25c-.68-.26-1.44-.26-2.13-.43-.08,0-.17-.17-.17-.17h-.25c-.34-.09-1.02-.17-1.36-.35-.09,0-.17-.34-.26-.34-.17-.08-.42,0-.51-.08-.08-.08-.08-.17-.17-.26-.09-.08-.26-.17-.34-.25v-.17c-.34-.25-.51-.51-.85-.85-.25-.26-.68-.34-.68-.77,0-.17-.59-.68-.85-.85-.42-.34-.51-.77-.76-1.28-.42-.85-1.1-1.96-1.35-3.06-.09-.43-.08-.94-.16-1.45-.25-1.11-.84-2.89-.92-4.08-.08-.68.09-1.1-.08-1.78-.17-.77-.5-2.13-.58-2.98,0-.17.17-.26.17-.34,0-.85-.33-1.71-.5-2.56-.33-1.53-.33-3.15-.58-4.59,0,0-.08,0-.08-.09,0-.43-.16-1.28-.16-1.7-.08-.85.09-1.61,0-2.47,0-.25-.17-.59-.17-1.02,0-.17.17-.34.17-.34,0-.09-.17-.09-.17-.17,0,0,.17,0,.17-.08s-.17-.17-.17-.17c0-.09.17-.09.17-.09.09-.93.18-2.3.18-3.14.09-1.61.1-3.23.36-4.68.26-1.87,1.03-3.48,1.46-5.27,0-.17.34-.51.43-.76.26-.93.43-1.96.86-2.72.17-.34.35-.93.6-1.36,0-.09.17-.09.17-.17.17-.25.26-.42.35-.68,0-.09.25-.43.34-.59.25-.51.51-1.02.85-1.44.09-.17.34-.17.43-.34.17-.26.68-1.27,1.03-1.18-.09-.34.34-.09.34-.34,0-.17.17-.34.34-.42.51-.42,1.53-.93,2.05-1.44,0,0,.26-.17.34-.26h.17s.09-.25.09-.25h.17c.08-.09.26-.25.43-.34.08-.09.17,0,.25-.09l.09-.25h.25s.09-.17.09-.17c.26-.08.43-.16.68-.34.09-.09.17-.09.34-.17l.08-.17c1.02-.42,2.3-.84,3.58-1h.68c.94-.08,2.04-.16,3.23-.16,1.62,0,3.32.1,4.42.44.68.17,1.19.52,1.7.69.25.09.76.26,1.27.18.08.17.43.25.59.34.25.17.51.17.76.34.08.09.08.17.17.17.17.08.42.17.59.26l.08.17c.34.17.51.43.76.6.26.25.68.43.93.68.17.17.17.43.34.68.17.17.68.6.68.85,0,.09.17.09.17.17.42.85.76,1.79,1.09,2.72.17.51.25.77.42,1.45,0,0,.17,0,.17.09,0,.77.33,1.7.5,2.55.17.77.25,1.53.5,2.3,0,0,.09,0,.09.09,0,.6.34,1.11.33,1.96,0,.43-.26.93-.34,1.44-.17.93-.09,2.12-.35,2.97-.09.25,0,.51-.26.68-.26,0-.34.26-.51.08-.09-.34.17-.34.09-.68,0-.34.09,0,.26-.09.09-.93.43-1.7.44-2.8-.26-.08-.51.51-.51,0-.43.42-.09,1.1-.26,1.61-.09.26-.18,1.1-.35,1.79-.08.26-.17,1.02-.26,1.53-.43.17-.85.34-1.11.6-.17.17-.76-.18-.94,0-.26.25-.17-.09-.6-.09-.6,0-1.28.25-1.96.08-.34,0-.25.42-.68.34-.09-.17-.34-.09-.34-.43-.09-.25-.26-.34-.42-.51.09-.85-.08-2.04.27-2.64-.17-.42-.17-.85-.25-1.27-.09-.26-.17-.51-.25-.85v-.17s-.08,0-.08,0c-.09-.26,0-.85-.17-1.02-.17-.08-.59-.77-.59-.93,0-.09-.09,0-.17-.09-.09-.09-.09-.26-.17-.34-.51-.68-.85-1.36-1.27-2.05-.76-.34-1.61-.68-2.63-.69-.42,0-.94.08-1.45.25-.68.26-1.02.68-1.87.85-.34.09-.6.17-.77.25-.08.08-.17.26-.34.42-.17.17-.51.34-.6.51v.17c-.08.08-.08.17-.17.26v.17c-.68.6-.6,2.21-1.37,2.8-.08.43-.26.93-.34,1.36-.17,1.02,0,2.04-.26,2.89,0,0-.09.17-.09.34s-.17.17-.17.34c-.09.25,0,.51,0,.77,0,.34-.26.59-.26.93-.17,1.28-.18,2.21-.18,3.66,0,.08-.08.08-.08.08,0,.09.08.6.08.85,0,1.11-.26,2.21-.27,3.31,0,.43.25,1.28.08,1.78,0,.17-.26.09-.26.34v1.11c0,.68,0,1.53-.35,1.45.17-.34-.08-.85,0-1.45-.17.08-.25.43-.26.85,0,.51.08,1.19.08,1.7,0,1.27-.18,2.89-.19,4.42-.08,0-.08.25-.09.59,0,1.28.24,4.09.24,4.34v.68c0,1.53.41,2.81.41,4.34,0,0-.09.51.08.68-.08.26-.25-.34-.51,0,.09.17.09.26.17.43,0,.08.17.08.17.17.09.09,0,.34.09.43h.26c.08.09-.17.09-.17.09.17.17.26.17.51.25.08,0,.08.17.17.17.08.08.34-.08.34.08.34-.08.68,0,.94-.16.85.17,1.36-.42,1.87-.76.17-.09.51-.17.68-.34v-.26s.17,0,.17,0c.25-.26.51-.59.85-.93.09-.09.34-.17.43-.25.17-.17.17-.42.34-.68.08-.08.26-.17.34-.25v-.17c.09-.08.34-.51.34-.68,0-.42.17-.59.34-1.1.18-.68,0-.25.26-.76v-.25c.17-.17.26-.17.34-.42v-.25s.17,0,.17,0c.09-.26.09-.51.09-.77l.18-1.53c0-.26.09-.51,0-.68-.26-.26-.51.25-.85.16-.34.09-.68-.26-.85-.43,0,0-.43.17-.68-.09-.17-.43.42-.26.34-.6-.09-.43-.85-.26-.34-.59l.08-.09c.17,0,.17.17.34.09.09,0,.17-.17.26-.17h.26c.08,0,0-.25.08-.25.09-.09.17,0,.17-.09-.17-.17-.68-.09-.68-.09,0,0,0-.09-.09-.09,0,0-.17.17-.42.09-.09-.34.17-.34.09-.68-.25-.25-.34.17-.68.08,0-.51-.09-.43,0-.85,0-.34.34-.25.34-.59s-.17-.34,0-.68c-.34-.26-.6.76-.94.5,0-.34-.17-.42-.17-.77s.26-.34.34-.59c-.08-.09-.17-.09-.43-.09.09-.34.18-.59.26-.85-.08-.17-.17-.43-.25-.68-.08-.25,0-.25,0-.43-.08-.51.26-.93.35-1.36.25-.09.42-.25.68-.34.09,0,0-.17.09-.26h.25s0-.26,0-.26c.34-.34,1.02-.51,1.11-1.1,1.11-.34,1.54-1.53,2.73-1.77.6-.17,1.02-.34,1.62-.59.34-.17,1.36-.42,1.36-.76,0,0,.34-.26.43-.34h.17c.25-.34.85-.51,1.45-.68.34-.08,0,.26-.08.34-.17.09-.6.08-.51.34.17-.08.26-.08.43-.17.26-.17.09,0,.26.09.51-.26.77-.34,1.36-.42,0,.25-.42.42-.59.51-.09.08-.6.34-.6.42,0,.34,1.11-.16,1.19-.33.17,0-.42.6-.51.6-.17.25-.6.25-.68.59,0,.09,1.02-.25,1.19-.42.17.09,0,.09,0,.17-.25.08-.34.51-.68.51q.17.34-.09.6s0,.17-.08.17c-.09.09-.34,0-.34.17.17-.09.42,0,.68,0s.17-.09.6,0c-.09.17-.43.17-.43.42.85-.34,1.87-.68,2.73-1.09.34-.09.17.42.51.34.6-.08,1.19-.17,1.78-.17.43,0,.85.09,1.28.26.17.08.42.34.59.6l.17.09c.08.17.08.25.25.34-.08.17.08.59-.17.59.26.17.42.85.5,1.19.09.34,0,.43.08.85-.43.42-.68.68-1.2,1.01ZM250.8,322.03c0-.26.51-.25.68-.08,0,.34-.26.26-.51.34.17-.17.09-.25-.17-.25ZM290.15,353.13v.17c0,.17-.34.25-.68.25v.17c-.17.17-.51.34-.76.42-.09.08-.34,0-.43.08v.08c-.26.17-3.23.24-3.66.24l-1.7-.18h-.68c-1.19,0-2.55.24-3.49.24h-.26c-.34.26-1.28.08-1.87.08h-.51c-.85,0-.93-.09-1.19-.09-.17,0-.51.08-1.28.26-1.62.42-3.4.49-5.1.49h-1.96c-.42,0-.94-.01-1.27-.1-1.02,0-1.95-.18-2.97-.27-.6,0-1.36-.34-1.78-.52,0-.26-.09-.42-.34-.42.34-.42-.17-.51-.17-.85-.17-.09-.25-.17-.43-.17-.08-.34-.51-.77-.51-1.11,0-.08,0-.25.09-.34,0,0,.08,0,.08-.08.09-.17-.08-.34-.08-.51-.09.17,0-.26,0-.6q.17,0,.17.17v.25s-.09,0-.09,0c0,.09-.08.09-.08.17.17-.17.42-.25.34-.68-.09-.26-.25-.68-.25-.94.17-.09.34-.76.17-1.02-.34-.51.26-1.28.35-1.53.08-.17.34-.26.34-.42-.08-.68-.16-1.53-.16-2.3,0-.43-.08-.85-.08-1.19l-.08-.08v-.6c-.08-1.11-.16-2.12-.16-3.15v-1.11c0-.51-.25-.94-.16-1.36v-.09c-.17-.34,0-1.78,0-2.04,0-.43-.17-.94-.08-1.44v-3.24c.01-.42.1-.77.1-1.19,0-.68-.08-1.28-.08-1.95,0-2.13.02-4.17.28-6.04,0-.17,0-.43.09-.68v-.17c.17-1.19.01-2.89.36-3.99.52-1.79.18-3.83.45-5.78,0-.34.09-.17.09-.43.59.52,0,1.28.25,1.96.17-.09.34-.17.34-.34.26-.26.43-.59.17-1.02.17-.42-.08-.68-.08-.85.08,0,.08-.51.08-.51h.09c.09-.17-.09-.17-.09-.34l.09-.09h-.09c0-.17.17-.17.17-.34.08-.51-.08-1.27-.08-1.7-.09,0-.09.08-.09.17-.08,0,.09-.42.09-.51.09-.34-.09.08-.09-.09,0-.26-.08-.51,0-.68-.17,0-.26.76-.26.93,0,.09-.17,0-.17.09,0,.25.08.85-.09.93-.08,0-.08-.08-.25-.08-.09.08-.17-.34-.09-.43,0-.6-.16-2.04.18-2.3.09,0,0,.34.08.51.17,0,.17-.09.17-.26.42-.25-.08-1.11,0-1.53.09-.6,0-1.02-.08-1.53-.08-.85,0-1.7-.24-2.3-.17-.34-.34-.76-.34-1.19,0-.85.26-1.7.35-2.3-.09-.26.26-.68.43-.68,0,0,.17.25.26.08.26.08.08-.26.26-.26.25,0,.42-.09.42-.25.09,0,.26.25.26.25.08,0,.08-.25.17-.25.26.08.51.08.68-.08.09,0,0-.43.26-.34v.09c.17,0,.51-.08.6-.25.08-.08.25.08.34-.08.17-.17.43-.17.6-.26,0,0,.25-.08.25-.17.09-.09.17,0,.26.08.51,0,.34-.34.26-.76,0-.08.17,0,.08-.17.09.17.26-.09.34,0,.09.17-.17.17-.17.25-.17,0,.09.17,0,.26h-.08c0,.17.25,0,.25.25.34-.09.77-.08,1.11-.17.08-.34-.42-.43-.42-.77.6-.17.51.51.93.43.08.09,0,.34.17.34.94-.08,2.04-.34,3.15-.33.26,0,.6.09.85.09.77.09,1.53-.16,2.21-.16.6,0,1.36.09,2.13.09.59,0,1.19-.08,1.61-.16.43-.09-.09-.17.34-.17.6,0,.94-.16,1.53-.16,1.87-.08,3.74-.5,5.53-.49l.08.09c.09,0,0-.09,0-.09.26,0,.6-.08.94-.08.17,0,.34,0,.43.09,1.02.43,1.1,2.21,1.43,3.32.09.43,0,1.28.08,1.79.08.6,0,1.61,0,2.13-.09.93-.52,1.27-.69,2.03-.17.68.17,1.11-.34,1.45-.17.76.93,1.45.08,1.53,0,0-2.8-.27-2.97-.44-.26.26-.68.25-1.19.25,0,0-.26,0-1.62-.18-.08.17-.76-.09-.85-.09-.68-.09-1.28.08-1.96.16-.76.08,0,.09-.68.08-.26,0-1.53.25-1.7.08-.08-.09-.34,0-.51,0h-1.62s0,.08-.08.08c-.68,0-1.36-.09-1.87.08-.09.26,0,.51,0,.77,0,0-.09,1.7-.09,1.87,0,.6.08,1.53.08,2.04,0,.68-.09,1.44-.09,2.21v.51c.08.68.33,1.7.42,2.3.09.42-.09.76,0,1.19,0,.26.17.51.08.77v1.62c0,.17-.09.34,0,.51.08.08.68.09.77.09,0,0,.08-.08.17-.08.77-.08,1.62-.25,2.46-.33,1.36,0,2.73-.59,4.26-.58.43,0,.85.09,1.27.17,1.02.35.09.43.76,1.19.26.34.59.76.84,1.11.26.34.25.68.42,1.02s.34.77.42,1.19l.07,2.3c.08.77.17,1.79-.26,2.38-.34.42.76,1.62.5,2.05-.51.68-2.55.41-3.23.75,0,0-.25,0-.25.09-.26.17-1.45.25-1.87.25l-.09-.09c-.68-.09-.17-.09-.94.08-.6.08-1.96.42-2.55.24-.85,0-1.7.16-2.47.24-.09.17-.09.51-.09.77-.09,1.45-.43,2.97-.52,2.97,0,.17.34.17.34.34.26.34-.26,1.1-.18,1.61.08.51-.09,1.79.16,1.96.17.17.08.51.08.77,0,0,.25,1.19.16,1.61v.17c.08.68,0,1.53.07,2.38h.43c1.11,0,1.7.26,2.89.27l.17.09c.34-.26.77-.17,1.45-.17h1.19c1.02,0,2.04.01,2.98-.07h.17s0-.08,0-.08c1.53-.17.94,0,2.38-.16.34,0,.94-.08,1.45,0,.59.09,1.1.26,1.44.52.59.51,1.19.77,1.61,1.45.26.25.34.77.51,1.02.08.17.17.26.25.51.09.09-.09.85.08.94.25.17.25.85.25,1.11,0,0-.17.34-.34.85-.17.51-.6,2.04-.69,2.55-.34.17-1.62-.35-1.7.08,0,.34,2.63,1.11,2.63,1.46ZM261.4,308.29c0,.17-.17.26,0,.34,0,.17-.17,0-.17.08s.08,0,.17,0c0,.17-.09.17-.09.34-.17.08-.08-.17-.17-.17,0,.17-.17-.34-.17-.34.43.25.09-.34.43-.25ZM261.32,307.27c.09-.17.09.09.09.17-.09.17-.09-.09-.09-.17ZM265.46,293.08c.08,0,0,.09.08.09,0,.17-.17,0-.08-.09ZM266.31,292.49c.26,0,.59.59.59.85-.09,0-.09-.26-.34-.17-.09-.17-.25-.43-.25-.68ZM327.55,290c0,.17-.43.42-.26.85-.26,0-.17.25-.34.34.26.25-.17.17-.08.51-.26.17-.34.26-.6.42-.26.09.26.34,0,.43-.17.09-.34.26-.6.34,0,.17.26.17.43.17,0,.08-.26.25-.17.25,0,0,.43.17.08.34-.08.26.51,0,.43.26.25.6-.26.68-.6.93.17.17.26-.09.51.09-.17.25-.51.34-.77.51.08.34.42.08.59.09,0,.17.09.17.09.26,0,0-.17,0-.09.08l.17.17c0,.09-.17.17,0,.17-.17.08,0,.34-.17.34-.17.08-.08.17-.17.34.42.34.6-.34,1.02-.25-.17.26-.68.42-.6.94.17.34.51-.42.6-.08,0,.17-.26,0-.34.17-.09.17-.26.34-.17.68-.17.08-.34.25-.51.34.09.43-.08.51-.09.85-.6.34-1.03,1.02-1.62,1.19-.34.08-.51.25-.77.25,0,0-.42,0-.51.08v.17c-1.28.67-5.53.41-7.15.74l-.25.43c0,.25.25.25.25.43,0,.34-.09.59-.34.85-.08.08.09.08.09.08,0,.09-.09.09-.09.09,0,.43.08.94.08,1.36v2.13c-.01.68.16,1.27-.27,1.61.25.6.25,1.45.16,1.95,0,.17.09.17.09.26s.08.17.08.34c0,0,.09,0,.09.08s-.17.17-.17.34c-.09.77.25,1.79.07,2.55,0,.17-.09.93-.09,1.19s.34.43.25.85c0,.09-.08.17-.08.26,0,0,.17.08.17.17s-.09.09-.09.17c0,.51.25,1.53.25,1.87,0,0-.09,1.19-.09,1.61,0,.17.17.17.17.26,0,.25.09.42.08.68v.59c0,.85-.1,1.79-.1,2.72v.77c0,.51.08,1.53-.01,2.12-.35,2.38-.19,4.77-.37,7.14v-.08c-.08,0-.37,8.08-.8,10.29,0,0-.08,0-.08.09,0,.17.08.34.08.51,0,1.19-.43,2.3-.61,3.4-.08.34-.17,1.19-.35,1.7-.08.17-.43.85-.43,1.02,0,.34-.43.76-.35,1.1-.51-.08-1.02.26-1.45.34-.26,0-.43-.08-.68-.09-.51,0-1.02.08-1.45.08h-.77s0-.09,0-.09c-.42-.26-.85-.09-1.36-.18-.17-.09-1.27-.43-1.27-.68-.43.17-.68,0-1.11-.09-.59-.68-1.01-1.7-1.69-2.3-.51-.51-.5-1.53-.67-2.3-.59-2.55-1.17-5.96-1.33-8.51,0-1.19-.16-2.38-.24-3.66v-.94s.1-2.8.1-2.8v-.77c0-1.19.18-2.64.19-3.66.09-.68,0-1.36,0-2.04-.07-2.38-.4-5.02-.48-7.48,0-.68-.08-1.36,0-2.04.09-.77.26-1.61.27-2.46.6,0,.94-1.1,1.02-1.61.26.09,0,.43,0,.6.6.09.26-.68.34-1.02.09-.68.09-1.61.27-2.29,0-.08-.17-.34-.17-.6s.34-.42.26-.85c.08-.08.17-.25.34-.25,0-.51-.08-1.02,0-1.44-.09-.26-.26-.34-.34-.51-.34-.85-.08-1.53-.16-2.38,0-.26-1.11-.34-1.53-.43-1.19-.18-3.57-.36-4.76-.62-.93-.26-2.04-.43-3.14-.52-.09-.17-.43-.17-.42-.51-.17,0-.26,0-.26-.09-.34.09-1.7-.26-1.61-.52.17.08.43-.25.6-.08v.25s.34,0,.34,0c.17.09,0,.26.34.17.26-.09-.17-.17-.08-.43-.09-.34.34-.09.25-.34-.34-.34-.94,0-1.44-.09-.34,0-.68-.34-1.02-.26.08-.51.94-.34,1.53-.33,0-.42-.59-.09-.59-.09,0-.26,0-.43-.17-.43.09-.51.77-.42,1.28-.59,0-.17-.17-.08-.34-.08,0-.34.51,0,.51-.34-.17-.26-.17-.08-.26-.08s-.17-.09-.17-.09c-.17,0-.26.17-.6.08.09-.17.94-.51.94-.59.09-.43-.34.17-.43-.17-.17-.43.26-.17.26-.51.09-.25-.51.08-.43-.17-.25-.51.26-1.02-.08-1.53-.09-.26.51-.68,0-1.02.08-.17.17-.34.51-.25.09-.34-.08-.43,0-.68.51-.25,1.02-.34,1.36-.67,1.11-.08,1.62-.59,2.72-.67,0,.08-.17.08-.17.17s.51.26.42.34c-.09.09.09,0,.09.17h.68c-.09.34-.26,0-.43.17-.17,0,.09.17,0,.26,0,0-.25,0-.17.09-.08.17-.85.08-1.19.08-.42,0-1.19,0-1.53.25-.17.08-.85.34-1.02.51.09.17.85-.17,1.02-.25.17,0,.17.08.25.08.26,0,.43-.17.6-.25.26,0,.34.26.68.18.34.08.17-.34.43-.34.51,0,.77-.17,1.28-.08.34-.09-.08-.34.17-.51.51,0,1.87,0,2.21-.07.25-.08.42-.34.85-.25-.25-.25-.85-.34-1.02,0-.26-.25-1.45,0-1.7-.17.08-.34,1.53-.34,1.78-.17.34-.17.68-.25,1.11-.25.26-.09.43-.25.68-.25,0,.26.17-.26.17.17.08,0,0-.17.08-.17,0,0,.6.09.34,0,.09-.17.34,0,.68,0,.77-.08,1.36-.42,2.3-.59.59-.08,1.02-.25,1.45-.42.26-.08.68.09.85-.16.26,0,.43.17.68.17.17-.08,1.62-.59,2.21-.58.17,0,.34.08.34.17.26-.08.43-.34.68-.42.68-.08,1.36-.16,1.87-.16s1.36.09,1.95.09c.51,0,.85,0,1.02-.26-.09-.25-.85-.09-.93-.09-.17,0-.26-.17-.43-.17-.26,0-.6.25-.85.25-.17,0-.17-.08-.51-.08,0,0-.17.08-.25.08,0,0-.09-.17-.17-.08,0-.26,1.19-.5,2.22-.75.68-.17,1.28-.34,1.45-.34.34-.08.77-.25,1.11-.34h.6c.68-.08,3.74-.24,4.25-.58.26-.09-.25-.25-.08-.6h.42c.43,0,1.02.09,1.36.18.26.09.59.43.76.52.43.17.76.51,1.19.77,0,.34.34.25.25.68h.77c.43,0,0,.09,0,.26,0,.26.34.26.59.26q-.08.17.09.26c0,.43-.09.85-.09,1.1ZM302.32,305.98c-.08-.68-.16-1.28-.08-1.87.25.17.34,1.11.25,1.53,0,.17.09.43-.17.34ZM302.23,307.25c.25.25.08.85.16,1.27-.43-.25-.08-.85-.16-1.27ZM292.17,291.99c0-.17.42-.16.25.09h-.17c0-.09-.08,0-.08-.09ZM298.12,290.57c0-.34,1.7-.16,1.87-.33.34.09-.09.09-.17.17v.08c-.17.09-1.62.08-1.7.08ZM308.93,288.74c.17-.17.43-.09.77-.08h.77c.17.35-.43,0-.34.26-.34-.09-.76-.18-1.19-.18ZM310.55,288.74c-.09-.34.43-.17.51-.17.26-.08.51-.25.77-.25h.17c0,.26-1.45.51-1.45.42ZM316.67,286.9c-.08.17-.51.42-.94.34-.08,0-.34.09-.34.09-.26.25-.43.25-1.02.34,0,0-.17.09-.25.09l-.09-.09c.09.09-1.02.25-1.11.34v.09c-.26,0-.51-.17-.77-.09.09-.17.26-.17.43-.25.85-.85,2.47-.93,4.08-1.09.09.08-.17.17-.17.17,0,0,.09.09.17.09ZM345.66,171.12c-1.35,7.38-4.12,14.94-8.47,23.12-2.79,5.25-7.71,7.74-11.68,9.32-1.99.8-4.32,1.67-6.75,1.9-2.89.27-5.29,1.62-7.35,4.1l-5.58,6.72c-2.32,2.78-4.67,4.97-7.19,6.7-2.95,2.03-4.18,4.51-3.87,7.81.18,1.9.14,3.82.1,5.68-.02,1.04-.04,2.09-.03,3.13.12,7.7-3.8,13.38-11.97,17.37-7.45,3.64-15.11,3.98-22.75,1.03-2.32-.9-4.2-2.54-5.92-5.19-.38-.59-.71-1.21-1.04-1.84-.31-.6-.63-1.2-1-1.76-.1-.15-.19-.31-.29-.48-.49-.85-.6-.85-.96-.77-1.31.34-1.82.79-2.06,1.77-1.3,5.5-3.74,10.52-6.18,15.14-2.72,5.15-7.35,7.34-11.51,8.8-3.59,1.26-7.27,1.88-10.94,1.87-2.29,0-4.58-.27-6.84-.77l-.43.53.12-.6c-1.12-.26-2.23-.59-3.33-.97-6.22-2.16-10.71-6.35-12.97-12.09-.35-.89-.79-1.75-1.23-2.61-.65-1.27-1.32-2.59-1.74-4.04-.06-.2-.12-.45-.93-.37-3.32.36-6.32.3-9.17-.16-.74-.11-1.46.14-2.3.44-7.64,2.75-15.15,2.02-24.56-2.31-2.02-.93-3.42-2.61-4.62-4.29-.69-.96-1.72-1.54-2.89-1.64-1.2-.13-2.37.32-3.24,1.17-1.37,1.34-2.53,2.93-3.54,4.87-1.7,3.25-4.6,5.46-8.39,6.36-9.88,2.34-19.23.67-27.82-4.99-2.29-1.51-3.46-3.79-4.59-6-.45-.89-.91-1.78-1.44-2.61-1.92-3-3.6-6.13-5.14-9.32l-.07.35-.04-.59c-2.03-4.24-3.81-8.58-5.56-12.83-.24-.59-.48-1.17-.72-1.75l-.03.15-.02-.25c-.96-2.32-1.92-4.63-2.93-6.92-.95-2.15-1.97-4.26-2.98-6.38-2.01-4.19-4.09-8.52-5.62-13.04-.91-2.69-1.81-5.38-2.71-8.07-1.01-3.04-2.02-6.07-3.06-9.1-.62-1.81-1.04-3.67-1.45-5.48-.6-2.67-1.17-5.2-2.33-7.57-.2-.42-.31-.87-.29-1.28.1-3.54-.45-7.13-.99-10.6-.61-3.97-1.24-8.08-.94-12.24h0c.18-2.26.3-4.51.43-6.76.24-4.29.49-8.73,1.1-13.09l.06-.36c.07-.4.11-.66.02-.86-2.48-5.57-2.3-11.5.53-17.65.39-.85.74-1.74,1.09-2.62,1.21-3.07,2.46-6.23,5.51-8.3,3.54-2.4,5.46-5.9,7.5-9.61.9-1.64,1.83-3.33,2.91-4.91,3.46-5.06,7.37-10.79,12.98-15,1.7-1.28,3.3-2.81,4.85-4.28,1.35-1.29,2.75-2.62,4.24-3.82,5.22-4.19,11.01-7.69,16.62-11.07,1.19-.72,2.37-1.43,3.55-2.15,7.17-4.38,12.88-7.08,18.54-8.75,9.1-2.69,17.4-4.95,26.15-4.81,4.8.01,8.45-.48,11.88-1.73,7.05-2.57,14.92-3.22,24.76-2.04,12.51,1.49,22.52,3.67,31.49,6.84,10.45,3.7,21.5,8.05,31.56,14.78.72.48,1.45.93,2.18,1.39,1.48.92,3.02,1.88,4.42,3.04.61.51.91.56,2.01-.11l1.22-.73c6.12-3.67,12.45-7.46,19.74-9.01,3.06-.65,5.98-.58,8.67.18,5.39,1.54,8.87,6.22,8.66,11.64-.3,7.54-1.27,14.24-2.95,20.48-.8,2.97-2.11,5.81-3.37,8.56-.44.95-.87,1.9-1.29,2.86-.35.8-.32,1.24.13,1.95,1.96,3.1,3.67,6.41,5.1,9.81.94,2.26,2.15,4.22,3.67,6.01,3.58,4.19,4.78,9.43,3.48,15.14-.69,3.04-.19,4.18,2.45,5.54,1.39.72,2.78,1.45,4.16,2.18,2.75,1.45,5.59,2.96,8.43,4.3,5.36,2.53,7.01,7.48,8.13,11.93,2.76,10.89,1.46,21.61-.36,31.58Z" fill="#fb97aa"/>
  <path d="M310.18,340.36s-.09,1.02.25,1.02c0-.09.09-.09.17-.09.09-.43-.25-.68-.08-.85-.09,0-.17-.09-.34-.09Z" fill="#fb97aa"/>
  <path d="M310.89,332.2c.09-.93.09-1.44.18-2.29-.25.08-.42-.34-.42-.43s.17-.08.17-.17c-.34.09-.51-.09-.85-.09.17.51-.26.68-.26.85s.17.34.17.51h-.08s0,.42,0,.42c-.09.6,0,1.27-.09,1.79-.08.51-.17,1.02-.09,1.53.17.25.25-.17.34.08.09.17,0,.26.09.34h.17s0,.26,0,.26c.08.09.25.09.42.09.09-.43-.25-.77-.08-.94-.26,0-.51,0-.68-.17,0-.17.09-.17,0-.26.09,0,.17-.17.17-.34.08-.17-.17-.59,0-.59h.42c.08.51-.17.77.25,1.02,0-.25-.08-.59,0-.85h.09c.08-.08,0-.42.09-.59h.09s-.09-.17-.09-.17ZM310.21,332.45c-.17,0-.34-.09-.26-.26.17,0,.17.17.34.17h.09c0,.09-.09.09-.17.09Z" fill="#fb97aa"/>
  <path d="M324.79,299.68c.08-.09.25-.09.42-.17v-.08s.17,0,.17,0v-.09s.17,0,.17,0c.08-.09,0-.17.08-.34.09-.09.34-.25,0-.25-.17.17-.85.59-.85.93Z" fill="#fb97aa"/>
  <path d="M310.09,318.93c0-.26-.08-.51-.25-.51,0,.09-.17.09-.26.09.09.25.17.51.51.43Z" fill="#fb97aa"/>
  <path d="M311.08,327.01c-.34-.08-.25.17-.34.17-.17.08-.68,0-.51.34,0,.17.17.25.17.43.68.17.85-.6.68-.94Z" fill="#fb97aa"/>
  <path d="M69.3,109.03c-.07.42-.12.83-.15,1.21,1.23-4.5,2.97-8.8,4.67-13,.06-.15.12-.29.18-.44-2.23,3.45-4.1,8.39-4.7,12.22Z" fill="#fb97aa"/>
  <path d="M79.07,99.23c.04-.05.08-.1.12-.16-.04.05-.08.1-.12.16Z" fill="#fb97aa"/>
  <path d="M75.95,106.52c.41-.5.79-1.02,1.17-1.54.22-.3.44-.59.67-.88-.25-.08-.46-.22-.63-.43-.34.93-.7,1.87-1.18,2.75-.02.03-.03.06-.03.1Z" fill="#fb97aa"/>
  <path d="M119.78,255.48s.05.01.08.01l1.32.24c2.92.52,5.67,1,8.58.66,1.51-.18,2.67-.99,3.89-1.86.3-.21.61-.43.92-.64l-.5-.21.22-.78c.31-1.09,1.09-1.6,1.72-2.02.67-.45,1.12-.74,1.23-1.65.39-3.06,3.65-5.34,6.68-6,2.18-.48,4.09-1.56,5.87-2.63,2-1.21,4.5-2.71,7.87-.69.45.27.99.66,1.13,1.26.34-.02.81.11,1.19.57l.06.07c.91-.61,1.93-1.22,3.09-.95.8.17,1.5.72,2.12,1.67.19.08.49.17.81.27.52.17,1.08.35,1.43.53.56.28,1.18.15,1.89,0,.9-.18,2.02-.42,3.12.27l.36.28c.29-.22.58-.43.87-.66,1.29-.98,2.3-.48,2.92.13.21.21.37.41.49.63.55-.45,1.19-.83,2.03-.95l.54-.07.33.43c.31.42.42.88.33,1.37.34.08.67.18.98.27.41.12,1.01.33,1.21.26,1.19-.42,2.32-.48,3.42-.54.32-.02.64-.04.95-.07-.46-.5-1.08-.86-1.73-1.25l-.57-.34c-1.29-.78-1.21-1.64-.91-2.22.2-.38.83-1.22,2.33-.62,1.65.64,3.76,1.64,5.38,3.64,3.82,4.68,6.33,10.03,8.77,15.57,1.37,3.1,3,5.4,5.14,7.22,2.19,1.86,3.96,2.75,6.54,1.69.51-.21,1.15-.43,1.77-.42.44,0,.87.11,1.24.41.43.36.64.87.71,1.44,1.01-.5,2.09-.66,3.09-.81.98-.15,1.91-.29,2.69-.71.23-.13.93-.51,1.57-.13.3.17.46.43.55.69.75-.34,1.62-.61,2.69-.73,1.15-.13,2.85-.36,4.29-.95.05-.02.17-.13.26-.2.36-.31,1.22-1.02,2.3-.3.16.1.27.22.36.33.86-.78,1.93-1.61,3.57-1.3.1-.1.2-.24.23-.31.12-.46.09-.62.09-.62.02.11-.39.13-.66.15-.36.02-.72.03-1.06,0l-2.83-.28,2.45-1.44c1.62-.95,2.84-2.59,3.02-4.08.23-1.83,1.23-2.81,2.13-3.57-.05,0-.11-.02-.16-.03l-2.65-.51,2.4-1.23c.74-.38.94-.99,1.25-2.04.25-.88.54-1.89,1.4-2.66q1.19-1.06.72-3.05c-.14-.59.15-1.22.45-1.57.79-.97,1.69-1.83,2.56-2.66,1.58-1.52,3.07-2.95,3.95-4.94.48-1.1,1.69-1.74,2.75-2.31.32-.17.64-.34.92-.51.08-.05.17-.12.27-.19.45-.33,1.06-.81,1.83-.65.29.06.71.23,1.04.74.34.54.31,1.02.22,1.32-.24.83-1.1,1.23-1.66,1.5-1.8.86-2.54,1.89-2.52,3.45.34-.11.67-.22,1-.32,1.22-.38,2.37-.74,3.31-1.51l1.58-1.32-.05,1.6,1.02-.93c1.17-1.06,2.34-2.13,3.52-3.19,1.27-1.2,2.08-.84,2.56-.36.32.33.59.81.38,1.42.07.02.15.04.23.07l.65.23-.02.37c3.24-2.44,6.87-4.92,11.31-7.74l.7-.44.52.64s.02.03.03.04c.57-.71,1.3-1.49,2.54-1.74l1.22-.25-.02.22c.07-.09.14-.17.21-.26.36-.46.73-.92,1.1-1.37l.19-.24c.33-.44.75-.98,1.42-1.11q1.51-.29,2.32-1.5c.11-.15.19-.32.29-.49.42-.77,1-1.81,2.56-2.19l1.27-.31c.45-.87,1-1.68,1.84-1.89,1.42-.34,1.97-1.31,2.65-2.54.25-.44.5-.89.79-1.3.06-.08.1-.18.14-.27.19-.41.71-1.5,1.98-1.2.19.05.35.12.48.2.34-.52.87-.99,1.7-.88.34.04.44-.02.44-.02.06-.05.15-.31.2-.47.06-.19.13-.38.21-.55l.3-.64c.39-.83.76-1.61.93-2.41.3-1.37,1.38-1.78,2.1-2.04.15-.06.28-.11.39-.15-4.39-.92-8.5-2.26-12.47-4.06-5.62-2.54-11.01-6.01-16.5-10.6-1.66-1.39-2.48-1.89-3.95-1.21-.64.29-1.35.33-1.91.09-.49-.2-.85-.58-1.04-1.1-.65-1.74.99-2.41,1.52-2.63.58-.24,1.02-.4,1.46-.57,1.28-.47,2.49-.91,3.42-1.83.48-.47,1.27-1,2.16-.99.58.03,1.09.29,1.5.77,1.13,1.33-.19,2.48-.63,2.86l-.21.18c-.43.41-.5.68-.48.76.02.11.24.32.73.47,1.57.49,2.78,1.21,3.8,2.27.54.56,1.29.9,2.08,1.26.85.39,1.74.79,2.42,1.5,1.01,1.05,2.23,1.55,3.52,2.08l1.81.77c1.68.71,3.42,1.45,5,2.6.85.62,2.96-.35,4.47,1.22.12.13.56.17.92.2.75.07,2.19.2,2.58,1.7.58-.04,1.17-.03,1.74-.03,1.2-.02,2.37,0,3.45-.36.04-.01.14-.08.21-.13.35-.23,1.16-.76,2.02-.1.18.13.39.33.51.61.37-.15.73-.27,1.07-.39.46-.15.91-.3,1.31-.51,1.93-.97,3.69-1.8,5.77-2.14l.83-.12c1.8-.26,3.36-.49,4.43-1.89.34-.45.96-.52,1.08-.53l.41-.03.46.32c.07.07.13.12.18.16.05-.1.11-.27.18-.53.39-1.44,1.11-2.7,1.81-3.93.95-1.68,1.86-3.26,1.85-5.14,0-.19.03-1.18.69-1.69.28-.21.62-.29.96-.24,0-.1,0-.2,0-.29.02-.42.08-1.52.97-1.88.26-.1.51-.1.75-.07-.02-.93-.02-2.18,1.09-2.96,1.01-.71,1.29-1.66,1.56-2.93.35-1.6.66-3.21.97-4.82.24-1.24.48-2.49.74-3.73.11-.52.18-1.02.28-1.53-.46.75-1.46,2.2-3.25,2.2-.16,0-.32-.01-.49-.04-1.82-.27-2.52-1.89-2.99-2.98-1.26-2.91.09-8.01,2.67-10.12,1.68-1.37,3.14-1.05,4.06-.53.49.27.88.62,1.21,1,.21-6.12-.49-11.95-2.1-17.6-.73-2.56-1.53-3.95-2.45-4.25-.9-.31-2.38.36-4.48,1.99-6.13,4.78-10.6,10.49-13.3,16.96-3.28,7.86-4.66,15.9-4.08,23.9.5,6.95,2.75,12.37,6.88,16.57.04.04.17.12.26.19.36.24.9.6,1.02,1.27.05.29.03.73-.35,1.21-1.09,1.42-2.68.34-3.21-.01-.38-.26-.72-.57-1.06-.87l-.21-.19c-4.09-3.66-5.5-8.64-6.6-13.42-1.14-4.96-1.13-10.55,0-17.1,1.75-10.08,5.33-18.09,10.93-24.48.67-.77,1.31-1.57,1.95-2.38,1.25-1.58,2.55-3.21,4.14-4.62,1.2-1.06,2.47-1.72,3.96-2.32-.52-.27-.98-.52-1.45-.76-1.55-.84-3.13-1.62-4.71-2.4-4.6-2.26-9.35-4.61-13.19-8.43l-.27-.26c-.48-.45-1.02-.97-1.3-1.76-.48-1.34.19-1.89.64-2.1.62-.3,1.36.04,1.7.28.47.34.93.69,1.43,1.07-.24-1.03-.46-1.95-.7-2.87-.35-1.38-.68-2.77-1-4.16-.89-3.83-1.82-7.79-3.37-11.45-2.2-5.21-5.06-10-7.79-14.46-6.27-10.23-15.01-19.69-27.52-29.79-13.98-11.29-30.53-17.56-43.39-21.76-3.6-1.18-7.3-2.07-11.02-2.81,2.4.78,4.78,1.59,7.13,2.4l.27.09c7.45,2.55,13.21,5.43,18.15,9.07l.2.14c.71.51,1.89,1.36,1.52,2.86-.14.58-.75,1.85-3.05,1.87-1.57,0-3.1.49-4.56.99-2.35.81-5.44,1.48-8.53-.49-1.39-.89-2.94-1.63-4.45-2.35l-.68-.33c-13.15-6.31-27.2-9.29-37.97-11.18-11.1-1.94-21.23-2.13-30.96-.58-1.19.19-2.32.54-3.52.92-1.24.39-2.53.8-3.88,1-8.13,1.22-15.48,4.98-20.97,8.12l-1.31.75c-8.66,4.95-17.62,10.06-24.95,17.14-1.3,1.25-2.73,2.38-4.11,3.46-3.02,2.38-5.87,4.62-7.54,8.14-.11.23-.25.44-.37.67,1.59-1.64,3.25-3.06,5.02-4.27l3.98-2.71-2.69,3.99c-1,1.48-2.17,2.83-3.3,4.14-.41.48-.83.96-1.24,1.45h.15s.66.02.66.02l.19.63c.42,1.37-.5,2.1-.94,2.44-.09.07-.19.14-.26.22-.74.78-1.5,1.55-2.26,2.32-1.94,1.96-3.92,4-5.56,6.27l2.95-1.78-1.79,3.1c-.68,1.17-1.44,2.29-2.18,3.37,0,0,.03,0,.03,0l.52.03.32.47c.59,1.13-.06,2-.41,2.46l-.16.21c-1.43,2.16-2.91,4.28-4.39,6.4.06-.02.1-.06.16-.08l1.82-.63-.65,1.81c-.36,1.02-.9,1.87-1.59,2.55-.93.91-1.7,1.95-2.52,3.04-.75,1.02-1.53,2.06-2.45,2.99l-.74.73c-1.41,1.38-2.63,2.57-2.66,4.53,0,.42-.23.71-.36.89l-.5.97c.2.05.39.17.57.34.92.88.38,1.88.15,2.3-.05.1-.14.26-.15.32-.11.66-.51,1.17-.84,1.59-.14.18-.41.52-.41.63.6,1.67.35,3.36-.78,5.18-.75,1.2-.76,2.54-.77,3.94,0,.56,0,1.13-.06,1.7.59.16,1.19.63,1,1.98-.07.53-.14.93-.21,1.33l-.63,3.53.61-.59.35,1.63c.75,3.48.72,6.87.69,10.15,0,.93-.02,1.87,0,2.82.13-.03.29-.07.45-.05h.63s.22.6.22.6c1.3,3.43,1.04,6.93.76,10.32.1-.1.21-.21.34-.33l1.44-1.34.11,1.97c.1,1.86.15,3.72.19,5.59.04,1.53.07,3.08.15,4.63.09-.6.19-1.2.32-1.79l1.26-5.74.56,5.85c.07.67.12,1.34.17,2.02.04-.05.09-.1.13-.15.21-.21.64-.39,1.15-.43.62.02.98.3,1.18.53.51.59.41,1.41.33,2.01-.02.15-.04.3-.04.42-.04,2.29.02,4.58.14,6.87.14-.45.3-.9.5-1.35l2.03-4.72-.26,5.13c-.15,2.91-.05,5.84.19,8.74.14-.56.32-1.11.53-1.66l1.69-4.41.1,4.72c.05,2.19.14,4.36.27,6.5l1.47-4.05.05,5.09c.03,2.36.36,4.67.73,7.1l.85-1.82.74,2.18c.37,1.08.59,2.18.73,3.29l1.11-3.27.45,4.15c.32,2.91.99,5.82,1.63,8.63.35,1.53.71,3.08,1.02,4.66.18-.09.42-.15.68-.14.66.03,1.37.66,1.47,1.31.1.66.43,1.31.78,2,.53,1.03,1.11,2.18,1.01,3.56l.75-.32.34.9c.39,1.03.53,2.06.57,3.07.23-.06.46-.05.67-.01.97.18,1.37.89,1.21,2.12-.02.22-.05.44-.07.66.12-.2.26-.41.42-.61l1.16-1.48.46,1.82c.29,1.14.3,2.23.24,3.25.16-.17.33-.33.53-.49l.87-.68.51.98c.22.42.3.84.3,1.22.33-.16.74-.18,1.25.05.57.27.79.66.87.93.21.67-.14,1.25-.39,1.68-.07.11-.17.28-.19.35-.1.35-.24.69-.38,1.01l.51-.13.35.63c.4.72.33,1.37.14,1.89.04,0,.08.02.12.03.46.14.73.54.82,1.18.03.23.2.53.38.84.08.13.16.28.24.44.47-.42,1.18-.68,2.27-.23.87.36,1.38.82,1.57,1.43.06.18.08.35.07.52.25-.1.52-.15.78-.12.68.05,1.25.5,1.56,1.22.11.25.18.31.18.31-.03-.04.17-.12.31-.18.3-.13.7-.25,1.11-.28h.59s.24.54.24.54c.32.71.09,1.43-.08,1.95-.03.09-.07.22-.1.32ZM323.62,167.01c-.21-2.23.62-4.44,2.38-6.4.68-.75,2.27-2.52,4.57-1.76,2.08.7,2.35,2.81,2.5,3.95.27,2.02,0,4.05-.8,6.01-.5,1.24-1.54,3.79-4.38,3.78-.06,0-.11,0-.17,0-2.33-.09-4.16-2.58-4.11-5.57ZM303.57,132.27c3.2-4.22,7.15-8.84,13.61-10.18l.75-.15c1.7-.03,2.06,1.05,2.12,1.53.12.93-.48,1.73-1.48,1.94-5.23,1.15-8.81,4.73-12.31,8.62-.27.3-.86.95-1.65.95-.24,0-.5-.06-.77-.22-.38-.21-.64-.55-.72-.95-.1-.49.05-1.03.45-1.55ZM259.06,111.22c2.23-2.75,4.56-4.66,7.14-5.85.31-.14,1.26-.57,2.11-.14.36.18.82.58,1,1.47l.05.22-.06.22c-.27.93-.95,1.4-1.45,1.75-.22.15-.43.29-.56.45-1.21,1.4-2.49,2.75-3.77,4.09l-.83.87c-.32.33-.98,1.03-1.83,1.03-.4,0-.84-.16-1.3-.58-1.58-1.46-1.15-2.72-.5-3.51ZM188.84,80.56c.32-1.72.76-3.44,1.19-5.1.4-1.55.8-3.1,1.11-4.67.89-4.56,3.35-8.34,5.8-11.82,3.02-4.29,7.76-5.95,11.95-7.42,12.34-4.32,21.97,1.38,30.54,8.19,1.36,1.09,2.64,2.25,3.8,3.46,1.33,1.39,1.96,2.82,1.86,4.24-.09,1.38-.87,2.66-2.29,3.79-9.23,7.29-16.31,17.06-22.31,30.74-.28.63-.47,1.3-.67,2.02l-.3,1.06c-.2.74-.56,2.1-2.32,2.09h-.08c-.11.04-.18.27-.23.42-.08.26-.17.56-.35.84l-.14.26c-.22.43-.79,1.47-1.95,1.3l-.34,1.23-.1-1.35c-.11-.04-.22-.07-.34-.09-.45-.11-1.11-.28-1.58-.84.02.21.04.43.07.64.19,1.52-.61,2.19-1.36,2.3-.09.01-.18.02-.27.02-.43,0-.73-.17-.91-.31-.55-.45-.61-1.17-.64-1.6-.31-4.14-1.4-8.22-2.45-12.16-1.18-4.42-2.4-9-2.58-13.76-.22-5.87-.25-11.6,1.82-17.15,2.87-7.71,11.59-11.25,18.37-10.23,2.31.35,4.41.83,6.34,1.45-3.06-1.72-5.83-2.9-8.56-3.63-4.81-1.29-9.39-.19-14.76,1.87-6.42,2.45-10.33,7.51-12.68,16.37-.21.81-.38,1.63-.54,2.46l-.14.69c-.03.14-.06.23-.07.3,1.12,1.52,1.84,2.91.75,5.22-.65,1.37-.54,2.84-.42,4.39.1,1.4.21,2.84-.22,4.3,2.11,1.63,1.49,3.69,1.03,5.21-.08.25-.15.51-.22.76-.03.13-.09.26-.15.38l.32-.04.52.48c.36.44.38,1.08.23,1.51l-.49,1.51c-.54,1.69-1.11,3.44-1.79,5.12-.47,1.14-1.61,2.27-3,2.02-1.37-.24-1.59-1.57-1.71-2.27-.02-.15-.05-.29-.08-.42-2.04-8.42-.99-16.75.31-23.78ZM111.71,66.19l1.41-1.49c10.06-10.56,22.55-18.69,38.19-24.86l2.12-.83-.93,2.07c-.82,1.81-2.35,2.65-3.89,3.3-12.08,5.06-22.89,12.08-32.14,20.87-.56.56-1.14,1.03-2.49,1.02-.07,0-.14,0-.21,0l-2.05-.08ZM116.57,74.56c-.41.46-.85.89-1.32,1.3-.27.24-.59.31-.83.36l-.88.26-.48-.83c-.35-1.17.26-1.84.55-2.15,5.59-6.31,13.18-14.17,23.02-19.75.67-.38,1.39-.69,2.1-1l.73-.32c1.09-.49,1.84.01,2.15.6.14.26.51,1.21-.6,2.09-.38.3-.79.59-1.23.82-8.14,4.22-15.73,10.31-23.22,18.63Z" fill="#fb97aa"/>
  <path d="M310.4,328.2c0,.25.25.34.51.34,0-.25-.26-.34-.51-.34Z" fill="#fb97aa"/>
  <path d="M327.73,168.9s.15-.1.38-.4c.81-1.03,1.21-2.24,1.22-3.7v-.38c.02-.2.03-.39,0-.53h0c-.05,1.42-.32,3-1.92,3.93-.27.16-.32.26-.32.26,0,0,.02.17.45.65.1.11.16.15.18.17Z" fill="#fb97aa"/>
  <path d="M238,70.38c-.62.26-1.22.22-1.63-.11-.16-.13-.39-.39-.45-.8-1.01.14-1.44-.59-1.56-.86-.49-1.09.44-1.8.74-2.03.62-.5,1.18-.96,1.44-1.23-.31-.24-.95-.63-1.53-.98-.26-.15-.53-.27-.79-.41.29.34.49.72.49,1.16,0,1.57-1.37,1.89-2.11,2.06-.3.07-.64.15-.79.26l-.42.32-1.37-.58c-.64-.27-1.24-.51-1.84-.78-2.03-.9-3.52-1.08-5.13-.67-1.01.26-1.98.12-2.93-.03-.73-.11-1.41-.21-2.06-.12-.58.08-1.16-.18-1.43-.71-.29-.57-.16-1.3.31-1.79l.24-.25c.77-.81,1.95-2.04,3.7-1.33,1.84.74,3.7.51,5.61.19,1.11-.19,2.04.24,2.77.59.25.12.5.24.77.33.27.09.49.23.68.35.14.08.33.25.37.18.49-.12,1-.13,1.47-.06-2.85-1.34-5.9-2.19-9.11-2.5-8.47-.82-14.23,3.97-15.39,12.84-.96,7.39-.33,14.93,1.94,22.95-.05-1.44-.05-2.92,0-4.43.03-.91.48-1.51,1.34-1.8l.77-.26.35.74c.7,1.45.71,2.96.73,4.42,0,.12,0,.25,0,.36.15-.18.33-.33.57-.42.25-.11.65-.18,1.15.03.85.36,1.1,1.14.73,2.3l-.21.7c-.14.48-.29.95-.37,1.42h.02c.25,0,.6.08.95.43.19.2.31.41.38.62.34-.41.72-.8,1.12-1.18.31-.29.39-.51.39-.59,0-.07-.08-.19-.22-.3-.73-.62-.57-1.46-.49-1.92.37-2.33.95-4.41,1.74-6.27-.19-.03-.4-.1-.61-.23-.56-.34-1.09-1.01-.42-2.25.04-.07.08-.14.11-.21.17-.42.44-.77.67-1.08.57-.74.58-.8.18-1.21-.62-.67,0-1.58.26-1.85,1.09-1.12,2.1-2.38,3.08-3.61,1.67-2.09,3.39-4.25,5.67-5.92.61-.45,1.28-.65,2.06-.56,3.52.36,6.23-1.19,8.44-3.07-.13.06-.26.11-.38.17Z" fill="#fb97aa"/>
  <path d="M329.16,162.92s0-.02-.01-.03c0,.02,0,.03,0,.03,0,0,0,0,0,0Z" fill="#fb97aa"/>
  <path d="M310.95,340.28c0,.17.17.25.34.34,0-.17-.09-.43-.34-.34Z" fill="#fb97aa"/>
  <path d="M314.17,320.73c-.09,0-.09-.09-.26-.09-.08.34-.43.34-.68.42.17.34-.09.43-.17.51-.09.08.08.17.08.17v1.02c0,.08-.09.17-.09.26,0,0,.17.25.17.34,0,.51.25,1.02.08,1.53.09,0,.34.25.34.34-.26,0,.08.34.08.43.26,0,.17-.17.43-.09,0-.09-.09-.17-.09-.25s.17-.09.17-.09c.09-.26,0-.68.09-1.02,0-.17.08-.34.08-.51s-.08-.43-.08-.6c0-.76-.16-1.53-.16-2.38Z" fill="#fb97aa"/>
  <path d="M314.95,314.95c0-.17.17-.25.17-.34.08-.34-.17-.51-.17-.77,0-.42.17-1.02.17-1.36,0-.68-.25-1.53-.16-2.21,0-.17.17-.34.17-.51,0-.59.09-2.38-.08-2.55-.08-.09.09-.09.09-.09,0-.51.18-1.44-.08-1.95h-.34c-.17.34.09.42-.17.68-.17.17.09.43.08.68-.17.08,0,.17,0,.25,0,.17-.09,1.19-.18,3.06,0,0,.09.09.09.17,0,.17-.17.26-.17.42,0,.09.17.17.17.34l-.09.08c-.08.34.17.77.17,1.11,0,.17-.09.34-.09.51,0,.25.17.51.17.85,0,.42.08.85.08,1.27h-.17c-.09.09.17.09.17.09,0,.09-.09.09-.09.09,0,.08.09.08.09.08.08.26-.09.51.25.6.26-.17-.08-.43-.08-.51Z" fill="#fb97aa"/>
  <path d="M292.41,294.21c.17,0,.17.08.34.08-.17-.43.43-.16.43-.51-.08,0-.17-.17-.17-.26-.43.09-.85.08-1.02.34q.34.09.42.34Z" fill="#fb97aa"/>
  <path d="M314.86,315.98c-.17.17-.08.34.26.25,0-.17-.17-.25-.26-.25Z" fill="#fb97aa"/>
  <path d="M313.07,318.6c.25,0,.25-.17.6-.08.17.17.08.59.42.59.17,0,0-1.02-.08-1.27-.26,0-.43,0-.51-.09.34-.26-.08-.34.09-.77-.09,0-.26,0-.26-.09,0-.25.34-.17.26-.51,0,0-.5-1.28-.08-1.19-.17-.43-.08-.6.09-.77.09,0-.09-.17-.09-.17.09-.25,0-.25.17-.34-.09.26.16,1.28.25,1.36.17-.43.09-.93.09-1.45,0-.17.09-.77.09-.77,0,0-.08,0-.08-.08,0,0,.34-.26.09-.93.09,0,.09-.09,0-.09q0,.09-.08.09c.08-.34-.09-.34.34-.42-.08-.77.09-1.44-.16-2.3,0-.17.17-.25.17-.42,0,0-.51-.68-.42-.77.34-.59.43-1.19.18-1.87v-.51c0-.17-.17-.43-.17-.43l.26-.09c.08-.08-.09-.25-.09-.34-.25-.09-.17.17-.34.17.09-.34-.43-.17-.34-.51-.26-.25.17-.17.17-.43-.09,0-.34-.17-.34-.34.17-.09,0-.09-.09-.25,0,0,.17-.09,0-.17,0-.08.17-.17.17-.25.09-.17-.17-.34.09-.43.6.09.25.68.42,1.02.25,0,.25-.34.59-.34-.17-.34-.08-.68.09-.93-.6,0,.09-.17-.17-.34-.76-.17-1.87.08-2.64.16-1.19.17-2.38.33-3.49.5,0,.42.34.51.42.77-.17.17,0,.51,0,.77,0,.34.08.68.08.93-.09,0-.09-.08-.26-.08.09.17-.17.6.08.6-.17-.43.25-.34.25,0v.17s.08.43,0,.43c-.34.09-.08-.51-.42-.43,0,.26-.17.43-.17.68.08,0,.34.6.34.68,0,.34-.17.42-.17.76,0,.17.17,0,.17.25.08.34.08.85.08.94,0,0,.09,0,.09.08,0,0-.26,0-.17.85,0,.17.17.17.17.25,0,0-.09.17-.09.34,0,.08.09.08.09.08,0,.09-.09.09-.09.09.17.6,0,1.11,0,1.44h.09c.59.6-.26,2.21.42,2.3.25-.25-.51-1.19.09-1.27,0,.51.08.68.25,1.11-.17.34,0,.42,0,.77,0,.17-.17.17-.09.34,0,.17.17.26.26.34-.09,0-.26.68-.17.84,0,.34.25.26.34.51-.17.34,0,.17.08.34.09.09,0,.34.09.43l.17.09c.17.25.17.17.59.26-.09-.34.09-.59.09-.93,0-.51-.17-1.61,0-1.61-.09.17.34.25.42.34.09.09-.08.34.17.25.43-.25-.08-1.36.26-1.7,0,.68.08,1.28.16,1.7,0,.09.09.17.09.26s-.09.08-.09.08c0,.09.09.09.09.09v.26c.42-.08.34-.51.34-.93v-.09c0-.25-.08-.43-.08-.77,0-.17.09-.43.09-.59-.34,0-.08-.94-.25-1.11.17,0,0-.34.17-.34.26,0,.26.25.34.42h.09s0,.17,0,.17h.09c.17.17-.09.94.08,1.19-.68,0,0,.85,0,1.19,0,.17-.08.42-.09.59s.17.26.17.43c0,.34-.09.68,0,1.11.17,0,.25.09.17.17ZM313.62,308.57h.17s0,.17,0,.17h-.17s0-.17,0-.17ZM313.51,313.16c.26,0,.17.51.08.6-.26-.08.09-.34-.08-.6ZM309.1,311.79l.09-.09c.08,0,.25.25.17.34,0,0-.26-.09-.26-.25ZM309.2,308.3c0-.17.08.09.08.25v.09s-.08-.17-.08-.34ZM309.2,306.26h-.09c0-.17.09-.26.09-.43.08,0,.17.17.17.26s0,.17-.17.17ZM309.29,305.58c-.34-.08-.17-.68-.25-.68,0-.17.26-.09.26-.25.09,0,.17.25.09.25.17.17,0,.51-.09.68ZM309.47,304.22c-.34-.17.09-.34-.17-.6h-.08c0-.08.08-.43.09-.6.26.09.17.43.17.68,0,.17.09.43,0,.51ZM310.97,312.22q-.08,0-.08.08c-.09,0-.17-.25-.17-.34.17,0,.26.17.26.26ZM310.95,315.36s-.08-.17-.08-.25c0-.17.08,0,.08.17v.08ZM310.96,314.09c-.26-.17-.17-.68-.25-1.02.34-.08.34.85.25,1.02ZM311.51,302.86c.34,0,.09.08.17.26.09.17,0,.34-.17.34,0-.26-.08-.51,0-.6ZM311.75,306.52c-.26.08-.09-.43-.09-.43,0-.09-.34-.51-.08-.68.26,0,.25.85.17,1.11ZM311.76,304.57c0,.25-.09.85-.09.25,0-.08-.08-.25-.08-.34s.26-.08.26,0c0,0-.09,0-.09.09ZM312.17,309.07c.08-.17-.25-.6-.08-.85,0,0,.26,0,.17-.08.17.08.25,1.02-.09.93ZM312.61,304.57c0,.17-.34.09-.34,0-.08-.17.09-.17.09-.25-.09-.26-.17-.43-.17-.6h.17c.08-.08.08-.34,0-.25.08-.17.17,0,.25,0,.09.17,0,.43.17.43-.09.17-.43.51-.18.68Z" fill="#fb97aa"/>
  <path d="M313.7,331.45l-.08.08c-.17.17-.09.51-.09.85.17,0,.26-.09.26-.17-.09-.25.34-1.36-.08-1.27-.26.08.09.34,0,.51Z" fill="#fb97aa"/>
  <path d="M315.17,324.14s.09.09.09.17h-.09c-.08.08,0,.34-.08.42.08,0,.08.09.08.26.34,0,.52-1.36.09-1.36,0,.26-.09.34-.09.51Z" fill="#fb97aa"/>
  <path d="M312.17,331.44c-.17.26-.34.42-.26.85.25.09.17-.09.42-.09-.08-.25.17-.76-.17-.76Z" fill="#fb97aa"/>
  <path d="M314.86,316.48v.51c.42.09.34-.51,0-.51Z" fill="#fb97aa"/>
  <path d="M310.77,318.59h-.17c0,.09-.09.17-.09.34h.17c0-.09.09-.17.09-.34Z" fill="#fb97aa"/>
  <path d="M312.01,329.31l-.08-.77c-.09,0-.09-.09-.26-.09-.17.26-.35,2.21,0,2.13.17,0,.09-.43.34-.42.09,0,.09.08.26.08.17-.26.26-.59.26-1.02.09,0,.17,0,.17-.08-.17,0-.26-.17-.43-.17-.09.09,0,.43-.26.34Z" fill="#fb97aa"/>
  <path d="M312.38,320.05s-.08,0-.08-.09c0,0,.17-.09,0-.09,0-.17-.17-.25-.26-.25-.17.25-.26,1.1-.51,1.02.17.26.08.43.08.6,0,0,.17.08,0,.08s-.25.09-.42.09l-.25-1.53c.09-.08-.08-.08-.08-.08,0-.08.17-.08.08-.26,0-.09-.34-.17-.17-.25,0-.09,0-.17-.17-.17-.17.26-.09.43-.17.6-.17-.17-.09,0-.34,0,.08.34-.18.59-.18.85,0,.17.17.26.25.42-.08.09-.26,1.1-.26,1.19s.09.09.09.09c0,.17-.09.59-.09.68,0,.17.09.25.09.43l-.09,1.19c0,.34.08.85.08,1.27.34.09,1.02-.42,1.19-.5,0-.17.08-.43.08-.43,0-.17-.08-.43.09-.51.25,0-.17.68.25.51h.26c.17-.17,0-.59.17-.76.17.17.08.59.25.77.34.08.34-.76.35-1.53v-1.11c0-.17.09-.17.09-.34s-.17-.26-.17-.43c-.08-.51-.08-1.11-.16-1.45Z" fill="#fb97aa"/>
  <path d="M339.39,164.48s.06-.21.12-.34c.07-.14.14-.29.22-.42.26-.44.41-.91.5-1.41-.31.31-.69.56-1.13.74-.2.08-.25.14-.25.14,0,.05.04.3.07.46.07.42.22.77.48.84Z" fill="#fb97aa"/>
  <path d="M307.94,302.85h-.25s.08.93.08.93c.43,0,0-.51.17-.93Z" fill="#fb97aa"/>
  <path d="M232.81,36.06c-.06-.02-.18-.06-.4.09-.22.13-.43.26-.63.38.74.34,1.47.68,2.19,1.04-.09-.17-.19-.34-.28-.54-.31-.62-.65-.91-.87-.97Z" fill="#fb97aa"/>
  <path d="M309.76,340.44c-.17.17.17.34.17.34.09-.08-.09-.34-.17-.34Z" fill="#fb97aa"/>
  <rect x="314.91" y="302.96" width=".17" height=".17" transform="translate(10.77 616.9) rotate(-89.78)" fill="#fb97aa"/>
  <path d="M238.02,39.8c-.06-.32-.03-.62.1-.89.06-.13.14-.23.22-.32-.54.25-1.01.44-1.42.56.37.21.74.43,1.1.65Z" fill="#fb97aa"/>
  <path d="M283.39,50.76c-.06.03-.11.06-.17.09.15.05.29.14.42.25.22.19.37.42.45.68.79-.6,1.89-1.05,3.34.11.61.49.86.99.91,1.46.21-.08.42-.12.64-.12.09,0,.17,0,.26.02.94.15,1.47.98,2.35,2.35.98,1.53,1.46,3.06,1.46,4.64,2.55-5.52,5.88-9.98,10.13-13.62,1.64-1.41,3.53-2.25,5.6-2.5.69-.08,1.33-.1,1.91-.03-.62-.42-1.31-.76-2.05-1.01-2.93-.98-6.04-.91-9.51.21-5.31,1.7-10.28,4.45-15.09,7.12l-.67.37Z" fill="#fb97aa"/>
  <path d="M315.09,302.03h-.34c0,.16-.17.76.08.93.08-.34.51-.5.26-.93Z" fill="#fb97aa"/>
  <path d="M241.14,41.95s.03.01.04.03c.2-.58.7-.91,1.07-1.1-.47-.29-.86-.21-1.34.04-.26.14-.53.23-.8.27.35.25.69.5,1.03.76Z" fill="#fb97aa"/>
  <path d="M303.6,303.17c0-.26.09-.26-.17-.34,0,.17,0,.34.17.34Z" fill="#fb97aa"/>
  <path d="M293.6,295.74c0,.26-.94.26-.94.6.08,0,.08.08.08.17.43.09.43-.16.77,0,0-.51.68-.25.68-.42-.09-.08-.26,0-.43-.08-.08,0-.08-.17-.17-.26Z" fill="#fb97aa"/>
  <path d="M293.17,295.23c-.25,0-.34.16-.51,0,0,.34-.6.16-.68.42.25-.08,1.36,0,1.19-.42Z" fill="#fb97aa"/>
  <path d="M306.41,304.29l.17-.17c0-.17-.17-.25-.17-.34.34.09.25-.17.34-.34-.17-.09-.17-.26-.17-.51h-1.11c-.17.34.25.51.25.6s-.08.08-.08.08c0,.08.25.34.17.51.17,0,.17-.17.08-.34.17.25.26-.17.34.09-.25.25.08.68.08.93,0,.17-.17,0-.17.09-.09.17.17.6-.09.68-.17-.08-.08-.42-.17-.59,0-.09-.17,0-.17-.09-.08-.25.09-.25,0-.51-.08,0-.25.34-.34.42,0,0,.09,0,.09.09,0,0-.09,0-.09.09,0,.17-.09.34-.09.51,0,.26-.08.42-.09.6,0,.25.42.34.34.59.09.17-.17,1.02-.26,1.87-.08.34-.09.6-.09.85,0,.43.08.85.34.85.43-.17.09-1.62.09-2.13,0-.26.25-.43.08-.51-.08-.09.09-.09.09-.09.08-.34-.08-.59.09-.77,0,.09.17.09.26.09v.43c0,.08.08.08.08.17q-.17,0-.25.09c.08.26.17.43.17.77l-.26.51c-.08.25.17.34.17.59,0,0-.34.42,0,.43,0-.17.17-.17.26-.25,0-.09-.09-.17-.09-.26,0,0,.26-.17.26-.25.26-.85-.08-.85-.08-.85,0,0,.08,0,.08-.17,0-.09.09-.09.09-.09,0-.34-.08-.51.17-.68.08-.09-.08-.51-.08-.6,0-.25.09-.08.09-.34s-.17-.43.09-.77c-.17-.17-.42-1.02-.42-1.27Z" fill="#fb97aa"/>
  <path d="M221.75,32.18c-.1.11-.22.12-.35.11-.03.02-.05.05-.08.08l.52.19s0-.02,0-.03c-.02-.12-.05-.29-.08-.34Z" fill="#fb97aa"/>
  <path d="M301.61,313.46h.26s0-.25,0-.25h-.17c0,.09-.08.09-.08.25Z" fill="#fb97aa"/>
  <path d="M275.82,253.44c.4-.11.81-.42,1.24-.74.99-.75,2.34-1.78,4.48-.83.32.13,2.1-.69,2.69-2.05.28-.65,1.08-1.38,1.88-1.31,1.84.13,2.71-1.26,3.62-3.21,1.65-3.52,1.5-7.22,1.34-11.15-.04-1.04-.09-2.1-.09-3.17-.21.31-.4.64-.59.97-.17.29-.33.58-.51.86-.21.32-.42.72-.63,1.12-.74,1.38-1.44,2.69-2.59,2.71-.55,0-.87.35-1.4.94-.6.68-1.39,1.62-2.86,1.49-.1.12-.23.31-.31.43-.39.55-.82,1.19-1.53,1.27-.35.05-.72-.08-1.02-.34-.09-.08-.17-.17-.24-.25-.8,1.27-1.89,2.53-4.03,2.52h-.01c-.1.15-.17.25-.24.32-.06.07-.11.15-.17.24-.29.41-.98,1.38-2.16.93-.18-.07-.38-.17-.56-.33-.7.86-1.7,1.71-3.27,1.36-1.65,1.65-3.72,2.13-5.74,2.6-.34.08-.68.16-1.02.24,1.07.56,2.83,1.77,2.1,4.12.31.11.56.28.75.5.46.53.45,1.18.39,1.7.47-.31,1.08-.62,1.91-.5,3.08.46,5.88.32,8.57-.44Z" fill="#fb97aa"/>
  <path d="M303.34,305.39c-.09-.26.17-.17.08-.43-.34-.17-.25.43-.08.43Z" fill="#fb97aa"/>
  <path d="M310.01,339.94h.17c.08-.17,0-.17-.17-.26v.26Z" fill="#fb97aa"/>
  <path d="M190.23,27.57c-.2,0-.41.02-.61.04,7.31.61,14.48,1.54,20.7,2.4.36.05.72.14,1.09.24,1.09.27,1.69.39,2.26-.19-7.52-2-15.14-2.82-23.44-2.49Z" fill="#fb97aa"/>
  <path d="M82.33,91.29c.58-.79,1.18-1.59,1.84-2.35-.29-.04-.57-.16-.85-.4-.03-.03-.04-.06-.07-.09-.13.34-.28.66-.41,1-.34.85-.68,1.72-1.05,2.59.18-.24.36-.49.55-.74Z" fill="#fb97aa"/>
  <path d="M310.54,335.6c-.17,0-.17-.08-.34-.08.08.26,0,.34,0,.6.17,0,.42-.34.34-.51Z" fill="#fb97aa"/>
  <path d="M86.18,82.51l-.07.11s.07-.09.1-.13c.78-.84,1.24-1.41,1.39-1.95-.5.61-.97,1.27-1.43,1.97Z" fill="#fb97aa"/>
  <path d="M311.87,60.74c-1.66-.3-1.37-2.02-1.28-2.58l.05-.31c.09-.83.24-1.65.38-2.47.27-1.48.51-2.87.43-4.3-.06-1.1-.31-2.51-1.13-3.01-.81-.49-2.17-.05-3.16.4-.29.13-.58.36-.9.59-.34.26-.68.51-1.06.7-1.82.95-2.51,2.61-3.3,4.52-.13.31-.26.63-.4.95.16.03.33.08.5.18l.29.14.14.3c.42.92-.02,1.63-.25,2.01-.06.1-.13.21-.15.27-.04.11-.09.21-.14.3l.18.02.37.61c.23.53.07,1.19-.21,1.57-1.54,2.06-2.02,3.31-.57,4.89.46.49.23,1.13.1,1.51-.13.43-.18.78-.03,1.03.13.22.39.32.59.37.81.19,1.34.54,1.6,1.06.39.77.03,1.59-.21,2.12-.09.2-.19.4-.3.6-.16.3-.3.57-.36.82-.06.24.03.39.52.89.04.04.08.09.12.13.03-.05.07-.09.1-.14.8-1.14,1.64-1.42,2.49-.82.34.24.53.5.63.78.12-.03.25-.04.37-.04.27,0,.53.07.76.21.54.33.74.97.51,1.62-.09.25,0,.49.24,1.01.02.05.05.1.07.16,2.68-5.41,3.94-11.15,4.57-16.71-.29.43-.79.77-1.59.61Z" fill="#fb97aa"/>
  <path d="M310.35,340.02c.25.17.25-.34.08-.34,0,.17-.08.17-.08.34Z" fill="#fb97aa"/>
  <path d="M291.55,298.37c.25.09-.34.17-.34.34.17-.08,1.27.68,1.19-.08-.17-.17-.51-.6-.85-.26Z" fill="#fb97aa"/>
</svg>