<?xml version="1.0" encoding="UTF-8"?>
<svg id="Layer_1" data-name="Layer 1" xmlns="http://www.w3.org/2000/svg" viewBox="0 0 70 61">
  <path d="M30.5,0h39.5v61H30.5C13.67,61,0,47.33,0,30.5H0C0,13.67,13.67,0,30.5,0Z" fill="#365846"/>
  <g>
    <path d="M42.99,45.91c-.28.31-.65.39-1.02.5-.75.21-1.43.61-2.22.68-1.13.1-2.23.42-3.37.52-1.07.1-2.15.16-3.23.12-.71-.03-1.42.03-2.11-.17-.77-.23-1.56-.35-2.34-.51-.24-.05-.48-.13-.69-.25-.06-.03-.13-.06-.19,0-.07.07,0,.12.04.17.14.19.25.39.25.64,0,.05.03.12.06.14.95.48,1.4,1.53,2.31,2.05.18.1.36.18.55.26,1.35.53,2.75.87,4.18,1.01.47.05.98-.04,1.47-.07.21-.02.24-.17.17-.33-.11-.25-.02-.45.16-.57.18-.12.35,0,.51.14.2.18.46.24.7.29,1.52.34,3.04.33,4.54-.15.13-.04.13-.04.44.09-1.38,1.26-2.98,1.17-4.67.87.22.24.49.31.73.37,1.19.29,2.4.3,3.48-.34.62-.37,1.27-.74,1.79-1.27.23-.24.55-.38.73-.69.1-.17.26-.09.26.1-.01.54.33.86.71,1.16.36.29.79.51,1.12.81.9.81,1.99,1.31,2.95,2.01.33.24.69.39,1.07.48.2.05.22.15.25.31.03.2-.07.28-.23.33-.62.18-1.2.02-1.75-.23-1.07-.5-2.14-1.02-2.98-1.9-.12-.13-.23-.35-.41,0-.11.21-.48.13-.59-.1-.17-.37-.47-.66-.61-1.06-.09-.25-.2-.07-.3,0-.79.56-1.6,1.09-2.54,1.36-1.17.34-2.32.46-3.45-.19-.99-.57-2.06-.58-3.16-.42-.49.07-.98-.08-1.46-.17-.96-.18-1.01-.17-1.11.77-.03.3-.06.6-.19.88-.12.25-.35.4-.6.36-.25-.04-.31-.32-.32-.56-.01-.51-.02-1.01-.02-1.52,0-.25-.11-.36-.34-.44-1.02-.36-2.01-.76-2.83-1.51-.8-.73-1.51-1.52-2.01-2.49-.07-.14-.19-.27-.27-.41-.07-.11-.13-.09-.23-.03-1.22.72-2.55,1.13-3.95,1.33-.21.03-.42.12-.63.16-.88.15-1.75.19-2.48-.44-.46-.41-.67-.99-.89-1.54-.43-1.07-.73-2.16-.86-3.31-.06-.53.09-1.02.13-1.53.06-.85.12-1.69.47-2.52.23-.56.28-1.21.44-1.82.28-1.1.54-2.2.82-3.29.21-.8.33-1.62.46-2.44.04-.25-.05-.51-.22-.68-.48-.5-.7-1.15-1.15-1.68-.39-.45-.81-.89-1.08-1.42-.32-.63-.74-1.22-.8-1.95-.06-.75.27-1.4.59-2.06.23-.47.54-.88.87-1.28.14-.17.12-.25-.12-.27-.26-.02-.51-.07-.77-.11-.35-.05-.47-.26-.46-.6.02-.4.29-.32.53-.31.56.03,1.11.1,1.57.48.23.2.48.02.63-.12.2-.19,0-.16-.35-.38-.12-.08-1.83-.52-2.01-.55-.1-.02-.25,0-.27-.14-.02-.14.13-.2.23-.26.55-.35,2.05.35,3.09.54.26.05.89-.06,1.12-.16.12-.05.26-.08.4-.09.58-.03.69.06.94.58.1.21.09.53.33.63.47.19.98.24,1.49.24.1,0,.12-.09.14-.17.23-.68.96-1.1,1.65-.99.25.04.52.05.78.03.54-.04.97.14,1.27.59.1.14.19.2.37.13.27-.1.52.14.47.43-.03.21-.12.44-.28.53-.23.13-.25.33-.23.52.05.6-.11,1.16-.36,1.67-.45.92-.35,1.78.14,2.6.47.79-.13,2.5-.8,2.92-.23.14-.5.26-.73.09-.23-.17-.16-.47-.06-.68.26-.52.19-.96-.13-1.44-.76-1.13-.87-2.35-.41-3.62.01-.04.03-.08.06-.11.55-.59.54-1.32.49-2.05-.02-.31-.16-.57-.36-.81-.05-.06-.13-.12-.22-.09-.11.03-.07.13-.07.21.03.44.02.88.11,1.3.14.63,0,1.21-.2,1.8-.08.23-.18.28-.42.24-.64-.11-.99-.48-1.08-1.11-.02-.15-.02-.32-.25-.29-.63.1-1.22-.04-1.8-.29-.07-.03-.16-.06-.25,0,.14.27.38.45.61.64.82.68,1.11,1.6,1.1,2.61,0,.43-.33.75-.68.98-.21.14-.16.22-.02.37,1.13,1.27,1.15,2.09.65,3.28-.43,1.03-.37,2.11-.24,3.19.13,1.01.31,2.02.39,3.04.03.36.11.72.18,1.17.46-.53.98-.92,1.14-1.57.08-.31.32-.44.55-.57.7-.38,1.28-.92,1.82-1.48.51-.53.95-1.12,1.29-1.78.17-.32.48-.55.72-.83.76-.92,1.65-1.68,2.84-1.99.63-.17,1.28-.26,1.93-.35,1.22-.17,2.44-.34,3.32-1.33-1.58-.95-2.71-2.32-3.54-3.97-.34-.68-.54-1.39-.78-2.09-.08-.22-.2-.33-.47-.41-.65-.19-1-.75-1.21-1.38-.16-.48-.11-.97-.11-1.46,0-.13.02-.27-.1-.38-.37-.35-.44-.81-.43-1.28,0-.35.05-.71.09-1.06.01-.12.05-.26.19-.29.16-.03.14.13.19.21.12.2.22.41.37.59.37.45.79.69,1.13-.11-.4.11-.76.05-1-.25-.3-.38-.51-.81-.4-1.32.05-.23.08-.46.14-.68.04-.14.09-.32.28-.28.16.03.3.13.3.34,0,.43.22.72.58.93.3.17.52.1.66-.22.09-.2.14-.41.23-.61.12-.27.07-.49-.11-.72-.66-.85-.9-1.82-.94-2.89-.04-.89.42-1.54.87-2.18.33-.47.97-.41,1.48-.56.17-.05.37-.06.53,0,.42.14.59-.09.7-.42.41-1.25,1.46-1.63,2.6-1.81.77-.12,1.56-.2,2.36-.15,1.17.07,2.2.37,3,1.34.35.42.88.69,1.15,1.2.09.16.24.09.36.03.71-.35,1.43-.23,2.15-.06.73.17,1.39.53,1.99.93.63.42,1.16,1.01,1.4,1.76.26.86.6,1.7.7,2.6.04.32.05.62-.04.93-.04.13-.06.27-.09.39-.24.84.46,1.2.88,1.65,1.04,1.16,1.6,2.43,1.18,4.01-.07.28-.08.57-.18.84-.07.19.07.33.19.47.69.82,1.08,1.77,1.01,2.85-.05.78-.29,1.51-1.17,1.73-.53.14-.54.58-.59.96-.15,1.02-.85,1.75-1.88,1.94-.4.07-.77.23-1.19.45.68.19,1.31.35,1.91.55.83.27,1.61.61,2.35,1.1.65.43,1.08,1.02,1.58,1.57,1.1,1.22,1.68,2.71,2.16,4.21.62,1.93.95,3.93,1.24,5.93.06.42-.15.62-.47.76-.23.1-.23.21-.18.44.11.48.16.97.19,1.46.08,1.1.06,2.21.09,3.31.02.6-.35,1.09-.34,1.68,0,.16-.03.33-.06.49-.02.13-.05.29-.23.29-.16,0-.25-.13-.27-.27-.06-.35-.14-.7-.15-1.05-.04-1.3.02-2.6-.1-3.9-.04-.41-.13-.81-.17-1.22-.02-.19-.11-.18-.25-.13-.84.28-1.66.61-2.52.83-.73.19-1.49.32-2.26.23-.51-.05-.53,0-.5.51.01.22.05.43.07.65.06.81.05.74.95,1.06.87.3,1.77.57,2.54,1.12.19.14.4.24.57.39.18.16.29.39.14.62-.16.26-.34.06-.53,0-1.1-.4-2.16-.88-3.33-1.1-1.59-.29-3.09-.88-4.56-1.62-1-.5-1.48-1.25-1.85-2.2-.34-.87-.86-1.65-1.54-2.28-.66-.61-1.54-.67-2.4-.6-.53.04-1.05.18-1.57.31-.14.03-.44.02-.38.2.07.21.17.52.5.52.55,0,1.1.04,1.64-.03.97-.13,1.72.71,1.41,1.78-.13.43-.37.77-.64,1.12-1.08,1.36-2.6,1.78-4.2,2.05-.17.03-.36-.06-.53-.02-.16.04-.31.04-.5.03.03.23.21.22.33.26,1,.32,2.02.21,2.99-.03.51-.12,1.14-.14,1.5-.67.03-.05.15-.16.24-.05.09.11.13.24.04.38-.22.36-.48.63-.89.81-1.37.61-2.74.8-4.17.23-.44-.18-.79-.42-.89-.94-.07-.33.06-.59.39-.68.61-.17,1.25-.17,1.86-.31.6-.14,1.2-.27,1.78-.46.86-.28,1.32-.99,1.72-1.74ZM41.27,9.14c.75.36,1.12,1.12,1.73,1.63.24.2.57.41.48.84,0,.03.05.1.09.12.16.08.29.2.23.38-.07.22-.25.32-.48.31-.51-.02-1.01.04-1.5.19-.84.26-1.66.2-2.5-.01-.26-.07-.44-.27-.7-.33-.49-.12-.84-.5-1.18-.82-.54-.52-.49-.57-.92,0-.02.02-.04.04-.06.06-.36.53-.73,1.06-.87,1.7-.03.15-.18.32-.03.46.15.14.31-.02.46-.06.06-.02.13-.06.19-.05.44.01,1.28.64,1.41,1.06.05.15.1.35-.05.46-.16.11-.39.12-.52-.06-.39-.49-.93-.45-1.46-.46-.26,0-.38.1-.46.36-.24.75-.2,1.52-.18,2.28.01.46-.09.88-.34,1.24-.28.4-.39.84-.4,1.3-.02.82.05,1.62.31,2.43.27.84.49,1.7.89,2.49.17.33.41.61.58.93.89,1.58,1.94,2.26,3.63,2.19,1.23-.05,2.3-.52,3.2-1.38.33-.31.65-.62.96-.95.1-.11.21-.13.33-.05.13.09.13.21.04.32-.09.11-.12.24-.14.38-.07.4-.27.72-.68.84-.08.03-.14.04-.17.14-.17.53-.65.81-1.08,1.04-.81.44-1.72.62-2.64.59-.29-.01-.28.05-.25.32.14,1.1.72,2.23-.13,3.3-.07.09-.06.28-.22.22-.14-.06-.3-.16-.27-.39.1-.7,0-1.39-.08-2.08-.05-.42-.13-.47-.5-.22-.4.27-.77.58-1.18.82-.25.14-.39.32-.48.58-.12.34-.23.67-.34,1.01-.31.95.03,2.14.8,2.78.92.78,2.05.89,3.18.98.54.04,1.06-.12,1.58-.19,2-.27,3.58-1.22,4.74-2.88.18-.25.32-.53.52-.77.44-.53.75-1.12.94-1.78.08-.27.03-.47-.3-.55-.25-.06-.49-.18-.68-.36-.63-.62-1.09-1.35-1.4-2.17-.24-.63-.12-1.3-.16-1.95-.03-.7,0-1.39.38-2.03.13-.23.25-.49.22-.78-.02-.2.11-.22.26-.22.17,0,.32.06.47.12.46.18.91.09,1.29-.16.82-.52,1.25-1.35,1.58-2.23.07-.19.14-.53-.05-.59-.21-.07-.47.16-.56.38-.22.57-.7.86-1.17,1.16-.32.21-.52.11-.54-.28-.02-.37,0-.74,0-1.1,0-.17-.05-.25-.22-.33-.54-.25-.76-.8-1.08-1.25-.08-.11-.08-.33-.04-.48.06-.22.19-.38.42-.12.57.64,1.31.77,2.12.71.52-.04.59.06.44.57.08-.02.16-.04.23-.06.22-.08.44-.26.63-.26.3-.01.11.43.33.56.04.02.07.08.09.13.1.21.25.38.27.63.07.86-.26,1.59-.72,2.28-.37.55-.94.87-1.39,1.33-.16.16-.37.3-.35.57.05.61.22,1.14.83,1.44.28.14.5.15.71-.06.45-.46.87-.95.89-1.65,0-.08,0-.18.08-.22.12-.05.18.05.23.12.27.33.33.72.19,1.12-.04.13-.07.32,0,.34.25.08.2.31.29.55.06-.24.12-.39.14-.55.02-.14.08-.23.23-.24.15,0,.21.1.26.22.15.37.14.71-.08,1.05-.08.12-.22.23-.22.43.43-.24.95-1.25.83-1.66-.11-.37-.18-.79-.67-.9-.09-.02-.11-.11-.13-.19-.1-.33.04-.58.25-.82.53-.6.85-1.29.99-2.08.16-.94.02-1.78-.68-2.5-.38-.39-.77-.78-1.13-1.18-.33-.37-.47-.78-.31-1.28.32-.99.4-2.01.08-3.01-.23-.72-.67-1.35-1.16-1.91-.27-.31-.62-.59-.99-.77-1.05-.51-2.16-.4-3.26-.19-.08.02-.16.05-.2.13-.08.16-.15.29-.37.21-.2-.08-.26-.22-.25-.42.02-.27-.04-.54-.24-.71-.22-.19-.42-.39-.62-.6-.9-.89-2.01-1.09-3.22-1.08-.63,0-1.21.18-1.8.35-.69.19-1.19,1.05-1.07,1.76.07.42.37.66.6.95.46.59,1.07,1,1.77,1.28.09.03.19.09.24-.04.03-.09-.05-.15-.13-.18-.6-.23-.86-.75-1.13-1.28-.06-.13-.16-.3-.04-.36.12-.06.31-.17.47.02.27.31.68.46.97.74.68.64,1.53.76,2.43.86-.04-.08-.05-.11-.07-.15-.26-.48-.95-.68-.92-1.36,0-.05-.14-.11-.22-.17-.5-.4-1.13-.54-1.7-.8-.28-.13-.49-.23-.79-.05-.24.15-.48-.02-.53-.31-.05-.31.19-.67.53-.73.38-.07.76-.08,1.13.07.2.08.42.27.53-.12.02-.08.15-.06.23-.04.5.09.99.19,1.42.47.31.2.6.43.93.6.36.19.51.49.61.86.07.27-.13.38-.25.52-.1.13-.29,0-.4-.05-.18-.1-.33-.24-.5-.36-.42-.32-.83-.67-1.37-.82ZM35.03,30.99c-.66.3-1.25.46-1.87.45-.21,0-.35.14-.5.25-.32.24-.62.49-.95.7-.5.32-1.01.61-1.41,1.08-.6.71-1.17,1.44-1.76,2.16-.1.13-.16.21.05.29.22.08.35.22.19.47-.14.22-.33.38-.57.19-.34-.28-.59-.21-.82.12-.02.03-.06.06-.09.09-.34.29-.36.47.07.59.65.2.91.75,1.3,1.19.38.43.71.9.97,1.42.18.37.27.36.51.03.15-.21.27-.44.41-.66.47-.79.76-1.65.93-2.55.16-.87.38-1.73.27-2.63,0-.04.01-.08.03-.12.04-.11.09-.21.22-.22.12-.01.17.09.24.18.41.47.27,1,.2,1.53-.07.56-.21,1.13-.09,1.67.1.46.03.86-.13,1.27-.44,1.14-1.23,2.09-1.76,3.18-.03.06-.09.12-.14.14-.37.08-.37.36-.4.7,1.34-.38,2.67-.49,4.02-.55,1.75-.08,3.46.08,5.17.34.28.04.58-.07.84.12.25.18.53.21.82.08.88-.39,1.8-.43,2.72-.19.73.19,1.5.29,2.13.8.03-.3.19-.42.47-.31.23.09.42.27.25.5-.19.25-.07.41.06.57.53.7.91,1.48,1.26,2.28.16.36.38.7.8.91.43.22.89.32,1.32.53.39.2.81.4,1.3.46-.1-.45-.3-.83-.33-1.27-.02-.26-.22-.63-.62-.58-.35.05-.53-.11-.6-.41-.07-.31.14-.5.41-.56.23-.05.25-.17.22-.35-.03-.15-.07-.29-.1-.44-.19-.75-.41-1.49-.58-2.24-.12-.56,0-1.12-.11-1.67-.12-.54-.06-1.06.22-1.54.08-.13.11-.34.34-.29.23.05.24.27.22.42-.13,1.08.36,2.05.56,3.07.17.87.37,1.76.75,2.6.26.58.21.6.86.6.22,0,.43-.06.65-.1.73-.11,1.48-.15,2.18-.36.95-.28,1.86-.7,2.79-1.05.15-.06.22-.14.19-.31-.07-.37-.12-.75-.2-1.12-.23-.99-.77-1.9-.78-2.95,0-.07-.01-.2-.14-.22-.16.27-.38.38-.59.29-.22-.1-.27-.29-.26-.51.02-.28.18-.4.44-.35.26.04.23-.11.21-.26-.07-.46-.24-.89-.41-1.32-.13-.33-.25-.68-.68-.81-.14-.04-.53-.23-.16-.54.08-.07.04-.19,0-.27-.36-.79-.72-1.6-1.38-2.2-.12-.11-.19-.08-.32-.03-.44.17-.79.45-1.1.81-.59.68-1.13,1.39-1.5,2.23-.2.47-.3.96-.5,1.42-.06.14-.13.34-.34.29-.21-.05-.12-.26-.11-.39.04-.74.22-1.46.55-2.12.49-.99,1.11-1.88,2.02-2.53.3-.22.22-.31-.03-.44-.65-.34-1.32-.65-2.01-.92-.29-.11-.55-.03-.64.16-.19.38-.52.52-.86.69-.09.05-.19.18-.28.11-.11-.08-.06-.23,0-.34.2-.41.2-.87.31-1.31.06-.21-.1-.34-.32-.4-.17-.04-.33-.03-.36.16-.06.38-.3.67-.46,1-.79,1.64-1.71,3.16-3.3,4.21-1.23.82-2.58,1.1-3.96,1.31-.91.14-1.86.12-2.76-.15-.82-.25-1.66-.46-2.28-1.14-.57-.62-.97-1.33-1.24-2.13-.2-.6-.25-1.19.03-1.79.13-.28.2-.59.34-1ZM21.48,23.8c-.37-.6-.4-.63-.93-.27-.57.38-1.05.87-1.49,1.4-.18.22-.34.45-.52.67-.08.1-.2.16-.33.08-.16-.09,0-.18.02-.28.07-.41.34-.74.52-1.1.15-.29.32-.58.59-.78.76-.54,1.52-1.06,2.29-1.58.21-.14.25-.29.18-.52-.08-.25-.25-.34-.5-.3-.29.05-.53.21-.75.4-.18.16-.35.36-.56.47-1.1.58-1.73,1.56-2.28,2.61-.17.32-.45.7-.3,1.07.14.35.25.71.45,1.04.71,1.16,1.56,2.23,2.28,3.38.36.57.94,1.06.52,1.96-.38.83-.4,1.83-.56,2.75-.25,1.4-.67,2.76-.84,4.18-.11.86-.49,1.66-.51,2.56-.02.99-.14,1.97.07,2.96.11.54.32,1.06.36,1.63.05.62.79,1.34,1.52,1.28.75-.07,1.47-.22,2.2-.39,1.04-.24,2-.63,2.94-1.11.15-.08.3-.18.24-.38-.2-.61.16-1.01.54-1.4.55-.56,1.25-.86,1.97-1.13.08-.03.23.01.21-.18-.06-.45.11-.86.3-1.25.08-.17.06-.3-.06-.48-.19-.29-.49-.46-.65-.77-.42-.83-.98-1.54-1.72-2.12-.27-.21-.46-.24-.69.03-.45.51-.93,1-1.47,1.43-.11.09-.14.2-.12.33.14.84.12,1.67-.02,2.51-.14.83-.43,1.57-.99,2.2-.06.07-.12.17-.24.12-.12-.05-.15-.15-.15-.27,0-.12.02-.24.07-.36.11-.29.25-.59.28-.89.13-1.2.08-2.4-.04-3.6-.03-.3-.03-.6-.09-.9-.16-.77-.36-1.53-.44-2.32-.06-.65-.12-1.31-.19-1.96-.1-1-.12-1.98.17-2.96.07-.25.26-.42.3-.7.12-1.07-.15-2.02-.81-2.87-.4-.51-.35-.79,0-1.42.07-.12.14-.21.29-.16.14.04.25.12.25.28,0,.09,0,.18,0,.28.22-.1.55-.5.56-.71.02-.23-.2-.26-.33-.36-.04-.03-.11-.07-.12-.11-.08-.44-.32-.3-.56-.15-.07.04-.14.09-.21.13-.5.26-.84.73-1.35,1.01-.19-.36-.04-.64.15-.92.28-.42.65-.73,1.13-.92.12-.05.36-.1.3-.25-.08-.18-.27-.35-.53-.3-.09.02-.18.06-.27.1-.58.24-1.03.64-1.43,1.12-.16.19-.38.5-.63.3-.24-.2-.03-.52.16-.72.53-.57,1.03-1.18,1.84-1.36ZM42.65,45.11c-.41,0-.73.01-1.05,0-.34-.01-.69-.01-1.02-.08-.64-.14-1.38-.68-1.05-1.43.08-.19.03-.26-.2-.31-1.13-.23-2.28-.2-3.41-.27-1.15-.07-2.32.03-3.47.1-1.66.11-3.21.54-4.67,1.33-.2.11-.44.26-.42.46.03.25.19.51.46.63.27.12.56.21.83.33.84.34,1.72.51,2.6.67.54.1,1.09,0,1.63.1.87.18,1.72.3,2.63.17,1.36-.19,2.74-.29,4.08-.58,1.04-.22,2.15-.25,3.07-1.12ZM27.38,29.28c.34-.16.37-.37.36-.59-.03-.76-.22-1.48-.58-2.15-.05-.09-.17-.13-.17-.26.01-.57.05-1.13.3-1.67.37-.8.72-1.62.45-2.55-.09-.3-.38-.55-.73-.51.36.73.52,1.49.25,2.29-.11.34-.24.67-.32,1.01-.26,1.05-.29,2.08.28,3.05.23.4.5.8.16,1.37ZM33.93,13.14c.11-.05.05-.14.05-.21.03-1.1.28-1.58,1.18-1.95.21-.09.43-.17.65-.25.06-.03.19.02.16-.12-.02-.09-.11-.11-.19-.12-.32-.05-.6.1-.89.18-1,.27-1.49,1.6-.94,2.49ZM25.62,22.3c0-.08.03-.14.02-.19-.03-.14.04-.33-.15-.39-.14-.04-.26.07-.35.17-.13.14-.09.25.02.39.11.14.1.34.08.51-.04.37-.08.73-.11,1.1-.01.14-.03.33.2.33.23,0,.23-.19.22-.32-.03-.55.19-1.08.07-1.6ZM52.97,26.04c.26-.22.2-.42.27-.58.25-.52.19-1.02-.1-1.51-.09-.15-.22-.25-.39-.28-.12-.02-.24.05-.33.12-.06.05,0,.13.05.18.49.57.7,1.21.51,2.06ZM24.13,23.17c.21.03.32.02.35-.15.02-.15-.07-.18-.19-.21-.63-.15-1.29-.18-1.91-.41-.2-.07-.37.06-.4.19-.05.18.18.19.3.23.62.22,1.31.12,1.85.35ZM50.19,26.43c-.54.36-1.09.65-1.76.7-.71.05-1.2-.28-1.63-.79.19.69.78.97,1.34,1.04.82.11,1.52-.32,2.05-.94ZM47.57,25.68c.26.43.59.33.89.28-.27-.08-.54-.17-.89-.28ZM51.75,28.2c.37-.08.44-.38.51-.68-.17.23-.34.46-.51.68Z" fill="#fff9cb"/>
    <path d="M32.83,48.52c-.26.28-.6.38-.93.33-.72-.1-1.47-.13-2.09-.59-.06-.05-.15-.05-.23-.08-.13-.05-.33-.04-.25-.27.07-.19.21-.37.43-.25.71.39,1.49.45,2.26.57.27.04.51.18.79.28Z" fill="#fff9cb"/>
    <path d="M33.07,49.87c-.62-.09-1.21-.11-1.76-.27-.18-.05-.41-.16-.35-.38.07-.25.31-.17.52-.13.54.12,1.09.21,1.64.31.13.02.32,0,.29.19-.02.19-.15.32-.33.27Z" fill="#fff9cb"/>
    <path d="M43.74,53.58c-.05-.3.11-.47.37-.55.16-.05.64.4.65.55.02.21-.35.64-.56.63-.41-.01-.44-.32-.46-.64Z" fill="#fff9cb"/>
    <path d="M34.86,52.72c.38.01.67.26.64.55-.03.28-.25.34-.48.35-.3,0-.58-.3-.56-.6.02-.24.17-.32.39-.31Z" fill="#fff9cb"/>
    <path d="M47.62,54.1c0,.2-.29.56-.49.53-.28-.03-.48-.23-.46-.48.02-.26.15-.53.52-.51.28.01.43.15.44.47Z" fill="#fff9cb"/>
    <path d="M38.19,53.5c-.01.28-.15.43-.43.43-.26,0-.49-.27-.46-.57.03-.25.17-.44.44-.45.23,0,.45.3.45.59Z" fill="#fff9cb"/>
    <path d="M40.67,54.06c-.03-.21.09-.37.29-.41.28-.06.62.24.63.51,0,.28-.21.34-.41.37-.28.04-.51-.18-.51-.47Z" fill="#fff9cb"/>
    <path d="M46.3,16c.66.51,1.36.73,2.17.45.12-.04.24-.17.36.02.09.14.03.24-.05.37-.38.58-1.16.83-1.8.54-.32-.15-.64-.3-.94-.5-.34-.23-.6-.53-.44-1,.06-.17-.03-.26-.16-.33-.08-.05-.16-.09-.24-.15-1.09-.76-1.36-1.82-1.19-3.08.06-.41.18-.83.09-1.25-.04-.18-.06-.43.1-.47.2-.06.39.13.47.32.15.35.2.74.21,1.12.01.38,0,.77,0,1.15.03.87.61,1.33,1.3,1.66.53.25,1.1.44,1.7.2.2-.08.39-.05.47.18.09.25-.06.41-.26.49-.57.24-1.12.57-1.79.3Z" fill="#fff9cb"/>
    <path d="M50.8,19.79c0-.29-.02-.57-.1-.85-.03-.1-.05-.23.04-.31.11-.1.23-.02.34.04.33.17.47.47.56.81.24.85.41,1.71-.06,2.53-.24.43-.5.82-1.03,1.05-.44.18-.76.62-.78,1.16-.01.3-.12.34-.34.17-.06-.05-.13-.1-.2-.14-.38-.22-.36-.3-.14-.66.55-.92,1.24-1.76,1.54-2.82.09-.32.18-.63.17-.97Z" fill="#fff9cb"/>
    <path d="M50.3,14.4c0,.54-.22,1.07-.47,1.59-.05.11-.16.3-.34.21-.15-.08-.11-.25-.1-.41.06-.89.12-1.75-.28-2.63-.34-.74-.81-1.34-1.35-1.93-.09-.1-.19-.2-.28-.3-.09-.1-.12-.24-.05-.34.07-.11.19-.03.29,0,.81.29,1.38.88,1.89,1.52.52.65.61,1.44.68,2.28Z" fill="#fff9cb"/>
    <path d="M45.71,11.07c0-.18.13-.23.37-.14,1.13.45,1.81,1.31,2.21,2.43.03.09.06.19-.02.27-.08.08-.18.01-.27,0-.19-.05-.34-.18-.47-.32-.53-.58-1.04-1.18-1.63-1.71-.12-.11-.2-.25-.19-.53Z" fill="#fff9cb"/>
    <path d="M47.27,14.81c-.88,0-1.4-.47-1.83-1.03-.15-.19-.19-.56,0-.72.16-.14.34.14.49.26.49.41.96.85,1.62.99.14.03.24.14.23.3-.01.15-.15.13-.25.16-.12.04-.24.04-.25.03Z" fill="#fff9cb"/>
    <path d="M55.24,41.13c0,.46-.18.7-.5.7-.29,0-.58-.26-.59-.51,0-.31.27-.69.51-.7.32,0,.59.23.58.51Z" fill="#fff9cb"/>
    <path d="M51.81,39.89c0-.43.17-.69.46-.68.22,0,.57.39.58.65.01.3-.24.56-.57.55-.34-.01-.52-.2-.47-.52Z" fill="#fff9cb"/>
    <path d="M53.24,43.37c-.04.22-.05.46-.4.42-.39-.04-.61-.25-.59-.63.01-.28.16-.5.44-.57.2-.05.56.48.55.77Z" fill="#fff9cb"/>
    <path d="M35.56,40.63c-.23-.06-.43-.19-.42-.52.01-.27.32-.45.72-.45.37,0,.36.3.38.52.03.3-.24.47-.68.44Z" fill="#fff9cb"/>
    <path d="M54.48,38.56c-.3-.01-.52-.18-.51-.49,0-.25.11-.52.44-.55.28-.03.53.3.52.66,0,.28-.19.37-.45.38Z" fill="#fff9cb"/>
    <path d="M45.46,37.71c.02.2-.07.37-.36.36-.31,0-.51-.24-.5-.62,0-.25.11-.41.39-.42.3,0,.48.22.48.67Z" fill="#fff9cb"/>
    <path d="M45.84,40.25c-.25.05-.32-.16-.34-.42-.01-.28.25-.53.55-.53.33,0,.36.31.37.49.02.29-.22.44-.59.45Z" fill="#fff9cb"/>
    <path d="M37.44,39.01c-.19-.06-.37-.2-.38-.46,0-.18.39-.5.6-.47.22.03.38.15.39.4,0,.28-.27.55-.6.54Z" fill="#fff9cb"/>
    <path d="M43.48,39.22c.02.37-.28.4-.5.41-.34,0-.41-.31-.43-.55-.02-.27.22-.34.46-.34.34,0,.45.2.48.49Z" fill="#fff9cb"/>
    <path d="M38.36,40.03c.34.01.54.25.5.6-.02.18-.1.33-.34.3-.29-.03-.58-.27-.55-.53.03-.23.11-.43.39-.37Z" fill="#fff9cb"/>
    <path d="M34.79,37.72c0-.18.14-.39.42-.41.3-.02.36.22.39.47.04.36-.22.44-.48.48-.32.04-.31-.22-.33-.54Z" fill="#fff9cb"/>
    <path d="M33.28,38.73c.24.06.5.13.49.45-.01.32-.27.44-.53.47-.24.02-.38-.14-.36-.39.02-.26.08-.49.41-.52Z" fill="#fff9cb"/>
    <path d="M48.51,38.28c0,.31-.17.47-.45.48-.32.02-.36-.29-.45-.49-.06-.14.37-.49.55-.47.27.04.34.24.35.47Z" fill="#fff9cb"/>
    <path d="M52.08,36.96c-.26-.01-.5-.13-.52-.43-.02-.26.16-.42.44-.41.27.01.5.12.53.4.02.26-.13.43-.45.44Z" fill="#fff9cb"/>
    <path d="M49.55,36.3c-.34.04-.39-.21-.4-.47,0-.3.19-.39.46-.37.3.03.44.18.42.48-.02.31-.2.39-.48.35Z" fill="#fff9cb"/>
    <path d="M30.14,37.3c-.06-.19.04-.35.33-.32.23.02.48.08.45.4-.02.28-.11.56-.47.54-.36-.02-.32-.3-.32-.62Z" fill="#fff9cb"/>
    <path d="M48.54,34.4c-.31-.06-.5-.19-.45-.48.04-.29.28-.44.52-.4.2.04.43.21.38.5-.05.26-.24.37-.45.38Z" fill="#fff9cb"/>
    <path d="M53.9,34.65c.19.06.52.04.49.34-.03.32-.34.43-.63.47-.26.04-.34-.15-.34-.35,0-.29.16-.45.49-.46Z" fill="#fff9cb"/>
    <path d="M47.12,35.82c.32-.04.36.26.34.4-.02.18-.08.45-.38.46-.33,0-.45-.25-.45-.48,0-.25.25-.36.49-.39Z" fill="#fff9cb"/>
    <path d="M41.44,40.93c-.06.28-.14.52-.45.46-.32-.06-.41-.34-.37-.6.04-.22.29-.28.5-.27.25.02.33.21.32.4Z" fill="#fff9cb"/>
    <path d="M44.12,40.83c.23,0,.39.13.39.37,0,.27-.12.52-.41.52-.25,0-.44-.21-.45-.45-.01-.27.2-.39.47-.43Z" fill="#fff9cb"/>
    <path d="M40.51,39.2c-.23.02-.32-.15-.31-.38.01-.26.14-.49.41-.53.17-.02.44.04.39.3-.04.25-.03.61-.49.62Z" fill="#fff9cb"/>
    <path d="M56.68,41.91c.03-.14.01-.38.31-.38.29,0,.48.16.48.45,0,.23-.15.4-.39.39-.23-.01-.43-.11-.41-.46Z" fill="#fff9cb"/>
    <path d="M48.71,43.15c.22.02.49.42.45.62-.06.24-.26.31-.47.3-.25-.02-.35-.22-.32-.44.03-.22.19-.37.34-.48Z" fill="#fff9cb"/>
    <path d="M50.37,33.53c.06-.21.05-.5.37-.49.27,0,.41.2.4.47-.02.32-.3.38-.52.41-.25.04-.2-.23-.25-.39Z" fill="#fff9cb"/>
    <path d="M55.7,43.81c-.36-.05-.54-.2-.52-.5.02-.22.18-.37.38-.34.27.04.4.29.41.54,0,.18-.12.34-.27.29Z" fill="#fff9cb"/>
    <path d="M34.17,33.84c0,.2,0,.43-.35.41-.3-.02-.35-.24-.37-.45-.02-.25.16-.37.39-.35.19.02.4.06.33.39Z" fill="#fff9cb"/>
    <path d="M31.93,40.99c.23.04.39.15.38.38-.01.23-.15.38-.4.36-.2-.02-.42-.1-.39-.32.03-.21.17-.4.41-.42Z" fill="#fff9cb"/>
    <path d="M47.18,41.49c.03-.21.1-.37.34-.33.27.04.43.22.43.47,0,.22-.22.34-.41.32-.24-.02-.36-.22-.36-.46Z" fill="#fff9cb"/>
    <path d="M34.38,35.96c0,.31-.18.41-.44.45-.19.03-.29-.06-.3-.24-.02-.25.23-.53.46-.53.22,0,.25.16.27.32Z" fill="#fff9cb"/>
    <path d="M30.2,35.39c-.13.02-.28-.1-.27-.3.01-.24.19-.37.44-.38.2,0,.37.02.35.28-.02.27-.19.37-.53.4Z" fill="#fff9cb"/>
    <path d="M34.04,41.19c.14-.03.22.05.2.17-.04.23-.24.26-.43.28-.16.02-.25-.1-.23-.21.05-.23.29-.2.46-.24Z" fill="#fff9cb"/>
    <path d="M32.9,31.94c.17.02.29.11.27.28-.02.17-.16.23-.33.22-.17,0-.22-.06-.22-.24,0-.22.12-.24.28-.26Z" fill="#fff9cb"/>
    <path d="M32.54,45.55c-.42.25-.83.49-1.29.61-.12.03-.28.15-.35-.04-.06-.16.05-.3.17-.38.15-.11.35-.15.49-.29-.32-.3-.33-.3-.69-.15-.4.16-.81.32-1.22.47-.21.08-.47.08-.57-.13-.11-.22.07-.41.26-.5.57-.28,1.15-.55,1.78-.68.12-.02.19-.06.28-.16.51-.58,1.38-.8,2.1-.47.31.14.55.1.8-.04.94-.53,1.78-.24,2.58.32.14.1.27.19.44.16.77-.17,1.32.23,1.8.74.31.32.64.5,1.08.46.07,0,.14,0,.2.02.11.02.23.05.24.18.01.13-.13.13-.21.15-.41.11-.83.16-1.24-.03-.29-.13-.55-.13-.88-.01-.92.33-1.85.62-2.85.57-.35-.02-.56-.18-.52-.53.03-.27-.08-.26-.24-.16-.32.2-.68.29-.99.54-.5.4-1.1.07-1.17-.63ZM36.17,44.52c-.38-.28-.76-.3-1.17-.25-.62.08-1.04.42-1.34.95-.05.1-.26.14-.17.28.08.12.23.03.33-.03.65-.38,1.33-.68,2.08-.82.08-.01.14-.06.26-.12ZM38.16,45.15c-.03-.14-.12-.15-.2-.18-.82-.27-1.54.03-2.26.38-.12.06-.13.17-.08.28.06.12.15.13.27.12.77-.1,1.51-.33,2.25-.6ZM31.49,44.54c.21.13.46.11.67.24.46.3.87.19,1.21-.29-.63-.21-1.25-.01-1.89.05Z" fill="#fff9cb"/>
  </g>
</svg>