<?xml version="1.0" encoding="UTF-8"?>
<svg id="Layer_1" data-name="Layer 1" xmlns="http://www.w3.org/2000/svg" viewBox="0 0 70 61">
  <path d="M30.5,0h39.5v61H30.5C13.67,61,0,47.33,0,30.5H0C0,13.67,13.67,0,30.5,0Z" fill="#365846"/>
  <g>
    <path d="M60.27,40.72c-.16-.17-.32-.35-.48-.52-.17-.18-.33-.36-.54-.5-.81-.54-1.66-1.02-2.52-1.48-1.47-.79-3.02-1.35-4.54-2-.8-.34-1.69-.43-2.47-.83-.19-.1-.34-.18-.34-.4-.02-.5-.2-.96-.32-1.43-.24-.99-.86-1.67-1.76-2.09-.28-.13-.38-.29-.38-.53,0-.36.04-.72.07-1.08.02-.28.19-.48.42-.55.8-.25,1.32-.91,1.86-1.44,1.21-1.2,2.02-2.69,2.31-4.43.18-1.08.05-2.02-.7-2.87-.18-.21-.46-.45-.34-.83.12-.37.14-.75.21-1.13.3-1.65.24-3.27-.34-4.85-.39-1.03-.98-1.94-1.99-2.47-.34-.18-.57-.39-.65-.76-.13-.64-.51-1.17-.96-1.58-1.05-.97-2.33-1.54-3.71-1.84-.73-.16-1.49-.28-2.23-.32-1.37-.07-2.75-.31-4.12.05-.16.04-.4.08-.52,0-.48-.32-1.04-.36-1.58-.45-1.4-.25-2.8-.27-4.17.22-.51.18-.82.62-1.22.94-1.13.91-1.49,3.2.04,4.16.48.3.57.55.25,1.05-.49.8-.59,1.74-.85,2.63-.34,1.19-.5,2.41-.3,3.61.16.97,0,1.82-.37,2.7-.4.95-.7,1.94-.59,2.99.03.32-.1.35-.35.36-.42.02-.84,0-1.26.07-.93.17-1.82.51-2.74.67-1.6.27-3.03.95-4.36,1.8-.82.52-1.51,1.22-2.16,1.97-.34.4-.37.9-.65,1.29-.25.35-.45.72-.64,1.09.04,1.41.12,2.83.18,4.24.06-.41.14-.83.17-1.24.13-1.63.78-3.03,1.78-4.29.15-.19.19-.5.38-.61.7-.42,1.41-.83,2.18-1.13,1.07-.41,2.19-.35,3.31-.36,1.25-.02,2.23.49,3,1.46.22.27.08.48-.12.63-.17.13-.26.46-.63.19-.58-.41-1.14-.89-1.84-1.09-1.09-.32-2.19-.1-3.28.07-.85.13-1.53.64-2.23,1.1-.15.1-.19.21-.14.39.07.26.22.07.33.08.48.02.78-.36,1.18-.52.79-.32,1.61-.34,2.45-.37,1.06-.05,1.93.37,2.79.87.11.07.31.11.28.28-.03.17-.24.2-.38.24-1,.32-2.01.4-3.02.04-.21-.07-.41-.1-.66-.06-.93.15-1.55.75-2.19,1.35-.37.35-.5.78-.49,1.27,0,.21-.02.4-.2.56-.42.37-.45,1.08,0,1.41.63.46.63,1,.37,1.62-.19.47-.42.92-.62,1.39-.08.19-.17.42,0,.59.17.17.4.1.6.03.5-.18.62-.63.76-1.06.1-.31.09-.65.31-.88.13.12.23.26.37.32.58.26.98.61.79,1.32-.04.15.38.11.1.34-.37.31-.71.66-1.18.83-.39.13-.64.43-.83.77-.52.93-.72,1.97-.94,2.99-.36,1.69-.6,3.4-1.21,5.03-.16.42-.25.88-.38,1.31-.1.31-.02.57.25.73.32.18.51-.09.63-.3.44-.73.84-1.48,1-2.32.1-.55.31-1.07.49-1.6.12-.36.26-.26.47-.06.38.38.57.87.85,1.32.91,1.47,1.47,3.04,1.47,4.78,0,.14.03.28.08.41.09.22.08.55.47.5.35-.05.45-.31.47-.6.07-1.19-.04-2.36-.47-3.48-.43-1.1-.97-2.14-1.88-2.94-.12-.11-.18-.18,0-.32.86-.6,1.47-1.45,2.04-2.28.5-.73,1.01-1.45,1.53-2.17.33-.46.76-.67,1.31-.73.87-.09,1.74-.19,2.59-.37.66-.14,1.29-.42,1.95-.64.16.94-.13,1.8-.31,2.65-.15.77.17,1.24.95,1.19.36-.03.55-.29.75-.53.55-.66,1.06-1.35,1.65-1.98.58-.61.69-.56.92.22.08.29.17.57.26.85.11.32.29.59.51.84.2.23.44.12.62.08.18-.04.11-.3.06-.46-.23-.82-.45-1.65-.71-2.46-.12-.38-.31-.74-.71-.93-.65-.3-1.3-.07-1.8.64-.39.56-.87,1.05-1.21,1.66-.02-.32-.04-.62.06-.89.26-.7.38-1.5.92-2.03.7-.69,1.53-1.24,2.28-1.88.38-.33.41-.04.48.21.19.71.39,1.41.56,2.12.32,1.31.73,2.59,1.16,3.86.11.33.12.7.44.92.25.17.2.33.03.56-.34.46-.67.94-.93,1.45-.46.9-.45,1.92-.65,2.89-.19.92.04,1.84,0,2.76,0,.22.14.39.34.4.18.01.39-.07.46-.28.05-.15.09-.3.11-.46.08-.85.12-1.7.25-2.54.13-.89.23-1.81.68-2.62.35-.63.85-1.14,1.34-1.67.71-.77,1.42-1.56,1.93-2.48.34-.59.71-1.15,1.13-1.69.52-.66,1.19-1.1,1.85-1.59,1.58-1.18,2.68-2.75,3.35-4.59.23-.64.6-1.27.54-2.01-.01-.16-.08-.38.17-.44.21-.05.33.11.41.27.53.99.8,2.08.61,3.17-.2,1.15-.68,2.23-1.08,3.33-.47,1.3-.84,2.62-1.16,3.96-.06.25.15.64-.23.73-.31.07-.51-.25-.73-.44-.05-.05-.09-.11-.14-.16-.46-.5-.91-1.01-1.37-1.5-.56-.58-1.03-.54-1.51.1-.18.24-.31.51-.47.76-.09.15-.1.29.02.44.11.14.23.1.38.08.8-.13,1.22.06,1.63.75.46.8,1.14,1.31,1.99,1.63.52.19.8.09,1.01-.41.5-1.17.86-2.39,1.29-3.58.57-1.6,1.11-3.22,1.5-4.88.06-.27.12-.26.33-.14.51.29,1.03.58,1.57.83,1.37.62,2.78,1.13,4.08,1.89.51.3,1.12.44,1.51.92.14.17.22.28-.08.42-.81.38-1.4,1.07-1.87,1.78-.69,1.03-1.26,2.13-1.53,3.4-.4,1.88-.62,3.75-.57,5.66.02.6.1,1.27.82,1.62.29-1.74.39-3.45.74-5.12.46-2.19,1-4.34,2.39-6.17.28-.37.63-.64.96-.94.29-.26.54-.06.76.14.09.08.14.2.23.28.99.79,1.61,1.84,2.22,2.91-.21-1.24-.37-2.49-.43-3.74ZM41.56,8.71c.86-.12,1.63.28,2.46.38,0,.08,0,.15-.01.23-.62,0-1.23,0-1.85,0-.25,0-.47-.09-.7-.19-.13-.06-.17-.17-.17-.3,0-.23.18-.1.27-.11ZM40.53,9.63c-.64.15-2.21-.59-2.57-1.24.97.31,1.69.91,2.57,1.24ZM37.45,9.79c-.94-.22-1.5-.95-2.24-1.62,1.13.13,1.36,1.3,2.24,1.62ZM33.4,8.22c.17-.11.29.05.35.17.31.57.79.98,1.38,1.51-.91-.19-1.49-.56-1.81-1.3-.06-.15-.04-.3.08-.38ZM24.21,27.8c-.96-.12-1.93-.06-2.91-.11.02-.07.02-.1.03-.1,1.55-.38,3.11-.84,4.62.14.59.38,1.19.74,1.6,1.34.06.09.15.18.08.28-.08.1-.21.05-.29,0-.19-.12-.39-.24-.55-.39-.72-.7-1.58-1.02-2.58-1.14ZM21.59,32.98c.7.25,1.42.13,2.14.09.34-.02.69-.12,1.02-.21.4-.1.81-.2.9-.73.02-.16.16-.31.39-.36.43-.1.75-.41,1.1-.68.71-.55,1.04-1.28,1.21-2.11.03-.13.08-.26-.02-.4-.69-.97-1.54-1.91-2.84-2.25.34-.24.67-.21.97-.17.94.12,1.89-.03,2.84.23,1.23.33,2.5.52,3.56,1.28.38.28.86.26,1.23.56.18.15.2.2.06.39-.39.5-.78.99-1.37,1.26-.73.34-1.09,1.03-1.45,1.67-.33.58-.77,1.04-1.27,1.45-1.3,1.07-2.83,1.61-4.46,1.98-1.34.31-2.65.09-3.96-.09-.45-.06-.88-.33-1.26-.61-.11-.08-.23-.17-.23-.33.01-.55.93-1.14,1.45-.96ZM30.9,35.24c-.15.13-.42.33-.61-.03-.05-.1-.17-.04-.18.06-.05.5-.44.46-.78.49-.09,0-.18.01-.26,0-.83-.17-1.53.16-2.23.55-.88.48-1.82.76-2.85.68-.36-.03-.64-.14-.87-.51,1.02-.31,2.06-.29,3.01-.62,1.24-.43,2.57-.66,3.66-1.49,1.1-.83,2.22-1.63,2.8-2.96.08-.18.22-.31.44-.39-.31.55-.43,1.15-.57,1.74-.03.14-.13.28-.11.4.2,1.17-.79,1.51-1.45,2.07ZM19.6,36c-.34-.14-.37-.53-.15-1.21.67.66,1.55.82,2.34,1.2-.73.11-1.46.31-2.19.02ZM20.45,37.31c.57-.05,1.12-.09,1.65-.23.2-.05.38.02.5.2.74,1.13,1.82.98,2.9.74.35-.08.73-.13.99-.44.03-.04.16-.07.18-.05.33.46.59.06.9-.04.41-.14.83-.27,1.25-.31.63-.05,1.17-.32,1.7-.6.1-.05.21-.14.35-.05,0,.23-.2.3-.35.4-1.52.96-3.15,1.66-4.95,1.86-.98.11-1.95.09-2.75-.69-.42-.41-1.04-.22-1.56-.3-.36-.05-.62-.15-.82-.49ZM20.47,45.09c-.44.5-.85,1.05-1.48,1.39.2-1.3.33-2.6.73-3.84.23-.71.9-.92,1.45-1.26.05-.03.16,0,.2-.04.67-.62,1.2-.16,1.77.26-1.22.91-1.71,2.38-2.67,3.49ZM32.85,37.05c-.9.63-1.68,1.42-2.61,2.01-1.25.79-2.66,1.09-4.09,1.37-1.09.22-2.08-.09-3.08-.35-.41-.1-.79-.39-.87-.91,1.01,1.05,2.26.68,3.44.61,1.61-.1,3.07-.73,4.48-1.48.82-.43,1.41-1.14,1.93-1.83.69-.92,1.78-1.31,2.49-2.18.12-.15.43-.23.63-.4-.55,1.22-1.19,2.35-2.31,3.14ZM33.34,33.46c.06-.52.41-.67.82-.88.35-.17.75-.34,1.06-.73-.23.69-.88,1.24-1.88,1.6ZM33.78,31.26c.48-.79,1-1.49,1.55-2.17.54.69-.34,1.96-1.55,2.17ZM46.18,27.75c-.23-.11-.5-.24-.68.08-.16.29-.15.57.09.82.11.11.2.21.14.41-.32,1.03-.32,2.1-.14,3.12.36,2-.54,3.48-1.75,4.88-.81.94-1.78,1.66-2.78,2.39-.78.58-1.25,1.49-1.76,2.32-.58.95-1.18,1.88-1.87,2.74-.85-.83-.96-1.88-1.16-2.9-.17-.83-.23-1.7-.74-2.51.31.04.39.25.5.4.14.19.33.23.51.14.2-.1.29-.31.18-.54-.14-.29-.19-.63-.52-.82-.16-.1-.32-.32-.25-.53.05-.16.28-.08.43-.1,1.07-.16,2.05-.54,3.01-1.02,1.3-.66,2.3-1.67,3.27-2.71.43-.46.57-1.07.86-1.6.12-.23-.01-.37-.17-.49-.18-.14-.33,0-.45.12-.61.6-1.25,1.17-1.92,1.71-.88.71-1.9,1.18-2.92,1.63-.48.21-.97.38-1.46.57-.33.13-.68.16-1.05.11.09-.47.39-.83.54-1.26.17-.5.28-.99.22-1.53-.1-.87,0-1.75.08-2.62.01-.13.02-.27.17-.29.13-.03.14.11.2.2.08.13.19.25.3.36.16.16.38.14.54.06.22-.1.08-.31.04-.46-.15-.57-.45-1.08-.79-1.53-.37-.51-.26-1-.1-1.48.18-.52.44-1.02.68-1.52.08-.17.16-.34.06-.49-.12-.18-.31-.09-.48-.04-.93.25-1.4.84-1.48,1.85-.01.16.09.39-.13.45-.17.05-.32-.11-.46-.22-1.19-.89-2.47-1.56-3.95-1.82-.66-.12-1.31-.29-1.98-.39-.27-.04-.29-.49-.25-.79.12-.97.29-1.93.61-2.87.29-.84.43-1.68.26-2.58-.09-.47-.03-.97-.02-1.46,0-.22.59-1.64.7-2.21.25-1.36.58-2.68,1.35-3.84.14-.22.16-.49.37-.69.14-.13-.01-.29-.07-.43-.09-.19-.24-.13-.41-.11-.54.08-1.07.12-1.42-.45-.21-.33-.25-.62.09-.87.3-.22.8-.16.99.15.61,1.01,1.6,1.47,2.65,1.82.41.14.75.38,1.21.46.83.15,1.66.2,2.49.22.78.02,1.54.22,2.34.16,1.13-.09,2.24-.27,3.22-.84,1.01-.59,1.98-.36,2.98-.06.17.05.36.14.41.37-.53.28-1.13.05-1.68.26-.46.18-.67.48-.44.92.4.77,1.02,1.33,1.84,1.62.85.3,1.63.71,2.42,1.13.11.06.21.12.31.19.21.14.23.39.2.56-.05.24-.32.15-.5.14-.19-.02-.39-.05-.56-.14-.89-.49-1.88-.77-2.72-1.35-.13-.09-.27-.29-.45-.1-.17.17-.06.37.03.53.08.14.2.27.31.42-.49,0-.58-.53-.97-.66-.24-.08-.46-.19-.67-.02-.24.19-.15.44-.08.68.23.85.78,1.54,1.23,2.28-.54.23-.53.35-.05.84.2.2.61.18.65.47.06.34-.42.3-.55.55-.41.77-.72,1.57-.53,2.46.17.78,1.02,1.04,1.74.7.82-.38,1.32-1.22,2.18-1.49.36-.11.78-.01,1.17-.01.5,0,.65.3.79.74.36,1.16-.1,2.18-.53,3.18-.38.89-1.07,1.58-1.75,2.27-.51.52-1.03.65-1.69.36ZM48.32,18.34c-.47.19-1.69-.37-2.47-1.16.83.34,1.69.64,2.47,1.16Z" fill="#fff9cb"/>
    <path d="M24.24,49.7c.05-.62.12-1.23.14-1.85.03-.82.15-1.64.26-2.45.02-.14,0-.31.12-.39.16-.11.22-.41.49-.31.24.08.19.31.2.5.06,1.59,0,3.18-.02,4.76-.01,1.1-.01,2.23.24,3.33.07.28.07.59.07.88,0,.35-.22.56-.54.62-.32.06-.53-.15-.65-.43-.13-.32-.27-.63-.28-1-.01-1.24-.3-2.39-1-3.45-.31-.47-.45-1.05-.65-1.59-.09-.24-.22-.43-.41-.6-.08-.07-.17-.15-.11-.27.06-.11.18-.1.28-.1.28,0,.55.07.66.34.29.71.87,1.26,1.21,2Z" fill="#fff9cb"/>
    <path d="M58.62,47.76c0,.07,0,.18-.04.27-.62,1.75-1.53,3.27-3.11,4.33-.15.1-.3.26-.47.14-.2-.15-.11-.38-.04-.58.34-1.07,1-1.94,1.63-2.85.43-.62.81-1.27,1.47-1.67.13-.08.27-.21.43-.11.16.1.13.27.12.46Z" fill="#fff9cb"/>
    <path d="M23.76,31.43c-.01.23-.15.24-.3.23-.23,0-.37-.12-.35-.35.01-.17.13-.28.32-.26.24.03.27.23.33.37Z" fill="#fff9cb"/>
    <path d="M48.73,23.21c-.29-.12-.39,0-.49.17-.1.17-.1.32.04.48.7.84.03,2.19-.78,2.56-.31.14-.55.1-.71-.2-.16-.29-.1-.5.22-.68.35-.2.68-.46.68-.93,0-.18.06-.38-.29-.32-.41.07-.55-.22-.42-.57.3-.78.9-1.33,1.61-1.73.38-.21.78.08,1.08.34.14.12.12.37-.04.47-.3.18-.63.29-.89.41Z" fill="#fff9cb"/>
    <path d="M29.89,29.39c-.3,0-.44-.11-.42-.37.03-.37.29-.51.61-.52.3-.01.46.18.44.46-.03.41-.39.37-.63.44Z" fill="#fff9cb"/>
    <path d="M29.44,30.56c0,.32-.15.56-.48.55-.25,0-.39-.22-.35-.48.04-.31.21-.53.53-.52.28,0,.3.23.3.45Z" fill="#fff9cb"/>
    <path d="M28.23,26.62c.24.13.63.07.64.49,0,.27-.23.36-.44.34-.29-.03-.55-.16-.55-.5,0-.2.13-.31.35-.32Z" fill="#fff9cb"/>
    <path d="M27.42,32.64c-.04.23-.14.48-.39.47-.35-.03-.24-.4-.31-.62-.07-.2.11-.33.31-.32.26.02.39.2.4.47Z" fill="#fff9cb"/>
    <path d="M31.42,28.21c-.28-.08-.51-.25-.56-.57-.01-.08-.01-.27.18-.24.29.06.59.13.6.51,0,.14,0,.29-.23.29Z" fill="#fff9cb"/>
  </g>
</svg>