<?xml version="1.0" encoding="UTF-8"?>
<svg id="Layer_1" data-name="Layer 1" xmlns="http://www.w3.org/2000/svg" viewBox="0 0 70 61">
  <path d="M30.5,0h39.5v61H30.5C13.67,61,0,47.33,0,30.5H0C0,13.67,13.67,0,30.5,0Z" fill="#365846"/>
  <g>
    <path d="M41.21,53.46c-.38-.07-.57.15-.79.29-.49.32-.98.61-1.57.67-.19.02-.41.03-.51-.12-.13-.19.13-.28.21-.42.19-.3.55-.4.87-.66-.3-.04-.5.04-.63.18-.41.44-.96.62-1.47.88-.34.17-.47-.15-.65-.27-.11-.08.1-.27.21-.37.38-.36,2.64-3.62,3.08-3.89.1-.06,1.27-1.35,1.28-1.49-.17-.05-.31.01-.43.12-.68.59-4.46,5.07-5.19,5.59-.29.21-.7.24-1.06.35-.07.02-.15.04-.2-.03-.06-.08,0-.16.02-.24.12-.36.44-.52.71-.73.22-.17.57-3.54.66-3.84-1.07.16-1.93,4.11-2.82,4.59-.24.13-.49.25-.74.35-.2.08-.42.09-.53-.14-.12-.25.1-.39.25-.47.32-.18.59-.39.85-.68-.33-.21-.54.08-.74.17-.75.36-1.51.72-2.28,1.05-.16.07-.31.14-.44.26-.11.1-.27.04-.35-.06-.11-.16.07-.16.16-.22.58-.37.94-.97,1.58-1.42-.3-.05-.38.09-.49.16-.52.35-1.14.54-1.61.97-.09.08-.16.08-.27.04-.24-.09-.5.02-.63.17-.18.2-.38.22-.59.27-.12.03-.27.17-.38-.04-.09-.17.04-.28.13-.38.2-.25.56-.31.79-.71-1.18.58-2.14,1.44-3.46,1.3-.05-.19.23-.13.19-.34-.14,0-.29-.05-.43.07-.36.29-.8.37-1.24.39-.18.01.85-3.6.8-3.83-.05-.22-4.81,1.19-4.56,1.08.87-.4,8.03-3.25,8.93-3.6,1.16-.45,1.8-1.38,2.16-2.53.1-.33.19-.67.32-.99.15-.36.48-.52.83-.54.63-.05,1.26-.15,1.89.07.19.07.42.12.52.28.26.4.62.34,1.04.29-.47-.84-1.15-1.33-2.04-1.51-.57-.12-1.15-.31-1.76-.15-.15.04-.37.07-.41-.19-.04-.25.06-.43.32-.49,1.3-.28,2.52-.11,3.64.64.33.22.69.4.78.86.02.12.15.36.38.21.22-.15.23-.37.06-.54-.58-.57-1.14-1.15-1.93-1.47-.79-.32-1.59-.52-2.43-.52-.13,0-.25-.04-.37-.1-.16-.09-.24-.25-.2-.4.04-.16.21-.23.38-.23.81,0,1.62.06,2.4.28.61.18,1.08.64,1.64.95.47.26.88.6,1.02,1.16.02.1.12.19.23.11.08-.06.1-.15.04-.27-.54-1.1-1.47-1.74-2.55-2.21-.67-.29-1.35-.56-2.09-.64-.12-.01-.24-.03-.24-.19,0-.15.09-.27.23-.28.81-.07,1.62-.25,2.4.14.45.22.94.37,1.41.56.27.11.33-.1.41-.26.09-.18,0-.33-.19-.36-.81-.11-1.54-.54-2.37-.62-.27-.03-.48-.22-.81-.18-.82.1-1.59.33-2.32.69-.94.46-1.46,1.33-1.97,2.19-.37.62-.59,1.3-.78,2.01-.21.78-.63,1.51-1.23,2.06-.41.37-.91.66-1.51.78-.8.16-1.57.48-2.39.58-1.09.13-2.17.28-3.26.4-.17.02-.3.04-.43.16-.2.17-.47.29-.65.05-.19-.25.01-.5.21-.67.4-.34.87-.56,1.39-.68.89-.2,1.78-.38,2.66-.59.52-.13.66-.64.25-1.02-.85-.77-1.77-1.44-2.91-1.72-.49-.12-.96-.31-1.48-.29-.29,0-.49.05-.57.42-.26,1.17-.72,2.27-1.45,3.23-.03.03-.04.08-.07.11-.16.18-.31.44-.6.32-.29-.13-.31-.41-.26-.7.1-.55.39-1.02.59-1.53.26-.64.42-1.32.79-1.91.07-.12.06-.29-.01-.42-.3-.57-.12-1.13.16-1.61.33-.55.38-1.11.28-1.7-.1-.54-.09-1.06,0-1.59.22-1.17.44-2.35,1.09-3.38.31-.48.68-.93,1.12-1.31.54-.48,1.05-.99,1.79-1.18.23-.06.47-.13.67-.05.49.2.87-.03,1.26-.25.15-.08.3-.16.51-.27-.49-.29-.85-.66-1.41-.84-1.05-.33-1.6-1.13-1.63-2.24,0-.24-.1-.32-.22-.45-.59-.63-1-1.32-.7-2.23.24-.73.8-1.13,1.5-1.05.13.01.29,0,.31.16.02.13-.09.18-.22.22-.18.05-.26.21-.33.37.16.1.39.06.48.3-.17.02-.33.04-.6.08.48.24.78.1,1.06-.14.29-.25.04-.43-.08-.63-.24-.39-.51-.77-.72-1.18-.43-.83-.33-1.68.03-2.51.41-.94,1.08-1.72,1.8-2.4.51-.49.97-.97,1.24-1.63.12-.29.26-.58.24-.87-.09-1.56.48-2.94,1.12-4.31.56-1.21,1.39-2.27,2.38-3.1,1.36-1.14,3.01-1.73,4.85-1.62.4.02.81-.01,1.21.03.17.02.27-.08.39-.16.64-.4,1.26-.82,2.01-.99,1.12-.26,2.21-.16,3.24.36.3.15.54.4.71.69.16.28.37.44.68.47.93.11,1.94,1.66,1.63,2.6-.16.49-.23,1.02-.47,1.48-.1.19-.03.35.02.54.25.85.66,1.67.55,2.6-.03.23-.03.46-.21.63.19.13.33-.01.48-.04.16-.03.32-.07.44.08.11.14.03.32-.06.4-.39.35-.23.73-.09,1.1.42,1.12.64,2.26.48,3.47-.09.72-.27,1.41-.48,2.1-.25.85-.35,1.71-.38,2.59-.04,1.16-.59,2.03-1.54,2.64-.6.39-1.27.55-1.98.54-.74,0-.9.25-.7.95.12.45.37.62.8.69.5.08.98.26,1.48.31.48.05.97,0,1.45,0,.74.02,1.48-.07,2.23.18,1.19.39,2.11,1.12,2.87,2.07.7.88,1.46,1.71,2.35,2.4.34.27.8.34,1.12.65.28.28.27.46-.07.67.39.32.76.65,1.29.74-.05-1.46-.27-2.9-.54-4.33-.14-.72-.29-1.44-.39-2.16-.03-.24-.2-.34-.39-.42-.65-.29-1.24-.66-1.72-1.2-.35-.39-.52-.87-.77-1.3-.22-.38-.44-.77-.62-1.18-.22-.48-.68-.71-1.07-.99-.58-.41-1.01-.95-1.39-1.54-.22-.35.08-.96.61-1.29-.33-.38-.76-.67-1.02-1.12-.25-.44-.18-1.39.18-1.83.21-.25,1.17-.48,1.51-.31.29.14.41.05.6-.17.41-.46,1.02-.58,1.57-.77.35-.12.73-.17,1.09-.26.07-.02.17-.03.19-.08.38-.95,1.25-.89,1.98-.81,1.17.14,2.25.59,3.07,1.53.4.46.54,1.01.64,1.58.13.8-.05,1.6,0,2.4.06.97-.14,1.92-.21,2.87-.05.8.04,1.58,0,2.38-.03.66.38,1.22.6,1.83.59,1.55,1.62,2.86,2.3,4.36.48,1.05,1.17,2,1.59,3.06.32.81.56,1.69.66,2.59.09.79.18,1.58.3,2.36.09.57-.16,1.08-.23,1.62-.07.5-.2,1.01-.45,1.48-.46.85-1.09,1.35-2.1,1.46-1.64.17-3.21-.1-4.81-.36-1.39-.23-2.67-.75-3.95-1.25-.35-.14-.71-.33-.99-.61-.18-.17-.28-.23-.36.09-.31,1.33-.91,2.52-1.89,3.49-.32.31-3.2,5.04-3.55,5.37-.4.37-.87.59-1.34.82-.14.07-.3.08-.4-.06-.1-.14-.08-.32,0-.45.13-.19.29-.35.48-.58ZM29.68,21.07c.06.07.14.06.21.04.29-.09.37.09.39.31.01.12-.56.44-.68.38-.28-.12-.43-.58-.85-.3,0-.01-.01-.02-.02-.03-.13-.12-.14-.12-.18-.02-.1.22-.04.43.09.61.31.43.82.65,1.14,1.08.08.11.23.11.37-.03.23-.22.49-.4.73-.61.21-.18.32-.07.38.13.11.38-.05.67-.33.93-.12.11-.3.19-.25.42.16.62.17,1.27.26,1.9.12.86-.13,1.63-.35,2.39-.23.78-.67,1.46-1.34,1.96-.18.14-.15.29-.03.45.05.07.14.09.17.19.23,1.02.95,1.74,1.66,2.4.73.67,1.52,1.3,2.37,1.86,1.25.83,2.56,1.35,4.05,1.43.88.04,1.43-.5,1.44-1.4.01-.98,0-1.96-.26-2.92-.1-.38-.18-.76-.39-1.09-.04-.07-.1-.16-.2-.14-.11.02-.12.11-.14.2-.13.54-.27,1.08-.39,1.62-.05.23-.14.46-.37.48-.26.02-.29-.26-.31-.45-.07-.58-.1-1.19.05-1.72.24-.84.07-1.75.51-2.58-.63.09-1.13-.21-1.66-.3-1.2-.22-2.06-.95-2.73-1.94-.08-.11-.24-.26-.04-.41.16-.13.32-.1.47.02.76.62,1.64.98,2.57,1.29,1.47.5,2.94.58,4.41.06.61-.21,1.03-.63,1.24-1.27.19-.56.18-1.13.24-1.71.14-1.23.64-2.38.81-3.62.18-1.29-.06-2.43-.74-3.51-.08-.13-.17-1.02-.27-1.55-.13-.75-.02-1.52-.29-2.26-.07-.2-.31-.94-.51-1.22-.27-.38-.66-.66-.89-1.05-.17-.29-.28-.24-.51-.11-.35.21-.68.52-1.16.42.06-.33.27-.56.5-.71.33-.21.46-.51.54-.85.13-.55-.05-1.08-.5-1.35.15.49.32.94.12,1.42-.26.65-.65,1.19-1.27,1.53-.14.08-.3.11-.42-.06-.12-.17,0-.27.09-.38.46-.48.65-1.08.72-1.73.06-.62-.36-1.15-1.02-1.27,0,.17.16.19.25.25.55.38.77,1.17.35,1.58-.41.39-.77.93-1.44.96-.21,0-.3.18-.42.33-.17.21-.18.74-.67.38-.01-.01-.06,0-.08.02-.51.26-1.1.36-1.59.62-.82.44-1.54,1.07-2.29,1.63-.08.06-.2.16,0,.23.27.09.25.28.22.52-.09.56-.6.81-.85,1.25.56.23.7.5.61,1.13-.02.16-.04.33,0,.48.17.64-.15,1.18-.34,1.74-.25.73-.84,1.27-1.18,1.95ZM50.28,18.41c.11.06.16.11.21.11.76-.06,1.42.25,2.04.61,1.32.76,1.26,2.01.69,3.1-.05.1-.12.18-.23.15-.12-.03-.18-.15-.12-.24.18-.28.03-.56.01-.84-.05-.64-.31-1.16-.92-1.45-.24-.11-.48-.21-.72-.3-1.31-.52-2.55-.38-3.75.33-.17.1-.34.17-.19.42.16.27.3.03.43-.01.57-.17,1.09-.55,1.74-.44.76.12,1.49.25,2.12.75.47.37.81,1.41.56,1.95-.1.2-.29.34-.47.32-.2-.03-.21-.26-.21-.46-.01-.61-.29-1.08-.83-1.36-.87-.45-1.76-.35-2.64-.04-.08.03-.18.05-.19.15-.02.12.1.17.16.23.11.1.25.06.37.02.6-.2,1.17.03,1.74.16.21.05.38.19.5.39.77,1.22.4,2.68-.45,3.63-.38.42-.92.37-1.27-.06-.11-.13-.22-.26-.34-.39-.55-.58-1.23-.98-1.88-1.43-.1-.07-.29-.19-.43-.05-.12.13,0,.27.04.4.04.14.15.21.26.28,1.08.79,1.92,1.78,2.49,3,.44.93,1.1,1.63,2.08,2.04.6.25.96.75,1.05,1.43.05.44.14.88.24,1.31.31,1.43.64,2.86.87,4.31.09.57.05,1.15.15,1.72.13.74.37,1.46.46,2.2.11.92.49,1.7,1.04,2.42.07.09.1.2.1.32,0,.25-.09.38-.34.25-.52-.28-.97-.7-1.22-1.19-.52-1.04-1.02-2.12-1.16-3.31-.01-.11-.03-.24-.16-.29-.57-.24-1.1-.55-1.63-.87-.12.1-.03.29-.21.36-.57.22-.95.7-1.38,1.1-.26.25-.56.52-.69.85-.3.72-.35,1.51-.37,2.29,0,.4.07.79.45,1,.68.37,1.33.76,2.08,1.03,1.95.7,3.86,1.54,5.98,1.6.17,0,.31.16.5.13.58-.1,1.16-.18,1.74-.29.18-.03.37-.09.48-.27.52-.88.95-1.78.8-2.86-.16-1.13-.23-2.26-.52-3.37-.28-1.05-.71-2.04-1.22-2.99-.61-1.16-1.33-2.26-2.01-3.38-.55-.91-.87-1.92-1.31-2.87-.39-.82-.52-1.68-.54-2.59-.02-.77-.06-1.53.16-2.28.04-.12,0-.26.01-.39.08-1.12.13-2.24.23-3.36.08-.86-.16-1.64-.74-2.22-.65-.66-1.56-.89-2.47-1.03-.41-.06-.76.05-1.15.26ZM39.14,30.99c.18.4.34.75.49,1.11.27.62.23,1.29.3,1.94.05.49.09.98-.03,1.46-.18.72-.38,1.51-1.14,1.79-1.28.48-2.61.53-3.89-.01-1.77-.75-3.23-1.9-4.52-3.33-.82-.91-1.65-1.78-1.81-3.06-.03-.21-.11-.13-.26-.1-.4.07-.62.46-1.02.53-.3.05-.43.22-.45.56-.04.51.07.99.18,1.47.09.39.37.61.74.71.33.09.68.14,1.01.23.49.14.57.39.29.82-.31.47-.26.96.15,1.36.61.62,1.34.77,2.19.61.81-.15,1.22.28.99,1.08-.1.35.1.41.29.41,1.08.02,2.08.39,3.09.68.47.14.61-.09.83-.32.03-.03.03-.08.05-.12.19-.34.37-.35.63-.07.19.21.39.43.59.63.21.21.44.28.75.21.88-.19,1.21-.57,1.22-1.41,0-.3.14-.38.41-.33.93.17,1.7-.56,1.56-1.47-.06-.42-.35-.7-.63-.95-.48-.43-.24-.76.16-.98.78-.41.86-1.33.15-1.86-.19-.14-.31-.33-.47-.5-.22-.23-.21-.63-.54-.75-.4-.15-.81-.29-1.31-.37ZM31.36,38.41c-.15-.08-.26-.18-.35-.17-.73.08-1.29-.29-1.9-.6-.91-.48-1.17-1.28-1.16-2.2,0-.3-.06-.39-.33-.46-.81-.21-1.32-.72-1.48-1.57-.1-.52-.23-1.03-.15-1.62-.57.19-1.1.37-1.62.55-.16.06-.37.11-.39.29-.03.22.2.29.35.39.16.11.37.1.48.32.21.42.44.83.71,1.21.59.83.97,1.77,1.45,2.65.37.69.49,1.47.77,2.19.1.26.17.53.35.76.04.05-.16.28.04.35.22.08.28-.16.37-.29.35-.52.8-.89,1.4-1.1.2-.07.42-.17.56-.32.24-.24.54-.31.9-.4ZM25.02,23.97c-.04-.46-.08-.82-.11-1.19-.05-.67.27-1.24.59-1.76.24-.4.6-.79,1.09-.96.34-.12.45-.04.43.32-.01.33-.23.59-.32.89-.11.34-.26.68-.34,1.03-.04.17,0,.46.18.48.26.04.18-.26.19-.39.03-.84.4-1.5.98-2.1.63-.65,1.17-1.4,1.65-2.16.28-.44.45-.95.44-1.51-.16.02-.15.14-.19.23-.35.73-.65,1.48-1.26,2.05-.18.16-.38.3-.49.53-.12.24-.32.36-.56.44-.11.03-.21.15-.31.02-.08-.11-.06-.25.02-.37.16-.24.34-.46.47-.72.23-.46.3-.99.62-1.41.06-.07.19-.16.06-.35-.32.46-.77.75-1.16,1.11-.76.69-1.32,1.55-1.93,2.36-.5.67-.79,1.47-.71,2.35.04.45.26.79.67,1.13ZM27.11,15.45c.27-.37.18-.74.31-1.04.34-.78.77-1.52,1.28-2.2.2-.26.44-.5.67-.74.1-.1.22-.21.38-.09.16.12.09.25.02.38-.04.09-.1.17-.15.27-.31.67-.65,1.33-.88,2.06.18-.02.22-.13.27-.21.39-.61.85-1.15,1.4-1.63.43-.37.74-.85.91-1.44.16-.54-.07-1.05.1-1.59-.37.04-.57.2-.66.49-.13.41-.36.78-.38,1.23,0,.17-.07.39-.34.37-.25-.02-.23-.21-.24-.39,0-.17.02-.34.06-.51.1-.39.31-.74.44-1.13-.47,0-.7.28-.89.62-.52.95-1.02,1.91-1.63,2.81-.54.8-.77,1.67-.7,2.73ZM23.31,24.18c-.1-.16.06-.32-.04-.48-.51-.85-.58-1.7,0-2.56.06-.1.1-.21.16-.31.48-.8,1.17-1.39,1.98-1.81.28-.14.5-.27.65-.54.19-.34.39-.66.59-.99-.03-.02-.05-.04-.08-.06-.32.29-.63.59-1.05.98.05-1,.41-1.82.47-2.68.06-.86.48-1.63.62-2.48-.41.33-.39.82-.56,1.23-.26.65-.36,1.33-.51,2-.24,1.05-.62,2.03-1.41,2.8-.75.73-1.38,1.52-1.58,2.61-.16.92.06,1.66.76,2.28ZM46.64,42.42c-.01-.29-.03-.57-.14-.87-.17-.46-.44-.86-.64-1.31-.56-1.26-1.13-2.52-1.69-3.78-.03-.08.02-.23-.16-.16-.1.04-.12.1-.09.2.08.32.13.66.25.96.56,1.45,1.42,2.77,1.81,4.29.14.54.42,1.03.36,1.63-.09.85-.33,1.65-.68,2.43-.04.1-.19.24,0,.34.17.09.27-.06.34-.18.23-.37.41-.75.49-1.19.13-.79.4-1.57.17-2.39ZM48.96,22.24c-.24.09-.57.03-.9.08-.35.05-.28.4-.41.6-.05.09-.05.22.1.28.67.29,1.1.82,1.48,1.41.17.25.32.32.48-.02.13-.26.24-.52.3-.81.26-1.14.02-1.52-1.06-1.55ZM18.29,41.68c-.33-.06-.5.09-.51.38-.01.3.24.3.45.32.06,0,.12,0,.17,0,1.26,0,2.48.17,3.54.94.07.05.15.12.22.03.06-.07.02-.17-.02-.24-.32-.51-.86-.78-1.36-.97-.79-.31-1.66-.38-2.49-.46ZM47.05,22.27c-.2-.51-.32-1.18-.66-1.77-.14-.23-.38-.36-.67-.18-.37.24-.48.91-.17,1.21.34.33.61.73.94,1.07.11.12.19.34.4.25.19-.08.14-.3.15-.59ZM24.52,44.46c.32-.33.7-.6.86-1.06.17-.5.33-1.01.54-1.5.28-.67.26-1.35.12-2.03-.02-.11-.05-.27-.18-.26-.18,0-.1.18-.1.27-.02.38.03.76-.03,1.13-.2,1.21-.9,2.25-1.19,3.45ZM44.98,33.01c.29.28.59.51.64.88.12.84.28,1.67.18,2.52-.04.34.02.68.09,1.02.16-.05.24-.14.25-.28.06-.61.19-1.22.02-1.84-.08-.3-.19-.63-.02-.97.05-.1.09-.35-.1-.41-.3-.09-.37-.34-.49-.56-.11-.2-.21-.43-.58-.36ZM26.93,13.11c.3-1.07,1.35-1.84,1.4-3.09-.5.56-.96,1.14-1.33,1.79-.24.42-.66.83-.08,1.3ZM27.77,24.46c.28.66.5,1.35.86,1.96.18.32.18.53.06.82-.12.28-.18.57.08.84.54-1.33.27-2.55-1-3.62ZM31.83,11.96c.2-.21.42-.41.61-.64.33-.41.47-.89.42-1.42-.02-.2-.12-.37-.35-.38-.23,0-.22.2-.22.35.01.73-.12,1.42-.46,2.09ZM36.58,47.79c.56.34.92-.03,1.21-.15.63-.26,1.06-.84,1.43-1.45-.86.5-1.57,1.23-2.63,1.6ZM40.54,8.61c.22.65.16,1.19-.1,1.71-.09.18.04.29.16.35.15.06.26-.02.31-.19.1-.38.22-.75.16-1.14-.04-.28-.09-.57-.54-.72ZM23.17,28.73c.5.03,1.93-.53,2.22-.87.07-.08.06-.17.02-.24-.06-.11-.14-.05-.22-.01-.29.16-.59.3-.84.52-.34.29-.72.46-1.19.41-.2-.02-.4,0-.6-.06-.09-.03-.22.03-.21.15,0,.12.13.17.22.14.2-.07.4-.06.6-.05ZM33.78,11.05c.17-.24.38-.47.51-.73.15-.29.21-.63.17-.96-.02-.15-.13-.27-.29-.29-.08-.01-.09.09-.11.16-.12.59-.1,1.21-.29,1.82ZM26.53,24.32c.38.87.5,1.71.82,2.49-.04-.56-.15-1.12-.22-1.67-.04-.33-.09-.62-.6-.82ZM21.91,33.7c-.56,0-1.88,1.07-1.95,1.52.68-.43,1.23-1,1.95-1.52ZM34.99,10.75c.29-.18.79-1.08.75-1.37-.03-.26-.33-.61-.59-.67.39.78.3.94-.17,2.04ZM21.68,38.61c.75-.34,1.28-.83,1.42-1.3-.39.48-1.08.61-1.42,1.3ZM40.97,40.76c-.03.66-.27,1.28-.32,1.94.46-.58.27-1.28.32-1.94ZM24.57,26.1c0-.16-.12-.24-.23-.17-.22.15-.42.35-.48.62-.02.1.02.31.22.18.23-.15.37-.39.49-.64ZM39.3,42.18c-.09.07-.15.17-.21.17-.24.01-.25.08-.17.31.05.14-.16.34-.04.52.07.11.17.03.2-.04.1-.3.25-.59.23-.95ZM19.71,35.56c-.55.38-.86.91-1.11,1.49l1.11-1.49ZM20.64,36.89c-.64.3-.86.52-.9.9.34-.32.73-.49.9-.9ZM37.36,45.75c.41.02.53-.39.83-.45.28-.05.38-.2.4-.51-.39.38-.89.51-1.23.96ZM22.62,26.26c-.4.43-.69,1.03-1.44.96.61.19,1.12-.16,1.44-.96ZM21.55,38.52c-.29.25-.83.28-.76.86.15-.38.64-.45.76-.86ZM19.52,38.02c-.15.05-.29.09-.43.14-.13.06-.19.18-.16.31.02.08.03.23.15.22.12,0,.2-.13.21-.24.02-.18.27-.22.23-.44ZM19.88,40.74c.21-.04.37-.06.52-.11.16-.05.24-.2.18-.34-.07-.15-.2-.02-.3.02-.19.06-.31.2-.4.44ZM40.57,45.88c.3-.23.51-.51.69-.97-.42.3-.58.61-.69.97ZM22.34,36.25c.28-.17.54-.36.7-.66-.29.15-.59.3-.7.66ZM48.52,37.82c.55-.09.42-.43.4-.73-.14.22-.17.48-.4.73ZM43.95,43.53c-.23.2-.23.45-.31.66.04,0,.1.04.12.02.17-.16.27-.36.2-.67Z" fill="#fff9cb"/>
    <path d="M41.09,20.62c.09,0,.18,0,.26,0,.61.02.77.27.56.84-.14.37-.26.73-.48,1.06-.15.23-.06.45.02.66.34.92.28,1.2-.43,1.82-.42.37-1.28.25-1.72-.24-.35-.38-.54-.85-.75-1.31-.07-.16-.08-.35,0-.55.38-.79.9-1.48,1.55-2.06.27-.25.64-.25.99-.22Z" fill="#fff9cb"/>
    <path d="M51.22,27.36c.19-.77.3-1.72,1-2.43.12-.13.26-.33.47-.2.2.12.11.34.05.51-.15.49-.31.98-.48,1.48-.22.68-.23,1.34.18,1.94.13.19.15.41.04.54-.14.16-.35.02-.51-.07-.63-.37-.74-.98-.76-1.77Z" fill="#fff9cb"/>
  </g>
</svg>