<?xml version="1.0" encoding="UTF-8"?>
<svg id="Layer_1" data-name="Layer 1" xmlns="http://www.w3.org/2000/svg" viewBox="0 0 70 61">
  <path d="M30.5,0h39.5v61H30.5C13.67,61,0,47.33,0,30.5H0C0,13.67,13.67,0,30.5,0Z" fill="#fb6255"/>
  <path d="M12.06,30.41v.1c0,1.26.54,2.39,1.41,3.2,0,0,0,0,0,0,.17.27.37.52.6.74l8.45,8.44c1.56,1.56,4.07,1.86,5.84.54,2.2-1.64,2.36-4.78.49-6.64l-2.79-2.11s-.01,0,0,0l26.95,1.51c3.46.11,4.74-2.97,4.96-5.25.25-2.61-1.45-6.3-4.81-6.11l-26.95,1.28s-.02-.02-.01-.03l1.75-1.74c1.56-1.56,1.86-4.07.53-5.83-1.64-2.19-4.78-2.36-6.65-.49l-8.56,8.55c-1.05,1.05-1.45,2.5-1.22,3.84Z" fill="#fdf8ce"/>
</svg>