<?xml version="1.0" encoding="UTF-8"?>
<svg id="Layer_1" data-name="Layer 1" xmlns="http://www.w3.org/2000/svg" viewBox="0 0 70 61">
  <path d="M30.5,0h39.5v61H30.5C13.67,61,0,47.33,0,30.5H0C0,13.67,13.67,0,30.5,0Z" fill="#365846"/>
  <g>
    <path d="M33.79,34.92c-.37.02-.59-.03-.62.04-.65,1.12-1.72.43-2.58.62-.26.06-.52.14-.78.21-.82-1.09-1.09-1.22-1.84-.96-.6-.33-1.16-.63-1.72-.93.46-.78.05-1.68-1.01-2.29-1.44-.82-2.88-1.63-4.33-2.44-1.68-.94-2.81-3.29-2.53-5.2.21-1.45.38-2.88,1.03-4.26,1.15-2.43,2.76-4.17,5.52-4.64,1.59-.27,3.17-.62,4.74-.96,1.21-.26,2.05-1,2.31-2.22.28-1.3.46-2.62.67-3.93.16-.99.64-1.49,1.63-1.45.81.03,1.63.18,2.41.42.77.23,1.21.79,1.1,1.68-.14,1.24-.3,2.47-.37,3.72-.13,2.41.85,4.34,2.72,5.84.66.53,1.26,1.14,1.92,1.67,1.88,1.5,2.41,3.55,2.4,5.83,0,.61,0,1.22,0,1.87.82-.03,1-.59,1.24-1.09.47-.97.89-1.96,1.43-2.88,1.35-2.29,3.39-2.95,6.17-2.07.89.28,1.81.52,2.64.92.56.27,1.06.73,1.48,1.21.45.52.14,1.05-.2,1.54-.2.29-.38.61-.49.95-.27.87-.52,1.76-.73,2.65-.06.28.03.6.09.89.12.54.18,1.03-.54,1.18-.13.03-.35.11-.36.19-.12.91-.94,1.12-1.49,1.63-.87.79-1.14.98-2.2.47-.66-.32-1.12-.26-1.53.33-.57.83-1.1,1.7-1.75,2.46-.85,1.01-1.78,1.95-2.71,2.89-.47.47-1.01.87-1.65,1.4.51.27.87.47,1.24.66,2.71,1.37,3.71,3.53,2.97,6.46-.29,1.15-.6,2.3-.94,3.44-.15.5-.04.83.42,1.05.72.34,1.42.7,2.15,1,.47.19.94.35.86.98-.08.65-.61.56-1.05.57-.91.03-1.81.03-2.72.05-.75.02-1.45.04-2.01-.63-.35-.42-.8-.25-1.09.13-.39.52-.91.62-1.5.57-1.08-.07-1.37-.43-1.28-1.52.13-1.75.27-3.49.34-5.24.02-.55-.1-1.13-.3-1.65-.12-.32-.46-.65-.78-.75-.19-.06-.6.25-.77.49-.65.92-1.27,1.87-1.86,2.84-.83,1.37-2.18,1.95-3.62,2.09-1.65.16-3.33.04-4.99-.05-.65-.04-1.13.07-1.42.65-.4.78-.71,1.61-1.14,2.37-.16.28-.56.43-.85.64-.18-.28-.51-.55-.52-.84-.07-1.21-.11-2.44-.04-3.65.02-.4.31-.83.58-1.17.37-.47.42-.88-.03-1.26-.55-.46-.59-1.06-.56-1.69.05-.96.4-1.2,1.35-1.17,1.41.05,2.83.04,4.24-.01,1.19-.05,1.18-.09,1.18-1.31.01-2.22.22-4.42,1.1-6.49.25-.58.58-1.12.95-1.84ZM20.98,23.88c.08,0,.16-.02.25-.02.04,2.55,1.26,4.47,3.07,6.32.21-1.32.24-2.4.57-3.39.33-.99.96-1.89,1.46-2.82-.2,1.9-.55,3.7-.77,5.52-.06.5.11,1.2.45,1.55,1.89,1.98,4.37,2.59,6.99,2.68.97.04,1.6-.56,1.89-1.54-.46.18-.82.4-1.22.47-.42.08-.87.03-1.3.04.04-.37.08-.73.12-1.1,0-.05-.03-.1-.05-.16-2.14-.75-3.03-2.48-.61-4.12.28-.19.74-.26,1.07-.19.69.15,1.34.46,2.02.64,1.2.32,1.93-.39,1.85-1.62-.08-1.3-.02-2.62-.02-3.93.64,1.32.86,2.67.47,4.1-.21.77-.02.92.74.83,1.67-.19,3.25.25,4.79.82.62.23.94.15,1.01-.5.22-1.95.25-3.93-.93-5.57-.87-1.22-2-2.31-3.17-3.25-2.05-1.63-3.34-3.52-2.97-6.25.03-.21-.05-.44-.08-.66-.1,0-.19,0-.29,0-.11.71-.21,1.42-.32,2.13-.19-1.45-.78-2.95.57-4.45v1.62l.33.03c.09-.64.2-1.27.28-1.91.05-.45-.15-.66-.63-.69-.73-.05-1.46-.14-2.19-.26-1.19-.2-1.23-.22-1.33.99-.21,2.54-.86,4.79-3.45,5.96-1.37.62-2.69,1.35-4.03,2.04-.05-.08-.09-.16-.14-.25.87-.57,1.74-1.14,2.61-1.72-.04-.09-.07-.17-.11-.26-1.11.28-2.23.51-3.31.86-.71.23-1.49.49-2.03.98-2.12,1.93-3.33,4.41-3.83,7.21-.25,1.42.98,3.35,2.25,3.62v-3.75ZM37.98,36.44c-.1.06-.2.13-.3.19-.17-.2-.36-.39-.51-.6-.35-.48-.64-1.01-1.03-1.45-.18-.2-.56-.22-.84-.32.07.26.06.6.22.78,1.29,1.47,2.7,2.81,4.59,3.52.79.3,1.54.73,2.34.99.4.13.98.17,1.31-.03,1.87-1.16,3.51-2.57,4.46-4.64.5-1.08.41-1.87-.53-2.92-.19,1.54-.55,2.91-2.38,3.06.15-.32.39-.57.65-.79,1.14-1.01,1.18-1.98.09-3.03-.69-.67-1.4-1.31-2.15-1.92-1.64-1.35-3.6-1.5-5.61-1.34-.26.02-.62.31-.7.56-.21.64-.3,1.32-.41,1.99-.12.66.18,1,.84.91,1.03-.13,1.88.24,2.66.85.67.52,1.36,1.02,2.02,1.54.08.06.1.22.14.33-.04.06-.09.11-.13.17-.37-.21-.77-.39-1.12-.63-.61-.41-1.18-.89-1.79-1.29-.51-.33-1.48-.1-1.92.56-.15.23.04.76.19,1.1.27.63.63,1.21.95,1.82-.1.07-.21.13-.31.2-.63-.85-1.25-1.71-1.88-2.56-.1.06-.2.12-.29.18.49.92.97,1.84,1.46,2.76ZM52.6,31.16c.63-.17,1.33-.16,1.67-.51.35-.37.55-.53,1.02-.36.53.19.82.01.56-.56-.34-.75-.31-1.45.08-2.17.18-.34.25-.75.33-1.14.15-.76-.08-.98-.85-.84-1.01.18-2.01.3-2.96-.26-.09-.06-.24-.03-.42-.05.15.3.26.51.47.94-.77-.32-1.34-.56-1.95-.8-.13.32-.22.55-.25.61-.42-.17-.79-.48-1.1-.42-.62.11-1.03,1.1-.84,1.74.34,1.11.23,1.31-.94,1.59-.65.16-.69.4-.3.93.58.79,1.07,1.66,1.6,2.49.16.25.31.5.52.83.9-.94,1.78-1.07,2.81-.39.21.14.8-.08,1.04-.31.12-.12-.1-.64-.23-.96-.07-.19-.25-.33-.27-.35ZM32.81,32.26c.65.08,1.95-.46,2.08-.94.21-.82.33-1.66.47-2.5.02-.12-.05-.34-.14-.37-.91-.32-1.83-.6-2.74-.9-.08.1-.15.2-.23.3.42.25.84.5,1.26.75-.08.1-.16.19-.24.29-.53-.32-1.06-.64-1.68-1.02-.29,1.21.89,1.31,1.2,2.06-.63-.23-1.25-.46-1.95-.73-.02.92.51,1.22,1.17,1.43q1.46.46.81,1.62ZM35.49,30.71c.16.2.35.43.53.66.15-.23.36-.45.42-.7.15-.6.24-1.21.31-1.83.02-.21-.09-.43-.14-.65-.18.14-.46.25-.53.44-.23.63-.38,1.29-.59,2.08ZM53.1,23.52c.72.35,1.44.69,2.29,1.11-.23-.95-.85-1.23-2.29-1.11ZM44.08,28.56c.46.36.8.64,1.16.88.03.02.24-.24.37-.36-.31-.29-.61-.59-.95-.84-.05-.04-.28.15-.58.32ZM57.05,24.65c.38-.79.15-1.2-.81-1.46.28.5.51.92.81,1.46ZM46.89,27.06c-.12.12-.24.24-.35.36.35.32.71.63,1.06.95l.28-.29c-.33-.34-.66-.68-.99-1.01ZM50.69,24.31c-.46-.24-.81-.44-1.18-.6-.03-.01-.15.18-.23.28.37.18.74.37,1.1.55.01,0,.04-.03.3-.23ZM46.96,31.01c.06-.06.11-.11.17-.17-.18-.3-.35-.62-.56-.9-.06-.08-.28-.04-.43-.05,0,.15-.06.36.02.44.24.25.53.45.8.68Z" fill="#fff9cb"/>
    <path d="M22.33,49.17c.07.28.13.56.21.84.18.65.39,1.29.55,1.94.04.15-.07.34-.11.51-.15-.05-.33-.07-.43-.17-.54-.52-.79-2.37-.23-3.12Z" fill="#fff9cb"/>
    <path d="M21.53,51.7c-.85,0-.88-.6-.95-1.05-.07-.42.03-1.24.1-1.24.71-.04.56.63.69,1.03.12.38.12.8.17,1.25Z" fill="#fff9cb"/>
    <path d="M49.62,46.13c-.09-.86-.18-1.72-.28-2.73.94.61,1.13,1.92.57,2.7-.1,0-.19.02-.29.03Z" fill="#fff9cb"/>
    <path d="M50.52,42.77c.98.43,1.22,1.82.59,2.8-.22-1.03-.4-1.91-.59-2.8Z" fill="#fff9cb"/>
    <path d="M29.81,19.63c.69-1.32,1.38-2.65,2.11-4.04.33.84-1.04,3.64-2.11,4.04Z" fill="#fff9cb"/>
  </g>
</svg>