<?xml version="1.0" encoding="UTF-8"?>
<svg id="Layer_1" data-name="Layer 1" xmlns="http://www.w3.org/2000/svg" viewBox="0 0 70 61">
  <path d="M30.5,0h39.5v61H30.5C13.67,61,0,47.33,0,30.5H0C0,13.67,13.67,0,30.5,0Z" fill="#365846"/>
  <g>
    <path d="M37.53,21.83c.28.3.62.35.95.42.14.03.25.09.35.18.45.37.92.72,1.34,1.13.25.24.43.55.63.84.07.1.15.19.26.21.4.08.61.42.89.66.04.04.07.1.1.15.04.07-.03.22.1.23.11,0,.16-.11.21-.2.27-.41.39-.92.73-1.29.07-.08-.02-.15-.04-.23-.17-.59-.35-1.17-.21-1.8.06-.25.19-.46.31-.68.1-.19.11-.32,0-.54-.41-.84-.75-1.7-.92-2.63-.07-.41-.08-.73.29-.99.18-.13.33-.22.57-.11.49.23,1,.57.95,1.24-.03.43.26.81.32,1.23.02.16.11.31.14.47.09.37.32.55.69.61.27.05.53.38.55.65,0,.08.03.13.07.2.13.18.3.36.22.62,0,.02,0,.05,0,.06.39.19.29.63.49.92.16.24.1.53.05.76-.09.44.11.75.33,1.05.39.55.77,1.11,1.28,1.58.08.07.13.18.25.11.18-.1.37-.06.55-.07.31-.02.62,0,.93-.08.5-.11.98.09,1.39.33.34.19.51.59.52.97,0,.55.1,1.1-.09,1.64-.1.28-.17.58-.3.85-.35.7-.48,1.49-1.07,2.08-.43.43-.92.77-1.45,1.05-.46.24-.95.42-1.42.62-.28.12-.6.25-.95.24-.31-.01-.62.07-.93.12-.87.12-1.66-.18-2.44-.5-.3-.12-.59-.25-.88-.39-.31-.15-.57-.34-.78-.64-.19-.29-.55-.4-.92-.35-.06,0-.14,0-.14.09,0,.11.03.2.11.28.25.22.49.45.73.67.17.15.35.3.46.49.29.48.75.83,1.01,1.33.23.45.53.84.89,1.18.14.13.09.32.18.46.35.54.53,1.15.86,1.69.25.42.43.87.61,1.31.14.33.37.65.31,1.05,0,.04.05.09.07.13.16.31.33.59.04.94-.21.25-.35.55-.69.68-.26.1-.52.21-.79.27-.2.05-.3.24-.42.4-.05.07-.08.17-.16.18-.37.05-.68.28-1.06.32-.48.05-.95.12-1.35.49-.43.39-1.01.46-1.57.48-.33.01-.62.18-.93.22-.11.01-.09.13-.09.21.03,1.13-.31,2.19-.55,3.27-.09.43-.26.84-.21,1.31.05.45.37.66.64.92.05.05.14.08.2.14.51.55,1.07,1.02,1.8,1.28.25.09.24.39.17.6-.05.17-.17.26-.43.22-.39-.05-.8.06-1.2.07-.62.01-1.21-.12-1.73-.48-.08-.05-.16-.1-.23-.16-.18-.13-.29-.05-.31.12-.02.19-.07.34-.27.36-.26.03-.55.13-.78-.07-.14-.11-.31-.23-.25-.46.03-.12-.08-.21-.14-.3-.28-.43-.23-.84.02-1.25.23-.38.27-.8.28-1.25,0-.39-.1-.76-.07-1.14.02-.28-.15-.49-.24-.73-.2-.52-.28-1.06-.22-1.61.05-.53-.05-.67-.57-.79-.26-.06-.52-.12-.79-.09-.25.03-.38.2-.32.45.11.47-.05.91-.1,1.36-.08.77-.42,1.47-.6,2.21-.2.84-.28,1.68-.05,2.53.04.16.04.34.02.5-.15.92-.57,1.65-1.5,2-.51.19-.98.11-1.38-.25-.23-.2-.32-.53-.22-.8.17-.48.3-.96.57-1.43.34-.57.49-1.26.27-1.96-.26-.82-.51-1.64-.67-2.48-.14-.71-.19-1.44-.12-2.17,0-.06.04-.12.06-.17.05-.19.12-.34-.2-.39-.25-.03-.5-.18-.73-.32-.5-.29-1.02-.5-1.57-.69-.48-.17-1.01-.24-1.43-.58-.18-.15-.3-.33-.28-.56.02-.24-.11-.35-.31-.4-.46-.13-.73-.51-.95-.86-.25-.39-.08-.87.19-1.23.3-.4.45-.86.66-1.3.04-.09.07-.2.14-.27.2-.21.24-.49.36-.74.23-.46.52-.9.81-1.33.15-.23.27-.47.36-.72.03-.07.05-.14,0-.21-.05-.07-.13-.05-.2-.02-.06.02-.12.04-.18.04-.29,0-.59.07-.79-.24-.24-.38-.27-.78-.04-1.15.27-.44.62-.84,1.04-1.11.33-.22.65-.47,1-.66.15-.08.16-.14.01-.24-.29-.2-.53-.43-.63-.79-.28-1.01.24-1.74,1.32-1.52.35.07.71.1,1.04.21.33.1.61.38.96.49.1.03.21.17.3.08.09-.08.06-.24,0-.36-.05-.13-.1-.32-.28-.29-.81.11-1.22-.41-1.4-1.04-.2-.68-.49-1.33-.68-2.01-.18-.62-.32-1.26-.26-1.91.03-.35,0-.72.1-1.06.12-.43.49-.68.83-.95.4-.32.86-.52,1.36-.66.44-.12.69-.48.91-.84.08-.13-.05-.15-.15-.14-.41.03-.82-.08-1.14-.27-.75-.44-1.4-.99-1.64-1.92-.22-.85.07-1.52.55-2.16.07-.1.19-.18.3-.22.15-.05.28-.03.21.2-.02.06-.04.12-.04.18,0,.1.06.21.15.21.12,0,.08-.12.08-.2-.01-.45.02-.9.07-1.34.03-.29.07-.58.28-.81.11-.12.11-.26.05-.43-.07-.2-.15-.41-.14-.64,0-.18-.08-.29-.27-.13-.08.06-.17.07-.27.07-.64-.03-1.26-.11-1.84-.39-.47-.23-.67-.65-.78-1.14-.11-.51-.13-1.03.09-1.51.26-.56.57-1.08,1.15-1.39.23-.12.48-.13.73-.11.26.01.39-.05.41-.38.05-.7.44-1.22,1.03-1.59.62-.39,1.32-.52,2.05-.5.25,0,.46.07.68.18.42.2.8.26,1.19-.13.31-.31.78-.31,1.19-.43.83-.26,1.56-.01,2.22.48.64.48,1.07,1.12,1,1.95-.05.69-.27,1.34-.78,1.85-.14.14-.25.25-.13.48.13.23.25.13.43.1.51-.08,1.01-.34,1.54-.04.31.18.63.52.57.74-.07.31.05.47.14.69.08.19-.08.35-.17.51-.16.27-.33.51-.69.57-.29.05-.45.44-.27.71.22.32.17.63.04.92-.17.37-.12.72-.01,1.06.18.57.3,1.15.39,1.73.15.94-.06,1.81-.75,2.53-.35.37-.67.77-1.16.99ZM37.96,32.19c-.15.07-.33.1-.43.2-.24.24-.56.31-.85.43-.17.07-.39-.04-.43-.12-.07-.13.11-.21.24-.25.5-.15.88-.53,1.35-.73.11-.05.21-.13.26-.26.03-.08.13-.16.03-.25-.08-.08-.18-.08-.29-.03-.29.14-.59.25-.86.44-.54.38-1.22.42-1.81.66-.34.14-.7.09-1.05.13-.74.08-1.41-.09-1.96-.62-.33-.32-.7-.59-.99-.94-.1-.12-.24-.19-.29.02-.04.16,0,.38.13.45.3.16.16.35.05.5-.2.26-.39.54-.65.76-.22.19-.31.43-.33.71,0,.12.01.24-.09.35-.32.35-.45.81-.6,1.24-.27.74-.25,1.52-.19,2.29.05.65.04,1.33.47,1.91.41.55.94.97,1.48,1.36.58.41,1.29.62,1.97.87.91.34,1.87.34,2.81.42.45.04.88-.1,1.33-.13.61-.03,1.2-.16,1.8-.25.2-.03.38-.22.59-.26.38-.08.71-.28,1.06-.41.7-.25,1.25-.77,1.87-1.15.07-.04.13-.11.14-.2.03-.22.18-.37.34-.51.44-.38.46-.47.25-.97-.02-.04-.05-.07-.06-.11-.15-.54-.43-.99-.82-1.4-.36-.38-.64-.84-.97-1.24-.34-.42-.72-.79-1.03-1.24-.27-.4-.54-.8-.88-1.13-.27-.26-.58-.47-.77-.8-.12-.22-.22-.13-.27.02-.13.44-.36.84-.54,1.25-.23.53-.64.91-1,1.34-.1.12-.25.14-.37.07-.09-.05-.04-.19.02-.24.25-.19.33-.49.5-.73.31-.45.74-.82.82-1.44ZM37.34,24.88c-.39-.54-.74-1.04-1.11-1.53-.14-.19-.37-.34-.46-.55-.13-.31-.38-.4-.65-.42-.71-.07-1.18-.49-1.54-1.06-.05-.08-.15-.22-.06-.3.1-.09.2.01.3.08.39.25.77.56,1.26.57.32,0,.66.03.97,0,.88-.09,1.58-.54,2.07-1.31.4-.64.56-1.32.58-2.06.01-.38-.07-.74-.1-1.1-.03-.46-.18-.92-.02-1.39.04-.13-.02-.29-.04-.43-.01-.1.03-.71-.02-1.17-.03-.26-.09-.27-.26-.24-.57.09-1.16.09-1.73.12-.22.01-.44-.02-.65-.09-.38-.12-.77-.25-1.15-.37-.32-.1-.62-.1-.93.07-.29.16-.59.31-.87.48-.36.22-.48.58-.63.95.18.03.2-.12.29-.16.09-.04.17-.14.28-.08.11.06.1.18.1.28.02.26-.17.42-.28.61-.06.11-.16.2-.12.34.13.57.14,1.13-.18,1.66-.12.2-.36.2-.5.36-.06.06-.13-.16-.22-.22-.15-.1-.31-.22-.51-.17-.1.03-.18.12-.17.24.06.5.2.97.59,1.32.1.09.19.12.2-.06,0-.23.16-.32.35-.31.2.01.33.12.37.35.04.23.1.46.16.69.12.49.24,1.01-.22,1.42-.07.06-.04.12,0,.19.18.31.36.62.59.9.28.36.57.7.81,1.1.27.46.52.95.84,1.38.13.18.29.34.54.16.11-.08.26-.07.39-.09.57-.05,1.13-.11,1.76-.16ZM49.54,31.89c-.29-.07-.48.05-.66.19-.14.11-.3.1-.38-.04-.1-.17.09-.22.18-.26.53-.2,1.01-.52,1.51-.77.34-.17.47-.52.56-.8.06-.2.07-.47.13-.71.02-.07.08-.15.02-.2-.09-.08-.14.04-.21.07-.14.07-.27.15-.41.22-.62.31-1.2.7-1.89.83-.35.07-.7.11-1.02.26-.58.26-1.19.17-1.79.19-.05,0-.12.01-.13-.05-.01-.07.05-.12.11-.13.28-.07.56-.19.84-.2.54-.03,1.03-.24,1.54-.37.86-.21,1.64-.64,2.4-1.07.17-.1.4-.12.52-.32.22-.39.23-.79.09-1.2-.04-.13-.14-.2-.28-.21-.68-.05-1.35.05-2.02.11-.08,0-.22.04-.18.18.1.34-.04.77-.32.97-.04.03-.09.08-.14.04-.03-.03-.04-.09-.03-.14,0-.19.03-.37.03-.56,0-.25-.06-.39-.36-.43-.29-.04-.5.2-.78.14-.05-.01-.09.1-.06.15.16.28.06.6.11.89.02.11.04.26-.1.29-.14.04-.15-.11-.19-.2-.28-.66-.4-1.36-.62-2.03-.14-.44-.39-.86-.4-1.33,0-.21-.08-.38-.17-.55-.02.07-.03.13-.02.19.1.88.19,1.77.29,2.65.05.4.07.8.16,1.19.03.13.15.33-.02.39-.11.04-.28-.1-.35-.25-.03-.06-.07-.11-.08-.17-.17-.84-.41-1.67-.32-2.54.01-.15.1-.33-.02-.48-.13.14-.06.31-.08.47-.11.96-.22,1.89.34,2.8.21.35.45.38.7.35.46-.06.91-.23,1.36-.32.32-.06.55-.33.88-.36.32-.03.56-.24.84-.37.46-.22.91-.43,1.38-.63.1-.04.24-.09.31.03.06.1.1.25.02.36-.11.16-.23.39-.39.45-.59.23-1.13.55-1.73.76-1.09.38-2.19.66-3.32.86-.85.15-1.7.21-2.56.25-.5.02-1.01-.02-1.44-.38-.17-.14-.36-.24-.54-.37-.1-.07-.22-.15-.3-.05-.07.08.06.18.12.27.18.29.53.4.72.67.21.3.5.5.8.69.19.11.38.33.53.36.44.08.91.02,1.36.02.26,0,.52-.06.81,0-.09.13-.16.26-.29.29-.6.13-1.2.21-1.81.1-.2-.04-.34-.11-.4.18-.02.12-.16.22-.31.23-.06,0-.13.03-.13.11,0,.09.08.07.14.09.33.11.68.19.99.35.91.51,1.9.53,2.88.45.83-.07,1.66-.31,2.41-.74.4-.23.84-.41,1.18-.83ZM27.3,11.63c-.03.34.04.62.25.86.41.47.95.7,1.55.77.58.07.59.04.58-.54,0-.03,0-.06,0-.09.02-.16-.03-.25-.22-.26-.24-.02-.45-.13-.6-.34-.12-.17-.14-.35-.04-.49.09-.12.27-.15.43-.08.98.39,1.73.04,2.41-.7.17-.18.2-.25-.03-.4-.2-.12-.22-.51-.05-.67.17-.17.32.02.47.1.04.02.06.06.1.08.4.22.73.58,1.21.64.08.01.19.11.25,0,.05-.09-.08-.13-.13-.19-.05-.05-.1-.11-.15-.16-.09-.08-.08-.16-.02-.25.07-.1.15-.1.25-.07.06.02.1.07.16.1.83.44,1.09.58,2.05-.14.2-.15.39-.32.59-.45.07-.04.16-.14.25-.08.12.08.04.19.01.28-.07.27-.24.54.16.74.17.09.25.1.36-.03.3-.36.48-.78.54-1.24,0-.07,0-.15-.03-.21-.19-.53-.53-.94-1-1.27-.72-.51-1.46-.28-2.04.07-.33.2-.64.32-1.01.34-.47.03-.92-.1-1.37-.19-.71-.15-1.32.13-1.91.48-.52.31-.84.7-.73,1.35.04.24-.12.39-.35.45-.24.07-.5.04-.75.08-.25.04-.54.04-.71.27-.28.38-.56.76-.5,1.25ZM36.17,22.49c.17.24.5.37.55.66.07.45.36.76.61,1.09.12.16.31.32.34.51.09.44-.19.78-.65.87-.23.05-.46.11-.7.13-.37.03-.74.1-1.1.15-.26.04-.59.25-.84-.05-.19-.22-.41-.39-.49-.7-.07-.27-.2-.54-.33-.8-.34-.7-.77-1.35-1.25-1.97-.13-.16-.22-.35-.38-.49-.06-.05-.11-.1-.19.01-.27.37-.3.6-.05.95.14.2.33.38.47.58.3.43.68.8.88,1.3.12.28.19.56.23.86.07.49.38.9.49,1.37.05.21.11.42.12.64.01.3.17.56.28.82.07.16.34.03.52.06.55.08,1.12.1,1.67.19.58.09,1.15-.06,1.72-.18.36-.08.69-.15.89-.52.11-.2.09-.4.13-.6.11-.56.28-1.13-.1-1.66-.02-.02-.03-.07-.02-.09.19-.29-.09-.42-.2-.61-.06-.11-.14-.21-.18-.33-.22-.64-.56-1.22-.83-1.84-.11-.25-.32-.41-.62-.37-.2.02-.39,0-.58-.06-.14-.04-.26-.04-.39.08ZM40.16,31.56c-.03-.11-.15-.09-.22-.14-.07-.06-.16-.11-.17-.21-.02-.16.03-.32.16-.42.13-.1.25,0,.36.08.37.29.68.65,1.17.74.1.02.19.06.24-.05.05-.1-.07-.13-.11-.19-.16-.2-.4-.34-.5-.59-.07-.18-.2-.3-.36-.38-.39-.18-.53-.54-.67-.9-.07-.19-.02-.33.23-.31.18.02.35,0,.52.07.09.03.23.1.27-.04.03-.12,0-.27-.16-.33-.19-.07-.38-.2-.57-.23-.38-.06-.76-.16-1.14.09-.27.18-.57.32-.87.41-.37.12-.73.28-1.15.25-.89-.05-1.77-.12-2.63-.35-.21-.06-.38.1-.58-.02-.31-.2-.57-.45-.78-.75-.24-.34-.49-.39-.73-.06-.33.43-.74.78-1.1,1.18-.27.3-.28.4-.02.71.15.18.34.33.49.52.37.49.85.75,1.46.83.86.1,1.65-.12,2.45-.37.49-.15.91-.54,1.48-.49.18.02.42.12.49-.19.01-.05.09-.03.14,0,.33.13.64.25.9.52.37.38.7.92,1.39.62ZM30.57,52.79c0,.56.17.66.62.49.21-.08.36-.21.49-.37.28-.34.56-.68.39-1.2-.07-.21-.12-.46-.11-.7.02-.52.05-1.04.19-1.54.11-.38.1-.8.24-1.15.22-.53.14-1.1.33-1.63.08-.23-.01-.52.06-.77.05-.15-.01-.23-.19-.23-.28,0-.57.03-.84-.03-.34-.07-.66-.27-1.02-.09-.1.05-.18-.03-.25-.09-.14-.11-.23-.11-.24.09,0,.56.04,1.12.16,1.67.12.53.33,1.03.39,1.59.05.47.19.94.33,1.39.1.32-.07.59-.06.88,0,.34-.1.64-.27.91-.16.26-.17.55-.23.77ZM28.8,25.08c-.02.81.13,1.58.48,2.32.13.27.24.18.35.06.49-.57,1.1-.94,1.82-1.14.16-.04.41-.01.46-.2.06-.2-.2-.26-.3-.39,0,0-.02-.01-.02-.02-.36-.67-.96-1.1-1.55-1.54-.08-.06-.18-.1-.1-.21.06-.09.12-.2.27-.13.19.08.4.12.58.21.76.41,1.31,1.04,1.74,1.77.04.08.05.22.17.16.12-.05.19-.19.12-.32-.24-.48-.46-.99-.77-1.42-.28-.4-.55-.8-.87-1.18-.13-.15-.31-.17-.43-.02-.08.1-.17.18-.3.22-.37.13-.74.28-1.09.47-.36.19-.63.44-.6.9,0,.16.01.31.02.47ZM36.21,50.73c-.03.29.01.6.3.69.24.08.42.29.71.24.22-.04.44.04.62.17.27.19.59.24.88.36.05.02.1.04.13-.03.02-.06-.02-.09-.07-.12-.12-.08-.24-.16-.36-.24-.81-.52-1.32-1.7-1.11-2.62.18-.78.38-1.56.55-2.34.06-.26.14-.52.11-.8-.02-.16-.03-.28-.26-.2-.34.12-.7.17-1.07.14-.25-.02-.5-.05-.74-.07-.1,0-.21-.02-.19.12.07.48.05,1,.24,1.43.25.57.3,1.15.35,1.75.04.51-.07,1.02-.09,1.52ZM43.98,24.81c-.13.02-.18.05-.2.03-.4-.21-.53.02-.61.35,0,.04-.04.07-.06.11-.38.67-.77,1.35-1.15,2.02-.06.11-.14.19-.26.2-.34,0-.6.22-.88.36-.1.05-.23.1-.23.23,0,.13.14.15.24.2.2.1.43.16.52.4.02.06.02.13.11.12.08,0,.08-.08.09-.14.1-.42.38-.69.75-.86.52-.23,1.07-.33,1.63-.39.23-.03.33-.11.3-.36-.02-.16-.03-.34,0-.5.13-.67.29-1.35.52-1.99.03-.09.03-.2.05-.3.02-.1-.02-.13-.11-.14-.29-.03-.35-.23-.32-.47.03-.21-.05-.41-.24-.4-.46.02-.56-.2-.52-.59,0-.03,0-.07-.02-.09-.31-.24-.14-.43.06-.63.08-.08.14-.18.2-.28.04-.06.1-.13.04-.2-.07-.08-.18-.05-.23,0-.22.22-.47.41-.45.78.04.64.21,1.26.46,1.85.09.22,0,.49.3.69ZM32.12,10.7c.05.24.06.48-.1.71-.34.49-.82.74-1.38.88-.13.03-.26.07-.25.23.05.55.02,1.11.22,1.68.34-.38.67-.73,1.03-1.04.45-.38.97-.62,1.45-.95.56-.38,1.19-.55,1.86-.5.54.05,1.09.13,1.61.29.19.06.22.03.18-.19-.09-.43-.33-.75-.59-1.08-.1-.13-.18-.15-.3-.09-.09.04-.19.09-.29.12-.54.16-1.09.27-1.63.01-.2-.09-.37-.06-.56,0-.22.08-.46.09-.7.11-.24.02-.32-.25-.56-.18ZM30.92,29.07c.44-.28.72-.68,1.03-1.03.31-.36.59-.72,1.12-.73.09,0,.15-.02.14-.15-.04-.43-.22-.56-.62-.46-.03,0-.06.01-.09.02-.98.13-1.79.56-2.52,1.25-.58.55-.36,1,.07,1.42.12.12.21.11.26-.08.13-.49.41-.9.72-1.28.12-.15.34-.34.5-.19.18.16-.07.32-.19.45-.2.21-.41.42-.41.78ZM42.76,29.84c.56-.18,1.18-.18,1.79-.29.19-.03.23-.07.13-.24-.28-.47-.49-.96-.47-1.52,0-.06.02-.14-.07-.14-.07,0-.11.06-.1.13.03.21-.12.24-.27.27-.17.03-.35.05-.53.06-.49.05-.89.3-1.24.62-.06.05-.12.13-.13.21-.06.48.33.89.89.89ZM29.35,32.26c-.08-.03-.14.01-.21.04-.78.4-1.48.92-2.18,1.43-.32.23-.52.55-.7.89-.06.11-.06.19.08.19.22.01.43.04.62-.12.83-.66,1.52-1.47,2.28-2.2.05-.05.12-.14.11-.25ZM28.83,31.66c.22.04.47-.03.7-.1.19-.06.44-.17.47-.36.03-.23-.25-.18-.4-.24-.03-.01-.05-.03-.08-.04-.5-.16-.99-.35-1.51-.43-.33-.05-.5.18-.36.48.23.48.63.69,1.18.69ZM41.43,25.43c-.41.03-.66.36-1,.52-.17.08-.29.23-.31.41-.06.52-.52.89-.49,1.44,0,.07-.12.16,0,.2.1.03.16-.08.19-.17.32-.82.94-1.33,1.74-1.64.23-.08.42-.21.34-.47-.06-.2-.25-.32-.49-.3ZM38.47,22.97c.07.24.24.39.3.6.09.34.23.66.42.96.04.07.06.21.18.18.11-.03.09-.15.1-.24,0-.14,0-.32.19-.29.19.03.11.22.1.34-.02.19-.13.39-.05.58.07.17.09.32.02.48-.03.06-.05.12.02.17.07.05.11,0,.16-.03.15-.12.32-.23.47-.35.37-.29.38-.31.04-.64-.39-.37-.65-.86-1.11-1.16-.27-.17-.46-.48-.83-.59ZM46.16,25.34s-.06.05-.06.06c.08.57.32,1.09.51,1.62.03.08.1.09.18.04.23-.14.49-.21.75-.29-.39-.57-1.03-.85-1.38-1.44ZM45.66,22.11s-.04-.05-.06-.07c-.16-.18-.32-.28-.55-.08-.29.26-.62.47-.76.87-.02.07-.06.14.02.19.02.02.09,0,.11-.01.3-.31.7-.46,1.06-.69.08-.05.16-.11.17-.21ZM44.04,22.45c.31-.39.62-.74,1.1-.91.12-.04.07-.25.04-.37-.02-.08-.1-.07-.18-.05-.51.15-.98.77-.95,1.33ZM35.35,44.58c.79.06,1.58.09,2.36-.09-.79-.04-1.58-.17-2.36.09ZM32.82,44.56c0-.08,0-.11,0-.12-.18-.24-1.45-.46-1.69-.29-.03.02-.06.07-.05.1,0,.06.07.06.12.07.53.08,1.08.07,1.62.24ZM26.38,39.58c-.06,0-.12.01-.15.08-.16.35-.21.73-.3,1.09-.02.06-.06.19.07.2.11.02.12-.08.13-.17.02-.17.09-.31.2-.44.15-.17.12-.41.19-.61.03-.08-.01-.17-.13-.16ZM44.85,23.53s.04-.02.05-.04c.21-.24.53-.27.78-.44.09-.06.2-.1.11-.23-.07-.11-.17-.15-.29-.07-.21.14-.42.27-.62.41-.09.06-.09.16-.11.25,0,.06.02.1.08.11ZM43.02,18.47c.29.03.34-.19.39-.39.03-.12-.04-.23-.18-.24-.19-.01-.4.2-.4.39,0,.14,0,.26.19.23ZM37.75,43.73c.57-.05,1.1.05,1.54-.31.05-.04.11-.07.08-.14-.03-.06-.08-.02-.13,0-.38.18-.79.27-1.21.31-.08,0-.17,0-.29.13ZM40.63,27.36c.31-.21.74-.19.95-.56.03-.04.07-.09.04-.14-.04-.07-.12-.04-.16,0-.31.19-.63.37-.83.7ZM34.71,43.58c.06,0,.08-.1.1-.18.03-.1-.03-.23.08-.32.04-.03.06-.09,0-.13-.05-.03-.11-.02-.14.02-.07.13-.21.16-.32.23-.06.04-.19.02-.17.14.01.09.11.12.18.15.06.03.14.04.27.08ZM27.11,37.41c-.21.09-.15.28-.22.4-.15.26-.11.59-.35.81-.06.06-.04.18,0,.27,0,.02.06.03.08.02.1-.04.08-.13.09-.21,0-.11.06-.2.09-.29.11-.32.26-.63.31-.99ZM46.11,23.53c0-.07.03-.22-.08-.16-.21.11-.45.16-.61.34-.03.04-.09.07-.05.13.04.07.1.06.16.03.15-.06.3-.14.47-.13.14,0,.11-.12.12-.21ZM27.52,40.5s.05.03.08.04c.22-.2.33-.47.34-.77,0-.06.06-.16-.04-.19-.1-.03-.15.08-.17.14-.08.25-.14.51-.21.77ZM44.04,20.72c-.09-.42-.27-.81-.49-1.17.05.44.31.79.49,1.17ZM27.84,36.52c.3-.04.07-.34.23-.45.04-.03.03-.1-.02-.13-.01,0-.04,0-.06,0-.05.01-.25.51-.22.55.02.02.05.03.07.03ZM26.45,42.67s-.02.06-.02.1c.16.07.31.13.47.2.07.03.16.11.2-.02.03-.11-.08-.13-.14-.17-.16-.09-.34.03-.49-.11ZM28.62,43.03c.07-.02.18.04.19-.08,0-.11-.09-.13-.18-.11-.07.02-.11,0-.16-.06-.06-.09-.15-.08-.2,0-.06.1.03.14.1.19.07.05.15.05.24.05ZM40.99,43.53s.01.07.02.1c.23-.04.46-.09.7-.13,0-.03-.01-.06-.02-.09-.24.01-.47.02-.7.12ZM25.31,41.14c0-.14.06-.27.1-.4.01-.06-.06-.12-.09-.1-.12.07-.16.2-.17.33,0,.08.05.13.17.16ZM30.35,41.07c-.05-.07-.04-.19-.16-.19-.09,0-.11.08-.1.16,0,.09.02.2.14.19.07,0,.12-.07.12-.16ZM29.62,44.02c.07,0,.19.03.17-.07-.03-.14-.2-.12-.31-.16-.06-.02-.15-.02-.14.05.03.15.17.15.28.18ZM42.21,41.7s0-.03,0-.05c-.11,0-.22,0-.34,0-.09,0-.15.05-.14.13.02.12.1.07.17.05.1-.04.2-.09.3-.13Z" fill="#fff9cb"/>
    <path d="M34.44,39.4c-.42-.19-.82-.29-1.12-.53-.63-.48-1.31-.89-1.76-1.59-.33-.53-.71-1.02-.87-1.63-.13-.48-.32-.96-.32-1.47,0-.16-.01-.31-.06-.46-.06-.17-.01-.3.16-.35.17-.04.25.08.31.23.15.38.05.79.19,1.16.15.41.17.87.45,1.24.11.14.17.33.23.51.17.49.44.88.88,1.19.28.19.48.5.73.75.23.22.53.32.8.45.2.1.3.26.37.52Z" fill="#fff9cb"/>
    <path d="M31.45,32.34c.59,1.54,1.48,2.82,2.48,4.05-.19-.11-.41-.08-.59-.23-.52-.44-1.02-.9-1.31-1.51-.29-.6-.61-1.19-.76-1.86-.04-.16.05-.27.18-.45Z" fill="#fff9cb"/>
    <path d="M38.92,33.74c.37.54.58,1.1.49,1.79-.08.62-.22,1.22-.44,1.8-.03.08-.06.16-.1.23-.06.11-.14.25-.28.19-.13-.05-.01-.18-.02-.28-.01-.34.12-.65.26-.95.02-.04.04-.08.04-.12-.04-.62.2-1.24.07-1.86-.06-.27-.01-.54-.01-.81Z" fill="#fff9cb"/>
    <path d="M35.45,24.45c-.05.08-.08.14-.13.2-.09.1-.02.38-.25.31-.34-.11-.4-.32-.26-.62.12-.25.21-.51.42-.71.19-.18.33-.17.5.01.18.2.35.41.44.67.08.25.24.43.47.56.1.05.15.14.22.22.03.04.05.09.02.14-.03.05-.08.07-.14.05-.28-.1-.55-.25-.87-.22-.11,0-.18-.16-.23-.28-.04-.11-.06-.22-.19-.32Z" fill="#fff9cb"/>
    <path d="M42.61,32.89c.75.17,1.5.23,2.26.2.22,0,.43-.02.64-.07.13-.03.27-.03.3.13.03.15-.12.18-.23.21-.28.06-.57.04-.85.08-.43.05-.85-.06-1.28-.07-.31,0-.61-.08-.9-.18-.09-.03-.19-.08-.17-.18.02-.1.12-.14.23-.11Z" fill="#fff9cb"/>
    <path d="M48.31,31.74s-.07-.07-.09-.13c-.04-.09.02-.11.09-.11.46,0,.76-.31,1.07-.58.32-.28.72-.39,1.08-.59.08-.05.14,0,.12.1-.03.19-.11.33-.28.42-.39.22-.79.41-1.17.64-.22.13-.51.15-.84.24Z" fill="#fff9cb"/>
    <path d="M43.44,31.67c-.21.03-.41.02-.58-.1-.06-.04-.16-.07-.14-.18.02-.1.1-.12.18-.14.27-.07.53.07.8.06.12,0,.24.07.37.01.08-.04.14.02.17.09.03.1-.04.13-.11.15-.23.07-.45.18-.69.09Z" fill="#fff9cb"/>
    <path d="M48.03,32.79c-.07-.02-.18.01-.16-.07.03-.18.21-.17.35-.2.06-.02.16.02.13.09-.06.14-.21.14-.32.19Z" fill="#fff9cb"/>
    <path d="M46.4,26.39c.33.17.51.42.57.75.01.06.03.13-.04.17-.02.01-.08,0-.08,0-.16-.29-.54-.48-.45-.91Z" fill="#fff9cb"/>
  </g>
</svg>