<?xml version="1.0" encoding="UTF-8"?>
<svg id="Layer_1" data-name="Layer 1" xmlns="http://www.w3.org/2000/svg" viewBox="0 0 70 61">
  <path d="M30.5,0h39.5v61H30.5C13.67,61,0,47.33,0,30.5H0C0,13.67,13.67,0,30.5,0Z" fill="#365846"/>
  <path d="M59.72,37.7c-.12,4.02-1.57,7.67-5.02,10.34-2.23,1.73-4.78,2.56-7.63,2.2-.21-.03-.48.12-.66.26-2.89,2.36-6.11,3.27-9.78,2.37-1.12-.28-2.11-.85-2.98-1.61-.16-.14-.42-.24-.61-.23-1.16.09-2.23-.12-3.22-.76-.14-.09-.42-.05-.61-.02-1.23.24-2.44.62-3.69.75-2.92.31-5.42-.78-7.35-2.93-3.74-4.11-4.86-8.85-3.08-14.19.99-2.95,2.42-5.61,4.97-7.5,1.35-1,2.82-1.84,4.29-2.63,1.51-.81,2.98-1.65,4.19-2.86,1.99-1.99,2.96-4.45,3.17-7.22.07-1,.09-2.01.1-3.01,0-.99.54-1.66,1.49-1.84,1.83-.35,3.69-.68,5.52-1,1.14-.21,2.02.49,2.13,1.65.14,1.8.31,3.6.36,5.41.07,2.04.93,3.66,2.44,4.97,1.16,1,2.47,1.72,3.91,2.27,2.94,1.16,5.61,2.77,7.8,5.08,2.73,2.88,4.2,6.27,4.24,10.53v-.02ZM28.33,46.81s-.14-.14-.22-.21c-3.22-2.69-4.34-6.12-3.56-10.19.57-3,2.01-5.58,3.84-7.97.24-.31.48-.62.74-.9.31-.33.81-.36,1.16-.09.36.28.43.78.17,1.2-.09.12-.19.24-.29.36-1.21,1.47-2.25,3.07-3.01,4.83-.87,2.01-1.35,4.07-1.02,6.27.42,2.77,2.06,4.68,4.38,6.1.36.23.67.55.97.87.36.42.78.59,1.32.45.66-.19,1.06-.62,1.26-1.28,1.82-5.84,2.08-11.78.99-17.77-.12-.64.12-1.07.66-1.18.54-.1.95.19,1.04.85.22,1.7.5,3.41.61,5.13.31,4.66-.24,9.22-1.68,13.67-.36,1.11-.33,1.3.66,1.96.4.28.87.48,1.32.64,1.23.38,2.46.28,3.67-.12,2.44-.8,4.14-2.32,4.79-4.9.78-2.96.74-5.89-.05-8.84-.88-3.19-2.49-5.94-4.64-8.42-.42-.49-.42-1,0-1.35.4-.35.92-.26,1.33.23,1.45,1.66,2.68,3.46,3.63,5.47,1.99,4.19,2.66,8.56,1.47,13.11-.17.68-.4,1.32-.66,2.13.64,0,1.23.07,1.78,0,2.66-.38,4.59-1.89,5.9-4.18,2.25-3.92,1.61-9.11-1.52-12.59-1.97-2.2-4.45-3.67-7.16-4.75-1.45-.57-2.82-1.28-4.05-2.25-2.13-1.65-3.69-3.67-4.14-6.41-.16-.97-.19-1.97-.26-2.95-.01-.19-.03-.38-.04-.57-.06-.82-.82-1.41-1.63-1.26,0,0-.02,0-.02,0-.45.08-.78.45-.81.9-.1,1.63-.35,5.43-.6,7.41-.19,1.58-.66,3.14-1.02,4.68-.14.55-.62.8-1.09.64-.48-.16-.73-.59-.57-1.14.1-.42.24-.81.35-1.23.14-.52.24-1.06.36-1.59-.38.33-.66.68-.95,1.02-1.73,2.03-3.91,3.43-6.3,4.52-3.51,1.61-5.85,4.24-7.06,7.95-1.19,3.69-.59,7,1.76,10,2.08,2.63,5.36,3.31,8.2,1.77v-.03Z" fill="#fff9cb"/>
</svg>