<?xml version="1.0" encoding="UTF-8"?>
<svg id="Layer_1" data-name="Layer 1" xmlns="http://www.w3.org/2000/svg" viewBox="0 0 70 61">
  <path d="M30.5,0h39.5v61H30.5C13.67,61,0,47.33,0,30.5H0C0,13.67,13.67,0,30.5,0Z" fill="#365846"/>
  <g>
    <path d="M58.31,17.86c-.07-.34.03-.71-.13-1.05-.13-.27-.2-.58-.37-.83-.13-.2-.39-.29-.49-.48-.19-.35-.49-.48-.82-.61-.13-.05-.26-.08-.39-.11-.31-.08-.45-.35-.65-.54-.21-.2-.43-.43-.51-.76-.08-.35-.15-.73-.43-.98-.44-.4-.82-.89-1.44-1.11-.27-.1-.51-.32-.83-.38-.35-.06-.7-.14-1.05-.08-.15.03-.29,0-.43,0-.27,0-.53-.2-.82-.06-.05.03-.18,0-.22-.05-.13-.19-.34-.2-.52-.28-.26-.11-.57-.16-.67-.49-.02-.07-.11-.12-.2-.15-.22-.08-.48-.09-.67-.21-.52-.35-1.11-.4-1.69-.46-.37-.04-.72.09-1.08.13-.69.08-1.16.49-1.57.96-.73.82-.78,1.81-.51,2.82.06.22.12.46.27.67.25.34.65.5.94.8.17.17.18.26.07.42-.3.45-.61.9-.91,1.35-.1.14-.23.29-.25.44-.04.34-.26.55-.49.71-.72.51-1.29,1.14-1.79,1.85-.26.37-.28.82-.4,1.24-.05.18-.15.35-.15.55,0,.12.05.19.14.23.09.04.17,0,.22-.09.18-.32.39-.63.55-.97.14-.31.27-.62.49-.88,0-.42.22-.81.59-1.01.08-.04.17-.08.25-.11-.01-.02-.01-.05-.01-.08,0-.1.13-.15.22-.2.28-.14.57-.27.81-.49.09-.08.22-.19.33-.13.21.11.44.15.65.15.23,0,.4,0,.56.19.06.07.21.1.32.02.03-.02.07-.02.1-.02.65.03,1.2.37,1.79.56.27.09.53.23.79.33.79.29,1.51.67,2.21,1.14.21.14.26.23.11.44-.22.32-.09.99.31,1.07-.19.07-.3.24-.54.13-.14-.06-.38-.09-.52.03-.17.15-.15.7,0,.94.08.14.16.28.2.44.14.08.19.24.28.37.03.05.04.1-.01.14-.05.04-.1.03-.15,0-.19-.12-.21-.3-.14-.5-.04,0-.07,0-.1-.02-.32-.08-.36-.06-.39.26-.04.47.17.9.22,1.35.01.1.08.16.21.11.08-.03.19-.02.24.12.07.21.26.23.4.07.03-.03.01-.08.08-.1.43-.16.87-.27,1.34-.28.46,0,.96.35.96.81,0,.27-.03.56-.15.82-.28.6-.71,1.06-1.31,1.34-.48.23-.98.51-1.55.32-.15-.05-.32-.04-.42-.22-.05-.09-.17-.26-.27-.18-.11.1-.29.2-.26.42.05.36.44.84.79.93.18.04.11.1.05.19-.16.21-.32.42-.41.67-.04.1-.11.12-.18.13-.48.1-.89.37-1.34.54-.75.29-1.5.59-2.27.84-.64.22-1.31.34-1.93.65-.09.04-.18.07-.27.1-.12.03-.26-.06-.25-.14.06-.38-.27-.31-.42-.32-.51-.04-.94-.27-1.37-.49-.69-.35-1.18-.93-1.61-1.55-.2-.28-.33-.58-.42-.92-.08-.31-.3-.57-.36-.93-.08-.54-.18-1.07-.16-1.61.02-.66-.04-1.43.15-2.06.15.06.34.38.49.46.7.38,1.42.69,2.25.52.28-.06.52-.15.74-.35.12-.11.16-.21.09-.34-.08-.14-.2-.06-.32-.04-.55.1-1.11.13-1.65-.07-.36-.13-.64-.38-.87-.68-.11-.14-.2-.68-.1-.83,0-.01.03-.04.03-.04.28.08.58-.14.86.04.13.09.28.16.44.16.3,0,.58.08.88.12.29.04.6.04.85-.08.42-.2.69-.58.91-.99.1-.19.1-.39.11-.6,0-.13-.08-.22-.18-.27-.07-.03-.17-.05-.22.03-.12.2-.3.41-.33.61-.05.36-.29.54-.5.76-.08.08-.2.18-.29.09,0,0,0-.01,0-.02-.02,0-.03.02-.04.02-.13.03-.26,0-.39-.03-.08-.03-.16-.06-.24-.09-.02,0-.03-.01-.05-.02,0,0,0,0,0,0-.02,0-.04,0-.06,0-.1-.02-.18-.08-.23-.16-.24-.13-.51-.19-.77-.26-.48-.11-.94,0-1.27.35-.39.41-.42.92-.17,1.45-.17-.06-.32-.06-.38.1-.07.19-.19.35-.23.56-.06.35-.15.7-.22,1.04-.16.71-.14,1.42-.04,2.1.12.88.36,1.75,1.02,2.46-.17-.03-.29.05-.4.18-.09.11-.25.16-.31.32-.03.08-.12.08-.18.06-.4-.13-.81-.12-1.22-.13-.79-.02-1.56.11-2.34.15-.28.01-.59.04-.83-.25-.27-.33-.62-.53-1.08-.42-.14.03-.12-.1-.15-.17-.16-.51-.37-.97-.94-1.13-.16-.05-.21-.16-.28-.3-.07-.16.08-.28,0-.4-.12-.17-.14-.37-.19-.56-.06-.22,0-.43-.07-.65-.16-.51-.1-1.05-.22-1.57-.01-.05,0-.11.02-.15.21-.36.31-.77.44-1.16.22-.64.31-1.3.23-1.98-.04-.35-.05-.72-.03-1.08.03-.49.35-.85.57-1.26.12-.22.31-.45.26-.69-.1-.53-.52-.84-1.06-.81-.8.04-1.46.82-1.68,1.49-.08.26-.08.53-.14.79-.3-.11-.51-.32-.77-.45-.5-.26-.8-.79-1.28-1.09-.01,0-.02-.03-.03-.04-.23-.46-.62-.8-1-1.12-.32-.26-.65-.56-1.1-.58-.22-.01-.48-.06-.62.15-.18.27-.38.57-.11.91.09.11.14.24.14.4-.23-.05-.37-.21-.53-.33-.59-.41-1.19-.36-1.54.3-.08.15-.09.34-.35.33-.1,0-.21.15-.26.28-.08.19-.13.38-.13.59,0,.52.15.96.68,1.2-.18.07-.31-.06-.47,0-.44.14-.54.81-.35,1.13.18.3.41.54.72.71.3.17.61.31.9.49.5.33.92.75,1.36,1.14.47.42.87.95,1.4,1.27.38.24.33.37.23.72-.11.38-.28.74-.34,1.15-.07.5-.39.96-.29,1.51-.28.38.03.85-.19,1.24-.09.17.1.31.04.48-.05.14-.03.27,0,.42.04.22.09.46-.18.63-.26.17-.35.47-.38.77-.01.11.04.24.04.35-.02.37.21.84.53,1.03.1.06.2.14.2.26-.01.61.23,1.04.78,1.35.28.16.55.32.87.39.32.07.61.28.86.49.31.25.65.42.99.61.23.13.51.17.72.34.12.1.25.15.39.15.1,0,.21,0,.28.05.36.24.79.2,1.18.32.19.06.2.09.12.24-.13.25-.38.43-.47.68-.14.39-.45.68-.55,1.1-.09.37-.33.71-.49,1.07-.11.26-.2.54-.3.81-.15.41-.28.82-.45,1.21-.11.27-.16.55-.26.82-.15.41-.31.82-.41,1.24-.07.28,0,.58-.14.87-.05.11-.1.21-.12.34-.11.6-.23,1.2-.3,1.81-.05.47-.17.93-.27,1.39-.08.39.01.77.27,1.03.28.29.5.62.79.91.38.39.85.62,1.28.92.3.21.67.31.95.57.12.12.29.21.46.25.26.05.53.04.69.3.03.04.08.08.14.06.23-.09.39.05.56.15.08.05.17.11.27.11.34,0,.68.05.99.14.9.28,1.81.21,2.72.22.11,0,.18-.03.24-.13.06-.11.03-.19-.02-.3-.09-.19-.27-.07-.4-.12-.35-.16-.74-.14-1.11-.24-.49-.13-1-.21-1.49-.32-.49-.11-1.01-.22-1.44-.53-.07-.05-.16-.09-.24-.1-.51-.05-.93-.35-1.42-.47-.25-.06-.49-.34-.76-.46-.3-.13-.49-.4-.78-.56-.07-.04-.19.01-.21-.11-.04-.23-.25-.33-.38-.47-.2-.22-.36-.34-.09-.62.21-.23.12-.57.16-.85.05-.4.26-.79.07-1.21,0-.02.01-.05.02-.07.22-.59.43-1.19.54-1.81.14-.79.44-1.53.55-2.33,0-.04.03-.08.06-.12.4-.57.54-1.25.83-1.87.26-.55.36-1.19.71-1.7.29-.41.39-.91.67-1.33.16-.23.4-.43.44-.75.01-.1.07-.19.14-.27.3-.36.45-.81.76-1.15.07-.07.18-.12.19-.24.03-.24.2-.43.33-.61.24-.32.46-.65.73-.95.39-.45.7-.96,1.18-1.34.08-.07.14-.18.1-.26-.05-.1-.17-.14-.3-.12-.11.02-.21.05-.29.12-.29.25-.66.42-.88.74-.14.21-.4.18-.55.36-.4.5-.83.98-1.25,1.46-.09.11-.11.28-.29.33-.1-.66,0-1.33-.12-1.98-.03-.18-.12-.24-.28-.15-.12.07-.16.2-.2.32-.15.46-.12.93-.09,1.39.01.21.01.43.12.63.17.33.09.66-.06.98-.06.12-.13.16-.24.06-.16-.15-.34-.26-.45-.46-.1-.17-.25-.34-.48-.4-.07-.02-.11-.06-.18,0-.08.08-.05.14,0,.21.12.17.22.36.43.5-.2-.04-.37-.03-.5-.1-.56-.29-1.12-.57-1.7-.82-.1-.04-.1-.1,0-.19.13-.1.28-.03.42-.12.24-.17.47-.36.7-.54.16-.12.35-.19.48-.36.17-.23.35-.44.54-.65.38-.42.61-.92.78-1.43.22-.67.37-1.37.38-2.09.19.01.38.05.47.21.15.26.3.54.38.83.15.53.25,1.08.28,1.64.01.16.11.22.23.24.14.03.16-.11.19-.2.14-.59.22-1.18.03-1.77-.04-.12,0-.13.12-.12.2,0,.34.13.55.11.77-.07,1.54-.09,2.31-.14.23-.01.47.05.69-.05.06-.03.11.02.11.1-.02.43.04.83.39,1.14.02.02.04.06.04.09-.02.17.07.24.22.26.03,0,.07.02.08.05.02.05-.03.08-.07.1-.38.15-.7.41-.99.68-.38.36-.82.68-1.07,1.18-.09.18-.14.37-.26.55-.27.4-.64.71-.92,1.11-.07.1-.16.09-.25.12.03.06.13.02.12.12-.06.08-.17-.11-.22.03-.04.12.04.21.13.25.29.14.57.31.92.31.21,0,.41-.04.62-.03.58.01,1.12-.14,1.64-.4.47-.24.87-.55,1.23-.97.32-.37.59-.78.87-1.17.06-.08.09-.07.16-.03.19.08.42,0,.59.17.15-.16.45-.03.57-.29,0,.33.02.65-.02.97-.04.37.17.72.27,1.08.1.36.4.62.65.9.23.26.55.45.83.66.05.04.12.08.16.07.19-.04.35.24.55.05,0,0,.04.03.06.05.32.22.67.15,1.01.07.16-.04.3-.19.14-.36-.36-.38-.35-.87-.41-1.33-.05-.41-.03-.83-.1-1.23-.08-.49-.11-.99-.34-1.45.14-.04.23.07.35.07.47.02.94-.1,1.41-.03.03,0,.05,0,.08,0,.4-.13.83-.05,1.23-.17.37-.11.78-.04,1.11-.3.08-.06.17-.13.27-.15.73-.16,1.38-.54,2.04-.85.23-.11.42.02.47.09.25.32.55.51.93.59.02,0,.05.01.07.03.25.32.67.44.9.79.3.45.71.83.96,1.32.15.29.31.58.49.85.16.23.37.4.34.71,0,.07.03.15.06.21.19.38.28.79.4,1.19.1.33.12.7.32,1,.06.08.07.17.1.26.13.33-.08.69.14,1,.06.09.14.21.13.31-.04.38.16.67.26,1,.08.26.1.58.13.86.03.31.02.63.07.95.03.19.05.38-.11.62-.05-.38-.26-.6-.44-.82-.25-.31-.44-.65-.55-1.03-.25-.83-.93-1.19-1.64-1.47-.31-.12-.68-.14-1.03-.14-.43,0-.86-.01-1.26.18-.26.12-.53.22-.8.32-.07.03-.18.04-.14-.06.11-.28.16-.59.43-.81.16-.13.37-.23.46-.42.07-.13.16-.18.26-.19.45-.09.8-.38,1.21-.57.09-.04.14-.14.24-.19.13-.07.1-.26-.03-.36-.18-.15-.38-.13-.59-.1-.47.06-.9.2-1.34.4-.25.12-.37.33-.56.49-.36.29-.64.65-.83,1.07-.19.43-.45.85-.14,1.33.03.04.05.1-.05.11-.34.03-.52.29-.73.5-.29.29-.3.68-.37,1.04-.02.08.04.19-.12.21-.53.07-.95.38-1.38.68-.31.22-.67.38-.99.58-.05.03-.13.06-.18.04-.32-.12-.64-.07-.97-.07-.57,0-1.14-.03-1.7.13-.48.15-.94.35-1.41.52-.19.07-.36.2-.55.26-.49.15-.9.47-1.3.76-.46.33-.84.79-1.17,1.27-.18.26-.37.57-.28.87.21.67.85.8,1.43.31.19-.16.41-.29.63-.44.03.1-.02.15-.06.18-.25.24-.44.53-.61.84-.16.3-.26.61-.19.96.1.44.41.61.83.45.09-.03.16-.11.27-.08,0,.07,0,.14,0,.21,0,.26.26.51.52.52.36.02.66-.08.94-.32.2-.18.43-.32.64-.48-.12.25-.24.48-.25.76,0,.31.17.59.48.6.58.02,1.02-.33,1.48-.61.28-.18.43-.5.69-.7.17-.13.35-.28.54-.35.32-.12.66-.2.91-.45.14-.14.3-.21.48-.23.3-.03.53-.23.66-.43.23-.34.56-.25.85-.34-.47.24-.84.64-1.3.9-.06.03-.15.07-.14.14,0,.07.09.12.16.11.09,0,.21.07.25-.07.02-.06.03-.12.1-.14.46-.15.91-.3,1.36-.49.46-.2.9-.43,1.3-.73.28-.21.59-.31.83-.18.36.2.42.33.36.74,0,.03.03.06.03.09.04.37.08.73.05,1.1-.01.21-.12.31-.26.42-.37.28-.85.34-1.22.63-.1.08-.23.22-.39.07-.02-.02-.1.02-.14.05-.34.22-.72.36-1.08.54-.34.18-.76.06-1.08.31-.11.08-.31.09-.46.16-.15.07-.29.1-.45.12-.33.05-.65.13-.97.19-.26.05-.52.17-.78.19-.43.03-.86.07-1.28.14-.62.1-1.25.06-1.86.16-.39.06-.78.13-1.17.19-.07.01-.15.03-.16.11-.01.09.08.18.14.16.19-.06.33.33.53.05.02.01.03.03.05.04.18.1.36.18.57.12.15-.04.31-.04.46-.02.22.03.43.07.66,0,.27-.08.57.07.85-.02.28.3.62,0,.93.1.13.04.3-.03.45-.05.24-.04.45-.22.71-.11.06.02.14,0,.21-.02.28-.05.56-.09.84-.17.33-.09.68-.16,1.02-.24.63-.15,1.24-.39,1.84-.65.06-.02.12-.06.17,0,.05.07-.02.11-.06.15-.19.17-.39.32-.63.43-.09.04-.15.1-.12.2.03.09.11.11.19.11.09,0,.17-.01.24-.08.32-.28.67-.5.95-.83.08-.09.25-.19.47-.15-.25.18-.49.33-.58.56-.1.25-.31.31-.48.45-.18.15-.39.29-.5.53-.05.11-.04.16.07.14.08-.01.17.02.25-.04.48-.37.97-.72,1.37-1.18.06.17-.07.32-.05.49.02.19.1.27.3.2.23-.09.4-.27.51-.46.28-.48.09-1.06.27-1.58.03-.1.03-.16.15-.18.36-.08.55-.29.61-.67.08-.56-.02-1.09-.12-1.63-.04-.23-.04-.31.2-.39.17-.06.33-.14.51-.11.05,0,.1.02.12-.02.1-.2.3-.18.47-.24.17-.05.32-.13.38-.32.06-.16.2-.27.35-.3.32-.05.61-.18.9-.33.54-.27.91-.66,1.03-1.27.02-.1.06-.17.15-.25.25-.21.49-.47.57-.76.07-.24.12-.51.14-.76.03-.37.19-.72.13-1.09-.06-.4-.1-.81-.12-1.22-.02-.44-.19-.85-.29-1.28-.14-.58-.19-1.18-.4-1.76-.1-.27-.19-.57-.22-.88-.02-.18-.08-.39-.16-.56-.13-.27-.23-.54-.3-.83-.08-.3-.19-.59-.32-.87-.15-.32-.38-.62-.49-.95-.07-.2-.13-.28-.42-.22.24-.18.15-.31.06-.41-.29-.32-.48-.71-.76-1.05-.47-.56-1.03-.98-1.57-1.45-.14-.13-.33-.2-.49-.27-.35-.15-.63-.49-1.08-.42-.23.04-.34-.15-.29-.4.09-.45.13-.88-.08-1.32-.09-.18-.49-.48-.69-.48.17-.39.25-.47.52-.66.1-.07.19-.02.29-.06.57-.22,1.03-.61,1.49-.98.19-.15.34-.36.45-.57.22-.4.39-.83.43-1.29.03-.39.12-.79-.04-1.18-.11-.26-.19-.51.03-.79.3-.4.21-.84,0-1.26-.08-.15-.15-.28,0-.43.11-.1.09-.28.16-.37.15-.19.18-.45.39-.6.04-.03.02-.06,0-.09-.03-.11.02-.13.1-.08.32.22.7.32,1.06.37.52.07,1.06.19,1.55-.16.07-.05.15-.1.24-.1.26.01.41-.16.56-.34.06-.07.1-.16.19-.22.6-.43.78-1.05.84-1.75.03-.32-.03-.61-.09-.92ZM25.64,24.08c-.15-.21-.4-.33-.54-.53-.32-.46-.83-.65-1.26-.95-.41-.29-.83-.54-1.23-.85-.16-.13-.4-.18-.56-.41.31-.03.57,0,.86.1.51.16.98.4,1.49.53.03,0,.05,0,.08,0,.18.04.36-.02.41-.19.04-.15-.07-.32-.22-.38-.39-.15-.72-.38-1.01-.68-.18-.18-.33-.38-.56-.49-.3-.14-.49-.42-.77-.58-.15-.09-.24-.26-.13-.4.12-.15.29-.08.44.02.07.05.14.14.24.05.05-.04.09,0,.13.04.24.19.49.38.74.56.36.27.75.52,1.13.76.08.05.16.07.21.18.04.1.17.14.29.04.09-.07.29-.03.22-.24-.07-.2-.18-.36-.41-.4-.03,0-.08-.01-.09-.04-.52-.62-1.16-1.09-1.81-1.56-.11-.08-.18-.22-.34-.09-.03.03-.13,0-.1-.07.04-.12.05-.27.24-.26.16,0,.31.09.43.19.36.3.78.48,1.18.71.16.09.3.18.4.33.25.38.59.63,1.04.72.2.04.28.11.09.3-.27.29-.37.69-.62,1-.05.07-.06.16-.14.22-.08.07-.08.14-.02.23.07.11.18.04.23.01.13-.07.26-.17.34-.29.25-.39.6-.69.88-1.04.21-.26.23-.47.05-.59-.1-.07-.23-.02-.35-.08-.13-.07-.39-.3-.41-.45,0-.03-.03-.07-.05-.09-.44-.37-.7-.86-.96-1.36-.09-.17-.21-.32-.28-.5-.02-.06-.04-.13.01-.17.06-.05.1.02.15.06.57.38,1.05.85,1.42,1.44.14.21.37.33.54.52.21.23.47.42.72.62.27.22.6.32.91.46.19.08.33.23.52.29.29.1.48-.03.56-.33.09-.34.11-.7.31-1.02.09-.14.11-.31.2-.47.19-.3.51-.36.79-.51.08-.04.22-.06.29.03.08.1.02.2-.04.29-.3.45-.56.93-.7,1.46-.13.47-.23.98-.12,1.46.07.31.06.61.07.91.02.44-.29.79-.39,1.19-.09.36-.38.71-.15,1.12.01.02.01.06,0,.07-.2.27-.04.55-.06.82-.03.46.16.87.13,1.31,0,.13.01.26.05.39.07.22.1.46.12.69,0,.04,0,.1.03.12.1.08.09.21.13.3.24.55,0,.98-.32,1.34-.29.33-.57.69-.92.96-.36.28-.74.52-1.18.68-.37.13-.73.31-1.12.41-.3.08-.38,0-.46-.3-.09-.39.01-.81-.08-1.18-.09-.34.13-.62.04-.94-.1-.33.1-.64.1-.94,0-.4.06-.8.1-1.19.03-.34.13-.68.15-1.03.02-.46.08-.79.67-.71.12.02.33,0,.41-.15.05-.08.1-.2.01-.32-.1-.14-.26-.14-.35-.11-.38.12-.59-.17-.87-.31-.1-.05-.19-.15-.3-.2-.26-.12-.45-.32-.62-.55ZM31.47,31.4c-.14.44-.24.9-.46,1.3-.46.82-1.06,1.53-1.99,1.86-.04.01-.09.01-.12.04-.4.35-.86.28-1.33.21-.33-.05-.65-.07-.93-.29-.12-.1-.2-.21-.29-.35.21-.06.38.07.56.02.13-.03.31-.05.32-.21.02-.15-.12-.26-.26-.28-.49-.08-.85-.4-1.2-.71-.16-.14-.38-.33-.31-.65.45.54,1.06.52,1.64.47.59-.05,1.14-.31,1.67-.57.4-.2.73-.51,1.09-.77.29-.21.53-.54.72-.87.14-.25.32-.47.39-.75.03-.15.22-.14.27-.3.05-.17.02-.32-.04-.53.28.19.36.42.4.64.11.59.04,1.16-.14,1.73ZM51.98,47.38c-.74.12-1.47.37-2.21.48-.5.07-1.01.2-1.53.03-.07-.02-.12,0-.16.06-.27.38-.7.6-.98,1-.15.22-.51.29-.77.42-.29.14-.55.35-.82.5-.49.27-.71.78-1.15,1.09-.31.22-.62.4-.96.57.23-.43.46-.86.79-1.22.07-.08.14-.16.17-.26.07-.26.35-.34.48-.55.04-.06.12-.1.16-.17.1-.15.24-.33.08-.49-.14-.15-.33,0-.44.08-.17.13-.36.22-.55.29-.18.06-.23.24-.37.34-.58.4-1.13.85-1.69,1.29-.13.1-.33.26-.43.18-.14-.11,0-.3.09-.45.22-.32.49-.61.78-.87.36-.31.74-.59,1.04-.96.13-.16.29-.31.44-.46.1-.1.16-.21.16-.34,0-.08-.04-.13-.11-.16-.07-.04-.11-.01-.18.03-.2.12-.4.24-.58.39-.22.18-.5.26-.68.49-.14.19-.27.38-.54.42-.1.02-.11.18-.18.27-.17.24-.42.4-.56.67-.13.25-.38.31-.66.35-.35.05-.2-.12-.17-.27.06-.3.34-.45.49-.7.24-.41.52-.79.88-1.11.33-.3.66-.61.98-.92.15-.14.39-.25.27-.5-.12-.25-.34-.09-.51-.04-.69.2-1.3.52-1.86.99-.36.3-.8.5-1.2.75-.09.06-.18.05-.24,0-.07-.06-.02-.15.03-.22.35-.45.72-.87,1.2-1.2.24-.17.57-.23.71-.52.06-.13.21-.13.31-.17.58-.22,1.13-.52,1.75-.66.35-.08.69-.11,1.04-.13.15-.01.31-.06.46-.11.18-.06.34-.04.5.07.03.02.04.05.08.05.4-.02.81.01,1.2-.16.63-.27,1.2-.66,1.81-.96.26-.13.52-.25.74-.43.14-.11.31-.15.49-.15.04,0,.07,0,.09-.02.49-.39,1.02-.19,1.54-.11.18.03.24.26.4.37.46.31.67.76.77,1.3.05.27.22.51.2.8,0,.17.04.35-.01.51-.08.28-.23.47-.59.53ZM55.99,45.74c-.02.07-.04.14-.03.21.02.5-.25.82-.62,1.09-.06.05-.13.07-.2.04-.09-.03-.03-.12-.05-.19-.01-.04-.01-.09,0-.13.16-.27.09-.57.13-.85.1-.66-.16-1.18-.51-1.68-.06-.09-.18-.15-.29-.09-.09.05-.13.12-.11.25.03.26.11.49.21.73.1.25.08.54.05.82-.05.55-.18,1.09-.37,1.61-.16.44-.59.56-.98.61-.21.03-.44.13-.66.03-.06-.03-.16,0-.18-.08-.02-.1.09-.1.15-.12.35-.1.6-.36.82-.62.15-.17.22-.42.27-.65.12-.52.07-1.04-.15-1.54-.23-.53-.63-.93-1.02-1.35-.54-.58-1.28-.68-1.96-.91-.24-.08-.54-.04-.84.04.31-.61.6-.77,1.38-.66.5.07,1.01.15,1.5.24.17.03.32.13.48.21.08.04.17.05.21-.03.03-.06-.03-.13-.08-.18-.16-.16-.38-.22-.58-.29-.13-.04-.24-.08-.35-.18-.09-.09-.2-.17-.35-.13-.12.03-.22-.07-.23-.16,0-.11.12-.06.19-.07.58-.06,1.17-.08,1.74.1.37.12.71.29,1.02.52.09.06.15.15.19.25.05.11.1.26.19.31.27.14.29.43.45.63.28.36.31.83.53,1.23.16.28.11.64.03.97ZM38.46,30.97c.08-.23.18-.52.38-.77.02-.03.05-.04.09-.03.14.05.27.39.18.5-.05.06-.05.12-.05.19.03.38.15.73.4,1.02.15.18-.03.27-.08.38-.08.16-.16,0-.22-.05-.38-.3-.69-.64-.7-1.24ZM39.76,34.07c-.21.27-.4.56-.64.8-.34.35-.6.78-1.05,1.01-.56.3-1.13.56-1.79.56-.09,0-.16-.03-.2-.1-.04-.08.05-.12.09-.16.32-.34.58-.72.84-1.1.19-.28.36-.57.58-.83.37-.42.84-.7,1.34-.94.07-.03.12-.07.16-.13.03-.04,0-.13.13-.09.13.04.14.11.17.2.04.11-.05.12-.11.14-.47.14-.78.51-1.13.81-.11.1-.24.19-.23.38,0,.11-.16.12-.23.21.23.23.39.11.58-.07.39-.39.86-.67,1.34-.94.05-.03.11-.05.16,0,.07.08.05.16-.01.24ZM39.96,31.47c-.19-.13-.39-.3-.35-.62.21.17.37.34.62.46-.12.05-.15.24-.27.16ZM41.54,33.47s0,.05,0,.08c-.01.46,0,.43-.47.32-.52-.12-.71-.58-1.03-.91-.02-.02-.02-.07-.02-.1.02-.49.56-1.1,1.05-1.19.05,0,.11-.03.14.03.03.06-.02.1-.06.13-.34.25-.47.57-.48,1,0,.16-.05.32,0,.49.06.17.13.32.34.37,0-.13.1-.27-.04-.38-.02-.01-.02-.07,0-.1.16-.43.25-.9.66-1.19.15-.11.29-.2.49-.17.08.01.16.02.2.09.05.09-.05.14-.1.19-.38.37-.57.83-.68,1.33ZM42.86,36.58c-.26-.42-.48-.9-.59-1.42-.06-.31-.22-.61-.28-.94-.02-.1,0-.19-.03-.32.27.1.4.25.5.47.16.38.4.72.48,1.14.02.08.1.19.19.14.1-.07.3-.1.26-.28-.08-.38-.13-.78-.29-1.13-.13-.27-.4-.48-.62-.7-.06-.06-.15-.09-.16-.19.48-.13.74.26,1.08.46.34.21.46.52.45.93,0,.29.15.58.12.86-.03.37.11.72.06,1.1-.03.3.12.6.28.9-.61-.2-1.13-.53-1.44-1.03ZM50.14,31.52c.07.16.03.25-.11.32-.35.16-.68.35-1.06.43-.34.07-.61.32-.98.34-.13,0-.26.05-.38.08-.5.13-1.02.13-1.52.2-.65.08-1.29.06-1.93-.13-.35-.11-.73-.11-1.08-.24-.04-.01-.09,0-.1-.09.46.01.9-.14,1.35-.24.46-.1.94-.16,1.38-.37.16-.07.35-.13.54-.14.19,0,.37-.08.54-.17.16-.08.33-.14.52-.16.28-.03.52-.19.77-.32.52-.26,1.07-.46,1.55-.8.07-.05.14-.14.25-.06.12.08.17.21.13.32-.11.37-.01.7.13,1.02ZM50.53,20.37s.1-.03.12-.01c.09.11,0,.22-.02.34-.1-.1-.13-.2-.09-.32ZM50.89,23.04c-.11-.16-.22-.33-.31-.5-.03-.05-.03-.11.03-.13.05-.02.07,0,.1.05.17.25.35.51.53.78-.18,0-.27-.07-.36-.19ZM51.83,22.62c-.38-.41-.75-.82-1.13-1.23.02-.02.04-.04.06-.05.33.45,1.07.54,1.13,1.24-.02.02-.04.03-.07.05ZM57.22,19.16c-.23.75-.83,1.07-1.5,1.3-.19.07-.41.03-.61-.02-.3-.07-.6-.13-.86-.3-.11-.07-.16-.12,0-.18.14-.05.07-.17.06-.25,0-.2.07-.24.26-.25.39-.03.78.1,1.17-.07.13-.06.24-.15.37-.19.1-.03.05-.14.04-.21-.02-.09-.1-.15-.2-.14-.55.05-1.08,0-1.58-.26-.21-.11-.29-.32-.47-.45-.12-.08-.2-.25-.37-.14-.19.12-.38.25-.41.52-.03.29.15.42.35.54.1.07.11.12.09.26-.03.19-.18.34-.16.52.01.12-.09.11-.13.16-.21.26-.3.6-.52.85-.08.1.07.24-.05.34-.03.03.07.17-.07.12-.05-.02-.28.09-.2-.16.02-.07-.08-.18-.16-.26-.26-.27-.55-.51-.74-.85-.23-.42-.7-.55-1.08-.79-.19-.12-.31-.3-.47-.42-.22-.15-.43-.32-.68-.43-.35-.17-.7-.33-1.07-.48-.31-.13-.62-.28-.94-.41-.13-.05-.27-.05-.4-.09-.54-.17-1.06-.41-1.63-.46-.38-.03-.74-.22-1.13-.15-.06.01-.16-.02-.19-.07-.05-.07.06-.11.09-.17.14-.21.39-.39.45-.6.12-.42.52-.67.59-1.1.04-.23.23-.35.37-.49.06-.06.13-.07.22-.04.19.06.4.1.56.21.29.21.64.14.95.2.06.01.15.03.18-.06.03-.08,0-.16-.08-.21-.18-.13-.35-.27-.54-.38-.36-.2-.68-.45-.96-.76-.11-.13-.1-.3-.19-.44-.07-.11-.14-.23-.21-.35-.07-.11-.14-.23-.28-.17-.13.06-.25.19-.21.35.05.26.11.52.23.76.09.19-.03.46-.23.5-.11.03-.15-.05-.18-.12-.08-.19-.23-.31-.4-.41-.05-.03-.11-.06-.14-.11-.31-.4-.54-.82-.57-1.34-.01-.23.16-.44.02-.66.28-.35.36-.83.85-1.03.6-.25,1.21-.23,1.83-.19.27.02.51.05.68.3.05.08.19.13.3.15.17.03.31.09.39.26.14.31.47.45.72.58.3.16.66.3,1.02.39.59.16,1.21.05,1.8.14.42.06.84.06,1.26.23.71.27,1.17.74,1.49,1.39.06.11.04.27.06.4-.01.44.24.78.45,1.12.09.15.34.13.52.18.07.02.17,0,.2.09.08.25.27.29.49.29.18,0,.29.17.44.17.19,0,.2.09.21.22,0,.09.06.11.13.15.34.16.58.43.63.81.04.32.18.63.11.96,0,.03.01.07.03.09.24.37.11.73,0,1.1Z" fill="#fff9cb"/>
    <path d="M17.59,16.12c.02-.48.27-.87.49-1.28.32-.59.84-.99,1.32-1.43.1-.09.14-.22.26-.29.37-.22.75-.47,1.12-.63.47-.21.94-.45,1.44-.61.49-.16.96-.39,1.45-.55.43-.14.84-.32,1.28-.43.59-.16,1.18-.31,1.74-.54.54-.22,1.12-.33,1.6-.7.04-.03.09-.07.16-.08.3-.05.56-.24.83-.34.46-.16.8-.48,1.23-.67.57-.24,1.11-.53,1.64-.86.12-.07.25-.11.37-.17.81-.36,1.62-.72,2.5-.87.55-.1,1.1-.25,1.67-.21.44.03.87.14,1.29.26.19.06.34.2.54.27.25.09.32.36.37.63.2.93-.3,1.6-.81,2.24-.48.6-1.14,1.02-1.76,1.47-.33.24-.71.46-1.07.6-.52.2-.99.5-1.53.67-.37.12-.75.27-1.12.42-.16.07-.33.12-.51.1-.1-.01-.17.02-.25.09-.14.12-.34.07-.52.11-.51.1-1.02.21-1.54.26-.38.04-.75.14-1.14.17-.33.03-.66.09-.99.15-.41.08-.8.21-1.23.23-.19,0-.39.11-.55.26-.21.19-.45.33-.71.45-.19.08-.35.25-.56.33-.35.14-.57.5-.92.61-.46.14-.78.55-1.28.58-.02,0-.06.01-.07.03-.19.22-.45.32-.71.42-.62.26-1.23.52-1.91.62-.6.09-1.12-.04-1.64-.28-.44-.2-.44-.64-.49-1.04ZM24.91,14.2c-.14-.03-.24,0-.32.03-.45.21-.96.27-1.42.44-.3.11-.64.23-.99.25-.06,0-.13,0-.16.07-.07.18-.22.16-.36.15-.09,0-.17,0-.25.04-.34.14-.69.29-1.04.42-.13.05-.27.1-.4.11-.1,0-.25.02-.28-.1-.03-.12.08-.21.18-.26.22-.11.42-.24.61-.39.39-.3.85-.48,1.29-.69.13-.06.27-.18.4-.17.21.02.38-.1.52-.18.33-.18.69-.21,1.03-.31.6-.18,1.24-.08,1.84-.24.06-.01.09-.07.17-.05.45.13.88-.07,1.31-.13.85-.11,1.68-.29,2.52-.42.22-.03.45.01.65-.07.25-.11.51-.16.77-.22.99-.22,1.95-.54,2.9-.93.52-.21,1.01-.5,1.5-.75.26-.13.57-.28.78-.54.15-.19.43-.21.59-.38.39-.39.77-.8,1.02-1.3.05-.09.1-.17.12-.29.09-.53-.39-.87-.91-.93-.5-.06-1.01-.04-1.51.13-.85.28-1.67.59-2.46,1.02-.73.4-1.51.7-2.23,1.12-.06.03-.12.03-.18.03-.14,0-.27.06-.39.14-.22.14-.44.28-.7.36-.21.07-.44.16-.65.26-.3.14-.61.25-.93.36-.29.1-.6.15-.88.27-.32.14-.65.24-.97.34-.5.16-.98.39-1.51.49-.39.08-.78.25-1.17.39-.71.26-1.39.58-2.06.89-.44.21-.89.4-1.27.71-.52.43-.98.92-1.33,1.51-.18.31-.21.63-.03.86.21.28.6.42.9.34.37-.1.74-.2,1.1-.3.04-.01.09,0,.13-.03.54-.35,1.13-.59,1.71-.85.52-.24,1-.54,1.51-.8.27-.14.57-.22.84-.43Z" fill="#fff9cb"/>
    <path d="M31.05,46.07c.16-.79.26-1.61.57-2.39.07-.18.1-.38.14-.58.08-.42.33-.79.41-1.2.09-.5.33-.95.44-1.45.08-.35.33-.66.46-1,.23-.58.53-1.13.82-1.68.09-.16.24-.27.29-.46.04-.12.15-.23.31-.16.17.07.17.29.13.38-.16.38-.39.73-.54,1.12-.17.43-.45.82-.55,1.29-.06.28-.27.52-.32.82-.07.46-.26.91-.45,1.3-.24.5-.32,1.03-.48,1.54-.21.69-.42,1.39-.52,2.12-.07.5-.14,1.03-.32,1.52-.06.16-.12.34-.02.54.05.1-.03.24-.09.34-.06.09-.11.2-.1.3.07.46-.18.87-.18,1.29,0,.25-.08.5-.03.75.03.18-.04.37-.18.37-.14,0-.29-.16-.3-.35-.04-.75-.04-1.49.07-2.24.07-.48.18-.96.28-1.43.05-.24.28-.44.16-.73Z" fill="#fff9cb"/>
    <path d="M48.73,39.02c.11-.22-.14-.35-.11-.55.06-.47.05-.93.19-1.4.17-.54.35-1.07.62-1.56.24-.44.63-.76,1-1.1.22-.2.54-.24.7-.51.04-.08.05,0,.08.02.03.04.09.04.12,0,.25-.39.58-.24.91-.15.07.02.19.04.17.16-.02.11-.1.16-.21.16-.16,0-.31.2-.48.03-.03.21-.25.16-.35.26-.28.28-.51.6-.83.84-.12.09-.15.23-.21.35-.21.45-.54.84-.66,1.34,0,.03-.03.05-.03.07.03.41-.23.76-.2,1.17.01.14-.05.3-.1.44-.1.27-.13.54-.11.83.01.14-.04.23-.18.26-.15.03-.21-.07-.24-.19-.04-.16-.06-.33-.08-.49Z" fill="#fff9cb"/>
    <path d="M41.07,45.18c-.56,0-.77-.46-.56-.97.2-.49.58-.8,1.13-.86.18-.02.33.03.43.18.44.65.2,1.08-.34,1.43-.19.12-.41.24-.66.22ZM41.13,44.67c.19-.11.32-.23.49-.3.09-.04.13-.19.05-.27-.07-.08-.16,0-.22.07-.12.14-.29.25-.32.5Z" fill="#fff9cb"/>
    <path d="M51.21,49.22c.04.07-.03.1-.07.12-.23.12-.44.27-.58.49-.06.09-.14.03-.2.05-.41.13-.57.58-.97.72-.14.05-.36.02-.43.18-.15.33-.56.23-.76.5-.08.1-.34.07-.53.08-.17,0-.31.04-.42.17-.11.12-.2.05-.26-.04-.06-.1.04-.13.12-.17.34-.19.63-.48.96-.65.41-.21.74-.56,1.21-.67.03,0,.06,0,.07-.02.26-.25.63-.34.9-.57.21-.19.5-.25.71-.44.08-.07.23.09.23.26Z" fill="#fff9cb"/>
    <path d="M35.14,43.12c0,.61-.43,1.04-1.01,1.1-.27.03-.54-.09-.68-.32-.13-.22-.08-.48.05-.71.11-.19.2-.38.35-.55.18-.2.43-.28.65-.3.31-.03.64.42.64.78ZM34.42,42.98c-.07.03-.14.05-.19.13-.05.1-.13.19-.19.28-.04.06-.11.13-.02.2.08.06.16.06.24,0,.17-.12.23-.3.3-.48.05-.14-.09-.08-.14-.13Z" fill="#fff9cb"/>
    <path d="M32.9,48c.07.13.1.2.28.24.31.06.37.36.38.67.01.42-.28,1.01-.58,1.14-.34.14-.62,0-.86-.2-.24-.19-.17-.47-.12-.71.09-.41.24-.79.72-.91.07-.02.12-.13.2-.22ZM33.01,49.06c0-.08.03-.15-.03-.19-.07-.06-.12.02-.18.05-.05.02-.1.05-.13.08-.11.12-.15.27-.09.43.02.04,0,.12.08.11.15-.03.23-.15.3-.27.04-.07.06-.14.05-.2Z" fill="#fff9cb"/>
    <path d="M43.42,39.21c0,.49-.31.93-.78,1.07-.3.09-.57-.04-.79-.25-.2-.19-.25-.45-.12-.67.22-.38.42-.8.96-.83.44-.03.75.23.74.68ZM42.83,39.07c-.13.21-.33.28-.46.43-.04.05-.09.08-.05.15.02.04.05.07.1.07.23,0,.48-.36.41-.65Z" fill="#fff9cb"/>
    <path d="M35.19,38.64c.06-.24.13-.57.46-.73.09-.04.1-.15.19-.19.19-.1.37-.12.56.01.02.01.04.03.06.04.09.08.28-.02.31.13.06.25.22.49.11.77-.09.22-.27.37-.45.5-.43.31-.62.33-1.05.04-.16-.11-.2-.24-.19-.57ZM35.96,38.85c.18-.05.23-.16.31-.23.09-.08.16-.21.12-.29-.04-.08-.18-.04-.32-.03.21.22,0,.35-.12.55Z" fill="#fff9cb"/>
    <path d="M49.38,41.32c-.28,0-.54.01-.76-.18-.1-.09-.26-.13-.36-.15-.49-.11-.71-.56-1.1-.79-.31-.18-.32-.52-.1-.74.14-.15.53-.1.72.09.12.12.21.25.32.38.08.08.12.19.3.13.13-.04.26.12.35.22.17.18.26.42.48.57.14.1.1.3.16.47Z" fill="#fff9cb"/>
    <path d="M52.13,25.45c-.1.03-.23,0-.27.15-.02.06-.1.09-.2.06-.22-.07-.4.01-.56.17.28.19.28.48.03.68-.17.14-.33.27-.57.24-.24-.02-.41-.18-.37-.43.09-.51.32-.93.8-1.19.33-.19.65-.11.96,0,.11.04.17.16.18.3Z" fill="#fff9cb"/>
    <path d="M46.91,42.71c-.08,0-.14,0-.2-.02-.11-.04-.21-.11-.21-.24,0-.11.09-.16.19-.19.39-.12.78-.24,1.17-.36.13-.04.29-.03.33.12.03.12-.09.15-.19.19-.13.06-.26.15-.36.25-.22.21-.49.19-.74.24Z" fill="#fff9cb"/>
    <path d="M50.61,50.76c-.06-.01-.09-.01-.08-.11.02-.19.16-.31.26-.44.12-.16.3-.28.44-.43.06-.06.13-.07.19-.03.06.03.05.14.02.17-.27.27-.43.64-.78.83-.01,0-.03,0-.05.01Z" fill="#fff9cb"/>
    <path d="M51.79,16.91c-.42.06-.59-.25-.78-.53-.13-.19-.17-.42-.35-.58,0,0-.01-.02-.01-.02.07-.46-.21-.2-.4-.23-.7-.11-1.44-.06-2.04-.59-.4-.35-.73-.73-.95-1.2-.02-.04-.02-.08-.03-.13-.04-.16-.05-.34.09-.43.19-.12.3.06.4.19.24.28.37.63.64.89.39.38.83.69,1.38.75.21.03.43,0,.65,0,.17,0,.27-.07.28-.26.01-.22.14-.4.31-.52.15-.1.34-.14.47-.02.13.12.19.31.09.5-.1.18-.1.39-.18.59-.09.23.05.48.19.68.12.19.29.35.43.53.07.08.18.18.12.29-.06.1-.17.15-.31.09Z" fill="#fff9cb"/>
    <path d="M52.62,16.95c.49-.05.98.12,1.49.15.23.01.5.06.74-.07.14-.08.3-.05.38.08.07.1-.04.21-.11.29-.24.26-.55.4-.89.45-.57.08-1.1-.1-1.64-.24-.18-.04-.27-.21-.34-.37-.1-.22.03-.32.38-.3Z" fill="#fff9cb"/>
    <path d="M51.66,18.16c.06-.01.13-.01.17-.04.25-.17.32,0,.42.19.15.28.25.57.44.83.07.09.15.21,0,.32-.14.1-.25.06-.36-.06-.24-.28-.43-.59-.62-.9-.06-.11-.06-.22-.06-.33h0Z" fill="#fff9cb"/>
    <path d="M52.27,19.69c.02.16-.02.25-.09.3-.09.06-.14-.05-.19-.09-.21-.22-.37-.47-.61-.66-.24-.18-.42-.4-.6-.63-.06-.08-.15-.16-.08-.24.09-.11.18,0,.24.07.28.29.61.51.94.73.21.14.31.37.39.53Z" fill="#fff9cb"/>
    <path d="M51.67,18.16c-.08,0-.15,0-.22-.05-.07-.06-.01-.1,0-.15.02-.05.03-.11.1-.1.05,0,.09.05.1.1.01.07,0,.14.01.2,0,0,0,0,0,0Z" fill="#fff9cb"/>
    <path d="M26.75,22.21c.34-.18.62,0,.88.1.36.13.71.32.99.62.34.37.52.79.47,1.29-.02.17-.2.1-.31.14-.07.03-.2-.05-.21-.16-.04-.44-.39-.72-.62-1.04-.18-.25-.49-.41-.77-.57-.18-.1-.3-.23-.43-.38Z" fill="#fff9cb"/>
    <path d="M49.53,31.11c-.3.26-.45.64-.86.79-.63.24-1.26.44-1.93.5-.22.02-.44.06-.66.11-.13.03-.19-.03-.21-.13-.03-.13.1-.1.16-.12.56-.16,1.12-.29,1.68-.46.29-.09.55-.25.82-.39.32-.15.63-.32,1.01-.31Z" fill="#fff9cb"/>
    <path d="M36.09,9.07c-.14.31-.42.45-.64.67-.23.23-.53.31-.77.49-.29.23-.62.36-.95.49-.41.15-.78.36-1.17.55-.02.01-.05.05-.06.04-.41-.15-.7.22-1.09.23-.44.01-.88.1-1.31.19-.6.13-1.21.26-1.83.29-.44.02-.9.06-1.32-.19-.06-.04-.15-.08-.13-.14.02-.08.09-.09.15,0,.02.03.06.01.06,0,.15-.33.48-.2.72-.24.3-.05.57-.19.87-.24.52-.08,1.05-.17,1.57-.24.09-.01.17-.02.24-.06.26-.13.5-.17.79-.04.21.09.45-.03.63-.12.36-.17.75-.19,1.1-.35.35-.16.72-.27,1.02-.52.15-.12.36-.16.5-.19.41-.07.68-.35,1.01-.54.17-.1.35-.2.58-.11Z" fill="#fff9cb"/>
  </g>
</svg>