<?xml version="1.0" encoding="UTF-8"?>
<svg id="Layer_1" data-name="Layer 1" xmlns="http://www.w3.org/2000/svg" viewBox="0 0 70 61">
  <path d="M30.5,0h39.5v61H30.5C13.67,61,0,47.33,0,30.5H0C0,13.67,13.67,0,30.5,0Z" fill="#365846"/>
  <path d="M20.75,47.32c-.68,0-1.34-.27-1.83-.76-.61-.61-.88-1.49-.71-2.34l1.82-9c.15-.75.52-1.44,1.06-1.98l18.45-20.46c1.46-1.46,6.02-1.46,7.49,0,1.93,1.61,3.81,3.53,5.67,5.66,1.51,1.51,2.51,4.97,1,6.49l-21.45,19.47c-.55.54-1.23.91-1.98,1.06l-9.01,1.82c-.17.03-.34.05-.51.05ZM24.87,37.43h0c-.38,1.9,1.29,3.58,3.19,3.19h0c.52-.11,1-.36,1.38-.74l18.22-16.17c1.39-1.61-.39-3.38-1.45-4.44h0c-1.06-1.06-3.46-2.47-4.83-1l-15.77,17.78c-.38.38-.63.86-.74,1.38ZM24.76,36.9h0s0,0,0,0Z" fill="#fff9cb"/>
</svg>