<?xml version="1.0" encoding="UTF-8"?>
<svg id="Layer_1" data-name="Layer 1" xmlns="http://www.w3.org/2000/svg" viewBox="0 0 167.59 170.83">
  <path d="M102.45,20.3v2.72c-2.73,26.66-4.65,40.61-5.83,50.67,9.74-.74,23.71-3.09,50.52-6.17h2.36c10.86,0,16.32,9.26,16.32,18.95s-5.46,18.58-16.32,18.58h-2.36l-50.52-6.17c1.18,9.69,3.1,23.58,5.83,50.3v2.71c0,10.8-9.31,16.23-18.68,16.23h-.74c-8.94,0-17.88-5.43-17.88-15.86l.37-3.09c2.73-26.66,4.66-40.61,5.83-50.3l-50.52,6.17h-2.36c-10.86,0-16.7-9.26-16.7-18.58,0-9.32,5.83-18.95,16.7-18.95h2.36c26.44,3.09,40.47,5.43,50.52,6.17-1.18-10.06-3.1-23.95-5.83-50.67l-.37-2.72c0-10.8,9.31-16.23,18.68-16.23,9.37,0,18.68,5.43,18.68,16.23h-.06Z"/>
</svg>