<?xml version="1.0" encoding="UTF-8"?>
<svg id="Layer_1" data-name="Layer 1" xmlns="http://www.w3.org/2000/svg" viewBox="0 0 509.55 402.47">
  <path d="M243.61,280.71v-1.67c1.67-16.4,2.85-24.98,3.57-31.17-5.96.46-14.49,1.9-30.88,3.8h-1.44c-6.64,0-9.98-5.69-9.98-11.65s3.34-11.43,9.98-11.43h1.44l30.88,3.8c-.72-5.96-1.9-14.5-3.57-30.94v-1.67c0-6.64,5.69-9.98,11.42-9.98h.46c5.46,0,10.93,3.34,10.93,9.76l-.23,1.9c-1.67,16.4-2.85,24.98-3.57,30.94l30.88-3.8h1.44c6.64,0,10.21,5.69,10.21,11.43s-3.57,11.65-10.21,11.65h-1.44c-16.16-1.9-24.74-3.34-30.88-3.8.72,6.19,1.9,14.73,3.57,31.17l.23,1.67c0,6.64-5.69,9.98-11.42,9.98s-11.42-3.34-11.42-9.98h.04Z" fill="#6fa87e"/>
  <path d="M472.78,64.7c-18.33-.04-36.65-.34-54.98.15-8.46.23-11.42-3.04-10.77-11.12.46-5.35.34-10.74,0-16.1-.99-15.94-7.74-27.71-22.84-35.08-7.59-3.72-14.61-2.28-21.97-2.32-75.2-.08-150.39-.08-225.63,0-13.73,0-22.35,8.01-29.02,19.13-6.22,10.29-3.53,21.49-3.87,32.34-.42,12.98-.15,13.02-13.43,13.02h-52.13c-18.25.04-32.06,11.43-37.22,29-2.31,7.86.46,14.96.46,22.43-.27,83.44-.19,166.87-.15,250.35,0,21.26,14.76,35.95,36.19,35.95h437.98c17.94,0,34.15-16.25,34.15-34.16V101.86c0-21.14-15.71-37.01-36.76-37.09v-.08ZM257.63,350.8c-63.47.27-112.57-46.61-116.02-110.39,1.18-62.25,49.97-112.63,111.81-113.27,65.11-.68,113.59,53.14,113.86,112.82.3,60.81-50.88,110.62-109.68,110.84h.04ZM457.23,129.16c-10.39.19-20.75.04-31.15.04s-20.15.08-30.2,0c-9.79-.11-16.66-5.35-17-12.79-.34-7.29,8.39-15.56,16.88-15.6,20.45-.11,40.9-.15,61.39,0,9.52.08,16.35,6,16.2,13.55-.15,8.92-6.11,14.61-16.08,14.8h-.04Z" fill="#6fa87e"/>
</svg>