<?xml version="1.0" encoding="UTF-8"?>
<svg id="Layer_1" data-name="Layer 1" xmlns="http://www.w3.org/2000/svg" viewBox="0 0 167.59 170.83">
  <path d="M137.62,18.04c6.66-.03,13.41,2.96,18.55,8.06,5.13,5.11,8.15,11.85,8.17,18.5.03,6.67-2.96,12.71-8.07,17.03-2.34,1.99-4.69,3.97-7.03,5.96-32.62,27.64-89.49,77.93-89.49,77.93,0,0-13.04,14.88-16.27,14.42-3.23-.46-8.86-9.43-8.86-9.43-8.12-13.36-18.39-19.24-26.44-28.86-1.97-2.35-3.94-4.71-5.92-7.07-2.51-12.87,2.27-16.88,13.36-13.29,2.34,1.99,4.69,3.97,7.03,5.96,5.87,4.97,11.73,9.94,17.6,14.91,24.82-29.63,49.65-59.27,74.48-88.9,1.97-2.35,3.94-4.71,5.91-7.07,4.29-5.13,10.31-8.15,16.98-8.17Z"/>
</svg>