<svg width="56" height="42" viewBox="0 0 56 42" fill="none" xmlns="http://www.w3.org/2000/svg">
<path d="M53.8602 18.9873L30.6672 0.881709C29.8022 0.21447 28.6308 -0.0740661 27.4955 0.0161013C26.3602 -0.0740661 25.1888 0.21447 24.3238 0.881709L1.14884 18.9873C-0.382946 20.1775 -0.382946 22.1432 1.14884 23.3334C2.68062 24.5236 5.18553 24.5236 6.71732 23.3334L11.7812 19.3841V38.9324C11.7812 40.6275 13.5473 41.9981 15.7098 41.9981L38.9208 41.962C39.0469 41.962 39.1911 41.9981 39.3172 41.9981C39.4434 41.9981 39.5876 41.98 39.7317 41.962H39.8399C41.7681 41.7636 43.2638 40.4833 43.2638 38.9324V19.3841L48.3277 23.3334C49.8595 24.5236 52.3644 24.5236 53.8962 23.3334C55.428 22.1432 55.428 20.1775 53.8962 18.9873H53.8602Z" fill="black"/>
</svg>
