<?xml version="1.0" encoding="UTF-8"?>
<svg id="Layer_1" data-name="Layer 1" xmlns="http://www.w3.org/2000/svg" viewBox="0 0 167.59 170.83">
  <g id="Lag_1" data-name="Lag 1">
    <g>
      <path d="M24.9,49.89h117.8v94.53c0,12.84-10.42,23.26-23.26,23.26H48.16c-12.84,0-23.26-10.42-23.26-23.26V49.89h0Z"/>
      <path d="M156.73,85.56c-2.38,0-4.78-.8-6.76-2.43L82.75,27.66,17.76,83.02c-4.47,3.81-11.18,3.27-14.99-1.2-3.81-4.47-3.27-11.18,1.2-14.99L75.74,5.69c3.92-3.35,9.69-3.39,13.66-.11l74.09,61.14c4.53,3.74,5.17,10.44,1.43,14.97-2.1,2.55-5.14,3.87-8.21,3.87Z"/>
      <rect x="52.89" y="27.08" width="58.49" height="39.88"/>
    </g>
  </g>
</svg>