<?xml version="1.0" encoding="UTF-8"?>
<svg id="Layer_1" xmlns="http://www.w3.org/2000/svg" viewBox="0 0 26.29 25.12">
  <path d="M6.54,9.58l-3.41,3.1c-1.27,1.16-2.05,2.78-2.12,4.51s.53,3.43,1.74,4.73c1.17,1.33,2.8,2.1,4.54,2.19,1.78.1,3.42-.48,4.7-1.64l3.41-3.1M19.75,15.5l3.41-3.1c1.27-1.16,2.05-2.78,2.12-4.51.07-1.74-.53-3.43-1.74-4.73-1.17-1.29-2.8-2.06-4.54-2.15-1.74-.1-3.42.48-4.7,1.64l-3.41,3.1M7.98,17.15l10.23-9.29" fill="none" stroke="#000" stroke-linecap="round" stroke-linejoin="round" stroke-width="2"/>
</svg>