<?xml version="1.0" encoding="UTF-8"?>
<svg id="Layer_1" xmlns="http://www.w3.org/2000/svg" viewBox="0 0 28.54 28.54">
  <path d="M14.27,1H5.97c-2.75,0-4.98,2.23-4.97,4.98v16.59c0,2.75,2.23,4.98,4.98,4.97h16.59c2.75,0,4.98-2.23,4.97-4.98v-8.29" fill="none" stroke="#000" stroke-linecap="round" stroke-linejoin="round" stroke-width="2"/>
  <path d="M10.62,19.4c-.36,0-.7-.14-.96-.4-.32-.32-.46-.78-.37-1.23l.95-4.72c.08-.4.27-.75.56-1.04L21.53,1.29h0c.77-.77,2.11-.77,2.88,0l2.97,2.97c.79.79.79,2.08,0,2.88l-10.73,10.74c-.29.28-.64.48-1.04.56l-4.73.95c-.09.02-.18.03-.27.03ZM12.78,14.21h0c-.2,1,.68,1.88,1.67,1.68h0c.27-.06.53-.19.72-.39l8.8-8.8c.56-.56.55-1.46,0-2.01h0c-.56-.56-1.46-.56-2.01,0l-8.8,8.8c-.2.2-.33.45-.39.72ZM12.72,13.94h0s0,0,0,0Z"/>
</svg>