<?xml version="1.0" encoding="UTF-8"?>
<svg id="Layer_1" xmlns="http://www.w3.org/2000/svg" viewBox="0 0 28.37 28.37">
  <path d="M9.36,15.43l-.65-.76h0s.65.76.65.76ZM9.43,15.36l-.72-.7h0s.72.7.72.7ZM6.42,17.96l-.65-.76h0l.65.76ZM6.25,18.13l.82.57h0l-.82-.57ZM21.98,15.44l-.69.73h0l.69-.73ZM19.43,13.03l-.69.73h0l.69-.73ZM18.49,13.03l-.69-.73h0s.69.73.69.73ZM13.83,17.47l.69.73h0s-.69-.73-.69-.73ZM12.88,17.45l-.71.7h0s.71-.7.71-.7ZM12.87,17.44l-.71.7h0s.71-.7.71-.7ZM12.8,17.38l.65-.76h0l-.65.76ZM10.5,15.42l.65-.76h0l-.65.76ZM10.43,15.35l.71-.7h0s-.71.7-.71.7ZM10.42,15.34l.71-.7h0s-.71.7-.71.7ZM9.45,15.34l-.72-.7h0s.72.7.72.7ZM20.04,6.76v-1c-.56,0-1,.45-1,1.01h1ZM20.51,6.76h1c0-.56-.45-1-1.01-1v1ZM20.51,7.15v1c.56,0,1-.45,1-1.01h-1ZM20.04,7.16h-1c0,.56.45,1,1.01,1v-1ZM1,6.08H0s.12,16.41.12,16.41h1s1-.01,1-.01l-.12-16.41h-1ZM6.08,27.37v1s16.41-.12,16.41-.12v-1s-.01-1-.01-1l-16.41.12v1ZM27.37,22.29h1s-.12-16.41-.12-16.41h-1s-1,.01-1,.01l.12,16.41h1ZM22.29,1V0S5.88.12,5.88.12v1s.01,1,.01,1l16.41-.12v-1ZM27.25,5.89h1C28.23,2.61,25.56-.02,22.28,0v1s.01,1,.01,1c2.17-.02,3.93,1.73,3.95,3.89h1ZM22.48,27.25v1c3.28-.02,5.91-2.69,5.89-5.96h-1s-1,.01-1,.01c.02,2.17-1.73,3.93-3.89,3.95v1ZM1.12,22.48H.12c.02,3.28,2.69,5.91,5.96,5.89v-1s-.01-1-.01-1c-2.17.02-3.93-1.73-3.95-3.89h-1ZM1,6.08h1c-.02-2.17,1.73-3.94,3.89-3.96v-1s-.01-1-.01-1C2.61.14-.02,2.81,0,6.08h1ZM9.36,15.43l.65.76c.07-.06.12-.11.14-.13l-.72-.7-.72-.7s0,.01-.01.01c0,0,0,0,0,0,0,0,0,0,.01-.01l.65.76ZM6.42,17.96l.65.76,2.95-2.53-.65-.76-.65-.76-2.95,2.53.65.76ZM6.25,18.13l.82.57s-.03.03-.03.03c0,0,0,0,0,0,0,0,0,0,.01-.01l-.65-.76-.65-.76c-.09.08-.22.2-.33.37l.82.57ZM6.02,18.91h1c0-.08.02-.16.06-.22l-.82-.57-.82-.57c-.27.4-.42.87-.41,1.36h1ZM6.04,21.76h1s-.02-2.86-.02-2.86h-1s-1,.01-1,.01l.02,2.85h1ZM6.72,22.44v-1c.17,0,.31.14.31.31h-1s-1,.01-1,.01c0,.93.77,1.68,1.7,1.67v-1ZM21.76,22.33v-1s-15.05.11-15.05.11v1s.01,1,.01,1l15.04-.11v-1ZM22.44,21.64h-1c0-.17.14-.31.31-.31v1s.01,1,.01,1c.93,0,1.68-.77,1.67-1.7h-1ZM22.4,16.42h-1s.04,5.23.04,5.23h1s1-.01,1-.01l-.04-5.22h-1ZM21.98,15.44l-.69.73c.07.07.11.16.11.26h1s1-.01,1-.01c0-.64-.27-1.26-.74-1.7l-.69.73ZM19.43,13.03l-.69.73,2.55,2.41.69-.73.69-.73-2.55-2.41-.69.73ZM18.49,13.03l.69.73c-.12.12-.31.12-.44,0l.69-.73.69-.73c-.65-.61-1.67-.61-2.31,0l.69.73ZM13.83,17.47l.69.72,4.66-4.44-.69-.72-.69-.72-4.66,4.44.69.72ZM12.88,17.45l-.71.7c.64.64,1.68.67,2.35.04l-.69-.73-.69-.73c.13-.12.32-.11.44,0l-.71.7ZM12.87,17.44l-.71.7h.01s.71-.69.71-.69l.71-.7h-.01s-.71.69-.71.69ZM12.8,17.38l-.65.76s-.01-.01-.01-.01c0,0,0,0,0,0,0,0,0,0,.01.01l.71-.7.71-.7s-.07-.07-.13-.12l-.65.76ZM10.5,15.42l-.65.76,2.3,1.96.65-.76.65-.76-2.3-1.96-.65.76ZM10.43,15.35l-.71.7s.07.07.13.12l.65-.76.65-.76s.01.01.01.01c0,0,0,0,0,0,0,0,0,0-.01-.01l-.71.7ZM10.42,15.34l-.71.7h.01s.71-.69.71-.69l.71-.7h-.01s-.71.69-.71.69ZM9.45,15.34l.72.7c-.12.13-.33.13-.45,0l.71-.7.71-.7c-.66-.67-1.74-.66-2.4.01l.72.7ZM9.43,15.36l.72.7h.01s-.72-.71-.72-.71l-.72-.7h-.01s.72.71.72.71ZM20.04,6.76v1s.48,0,.48,0v-1s-.01-1-.01-1h-.47s0,1,0,1ZM20.51,6.76h-1s0,.4,0,.4h1s1-.01,1-.01v-.4s-1,0-1,0ZM20.51,7.15v-1s-.48,0-.48,0v1s.01,1,.01,1h.47s0-1,0-1ZM20.04,7.16h1s0-.4,0-.4h-1s-1,.01-1,.01v.4s1,0,1,0Z"/>
</svg>