<?xml version="1.0" encoding="UTF-8"?>
<svg id="Layer_1" data-name="Layer 1" xmlns="http://www.w3.org/2000/svg" viewBox="0 0 167.59 170.83">
  <path d="M163.61,150.47l-22.17-21.81c8.85-12.42,14.05-27.56,14.05-43.84,0-42.27-34.76-76.61-77.75-76.61S0,42.55,0,84.82s34.76,76.61,77.75,76.61c18.01,0,34.66-6.05,47.88-16.28l21.75,21.4c4.48,4.38,11.76,4.38,16.34,0,4.48-4.38,4.48-11.59,0-16.07h-.1ZM79.21,141.6c-31.02,0-56.2-24.74-56.2-55.32s25.19-55.42,56.2-55.42,56.2,24.74,56.2,55.32-25.19,55.32-56.2,55.32v.1Z"/>
</svg>